G04 #@! TF.GenerationSoftware,KiCad,Pcbnew,5.1.5-52549c5~84~ubuntu18.04.1*
G04 #@! TF.CreationDate,2020-10-30T11:30:54+01:00*
G04 #@! TF.ProjectId,output.load_cell_panel,6f757470-7574-42e6-9c6f-61645f63656c,rev?*
G04 #@! TF.SameCoordinates,Original*
G04 #@! TF.FileFunction,Legend,Bot*
G04 #@! TF.FilePolarity,Positive*
%FSLAX46Y46*%
G04 Gerber Fmt 4.6, Leading zero omitted, Abs format (unit mm)*
G04 Created by KiCad (PCBNEW 5.1.5-52549c5~84~ubuntu18.04.1) date 2020-10-30 11:30:54*
%MOMM*%
%LPD*%
G04 APERTURE LIST*
%ADD10C,0.125000*%
%ADD11C,0.120000*%
G04 APERTURE END LIST*
D10*
X164483333Y-101416666D02*
X164583333Y-101383333D01*
X164750000Y-101383333D01*
X164816666Y-101416666D01*
X164850000Y-101450000D01*
X164883333Y-101516666D01*
X164883333Y-101583333D01*
X164850000Y-101650000D01*
X164816666Y-101683333D01*
X164750000Y-101716666D01*
X164616666Y-101750000D01*
X164550000Y-101783333D01*
X164516666Y-101816666D01*
X164483333Y-101883333D01*
X164483333Y-101950000D01*
X164516666Y-102016666D01*
X164550000Y-102050000D01*
X164616666Y-102083333D01*
X164783333Y-102083333D01*
X164883333Y-102050000D01*
X165183333Y-101383333D02*
X165183333Y-102083333D01*
X165350000Y-102083333D01*
X165450000Y-102050000D01*
X165516666Y-101983333D01*
X165550000Y-101916666D01*
X165583333Y-101783333D01*
X165583333Y-101683333D01*
X165550000Y-101550000D01*
X165516666Y-101483333D01*
X165450000Y-101416666D01*
X165350000Y-101383333D01*
X165183333Y-101383333D01*
X165883333Y-101383333D02*
X165883333Y-102083333D01*
X153483333Y-101416666D02*
X153583333Y-101383333D01*
X153750000Y-101383333D01*
X153816666Y-101416666D01*
X153850000Y-101450000D01*
X153883333Y-101516666D01*
X153883333Y-101583333D01*
X153850000Y-101650000D01*
X153816666Y-101683333D01*
X153750000Y-101716666D01*
X153616666Y-101750000D01*
X153550000Y-101783333D01*
X153516666Y-101816666D01*
X153483333Y-101883333D01*
X153483333Y-101950000D01*
X153516666Y-102016666D01*
X153550000Y-102050000D01*
X153616666Y-102083333D01*
X153783333Y-102083333D01*
X153883333Y-102050000D01*
X154183333Y-101383333D02*
X154183333Y-102083333D01*
X154350000Y-102083333D01*
X154450000Y-102050000D01*
X154516666Y-101983333D01*
X154550000Y-101916666D01*
X154583333Y-101783333D01*
X154583333Y-101683333D01*
X154550000Y-101550000D01*
X154516666Y-101483333D01*
X154450000Y-101416666D01*
X154350000Y-101383333D01*
X154183333Y-101383333D01*
X154883333Y-101383333D02*
X154883333Y-102083333D01*
X142483333Y-101416666D02*
X142583333Y-101383333D01*
X142750000Y-101383333D01*
X142816666Y-101416666D01*
X142850000Y-101450000D01*
X142883333Y-101516666D01*
X142883333Y-101583333D01*
X142850000Y-101650000D01*
X142816666Y-101683333D01*
X142750000Y-101716666D01*
X142616666Y-101750000D01*
X142550000Y-101783333D01*
X142516666Y-101816666D01*
X142483333Y-101883333D01*
X142483333Y-101950000D01*
X142516666Y-102016666D01*
X142550000Y-102050000D01*
X142616666Y-102083333D01*
X142783333Y-102083333D01*
X142883333Y-102050000D01*
X143183333Y-101383333D02*
X143183333Y-102083333D01*
X143350000Y-102083333D01*
X143450000Y-102050000D01*
X143516666Y-101983333D01*
X143550000Y-101916666D01*
X143583333Y-101783333D01*
X143583333Y-101683333D01*
X143550000Y-101550000D01*
X143516666Y-101483333D01*
X143450000Y-101416666D01*
X143350000Y-101383333D01*
X143183333Y-101383333D01*
X143883333Y-101383333D02*
X143883333Y-102083333D01*
X164483333Y-91416666D02*
X164583333Y-91383333D01*
X164750000Y-91383333D01*
X164816666Y-91416666D01*
X164850000Y-91450000D01*
X164883333Y-91516666D01*
X164883333Y-91583333D01*
X164850000Y-91650000D01*
X164816666Y-91683333D01*
X164750000Y-91716666D01*
X164616666Y-91750000D01*
X164550000Y-91783333D01*
X164516666Y-91816666D01*
X164483333Y-91883333D01*
X164483333Y-91950000D01*
X164516666Y-92016666D01*
X164550000Y-92050000D01*
X164616666Y-92083333D01*
X164783333Y-92083333D01*
X164883333Y-92050000D01*
X165183333Y-91383333D02*
X165183333Y-92083333D01*
X165350000Y-92083333D01*
X165450000Y-92050000D01*
X165516666Y-91983333D01*
X165550000Y-91916666D01*
X165583333Y-91783333D01*
X165583333Y-91683333D01*
X165550000Y-91550000D01*
X165516666Y-91483333D01*
X165450000Y-91416666D01*
X165350000Y-91383333D01*
X165183333Y-91383333D01*
X165883333Y-91383333D02*
X165883333Y-92083333D01*
X153483333Y-91416666D02*
X153583333Y-91383333D01*
X153750000Y-91383333D01*
X153816666Y-91416666D01*
X153850000Y-91450000D01*
X153883333Y-91516666D01*
X153883333Y-91583333D01*
X153850000Y-91650000D01*
X153816666Y-91683333D01*
X153750000Y-91716666D01*
X153616666Y-91750000D01*
X153550000Y-91783333D01*
X153516666Y-91816666D01*
X153483333Y-91883333D01*
X153483333Y-91950000D01*
X153516666Y-92016666D01*
X153550000Y-92050000D01*
X153616666Y-92083333D01*
X153783333Y-92083333D01*
X153883333Y-92050000D01*
X154183333Y-91383333D02*
X154183333Y-92083333D01*
X154350000Y-92083333D01*
X154450000Y-92050000D01*
X154516666Y-91983333D01*
X154550000Y-91916666D01*
X154583333Y-91783333D01*
X154583333Y-91683333D01*
X154550000Y-91550000D01*
X154516666Y-91483333D01*
X154450000Y-91416666D01*
X154350000Y-91383333D01*
X154183333Y-91383333D01*
X154883333Y-91383333D02*
X154883333Y-92083333D01*
X142483333Y-91416666D02*
X142583333Y-91383333D01*
X142750000Y-91383333D01*
X142816666Y-91416666D01*
X142850000Y-91450000D01*
X142883333Y-91516666D01*
X142883333Y-91583333D01*
X142850000Y-91650000D01*
X142816666Y-91683333D01*
X142750000Y-91716666D01*
X142616666Y-91750000D01*
X142550000Y-91783333D01*
X142516666Y-91816666D01*
X142483333Y-91883333D01*
X142483333Y-91950000D01*
X142516666Y-92016666D01*
X142550000Y-92050000D01*
X142616666Y-92083333D01*
X142783333Y-92083333D01*
X142883333Y-92050000D01*
X143183333Y-91383333D02*
X143183333Y-92083333D01*
X143350000Y-92083333D01*
X143450000Y-92050000D01*
X143516666Y-91983333D01*
X143550000Y-91916666D01*
X143583333Y-91783333D01*
X143583333Y-91683333D01*
X143550000Y-91550000D01*
X143516666Y-91483333D01*
X143450000Y-91416666D01*
X143350000Y-91383333D01*
X143183333Y-91383333D01*
X143883333Y-91383333D02*
X143883333Y-92083333D01*
X164483333Y-81416666D02*
X164583333Y-81383333D01*
X164750000Y-81383333D01*
X164816666Y-81416666D01*
X164850000Y-81450000D01*
X164883333Y-81516666D01*
X164883333Y-81583333D01*
X164850000Y-81650000D01*
X164816666Y-81683333D01*
X164750000Y-81716666D01*
X164616666Y-81750000D01*
X164550000Y-81783333D01*
X164516666Y-81816666D01*
X164483333Y-81883333D01*
X164483333Y-81950000D01*
X164516666Y-82016666D01*
X164550000Y-82050000D01*
X164616666Y-82083333D01*
X164783333Y-82083333D01*
X164883333Y-82050000D01*
X165183333Y-81383333D02*
X165183333Y-82083333D01*
X165350000Y-82083333D01*
X165450000Y-82050000D01*
X165516666Y-81983333D01*
X165550000Y-81916666D01*
X165583333Y-81783333D01*
X165583333Y-81683333D01*
X165550000Y-81550000D01*
X165516666Y-81483333D01*
X165450000Y-81416666D01*
X165350000Y-81383333D01*
X165183333Y-81383333D01*
X165883333Y-81383333D02*
X165883333Y-82083333D01*
X153483333Y-81416666D02*
X153583333Y-81383333D01*
X153750000Y-81383333D01*
X153816666Y-81416666D01*
X153850000Y-81450000D01*
X153883333Y-81516666D01*
X153883333Y-81583333D01*
X153850000Y-81650000D01*
X153816666Y-81683333D01*
X153750000Y-81716666D01*
X153616666Y-81750000D01*
X153550000Y-81783333D01*
X153516666Y-81816666D01*
X153483333Y-81883333D01*
X153483333Y-81950000D01*
X153516666Y-82016666D01*
X153550000Y-82050000D01*
X153616666Y-82083333D01*
X153783333Y-82083333D01*
X153883333Y-82050000D01*
X154183333Y-81383333D02*
X154183333Y-82083333D01*
X154350000Y-82083333D01*
X154450000Y-82050000D01*
X154516666Y-81983333D01*
X154550000Y-81916666D01*
X154583333Y-81783333D01*
X154583333Y-81683333D01*
X154550000Y-81550000D01*
X154516666Y-81483333D01*
X154450000Y-81416666D01*
X154350000Y-81383333D01*
X154183333Y-81383333D01*
X154883333Y-81383333D02*
X154883333Y-82083333D01*
X142483333Y-81416666D02*
X142583333Y-81383333D01*
X142750000Y-81383333D01*
X142816666Y-81416666D01*
X142850000Y-81450000D01*
X142883333Y-81516666D01*
X142883333Y-81583333D01*
X142850000Y-81650000D01*
X142816666Y-81683333D01*
X142750000Y-81716666D01*
X142616666Y-81750000D01*
X142550000Y-81783333D01*
X142516666Y-81816666D01*
X142483333Y-81883333D01*
X142483333Y-81950000D01*
X142516666Y-82016666D01*
X142550000Y-82050000D01*
X142616666Y-82083333D01*
X142783333Y-82083333D01*
X142883333Y-82050000D01*
X143183333Y-81383333D02*
X143183333Y-82083333D01*
X143350000Y-82083333D01*
X143450000Y-82050000D01*
X143516666Y-81983333D01*
X143550000Y-81916666D01*
X143583333Y-81783333D01*
X143583333Y-81683333D01*
X143550000Y-81550000D01*
X143516666Y-81483333D01*
X143450000Y-81416666D01*
X143350000Y-81383333D01*
X143183333Y-81383333D01*
X143883333Y-81383333D02*
X143883333Y-82083333D01*
X164483333Y-71416666D02*
X164583333Y-71383333D01*
X164750000Y-71383333D01*
X164816666Y-71416666D01*
X164850000Y-71450000D01*
X164883333Y-71516666D01*
X164883333Y-71583333D01*
X164850000Y-71650000D01*
X164816666Y-71683333D01*
X164750000Y-71716666D01*
X164616666Y-71750000D01*
X164550000Y-71783333D01*
X164516666Y-71816666D01*
X164483333Y-71883333D01*
X164483333Y-71950000D01*
X164516666Y-72016666D01*
X164550000Y-72050000D01*
X164616666Y-72083333D01*
X164783333Y-72083333D01*
X164883333Y-72050000D01*
X165183333Y-71383333D02*
X165183333Y-72083333D01*
X165350000Y-72083333D01*
X165450000Y-72050000D01*
X165516666Y-71983333D01*
X165550000Y-71916666D01*
X165583333Y-71783333D01*
X165583333Y-71683333D01*
X165550000Y-71550000D01*
X165516666Y-71483333D01*
X165450000Y-71416666D01*
X165350000Y-71383333D01*
X165183333Y-71383333D01*
X165883333Y-71383333D02*
X165883333Y-72083333D01*
X153483333Y-71416666D02*
X153583333Y-71383333D01*
X153750000Y-71383333D01*
X153816666Y-71416666D01*
X153850000Y-71450000D01*
X153883333Y-71516666D01*
X153883333Y-71583333D01*
X153850000Y-71650000D01*
X153816666Y-71683333D01*
X153750000Y-71716666D01*
X153616666Y-71750000D01*
X153550000Y-71783333D01*
X153516666Y-71816666D01*
X153483333Y-71883333D01*
X153483333Y-71950000D01*
X153516666Y-72016666D01*
X153550000Y-72050000D01*
X153616666Y-72083333D01*
X153783333Y-72083333D01*
X153883333Y-72050000D01*
X154183333Y-71383333D02*
X154183333Y-72083333D01*
X154350000Y-72083333D01*
X154450000Y-72050000D01*
X154516666Y-71983333D01*
X154550000Y-71916666D01*
X154583333Y-71783333D01*
X154583333Y-71683333D01*
X154550000Y-71550000D01*
X154516666Y-71483333D01*
X154450000Y-71416666D01*
X154350000Y-71383333D01*
X154183333Y-71383333D01*
X154883333Y-71383333D02*
X154883333Y-72083333D01*
X142483333Y-71416666D02*
X142583333Y-71383333D01*
X142750000Y-71383333D01*
X142816666Y-71416666D01*
X142850000Y-71450000D01*
X142883333Y-71516666D01*
X142883333Y-71583333D01*
X142850000Y-71650000D01*
X142816666Y-71683333D01*
X142750000Y-71716666D01*
X142616666Y-71750000D01*
X142550000Y-71783333D01*
X142516666Y-71816666D01*
X142483333Y-71883333D01*
X142483333Y-71950000D01*
X142516666Y-72016666D01*
X142550000Y-72050000D01*
X142616666Y-72083333D01*
X142783333Y-72083333D01*
X142883333Y-72050000D01*
X143183333Y-71383333D02*
X143183333Y-72083333D01*
X143350000Y-72083333D01*
X143450000Y-72050000D01*
X143516666Y-71983333D01*
X143550000Y-71916666D01*
X143583333Y-71783333D01*
X143583333Y-71683333D01*
X143550000Y-71550000D01*
X143516666Y-71483333D01*
X143450000Y-71416666D01*
X143350000Y-71383333D01*
X143183333Y-71383333D01*
X143883333Y-71383333D02*
X143883333Y-72083333D01*
X164566666Y-105650000D02*
X164500000Y-105683333D01*
X164400000Y-105683333D01*
X164300000Y-105650000D01*
X164233333Y-105583333D01*
X164200000Y-105516666D01*
X164166666Y-105383333D01*
X164166666Y-105283333D01*
X164200000Y-105150000D01*
X164233333Y-105083333D01*
X164300000Y-105016666D01*
X164400000Y-104983333D01*
X164466666Y-104983333D01*
X164566666Y-105016666D01*
X164600000Y-105050000D01*
X164600000Y-105283333D01*
X164466666Y-105283333D01*
X164900000Y-104983333D02*
X164900000Y-105683333D01*
X165300000Y-104983333D01*
X165300000Y-105683333D01*
X165633333Y-104983333D02*
X165633333Y-105683333D01*
X165800000Y-105683333D01*
X165900000Y-105650000D01*
X165966666Y-105583333D01*
X166000000Y-105516666D01*
X166033333Y-105383333D01*
X166033333Y-105283333D01*
X166000000Y-105150000D01*
X165966666Y-105083333D01*
X165900000Y-105016666D01*
X165800000Y-104983333D01*
X165633333Y-104983333D01*
X153566666Y-105650000D02*
X153500000Y-105683333D01*
X153400000Y-105683333D01*
X153300000Y-105650000D01*
X153233333Y-105583333D01*
X153200000Y-105516666D01*
X153166666Y-105383333D01*
X153166666Y-105283333D01*
X153200000Y-105150000D01*
X153233333Y-105083333D01*
X153300000Y-105016666D01*
X153400000Y-104983333D01*
X153466666Y-104983333D01*
X153566666Y-105016666D01*
X153600000Y-105050000D01*
X153600000Y-105283333D01*
X153466666Y-105283333D01*
X153900000Y-104983333D02*
X153900000Y-105683333D01*
X154300000Y-104983333D01*
X154300000Y-105683333D01*
X154633333Y-104983333D02*
X154633333Y-105683333D01*
X154800000Y-105683333D01*
X154900000Y-105650000D01*
X154966666Y-105583333D01*
X155000000Y-105516666D01*
X155033333Y-105383333D01*
X155033333Y-105283333D01*
X155000000Y-105150000D01*
X154966666Y-105083333D01*
X154900000Y-105016666D01*
X154800000Y-104983333D01*
X154633333Y-104983333D01*
X142566666Y-105650000D02*
X142500000Y-105683333D01*
X142400000Y-105683333D01*
X142300000Y-105650000D01*
X142233333Y-105583333D01*
X142200000Y-105516666D01*
X142166666Y-105383333D01*
X142166666Y-105283333D01*
X142200000Y-105150000D01*
X142233333Y-105083333D01*
X142300000Y-105016666D01*
X142400000Y-104983333D01*
X142466666Y-104983333D01*
X142566666Y-105016666D01*
X142600000Y-105050000D01*
X142600000Y-105283333D01*
X142466666Y-105283333D01*
X142900000Y-104983333D02*
X142900000Y-105683333D01*
X143300000Y-104983333D01*
X143300000Y-105683333D01*
X143633333Y-104983333D02*
X143633333Y-105683333D01*
X143800000Y-105683333D01*
X143900000Y-105650000D01*
X143966666Y-105583333D01*
X144000000Y-105516666D01*
X144033333Y-105383333D01*
X144033333Y-105283333D01*
X144000000Y-105150000D01*
X143966666Y-105083333D01*
X143900000Y-105016666D01*
X143800000Y-104983333D01*
X143633333Y-104983333D01*
X164566666Y-95650000D02*
X164500000Y-95683333D01*
X164400000Y-95683333D01*
X164300000Y-95650000D01*
X164233333Y-95583333D01*
X164200000Y-95516666D01*
X164166666Y-95383333D01*
X164166666Y-95283333D01*
X164200000Y-95150000D01*
X164233333Y-95083333D01*
X164300000Y-95016666D01*
X164400000Y-94983333D01*
X164466666Y-94983333D01*
X164566666Y-95016666D01*
X164600000Y-95050000D01*
X164600000Y-95283333D01*
X164466666Y-95283333D01*
X164900000Y-94983333D02*
X164900000Y-95683333D01*
X165300000Y-94983333D01*
X165300000Y-95683333D01*
X165633333Y-94983333D02*
X165633333Y-95683333D01*
X165800000Y-95683333D01*
X165900000Y-95650000D01*
X165966666Y-95583333D01*
X166000000Y-95516666D01*
X166033333Y-95383333D01*
X166033333Y-95283333D01*
X166000000Y-95150000D01*
X165966666Y-95083333D01*
X165900000Y-95016666D01*
X165800000Y-94983333D01*
X165633333Y-94983333D01*
X153566666Y-95650000D02*
X153500000Y-95683333D01*
X153400000Y-95683333D01*
X153300000Y-95650000D01*
X153233333Y-95583333D01*
X153200000Y-95516666D01*
X153166666Y-95383333D01*
X153166666Y-95283333D01*
X153200000Y-95150000D01*
X153233333Y-95083333D01*
X153300000Y-95016666D01*
X153400000Y-94983333D01*
X153466666Y-94983333D01*
X153566666Y-95016666D01*
X153600000Y-95050000D01*
X153600000Y-95283333D01*
X153466666Y-95283333D01*
X153900000Y-94983333D02*
X153900000Y-95683333D01*
X154300000Y-94983333D01*
X154300000Y-95683333D01*
X154633333Y-94983333D02*
X154633333Y-95683333D01*
X154800000Y-95683333D01*
X154900000Y-95650000D01*
X154966666Y-95583333D01*
X155000000Y-95516666D01*
X155033333Y-95383333D01*
X155033333Y-95283333D01*
X155000000Y-95150000D01*
X154966666Y-95083333D01*
X154900000Y-95016666D01*
X154800000Y-94983333D01*
X154633333Y-94983333D01*
X142566666Y-95650000D02*
X142500000Y-95683333D01*
X142400000Y-95683333D01*
X142300000Y-95650000D01*
X142233333Y-95583333D01*
X142200000Y-95516666D01*
X142166666Y-95383333D01*
X142166666Y-95283333D01*
X142200000Y-95150000D01*
X142233333Y-95083333D01*
X142300000Y-95016666D01*
X142400000Y-94983333D01*
X142466666Y-94983333D01*
X142566666Y-95016666D01*
X142600000Y-95050000D01*
X142600000Y-95283333D01*
X142466666Y-95283333D01*
X142900000Y-94983333D02*
X142900000Y-95683333D01*
X143300000Y-94983333D01*
X143300000Y-95683333D01*
X143633333Y-94983333D02*
X143633333Y-95683333D01*
X143800000Y-95683333D01*
X143900000Y-95650000D01*
X143966666Y-95583333D01*
X144000000Y-95516666D01*
X144033333Y-95383333D01*
X144033333Y-95283333D01*
X144000000Y-95150000D01*
X143966666Y-95083333D01*
X143900000Y-95016666D01*
X143800000Y-94983333D01*
X143633333Y-94983333D01*
X164566666Y-85650000D02*
X164500000Y-85683333D01*
X164400000Y-85683333D01*
X164300000Y-85650000D01*
X164233333Y-85583333D01*
X164200000Y-85516666D01*
X164166666Y-85383333D01*
X164166666Y-85283333D01*
X164200000Y-85150000D01*
X164233333Y-85083333D01*
X164300000Y-85016666D01*
X164400000Y-84983333D01*
X164466666Y-84983333D01*
X164566666Y-85016666D01*
X164600000Y-85050000D01*
X164600000Y-85283333D01*
X164466666Y-85283333D01*
X164900000Y-84983333D02*
X164900000Y-85683333D01*
X165300000Y-84983333D01*
X165300000Y-85683333D01*
X165633333Y-84983333D02*
X165633333Y-85683333D01*
X165800000Y-85683333D01*
X165900000Y-85650000D01*
X165966666Y-85583333D01*
X166000000Y-85516666D01*
X166033333Y-85383333D01*
X166033333Y-85283333D01*
X166000000Y-85150000D01*
X165966666Y-85083333D01*
X165900000Y-85016666D01*
X165800000Y-84983333D01*
X165633333Y-84983333D01*
X153566666Y-85650000D02*
X153500000Y-85683333D01*
X153400000Y-85683333D01*
X153300000Y-85650000D01*
X153233333Y-85583333D01*
X153200000Y-85516666D01*
X153166666Y-85383333D01*
X153166666Y-85283333D01*
X153200000Y-85150000D01*
X153233333Y-85083333D01*
X153300000Y-85016666D01*
X153400000Y-84983333D01*
X153466666Y-84983333D01*
X153566666Y-85016666D01*
X153600000Y-85050000D01*
X153600000Y-85283333D01*
X153466666Y-85283333D01*
X153900000Y-84983333D02*
X153900000Y-85683333D01*
X154300000Y-84983333D01*
X154300000Y-85683333D01*
X154633333Y-84983333D02*
X154633333Y-85683333D01*
X154800000Y-85683333D01*
X154900000Y-85650000D01*
X154966666Y-85583333D01*
X155000000Y-85516666D01*
X155033333Y-85383333D01*
X155033333Y-85283333D01*
X155000000Y-85150000D01*
X154966666Y-85083333D01*
X154900000Y-85016666D01*
X154800000Y-84983333D01*
X154633333Y-84983333D01*
X142566666Y-85650000D02*
X142500000Y-85683333D01*
X142400000Y-85683333D01*
X142300000Y-85650000D01*
X142233333Y-85583333D01*
X142200000Y-85516666D01*
X142166666Y-85383333D01*
X142166666Y-85283333D01*
X142200000Y-85150000D01*
X142233333Y-85083333D01*
X142300000Y-85016666D01*
X142400000Y-84983333D01*
X142466666Y-84983333D01*
X142566666Y-85016666D01*
X142600000Y-85050000D01*
X142600000Y-85283333D01*
X142466666Y-85283333D01*
X142900000Y-84983333D02*
X142900000Y-85683333D01*
X143300000Y-84983333D01*
X143300000Y-85683333D01*
X143633333Y-84983333D02*
X143633333Y-85683333D01*
X143800000Y-85683333D01*
X143900000Y-85650000D01*
X143966666Y-85583333D01*
X144000000Y-85516666D01*
X144033333Y-85383333D01*
X144033333Y-85283333D01*
X144000000Y-85150000D01*
X143966666Y-85083333D01*
X143900000Y-85016666D01*
X143800000Y-84983333D01*
X143633333Y-84983333D01*
X164566666Y-75650000D02*
X164500000Y-75683333D01*
X164400000Y-75683333D01*
X164300000Y-75650000D01*
X164233333Y-75583333D01*
X164200000Y-75516666D01*
X164166666Y-75383333D01*
X164166666Y-75283333D01*
X164200000Y-75150000D01*
X164233333Y-75083333D01*
X164300000Y-75016666D01*
X164400000Y-74983333D01*
X164466666Y-74983333D01*
X164566666Y-75016666D01*
X164600000Y-75050000D01*
X164600000Y-75283333D01*
X164466666Y-75283333D01*
X164900000Y-74983333D02*
X164900000Y-75683333D01*
X165300000Y-74983333D01*
X165300000Y-75683333D01*
X165633333Y-74983333D02*
X165633333Y-75683333D01*
X165800000Y-75683333D01*
X165900000Y-75650000D01*
X165966666Y-75583333D01*
X166000000Y-75516666D01*
X166033333Y-75383333D01*
X166033333Y-75283333D01*
X166000000Y-75150000D01*
X165966666Y-75083333D01*
X165900000Y-75016666D01*
X165800000Y-74983333D01*
X165633333Y-74983333D01*
X153566666Y-75650000D02*
X153500000Y-75683333D01*
X153400000Y-75683333D01*
X153300000Y-75650000D01*
X153233333Y-75583333D01*
X153200000Y-75516666D01*
X153166666Y-75383333D01*
X153166666Y-75283333D01*
X153200000Y-75150000D01*
X153233333Y-75083333D01*
X153300000Y-75016666D01*
X153400000Y-74983333D01*
X153466666Y-74983333D01*
X153566666Y-75016666D01*
X153600000Y-75050000D01*
X153600000Y-75283333D01*
X153466666Y-75283333D01*
X153900000Y-74983333D02*
X153900000Y-75683333D01*
X154300000Y-74983333D01*
X154300000Y-75683333D01*
X154633333Y-74983333D02*
X154633333Y-75683333D01*
X154800000Y-75683333D01*
X154900000Y-75650000D01*
X154966666Y-75583333D01*
X155000000Y-75516666D01*
X155033333Y-75383333D01*
X155033333Y-75283333D01*
X155000000Y-75150000D01*
X154966666Y-75083333D01*
X154900000Y-75016666D01*
X154800000Y-74983333D01*
X154633333Y-74983333D01*
X142566666Y-75650000D02*
X142500000Y-75683333D01*
X142400000Y-75683333D01*
X142300000Y-75650000D01*
X142233333Y-75583333D01*
X142200000Y-75516666D01*
X142166666Y-75383333D01*
X142166666Y-75283333D01*
X142200000Y-75150000D01*
X142233333Y-75083333D01*
X142300000Y-75016666D01*
X142400000Y-74983333D01*
X142466666Y-74983333D01*
X142566666Y-75016666D01*
X142600000Y-75050000D01*
X142600000Y-75283333D01*
X142466666Y-75283333D01*
X142900000Y-74983333D02*
X142900000Y-75683333D01*
X143300000Y-74983333D01*
X143300000Y-75683333D01*
X143633333Y-74983333D02*
X143633333Y-75683333D01*
X143800000Y-75683333D01*
X143900000Y-75650000D01*
X143966666Y-75583333D01*
X144000000Y-75516666D01*
X144033333Y-75383333D01*
X144033333Y-75283333D01*
X144000000Y-75150000D01*
X143966666Y-75083333D01*
X143900000Y-75016666D01*
X143800000Y-74983333D01*
X143633333Y-74983333D01*
X164100000Y-102716666D02*
X164200000Y-102683333D01*
X164366666Y-102683333D01*
X164433333Y-102716666D01*
X164466666Y-102750000D01*
X164500000Y-102816666D01*
X164500000Y-102883333D01*
X164466666Y-102950000D01*
X164433333Y-102983333D01*
X164366666Y-103016666D01*
X164233333Y-103050000D01*
X164166666Y-103083333D01*
X164133333Y-103116666D01*
X164100000Y-103183333D01*
X164100000Y-103250000D01*
X164133333Y-103316666D01*
X164166666Y-103350000D01*
X164233333Y-103383333D01*
X164400000Y-103383333D01*
X164500000Y-103350000D01*
X165200000Y-102750000D02*
X165166666Y-102716666D01*
X165066666Y-102683333D01*
X165000000Y-102683333D01*
X164900000Y-102716666D01*
X164833333Y-102783333D01*
X164800000Y-102850000D01*
X164766666Y-102983333D01*
X164766666Y-103083333D01*
X164800000Y-103216666D01*
X164833333Y-103283333D01*
X164900000Y-103350000D01*
X165000000Y-103383333D01*
X165066666Y-103383333D01*
X165166666Y-103350000D01*
X165200000Y-103316666D01*
X165500000Y-102683333D02*
X165500000Y-103383333D01*
X165900000Y-102683333D02*
X165600000Y-103083333D01*
X165900000Y-103383333D02*
X165500000Y-102983333D01*
X153100000Y-102716666D02*
X153200000Y-102683333D01*
X153366666Y-102683333D01*
X153433333Y-102716666D01*
X153466666Y-102750000D01*
X153500000Y-102816666D01*
X153500000Y-102883333D01*
X153466666Y-102950000D01*
X153433333Y-102983333D01*
X153366666Y-103016666D01*
X153233333Y-103050000D01*
X153166666Y-103083333D01*
X153133333Y-103116666D01*
X153100000Y-103183333D01*
X153100000Y-103250000D01*
X153133333Y-103316666D01*
X153166666Y-103350000D01*
X153233333Y-103383333D01*
X153400000Y-103383333D01*
X153500000Y-103350000D01*
X154200000Y-102750000D02*
X154166666Y-102716666D01*
X154066666Y-102683333D01*
X154000000Y-102683333D01*
X153900000Y-102716666D01*
X153833333Y-102783333D01*
X153800000Y-102850000D01*
X153766666Y-102983333D01*
X153766666Y-103083333D01*
X153800000Y-103216666D01*
X153833333Y-103283333D01*
X153900000Y-103350000D01*
X154000000Y-103383333D01*
X154066666Y-103383333D01*
X154166666Y-103350000D01*
X154200000Y-103316666D01*
X154500000Y-102683333D02*
X154500000Y-103383333D01*
X154900000Y-102683333D02*
X154600000Y-103083333D01*
X154900000Y-103383333D02*
X154500000Y-102983333D01*
X142100000Y-102716666D02*
X142200000Y-102683333D01*
X142366666Y-102683333D01*
X142433333Y-102716666D01*
X142466666Y-102750000D01*
X142500000Y-102816666D01*
X142500000Y-102883333D01*
X142466666Y-102950000D01*
X142433333Y-102983333D01*
X142366666Y-103016666D01*
X142233333Y-103050000D01*
X142166666Y-103083333D01*
X142133333Y-103116666D01*
X142100000Y-103183333D01*
X142100000Y-103250000D01*
X142133333Y-103316666D01*
X142166666Y-103350000D01*
X142233333Y-103383333D01*
X142400000Y-103383333D01*
X142500000Y-103350000D01*
X143200000Y-102750000D02*
X143166666Y-102716666D01*
X143066666Y-102683333D01*
X143000000Y-102683333D01*
X142900000Y-102716666D01*
X142833333Y-102783333D01*
X142800000Y-102850000D01*
X142766666Y-102983333D01*
X142766666Y-103083333D01*
X142800000Y-103216666D01*
X142833333Y-103283333D01*
X142900000Y-103350000D01*
X143000000Y-103383333D01*
X143066666Y-103383333D01*
X143166666Y-103350000D01*
X143200000Y-103316666D01*
X143500000Y-102683333D02*
X143500000Y-103383333D01*
X143900000Y-102683333D02*
X143600000Y-103083333D01*
X143900000Y-103383333D02*
X143500000Y-102983333D01*
X164100000Y-92716666D02*
X164200000Y-92683333D01*
X164366666Y-92683333D01*
X164433333Y-92716666D01*
X164466666Y-92750000D01*
X164500000Y-92816666D01*
X164500000Y-92883333D01*
X164466666Y-92950000D01*
X164433333Y-92983333D01*
X164366666Y-93016666D01*
X164233333Y-93050000D01*
X164166666Y-93083333D01*
X164133333Y-93116666D01*
X164100000Y-93183333D01*
X164100000Y-93250000D01*
X164133333Y-93316666D01*
X164166666Y-93350000D01*
X164233333Y-93383333D01*
X164400000Y-93383333D01*
X164500000Y-93350000D01*
X165200000Y-92750000D02*
X165166666Y-92716666D01*
X165066666Y-92683333D01*
X165000000Y-92683333D01*
X164900000Y-92716666D01*
X164833333Y-92783333D01*
X164800000Y-92850000D01*
X164766666Y-92983333D01*
X164766666Y-93083333D01*
X164800000Y-93216666D01*
X164833333Y-93283333D01*
X164900000Y-93350000D01*
X165000000Y-93383333D01*
X165066666Y-93383333D01*
X165166666Y-93350000D01*
X165200000Y-93316666D01*
X165500000Y-92683333D02*
X165500000Y-93383333D01*
X165900000Y-92683333D02*
X165600000Y-93083333D01*
X165900000Y-93383333D02*
X165500000Y-92983333D01*
X153100000Y-92716666D02*
X153200000Y-92683333D01*
X153366666Y-92683333D01*
X153433333Y-92716666D01*
X153466666Y-92750000D01*
X153500000Y-92816666D01*
X153500000Y-92883333D01*
X153466666Y-92950000D01*
X153433333Y-92983333D01*
X153366666Y-93016666D01*
X153233333Y-93050000D01*
X153166666Y-93083333D01*
X153133333Y-93116666D01*
X153100000Y-93183333D01*
X153100000Y-93250000D01*
X153133333Y-93316666D01*
X153166666Y-93350000D01*
X153233333Y-93383333D01*
X153400000Y-93383333D01*
X153500000Y-93350000D01*
X154200000Y-92750000D02*
X154166666Y-92716666D01*
X154066666Y-92683333D01*
X154000000Y-92683333D01*
X153900000Y-92716666D01*
X153833333Y-92783333D01*
X153800000Y-92850000D01*
X153766666Y-92983333D01*
X153766666Y-93083333D01*
X153800000Y-93216666D01*
X153833333Y-93283333D01*
X153900000Y-93350000D01*
X154000000Y-93383333D01*
X154066666Y-93383333D01*
X154166666Y-93350000D01*
X154200000Y-93316666D01*
X154500000Y-92683333D02*
X154500000Y-93383333D01*
X154900000Y-92683333D02*
X154600000Y-93083333D01*
X154900000Y-93383333D02*
X154500000Y-92983333D01*
X142100000Y-92716666D02*
X142200000Y-92683333D01*
X142366666Y-92683333D01*
X142433333Y-92716666D01*
X142466666Y-92750000D01*
X142500000Y-92816666D01*
X142500000Y-92883333D01*
X142466666Y-92950000D01*
X142433333Y-92983333D01*
X142366666Y-93016666D01*
X142233333Y-93050000D01*
X142166666Y-93083333D01*
X142133333Y-93116666D01*
X142100000Y-93183333D01*
X142100000Y-93250000D01*
X142133333Y-93316666D01*
X142166666Y-93350000D01*
X142233333Y-93383333D01*
X142400000Y-93383333D01*
X142500000Y-93350000D01*
X143200000Y-92750000D02*
X143166666Y-92716666D01*
X143066666Y-92683333D01*
X143000000Y-92683333D01*
X142900000Y-92716666D01*
X142833333Y-92783333D01*
X142800000Y-92850000D01*
X142766666Y-92983333D01*
X142766666Y-93083333D01*
X142800000Y-93216666D01*
X142833333Y-93283333D01*
X142900000Y-93350000D01*
X143000000Y-93383333D01*
X143066666Y-93383333D01*
X143166666Y-93350000D01*
X143200000Y-93316666D01*
X143500000Y-92683333D02*
X143500000Y-93383333D01*
X143900000Y-92683333D02*
X143600000Y-93083333D01*
X143900000Y-93383333D02*
X143500000Y-92983333D01*
X164100000Y-82716666D02*
X164200000Y-82683333D01*
X164366666Y-82683333D01*
X164433333Y-82716666D01*
X164466666Y-82750000D01*
X164500000Y-82816666D01*
X164500000Y-82883333D01*
X164466666Y-82950000D01*
X164433333Y-82983333D01*
X164366666Y-83016666D01*
X164233333Y-83050000D01*
X164166666Y-83083333D01*
X164133333Y-83116666D01*
X164100000Y-83183333D01*
X164100000Y-83250000D01*
X164133333Y-83316666D01*
X164166666Y-83350000D01*
X164233333Y-83383333D01*
X164400000Y-83383333D01*
X164500000Y-83350000D01*
X165200000Y-82750000D02*
X165166666Y-82716666D01*
X165066666Y-82683333D01*
X165000000Y-82683333D01*
X164900000Y-82716666D01*
X164833333Y-82783333D01*
X164800000Y-82850000D01*
X164766666Y-82983333D01*
X164766666Y-83083333D01*
X164800000Y-83216666D01*
X164833333Y-83283333D01*
X164900000Y-83350000D01*
X165000000Y-83383333D01*
X165066666Y-83383333D01*
X165166666Y-83350000D01*
X165200000Y-83316666D01*
X165500000Y-82683333D02*
X165500000Y-83383333D01*
X165900000Y-82683333D02*
X165600000Y-83083333D01*
X165900000Y-83383333D02*
X165500000Y-82983333D01*
X153100000Y-82716666D02*
X153200000Y-82683333D01*
X153366666Y-82683333D01*
X153433333Y-82716666D01*
X153466666Y-82750000D01*
X153500000Y-82816666D01*
X153500000Y-82883333D01*
X153466666Y-82950000D01*
X153433333Y-82983333D01*
X153366666Y-83016666D01*
X153233333Y-83050000D01*
X153166666Y-83083333D01*
X153133333Y-83116666D01*
X153100000Y-83183333D01*
X153100000Y-83250000D01*
X153133333Y-83316666D01*
X153166666Y-83350000D01*
X153233333Y-83383333D01*
X153400000Y-83383333D01*
X153500000Y-83350000D01*
X154200000Y-82750000D02*
X154166666Y-82716666D01*
X154066666Y-82683333D01*
X154000000Y-82683333D01*
X153900000Y-82716666D01*
X153833333Y-82783333D01*
X153800000Y-82850000D01*
X153766666Y-82983333D01*
X153766666Y-83083333D01*
X153800000Y-83216666D01*
X153833333Y-83283333D01*
X153900000Y-83350000D01*
X154000000Y-83383333D01*
X154066666Y-83383333D01*
X154166666Y-83350000D01*
X154200000Y-83316666D01*
X154500000Y-82683333D02*
X154500000Y-83383333D01*
X154900000Y-82683333D02*
X154600000Y-83083333D01*
X154900000Y-83383333D02*
X154500000Y-82983333D01*
X142100000Y-82716666D02*
X142200000Y-82683333D01*
X142366666Y-82683333D01*
X142433333Y-82716666D01*
X142466666Y-82750000D01*
X142500000Y-82816666D01*
X142500000Y-82883333D01*
X142466666Y-82950000D01*
X142433333Y-82983333D01*
X142366666Y-83016666D01*
X142233333Y-83050000D01*
X142166666Y-83083333D01*
X142133333Y-83116666D01*
X142100000Y-83183333D01*
X142100000Y-83250000D01*
X142133333Y-83316666D01*
X142166666Y-83350000D01*
X142233333Y-83383333D01*
X142400000Y-83383333D01*
X142500000Y-83350000D01*
X143200000Y-82750000D02*
X143166666Y-82716666D01*
X143066666Y-82683333D01*
X143000000Y-82683333D01*
X142900000Y-82716666D01*
X142833333Y-82783333D01*
X142800000Y-82850000D01*
X142766666Y-82983333D01*
X142766666Y-83083333D01*
X142800000Y-83216666D01*
X142833333Y-83283333D01*
X142900000Y-83350000D01*
X143000000Y-83383333D01*
X143066666Y-83383333D01*
X143166666Y-83350000D01*
X143200000Y-83316666D01*
X143500000Y-82683333D02*
X143500000Y-83383333D01*
X143900000Y-82683333D02*
X143600000Y-83083333D01*
X143900000Y-83383333D02*
X143500000Y-82983333D01*
X164100000Y-72716666D02*
X164200000Y-72683333D01*
X164366666Y-72683333D01*
X164433333Y-72716666D01*
X164466666Y-72750000D01*
X164500000Y-72816666D01*
X164500000Y-72883333D01*
X164466666Y-72950000D01*
X164433333Y-72983333D01*
X164366666Y-73016666D01*
X164233333Y-73050000D01*
X164166666Y-73083333D01*
X164133333Y-73116666D01*
X164100000Y-73183333D01*
X164100000Y-73250000D01*
X164133333Y-73316666D01*
X164166666Y-73350000D01*
X164233333Y-73383333D01*
X164400000Y-73383333D01*
X164500000Y-73350000D01*
X165200000Y-72750000D02*
X165166666Y-72716666D01*
X165066666Y-72683333D01*
X165000000Y-72683333D01*
X164900000Y-72716666D01*
X164833333Y-72783333D01*
X164800000Y-72850000D01*
X164766666Y-72983333D01*
X164766666Y-73083333D01*
X164800000Y-73216666D01*
X164833333Y-73283333D01*
X164900000Y-73350000D01*
X165000000Y-73383333D01*
X165066666Y-73383333D01*
X165166666Y-73350000D01*
X165200000Y-73316666D01*
X165500000Y-72683333D02*
X165500000Y-73383333D01*
X165900000Y-72683333D02*
X165600000Y-73083333D01*
X165900000Y-73383333D02*
X165500000Y-72983333D01*
X153100000Y-72716666D02*
X153200000Y-72683333D01*
X153366666Y-72683333D01*
X153433333Y-72716666D01*
X153466666Y-72750000D01*
X153500000Y-72816666D01*
X153500000Y-72883333D01*
X153466666Y-72950000D01*
X153433333Y-72983333D01*
X153366666Y-73016666D01*
X153233333Y-73050000D01*
X153166666Y-73083333D01*
X153133333Y-73116666D01*
X153100000Y-73183333D01*
X153100000Y-73250000D01*
X153133333Y-73316666D01*
X153166666Y-73350000D01*
X153233333Y-73383333D01*
X153400000Y-73383333D01*
X153500000Y-73350000D01*
X154200000Y-72750000D02*
X154166666Y-72716666D01*
X154066666Y-72683333D01*
X154000000Y-72683333D01*
X153900000Y-72716666D01*
X153833333Y-72783333D01*
X153800000Y-72850000D01*
X153766666Y-72983333D01*
X153766666Y-73083333D01*
X153800000Y-73216666D01*
X153833333Y-73283333D01*
X153900000Y-73350000D01*
X154000000Y-73383333D01*
X154066666Y-73383333D01*
X154166666Y-73350000D01*
X154200000Y-73316666D01*
X154500000Y-72683333D02*
X154500000Y-73383333D01*
X154900000Y-72683333D02*
X154600000Y-73083333D01*
X154900000Y-73383333D02*
X154500000Y-72983333D01*
X142100000Y-72716666D02*
X142200000Y-72683333D01*
X142366666Y-72683333D01*
X142433333Y-72716666D01*
X142466666Y-72750000D01*
X142500000Y-72816666D01*
X142500000Y-72883333D01*
X142466666Y-72950000D01*
X142433333Y-72983333D01*
X142366666Y-73016666D01*
X142233333Y-73050000D01*
X142166666Y-73083333D01*
X142133333Y-73116666D01*
X142100000Y-73183333D01*
X142100000Y-73250000D01*
X142133333Y-73316666D01*
X142166666Y-73350000D01*
X142233333Y-73383333D01*
X142400000Y-73383333D01*
X142500000Y-73350000D01*
X143200000Y-72750000D02*
X143166666Y-72716666D01*
X143066666Y-72683333D01*
X143000000Y-72683333D01*
X142900000Y-72716666D01*
X142833333Y-72783333D01*
X142800000Y-72850000D01*
X142766666Y-72983333D01*
X142766666Y-73083333D01*
X142800000Y-73216666D01*
X142833333Y-73283333D01*
X142900000Y-73350000D01*
X143000000Y-73383333D01*
X143066666Y-73383333D01*
X143166666Y-73350000D01*
X143200000Y-73316666D01*
X143500000Y-72683333D02*
X143500000Y-73383333D01*
X143900000Y-72683333D02*
X143600000Y-73083333D01*
X143900000Y-73383333D02*
X143500000Y-72983333D01*
X163966666Y-101083333D02*
X164400000Y-101083333D01*
X164166666Y-100816666D01*
X164266666Y-100816666D01*
X164333333Y-100783333D01*
X164366666Y-100750000D01*
X164400000Y-100683333D01*
X164400000Y-100516666D01*
X164366666Y-100450000D01*
X164333333Y-100416666D01*
X164266666Y-100383333D01*
X164066666Y-100383333D01*
X164000000Y-100416666D01*
X163966666Y-100450000D01*
X164700000Y-100450000D02*
X164733333Y-100416666D01*
X164700000Y-100383333D01*
X164666666Y-100416666D01*
X164700000Y-100450000D01*
X164700000Y-100383333D01*
X164966666Y-101083333D02*
X165400000Y-101083333D01*
X165166666Y-100816666D01*
X165266666Y-100816666D01*
X165333333Y-100783333D01*
X165366666Y-100750000D01*
X165400000Y-100683333D01*
X165400000Y-100516666D01*
X165366666Y-100450000D01*
X165333333Y-100416666D01*
X165266666Y-100383333D01*
X165066666Y-100383333D01*
X165000000Y-100416666D01*
X164966666Y-100450000D01*
X165600000Y-101083333D02*
X165833333Y-100383333D01*
X166066666Y-101083333D01*
X152966666Y-101083333D02*
X153400000Y-101083333D01*
X153166666Y-100816666D01*
X153266666Y-100816666D01*
X153333333Y-100783333D01*
X153366666Y-100750000D01*
X153400000Y-100683333D01*
X153400000Y-100516666D01*
X153366666Y-100450000D01*
X153333333Y-100416666D01*
X153266666Y-100383333D01*
X153066666Y-100383333D01*
X153000000Y-100416666D01*
X152966666Y-100450000D01*
X153700000Y-100450000D02*
X153733333Y-100416666D01*
X153700000Y-100383333D01*
X153666666Y-100416666D01*
X153700000Y-100450000D01*
X153700000Y-100383333D01*
X153966666Y-101083333D02*
X154400000Y-101083333D01*
X154166666Y-100816666D01*
X154266666Y-100816666D01*
X154333333Y-100783333D01*
X154366666Y-100750000D01*
X154400000Y-100683333D01*
X154400000Y-100516666D01*
X154366666Y-100450000D01*
X154333333Y-100416666D01*
X154266666Y-100383333D01*
X154066666Y-100383333D01*
X154000000Y-100416666D01*
X153966666Y-100450000D01*
X154600000Y-101083333D02*
X154833333Y-100383333D01*
X155066666Y-101083333D01*
X141966666Y-101083333D02*
X142400000Y-101083333D01*
X142166666Y-100816666D01*
X142266666Y-100816666D01*
X142333333Y-100783333D01*
X142366666Y-100750000D01*
X142400000Y-100683333D01*
X142400000Y-100516666D01*
X142366666Y-100450000D01*
X142333333Y-100416666D01*
X142266666Y-100383333D01*
X142066666Y-100383333D01*
X142000000Y-100416666D01*
X141966666Y-100450000D01*
X142700000Y-100450000D02*
X142733333Y-100416666D01*
X142700000Y-100383333D01*
X142666666Y-100416666D01*
X142700000Y-100450000D01*
X142700000Y-100383333D01*
X142966666Y-101083333D02*
X143400000Y-101083333D01*
X143166666Y-100816666D01*
X143266666Y-100816666D01*
X143333333Y-100783333D01*
X143366666Y-100750000D01*
X143400000Y-100683333D01*
X143400000Y-100516666D01*
X143366666Y-100450000D01*
X143333333Y-100416666D01*
X143266666Y-100383333D01*
X143066666Y-100383333D01*
X143000000Y-100416666D01*
X142966666Y-100450000D01*
X143600000Y-101083333D02*
X143833333Y-100383333D01*
X144066666Y-101083333D01*
X163966666Y-91083333D02*
X164400000Y-91083333D01*
X164166666Y-90816666D01*
X164266666Y-90816666D01*
X164333333Y-90783333D01*
X164366666Y-90750000D01*
X164400000Y-90683333D01*
X164400000Y-90516666D01*
X164366666Y-90450000D01*
X164333333Y-90416666D01*
X164266666Y-90383333D01*
X164066666Y-90383333D01*
X164000000Y-90416666D01*
X163966666Y-90450000D01*
X164700000Y-90450000D02*
X164733333Y-90416666D01*
X164700000Y-90383333D01*
X164666666Y-90416666D01*
X164700000Y-90450000D01*
X164700000Y-90383333D01*
X164966666Y-91083333D02*
X165400000Y-91083333D01*
X165166666Y-90816666D01*
X165266666Y-90816666D01*
X165333333Y-90783333D01*
X165366666Y-90750000D01*
X165400000Y-90683333D01*
X165400000Y-90516666D01*
X165366666Y-90450000D01*
X165333333Y-90416666D01*
X165266666Y-90383333D01*
X165066666Y-90383333D01*
X165000000Y-90416666D01*
X164966666Y-90450000D01*
X165600000Y-91083333D02*
X165833333Y-90383333D01*
X166066666Y-91083333D01*
X152966666Y-91083333D02*
X153400000Y-91083333D01*
X153166666Y-90816666D01*
X153266666Y-90816666D01*
X153333333Y-90783333D01*
X153366666Y-90750000D01*
X153400000Y-90683333D01*
X153400000Y-90516666D01*
X153366666Y-90450000D01*
X153333333Y-90416666D01*
X153266666Y-90383333D01*
X153066666Y-90383333D01*
X153000000Y-90416666D01*
X152966666Y-90450000D01*
X153700000Y-90450000D02*
X153733333Y-90416666D01*
X153700000Y-90383333D01*
X153666666Y-90416666D01*
X153700000Y-90450000D01*
X153700000Y-90383333D01*
X153966666Y-91083333D02*
X154400000Y-91083333D01*
X154166666Y-90816666D01*
X154266666Y-90816666D01*
X154333333Y-90783333D01*
X154366666Y-90750000D01*
X154400000Y-90683333D01*
X154400000Y-90516666D01*
X154366666Y-90450000D01*
X154333333Y-90416666D01*
X154266666Y-90383333D01*
X154066666Y-90383333D01*
X154000000Y-90416666D01*
X153966666Y-90450000D01*
X154600000Y-91083333D02*
X154833333Y-90383333D01*
X155066666Y-91083333D01*
X141966666Y-91083333D02*
X142400000Y-91083333D01*
X142166666Y-90816666D01*
X142266666Y-90816666D01*
X142333333Y-90783333D01*
X142366666Y-90750000D01*
X142400000Y-90683333D01*
X142400000Y-90516666D01*
X142366666Y-90450000D01*
X142333333Y-90416666D01*
X142266666Y-90383333D01*
X142066666Y-90383333D01*
X142000000Y-90416666D01*
X141966666Y-90450000D01*
X142700000Y-90450000D02*
X142733333Y-90416666D01*
X142700000Y-90383333D01*
X142666666Y-90416666D01*
X142700000Y-90450000D01*
X142700000Y-90383333D01*
X142966666Y-91083333D02*
X143400000Y-91083333D01*
X143166666Y-90816666D01*
X143266666Y-90816666D01*
X143333333Y-90783333D01*
X143366666Y-90750000D01*
X143400000Y-90683333D01*
X143400000Y-90516666D01*
X143366666Y-90450000D01*
X143333333Y-90416666D01*
X143266666Y-90383333D01*
X143066666Y-90383333D01*
X143000000Y-90416666D01*
X142966666Y-90450000D01*
X143600000Y-91083333D02*
X143833333Y-90383333D01*
X144066666Y-91083333D01*
X163966666Y-81083333D02*
X164400000Y-81083333D01*
X164166666Y-80816666D01*
X164266666Y-80816666D01*
X164333333Y-80783333D01*
X164366666Y-80750000D01*
X164400000Y-80683333D01*
X164400000Y-80516666D01*
X164366666Y-80450000D01*
X164333333Y-80416666D01*
X164266666Y-80383333D01*
X164066666Y-80383333D01*
X164000000Y-80416666D01*
X163966666Y-80450000D01*
X164700000Y-80450000D02*
X164733333Y-80416666D01*
X164700000Y-80383333D01*
X164666666Y-80416666D01*
X164700000Y-80450000D01*
X164700000Y-80383333D01*
X164966666Y-81083333D02*
X165400000Y-81083333D01*
X165166666Y-80816666D01*
X165266666Y-80816666D01*
X165333333Y-80783333D01*
X165366666Y-80750000D01*
X165400000Y-80683333D01*
X165400000Y-80516666D01*
X165366666Y-80450000D01*
X165333333Y-80416666D01*
X165266666Y-80383333D01*
X165066666Y-80383333D01*
X165000000Y-80416666D01*
X164966666Y-80450000D01*
X165600000Y-81083333D02*
X165833333Y-80383333D01*
X166066666Y-81083333D01*
X152966666Y-81083333D02*
X153400000Y-81083333D01*
X153166666Y-80816666D01*
X153266666Y-80816666D01*
X153333333Y-80783333D01*
X153366666Y-80750000D01*
X153400000Y-80683333D01*
X153400000Y-80516666D01*
X153366666Y-80450000D01*
X153333333Y-80416666D01*
X153266666Y-80383333D01*
X153066666Y-80383333D01*
X153000000Y-80416666D01*
X152966666Y-80450000D01*
X153700000Y-80450000D02*
X153733333Y-80416666D01*
X153700000Y-80383333D01*
X153666666Y-80416666D01*
X153700000Y-80450000D01*
X153700000Y-80383333D01*
X153966666Y-81083333D02*
X154400000Y-81083333D01*
X154166666Y-80816666D01*
X154266666Y-80816666D01*
X154333333Y-80783333D01*
X154366666Y-80750000D01*
X154400000Y-80683333D01*
X154400000Y-80516666D01*
X154366666Y-80450000D01*
X154333333Y-80416666D01*
X154266666Y-80383333D01*
X154066666Y-80383333D01*
X154000000Y-80416666D01*
X153966666Y-80450000D01*
X154600000Y-81083333D02*
X154833333Y-80383333D01*
X155066666Y-81083333D01*
X141966666Y-81083333D02*
X142400000Y-81083333D01*
X142166666Y-80816666D01*
X142266666Y-80816666D01*
X142333333Y-80783333D01*
X142366666Y-80750000D01*
X142400000Y-80683333D01*
X142400000Y-80516666D01*
X142366666Y-80450000D01*
X142333333Y-80416666D01*
X142266666Y-80383333D01*
X142066666Y-80383333D01*
X142000000Y-80416666D01*
X141966666Y-80450000D01*
X142700000Y-80450000D02*
X142733333Y-80416666D01*
X142700000Y-80383333D01*
X142666666Y-80416666D01*
X142700000Y-80450000D01*
X142700000Y-80383333D01*
X142966666Y-81083333D02*
X143400000Y-81083333D01*
X143166666Y-80816666D01*
X143266666Y-80816666D01*
X143333333Y-80783333D01*
X143366666Y-80750000D01*
X143400000Y-80683333D01*
X143400000Y-80516666D01*
X143366666Y-80450000D01*
X143333333Y-80416666D01*
X143266666Y-80383333D01*
X143066666Y-80383333D01*
X143000000Y-80416666D01*
X142966666Y-80450000D01*
X143600000Y-81083333D02*
X143833333Y-80383333D01*
X144066666Y-81083333D01*
X163966666Y-71083333D02*
X164400000Y-71083333D01*
X164166666Y-70816666D01*
X164266666Y-70816666D01*
X164333333Y-70783333D01*
X164366666Y-70750000D01*
X164400000Y-70683333D01*
X164400000Y-70516666D01*
X164366666Y-70450000D01*
X164333333Y-70416666D01*
X164266666Y-70383333D01*
X164066666Y-70383333D01*
X164000000Y-70416666D01*
X163966666Y-70450000D01*
X164700000Y-70450000D02*
X164733333Y-70416666D01*
X164700000Y-70383333D01*
X164666666Y-70416666D01*
X164700000Y-70450000D01*
X164700000Y-70383333D01*
X164966666Y-71083333D02*
X165400000Y-71083333D01*
X165166666Y-70816666D01*
X165266666Y-70816666D01*
X165333333Y-70783333D01*
X165366666Y-70750000D01*
X165400000Y-70683333D01*
X165400000Y-70516666D01*
X165366666Y-70450000D01*
X165333333Y-70416666D01*
X165266666Y-70383333D01*
X165066666Y-70383333D01*
X165000000Y-70416666D01*
X164966666Y-70450000D01*
X165600000Y-71083333D02*
X165833333Y-70383333D01*
X166066666Y-71083333D01*
X152966666Y-71083333D02*
X153400000Y-71083333D01*
X153166666Y-70816666D01*
X153266666Y-70816666D01*
X153333333Y-70783333D01*
X153366666Y-70750000D01*
X153400000Y-70683333D01*
X153400000Y-70516666D01*
X153366666Y-70450000D01*
X153333333Y-70416666D01*
X153266666Y-70383333D01*
X153066666Y-70383333D01*
X153000000Y-70416666D01*
X152966666Y-70450000D01*
X153700000Y-70450000D02*
X153733333Y-70416666D01*
X153700000Y-70383333D01*
X153666666Y-70416666D01*
X153700000Y-70450000D01*
X153700000Y-70383333D01*
X153966666Y-71083333D02*
X154400000Y-71083333D01*
X154166666Y-70816666D01*
X154266666Y-70816666D01*
X154333333Y-70783333D01*
X154366666Y-70750000D01*
X154400000Y-70683333D01*
X154400000Y-70516666D01*
X154366666Y-70450000D01*
X154333333Y-70416666D01*
X154266666Y-70383333D01*
X154066666Y-70383333D01*
X154000000Y-70416666D01*
X153966666Y-70450000D01*
X154600000Y-71083333D02*
X154833333Y-70383333D01*
X155066666Y-71083333D01*
X141966666Y-71083333D02*
X142400000Y-71083333D01*
X142166666Y-70816666D01*
X142266666Y-70816666D01*
X142333333Y-70783333D01*
X142366666Y-70750000D01*
X142400000Y-70683333D01*
X142400000Y-70516666D01*
X142366666Y-70450000D01*
X142333333Y-70416666D01*
X142266666Y-70383333D01*
X142066666Y-70383333D01*
X142000000Y-70416666D01*
X141966666Y-70450000D01*
X142700000Y-70450000D02*
X142733333Y-70416666D01*
X142700000Y-70383333D01*
X142666666Y-70416666D01*
X142700000Y-70450000D01*
X142700000Y-70383333D01*
X142966666Y-71083333D02*
X143400000Y-71083333D01*
X143166666Y-70816666D01*
X143266666Y-70816666D01*
X143333333Y-70783333D01*
X143366666Y-70750000D01*
X143400000Y-70683333D01*
X143400000Y-70516666D01*
X143366666Y-70450000D01*
X143333333Y-70416666D01*
X143266666Y-70383333D01*
X143066666Y-70383333D01*
X143000000Y-70416666D01*
X142966666Y-70450000D01*
X143600000Y-71083333D02*
X143833333Y-70383333D01*
X144066666Y-71083333D01*
X164083333Y-103916666D02*
X164183333Y-103883333D01*
X164350000Y-103883333D01*
X164416666Y-103916666D01*
X164450000Y-103950000D01*
X164483333Y-104016666D01*
X164483333Y-104083333D01*
X164450000Y-104150000D01*
X164416666Y-104183333D01*
X164350000Y-104216666D01*
X164216666Y-104250000D01*
X164150000Y-104283333D01*
X164116666Y-104316666D01*
X164083333Y-104383333D01*
X164083333Y-104450000D01*
X164116666Y-104516666D01*
X164150000Y-104550000D01*
X164216666Y-104583333D01*
X164383333Y-104583333D01*
X164483333Y-104550000D01*
X164783333Y-103883333D02*
X164783333Y-104583333D01*
X164950000Y-104583333D01*
X165050000Y-104550000D01*
X165116666Y-104483333D01*
X165150000Y-104416666D01*
X165183333Y-104283333D01*
X165183333Y-104183333D01*
X165150000Y-104050000D01*
X165116666Y-103983333D01*
X165050000Y-103916666D01*
X164950000Y-103883333D01*
X164783333Y-103883333D01*
X165616666Y-104583333D02*
X165750000Y-104583333D01*
X165816666Y-104550000D01*
X165883333Y-104483333D01*
X165916666Y-104350000D01*
X165916666Y-104116666D01*
X165883333Y-103983333D01*
X165816666Y-103916666D01*
X165750000Y-103883333D01*
X165616666Y-103883333D01*
X165550000Y-103916666D01*
X165483333Y-103983333D01*
X165450000Y-104116666D01*
X165450000Y-104350000D01*
X165483333Y-104483333D01*
X165550000Y-104550000D01*
X165616666Y-104583333D01*
X153083333Y-103916666D02*
X153183333Y-103883333D01*
X153350000Y-103883333D01*
X153416666Y-103916666D01*
X153450000Y-103950000D01*
X153483333Y-104016666D01*
X153483333Y-104083333D01*
X153450000Y-104150000D01*
X153416666Y-104183333D01*
X153350000Y-104216666D01*
X153216666Y-104250000D01*
X153150000Y-104283333D01*
X153116666Y-104316666D01*
X153083333Y-104383333D01*
X153083333Y-104450000D01*
X153116666Y-104516666D01*
X153150000Y-104550000D01*
X153216666Y-104583333D01*
X153383333Y-104583333D01*
X153483333Y-104550000D01*
X153783333Y-103883333D02*
X153783333Y-104583333D01*
X153950000Y-104583333D01*
X154050000Y-104550000D01*
X154116666Y-104483333D01*
X154150000Y-104416666D01*
X154183333Y-104283333D01*
X154183333Y-104183333D01*
X154150000Y-104050000D01*
X154116666Y-103983333D01*
X154050000Y-103916666D01*
X153950000Y-103883333D01*
X153783333Y-103883333D01*
X154616666Y-104583333D02*
X154750000Y-104583333D01*
X154816666Y-104550000D01*
X154883333Y-104483333D01*
X154916666Y-104350000D01*
X154916666Y-104116666D01*
X154883333Y-103983333D01*
X154816666Y-103916666D01*
X154750000Y-103883333D01*
X154616666Y-103883333D01*
X154550000Y-103916666D01*
X154483333Y-103983333D01*
X154450000Y-104116666D01*
X154450000Y-104350000D01*
X154483333Y-104483333D01*
X154550000Y-104550000D01*
X154616666Y-104583333D01*
X142083333Y-103916666D02*
X142183333Y-103883333D01*
X142350000Y-103883333D01*
X142416666Y-103916666D01*
X142450000Y-103950000D01*
X142483333Y-104016666D01*
X142483333Y-104083333D01*
X142450000Y-104150000D01*
X142416666Y-104183333D01*
X142350000Y-104216666D01*
X142216666Y-104250000D01*
X142150000Y-104283333D01*
X142116666Y-104316666D01*
X142083333Y-104383333D01*
X142083333Y-104450000D01*
X142116666Y-104516666D01*
X142150000Y-104550000D01*
X142216666Y-104583333D01*
X142383333Y-104583333D01*
X142483333Y-104550000D01*
X142783333Y-103883333D02*
X142783333Y-104583333D01*
X142950000Y-104583333D01*
X143050000Y-104550000D01*
X143116666Y-104483333D01*
X143150000Y-104416666D01*
X143183333Y-104283333D01*
X143183333Y-104183333D01*
X143150000Y-104050000D01*
X143116666Y-103983333D01*
X143050000Y-103916666D01*
X142950000Y-103883333D01*
X142783333Y-103883333D01*
X143616666Y-104583333D02*
X143750000Y-104583333D01*
X143816666Y-104550000D01*
X143883333Y-104483333D01*
X143916666Y-104350000D01*
X143916666Y-104116666D01*
X143883333Y-103983333D01*
X143816666Y-103916666D01*
X143750000Y-103883333D01*
X143616666Y-103883333D01*
X143550000Y-103916666D01*
X143483333Y-103983333D01*
X143450000Y-104116666D01*
X143450000Y-104350000D01*
X143483333Y-104483333D01*
X143550000Y-104550000D01*
X143616666Y-104583333D01*
X164083333Y-93916666D02*
X164183333Y-93883333D01*
X164350000Y-93883333D01*
X164416666Y-93916666D01*
X164450000Y-93950000D01*
X164483333Y-94016666D01*
X164483333Y-94083333D01*
X164450000Y-94150000D01*
X164416666Y-94183333D01*
X164350000Y-94216666D01*
X164216666Y-94250000D01*
X164150000Y-94283333D01*
X164116666Y-94316666D01*
X164083333Y-94383333D01*
X164083333Y-94450000D01*
X164116666Y-94516666D01*
X164150000Y-94550000D01*
X164216666Y-94583333D01*
X164383333Y-94583333D01*
X164483333Y-94550000D01*
X164783333Y-93883333D02*
X164783333Y-94583333D01*
X164950000Y-94583333D01*
X165050000Y-94550000D01*
X165116666Y-94483333D01*
X165150000Y-94416666D01*
X165183333Y-94283333D01*
X165183333Y-94183333D01*
X165150000Y-94050000D01*
X165116666Y-93983333D01*
X165050000Y-93916666D01*
X164950000Y-93883333D01*
X164783333Y-93883333D01*
X165616666Y-94583333D02*
X165750000Y-94583333D01*
X165816666Y-94550000D01*
X165883333Y-94483333D01*
X165916666Y-94350000D01*
X165916666Y-94116666D01*
X165883333Y-93983333D01*
X165816666Y-93916666D01*
X165750000Y-93883333D01*
X165616666Y-93883333D01*
X165550000Y-93916666D01*
X165483333Y-93983333D01*
X165450000Y-94116666D01*
X165450000Y-94350000D01*
X165483333Y-94483333D01*
X165550000Y-94550000D01*
X165616666Y-94583333D01*
X153083333Y-93916666D02*
X153183333Y-93883333D01*
X153350000Y-93883333D01*
X153416666Y-93916666D01*
X153450000Y-93950000D01*
X153483333Y-94016666D01*
X153483333Y-94083333D01*
X153450000Y-94150000D01*
X153416666Y-94183333D01*
X153350000Y-94216666D01*
X153216666Y-94250000D01*
X153150000Y-94283333D01*
X153116666Y-94316666D01*
X153083333Y-94383333D01*
X153083333Y-94450000D01*
X153116666Y-94516666D01*
X153150000Y-94550000D01*
X153216666Y-94583333D01*
X153383333Y-94583333D01*
X153483333Y-94550000D01*
X153783333Y-93883333D02*
X153783333Y-94583333D01*
X153950000Y-94583333D01*
X154050000Y-94550000D01*
X154116666Y-94483333D01*
X154150000Y-94416666D01*
X154183333Y-94283333D01*
X154183333Y-94183333D01*
X154150000Y-94050000D01*
X154116666Y-93983333D01*
X154050000Y-93916666D01*
X153950000Y-93883333D01*
X153783333Y-93883333D01*
X154616666Y-94583333D02*
X154750000Y-94583333D01*
X154816666Y-94550000D01*
X154883333Y-94483333D01*
X154916666Y-94350000D01*
X154916666Y-94116666D01*
X154883333Y-93983333D01*
X154816666Y-93916666D01*
X154750000Y-93883333D01*
X154616666Y-93883333D01*
X154550000Y-93916666D01*
X154483333Y-93983333D01*
X154450000Y-94116666D01*
X154450000Y-94350000D01*
X154483333Y-94483333D01*
X154550000Y-94550000D01*
X154616666Y-94583333D01*
X142083333Y-93916666D02*
X142183333Y-93883333D01*
X142350000Y-93883333D01*
X142416666Y-93916666D01*
X142450000Y-93950000D01*
X142483333Y-94016666D01*
X142483333Y-94083333D01*
X142450000Y-94150000D01*
X142416666Y-94183333D01*
X142350000Y-94216666D01*
X142216666Y-94250000D01*
X142150000Y-94283333D01*
X142116666Y-94316666D01*
X142083333Y-94383333D01*
X142083333Y-94450000D01*
X142116666Y-94516666D01*
X142150000Y-94550000D01*
X142216666Y-94583333D01*
X142383333Y-94583333D01*
X142483333Y-94550000D01*
X142783333Y-93883333D02*
X142783333Y-94583333D01*
X142950000Y-94583333D01*
X143050000Y-94550000D01*
X143116666Y-94483333D01*
X143150000Y-94416666D01*
X143183333Y-94283333D01*
X143183333Y-94183333D01*
X143150000Y-94050000D01*
X143116666Y-93983333D01*
X143050000Y-93916666D01*
X142950000Y-93883333D01*
X142783333Y-93883333D01*
X143616666Y-94583333D02*
X143750000Y-94583333D01*
X143816666Y-94550000D01*
X143883333Y-94483333D01*
X143916666Y-94350000D01*
X143916666Y-94116666D01*
X143883333Y-93983333D01*
X143816666Y-93916666D01*
X143750000Y-93883333D01*
X143616666Y-93883333D01*
X143550000Y-93916666D01*
X143483333Y-93983333D01*
X143450000Y-94116666D01*
X143450000Y-94350000D01*
X143483333Y-94483333D01*
X143550000Y-94550000D01*
X143616666Y-94583333D01*
X164083333Y-83916666D02*
X164183333Y-83883333D01*
X164350000Y-83883333D01*
X164416666Y-83916666D01*
X164450000Y-83950000D01*
X164483333Y-84016666D01*
X164483333Y-84083333D01*
X164450000Y-84150000D01*
X164416666Y-84183333D01*
X164350000Y-84216666D01*
X164216666Y-84250000D01*
X164150000Y-84283333D01*
X164116666Y-84316666D01*
X164083333Y-84383333D01*
X164083333Y-84450000D01*
X164116666Y-84516666D01*
X164150000Y-84550000D01*
X164216666Y-84583333D01*
X164383333Y-84583333D01*
X164483333Y-84550000D01*
X164783333Y-83883333D02*
X164783333Y-84583333D01*
X164950000Y-84583333D01*
X165050000Y-84550000D01*
X165116666Y-84483333D01*
X165150000Y-84416666D01*
X165183333Y-84283333D01*
X165183333Y-84183333D01*
X165150000Y-84050000D01*
X165116666Y-83983333D01*
X165050000Y-83916666D01*
X164950000Y-83883333D01*
X164783333Y-83883333D01*
X165616666Y-84583333D02*
X165750000Y-84583333D01*
X165816666Y-84550000D01*
X165883333Y-84483333D01*
X165916666Y-84350000D01*
X165916666Y-84116666D01*
X165883333Y-83983333D01*
X165816666Y-83916666D01*
X165750000Y-83883333D01*
X165616666Y-83883333D01*
X165550000Y-83916666D01*
X165483333Y-83983333D01*
X165450000Y-84116666D01*
X165450000Y-84350000D01*
X165483333Y-84483333D01*
X165550000Y-84550000D01*
X165616666Y-84583333D01*
X153083333Y-83916666D02*
X153183333Y-83883333D01*
X153350000Y-83883333D01*
X153416666Y-83916666D01*
X153450000Y-83950000D01*
X153483333Y-84016666D01*
X153483333Y-84083333D01*
X153450000Y-84150000D01*
X153416666Y-84183333D01*
X153350000Y-84216666D01*
X153216666Y-84250000D01*
X153150000Y-84283333D01*
X153116666Y-84316666D01*
X153083333Y-84383333D01*
X153083333Y-84450000D01*
X153116666Y-84516666D01*
X153150000Y-84550000D01*
X153216666Y-84583333D01*
X153383333Y-84583333D01*
X153483333Y-84550000D01*
X153783333Y-83883333D02*
X153783333Y-84583333D01*
X153950000Y-84583333D01*
X154050000Y-84550000D01*
X154116666Y-84483333D01*
X154150000Y-84416666D01*
X154183333Y-84283333D01*
X154183333Y-84183333D01*
X154150000Y-84050000D01*
X154116666Y-83983333D01*
X154050000Y-83916666D01*
X153950000Y-83883333D01*
X153783333Y-83883333D01*
X154616666Y-84583333D02*
X154750000Y-84583333D01*
X154816666Y-84550000D01*
X154883333Y-84483333D01*
X154916666Y-84350000D01*
X154916666Y-84116666D01*
X154883333Y-83983333D01*
X154816666Y-83916666D01*
X154750000Y-83883333D01*
X154616666Y-83883333D01*
X154550000Y-83916666D01*
X154483333Y-83983333D01*
X154450000Y-84116666D01*
X154450000Y-84350000D01*
X154483333Y-84483333D01*
X154550000Y-84550000D01*
X154616666Y-84583333D01*
X142083333Y-83916666D02*
X142183333Y-83883333D01*
X142350000Y-83883333D01*
X142416666Y-83916666D01*
X142450000Y-83950000D01*
X142483333Y-84016666D01*
X142483333Y-84083333D01*
X142450000Y-84150000D01*
X142416666Y-84183333D01*
X142350000Y-84216666D01*
X142216666Y-84250000D01*
X142150000Y-84283333D01*
X142116666Y-84316666D01*
X142083333Y-84383333D01*
X142083333Y-84450000D01*
X142116666Y-84516666D01*
X142150000Y-84550000D01*
X142216666Y-84583333D01*
X142383333Y-84583333D01*
X142483333Y-84550000D01*
X142783333Y-83883333D02*
X142783333Y-84583333D01*
X142950000Y-84583333D01*
X143050000Y-84550000D01*
X143116666Y-84483333D01*
X143150000Y-84416666D01*
X143183333Y-84283333D01*
X143183333Y-84183333D01*
X143150000Y-84050000D01*
X143116666Y-83983333D01*
X143050000Y-83916666D01*
X142950000Y-83883333D01*
X142783333Y-83883333D01*
X143616666Y-84583333D02*
X143750000Y-84583333D01*
X143816666Y-84550000D01*
X143883333Y-84483333D01*
X143916666Y-84350000D01*
X143916666Y-84116666D01*
X143883333Y-83983333D01*
X143816666Y-83916666D01*
X143750000Y-83883333D01*
X143616666Y-83883333D01*
X143550000Y-83916666D01*
X143483333Y-83983333D01*
X143450000Y-84116666D01*
X143450000Y-84350000D01*
X143483333Y-84483333D01*
X143550000Y-84550000D01*
X143616666Y-84583333D01*
X164083333Y-73916666D02*
X164183333Y-73883333D01*
X164350000Y-73883333D01*
X164416666Y-73916666D01*
X164450000Y-73950000D01*
X164483333Y-74016666D01*
X164483333Y-74083333D01*
X164450000Y-74150000D01*
X164416666Y-74183333D01*
X164350000Y-74216666D01*
X164216666Y-74250000D01*
X164150000Y-74283333D01*
X164116666Y-74316666D01*
X164083333Y-74383333D01*
X164083333Y-74450000D01*
X164116666Y-74516666D01*
X164150000Y-74550000D01*
X164216666Y-74583333D01*
X164383333Y-74583333D01*
X164483333Y-74550000D01*
X164783333Y-73883333D02*
X164783333Y-74583333D01*
X164950000Y-74583333D01*
X165050000Y-74550000D01*
X165116666Y-74483333D01*
X165150000Y-74416666D01*
X165183333Y-74283333D01*
X165183333Y-74183333D01*
X165150000Y-74050000D01*
X165116666Y-73983333D01*
X165050000Y-73916666D01*
X164950000Y-73883333D01*
X164783333Y-73883333D01*
X165616666Y-74583333D02*
X165750000Y-74583333D01*
X165816666Y-74550000D01*
X165883333Y-74483333D01*
X165916666Y-74350000D01*
X165916666Y-74116666D01*
X165883333Y-73983333D01*
X165816666Y-73916666D01*
X165750000Y-73883333D01*
X165616666Y-73883333D01*
X165550000Y-73916666D01*
X165483333Y-73983333D01*
X165450000Y-74116666D01*
X165450000Y-74350000D01*
X165483333Y-74483333D01*
X165550000Y-74550000D01*
X165616666Y-74583333D01*
X153083333Y-73916666D02*
X153183333Y-73883333D01*
X153350000Y-73883333D01*
X153416666Y-73916666D01*
X153450000Y-73950000D01*
X153483333Y-74016666D01*
X153483333Y-74083333D01*
X153450000Y-74150000D01*
X153416666Y-74183333D01*
X153350000Y-74216666D01*
X153216666Y-74250000D01*
X153150000Y-74283333D01*
X153116666Y-74316666D01*
X153083333Y-74383333D01*
X153083333Y-74450000D01*
X153116666Y-74516666D01*
X153150000Y-74550000D01*
X153216666Y-74583333D01*
X153383333Y-74583333D01*
X153483333Y-74550000D01*
X153783333Y-73883333D02*
X153783333Y-74583333D01*
X153950000Y-74583333D01*
X154050000Y-74550000D01*
X154116666Y-74483333D01*
X154150000Y-74416666D01*
X154183333Y-74283333D01*
X154183333Y-74183333D01*
X154150000Y-74050000D01*
X154116666Y-73983333D01*
X154050000Y-73916666D01*
X153950000Y-73883333D01*
X153783333Y-73883333D01*
X154616666Y-74583333D02*
X154750000Y-74583333D01*
X154816666Y-74550000D01*
X154883333Y-74483333D01*
X154916666Y-74350000D01*
X154916666Y-74116666D01*
X154883333Y-73983333D01*
X154816666Y-73916666D01*
X154750000Y-73883333D01*
X154616666Y-73883333D01*
X154550000Y-73916666D01*
X154483333Y-73983333D01*
X154450000Y-74116666D01*
X154450000Y-74350000D01*
X154483333Y-74483333D01*
X154550000Y-74550000D01*
X154616666Y-74583333D01*
X142083333Y-73916666D02*
X142183333Y-73883333D01*
X142350000Y-73883333D01*
X142416666Y-73916666D01*
X142450000Y-73950000D01*
X142483333Y-74016666D01*
X142483333Y-74083333D01*
X142450000Y-74150000D01*
X142416666Y-74183333D01*
X142350000Y-74216666D01*
X142216666Y-74250000D01*
X142150000Y-74283333D01*
X142116666Y-74316666D01*
X142083333Y-74383333D01*
X142083333Y-74450000D01*
X142116666Y-74516666D01*
X142150000Y-74550000D01*
X142216666Y-74583333D01*
X142383333Y-74583333D01*
X142483333Y-74550000D01*
X142783333Y-73883333D02*
X142783333Y-74583333D01*
X142950000Y-74583333D01*
X143050000Y-74550000D01*
X143116666Y-74483333D01*
X143150000Y-74416666D01*
X143183333Y-74283333D01*
X143183333Y-74183333D01*
X143150000Y-74050000D01*
X143116666Y-73983333D01*
X143050000Y-73916666D01*
X142950000Y-73883333D01*
X142783333Y-73883333D01*
X143616666Y-74583333D02*
X143750000Y-74583333D01*
X143816666Y-74550000D01*
X143883333Y-74483333D01*
X143916666Y-74350000D01*
X143916666Y-74116666D01*
X143883333Y-73983333D01*
X143816666Y-73916666D01*
X143750000Y-73883333D01*
X143616666Y-73883333D01*
X143550000Y-73916666D01*
X143483333Y-73983333D01*
X143450000Y-74116666D01*
X143450000Y-74350000D01*
X143483333Y-74483333D01*
X143550000Y-74550000D01*
X143616666Y-74583333D01*
X131483333Y-101416666D02*
X131583333Y-101383333D01*
X131750000Y-101383333D01*
X131816666Y-101416666D01*
X131850000Y-101450000D01*
X131883333Y-101516666D01*
X131883333Y-101583333D01*
X131850000Y-101650000D01*
X131816666Y-101683333D01*
X131750000Y-101716666D01*
X131616666Y-101750000D01*
X131550000Y-101783333D01*
X131516666Y-101816666D01*
X131483333Y-101883333D01*
X131483333Y-101950000D01*
X131516666Y-102016666D01*
X131550000Y-102050000D01*
X131616666Y-102083333D01*
X131783333Y-102083333D01*
X131883333Y-102050000D01*
X132183333Y-101383333D02*
X132183333Y-102083333D01*
X132350000Y-102083333D01*
X132450000Y-102050000D01*
X132516666Y-101983333D01*
X132550000Y-101916666D01*
X132583333Y-101783333D01*
X132583333Y-101683333D01*
X132550000Y-101550000D01*
X132516666Y-101483333D01*
X132450000Y-101416666D01*
X132350000Y-101383333D01*
X132183333Y-101383333D01*
X132883333Y-101383333D02*
X132883333Y-102083333D01*
X131483333Y-91416666D02*
X131583333Y-91383333D01*
X131750000Y-91383333D01*
X131816666Y-91416666D01*
X131850000Y-91450000D01*
X131883333Y-91516666D01*
X131883333Y-91583333D01*
X131850000Y-91650000D01*
X131816666Y-91683333D01*
X131750000Y-91716666D01*
X131616666Y-91750000D01*
X131550000Y-91783333D01*
X131516666Y-91816666D01*
X131483333Y-91883333D01*
X131483333Y-91950000D01*
X131516666Y-92016666D01*
X131550000Y-92050000D01*
X131616666Y-92083333D01*
X131783333Y-92083333D01*
X131883333Y-92050000D01*
X132183333Y-91383333D02*
X132183333Y-92083333D01*
X132350000Y-92083333D01*
X132450000Y-92050000D01*
X132516666Y-91983333D01*
X132550000Y-91916666D01*
X132583333Y-91783333D01*
X132583333Y-91683333D01*
X132550000Y-91550000D01*
X132516666Y-91483333D01*
X132450000Y-91416666D01*
X132350000Y-91383333D01*
X132183333Y-91383333D01*
X132883333Y-91383333D02*
X132883333Y-92083333D01*
X131483333Y-81416666D02*
X131583333Y-81383333D01*
X131750000Y-81383333D01*
X131816666Y-81416666D01*
X131850000Y-81450000D01*
X131883333Y-81516666D01*
X131883333Y-81583333D01*
X131850000Y-81650000D01*
X131816666Y-81683333D01*
X131750000Y-81716666D01*
X131616666Y-81750000D01*
X131550000Y-81783333D01*
X131516666Y-81816666D01*
X131483333Y-81883333D01*
X131483333Y-81950000D01*
X131516666Y-82016666D01*
X131550000Y-82050000D01*
X131616666Y-82083333D01*
X131783333Y-82083333D01*
X131883333Y-82050000D01*
X132183333Y-81383333D02*
X132183333Y-82083333D01*
X132350000Y-82083333D01*
X132450000Y-82050000D01*
X132516666Y-81983333D01*
X132550000Y-81916666D01*
X132583333Y-81783333D01*
X132583333Y-81683333D01*
X132550000Y-81550000D01*
X132516666Y-81483333D01*
X132450000Y-81416666D01*
X132350000Y-81383333D01*
X132183333Y-81383333D01*
X132883333Y-81383333D02*
X132883333Y-82083333D01*
X131566666Y-105650000D02*
X131500000Y-105683333D01*
X131400000Y-105683333D01*
X131300000Y-105650000D01*
X131233333Y-105583333D01*
X131200000Y-105516666D01*
X131166666Y-105383333D01*
X131166666Y-105283333D01*
X131200000Y-105150000D01*
X131233333Y-105083333D01*
X131300000Y-105016666D01*
X131400000Y-104983333D01*
X131466666Y-104983333D01*
X131566666Y-105016666D01*
X131600000Y-105050000D01*
X131600000Y-105283333D01*
X131466666Y-105283333D01*
X131900000Y-104983333D02*
X131900000Y-105683333D01*
X132300000Y-104983333D01*
X132300000Y-105683333D01*
X132633333Y-104983333D02*
X132633333Y-105683333D01*
X132800000Y-105683333D01*
X132900000Y-105650000D01*
X132966666Y-105583333D01*
X133000000Y-105516666D01*
X133033333Y-105383333D01*
X133033333Y-105283333D01*
X133000000Y-105150000D01*
X132966666Y-105083333D01*
X132900000Y-105016666D01*
X132800000Y-104983333D01*
X132633333Y-104983333D01*
X131566666Y-95650000D02*
X131500000Y-95683333D01*
X131400000Y-95683333D01*
X131300000Y-95650000D01*
X131233333Y-95583333D01*
X131200000Y-95516666D01*
X131166666Y-95383333D01*
X131166666Y-95283333D01*
X131200000Y-95150000D01*
X131233333Y-95083333D01*
X131300000Y-95016666D01*
X131400000Y-94983333D01*
X131466666Y-94983333D01*
X131566666Y-95016666D01*
X131600000Y-95050000D01*
X131600000Y-95283333D01*
X131466666Y-95283333D01*
X131900000Y-94983333D02*
X131900000Y-95683333D01*
X132300000Y-94983333D01*
X132300000Y-95683333D01*
X132633333Y-94983333D02*
X132633333Y-95683333D01*
X132800000Y-95683333D01*
X132900000Y-95650000D01*
X132966666Y-95583333D01*
X133000000Y-95516666D01*
X133033333Y-95383333D01*
X133033333Y-95283333D01*
X133000000Y-95150000D01*
X132966666Y-95083333D01*
X132900000Y-95016666D01*
X132800000Y-94983333D01*
X132633333Y-94983333D01*
X131566666Y-85650000D02*
X131500000Y-85683333D01*
X131400000Y-85683333D01*
X131300000Y-85650000D01*
X131233333Y-85583333D01*
X131200000Y-85516666D01*
X131166666Y-85383333D01*
X131166666Y-85283333D01*
X131200000Y-85150000D01*
X131233333Y-85083333D01*
X131300000Y-85016666D01*
X131400000Y-84983333D01*
X131466666Y-84983333D01*
X131566666Y-85016666D01*
X131600000Y-85050000D01*
X131600000Y-85283333D01*
X131466666Y-85283333D01*
X131900000Y-84983333D02*
X131900000Y-85683333D01*
X132300000Y-84983333D01*
X132300000Y-85683333D01*
X132633333Y-84983333D02*
X132633333Y-85683333D01*
X132800000Y-85683333D01*
X132900000Y-85650000D01*
X132966666Y-85583333D01*
X133000000Y-85516666D01*
X133033333Y-85383333D01*
X133033333Y-85283333D01*
X133000000Y-85150000D01*
X132966666Y-85083333D01*
X132900000Y-85016666D01*
X132800000Y-84983333D01*
X132633333Y-84983333D01*
X131100000Y-102716666D02*
X131200000Y-102683333D01*
X131366666Y-102683333D01*
X131433333Y-102716666D01*
X131466666Y-102750000D01*
X131500000Y-102816666D01*
X131500000Y-102883333D01*
X131466666Y-102950000D01*
X131433333Y-102983333D01*
X131366666Y-103016666D01*
X131233333Y-103050000D01*
X131166666Y-103083333D01*
X131133333Y-103116666D01*
X131100000Y-103183333D01*
X131100000Y-103250000D01*
X131133333Y-103316666D01*
X131166666Y-103350000D01*
X131233333Y-103383333D01*
X131400000Y-103383333D01*
X131500000Y-103350000D01*
X132200000Y-102750000D02*
X132166666Y-102716666D01*
X132066666Y-102683333D01*
X132000000Y-102683333D01*
X131900000Y-102716666D01*
X131833333Y-102783333D01*
X131800000Y-102850000D01*
X131766666Y-102983333D01*
X131766666Y-103083333D01*
X131800000Y-103216666D01*
X131833333Y-103283333D01*
X131900000Y-103350000D01*
X132000000Y-103383333D01*
X132066666Y-103383333D01*
X132166666Y-103350000D01*
X132200000Y-103316666D01*
X132500000Y-102683333D02*
X132500000Y-103383333D01*
X132900000Y-102683333D02*
X132600000Y-103083333D01*
X132900000Y-103383333D02*
X132500000Y-102983333D01*
X131100000Y-92716666D02*
X131200000Y-92683333D01*
X131366666Y-92683333D01*
X131433333Y-92716666D01*
X131466666Y-92750000D01*
X131500000Y-92816666D01*
X131500000Y-92883333D01*
X131466666Y-92950000D01*
X131433333Y-92983333D01*
X131366666Y-93016666D01*
X131233333Y-93050000D01*
X131166666Y-93083333D01*
X131133333Y-93116666D01*
X131100000Y-93183333D01*
X131100000Y-93250000D01*
X131133333Y-93316666D01*
X131166666Y-93350000D01*
X131233333Y-93383333D01*
X131400000Y-93383333D01*
X131500000Y-93350000D01*
X132200000Y-92750000D02*
X132166666Y-92716666D01*
X132066666Y-92683333D01*
X132000000Y-92683333D01*
X131900000Y-92716666D01*
X131833333Y-92783333D01*
X131800000Y-92850000D01*
X131766666Y-92983333D01*
X131766666Y-93083333D01*
X131800000Y-93216666D01*
X131833333Y-93283333D01*
X131900000Y-93350000D01*
X132000000Y-93383333D01*
X132066666Y-93383333D01*
X132166666Y-93350000D01*
X132200000Y-93316666D01*
X132500000Y-92683333D02*
X132500000Y-93383333D01*
X132900000Y-92683333D02*
X132600000Y-93083333D01*
X132900000Y-93383333D02*
X132500000Y-92983333D01*
X131100000Y-82716666D02*
X131200000Y-82683333D01*
X131366666Y-82683333D01*
X131433333Y-82716666D01*
X131466666Y-82750000D01*
X131500000Y-82816666D01*
X131500000Y-82883333D01*
X131466666Y-82950000D01*
X131433333Y-82983333D01*
X131366666Y-83016666D01*
X131233333Y-83050000D01*
X131166666Y-83083333D01*
X131133333Y-83116666D01*
X131100000Y-83183333D01*
X131100000Y-83250000D01*
X131133333Y-83316666D01*
X131166666Y-83350000D01*
X131233333Y-83383333D01*
X131400000Y-83383333D01*
X131500000Y-83350000D01*
X132200000Y-82750000D02*
X132166666Y-82716666D01*
X132066666Y-82683333D01*
X132000000Y-82683333D01*
X131900000Y-82716666D01*
X131833333Y-82783333D01*
X131800000Y-82850000D01*
X131766666Y-82983333D01*
X131766666Y-83083333D01*
X131800000Y-83216666D01*
X131833333Y-83283333D01*
X131900000Y-83350000D01*
X132000000Y-83383333D01*
X132066666Y-83383333D01*
X132166666Y-83350000D01*
X132200000Y-83316666D01*
X132500000Y-82683333D02*
X132500000Y-83383333D01*
X132900000Y-82683333D02*
X132600000Y-83083333D01*
X132900000Y-83383333D02*
X132500000Y-82983333D01*
X130966666Y-101083333D02*
X131400000Y-101083333D01*
X131166666Y-100816666D01*
X131266666Y-100816666D01*
X131333333Y-100783333D01*
X131366666Y-100750000D01*
X131400000Y-100683333D01*
X131400000Y-100516666D01*
X131366666Y-100450000D01*
X131333333Y-100416666D01*
X131266666Y-100383333D01*
X131066666Y-100383333D01*
X131000000Y-100416666D01*
X130966666Y-100450000D01*
X131700000Y-100450000D02*
X131733333Y-100416666D01*
X131700000Y-100383333D01*
X131666666Y-100416666D01*
X131700000Y-100450000D01*
X131700000Y-100383333D01*
X131966666Y-101083333D02*
X132400000Y-101083333D01*
X132166666Y-100816666D01*
X132266666Y-100816666D01*
X132333333Y-100783333D01*
X132366666Y-100750000D01*
X132400000Y-100683333D01*
X132400000Y-100516666D01*
X132366666Y-100450000D01*
X132333333Y-100416666D01*
X132266666Y-100383333D01*
X132066666Y-100383333D01*
X132000000Y-100416666D01*
X131966666Y-100450000D01*
X132600000Y-101083333D02*
X132833333Y-100383333D01*
X133066666Y-101083333D01*
X130966666Y-91083333D02*
X131400000Y-91083333D01*
X131166666Y-90816666D01*
X131266666Y-90816666D01*
X131333333Y-90783333D01*
X131366666Y-90750000D01*
X131400000Y-90683333D01*
X131400000Y-90516666D01*
X131366666Y-90450000D01*
X131333333Y-90416666D01*
X131266666Y-90383333D01*
X131066666Y-90383333D01*
X131000000Y-90416666D01*
X130966666Y-90450000D01*
X131700000Y-90450000D02*
X131733333Y-90416666D01*
X131700000Y-90383333D01*
X131666666Y-90416666D01*
X131700000Y-90450000D01*
X131700000Y-90383333D01*
X131966666Y-91083333D02*
X132400000Y-91083333D01*
X132166666Y-90816666D01*
X132266666Y-90816666D01*
X132333333Y-90783333D01*
X132366666Y-90750000D01*
X132400000Y-90683333D01*
X132400000Y-90516666D01*
X132366666Y-90450000D01*
X132333333Y-90416666D01*
X132266666Y-90383333D01*
X132066666Y-90383333D01*
X132000000Y-90416666D01*
X131966666Y-90450000D01*
X132600000Y-91083333D02*
X132833333Y-90383333D01*
X133066666Y-91083333D01*
X130966666Y-81083333D02*
X131400000Y-81083333D01*
X131166666Y-80816666D01*
X131266666Y-80816666D01*
X131333333Y-80783333D01*
X131366666Y-80750000D01*
X131400000Y-80683333D01*
X131400000Y-80516666D01*
X131366666Y-80450000D01*
X131333333Y-80416666D01*
X131266666Y-80383333D01*
X131066666Y-80383333D01*
X131000000Y-80416666D01*
X130966666Y-80450000D01*
X131700000Y-80450000D02*
X131733333Y-80416666D01*
X131700000Y-80383333D01*
X131666666Y-80416666D01*
X131700000Y-80450000D01*
X131700000Y-80383333D01*
X131966666Y-81083333D02*
X132400000Y-81083333D01*
X132166666Y-80816666D01*
X132266666Y-80816666D01*
X132333333Y-80783333D01*
X132366666Y-80750000D01*
X132400000Y-80683333D01*
X132400000Y-80516666D01*
X132366666Y-80450000D01*
X132333333Y-80416666D01*
X132266666Y-80383333D01*
X132066666Y-80383333D01*
X132000000Y-80416666D01*
X131966666Y-80450000D01*
X132600000Y-81083333D02*
X132833333Y-80383333D01*
X133066666Y-81083333D01*
X131083333Y-103916666D02*
X131183333Y-103883333D01*
X131350000Y-103883333D01*
X131416666Y-103916666D01*
X131450000Y-103950000D01*
X131483333Y-104016666D01*
X131483333Y-104083333D01*
X131450000Y-104150000D01*
X131416666Y-104183333D01*
X131350000Y-104216666D01*
X131216666Y-104250000D01*
X131150000Y-104283333D01*
X131116666Y-104316666D01*
X131083333Y-104383333D01*
X131083333Y-104450000D01*
X131116666Y-104516666D01*
X131150000Y-104550000D01*
X131216666Y-104583333D01*
X131383333Y-104583333D01*
X131483333Y-104550000D01*
X131783333Y-103883333D02*
X131783333Y-104583333D01*
X131950000Y-104583333D01*
X132050000Y-104550000D01*
X132116666Y-104483333D01*
X132150000Y-104416666D01*
X132183333Y-104283333D01*
X132183333Y-104183333D01*
X132150000Y-104050000D01*
X132116666Y-103983333D01*
X132050000Y-103916666D01*
X131950000Y-103883333D01*
X131783333Y-103883333D01*
X132616666Y-104583333D02*
X132750000Y-104583333D01*
X132816666Y-104550000D01*
X132883333Y-104483333D01*
X132916666Y-104350000D01*
X132916666Y-104116666D01*
X132883333Y-103983333D01*
X132816666Y-103916666D01*
X132750000Y-103883333D01*
X132616666Y-103883333D01*
X132550000Y-103916666D01*
X132483333Y-103983333D01*
X132450000Y-104116666D01*
X132450000Y-104350000D01*
X132483333Y-104483333D01*
X132550000Y-104550000D01*
X132616666Y-104583333D01*
X131083333Y-93916666D02*
X131183333Y-93883333D01*
X131350000Y-93883333D01*
X131416666Y-93916666D01*
X131450000Y-93950000D01*
X131483333Y-94016666D01*
X131483333Y-94083333D01*
X131450000Y-94150000D01*
X131416666Y-94183333D01*
X131350000Y-94216666D01*
X131216666Y-94250000D01*
X131150000Y-94283333D01*
X131116666Y-94316666D01*
X131083333Y-94383333D01*
X131083333Y-94450000D01*
X131116666Y-94516666D01*
X131150000Y-94550000D01*
X131216666Y-94583333D01*
X131383333Y-94583333D01*
X131483333Y-94550000D01*
X131783333Y-93883333D02*
X131783333Y-94583333D01*
X131950000Y-94583333D01*
X132050000Y-94550000D01*
X132116666Y-94483333D01*
X132150000Y-94416666D01*
X132183333Y-94283333D01*
X132183333Y-94183333D01*
X132150000Y-94050000D01*
X132116666Y-93983333D01*
X132050000Y-93916666D01*
X131950000Y-93883333D01*
X131783333Y-93883333D01*
X132616666Y-94583333D02*
X132750000Y-94583333D01*
X132816666Y-94550000D01*
X132883333Y-94483333D01*
X132916666Y-94350000D01*
X132916666Y-94116666D01*
X132883333Y-93983333D01*
X132816666Y-93916666D01*
X132750000Y-93883333D01*
X132616666Y-93883333D01*
X132550000Y-93916666D01*
X132483333Y-93983333D01*
X132450000Y-94116666D01*
X132450000Y-94350000D01*
X132483333Y-94483333D01*
X132550000Y-94550000D01*
X132616666Y-94583333D01*
X131083333Y-83916666D02*
X131183333Y-83883333D01*
X131350000Y-83883333D01*
X131416666Y-83916666D01*
X131450000Y-83950000D01*
X131483333Y-84016666D01*
X131483333Y-84083333D01*
X131450000Y-84150000D01*
X131416666Y-84183333D01*
X131350000Y-84216666D01*
X131216666Y-84250000D01*
X131150000Y-84283333D01*
X131116666Y-84316666D01*
X131083333Y-84383333D01*
X131083333Y-84450000D01*
X131116666Y-84516666D01*
X131150000Y-84550000D01*
X131216666Y-84583333D01*
X131383333Y-84583333D01*
X131483333Y-84550000D01*
X131783333Y-83883333D02*
X131783333Y-84583333D01*
X131950000Y-84583333D01*
X132050000Y-84550000D01*
X132116666Y-84483333D01*
X132150000Y-84416666D01*
X132183333Y-84283333D01*
X132183333Y-84183333D01*
X132150000Y-84050000D01*
X132116666Y-83983333D01*
X132050000Y-83916666D01*
X131950000Y-83883333D01*
X131783333Y-83883333D01*
X132616666Y-84583333D02*
X132750000Y-84583333D01*
X132816666Y-84550000D01*
X132883333Y-84483333D01*
X132916666Y-84350000D01*
X132916666Y-84116666D01*
X132883333Y-83983333D01*
X132816666Y-83916666D01*
X132750000Y-83883333D01*
X132616666Y-83883333D01*
X132550000Y-83916666D01*
X132483333Y-83983333D01*
X132450000Y-84116666D01*
X132450000Y-84350000D01*
X132483333Y-84483333D01*
X132550000Y-84550000D01*
X132616666Y-84583333D01*
X130966666Y-71083333D02*
X131400000Y-71083333D01*
X131166666Y-70816666D01*
X131266666Y-70816666D01*
X131333333Y-70783333D01*
X131366666Y-70750000D01*
X131400000Y-70683333D01*
X131400000Y-70516666D01*
X131366666Y-70450000D01*
X131333333Y-70416666D01*
X131266666Y-70383333D01*
X131066666Y-70383333D01*
X131000000Y-70416666D01*
X130966666Y-70450000D01*
X131700000Y-70450000D02*
X131733333Y-70416666D01*
X131700000Y-70383333D01*
X131666666Y-70416666D01*
X131700000Y-70450000D01*
X131700000Y-70383333D01*
X131966666Y-71083333D02*
X132400000Y-71083333D01*
X132166666Y-70816666D01*
X132266666Y-70816666D01*
X132333333Y-70783333D01*
X132366666Y-70750000D01*
X132400000Y-70683333D01*
X132400000Y-70516666D01*
X132366666Y-70450000D01*
X132333333Y-70416666D01*
X132266666Y-70383333D01*
X132066666Y-70383333D01*
X132000000Y-70416666D01*
X131966666Y-70450000D01*
X132600000Y-71083333D02*
X132833333Y-70383333D01*
X133066666Y-71083333D01*
X131483333Y-71416666D02*
X131583333Y-71383333D01*
X131750000Y-71383333D01*
X131816666Y-71416666D01*
X131850000Y-71450000D01*
X131883333Y-71516666D01*
X131883333Y-71583333D01*
X131850000Y-71650000D01*
X131816666Y-71683333D01*
X131750000Y-71716666D01*
X131616666Y-71750000D01*
X131550000Y-71783333D01*
X131516666Y-71816666D01*
X131483333Y-71883333D01*
X131483333Y-71950000D01*
X131516666Y-72016666D01*
X131550000Y-72050000D01*
X131616666Y-72083333D01*
X131783333Y-72083333D01*
X131883333Y-72050000D01*
X132183333Y-71383333D02*
X132183333Y-72083333D01*
X132350000Y-72083333D01*
X132450000Y-72050000D01*
X132516666Y-71983333D01*
X132550000Y-71916666D01*
X132583333Y-71783333D01*
X132583333Y-71683333D01*
X132550000Y-71550000D01*
X132516666Y-71483333D01*
X132450000Y-71416666D01*
X132350000Y-71383333D01*
X132183333Y-71383333D01*
X132883333Y-71383333D02*
X132883333Y-72083333D01*
X131100000Y-72716666D02*
X131200000Y-72683333D01*
X131366666Y-72683333D01*
X131433333Y-72716666D01*
X131466666Y-72750000D01*
X131500000Y-72816666D01*
X131500000Y-72883333D01*
X131466666Y-72950000D01*
X131433333Y-72983333D01*
X131366666Y-73016666D01*
X131233333Y-73050000D01*
X131166666Y-73083333D01*
X131133333Y-73116666D01*
X131100000Y-73183333D01*
X131100000Y-73250000D01*
X131133333Y-73316666D01*
X131166666Y-73350000D01*
X131233333Y-73383333D01*
X131400000Y-73383333D01*
X131500000Y-73350000D01*
X132200000Y-72750000D02*
X132166666Y-72716666D01*
X132066666Y-72683333D01*
X132000000Y-72683333D01*
X131900000Y-72716666D01*
X131833333Y-72783333D01*
X131800000Y-72850000D01*
X131766666Y-72983333D01*
X131766666Y-73083333D01*
X131800000Y-73216666D01*
X131833333Y-73283333D01*
X131900000Y-73350000D01*
X132000000Y-73383333D01*
X132066666Y-73383333D01*
X132166666Y-73350000D01*
X132200000Y-73316666D01*
X132500000Y-72683333D02*
X132500000Y-73383333D01*
X132900000Y-72683333D02*
X132600000Y-73083333D01*
X132900000Y-73383333D02*
X132500000Y-72983333D01*
X131083333Y-73916666D02*
X131183333Y-73883333D01*
X131350000Y-73883333D01*
X131416666Y-73916666D01*
X131450000Y-73950000D01*
X131483333Y-74016666D01*
X131483333Y-74083333D01*
X131450000Y-74150000D01*
X131416666Y-74183333D01*
X131350000Y-74216666D01*
X131216666Y-74250000D01*
X131150000Y-74283333D01*
X131116666Y-74316666D01*
X131083333Y-74383333D01*
X131083333Y-74450000D01*
X131116666Y-74516666D01*
X131150000Y-74550000D01*
X131216666Y-74583333D01*
X131383333Y-74583333D01*
X131483333Y-74550000D01*
X131783333Y-73883333D02*
X131783333Y-74583333D01*
X131950000Y-74583333D01*
X132050000Y-74550000D01*
X132116666Y-74483333D01*
X132150000Y-74416666D01*
X132183333Y-74283333D01*
X132183333Y-74183333D01*
X132150000Y-74050000D01*
X132116666Y-73983333D01*
X132050000Y-73916666D01*
X131950000Y-73883333D01*
X131783333Y-73883333D01*
X132616666Y-74583333D02*
X132750000Y-74583333D01*
X132816666Y-74550000D01*
X132883333Y-74483333D01*
X132916666Y-74350000D01*
X132916666Y-74116666D01*
X132883333Y-73983333D01*
X132816666Y-73916666D01*
X132750000Y-73883333D01*
X132616666Y-73883333D01*
X132550000Y-73916666D01*
X132483333Y-73983333D01*
X132450000Y-74116666D01*
X132450000Y-74350000D01*
X132483333Y-74483333D01*
X132550000Y-74550000D01*
X132616666Y-74583333D01*
X131566666Y-75650000D02*
X131500000Y-75683333D01*
X131400000Y-75683333D01*
X131300000Y-75650000D01*
X131233333Y-75583333D01*
X131200000Y-75516666D01*
X131166666Y-75383333D01*
X131166666Y-75283333D01*
X131200000Y-75150000D01*
X131233333Y-75083333D01*
X131300000Y-75016666D01*
X131400000Y-74983333D01*
X131466666Y-74983333D01*
X131566666Y-75016666D01*
X131600000Y-75050000D01*
X131600000Y-75283333D01*
X131466666Y-75283333D01*
X131900000Y-74983333D02*
X131900000Y-75683333D01*
X132300000Y-74983333D01*
X132300000Y-75683333D01*
X132633333Y-74983333D02*
X132633333Y-75683333D01*
X132800000Y-75683333D01*
X132900000Y-75650000D01*
X132966666Y-75583333D01*
X133000000Y-75516666D01*
X133033333Y-75383333D01*
X133033333Y-75283333D01*
X133000000Y-75150000D01*
X132966666Y-75083333D01*
X132900000Y-75016666D01*
X132800000Y-74983333D01*
X132633333Y-74983333D01*
D11*
X165490000Y-96260000D02*
X166600000Y-96260000D01*
X165490000Y-95500000D02*
X165490000Y-96260000D01*
X167163471Y-94740000D02*
X167710000Y-94740000D01*
X165490000Y-94740000D02*
X166036529Y-94740000D01*
X167710000Y-94740000D02*
X167710000Y-89725000D01*
X165490000Y-94740000D02*
X165490000Y-89725000D01*
X166907530Y-89725000D02*
X167710000Y-89725000D01*
X165490000Y-89725000D02*
X166292470Y-89725000D01*
X154490000Y-106260000D02*
X155600000Y-106260000D01*
X154490000Y-105500000D02*
X154490000Y-106260000D01*
X156163471Y-104740000D02*
X156710000Y-104740000D01*
X154490000Y-104740000D02*
X155036529Y-104740000D01*
X156710000Y-104740000D02*
X156710000Y-99725000D01*
X154490000Y-104740000D02*
X154490000Y-99725000D01*
X155907530Y-99725000D02*
X156710000Y-99725000D01*
X154490000Y-99725000D02*
X155292470Y-99725000D01*
X143490000Y-106260000D02*
X144600000Y-106260000D01*
X143490000Y-105500000D02*
X143490000Y-106260000D01*
X145163471Y-104740000D02*
X145710000Y-104740000D01*
X143490000Y-104740000D02*
X144036529Y-104740000D01*
X145710000Y-104740000D02*
X145710000Y-99725000D01*
X143490000Y-104740000D02*
X143490000Y-99725000D01*
X144907530Y-99725000D02*
X145710000Y-99725000D01*
X143490000Y-99725000D02*
X144292470Y-99725000D01*
X154490000Y-96260000D02*
X155600000Y-96260000D01*
X154490000Y-95500000D02*
X154490000Y-96260000D01*
X156163471Y-94740000D02*
X156710000Y-94740000D01*
X154490000Y-94740000D02*
X155036529Y-94740000D01*
X156710000Y-94740000D02*
X156710000Y-89725000D01*
X154490000Y-94740000D02*
X154490000Y-89725000D01*
X155907530Y-89725000D02*
X156710000Y-89725000D01*
X154490000Y-89725000D02*
X155292470Y-89725000D01*
X143490000Y-96260000D02*
X144600000Y-96260000D01*
X143490000Y-95500000D02*
X143490000Y-96260000D01*
X145163471Y-94740000D02*
X145710000Y-94740000D01*
X143490000Y-94740000D02*
X144036529Y-94740000D01*
X145710000Y-94740000D02*
X145710000Y-89725000D01*
X143490000Y-94740000D02*
X143490000Y-89725000D01*
X144907530Y-89725000D02*
X145710000Y-89725000D01*
X143490000Y-89725000D02*
X144292470Y-89725000D01*
X165490000Y-86260000D02*
X166600000Y-86260000D01*
X165490000Y-85500000D02*
X165490000Y-86260000D01*
X167163471Y-84740000D02*
X167710000Y-84740000D01*
X165490000Y-84740000D02*
X166036529Y-84740000D01*
X167710000Y-84740000D02*
X167710000Y-79725000D01*
X165490000Y-84740000D02*
X165490000Y-79725000D01*
X166907530Y-79725000D02*
X167710000Y-79725000D01*
X165490000Y-79725000D02*
X166292470Y-79725000D01*
X154490000Y-86260000D02*
X155600000Y-86260000D01*
X154490000Y-85500000D02*
X154490000Y-86260000D01*
X156163471Y-84740000D02*
X156710000Y-84740000D01*
X154490000Y-84740000D02*
X155036529Y-84740000D01*
X156710000Y-84740000D02*
X156710000Y-79725000D01*
X154490000Y-84740000D02*
X154490000Y-79725000D01*
X155907530Y-79725000D02*
X156710000Y-79725000D01*
X154490000Y-79725000D02*
X155292470Y-79725000D01*
X143490000Y-86260000D02*
X144600000Y-86260000D01*
X143490000Y-85500000D02*
X143490000Y-86260000D01*
X145163471Y-84740000D02*
X145710000Y-84740000D01*
X143490000Y-84740000D02*
X144036529Y-84740000D01*
X145710000Y-84740000D02*
X145710000Y-79725000D01*
X143490000Y-84740000D02*
X143490000Y-79725000D01*
X144907530Y-79725000D02*
X145710000Y-79725000D01*
X143490000Y-79725000D02*
X144292470Y-79725000D01*
X165490000Y-76260000D02*
X166600000Y-76260000D01*
X165490000Y-75500000D02*
X165490000Y-76260000D01*
X167163471Y-74740000D02*
X167710000Y-74740000D01*
X165490000Y-74740000D02*
X166036529Y-74740000D01*
X167710000Y-74740000D02*
X167710000Y-69725000D01*
X165490000Y-74740000D02*
X165490000Y-69725000D01*
X166907530Y-69725000D02*
X167710000Y-69725000D01*
X165490000Y-69725000D02*
X166292470Y-69725000D01*
X154490000Y-76260000D02*
X155600000Y-76260000D01*
X154490000Y-75500000D02*
X154490000Y-76260000D01*
X156163471Y-74740000D02*
X156710000Y-74740000D01*
X154490000Y-74740000D02*
X155036529Y-74740000D01*
X156710000Y-74740000D02*
X156710000Y-69725000D01*
X154490000Y-74740000D02*
X154490000Y-69725000D01*
X155907530Y-69725000D02*
X156710000Y-69725000D01*
X154490000Y-69725000D02*
X155292470Y-69725000D01*
X143490000Y-76260000D02*
X144600000Y-76260000D01*
X143490000Y-75500000D02*
X143490000Y-76260000D01*
X145163471Y-74740000D02*
X145710000Y-74740000D01*
X143490000Y-74740000D02*
X144036529Y-74740000D01*
X145710000Y-74740000D02*
X145710000Y-69725000D01*
X143490000Y-74740000D02*
X143490000Y-69725000D01*
X144907530Y-69725000D02*
X145710000Y-69725000D01*
X143490000Y-69725000D02*
X144292470Y-69725000D01*
X165490000Y-106260000D02*
X166600000Y-106260000D01*
X165490000Y-105500000D02*
X165490000Y-106260000D01*
X167163471Y-104740000D02*
X167710000Y-104740000D01*
X165490000Y-104740000D02*
X166036529Y-104740000D01*
X167710000Y-104740000D02*
X167710000Y-99725000D01*
X165490000Y-104740000D02*
X165490000Y-99725000D01*
X166907530Y-99725000D02*
X167710000Y-99725000D01*
X165490000Y-99725000D02*
X166292470Y-99725000D01*
X132490000Y-106260000D02*
X133600000Y-106260000D01*
X132490000Y-105500000D02*
X132490000Y-106260000D01*
X134163471Y-104740000D02*
X134710000Y-104740000D01*
X132490000Y-104740000D02*
X133036529Y-104740000D01*
X134710000Y-104740000D02*
X134710000Y-99725000D01*
X132490000Y-104740000D02*
X132490000Y-99725000D01*
X133907530Y-99725000D02*
X134710000Y-99725000D01*
X132490000Y-99725000D02*
X133292470Y-99725000D01*
X132490000Y-96260000D02*
X133600000Y-96260000D01*
X132490000Y-95500000D02*
X132490000Y-96260000D01*
X134163471Y-94740000D02*
X134710000Y-94740000D01*
X132490000Y-94740000D02*
X133036529Y-94740000D01*
X134710000Y-94740000D02*
X134710000Y-89725000D01*
X132490000Y-94740000D02*
X132490000Y-89725000D01*
X133907530Y-89725000D02*
X134710000Y-89725000D01*
X132490000Y-89725000D02*
X133292470Y-89725000D01*
X132490000Y-86260000D02*
X133600000Y-86260000D01*
X132490000Y-85500000D02*
X132490000Y-86260000D01*
X134163471Y-84740000D02*
X134710000Y-84740000D01*
X132490000Y-84740000D02*
X133036529Y-84740000D01*
X134710000Y-84740000D02*
X134710000Y-79725000D01*
X132490000Y-84740000D02*
X132490000Y-79725000D01*
X133907530Y-79725000D02*
X134710000Y-79725000D01*
X132490000Y-79725000D02*
X133292470Y-79725000D01*
X132490000Y-69725000D02*
X133292470Y-69725000D01*
X133907530Y-69725000D02*
X134710000Y-69725000D01*
X132490000Y-74740000D02*
X132490000Y-69725000D01*
X134710000Y-74740000D02*
X134710000Y-69725000D01*
X132490000Y-74740000D02*
X133036529Y-74740000D01*
X134163471Y-74740000D02*
X134710000Y-74740000D01*
X132490000Y-75500000D02*
X132490000Y-76260000D01*
X132490000Y-76260000D02*
X133600000Y-76260000D01*
M02*
