M48
; DRILL file {KiCad 5.1.5-52549c5~84~ubuntu18.04.1} date Fri 30 Oct 2020 11:30:57 AM CET
; FORMAT={-:-/ absolute / inch / decimal}
; #@! TF.CreationDate,2020-10-30T11:30:57+01:00
; #@! TF.GenerationSoftware,Kicad,Pcbnew,5.1.5-52549c5~84~ubuntu18.04.1
; #@! TF.FileFunction,NonPlated,1,2,NPTH
FMAT,2
INCH
T1C0.0118
%
G90
G05
T1
X6.811Y-4.2126
X6.8268Y-4.2126
X6.8425Y-4.2126
X6.8583Y-4.2126
X6.874Y-4.2126
X6.8898Y-4.2126
X6.811Y-2.6772
X6.8268Y-2.6772
X6.8425Y-2.6772
X6.8583Y-2.6772
X6.874Y-2.6772
X6.8898Y-2.6772
X4.9213Y-2.6772
X4.937Y-2.6772
X4.9528Y-2.6772
X4.9685Y-2.6772
X4.9843Y-2.6772
X5.0Y-2.6772
X4.9213Y-4.2126
X4.937Y-4.2126
X4.9528Y-4.2126
X4.9685Y-4.2126
X4.9843Y-4.2126
X5.0Y-4.2126
T0
M30
