G04 #@! TF.GenerationSoftware,KiCad,Pcbnew,5.1.5-52549c5~84~ubuntu18.04.1*
G04 #@! TF.CreationDate,2020-10-30T11:30:54+01:00*
G04 #@! TF.ProjectId,output.load_cell_panel,6f757470-7574-42e6-9c6f-61645f63656c,rev?*
G04 #@! TF.SameCoordinates,Original*
G04 #@! TF.FileFunction,Copper,L2,Bot*
G04 #@! TF.FilePolarity,Positive*
%FSLAX46Y46*%
G04 Gerber Fmt 4.6, Leading zero omitted, Abs format (unit mm)*
G04 Created by KiCad (PCBNEW 5.1.5-52549c5~84~ubuntu18.04.1) date 2020-10-30 11:30:54*
%MOMM*%
%LPD*%
G04 APERTURE LIST*
%ADD10O,1.000000X1.000000*%
%ADD11R,1.000000X1.000000*%
%ADD12C,0.400000*%
%ADD13C,0.250000*%
G04 APERTURE END LIST*
D10*
X166600000Y-90420000D03*
X166600000Y-91690000D03*
X166600000Y-92960000D03*
X166600000Y-94230000D03*
D11*
X166600000Y-95500000D03*
D10*
X155600000Y-100420000D03*
X155600000Y-101690000D03*
X155600000Y-102960000D03*
X155600000Y-104230000D03*
D11*
X155600000Y-105500000D03*
D10*
X144600000Y-100420000D03*
X144600000Y-101690000D03*
X144600000Y-102960000D03*
X144600000Y-104230000D03*
D11*
X144600000Y-105500000D03*
D10*
X155600000Y-90420000D03*
X155600000Y-91690000D03*
X155600000Y-92960000D03*
X155600000Y-94230000D03*
D11*
X155600000Y-95500000D03*
D10*
X144600000Y-90420000D03*
X144600000Y-91690000D03*
X144600000Y-92960000D03*
X144600000Y-94230000D03*
D11*
X144600000Y-95500000D03*
D10*
X166600000Y-80420000D03*
X166600000Y-81690000D03*
X166600000Y-82960000D03*
X166600000Y-84230000D03*
D11*
X166600000Y-85500000D03*
D10*
X155600000Y-80420000D03*
X155600000Y-81690000D03*
X155600000Y-82960000D03*
X155600000Y-84230000D03*
D11*
X155600000Y-85500000D03*
D10*
X144600000Y-80420000D03*
X144600000Y-81690000D03*
X144600000Y-82960000D03*
X144600000Y-84230000D03*
D11*
X144600000Y-85500000D03*
D10*
X166600000Y-70420000D03*
X166600000Y-71690000D03*
X166600000Y-72960000D03*
X166600000Y-74230000D03*
D11*
X166600000Y-75500000D03*
D10*
X155600000Y-70420000D03*
X155600000Y-71690000D03*
X155600000Y-72960000D03*
X155600000Y-74230000D03*
D11*
X155600000Y-75500000D03*
D10*
X144600000Y-70420000D03*
X144600000Y-71690000D03*
X144600000Y-72960000D03*
X144600000Y-74230000D03*
D11*
X144600000Y-75500000D03*
D10*
X166600000Y-100420000D03*
X166600000Y-101690000D03*
X166600000Y-102960000D03*
X166600000Y-104230000D03*
D11*
X166600000Y-105500000D03*
D10*
X133600000Y-100420000D03*
X133600000Y-101690000D03*
X133600000Y-102960000D03*
X133600000Y-104230000D03*
D11*
X133600000Y-105500000D03*
D10*
X133600000Y-90420000D03*
X133600000Y-91690000D03*
X133600000Y-92960000D03*
X133600000Y-94230000D03*
D11*
X133600000Y-95500000D03*
D10*
X133600000Y-80420000D03*
X133600000Y-81690000D03*
X133600000Y-82960000D03*
X133600000Y-84230000D03*
D11*
X133600000Y-85500000D03*
X133600000Y-75500000D03*
D10*
X133600000Y-74230000D03*
X133600000Y-72960000D03*
X133600000Y-71690000D03*
X133600000Y-70420000D03*
D12*
X135100000Y-73000000D03*
X135100000Y-103000000D03*
X135100000Y-93000000D03*
X135100000Y-83000000D03*
X168100000Y-103000000D03*
X157100000Y-103000000D03*
X146100000Y-103000000D03*
X168100000Y-93000000D03*
X157100000Y-93000000D03*
X146100000Y-93000000D03*
X168100000Y-83000000D03*
X157100000Y-83000000D03*
X146100000Y-83000000D03*
X168100000Y-73000000D03*
X157100000Y-73000000D03*
X146100000Y-73000000D03*
X131500000Y-72600000D03*
X131500000Y-102600000D03*
X131500000Y-92600000D03*
X131500000Y-82600000D03*
X142500000Y-72600000D03*
X164500000Y-102600000D03*
X153500000Y-102600000D03*
X142500000Y-102600000D03*
X164500000Y-92600000D03*
X153500000Y-92600000D03*
X142500000Y-92600000D03*
X164500000Y-82600000D03*
X153500000Y-82600000D03*
X142500000Y-82600000D03*
X164500000Y-72600000D03*
X153500000Y-72600000D03*
X131500000Y-74000000D03*
X131500000Y-104000000D03*
X131500000Y-94000000D03*
X131500000Y-84000000D03*
X164500000Y-104000000D03*
X153500000Y-104000000D03*
X142500000Y-104000000D03*
X164500000Y-94000000D03*
X153500000Y-94000000D03*
X142500000Y-94000000D03*
X164500000Y-84000000D03*
X153500000Y-84000000D03*
X142500000Y-84000000D03*
X164500000Y-74000000D03*
X153500000Y-74000000D03*
X142500000Y-74000000D03*
D13*
X133600000Y-70420000D02*
X135100000Y-71920000D01*
X135100000Y-71920000D02*
X135100000Y-73000000D01*
X135100000Y-101920000D02*
X135100000Y-103000000D01*
X135100000Y-91920000D02*
X135100000Y-93000000D01*
X135100000Y-81920000D02*
X135100000Y-83000000D01*
X133600000Y-100420000D02*
X135100000Y-101920000D01*
X133600000Y-90420000D02*
X135100000Y-91920000D01*
X133600000Y-80420000D02*
X135100000Y-81920000D01*
X168100000Y-101920000D02*
X168100000Y-103000000D01*
X157100000Y-101920000D02*
X157100000Y-103000000D01*
X146100000Y-101920000D02*
X146100000Y-103000000D01*
X168100000Y-91920000D02*
X168100000Y-93000000D01*
X157100000Y-91920000D02*
X157100000Y-93000000D01*
X146100000Y-91920000D02*
X146100000Y-93000000D01*
X168100000Y-81920000D02*
X168100000Y-83000000D01*
X157100000Y-81920000D02*
X157100000Y-83000000D01*
X146100000Y-81920000D02*
X146100000Y-83000000D01*
X168100000Y-71920000D02*
X168100000Y-73000000D01*
X157100000Y-71920000D02*
X157100000Y-73000000D01*
X146100000Y-71920000D02*
X146100000Y-73000000D01*
X166600000Y-100420000D02*
X168100000Y-101920000D01*
X155600000Y-100420000D02*
X157100000Y-101920000D01*
X144600000Y-100420000D02*
X146100000Y-101920000D01*
X166600000Y-90420000D02*
X168100000Y-91920000D01*
X155600000Y-90420000D02*
X157100000Y-91920000D01*
X144600000Y-90420000D02*
X146100000Y-91920000D01*
X166600000Y-80420000D02*
X168100000Y-81920000D01*
X155600000Y-80420000D02*
X157100000Y-81920000D01*
X144600000Y-80420000D02*
X146100000Y-81920000D01*
X166600000Y-70420000D02*
X168100000Y-71920000D01*
X155600000Y-70420000D02*
X157100000Y-71920000D01*
X144600000Y-70420000D02*
X146100000Y-71920000D01*
X132222998Y-75500000D02*
X132850000Y-75500000D01*
X130974999Y-74252001D02*
X132222998Y-75500000D01*
X130974999Y-73125001D02*
X130974999Y-74252001D01*
X132850000Y-75500000D02*
X133600000Y-75500000D01*
X131500000Y-72600000D02*
X130974999Y-73125001D01*
X132850000Y-105500000D02*
X133600000Y-105500000D01*
X132850000Y-95500000D02*
X133600000Y-95500000D01*
X132850000Y-85500000D02*
X133600000Y-85500000D01*
X131500000Y-102600000D02*
X130974999Y-103125001D01*
X131500000Y-92600000D02*
X130974999Y-93125001D01*
X131500000Y-82600000D02*
X130974999Y-83125001D01*
X130974999Y-103125001D02*
X130974999Y-104252001D01*
X130974999Y-93125001D02*
X130974999Y-94252001D01*
X130974999Y-83125001D02*
X130974999Y-84252001D01*
X132222998Y-105500000D02*
X132850000Y-105500000D01*
X132222998Y-95500000D02*
X132850000Y-95500000D01*
X132222998Y-85500000D02*
X132850000Y-85500000D01*
X130974999Y-104252001D02*
X132222998Y-105500000D01*
X130974999Y-94252001D02*
X132222998Y-95500000D01*
X130974999Y-84252001D02*
X132222998Y-85500000D01*
X165850000Y-105500000D02*
X166600000Y-105500000D01*
X154850000Y-105500000D02*
X155600000Y-105500000D01*
X143850000Y-105500000D02*
X144600000Y-105500000D01*
X165850000Y-95500000D02*
X166600000Y-95500000D01*
X154850000Y-95500000D02*
X155600000Y-95500000D01*
X143850000Y-95500000D02*
X144600000Y-95500000D01*
X165850000Y-85500000D02*
X166600000Y-85500000D01*
X154850000Y-85500000D02*
X155600000Y-85500000D01*
X143850000Y-85500000D02*
X144600000Y-85500000D01*
X165850000Y-75500000D02*
X166600000Y-75500000D01*
X154850000Y-75500000D02*
X155600000Y-75500000D01*
X143850000Y-75500000D02*
X144600000Y-75500000D01*
X164500000Y-102600000D02*
X163974999Y-103125001D01*
X153500000Y-102600000D02*
X152974999Y-103125001D01*
X142500000Y-102600000D02*
X141974999Y-103125001D01*
X164500000Y-92600000D02*
X163974999Y-93125001D01*
X153500000Y-92600000D02*
X152974999Y-93125001D01*
X142500000Y-92600000D02*
X141974999Y-93125001D01*
X164500000Y-82600000D02*
X163974999Y-83125001D01*
X153500000Y-82600000D02*
X152974999Y-83125001D01*
X142500000Y-82600000D02*
X141974999Y-83125001D01*
X164500000Y-72600000D02*
X163974999Y-73125001D01*
X153500000Y-72600000D02*
X152974999Y-73125001D01*
X142500000Y-72600000D02*
X141974999Y-73125001D01*
X163974999Y-103125001D02*
X163974999Y-104252001D01*
X152974999Y-103125001D02*
X152974999Y-104252001D01*
X141974999Y-103125001D02*
X141974999Y-104252001D01*
X163974999Y-93125001D02*
X163974999Y-94252001D01*
X152974999Y-93125001D02*
X152974999Y-94252001D01*
X141974999Y-93125001D02*
X141974999Y-94252001D01*
X163974999Y-83125001D02*
X163974999Y-84252001D01*
X152974999Y-83125001D02*
X152974999Y-84252001D01*
X141974999Y-83125001D02*
X141974999Y-84252001D01*
X163974999Y-73125001D02*
X163974999Y-74252001D01*
X152974999Y-73125001D02*
X152974999Y-74252001D01*
X141974999Y-73125001D02*
X141974999Y-74252001D01*
X165222998Y-105500000D02*
X165850000Y-105500000D01*
X154222998Y-105500000D02*
X154850000Y-105500000D01*
X143222998Y-105500000D02*
X143850000Y-105500000D01*
X165222998Y-95500000D02*
X165850000Y-95500000D01*
X154222998Y-95500000D02*
X154850000Y-95500000D01*
X143222998Y-95500000D02*
X143850000Y-95500000D01*
X165222998Y-85500000D02*
X165850000Y-85500000D01*
X154222998Y-85500000D02*
X154850000Y-85500000D01*
X143222998Y-85500000D02*
X143850000Y-85500000D01*
X165222998Y-75500000D02*
X165850000Y-75500000D01*
X154222998Y-75500000D02*
X154850000Y-75500000D01*
X143222998Y-75500000D02*
X143850000Y-75500000D01*
X163974999Y-104252001D02*
X165222998Y-105500000D01*
X152974999Y-104252001D02*
X154222998Y-105500000D01*
X141974999Y-104252001D02*
X143222998Y-105500000D01*
X163974999Y-94252001D02*
X165222998Y-95500000D01*
X152974999Y-94252001D02*
X154222998Y-95500000D01*
X141974999Y-94252001D02*
X143222998Y-95500000D01*
X163974999Y-84252001D02*
X165222998Y-85500000D01*
X152974999Y-84252001D02*
X154222998Y-85500000D01*
X141974999Y-84252001D02*
X143222998Y-85500000D01*
X163974999Y-74252001D02*
X165222998Y-75500000D01*
X152974999Y-74252001D02*
X154222998Y-75500000D01*
X141974999Y-74252001D02*
X143222998Y-75500000D01*
X133370000Y-74000000D02*
X133600000Y-74230000D01*
X131500000Y-74000000D02*
X133370000Y-74000000D01*
X133370000Y-104000000D02*
X133600000Y-104230000D01*
X133370000Y-94000000D02*
X133600000Y-94230000D01*
X133370000Y-84000000D02*
X133600000Y-84230000D01*
X131500000Y-104000000D02*
X133370000Y-104000000D01*
X131500000Y-94000000D02*
X133370000Y-94000000D01*
X131500000Y-84000000D02*
X133370000Y-84000000D01*
X166370000Y-104000000D02*
X166600000Y-104230000D01*
X155370000Y-104000000D02*
X155600000Y-104230000D01*
X144370000Y-104000000D02*
X144600000Y-104230000D01*
X166370000Y-94000000D02*
X166600000Y-94230000D01*
X155370000Y-94000000D02*
X155600000Y-94230000D01*
X144370000Y-94000000D02*
X144600000Y-94230000D01*
X166370000Y-84000000D02*
X166600000Y-84230000D01*
X155370000Y-84000000D02*
X155600000Y-84230000D01*
X144370000Y-84000000D02*
X144600000Y-84230000D01*
X166370000Y-74000000D02*
X166600000Y-74230000D01*
X155370000Y-74000000D02*
X155600000Y-74230000D01*
X144370000Y-74000000D02*
X144600000Y-74230000D01*
X164500000Y-104000000D02*
X166370000Y-104000000D01*
X153500000Y-104000000D02*
X155370000Y-104000000D01*
X142500000Y-104000000D02*
X144370000Y-104000000D01*
X164500000Y-94000000D02*
X166370000Y-94000000D01*
X153500000Y-94000000D02*
X155370000Y-94000000D01*
X142500000Y-94000000D02*
X144370000Y-94000000D01*
X164500000Y-84000000D02*
X166370000Y-84000000D01*
X153500000Y-84000000D02*
X155370000Y-84000000D01*
X142500000Y-84000000D02*
X144370000Y-84000000D01*
X164500000Y-74000000D02*
X166370000Y-74000000D01*
X153500000Y-74000000D02*
X155370000Y-74000000D01*
X142500000Y-74000000D02*
X144370000Y-74000000D01*
M02*
