G04 #@! TF.GenerationSoftware,KiCad,Pcbnew,5.1.5-52549c5~84~ubuntu18.04.1*
G04 #@! TF.CreationDate,2020-10-30T11:30:54+01:00*
G04 #@! TF.ProjectId,output.load_cell_panel,6f757470-7574-42e6-9c6f-61645f63656c,rev?*
G04 #@! TF.SameCoordinates,Original*
G04 #@! TF.FileFunction,Profile,NP*
%FSLAX46Y46*%
G04 Gerber Fmt 4.6, Leading zero omitted, Abs format (unit mm)*
G04 Created by KiCad (PCBNEW 5.1.5-52549c5~84~ubuntu18.04.1) date 2020-10-30 11:30:54*
%MOMM*%
%LPD*%
G04 APERTURE LIST*
%ADD10C,0.150000*%
%ADD11C,0.100000*%
G04 APERTURE END LIST*
D10*
X163268911Y-100730385D02*
X163367221Y-100640238D01*
X152268911Y-100730385D02*
X152367221Y-100640238D01*
X141268911Y-100730385D02*
X141367221Y-100640238D01*
X163268911Y-90730385D02*
X163367221Y-90640238D01*
X152268911Y-90730385D02*
X152367221Y-90640238D01*
X141268911Y-90730385D02*
X141367221Y-90640238D01*
X163268911Y-80730385D02*
X163367221Y-80640238D01*
X152268911Y-80730385D02*
X152367221Y-80640238D01*
X141268911Y-80730385D02*
X141367221Y-80640238D01*
X163268911Y-70730385D02*
X163367221Y-70640238D01*
X152268911Y-70730385D02*
X152367221Y-70640238D01*
X141268911Y-70730385D02*
X141367221Y-70640238D01*
X168731089Y-105269615D02*
X168632779Y-105359761D01*
X157731089Y-105269615D02*
X157632779Y-105359761D01*
X146731089Y-105269615D02*
X146632779Y-105359761D01*
X168731089Y-95269615D02*
X168632779Y-95359761D01*
X157731089Y-95269615D02*
X157632779Y-95359761D01*
X146731089Y-95269615D02*
X146632779Y-95359761D01*
X168731089Y-85269615D02*
X168632779Y-85359761D01*
X157731089Y-85269615D02*
X157632779Y-85359761D01*
X146731089Y-85269615D02*
X146632779Y-85359761D01*
X168731089Y-75269615D02*
X168632779Y-75359761D01*
X157731089Y-75269615D02*
X157632779Y-75359761D01*
X146731089Y-75269615D02*
X146632779Y-75359761D01*
X163290617Y-105295483D02*
X163218911Y-105183013D01*
X152290617Y-105295483D02*
X152218911Y-105183013D01*
X141290617Y-105295483D02*
X141218911Y-105183013D01*
X163290617Y-95295483D02*
X163218911Y-95183013D01*
X152290617Y-95295483D02*
X152218911Y-95183013D01*
X141290617Y-95295483D02*
X141218911Y-95183013D01*
X163290617Y-85295483D02*
X163218911Y-85183013D01*
X152290617Y-85295483D02*
X152218911Y-85183013D01*
X141290617Y-85295483D02*
X141218911Y-85183013D01*
X163290617Y-75295483D02*
X163218911Y-75183013D01*
X152290617Y-75295483D02*
X152218911Y-75183013D01*
X141290617Y-75295483D02*
X141218911Y-75183013D01*
X168781088Y-100816987D02*
X168709383Y-100704517D01*
X157781088Y-100816987D02*
X157709383Y-100704517D01*
X146781088Y-100816987D02*
X146709383Y-100704517D01*
X168781088Y-90816987D02*
X168709383Y-90704517D01*
X157781088Y-90816987D02*
X157709383Y-90704517D01*
X146781088Y-90816987D02*
X146709383Y-90704517D01*
X168781088Y-80816987D02*
X168709383Y-80704517D01*
X157781088Y-80816987D02*
X157709383Y-80704517D01*
X146781088Y-80816987D02*
X146709383Y-80704517D01*
X168781088Y-70816987D02*
X168709383Y-70704517D01*
X157781088Y-70816987D02*
X157709383Y-70704517D01*
X146781088Y-70816987D02*
X146709383Y-70704517D01*
X130268911Y-100730385D02*
X130367221Y-100640238D01*
X130268911Y-90730385D02*
X130367221Y-90640238D01*
X130268911Y-80730385D02*
X130367221Y-80640238D01*
X135731089Y-105269615D02*
X135632779Y-105359761D01*
X135731089Y-95269615D02*
X135632779Y-95359761D01*
X135731089Y-85269615D02*
X135632779Y-85359761D01*
X130290617Y-105295483D02*
X130218911Y-105183013D01*
X130290617Y-95295483D02*
X130218911Y-95183013D01*
X130290617Y-85295483D02*
X130218911Y-85183013D01*
X135781088Y-100816987D02*
X135709383Y-100704517D01*
X135781088Y-90816987D02*
X135709383Y-90704517D01*
X135781088Y-80816987D02*
X135709383Y-80704517D01*
X125000000Y-111000000D02*
X125000000Y-65000000D01*
X175000000Y-111000000D02*
X125000000Y-111000000D01*
X175000000Y-65000000D02*
X175000000Y-111000000D01*
X125000000Y-65000000D02*
X175000000Y-65000000D01*
X130268911Y-70730385D02*
X130367221Y-70640238D01*
X130290617Y-75295483D02*
X130218911Y-75183013D01*
X135731089Y-75269615D02*
X135632779Y-75359761D01*
X135781088Y-70816987D02*
X135709383Y-70704517D01*
D11*
X152043705Y-74879548D02*
X152218911Y-75183013D01*
X152044043Y-71119867D02*
X152268911Y-70730385D01*
X146956294Y-71120452D02*
X146781088Y-70816987D01*
X146955957Y-74880133D02*
X146731089Y-75269615D01*
X146956294Y-71120452D02*
X146963972Y-71220157D01*
X152044043Y-71119867D02*
X152036347Y-71219570D01*
X146963972Y-71220157D02*
X146979291Y-71318977D01*
X152036347Y-71219570D02*
X152021010Y-71318386D01*
X146979291Y-71318977D02*
X147002161Y-71416327D01*
X152021010Y-71318386D02*
X151998123Y-71415731D01*
X147002161Y-71416327D02*
X147032446Y-71511631D01*
X151998123Y-71415731D02*
X151967821Y-71511029D01*
X147032446Y-71511631D02*
X147069967Y-71604325D01*
X151967821Y-71511029D02*
X151930283Y-71603716D01*
X147069967Y-71604325D02*
X147114502Y-71693861D01*
X151930283Y-71603716D02*
X151885732Y-71693243D01*
X147114502Y-71693861D02*
X147165788Y-71779709D01*
X151885732Y-71693243D02*
X151834431Y-71779081D01*
X147165788Y-71779709D02*
X147223521Y-71861361D01*
X151834431Y-71779081D02*
X151776684Y-71860722D01*
X147223521Y-71861361D02*
X147287359Y-71938334D01*
X151776684Y-71860722D02*
X151712832Y-71937683D01*
X147287359Y-71938334D02*
X147356925Y-72010172D01*
X151712832Y-71937683D02*
X151643253Y-72009508D01*
X147356925Y-72010172D02*
X147431807Y-72076450D01*
X151643253Y-72009508D02*
X151568359Y-72075772D01*
X147431807Y-72076450D02*
X147511562Y-72136776D01*
X151568359Y-72075772D02*
X151488593Y-72136083D01*
X147511562Y-72136776D02*
X147595718Y-72190793D01*
X151488593Y-72136083D02*
X151404427Y-72190084D01*
X147595718Y-72190793D02*
X147683777Y-72238181D01*
X151404427Y-72190084D02*
X151316359Y-72237456D01*
X147683777Y-72238181D02*
X147775218Y-72278660D01*
X151316359Y-72237456D02*
X151224910Y-72277918D01*
X147775218Y-72278660D02*
X147869500Y-72311991D01*
X151224910Y-72277918D02*
X151130621Y-72311231D01*
X147869500Y-72311991D02*
X147966065Y-72337976D01*
X151130621Y-72311231D02*
X151034050Y-72337198D01*
X147966065Y-72337976D02*
X148064342Y-72356462D01*
X151034050Y-72337198D02*
X150935769Y-72355665D01*
X148064342Y-72356462D02*
X148163749Y-72367339D01*
X150935769Y-72355665D02*
X150836359Y-72366523D01*
X148163749Y-72367339D02*
X148263698Y-72370543D01*
X150836359Y-72366523D02*
X150736408Y-72369708D01*
X150736408Y-72369708D02*
X148263698Y-72370543D01*
X152043705Y-74879548D02*
X152036027Y-74779843D01*
X146955957Y-74880133D02*
X146963653Y-74780430D01*
X152036027Y-74779843D02*
X152020708Y-74681023D01*
X146963653Y-74780430D02*
X146978990Y-74681614D01*
X152020708Y-74681023D02*
X151997838Y-74583673D01*
X146978990Y-74681614D02*
X147001877Y-74584269D01*
X151997838Y-74583673D02*
X151967553Y-74488369D01*
X147001877Y-74584269D02*
X147032179Y-74488971D01*
X151967553Y-74488369D02*
X151930032Y-74395675D01*
X147032179Y-74488971D02*
X147069717Y-74396284D01*
X151930032Y-74395675D02*
X151885497Y-74306139D01*
X147069717Y-74396284D02*
X147114268Y-74306757D01*
X151885497Y-74306139D02*
X151834211Y-74220291D01*
X147114268Y-74306757D02*
X147165569Y-74220919D01*
X151834211Y-74220291D02*
X151776478Y-74138639D01*
X147165569Y-74220919D02*
X147223316Y-74139278D01*
X151776478Y-74138639D02*
X151712640Y-74061666D01*
X147223316Y-74139278D02*
X147287168Y-74062317D01*
X151712640Y-74061666D02*
X151643074Y-73989828D01*
X147287168Y-74062317D02*
X147356747Y-73990492D01*
X151643074Y-73989828D02*
X151568192Y-73923550D01*
X147356747Y-73990492D02*
X147431641Y-73924228D01*
X151568192Y-73923550D02*
X151488437Y-73863224D01*
X147431641Y-73924228D02*
X147511407Y-73863917D01*
X151488437Y-73863224D02*
X151404281Y-73809207D01*
X147511407Y-73863917D02*
X147595573Y-73809916D01*
X151404281Y-73809207D02*
X151316222Y-73761819D01*
X147595573Y-73809916D02*
X147683641Y-73762544D01*
X151316222Y-73761819D02*
X151224781Y-73721340D01*
X147683641Y-73762544D02*
X147775090Y-73722082D01*
X151224781Y-73721340D02*
X151130499Y-73688009D01*
X147775090Y-73722082D02*
X147869379Y-73688769D01*
X151130499Y-73688009D02*
X151033934Y-73662024D01*
X147869379Y-73688769D02*
X147965950Y-73662802D01*
X151033934Y-73662024D02*
X150935657Y-73643538D01*
X147965950Y-73662802D02*
X148064231Y-73644335D01*
X150935657Y-73643538D02*
X150836250Y-73632661D01*
X148064231Y-73644335D02*
X148163641Y-73633477D01*
X150836250Y-73632661D02*
X150736301Y-73629457D01*
X148163641Y-73633477D02*
X148263592Y-73630292D01*
X150736301Y-73629457D02*
X148263592Y-73630292D01*
X163043705Y-74879548D02*
X163218911Y-75183013D01*
X163044043Y-71119867D02*
X163268911Y-70730385D01*
X157956294Y-71120452D02*
X157781088Y-70816987D01*
X157955957Y-74880133D02*
X157731089Y-75269615D01*
X157956294Y-71120452D02*
X157963972Y-71220157D01*
X163044043Y-71119867D02*
X163036347Y-71219570D01*
X157963972Y-71220157D02*
X157979291Y-71318977D01*
X163036347Y-71219570D02*
X163021010Y-71318386D01*
X157979291Y-71318977D02*
X158002161Y-71416327D01*
X163021010Y-71318386D02*
X162998123Y-71415731D01*
X158002161Y-71416327D02*
X158032446Y-71511631D01*
X162998123Y-71415731D02*
X162967821Y-71511029D01*
X158032446Y-71511631D02*
X158069967Y-71604325D01*
X162967821Y-71511029D02*
X162930283Y-71603716D01*
X158069967Y-71604325D02*
X158114502Y-71693861D01*
X162930283Y-71603716D02*
X162885732Y-71693243D01*
X158114502Y-71693861D02*
X158165788Y-71779709D01*
X162885732Y-71693243D02*
X162834431Y-71779081D01*
X158165788Y-71779709D02*
X158223521Y-71861361D01*
X162834431Y-71779081D02*
X162776684Y-71860722D01*
X158223521Y-71861361D02*
X158287359Y-71938334D01*
X162776684Y-71860722D02*
X162712832Y-71937683D01*
X158287359Y-71938334D02*
X158356925Y-72010172D01*
X162712832Y-71937683D02*
X162643253Y-72009508D01*
X158356925Y-72010172D02*
X158431807Y-72076450D01*
X162643253Y-72009508D02*
X162568359Y-72075772D01*
X158431807Y-72076450D02*
X158511562Y-72136776D01*
X162568359Y-72075772D02*
X162488593Y-72136083D01*
X158511562Y-72136776D02*
X158595718Y-72190793D01*
X162488593Y-72136083D02*
X162404427Y-72190084D01*
X158595718Y-72190793D02*
X158683777Y-72238181D01*
X162404427Y-72190084D02*
X162316359Y-72237456D01*
X158683777Y-72238181D02*
X158775218Y-72278660D01*
X162316359Y-72237456D02*
X162224910Y-72277918D01*
X158775218Y-72278660D02*
X158869500Y-72311991D01*
X162224910Y-72277918D02*
X162130621Y-72311231D01*
X158869500Y-72311991D02*
X158966065Y-72337976D01*
X162130621Y-72311231D02*
X162034050Y-72337198D01*
X158966065Y-72337976D02*
X159064342Y-72356462D01*
X162034050Y-72337198D02*
X161935769Y-72355665D01*
X159064342Y-72356462D02*
X159163749Y-72367339D01*
X161935769Y-72355665D02*
X161836359Y-72366523D01*
X159163749Y-72367339D02*
X159263698Y-72370543D01*
X161836359Y-72366523D02*
X161736408Y-72369708D01*
X161736408Y-72369708D02*
X159263698Y-72370543D01*
X163043705Y-74879548D02*
X163036027Y-74779843D01*
X157955957Y-74880133D02*
X157963653Y-74780430D01*
X163036027Y-74779843D02*
X163020708Y-74681023D01*
X157963653Y-74780430D02*
X157978990Y-74681614D01*
X163020708Y-74681023D02*
X162997838Y-74583673D01*
X157978990Y-74681614D02*
X158001877Y-74584269D01*
X162997838Y-74583673D02*
X162967553Y-74488369D01*
X158001877Y-74584269D02*
X158032179Y-74488971D01*
X162967553Y-74488369D02*
X162930032Y-74395675D01*
X158032179Y-74488971D02*
X158069717Y-74396284D01*
X162930032Y-74395675D02*
X162885497Y-74306139D01*
X158069717Y-74396284D02*
X158114268Y-74306757D01*
X162885497Y-74306139D02*
X162834211Y-74220291D01*
X158114268Y-74306757D02*
X158165569Y-74220919D01*
X162834211Y-74220291D02*
X162776478Y-74138639D01*
X158165569Y-74220919D02*
X158223316Y-74139278D01*
X162776478Y-74138639D02*
X162712640Y-74061666D01*
X158223316Y-74139278D02*
X158287168Y-74062317D01*
X162712640Y-74061666D02*
X162643074Y-73989828D01*
X158287168Y-74062317D02*
X158356747Y-73990492D01*
X162643074Y-73989828D02*
X162568192Y-73923550D01*
X158356747Y-73990492D02*
X158431641Y-73924228D01*
X162568192Y-73923550D02*
X162488437Y-73863224D01*
X158431641Y-73924228D02*
X158511407Y-73863917D01*
X162488437Y-73863224D02*
X162404281Y-73809207D01*
X158511407Y-73863917D02*
X158595573Y-73809916D01*
X162404281Y-73809207D02*
X162316222Y-73761819D01*
X158595573Y-73809916D02*
X158683641Y-73762544D01*
X162316222Y-73761819D02*
X162224781Y-73721340D01*
X158683641Y-73762544D02*
X158775090Y-73722082D01*
X162224781Y-73721340D02*
X162130499Y-73688009D01*
X158775090Y-73722082D02*
X158869379Y-73688769D01*
X162130499Y-73688009D02*
X162033934Y-73662024D01*
X158869379Y-73688769D02*
X158965950Y-73662802D01*
X162033934Y-73662024D02*
X161935657Y-73643538D01*
X158965950Y-73662802D02*
X159064231Y-73644335D01*
X161935657Y-73643538D02*
X161836250Y-73632661D01*
X159064231Y-73644335D02*
X159163641Y-73633477D01*
X161836250Y-73632661D02*
X161736301Y-73629457D01*
X159163641Y-73633477D02*
X159263592Y-73630292D01*
X161736301Y-73629457D02*
X159263592Y-73630292D01*
X156892193Y-95981187D02*
X157632779Y-95359761D01*
X153107807Y-95981187D02*
X152290617Y-95295483D01*
X153107807Y-100018813D02*
X152367221Y-100640238D01*
X156892193Y-100018813D02*
X157709383Y-100704517D01*
X153107807Y-100018813D02*
X153207511Y-100011126D01*
X153107807Y-95981187D02*
X153207511Y-95988874D01*
X153207511Y-100011126D02*
X153306329Y-99995798D01*
X153207511Y-95988874D02*
X153306329Y-96004202D01*
X153306329Y-99995798D02*
X153403676Y-99972920D01*
X153306329Y-96004202D02*
X153403676Y-96027080D01*
X153403676Y-99972920D02*
X153498976Y-99942627D01*
X153403676Y-96027080D02*
X153498976Y-96057373D01*
X153498976Y-99942627D02*
X153591666Y-99905098D01*
X153498976Y-96057373D02*
X153591666Y-96094902D01*
X153591666Y-99905098D02*
X153681197Y-99860555D01*
X153591666Y-96094902D02*
X153681197Y-96139445D01*
X153681197Y-99860555D02*
X153767039Y-99809262D01*
X153681197Y-96139445D02*
X153767039Y-96190738D01*
X153767039Y-99809262D02*
X153848684Y-99751522D01*
X153767039Y-96190738D02*
X153848684Y-96248478D01*
X153848684Y-99751522D02*
X153925649Y-99687677D01*
X153848684Y-96248478D02*
X153925649Y-96312323D01*
X153925649Y-99687677D02*
X153997479Y-99618105D01*
X153925649Y-96312323D02*
X153997479Y-96381895D01*
X153997479Y-99618105D02*
X154063749Y-99543218D01*
X153997479Y-96381895D02*
X154063749Y-96456782D01*
X154063749Y-99543218D02*
X154124067Y-99463459D01*
X154063749Y-96456782D02*
X154124067Y-96536541D01*
X154124067Y-99463459D02*
X154178076Y-99379300D01*
X154124067Y-96536541D02*
X154178076Y-96620700D01*
X154178076Y-99379300D02*
X154225456Y-99291239D01*
X154178076Y-96620700D02*
X154225456Y-96708761D01*
X154225456Y-99291239D02*
X154265927Y-99199797D01*
X154225456Y-96708761D02*
X154265927Y-96800203D01*
X154265927Y-99199797D02*
X154299249Y-99105515D01*
X154265927Y-96800203D02*
X154299249Y-96894485D01*
X154299249Y-99105515D02*
X154325225Y-99008951D01*
X154299249Y-96894485D02*
X154325225Y-96991049D01*
X154325225Y-99008951D02*
X154343702Y-98910676D01*
X154325225Y-96991049D02*
X154343702Y-97089324D01*
X154343702Y-98910676D02*
X154354570Y-98811271D01*
X154343702Y-97089324D02*
X154354570Y-97188729D01*
X154354570Y-98811271D02*
X154357765Y-98711325D01*
X154354570Y-97188729D02*
X154357765Y-97288675D01*
X154357765Y-97288675D02*
X154357765Y-98711325D01*
X156892193Y-100018813D02*
X156792489Y-100011126D01*
X156892193Y-95981187D02*
X156792489Y-95988874D01*
X156792489Y-100011126D02*
X156693671Y-99995798D01*
X156792489Y-95988874D02*
X156693671Y-96004202D01*
X156693671Y-99995798D02*
X156596324Y-99972920D01*
X156693671Y-96004202D02*
X156596324Y-96027080D01*
X156596324Y-99972920D02*
X156501024Y-99942627D01*
X156596324Y-96027080D02*
X156501024Y-96057373D01*
X156501024Y-99942627D02*
X156408334Y-99905098D01*
X156501024Y-96057373D02*
X156408334Y-96094902D01*
X156408334Y-99905098D02*
X156318803Y-99860555D01*
X156408334Y-96094902D02*
X156318803Y-96139445D01*
X156318803Y-99860555D02*
X156232961Y-99809262D01*
X156318803Y-96139445D02*
X156232961Y-96190738D01*
X156232961Y-99809262D02*
X156151316Y-99751522D01*
X156232961Y-96190738D02*
X156151316Y-96248478D01*
X156151316Y-99751522D02*
X156074351Y-99687677D01*
X156151316Y-96248478D02*
X156074351Y-96312323D01*
X156074351Y-99687677D02*
X156002521Y-99618105D01*
X156074351Y-96312323D02*
X156002521Y-96381895D01*
X156002521Y-99618105D02*
X155936251Y-99543218D01*
X156002521Y-96381895D02*
X155936251Y-96456782D01*
X155936251Y-99543218D02*
X155875933Y-99463459D01*
X155936251Y-96456782D02*
X155875933Y-96536541D01*
X155875933Y-99463459D02*
X155821924Y-99379300D01*
X155875933Y-96536541D02*
X155821924Y-96620700D01*
X155821924Y-99379300D02*
X155774544Y-99291239D01*
X155821924Y-96620700D02*
X155774544Y-96708761D01*
X155774544Y-99291239D02*
X155734073Y-99199797D01*
X155774544Y-96708761D02*
X155734073Y-96800203D01*
X155734073Y-99199797D02*
X155700751Y-99105515D01*
X155734073Y-96800203D02*
X155700751Y-96894485D01*
X155700751Y-99105515D02*
X155674775Y-99008951D01*
X155700751Y-96894485D02*
X155674775Y-96991049D01*
X155674775Y-99008951D02*
X155656298Y-98910676D01*
X155674775Y-96991049D02*
X155656298Y-97089324D01*
X155656298Y-98910676D02*
X155645430Y-98811271D01*
X155656298Y-97089324D02*
X155645430Y-97188729D01*
X155645430Y-98811271D02*
X155642235Y-98711325D01*
X155645430Y-97188729D02*
X155642235Y-97288675D01*
X155642235Y-97288675D02*
X155642235Y-98711325D01*
X156892193Y-85981187D02*
X157632779Y-85359761D01*
X153107807Y-85981187D02*
X152290617Y-85295483D01*
X153107807Y-90018813D02*
X152367221Y-90640238D01*
X156892193Y-90018813D02*
X157709383Y-90704517D01*
X153107807Y-90018813D02*
X153207511Y-90011126D01*
X153107807Y-85981187D02*
X153207511Y-85988874D01*
X153207511Y-90011126D02*
X153306329Y-89995798D01*
X153207511Y-85988874D02*
X153306329Y-86004202D01*
X153306329Y-89995798D02*
X153403676Y-89972920D01*
X153306329Y-86004202D02*
X153403676Y-86027080D01*
X153403676Y-89972920D02*
X153498976Y-89942627D01*
X153403676Y-86027080D02*
X153498976Y-86057373D01*
X153498976Y-89942627D02*
X153591666Y-89905098D01*
X153498976Y-86057373D02*
X153591666Y-86094902D01*
X153591666Y-89905098D02*
X153681197Y-89860555D01*
X153591666Y-86094902D02*
X153681197Y-86139445D01*
X153681197Y-89860555D02*
X153767039Y-89809262D01*
X153681197Y-86139445D02*
X153767039Y-86190738D01*
X153767039Y-89809262D02*
X153848684Y-89751522D01*
X153767039Y-86190738D02*
X153848684Y-86248478D01*
X153848684Y-89751522D02*
X153925649Y-89687677D01*
X153848684Y-86248478D02*
X153925649Y-86312323D01*
X153925649Y-89687677D02*
X153997479Y-89618105D01*
X153925649Y-86312323D02*
X153997479Y-86381895D01*
X153997479Y-89618105D02*
X154063749Y-89543218D01*
X153997479Y-86381895D02*
X154063749Y-86456782D01*
X154063749Y-89543218D02*
X154124067Y-89463459D01*
X154063749Y-86456782D02*
X154124067Y-86536541D01*
X154124067Y-89463459D02*
X154178076Y-89379300D01*
X154124067Y-86536541D02*
X154178076Y-86620700D01*
X154178076Y-89379300D02*
X154225456Y-89291239D01*
X154178076Y-86620700D02*
X154225456Y-86708761D01*
X154225456Y-89291239D02*
X154265927Y-89199797D01*
X154225456Y-86708761D02*
X154265927Y-86800203D01*
X154265927Y-89199797D02*
X154299249Y-89105515D01*
X154265927Y-86800203D02*
X154299249Y-86894485D01*
X154299249Y-89105515D02*
X154325225Y-89008951D01*
X154299249Y-86894485D02*
X154325225Y-86991049D01*
X154325225Y-89008951D02*
X154343702Y-88910676D01*
X154325225Y-86991049D02*
X154343702Y-87089324D01*
X154343702Y-88910676D02*
X154354570Y-88811271D01*
X154343702Y-87089324D02*
X154354570Y-87188729D01*
X154354570Y-88811271D02*
X154357765Y-88711325D01*
X154354570Y-87188729D02*
X154357765Y-87288675D01*
X154357765Y-87288675D02*
X154357765Y-88711325D01*
X156892193Y-90018813D02*
X156792489Y-90011126D01*
X156892193Y-85981187D02*
X156792489Y-85988874D01*
X156792489Y-90011126D02*
X156693671Y-89995798D01*
X156792489Y-85988874D02*
X156693671Y-86004202D01*
X156693671Y-89995798D02*
X156596324Y-89972920D01*
X156693671Y-86004202D02*
X156596324Y-86027080D01*
X156596324Y-89972920D02*
X156501024Y-89942627D01*
X156596324Y-86027080D02*
X156501024Y-86057373D01*
X156501024Y-89942627D02*
X156408334Y-89905098D01*
X156501024Y-86057373D02*
X156408334Y-86094902D01*
X156408334Y-89905098D02*
X156318803Y-89860555D01*
X156408334Y-86094902D02*
X156318803Y-86139445D01*
X156318803Y-89860555D02*
X156232961Y-89809262D01*
X156318803Y-86139445D02*
X156232961Y-86190738D01*
X156232961Y-89809262D02*
X156151316Y-89751522D01*
X156232961Y-86190738D02*
X156151316Y-86248478D01*
X156151316Y-89751522D02*
X156074351Y-89687677D01*
X156151316Y-86248478D02*
X156074351Y-86312323D01*
X156074351Y-89687677D02*
X156002521Y-89618105D01*
X156074351Y-86312323D02*
X156002521Y-86381895D01*
X156002521Y-89618105D02*
X155936251Y-89543218D01*
X156002521Y-86381895D02*
X155936251Y-86456782D01*
X155936251Y-89543218D02*
X155875933Y-89463459D01*
X155936251Y-86456782D02*
X155875933Y-86536541D01*
X155875933Y-89463459D02*
X155821924Y-89379300D01*
X155875933Y-86536541D02*
X155821924Y-86620700D01*
X155821924Y-89379300D02*
X155774544Y-89291239D01*
X155821924Y-86620700D02*
X155774544Y-86708761D01*
X155774544Y-89291239D02*
X155734073Y-89199797D01*
X155774544Y-86708761D02*
X155734073Y-86800203D01*
X155734073Y-89199797D02*
X155700751Y-89105515D01*
X155734073Y-86800203D02*
X155700751Y-86894485D01*
X155700751Y-89105515D02*
X155674775Y-89008951D01*
X155700751Y-86894485D02*
X155674775Y-86991049D01*
X155674775Y-89008951D02*
X155656298Y-88910676D01*
X155674775Y-86991049D02*
X155656298Y-87089324D01*
X155656298Y-88910676D02*
X155645430Y-88811271D01*
X155656298Y-87089324D02*
X155645430Y-87188729D01*
X155645430Y-88811271D02*
X155642235Y-88711325D01*
X155645430Y-87188729D02*
X155642235Y-87288675D01*
X155642235Y-87288675D02*
X155642235Y-88711325D01*
X142107807Y-80018813D02*
X141367221Y-80640238D01*
X145892193Y-80018813D02*
X146709383Y-80704517D01*
X145892193Y-75981187D02*
X146632779Y-75359761D01*
X142107807Y-75981187D02*
X141290617Y-75295483D01*
X145892193Y-75981187D02*
X145792489Y-75988874D01*
X145892193Y-80018813D02*
X145792489Y-80011126D01*
X145792489Y-75988874D02*
X145693671Y-76004202D01*
X145792489Y-80011126D02*
X145693671Y-79995798D01*
X145693671Y-76004202D02*
X145596324Y-76027080D01*
X145693671Y-79995798D02*
X145596324Y-79972920D01*
X145596324Y-76027080D02*
X145501024Y-76057373D01*
X145596324Y-79972920D02*
X145501024Y-79942627D01*
X145501024Y-76057373D02*
X145408334Y-76094902D01*
X145501024Y-79942627D02*
X145408334Y-79905098D01*
X145408334Y-76094902D02*
X145318803Y-76139445D01*
X145408334Y-79905098D02*
X145318803Y-79860555D01*
X145318803Y-76139445D02*
X145232961Y-76190738D01*
X145318803Y-79860555D02*
X145232961Y-79809262D01*
X145232961Y-76190738D02*
X145151316Y-76248478D01*
X145232961Y-79809262D02*
X145151316Y-79751522D01*
X145151316Y-76248478D02*
X145074351Y-76312323D01*
X145151316Y-79751522D02*
X145074351Y-79687677D01*
X145074351Y-76312323D02*
X145002521Y-76381895D01*
X145074351Y-79687677D02*
X145002521Y-79618105D01*
X145002521Y-76381895D02*
X144936251Y-76456782D01*
X145002521Y-79618105D02*
X144936251Y-79543218D01*
X144936251Y-76456782D02*
X144875933Y-76536541D01*
X144936251Y-79543218D02*
X144875933Y-79463459D01*
X144875933Y-76536541D02*
X144821924Y-76620700D01*
X144875933Y-79463459D02*
X144821924Y-79379300D01*
X144821924Y-76620700D02*
X144774544Y-76708761D01*
X144821924Y-79379300D02*
X144774544Y-79291239D01*
X144774544Y-76708761D02*
X144734073Y-76800203D01*
X144774544Y-79291239D02*
X144734073Y-79199797D01*
X144734073Y-76800203D02*
X144700751Y-76894485D01*
X144734073Y-79199797D02*
X144700751Y-79105515D01*
X144700751Y-76894485D02*
X144674775Y-76991049D01*
X144700751Y-79105515D02*
X144674775Y-79008951D01*
X144674775Y-76991049D02*
X144656298Y-77089324D01*
X144674775Y-79008951D02*
X144656298Y-78910676D01*
X144656298Y-77089324D02*
X144645430Y-77188729D01*
X144656298Y-78910676D02*
X144645430Y-78811271D01*
X144645430Y-77188729D02*
X144642235Y-77288675D01*
X144645430Y-78811271D02*
X144642235Y-78711325D01*
X144642235Y-78711325D02*
X144642235Y-77288675D01*
X142107807Y-75981187D02*
X142207511Y-75988874D01*
X142107807Y-80018813D02*
X142207511Y-80011126D01*
X142207511Y-75988874D02*
X142306329Y-76004202D01*
X142207511Y-80011126D02*
X142306329Y-79995798D01*
X142306329Y-76004202D02*
X142403676Y-76027080D01*
X142306329Y-79995798D02*
X142403676Y-79972920D01*
X142403676Y-76027080D02*
X142498976Y-76057373D01*
X142403676Y-79972920D02*
X142498976Y-79942627D01*
X142498976Y-76057373D02*
X142591666Y-76094902D01*
X142498976Y-79942627D02*
X142591666Y-79905098D01*
X142591666Y-76094902D02*
X142681197Y-76139445D01*
X142591666Y-79905098D02*
X142681197Y-79860555D01*
X142681197Y-76139445D02*
X142767039Y-76190738D01*
X142681197Y-79860555D02*
X142767039Y-79809262D01*
X142767039Y-76190738D02*
X142848684Y-76248478D01*
X142767039Y-79809262D02*
X142848684Y-79751522D01*
X142848684Y-76248478D02*
X142925649Y-76312323D01*
X142848684Y-79751522D02*
X142925649Y-79687677D01*
X142925649Y-76312323D02*
X142997479Y-76381895D01*
X142925649Y-79687677D02*
X142997479Y-79618105D01*
X142997479Y-76381895D02*
X143063749Y-76456782D01*
X142997479Y-79618105D02*
X143063749Y-79543218D01*
X143063749Y-76456782D02*
X143124067Y-76536541D01*
X143063749Y-79543218D02*
X143124067Y-79463459D01*
X143124067Y-76536541D02*
X143178076Y-76620700D01*
X143124067Y-79463459D02*
X143178076Y-79379300D01*
X143178076Y-76620700D02*
X143225456Y-76708761D01*
X143178076Y-79379300D02*
X143225456Y-79291239D01*
X143225456Y-76708761D02*
X143265927Y-76800203D01*
X143225456Y-79291239D02*
X143265927Y-79199797D01*
X143265927Y-76800203D02*
X143299249Y-76894485D01*
X143265927Y-79199797D02*
X143299249Y-79105515D01*
X143299249Y-76894485D02*
X143325225Y-76991049D01*
X143299249Y-79105515D02*
X143325225Y-79008951D01*
X143325225Y-76991049D02*
X143343702Y-77089324D01*
X143325225Y-79008951D02*
X143343702Y-78910676D01*
X143343702Y-77089324D02*
X143354570Y-77188729D01*
X143343702Y-78910676D02*
X143354570Y-78811271D01*
X143354570Y-77188729D02*
X143357765Y-77288675D01*
X143354570Y-78811271D02*
X143357765Y-78711325D01*
X143357765Y-78711325D02*
X143357765Y-77288675D01*
X156892193Y-75981187D02*
X157632779Y-75359761D01*
X153107807Y-75981187D02*
X152290617Y-75295483D01*
X153107807Y-80018813D02*
X152367221Y-80640238D01*
X156892193Y-80018813D02*
X157709383Y-80704517D01*
X153107807Y-80018813D02*
X153207511Y-80011126D01*
X153107807Y-75981187D02*
X153207511Y-75988874D01*
X153207511Y-80011126D02*
X153306329Y-79995798D01*
X153207511Y-75988874D02*
X153306329Y-76004202D01*
X153306329Y-79995798D02*
X153403676Y-79972920D01*
X153306329Y-76004202D02*
X153403676Y-76027080D01*
X153403676Y-79972920D02*
X153498976Y-79942627D01*
X153403676Y-76027080D02*
X153498976Y-76057373D01*
X153498976Y-79942627D02*
X153591666Y-79905098D01*
X153498976Y-76057373D02*
X153591666Y-76094902D01*
X153591666Y-79905098D02*
X153681197Y-79860555D01*
X153591666Y-76094902D02*
X153681197Y-76139445D01*
X153681197Y-79860555D02*
X153767039Y-79809262D01*
X153681197Y-76139445D02*
X153767039Y-76190738D01*
X153767039Y-79809262D02*
X153848684Y-79751522D01*
X153767039Y-76190738D02*
X153848684Y-76248478D01*
X153848684Y-79751522D02*
X153925649Y-79687677D01*
X153848684Y-76248478D02*
X153925649Y-76312323D01*
X153925649Y-79687677D02*
X153997479Y-79618105D01*
X153925649Y-76312323D02*
X153997479Y-76381895D01*
X153997479Y-79618105D02*
X154063749Y-79543218D01*
X153997479Y-76381895D02*
X154063749Y-76456782D01*
X154063749Y-79543218D02*
X154124067Y-79463459D01*
X154063749Y-76456782D02*
X154124067Y-76536541D01*
X154124067Y-79463459D02*
X154178076Y-79379300D01*
X154124067Y-76536541D02*
X154178076Y-76620700D01*
X154178076Y-79379300D02*
X154225456Y-79291239D01*
X154178076Y-76620700D02*
X154225456Y-76708761D01*
X154225456Y-79291239D02*
X154265927Y-79199797D01*
X154225456Y-76708761D02*
X154265927Y-76800203D01*
X154265927Y-79199797D02*
X154299249Y-79105515D01*
X154265927Y-76800203D02*
X154299249Y-76894485D01*
X154299249Y-79105515D02*
X154325225Y-79008951D01*
X154299249Y-76894485D02*
X154325225Y-76991049D01*
X154325225Y-79008951D02*
X154343702Y-78910676D01*
X154325225Y-76991049D02*
X154343702Y-77089324D01*
X154343702Y-78910676D02*
X154354570Y-78811271D01*
X154343702Y-77089324D02*
X154354570Y-77188729D01*
X154354570Y-78811271D02*
X154357765Y-78711325D01*
X154354570Y-77188729D02*
X154357765Y-77288675D01*
X154357765Y-77288675D02*
X154357765Y-78711325D01*
X156892193Y-80018813D02*
X156792489Y-80011126D01*
X156892193Y-75981187D02*
X156792489Y-75988874D01*
X156792489Y-80011126D02*
X156693671Y-79995798D01*
X156792489Y-75988874D02*
X156693671Y-76004202D01*
X156693671Y-79995798D02*
X156596324Y-79972920D01*
X156693671Y-76004202D02*
X156596324Y-76027080D01*
X156596324Y-79972920D02*
X156501024Y-79942627D01*
X156596324Y-76027080D02*
X156501024Y-76057373D01*
X156501024Y-79942627D02*
X156408334Y-79905098D01*
X156501024Y-76057373D02*
X156408334Y-76094902D01*
X156408334Y-79905098D02*
X156318803Y-79860555D01*
X156408334Y-76094902D02*
X156318803Y-76139445D01*
X156318803Y-79860555D02*
X156232961Y-79809262D01*
X156318803Y-76139445D02*
X156232961Y-76190738D01*
X156232961Y-79809262D02*
X156151316Y-79751522D01*
X156232961Y-76190738D02*
X156151316Y-76248478D01*
X156151316Y-79751522D02*
X156074351Y-79687677D01*
X156151316Y-76248478D02*
X156074351Y-76312323D01*
X156074351Y-79687677D02*
X156002521Y-79618105D01*
X156074351Y-76312323D02*
X156002521Y-76381895D01*
X156002521Y-79618105D02*
X155936251Y-79543218D01*
X156002521Y-76381895D02*
X155936251Y-76456782D01*
X155936251Y-79543218D02*
X155875933Y-79463459D01*
X155936251Y-76456782D02*
X155875933Y-76536541D01*
X155875933Y-79463459D02*
X155821924Y-79379300D01*
X155875933Y-76536541D02*
X155821924Y-76620700D01*
X155821924Y-79379300D02*
X155774544Y-79291239D01*
X155821924Y-76620700D02*
X155774544Y-76708761D01*
X155774544Y-79291239D02*
X155734073Y-79199797D01*
X155774544Y-76708761D02*
X155734073Y-76800203D01*
X155734073Y-79199797D02*
X155700751Y-79105515D01*
X155734073Y-76800203D02*
X155700751Y-76894485D01*
X155700751Y-79105515D02*
X155674775Y-79008951D01*
X155700751Y-76894485D02*
X155674775Y-76991049D01*
X155674775Y-79008951D02*
X155656298Y-78910676D01*
X155674775Y-76991049D02*
X155656298Y-77089324D01*
X155656298Y-78910676D02*
X155645430Y-78811271D01*
X155656298Y-77089324D02*
X155645430Y-77188729D01*
X155645430Y-78811271D02*
X155642235Y-78711325D01*
X155645430Y-77188729D02*
X155642235Y-77288675D01*
X155642235Y-77288675D02*
X155642235Y-78711325D01*
X167892193Y-75981187D02*
X168632779Y-75359761D01*
X164107807Y-75981187D02*
X163290617Y-75295483D01*
X164107807Y-80018813D02*
X163367221Y-80640238D01*
X167892193Y-80018813D02*
X168709383Y-80704517D01*
X164107807Y-80018813D02*
X164207511Y-80011126D01*
X164107807Y-75981187D02*
X164207511Y-75988874D01*
X164207511Y-80011126D02*
X164306329Y-79995798D01*
X164207511Y-75988874D02*
X164306329Y-76004202D01*
X164306329Y-79995798D02*
X164403676Y-79972920D01*
X164306329Y-76004202D02*
X164403676Y-76027080D01*
X164403676Y-79972920D02*
X164498976Y-79942627D01*
X164403676Y-76027080D02*
X164498976Y-76057373D01*
X164498976Y-79942627D02*
X164591666Y-79905098D01*
X164498976Y-76057373D02*
X164591666Y-76094902D01*
X164591666Y-79905098D02*
X164681197Y-79860555D01*
X164591666Y-76094902D02*
X164681197Y-76139445D01*
X164681197Y-79860555D02*
X164767039Y-79809262D01*
X164681197Y-76139445D02*
X164767039Y-76190738D01*
X164767039Y-79809262D02*
X164848684Y-79751522D01*
X164767039Y-76190738D02*
X164848684Y-76248478D01*
X164848684Y-79751522D02*
X164925649Y-79687677D01*
X164848684Y-76248478D02*
X164925649Y-76312323D01*
X164925649Y-79687677D02*
X164997479Y-79618105D01*
X164925649Y-76312323D02*
X164997479Y-76381895D01*
X164997479Y-79618105D02*
X165063749Y-79543218D01*
X164997479Y-76381895D02*
X165063749Y-76456782D01*
X165063749Y-79543218D02*
X165124067Y-79463459D01*
X165063749Y-76456782D02*
X165124067Y-76536541D01*
X165124067Y-79463459D02*
X165178076Y-79379300D01*
X165124067Y-76536541D02*
X165178076Y-76620700D01*
X165178076Y-79379300D02*
X165225456Y-79291239D01*
X165178076Y-76620700D02*
X165225456Y-76708761D01*
X165225456Y-79291239D02*
X165265927Y-79199797D01*
X165225456Y-76708761D02*
X165265927Y-76800203D01*
X165265927Y-79199797D02*
X165299249Y-79105515D01*
X165265927Y-76800203D02*
X165299249Y-76894485D01*
X165299249Y-79105515D02*
X165325225Y-79008951D01*
X165299249Y-76894485D02*
X165325225Y-76991049D01*
X165325225Y-79008951D02*
X165343702Y-78910676D01*
X165325225Y-76991049D02*
X165343702Y-77089324D01*
X165343702Y-78910676D02*
X165354570Y-78811271D01*
X165343702Y-77089324D02*
X165354570Y-77188729D01*
X165354570Y-78811271D02*
X165357765Y-78711325D01*
X165354570Y-77188729D02*
X165357765Y-77288675D01*
X165357765Y-77288675D02*
X165357765Y-78711325D01*
X167892193Y-80018813D02*
X167792489Y-80011126D01*
X167892193Y-75981187D02*
X167792489Y-75988874D01*
X167792489Y-80011126D02*
X167693671Y-79995798D01*
X167792489Y-75988874D02*
X167693671Y-76004202D01*
X167693671Y-79995798D02*
X167596324Y-79972920D01*
X167693671Y-76004202D02*
X167596324Y-76027080D01*
X167596324Y-79972920D02*
X167501024Y-79942627D01*
X167596324Y-76027080D02*
X167501024Y-76057373D01*
X167501024Y-79942627D02*
X167408334Y-79905098D01*
X167501024Y-76057373D02*
X167408334Y-76094902D01*
X167408334Y-79905098D02*
X167318803Y-79860555D01*
X167408334Y-76094902D02*
X167318803Y-76139445D01*
X167318803Y-79860555D02*
X167232961Y-79809262D01*
X167318803Y-76139445D02*
X167232961Y-76190738D01*
X167232961Y-79809262D02*
X167151316Y-79751522D01*
X167232961Y-76190738D02*
X167151316Y-76248478D01*
X167151316Y-79751522D02*
X167074351Y-79687677D01*
X167151316Y-76248478D02*
X167074351Y-76312323D01*
X167074351Y-79687677D02*
X167002521Y-79618105D01*
X167074351Y-76312323D02*
X167002521Y-76381895D01*
X167002521Y-79618105D02*
X166936251Y-79543218D01*
X167002521Y-76381895D02*
X166936251Y-76456782D01*
X166936251Y-79543218D02*
X166875933Y-79463459D01*
X166936251Y-76456782D02*
X166875933Y-76536541D01*
X166875933Y-79463459D02*
X166821924Y-79379300D01*
X166875933Y-76536541D02*
X166821924Y-76620700D01*
X166821924Y-79379300D02*
X166774544Y-79291239D01*
X166821924Y-76620700D02*
X166774544Y-76708761D01*
X166774544Y-79291239D02*
X166734073Y-79199797D01*
X166774544Y-76708761D02*
X166734073Y-76800203D01*
X166734073Y-79199797D02*
X166700751Y-79105515D01*
X166734073Y-76800203D02*
X166700751Y-76894485D01*
X166700751Y-79105515D02*
X166674775Y-79008951D01*
X166700751Y-76894485D02*
X166674775Y-76991049D01*
X166674775Y-79008951D02*
X166656298Y-78910676D01*
X166674775Y-76991049D02*
X166656298Y-77089324D01*
X166656298Y-78910676D02*
X166645430Y-78811271D01*
X166656298Y-77089324D02*
X166645430Y-77188729D01*
X166645430Y-78811271D02*
X166642235Y-78711325D01*
X166645430Y-77188729D02*
X166642235Y-77288675D01*
X166642235Y-77288675D02*
X166642235Y-78711325D01*
X167892193Y-85981187D02*
X168632779Y-85359761D01*
X164107807Y-85981187D02*
X163290617Y-85295483D01*
X164107807Y-90018813D02*
X163367221Y-90640238D01*
X167892193Y-90018813D02*
X168709383Y-90704517D01*
X164107807Y-90018813D02*
X164207511Y-90011126D01*
X164107807Y-85981187D02*
X164207511Y-85988874D01*
X164207511Y-90011126D02*
X164306329Y-89995798D01*
X164207511Y-85988874D02*
X164306329Y-86004202D01*
X164306329Y-89995798D02*
X164403676Y-89972920D01*
X164306329Y-86004202D02*
X164403676Y-86027080D01*
X164403676Y-89972920D02*
X164498976Y-89942627D01*
X164403676Y-86027080D02*
X164498976Y-86057373D01*
X164498976Y-89942627D02*
X164591666Y-89905098D01*
X164498976Y-86057373D02*
X164591666Y-86094902D01*
X164591666Y-89905098D02*
X164681197Y-89860555D01*
X164591666Y-86094902D02*
X164681197Y-86139445D01*
X164681197Y-89860555D02*
X164767039Y-89809262D01*
X164681197Y-86139445D02*
X164767039Y-86190738D01*
X164767039Y-89809262D02*
X164848684Y-89751522D01*
X164767039Y-86190738D02*
X164848684Y-86248478D01*
X164848684Y-89751522D02*
X164925649Y-89687677D01*
X164848684Y-86248478D02*
X164925649Y-86312323D01*
X164925649Y-89687677D02*
X164997479Y-89618105D01*
X164925649Y-86312323D02*
X164997479Y-86381895D01*
X164997479Y-89618105D02*
X165063749Y-89543218D01*
X164997479Y-86381895D02*
X165063749Y-86456782D01*
X165063749Y-89543218D02*
X165124067Y-89463459D01*
X165063749Y-86456782D02*
X165124067Y-86536541D01*
X165124067Y-89463459D02*
X165178076Y-89379300D01*
X165124067Y-86536541D02*
X165178076Y-86620700D01*
X165178076Y-89379300D02*
X165225456Y-89291239D01*
X165178076Y-86620700D02*
X165225456Y-86708761D01*
X165225456Y-89291239D02*
X165265927Y-89199797D01*
X165225456Y-86708761D02*
X165265927Y-86800203D01*
X165265927Y-89199797D02*
X165299249Y-89105515D01*
X165265927Y-86800203D02*
X165299249Y-86894485D01*
X165299249Y-89105515D02*
X165325225Y-89008951D01*
X165299249Y-86894485D02*
X165325225Y-86991049D01*
X165325225Y-89008951D02*
X165343702Y-88910676D01*
X165325225Y-86991049D02*
X165343702Y-87089324D01*
X165343702Y-88910676D02*
X165354570Y-88811271D01*
X165343702Y-87089324D02*
X165354570Y-87188729D01*
X165354570Y-88811271D02*
X165357765Y-88711325D01*
X165354570Y-87188729D02*
X165357765Y-87288675D01*
X165357765Y-87288675D02*
X165357765Y-88711325D01*
X167892193Y-90018813D02*
X167792489Y-90011126D01*
X167892193Y-85981187D02*
X167792489Y-85988874D01*
X167792489Y-90011126D02*
X167693671Y-89995798D01*
X167792489Y-85988874D02*
X167693671Y-86004202D01*
X167693671Y-89995798D02*
X167596324Y-89972920D01*
X167693671Y-86004202D02*
X167596324Y-86027080D01*
X167596324Y-89972920D02*
X167501024Y-89942627D01*
X167596324Y-86027080D02*
X167501024Y-86057373D01*
X167501024Y-89942627D02*
X167408334Y-89905098D01*
X167501024Y-86057373D02*
X167408334Y-86094902D01*
X167408334Y-89905098D02*
X167318803Y-89860555D01*
X167408334Y-86094902D02*
X167318803Y-86139445D01*
X167318803Y-89860555D02*
X167232961Y-89809262D01*
X167318803Y-86139445D02*
X167232961Y-86190738D01*
X167232961Y-89809262D02*
X167151316Y-89751522D01*
X167232961Y-86190738D02*
X167151316Y-86248478D01*
X167151316Y-89751522D02*
X167074351Y-89687677D01*
X167151316Y-86248478D02*
X167074351Y-86312323D01*
X167074351Y-89687677D02*
X167002521Y-89618105D01*
X167074351Y-86312323D02*
X167002521Y-86381895D01*
X167002521Y-89618105D02*
X166936251Y-89543218D01*
X167002521Y-86381895D02*
X166936251Y-86456782D01*
X166936251Y-89543218D02*
X166875933Y-89463459D01*
X166936251Y-86456782D02*
X166875933Y-86536541D01*
X166875933Y-89463459D02*
X166821924Y-89379300D01*
X166875933Y-86536541D02*
X166821924Y-86620700D01*
X166821924Y-89379300D02*
X166774544Y-89291239D01*
X166821924Y-86620700D02*
X166774544Y-86708761D01*
X166774544Y-89291239D02*
X166734073Y-89199797D01*
X166774544Y-86708761D02*
X166734073Y-86800203D01*
X166734073Y-89199797D02*
X166700751Y-89105515D01*
X166734073Y-86800203D02*
X166700751Y-86894485D01*
X166700751Y-89105515D02*
X166674775Y-89008951D01*
X166700751Y-86894485D02*
X166674775Y-86991049D01*
X166674775Y-89008951D02*
X166656298Y-88910676D01*
X166674775Y-86991049D02*
X166656298Y-87089324D01*
X166656298Y-88910676D02*
X166645430Y-88811271D01*
X166656298Y-87089324D02*
X166645430Y-87188729D01*
X166645430Y-88811271D02*
X166642235Y-88711325D01*
X166645430Y-87188729D02*
X166642235Y-87288675D01*
X166642235Y-87288675D02*
X166642235Y-88711325D01*
X145892193Y-95981187D02*
X146632779Y-95359761D01*
X142107807Y-95981187D02*
X141290617Y-95295483D01*
X142107807Y-100018813D02*
X141367221Y-100640238D01*
X145892193Y-100018813D02*
X146709383Y-100704517D01*
X142107807Y-100018813D02*
X142207511Y-100011126D01*
X142107807Y-95981187D02*
X142207511Y-95988874D01*
X142207511Y-100011126D02*
X142306329Y-99995798D01*
X142207511Y-95988874D02*
X142306329Y-96004202D01*
X142306329Y-99995798D02*
X142403676Y-99972920D01*
X142306329Y-96004202D02*
X142403676Y-96027080D01*
X142403676Y-99972920D02*
X142498976Y-99942627D01*
X142403676Y-96027080D02*
X142498976Y-96057373D01*
X142498976Y-99942627D02*
X142591666Y-99905098D01*
X142498976Y-96057373D02*
X142591666Y-96094902D01*
X142591666Y-99905098D02*
X142681197Y-99860555D01*
X142591666Y-96094902D02*
X142681197Y-96139445D01*
X142681197Y-99860555D02*
X142767039Y-99809262D01*
X142681197Y-96139445D02*
X142767039Y-96190738D01*
X142767039Y-99809262D02*
X142848684Y-99751522D01*
X142767039Y-96190738D02*
X142848684Y-96248478D01*
X142848684Y-99751522D02*
X142925649Y-99687677D01*
X142848684Y-96248478D02*
X142925649Y-96312323D01*
X142925649Y-99687677D02*
X142997479Y-99618105D01*
X142925649Y-96312323D02*
X142997479Y-96381895D01*
X142997479Y-99618105D02*
X143063749Y-99543218D01*
X142997479Y-96381895D02*
X143063749Y-96456782D01*
X143063749Y-99543218D02*
X143124067Y-99463459D01*
X143063749Y-96456782D02*
X143124067Y-96536541D01*
X143124067Y-99463459D02*
X143178076Y-99379300D01*
X143124067Y-96536541D02*
X143178076Y-96620700D01*
X143178076Y-99379300D02*
X143225456Y-99291239D01*
X143178076Y-96620700D02*
X143225456Y-96708761D01*
X143225456Y-99291239D02*
X143265927Y-99199797D01*
X143225456Y-96708761D02*
X143265927Y-96800203D01*
X143265927Y-99199797D02*
X143299249Y-99105515D01*
X143265927Y-96800203D02*
X143299249Y-96894485D01*
X143299249Y-99105515D02*
X143325225Y-99008951D01*
X143299249Y-96894485D02*
X143325225Y-96991049D01*
X143325225Y-99008951D02*
X143343702Y-98910676D01*
X143325225Y-96991049D02*
X143343702Y-97089324D01*
X143343702Y-98910676D02*
X143354570Y-98811271D01*
X143343702Y-97089324D02*
X143354570Y-97188729D01*
X143354570Y-98811271D02*
X143357765Y-98711325D01*
X143354570Y-97188729D02*
X143357765Y-97288675D01*
X143357765Y-97288675D02*
X143357765Y-98711325D01*
X145892193Y-100018813D02*
X145792489Y-100011126D01*
X145892193Y-95981187D02*
X145792489Y-95988874D01*
X145792489Y-100011126D02*
X145693671Y-99995798D01*
X145792489Y-95988874D02*
X145693671Y-96004202D01*
X145693671Y-99995798D02*
X145596324Y-99972920D01*
X145693671Y-96004202D02*
X145596324Y-96027080D01*
X145596324Y-99972920D02*
X145501024Y-99942627D01*
X145596324Y-96027080D02*
X145501024Y-96057373D01*
X145501024Y-99942627D02*
X145408334Y-99905098D01*
X145501024Y-96057373D02*
X145408334Y-96094902D01*
X145408334Y-99905098D02*
X145318803Y-99860555D01*
X145408334Y-96094902D02*
X145318803Y-96139445D01*
X145318803Y-99860555D02*
X145232961Y-99809262D01*
X145318803Y-96139445D02*
X145232961Y-96190738D01*
X145232961Y-99809262D02*
X145151316Y-99751522D01*
X145232961Y-96190738D02*
X145151316Y-96248478D01*
X145151316Y-99751522D02*
X145074351Y-99687677D01*
X145151316Y-96248478D02*
X145074351Y-96312323D01*
X145074351Y-99687677D02*
X145002521Y-99618105D01*
X145074351Y-96312323D02*
X145002521Y-96381895D01*
X145002521Y-99618105D02*
X144936251Y-99543218D01*
X145002521Y-96381895D02*
X144936251Y-96456782D01*
X144936251Y-99543218D02*
X144875933Y-99463459D01*
X144936251Y-96456782D02*
X144875933Y-96536541D01*
X144875933Y-99463459D02*
X144821924Y-99379300D01*
X144875933Y-96536541D02*
X144821924Y-96620700D01*
X144821924Y-99379300D02*
X144774544Y-99291239D01*
X144821924Y-96620700D02*
X144774544Y-96708761D01*
X144774544Y-99291239D02*
X144734073Y-99199797D01*
X144774544Y-96708761D02*
X144734073Y-96800203D01*
X144734073Y-99199797D02*
X144700751Y-99105515D01*
X144734073Y-96800203D02*
X144700751Y-96894485D01*
X144700751Y-99105515D02*
X144674775Y-99008951D01*
X144700751Y-96894485D02*
X144674775Y-96991049D01*
X144674775Y-99008951D02*
X144656298Y-98910676D01*
X144674775Y-96991049D02*
X144656298Y-97089324D01*
X144656298Y-98910676D02*
X144645430Y-98811271D01*
X144656298Y-97089324D02*
X144645430Y-97188729D01*
X144645430Y-98811271D02*
X144642235Y-98711325D01*
X144645430Y-97188729D02*
X144642235Y-97288675D01*
X144642235Y-97288675D02*
X144642235Y-98711325D01*
X167892193Y-95981187D02*
X168632779Y-95359761D01*
X164107807Y-95981187D02*
X163290617Y-95295483D01*
X164107807Y-100018813D02*
X163367221Y-100640238D01*
X167892193Y-100018813D02*
X168709383Y-100704517D01*
X164107807Y-100018813D02*
X164207511Y-100011126D01*
X164107807Y-95981187D02*
X164207511Y-95988874D01*
X164207511Y-100011126D02*
X164306329Y-99995798D01*
X164207511Y-95988874D02*
X164306329Y-96004202D01*
X164306329Y-99995798D02*
X164403676Y-99972920D01*
X164306329Y-96004202D02*
X164403676Y-96027080D01*
X164403676Y-99972920D02*
X164498976Y-99942627D01*
X164403676Y-96027080D02*
X164498976Y-96057373D01*
X164498976Y-99942627D02*
X164591666Y-99905098D01*
X164498976Y-96057373D02*
X164591666Y-96094902D01*
X164591666Y-99905098D02*
X164681197Y-99860555D01*
X164591666Y-96094902D02*
X164681197Y-96139445D01*
X164681197Y-99860555D02*
X164767039Y-99809262D01*
X164681197Y-96139445D02*
X164767039Y-96190738D01*
X164767039Y-99809262D02*
X164848684Y-99751522D01*
X164767039Y-96190738D02*
X164848684Y-96248478D01*
X164848684Y-99751522D02*
X164925649Y-99687677D01*
X164848684Y-96248478D02*
X164925649Y-96312323D01*
X164925649Y-99687677D02*
X164997479Y-99618105D01*
X164925649Y-96312323D02*
X164997479Y-96381895D01*
X164997479Y-99618105D02*
X165063749Y-99543218D01*
X164997479Y-96381895D02*
X165063749Y-96456782D01*
X165063749Y-99543218D02*
X165124067Y-99463459D01*
X165063749Y-96456782D02*
X165124067Y-96536541D01*
X165124067Y-99463459D02*
X165178076Y-99379300D01*
X165124067Y-96536541D02*
X165178076Y-96620700D01*
X165178076Y-99379300D02*
X165225456Y-99291239D01*
X165178076Y-96620700D02*
X165225456Y-96708761D01*
X165225456Y-99291239D02*
X165265927Y-99199797D01*
X165225456Y-96708761D02*
X165265927Y-96800203D01*
X165265927Y-99199797D02*
X165299249Y-99105515D01*
X165265927Y-96800203D02*
X165299249Y-96894485D01*
X165299249Y-99105515D02*
X165325225Y-99008951D01*
X165299249Y-96894485D02*
X165325225Y-96991049D01*
X165325225Y-99008951D02*
X165343702Y-98910676D01*
X165325225Y-96991049D02*
X165343702Y-97089324D01*
X165343702Y-98910676D02*
X165354570Y-98811271D01*
X165343702Y-97089324D02*
X165354570Y-97188729D01*
X165354570Y-98811271D02*
X165357765Y-98711325D01*
X165354570Y-97188729D02*
X165357765Y-97288675D01*
X165357765Y-97288675D02*
X165357765Y-98711325D01*
X167892193Y-100018813D02*
X167792489Y-100011126D01*
X167892193Y-95981187D02*
X167792489Y-95988874D01*
X167792489Y-100011126D02*
X167693671Y-99995798D01*
X167792489Y-95988874D02*
X167693671Y-96004202D01*
X167693671Y-99995798D02*
X167596324Y-99972920D01*
X167693671Y-96004202D02*
X167596324Y-96027080D01*
X167596324Y-99972920D02*
X167501024Y-99942627D01*
X167596324Y-96027080D02*
X167501024Y-96057373D01*
X167501024Y-99942627D02*
X167408334Y-99905098D01*
X167501024Y-96057373D02*
X167408334Y-96094902D01*
X167408334Y-99905098D02*
X167318803Y-99860555D01*
X167408334Y-96094902D02*
X167318803Y-96139445D01*
X167318803Y-99860555D02*
X167232961Y-99809262D01*
X167318803Y-96139445D02*
X167232961Y-96190738D01*
X167232961Y-99809262D02*
X167151316Y-99751522D01*
X167232961Y-96190738D02*
X167151316Y-96248478D01*
X167151316Y-99751522D02*
X167074351Y-99687677D01*
X167151316Y-96248478D02*
X167074351Y-96312323D01*
X167074351Y-99687677D02*
X167002521Y-99618105D01*
X167074351Y-96312323D02*
X167002521Y-96381895D01*
X167002521Y-99618105D02*
X166936251Y-99543218D01*
X167002521Y-96381895D02*
X166936251Y-96456782D01*
X166936251Y-99543218D02*
X166875933Y-99463459D01*
X166936251Y-96456782D02*
X166875933Y-96536541D01*
X166875933Y-99463459D02*
X166821924Y-99379300D01*
X166875933Y-96536541D02*
X166821924Y-96620700D01*
X166821924Y-99379300D02*
X166774544Y-99291239D01*
X166821924Y-96620700D02*
X166774544Y-96708761D01*
X166774544Y-99291239D02*
X166734073Y-99199797D01*
X166774544Y-96708761D02*
X166734073Y-96800203D01*
X166734073Y-99199797D02*
X166700751Y-99105515D01*
X166734073Y-96800203D02*
X166700751Y-96894485D01*
X166700751Y-99105515D02*
X166674775Y-99008951D01*
X166700751Y-96894485D02*
X166674775Y-96991049D01*
X166674775Y-99008951D02*
X166656298Y-98910676D01*
X166674775Y-96991049D02*
X166656298Y-97089324D01*
X166656298Y-98910676D02*
X166645430Y-98811271D01*
X166656298Y-97089324D02*
X166645430Y-97188729D01*
X166645430Y-98811271D02*
X166642235Y-98711325D01*
X166645430Y-97188729D02*
X166642235Y-97288675D01*
X166642235Y-97288675D02*
X166642235Y-98711325D01*
X152043705Y-104879548D02*
X152218911Y-105183013D01*
X152044043Y-101119867D02*
X152268911Y-100730385D01*
X146956294Y-101120452D02*
X146781088Y-100816987D01*
X146955957Y-104880133D02*
X146731089Y-105269615D01*
X146956294Y-101120452D02*
X146963972Y-101220157D01*
X152044043Y-101119867D02*
X152036347Y-101219570D01*
X146963972Y-101220157D02*
X146979291Y-101318977D01*
X152036347Y-101219570D02*
X152021010Y-101318386D01*
X146979291Y-101318977D02*
X147002161Y-101416327D01*
X152021010Y-101318386D02*
X151998123Y-101415731D01*
X147002161Y-101416327D02*
X147032446Y-101511631D01*
X151998123Y-101415731D02*
X151967821Y-101511029D01*
X147032446Y-101511631D02*
X147069967Y-101604325D01*
X151967821Y-101511029D02*
X151930283Y-101603716D01*
X147069967Y-101604325D02*
X147114502Y-101693861D01*
X151930283Y-101603716D02*
X151885732Y-101693243D01*
X147114502Y-101693861D02*
X147165788Y-101779709D01*
X151885732Y-101693243D02*
X151834431Y-101779081D01*
X147165788Y-101779709D02*
X147223521Y-101861361D01*
X151834431Y-101779081D02*
X151776684Y-101860722D01*
X147223521Y-101861361D02*
X147287359Y-101938334D01*
X151776684Y-101860722D02*
X151712832Y-101937683D01*
X147287359Y-101938334D02*
X147356925Y-102010172D01*
X151712832Y-101937683D02*
X151643253Y-102009508D01*
X147356925Y-102010172D02*
X147431807Y-102076450D01*
X151643253Y-102009508D02*
X151568359Y-102075772D01*
X147431807Y-102076450D02*
X147511562Y-102136776D01*
X151568359Y-102075772D02*
X151488593Y-102136083D01*
X147511562Y-102136776D02*
X147595718Y-102190793D01*
X151488593Y-102136083D02*
X151404427Y-102190084D01*
X147595718Y-102190793D02*
X147683777Y-102238181D01*
X151404427Y-102190084D02*
X151316359Y-102237456D01*
X147683777Y-102238181D02*
X147775218Y-102278660D01*
X151316359Y-102237456D02*
X151224910Y-102277918D01*
X147775218Y-102278660D02*
X147869500Y-102311991D01*
X151224910Y-102277918D02*
X151130621Y-102311231D01*
X147869500Y-102311991D02*
X147966065Y-102337976D01*
X151130621Y-102311231D02*
X151034050Y-102337198D01*
X147966065Y-102337976D02*
X148064342Y-102356462D01*
X151034050Y-102337198D02*
X150935769Y-102355665D01*
X148064342Y-102356462D02*
X148163749Y-102367339D01*
X150935769Y-102355665D02*
X150836359Y-102366523D01*
X148163749Y-102367339D02*
X148263698Y-102370543D01*
X150836359Y-102366523D02*
X150736408Y-102369708D01*
X150736408Y-102369708D02*
X148263698Y-102370543D01*
X152043705Y-104879548D02*
X152036027Y-104779843D01*
X146955957Y-104880133D02*
X146963653Y-104780430D01*
X152036027Y-104779843D02*
X152020708Y-104681023D01*
X146963653Y-104780430D02*
X146978990Y-104681614D01*
X152020708Y-104681023D02*
X151997838Y-104583673D01*
X146978990Y-104681614D02*
X147001877Y-104584269D01*
X151997838Y-104583673D02*
X151967553Y-104488369D01*
X147001877Y-104584269D02*
X147032179Y-104488971D01*
X151967553Y-104488369D02*
X151930032Y-104395675D01*
X147032179Y-104488971D02*
X147069717Y-104396284D01*
X151930032Y-104395675D02*
X151885497Y-104306139D01*
X147069717Y-104396284D02*
X147114268Y-104306757D01*
X151885497Y-104306139D02*
X151834211Y-104220291D01*
X147114268Y-104306757D02*
X147165569Y-104220919D01*
X151834211Y-104220291D02*
X151776478Y-104138639D01*
X147165569Y-104220919D02*
X147223316Y-104139278D01*
X151776478Y-104138639D02*
X151712640Y-104061666D01*
X147223316Y-104139278D02*
X147287168Y-104062317D01*
X151712640Y-104061666D02*
X151643074Y-103989828D01*
X147287168Y-104062317D02*
X147356747Y-103990492D01*
X151643074Y-103989828D02*
X151568192Y-103923550D01*
X147356747Y-103990492D02*
X147431641Y-103924228D01*
X151568192Y-103923550D02*
X151488437Y-103863224D01*
X147431641Y-103924228D02*
X147511407Y-103863917D01*
X151488437Y-103863224D02*
X151404281Y-103809207D01*
X147511407Y-103863917D02*
X147595573Y-103809916D01*
X151404281Y-103809207D02*
X151316222Y-103761819D01*
X147595573Y-103809916D02*
X147683641Y-103762544D01*
X151316222Y-103761819D02*
X151224781Y-103721340D01*
X147683641Y-103762544D02*
X147775090Y-103722082D01*
X151224781Y-103721340D02*
X151130499Y-103688009D01*
X147775090Y-103722082D02*
X147869379Y-103688769D01*
X151130499Y-103688009D02*
X151033934Y-103662024D01*
X147869379Y-103688769D02*
X147965950Y-103662802D01*
X151033934Y-103662024D02*
X150935657Y-103643538D01*
X147965950Y-103662802D02*
X148064231Y-103644335D01*
X150935657Y-103643538D02*
X150836250Y-103632661D01*
X148064231Y-103644335D02*
X148163641Y-103633477D01*
X150836250Y-103632661D02*
X150736301Y-103629457D01*
X148163641Y-103633477D02*
X148263592Y-103630292D01*
X150736301Y-103629457D02*
X148263592Y-103630292D01*
X146956294Y-91120452D02*
X146781088Y-90816987D01*
X146955957Y-94880133D02*
X146731089Y-95269615D01*
X152043705Y-94879548D02*
X152218911Y-95183013D01*
X152044043Y-91119867D02*
X152268911Y-90730385D01*
X152043705Y-94879548D02*
X152036027Y-94779843D01*
X146955957Y-94880133D02*
X146963653Y-94780430D01*
X152036027Y-94779843D02*
X152020708Y-94681023D01*
X146963653Y-94780430D02*
X146978990Y-94681614D01*
X152020708Y-94681023D02*
X151997838Y-94583673D01*
X146978990Y-94681614D02*
X147001877Y-94584269D01*
X151997838Y-94583673D02*
X151967553Y-94488369D01*
X147001877Y-94584269D02*
X147032179Y-94488971D01*
X151967553Y-94488369D02*
X151930032Y-94395675D01*
X147032179Y-94488971D02*
X147069717Y-94396284D01*
X151930032Y-94395675D02*
X151885497Y-94306139D01*
X147069717Y-94396284D02*
X147114268Y-94306757D01*
X151885497Y-94306139D02*
X151834211Y-94220291D01*
X147114268Y-94306757D02*
X147165569Y-94220919D01*
X151834211Y-94220291D02*
X151776478Y-94138639D01*
X147165569Y-94220919D02*
X147223316Y-94139278D01*
X151776478Y-94138639D02*
X151712640Y-94061666D01*
X147223316Y-94139278D02*
X147287168Y-94062317D01*
X151712640Y-94061666D02*
X151643074Y-93989828D01*
X147287168Y-94062317D02*
X147356747Y-93990492D01*
X151643074Y-93989828D02*
X151568192Y-93923550D01*
X147356747Y-93990492D02*
X147431641Y-93924228D01*
X151568192Y-93923550D02*
X151488437Y-93863224D01*
X147431641Y-93924228D02*
X147511407Y-93863917D01*
X151488437Y-93863224D02*
X151404281Y-93809207D01*
X147511407Y-93863917D02*
X147595573Y-93809916D01*
X151404281Y-93809207D02*
X151316222Y-93761819D01*
X147595573Y-93809916D02*
X147683641Y-93762544D01*
X151316222Y-93761819D02*
X151224781Y-93721340D01*
X147683641Y-93762544D02*
X147775090Y-93722082D01*
X151224781Y-93721340D02*
X151130499Y-93688009D01*
X147775090Y-93722082D02*
X147869379Y-93688769D01*
X151130499Y-93688009D02*
X151033934Y-93662024D01*
X147869379Y-93688769D02*
X147965950Y-93662802D01*
X151033934Y-93662024D02*
X150935657Y-93643538D01*
X147965950Y-93662802D02*
X148064231Y-93644335D01*
X150935657Y-93643538D02*
X150836250Y-93632661D01*
X148064231Y-93644335D02*
X148163641Y-93633477D01*
X150836250Y-93632661D02*
X150736301Y-93629457D01*
X148163641Y-93633477D02*
X148263592Y-93630292D01*
X148263592Y-93630292D02*
X150736301Y-93629457D01*
X146956294Y-91120452D02*
X146963972Y-91220157D01*
X152044043Y-91119867D02*
X152036347Y-91219570D01*
X146963972Y-91220157D02*
X146979291Y-91318977D01*
X152036347Y-91219570D02*
X152021010Y-91318386D01*
X146979291Y-91318977D02*
X147002161Y-91416327D01*
X152021010Y-91318386D02*
X151998123Y-91415731D01*
X147002161Y-91416327D02*
X147032446Y-91511631D01*
X151998123Y-91415731D02*
X151967821Y-91511029D01*
X147032446Y-91511631D02*
X147069967Y-91604325D01*
X151967821Y-91511029D02*
X151930283Y-91603716D01*
X147069967Y-91604325D02*
X147114502Y-91693861D01*
X151930283Y-91603716D02*
X151885732Y-91693243D01*
X147114502Y-91693861D02*
X147165788Y-91779709D01*
X151885732Y-91693243D02*
X151834431Y-91779081D01*
X147165788Y-91779709D02*
X147223521Y-91861361D01*
X151834431Y-91779081D02*
X151776684Y-91860722D01*
X147223521Y-91861361D02*
X147287359Y-91938334D01*
X151776684Y-91860722D02*
X151712832Y-91937683D01*
X147287359Y-91938334D02*
X147356925Y-92010172D01*
X151712832Y-91937683D02*
X151643253Y-92009508D01*
X147356925Y-92010172D02*
X147431807Y-92076450D01*
X151643253Y-92009508D02*
X151568359Y-92075772D01*
X147431807Y-92076450D02*
X147511562Y-92136776D01*
X151568359Y-92075772D02*
X151488593Y-92136083D01*
X147511562Y-92136776D02*
X147595718Y-92190793D01*
X151488593Y-92136083D02*
X151404427Y-92190084D01*
X147595718Y-92190793D02*
X147683777Y-92238181D01*
X151404427Y-92190084D02*
X151316359Y-92237456D01*
X147683777Y-92238181D02*
X147775218Y-92278660D01*
X151316359Y-92237456D02*
X151224910Y-92277918D01*
X147775218Y-92278660D02*
X147869500Y-92311991D01*
X151224910Y-92277918D02*
X151130621Y-92311231D01*
X147869500Y-92311991D02*
X147966065Y-92337976D01*
X151130621Y-92311231D02*
X151034050Y-92337198D01*
X147966065Y-92337976D02*
X148064342Y-92356462D01*
X151034050Y-92337198D02*
X150935769Y-92355665D01*
X148064342Y-92356462D02*
X148163749Y-92367339D01*
X150935769Y-92355665D02*
X150836359Y-92366523D01*
X148163749Y-92367339D02*
X148263698Y-92370543D01*
X150836359Y-92366523D02*
X150736408Y-92369708D01*
X148263698Y-92370543D02*
X150736408Y-92369708D01*
X152043705Y-84879548D02*
X152218911Y-85183013D01*
X152044043Y-81119867D02*
X152268911Y-80730385D01*
X146956294Y-81120452D02*
X146781088Y-80816987D01*
X146955957Y-84880133D02*
X146731089Y-85269615D01*
X146956294Y-81120452D02*
X146963972Y-81220157D01*
X152044043Y-81119867D02*
X152036347Y-81219570D01*
X146963972Y-81220157D02*
X146979291Y-81318977D01*
X152036347Y-81219570D02*
X152021010Y-81318386D01*
X146979291Y-81318977D02*
X147002161Y-81416327D01*
X152021010Y-81318386D02*
X151998123Y-81415731D01*
X147002161Y-81416327D02*
X147032446Y-81511631D01*
X151998123Y-81415731D02*
X151967821Y-81511029D01*
X147032446Y-81511631D02*
X147069967Y-81604325D01*
X151967821Y-81511029D02*
X151930283Y-81603716D01*
X147069967Y-81604325D02*
X147114502Y-81693861D01*
X151930283Y-81603716D02*
X151885732Y-81693243D01*
X147114502Y-81693861D02*
X147165788Y-81779709D01*
X151885732Y-81693243D02*
X151834431Y-81779081D01*
X147165788Y-81779709D02*
X147223521Y-81861361D01*
X151834431Y-81779081D02*
X151776684Y-81860722D01*
X147223521Y-81861361D02*
X147287359Y-81938334D01*
X151776684Y-81860722D02*
X151712832Y-81937683D01*
X147287359Y-81938334D02*
X147356925Y-82010172D01*
X151712832Y-81937683D02*
X151643253Y-82009508D01*
X147356925Y-82010172D02*
X147431807Y-82076450D01*
X151643253Y-82009508D02*
X151568359Y-82075772D01*
X147431807Y-82076450D02*
X147511562Y-82136776D01*
X151568359Y-82075772D02*
X151488593Y-82136083D01*
X147511562Y-82136776D02*
X147595718Y-82190793D01*
X151488593Y-82136083D02*
X151404427Y-82190084D01*
X147595718Y-82190793D02*
X147683777Y-82238181D01*
X151404427Y-82190084D02*
X151316359Y-82237456D01*
X147683777Y-82238181D02*
X147775218Y-82278660D01*
X151316359Y-82237456D02*
X151224910Y-82277918D01*
X147775218Y-82278660D02*
X147869500Y-82311991D01*
X151224910Y-82277918D02*
X151130621Y-82311231D01*
X147869500Y-82311991D02*
X147966065Y-82337976D01*
X151130621Y-82311231D02*
X151034050Y-82337198D01*
X147966065Y-82337976D02*
X148064342Y-82356462D01*
X151034050Y-82337198D02*
X150935769Y-82355665D01*
X148064342Y-82356462D02*
X148163749Y-82367339D01*
X150935769Y-82355665D02*
X150836359Y-82366523D01*
X148163749Y-82367339D02*
X148263698Y-82370543D01*
X150836359Y-82366523D02*
X150736408Y-82369708D01*
X150736408Y-82369708D02*
X148263698Y-82370543D01*
X152043705Y-84879548D02*
X152036027Y-84779843D01*
X146955957Y-84880133D02*
X146963653Y-84780430D01*
X152036027Y-84779843D02*
X152020708Y-84681023D01*
X146963653Y-84780430D02*
X146978990Y-84681614D01*
X152020708Y-84681023D02*
X151997838Y-84583673D01*
X146978990Y-84681614D02*
X147001877Y-84584269D01*
X151997838Y-84583673D02*
X151967553Y-84488369D01*
X147001877Y-84584269D02*
X147032179Y-84488971D01*
X151967553Y-84488369D02*
X151930032Y-84395675D01*
X147032179Y-84488971D02*
X147069717Y-84396284D01*
X151930032Y-84395675D02*
X151885497Y-84306139D01*
X147069717Y-84396284D02*
X147114268Y-84306757D01*
X151885497Y-84306139D02*
X151834211Y-84220291D01*
X147114268Y-84306757D02*
X147165569Y-84220919D01*
X151834211Y-84220291D02*
X151776478Y-84138639D01*
X147165569Y-84220919D02*
X147223316Y-84139278D01*
X151776478Y-84138639D02*
X151712640Y-84061666D01*
X147223316Y-84139278D02*
X147287168Y-84062317D01*
X151712640Y-84061666D02*
X151643074Y-83989828D01*
X147287168Y-84062317D02*
X147356747Y-83990492D01*
X151643074Y-83989828D02*
X151568192Y-83923550D01*
X147356747Y-83990492D02*
X147431641Y-83924228D01*
X151568192Y-83923550D02*
X151488437Y-83863224D01*
X147431641Y-83924228D02*
X147511407Y-83863917D01*
X151488437Y-83863224D02*
X151404281Y-83809207D01*
X147511407Y-83863917D02*
X147595573Y-83809916D01*
X151404281Y-83809207D02*
X151316222Y-83761819D01*
X147595573Y-83809916D02*
X147683641Y-83762544D01*
X151316222Y-83761819D02*
X151224781Y-83721340D01*
X147683641Y-83762544D02*
X147775090Y-83722082D01*
X151224781Y-83721340D02*
X151130499Y-83688009D01*
X147775090Y-83722082D02*
X147869379Y-83688769D01*
X151130499Y-83688009D02*
X151033934Y-83662024D01*
X147869379Y-83688769D02*
X147965950Y-83662802D01*
X151033934Y-83662024D02*
X150935657Y-83643538D01*
X147965950Y-83662802D02*
X148064231Y-83644335D01*
X150935657Y-83643538D02*
X150836250Y-83632661D01*
X148064231Y-83644335D02*
X148163641Y-83633477D01*
X150836250Y-83632661D02*
X150736301Y-83629457D01*
X148163641Y-83633477D02*
X148263592Y-83630292D01*
X150736301Y-83629457D02*
X148263592Y-83630292D01*
X157956294Y-101120452D02*
X157781088Y-100816987D01*
X157955957Y-104880133D02*
X157731089Y-105269615D01*
X163043705Y-104879548D02*
X163218911Y-105183013D01*
X163044043Y-101119867D02*
X163268911Y-100730385D01*
X163043705Y-104879548D02*
X163036027Y-104779843D01*
X157955957Y-104880133D02*
X157963653Y-104780430D01*
X163036027Y-104779843D02*
X163020708Y-104681023D01*
X157963653Y-104780430D02*
X157978990Y-104681614D01*
X163020708Y-104681023D02*
X162997838Y-104583673D01*
X157978990Y-104681614D02*
X158001877Y-104584269D01*
X162997838Y-104583673D02*
X162967553Y-104488369D01*
X158001877Y-104584269D02*
X158032179Y-104488971D01*
X162967553Y-104488369D02*
X162930032Y-104395675D01*
X158032179Y-104488971D02*
X158069717Y-104396284D01*
X162930032Y-104395675D02*
X162885497Y-104306139D01*
X158069717Y-104396284D02*
X158114268Y-104306757D01*
X162885497Y-104306139D02*
X162834211Y-104220291D01*
X158114268Y-104306757D02*
X158165569Y-104220919D01*
X162834211Y-104220291D02*
X162776478Y-104138639D01*
X158165569Y-104220919D02*
X158223316Y-104139278D01*
X162776478Y-104138639D02*
X162712640Y-104061666D01*
X158223316Y-104139278D02*
X158287168Y-104062317D01*
X162712640Y-104061666D02*
X162643074Y-103989828D01*
X158287168Y-104062317D02*
X158356747Y-103990492D01*
X162643074Y-103989828D02*
X162568192Y-103923550D01*
X158356747Y-103990492D02*
X158431641Y-103924228D01*
X162568192Y-103923550D02*
X162488437Y-103863224D01*
X158431641Y-103924228D02*
X158511407Y-103863917D01*
X162488437Y-103863224D02*
X162404281Y-103809207D01*
X158511407Y-103863917D02*
X158595573Y-103809916D01*
X162404281Y-103809207D02*
X162316222Y-103761819D01*
X158595573Y-103809916D02*
X158683641Y-103762544D01*
X162316222Y-103761819D02*
X162224781Y-103721340D01*
X158683641Y-103762544D02*
X158775090Y-103722082D01*
X162224781Y-103721340D02*
X162130499Y-103688009D01*
X158775090Y-103722082D02*
X158869379Y-103688769D01*
X162130499Y-103688009D02*
X162033934Y-103662024D01*
X158869379Y-103688769D02*
X158965950Y-103662802D01*
X162033934Y-103662024D02*
X161935657Y-103643538D01*
X158965950Y-103662802D02*
X159064231Y-103644335D01*
X161935657Y-103643538D02*
X161836250Y-103632661D01*
X159064231Y-103644335D02*
X159163641Y-103633477D01*
X161836250Y-103632661D02*
X161736301Y-103629457D01*
X159163641Y-103633477D02*
X159263592Y-103630292D01*
X159263592Y-103630292D02*
X161736301Y-103629457D01*
X157956294Y-101120452D02*
X157963972Y-101220157D01*
X163044043Y-101119867D02*
X163036347Y-101219570D01*
X157963972Y-101220157D02*
X157979291Y-101318977D01*
X163036347Y-101219570D02*
X163021010Y-101318386D01*
X157979291Y-101318977D02*
X158002161Y-101416327D01*
X163021010Y-101318386D02*
X162998123Y-101415731D01*
X158002161Y-101416327D02*
X158032446Y-101511631D01*
X162998123Y-101415731D02*
X162967821Y-101511029D01*
X158032446Y-101511631D02*
X158069967Y-101604325D01*
X162967821Y-101511029D02*
X162930283Y-101603716D01*
X158069967Y-101604325D02*
X158114502Y-101693861D01*
X162930283Y-101603716D02*
X162885732Y-101693243D01*
X158114502Y-101693861D02*
X158165788Y-101779709D01*
X162885732Y-101693243D02*
X162834431Y-101779081D01*
X158165788Y-101779709D02*
X158223521Y-101861361D01*
X162834431Y-101779081D02*
X162776684Y-101860722D01*
X158223521Y-101861361D02*
X158287359Y-101938334D01*
X162776684Y-101860722D02*
X162712832Y-101937683D01*
X158287359Y-101938334D02*
X158356925Y-102010172D01*
X162712832Y-101937683D02*
X162643253Y-102009508D01*
X158356925Y-102010172D02*
X158431807Y-102076450D01*
X162643253Y-102009508D02*
X162568359Y-102075772D01*
X158431807Y-102076450D02*
X158511562Y-102136776D01*
X162568359Y-102075772D02*
X162488593Y-102136083D01*
X158511562Y-102136776D02*
X158595718Y-102190793D01*
X162488593Y-102136083D02*
X162404427Y-102190084D01*
X158595718Y-102190793D02*
X158683777Y-102238181D01*
X162404427Y-102190084D02*
X162316359Y-102237456D01*
X158683777Y-102238181D02*
X158775218Y-102278660D01*
X162316359Y-102237456D02*
X162224910Y-102277918D01*
X158775218Y-102278660D02*
X158869500Y-102311991D01*
X162224910Y-102277918D02*
X162130621Y-102311231D01*
X158869500Y-102311991D02*
X158966065Y-102337976D01*
X162130621Y-102311231D02*
X162034050Y-102337198D01*
X158966065Y-102337976D02*
X159064342Y-102356462D01*
X162034050Y-102337198D02*
X161935769Y-102355665D01*
X159064342Y-102356462D02*
X159163749Y-102367339D01*
X161935769Y-102355665D02*
X161836359Y-102366523D01*
X159163749Y-102367339D02*
X159263698Y-102370543D01*
X161836359Y-102366523D02*
X161736408Y-102369708D01*
X159263698Y-102370543D02*
X161736408Y-102369708D01*
X157956294Y-91120452D02*
X157781088Y-90816987D01*
X157955957Y-94880133D02*
X157731089Y-95269615D01*
X163043705Y-94879548D02*
X163218911Y-95183013D01*
X163044043Y-91119867D02*
X163268911Y-90730385D01*
X163043705Y-94879548D02*
X163036027Y-94779843D01*
X157955957Y-94880133D02*
X157963653Y-94780430D01*
X163036027Y-94779843D02*
X163020708Y-94681023D01*
X157963653Y-94780430D02*
X157978990Y-94681614D01*
X163020708Y-94681023D02*
X162997838Y-94583673D01*
X157978990Y-94681614D02*
X158001877Y-94584269D01*
X162997838Y-94583673D02*
X162967553Y-94488369D01*
X158001877Y-94584269D02*
X158032179Y-94488971D01*
X162967553Y-94488369D02*
X162930032Y-94395675D01*
X158032179Y-94488971D02*
X158069717Y-94396284D01*
X162930032Y-94395675D02*
X162885497Y-94306139D01*
X158069717Y-94396284D02*
X158114268Y-94306757D01*
X162885497Y-94306139D02*
X162834211Y-94220291D01*
X158114268Y-94306757D02*
X158165569Y-94220919D01*
X162834211Y-94220291D02*
X162776478Y-94138639D01*
X158165569Y-94220919D02*
X158223316Y-94139278D01*
X162776478Y-94138639D02*
X162712640Y-94061666D01*
X158223316Y-94139278D02*
X158287168Y-94062317D01*
X162712640Y-94061666D02*
X162643074Y-93989828D01*
X158287168Y-94062317D02*
X158356747Y-93990492D01*
X162643074Y-93989828D02*
X162568192Y-93923550D01*
X158356747Y-93990492D02*
X158431641Y-93924228D01*
X162568192Y-93923550D02*
X162488437Y-93863224D01*
X158431641Y-93924228D02*
X158511407Y-93863917D01*
X162488437Y-93863224D02*
X162404281Y-93809207D01*
X158511407Y-93863917D02*
X158595573Y-93809916D01*
X162404281Y-93809207D02*
X162316222Y-93761819D01*
X158595573Y-93809916D02*
X158683641Y-93762544D01*
X162316222Y-93761819D02*
X162224781Y-93721340D01*
X158683641Y-93762544D02*
X158775090Y-93722082D01*
X162224781Y-93721340D02*
X162130499Y-93688009D01*
X158775090Y-93722082D02*
X158869379Y-93688769D01*
X162130499Y-93688009D02*
X162033934Y-93662024D01*
X158869379Y-93688769D02*
X158965950Y-93662802D01*
X162033934Y-93662024D02*
X161935657Y-93643538D01*
X158965950Y-93662802D02*
X159064231Y-93644335D01*
X161935657Y-93643538D02*
X161836250Y-93632661D01*
X159064231Y-93644335D02*
X159163641Y-93633477D01*
X161836250Y-93632661D02*
X161736301Y-93629457D01*
X159163641Y-93633477D02*
X159263592Y-93630292D01*
X159263592Y-93630292D02*
X161736301Y-93629457D01*
X157956294Y-91120452D02*
X157963972Y-91220157D01*
X163044043Y-91119867D02*
X163036347Y-91219570D01*
X157963972Y-91220157D02*
X157979291Y-91318977D01*
X163036347Y-91219570D02*
X163021010Y-91318386D01*
X157979291Y-91318977D02*
X158002161Y-91416327D01*
X163021010Y-91318386D02*
X162998123Y-91415731D01*
X158002161Y-91416327D02*
X158032446Y-91511631D01*
X162998123Y-91415731D02*
X162967821Y-91511029D01*
X158032446Y-91511631D02*
X158069967Y-91604325D01*
X162967821Y-91511029D02*
X162930283Y-91603716D01*
X158069967Y-91604325D02*
X158114502Y-91693861D01*
X162930283Y-91603716D02*
X162885732Y-91693243D01*
X158114502Y-91693861D02*
X158165788Y-91779709D01*
X162885732Y-91693243D02*
X162834431Y-91779081D01*
X158165788Y-91779709D02*
X158223521Y-91861361D01*
X162834431Y-91779081D02*
X162776684Y-91860722D01*
X158223521Y-91861361D02*
X158287359Y-91938334D01*
X162776684Y-91860722D02*
X162712832Y-91937683D01*
X158287359Y-91938334D02*
X158356925Y-92010172D01*
X162712832Y-91937683D02*
X162643253Y-92009508D01*
X158356925Y-92010172D02*
X158431807Y-92076450D01*
X162643253Y-92009508D02*
X162568359Y-92075772D01*
X158431807Y-92076450D02*
X158511562Y-92136776D01*
X162568359Y-92075772D02*
X162488593Y-92136083D01*
X158511562Y-92136776D02*
X158595718Y-92190793D01*
X162488593Y-92136083D02*
X162404427Y-92190084D01*
X158595718Y-92190793D02*
X158683777Y-92238181D01*
X162404427Y-92190084D02*
X162316359Y-92237456D01*
X158683777Y-92238181D02*
X158775218Y-92278660D01*
X162316359Y-92237456D02*
X162224910Y-92277918D01*
X158775218Y-92278660D02*
X158869500Y-92311991D01*
X162224910Y-92277918D02*
X162130621Y-92311231D01*
X158869500Y-92311991D02*
X158966065Y-92337976D01*
X162130621Y-92311231D02*
X162034050Y-92337198D01*
X158966065Y-92337976D02*
X159064342Y-92356462D01*
X162034050Y-92337198D02*
X161935769Y-92355665D01*
X159064342Y-92356462D02*
X159163749Y-92367339D01*
X161935769Y-92355665D02*
X161836359Y-92366523D01*
X159163749Y-92367339D02*
X159263698Y-92370543D01*
X161836359Y-92366523D02*
X161736408Y-92369708D01*
X159263698Y-92370543D02*
X161736408Y-92369708D01*
X163043705Y-84879548D02*
X163218911Y-85183013D01*
X163044043Y-81119867D02*
X163268911Y-80730385D01*
X157956294Y-81120452D02*
X157781088Y-80816987D01*
X157955957Y-84880133D02*
X157731089Y-85269615D01*
X157956294Y-81120452D02*
X157963972Y-81220157D01*
X163044043Y-81119867D02*
X163036347Y-81219570D01*
X157963972Y-81220157D02*
X157979291Y-81318977D01*
X163036347Y-81219570D02*
X163021010Y-81318386D01*
X157979291Y-81318977D02*
X158002161Y-81416327D01*
X163021010Y-81318386D02*
X162998123Y-81415731D01*
X158002161Y-81416327D02*
X158032446Y-81511631D01*
X162998123Y-81415731D02*
X162967821Y-81511029D01*
X158032446Y-81511631D02*
X158069967Y-81604325D01*
X162967821Y-81511029D02*
X162930283Y-81603716D01*
X158069967Y-81604325D02*
X158114502Y-81693861D01*
X162930283Y-81603716D02*
X162885732Y-81693243D01*
X158114502Y-81693861D02*
X158165788Y-81779709D01*
X162885732Y-81693243D02*
X162834431Y-81779081D01*
X158165788Y-81779709D02*
X158223521Y-81861361D01*
X162834431Y-81779081D02*
X162776684Y-81860722D01*
X158223521Y-81861361D02*
X158287359Y-81938334D01*
X162776684Y-81860722D02*
X162712832Y-81937683D01*
X158287359Y-81938334D02*
X158356925Y-82010172D01*
X162712832Y-81937683D02*
X162643253Y-82009508D01*
X158356925Y-82010172D02*
X158431807Y-82076450D01*
X162643253Y-82009508D02*
X162568359Y-82075772D01*
X158431807Y-82076450D02*
X158511562Y-82136776D01*
X162568359Y-82075772D02*
X162488593Y-82136083D01*
X158511562Y-82136776D02*
X158595718Y-82190793D01*
X162488593Y-82136083D02*
X162404427Y-82190084D01*
X158595718Y-82190793D02*
X158683777Y-82238181D01*
X162404427Y-82190084D02*
X162316359Y-82237456D01*
X158683777Y-82238181D02*
X158775218Y-82278660D01*
X162316359Y-82237456D02*
X162224910Y-82277918D01*
X158775218Y-82278660D02*
X158869500Y-82311991D01*
X162224910Y-82277918D02*
X162130621Y-82311231D01*
X158869500Y-82311991D02*
X158966065Y-82337976D01*
X162130621Y-82311231D02*
X162034050Y-82337198D01*
X158966065Y-82337976D02*
X159064342Y-82356462D01*
X162034050Y-82337198D02*
X161935769Y-82355665D01*
X159064342Y-82356462D02*
X159163749Y-82367339D01*
X161935769Y-82355665D02*
X161836359Y-82366523D01*
X159163749Y-82367339D02*
X159263698Y-82370543D01*
X161836359Y-82366523D02*
X161736408Y-82369708D01*
X161736408Y-82369708D02*
X159263698Y-82370543D01*
X163043705Y-84879548D02*
X163036027Y-84779843D01*
X157955957Y-84880133D02*
X157963653Y-84780430D01*
X163036027Y-84779843D02*
X163020708Y-84681023D01*
X157963653Y-84780430D02*
X157978990Y-84681614D01*
X163020708Y-84681023D02*
X162997838Y-84583673D01*
X157978990Y-84681614D02*
X158001877Y-84584269D01*
X162997838Y-84583673D02*
X162967553Y-84488369D01*
X158001877Y-84584269D02*
X158032179Y-84488971D01*
X162967553Y-84488369D02*
X162930032Y-84395675D01*
X158032179Y-84488971D02*
X158069717Y-84396284D01*
X162930032Y-84395675D02*
X162885497Y-84306139D01*
X158069717Y-84396284D02*
X158114268Y-84306757D01*
X162885497Y-84306139D02*
X162834211Y-84220291D01*
X158114268Y-84306757D02*
X158165569Y-84220919D01*
X162834211Y-84220291D02*
X162776478Y-84138639D01*
X158165569Y-84220919D02*
X158223316Y-84139278D01*
X162776478Y-84138639D02*
X162712640Y-84061666D01*
X158223316Y-84139278D02*
X158287168Y-84062317D01*
X162712640Y-84061666D02*
X162643074Y-83989828D01*
X158287168Y-84062317D02*
X158356747Y-83990492D01*
X162643074Y-83989828D02*
X162568192Y-83923550D01*
X158356747Y-83990492D02*
X158431641Y-83924228D01*
X162568192Y-83923550D02*
X162488437Y-83863224D01*
X158431641Y-83924228D02*
X158511407Y-83863917D01*
X162488437Y-83863224D02*
X162404281Y-83809207D01*
X158511407Y-83863917D02*
X158595573Y-83809916D01*
X162404281Y-83809207D02*
X162316222Y-83761819D01*
X158595573Y-83809916D02*
X158683641Y-83762544D01*
X162316222Y-83761819D02*
X162224781Y-83721340D01*
X158683641Y-83762544D02*
X158775090Y-83722082D01*
X162224781Y-83721340D02*
X162130499Y-83688009D01*
X158775090Y-83722082D02*
X158869379Y-83688769D01*
X162130499Y-83688009D02*
X162033934Y-83662024D01*
X158869379Y-83688769D02*
X158965950Y-83662802D01*
X162033934Y-83662024D02*
X161935657Y-83643538D01*
X158965950Y-83662802D02*
X159064231Y-83644335D01*
X161935657Y-83643538D02*
X161836250Y-83632661D01*
X159064231Y-83644335D02*
X159163641Y-83633477D01*
X161836250Y-83632661D02*
X161736301Y-83629457D01*
X159163641Y-83633477D02*
X159263592Y-83630292D01*
X161736301Y-83629457D02*
X159263592Y-83630292D01*
X145892193Y-85981187D02*
X146632779Y-85359761D01*
X142107807Y-85981187D02*
X141290617Y-85295483D01*
X142107807Y-90018813D02*
X141367221Y-90640238D01*
X145892193Y-90018813D02*
X146709383Y-90704517D01*
X142107807Y-90018813D02*
X142207511Y-90011126D01*
X142107807Y-85981187D02*
X142207511Y-85988874D01*
X142207511Y-90011126D02*
X142306329Y-89995798D01*
X142207511Y-85988874D02*
X142306329Y-86004202D01*
X142306329Y-89995798D02*
X142403676Y-89972920D01*
X142306329Y-86004202D02*
X142403676Y-86027080D01*
X142403676Y-89972920D02*
X142498976Y-89942627D01*
X142403676Y-86027080D02*
X142498976Y-86057373D01*
X142498976Y-89942627D02*
X142591666Y-89905098D01*
X142498976Y-86057373D02*
X142591666Y-86094902D01*
X142591666Y-89905098D02*
X142681197Y-89860555D01*
X142591666Y-86094902D02*
X142681197Y-86139445D01*
X142681197Y-89860555D02*
X142767039Y-89809262D01*
X142681197Y-86139445D02*
X142767039Y-86190738D01*
X142767039Y-89809262D02*
X142848684Y-89751522D01*
X142767039Y-86190738D02*
X142848684Y-86248478D01*
X142848684Y-89751522D02*
X142925649Y-89687677D01*
X142848684Y-86248478D02*
X142925649Y-86312323D01*
X142925649Y-89687677D02*
X142997479Y-89618105D01*
X142925649Y-86312323D02*
X142997479Y-86381895D01*
X142997479Y-89618105D02*
X143063749Y-89543218D01*
X142997479Y-86381895D02*
X143063749Y-86456782D01*
X143063749Y-89543218D02*
X143124067Y-89463459D01*
X143063749Y-86456782D02*
X143124067Y-86536541D01*
X143124067Y-89463459D02*
X143178076Y-89379300D01*
X143124067Y-86536541D02*
X143178076Y-86620700D01*
X143178076Y-89379300D02*
X143225456Y-89291239D01*
X143178076Y-86620700D02*
X143225456Y-86708761D01*
X143225456Y-89291239D02*
X143265927Y-89199797D01*
X143225456Y-86708761D02*
X143265927Y-86800203D01*
X143265927Y-89199797D02*
X143299249Y-89105515D01*
X143265927Y-86800203D02*
X143299249Y-86894485D01*
X143299249Y-89105515D02*
X143325225Y-89008951D01*
X143299249Y-86894485D02*
X143325225Y-86991049D01*
X143325225Y-89008951D02*
X143343702Y-88910676D01*
X143325225Y-86991049D02*
X143343702Y-87089324D01*
X143343702Y-88910676D02*
X143354570Y-88811271D01*
X143343702Y-87089324D02*
X143354570Y-87188729D01*
X143354570Y-88811271D02*
X143357765Y-88711325D01*
X143354570Y-87188729D02*
X143357765Y-87288675D01*
X143357765Y-87288675D02*
X143357765Y-88711325D01*
X145892193Y-90018813D02*
X145792489Y-90011126D01*
X145892193Y-85981187D02*
X145792489Y-85988874D01*
X145792489Y-90011126D02*
X145693671Y-89995798D01*
X145792489Y-85988874D02*
X145693671Y-86004202D01*
X145693671Y-89995798D02*
X145596324Y-89972920D01*
X145693671Y-86004202D02*
X145596324Y-86027080D01*
X145596324Y-89972920D02*
X145501024Y-89942627D01*
X145596324Y-86027080D02*
X145501024Y-86057373D01*
X145501024Y-89942627D02*
X145408334Y-89905098D01*
X145501024Y-86057373D02*
X145408334Y-86094902D01*
X145408334Y-89905098D02*
X145318803Y-89860555D01*
X145408334Y-86094902D02*
X145318803Y-86139445D01*
X145318803Y-89860555D02*
X145232961Y-89809262D01*
X145318803Y-86139445D02*
X145232961Y-86190738D01*
X145232961Y-89809262D02*
X145151316Y-89751522D01*
X145232961Y-86190738D02*
X145151316Y-86248478D01*
X145151316Y-89751522D02*
X145074351Y-89687677D01*
X145151316Y-86248478D02*
X145074351Y-86312323D01*
X145074351Y-89687677D02*
X145002521Y-89618105D01*
X145074351Y-86312323D02*
X145002521Y-86381895D01*
X145002521Y-89618105D02*
X144936251Y-89543218D01*
X145002521Y-86381895D02*
X144936251Y-86456782D01*
X144936251Y-89543218D02*
X144875933Y-89463459D01*
X144936251Y-86456782D02*
X144875933Y-86536541D01*
X144875933Y-89463459D02*
X144821924Y-89379300D01*
X144875933Y-86536541D02*
X144821924Y-86620700D01*
X144821924Y-89379300D02*
X144774544Y-89291239D01*
X144821924Y-86620700D02*
X144774544Y-86708761D01*
X144774544Y-89291239D02*
X144734073Y-89199797D01*
X144774544Y-86708761D02*
X144734073Y-86800203D01*
X144734073Y-89199797D02*
X144700751Y-89105515D01*
X144734073Y-86800203D02*
X144700751Y-86894485D01*
X144700751Y-89105515D02*
X144674775Y-89008951D01*
X144700751Y-86894485D02*
X144674775Y-86991049D01*
X144674775Y-89008951D02*
X144656298Y-88910676D01*
X144674775Y-86991049D02*
X144656298Y-87089324D01*
X144656298Y-88910676D02*
X144645430Y-88811271D01*
X144656298Y-87089324D02*
X144645430Y-87188729D01*
X144645430Y-88811271D02*
X144642235Y-88711325D01*
X144645430Y-87188729D02*
X144642235Y-87288675D01*
X144642235Y-87288675D02*
X144642235Y-88711325D01*
X131107807Y-90018813D02*
X130367221Y-90640238D01*
X134892193Y-90018813D02*
X135709383Y-90704517D01*
X134892193Y-85981187D02*
X135632779Y-85359761D01*
X131107807Y-85981187D02*
X130290617Y-85295483D01*
X134892193Y-85981187D02*
X134792489Y-85988874D01*
X134892193Y-90018813D02*
X134792489Y-90011126D01*
X134792489Y-85988874D02*
X134693671Y-86004202D01*
X134792489Y-90011126D02*
X134693671Y-89995798D01*
X134693671Y-86004202D02*
X134596324Y-86027080D01*
X134693671Y-89995798D02*
X134596324Y-89972920D01*
X134596324Y-86027080D02*
X134501024Y-86057373D01*
X134596324Y-89972920D02*
X134501024Y-89942627D01*
X134501024Y-86057373D02*
X134408334Y-86094902D01*
X134501024Y-89942627D02*
X134408334Y-89905098D01*
X134408334Y-86094902D02*
X134318803Y-86139445D01*
X134408334Y-89905098D02*
X134318803Y-89860555D01*
X134318803Y-86139445D02*
X134232961Y-86190738D01*
X134318803Y-89860555D02*
X134232961Y-89809262D01*
X134232961Y-86190738D02*
X134151316Y-86248478D01*
X134232961Y-89809262D02*
X134151316Y-89751522D01*
X134151316Y-86248478D02*
X134074351Y-86312323D01*
X134151316Y-89751522D02*
X134074351Y-89687677D01*
X134074351Y-86312323D02*
X134002521Y-86381895D01*
X134074351Y-89687677D02*
X134002521Y-89618105D01*
X134002521Y-86381895D02*
X133936251Y-86456782D01*
X134002521Y-89618105D02*
X133936251Y-89543218D01*
X133936251Y-86456782D02*
X133875933Y-86536541D01*
X133936251Y-89543218D02*
X133875933Y-89463459D01*
X133875933Y-86536541D02*
X133821924Y-86620700D01*
X133875933Y-89463459D02*
X133821924Y-89379300D01*
X133821924Y-86620700D02*
X133774544Y-86708761D01*
X133821924Y-89379300D02*
X133774544Y-89291239D01*
X133774544Y-86708761D02*
X133734073Y-86800203D01*
X133774544Y-89291239D02*
X133734073Y-89199797D01*
X133734073Y-86800203D02*
X133700751Y-86894485D01*
X133734073Y-89199797D02*
X133700751Y-89105515D01*
X133700751Y-86894485D02*
X133674775Y-86991049D01*
X133700751Y-89105515D02*
X133674775Y-89008951D01*
X133674775Y-86991049D02*
X133656298Y-87089324D01*
X133674775Y-89008951D02*
X133656298Y-88910676D01*
X133656298Y-87089324D02*
X133645430Y-87188729D01*
X133656298Y-88910676D02*
X133645430Y-88811271D01*
X133645430Y-87188729D02*
X133642235Y-87288675D01*
X133645430Y-88811271D02*
X133642235Y-88711325D01*
X133642235Y-88711325D02*
X133642235Y-87288675D01*
X131107807Y-85981187D02*
X131207511Y-85988874D01*
X131107807Y-90018813D02*
X131207511Y-90011126D01*
X131207511Y-85988874D02*
X131306329Y-86004202D01*
X131207511Y-90011126D02*
X131306329Y-89995798D01*
X131306329Y-86004202D02*
X131403676Y-86027080D01*
X131306329Y-89995798D02*
X131403676Y-89972920D01*
X131403676Y-86027080D02*
X131498976Y-86057373D01*
X131403676Y-89972920D02*
X131498976Y-89942627D01*
X131498976Y-86057373D02*
X131591666Y-86094902D01*
X131498976Y-89942627D02*
X131591666Y-89905098D01*
X131591666Y-86094902D02*
X131681197Y-86139445D01*
X131591666Y-89905098D02*
X131681197Y-89860555D01*
X131681197Y-86139445D02*
X131767039Y-86190738D01*
X131681197Y-89860555D02*
X131767039Y-89809262D01*
X131767039Y-86190738D02*
X131848684Y-86248478D01*
X131767039Y-89809262D02*
X131848684Y-89751522D01*
X131848684Y-86248478D02*
X131925649Y-86312323D01*
X131848684Y-89751522D02*
X131925649Y-89687677D01*
X131925649Y-86312323D02*
X131997479Y-86381895D01*
X131925649Y-89687677D02*
X131997479Y-89618105D01*
X131997479Y-86381895D02*
X132063749Y-86456782D01*
X131997479Y-89618105D02*
X132063749Y-89543218D01*
X132063749Y-86456782D02*
X132124067Y-86536541D01*
X132063749Y-89543218D02*
X132124067Y-89463459D01*
X132124067Y-86536541D02*
X132178076Y-86620700D01*
X132124067Y-89463459D02*
X132178076Y-89379300D01*
X132178076Y-86620700D02*
X132225456Y-86708761D01*
X132178076Y-89379300D02*
X132225456Y-89291239D01*
X132225456Y-86708761D02*
X132265927Y-86800203D01*
X132225456Y-89291239D02*
X132265927Y-89199797D01*
X132265927Y-86800203D02*
X132299249Y-86894485D01*
X132265927Y-89199797D02*
X132299249Y-89105515D01*
X132299249Y-86894485D02*
X132325225Y-86991049D01*
X132299249Y-89105515D02*
X132325225Y-89008951D01*
X132325225Y-86991049D02*
X132343702Y-87089324D01*
X132325225Y-89008951D02*
X132343702Y-88910676D01*
X132343702Y-87089324D02*
X132354570Y-87188729D01*
X132343702Y-88910676D02*
X132354570Y-88811271D01*
X132354570Y-87188729D02*
X132357765Y-87288675D01*
X132354570Y-88811271D02*
X132357765Y-88711325D01*
X132357765Y-88711325D02*
X132357765Y-87288675D01*
X134892193Y-95981187D02*
X135632779Y-95359761D01*
X131107807Y-95981187D02*
X130290617Y-95295483D01*
X131107807Y-100018813D02*
X130367221Y-100640238D01*
X134892193Y-100018813D02*
X135709383Y-100704517D01*
X131107807Y-100018813D02*
X131207511Y-100011126D01*
X131107807Y-95981187D02*
X131207511Y-95988874D01*
X131207511Y-100011126D02*
X131306329Y-99995798D01*
X131207511Y-95988874D02*
X131306329Y-96004202D01*
X131306329Y-99995798D02*
X131403676Y-99972920D01*
X131306329Y-96004202D02*
X131403676Y-96027080D01*
X131403676Y-99972920D02*
X131498976Y-99942627D01*
X131403676Y-96027080D02*
X131498976Y-96057373D01*
X131498976Y-99942627D02*
X131591666Y-99905098D01*
X131498976Y-96057373D02*
X131591666Y-96094902D01*
X131591666Y-99905098D02*
X131681197Y-99860555D01*
X131591666Y-96094902D02*
X131681197Y-96139445D01*
X131681197Y-99860555D02*
X131767039Y-99809262D01*
X131681197Y-96139445D02*
X131767039Y-96190738D01*
X131767039Y-99809262D02*
X131848684Y-99751522D01*
X131767039Y-96190738D02*
X131848684Y-96248478D01*
X131848684Y-99751522D02*
X131925649Y-99687677D01*
X131848684Y-96248478D02*
X131925649Y-96312323D01*
X131925649Y-99687677D02*
X131997479Y-99618105D01*
X131925649Y-96312323D02*
X131997479Y-96381895D01*
X131997479Y-99618105D02*
X132063749Y-99543218D01*
X131997479Y-96381895D02*
X132063749Y-96456782D01*
X132063749Y-99543218D02*
X132124067Y-99463459D01*
X132063749Y-96456782D02*
X132124067Y-96536541D01*
X132124067Y-99463459D02*
X132178076Y-99379300D01*
X132124067Y-96536541D02*
X132178076Y-96620700D01*
X132178076Y-99379300D02*
X132225456Y-99291239D01*
X132178076Y-96620700D02*
X132225456Y-96708761D01*
X132225456Y-99291239D02*
X132265927Y-99199797D01*
X132225456Y-96708761D02*
X132265927Y-96800203D01*
X132265927Y-99199797D02*
X132299249Y-99105515D01*
X132265927Y-96800203D02*
X132299249Y-96894485D01*
X132299249Y-99105515D02*
X132325225Y-99008951D01*
X132299249Y-96894485D02*
X132325225Y-96991049D01*
X132325225Y-99008951D02*
X132343702Y-98910676D01*
X132325225Y-96991049D02*
X132343702Y-97089324D01*
X132343702Y-98910676D02*
X132354570Y-98811271D01*
X132343702Y-97089324D02*
X132354570Y-97188729D01*
X132354570Y-98811271D02*
X132357765Y-98711325D01*
X132354570Y-97188729D02*
X132357765Y-97288675D01*
X132357765Y-97288675D02*
X132357765Y-98711325D01*
X134892193Y-100018813D02*
X134792489Y-100011126D01*
X134892193Y-95981187D02*
X134792489Y-95988874D01*
X134792489Y-100011126D02*
X134693671Y-99995798D01*
X134792489Y-95988874D02*
X134693671Y-96004202D01*
X134693671Y-99995798D02*
X134596324Y-99972920D01*
X134693671Y-96004202D02*
X134596324Y-96027080D01*
X134596324Y-99972920D02*
X134501024Y-99942627D01*
X134596324Y-96027080D02*
X134501024Y-96057373D01*
X134501024Y-99942627D02*
X134408334Y-99905098D01*
X134501024Y-96057373D02*
X134408334Y-96094902D01*
X134408334Y-99905098D02*
X134318803Y-99860555D01*
X134408334Y-96094902D02*
X134318803Y-96139445D01*
X134318803Y-99860555D02*
X134232961Y-99809262D01*
X134318803Y-96139445D02*
X134232961Y-96190738D01*
X134232961Y-99809262D02*
X134151316Y-99751522D01*
X134232961Y-96190738D02*
X134151316Y-96248478D01*
X134151316Y-99751522D02*
X134074351Y-99687677D01*
X134151316Y-96248478D02*
X134074351Y-96312323D01*
X134074351Y-99687677D02*
X134002521Y-99618105D01*
X134074351Y-96312323D02*
X134002521Y-96381895D01*
X134002521Y-99618105D02*
X133936251Y-99543218D01*
X134002521Y-96381895D02*
X133936251Y-96456782D01*
X133936251Y-99543218D02*
X133875933Y-99463459D01*
X133936251Y-96456782D02*
X133875933Y-96536541D01*
X133875933Y-99463459D02*
X133821924Y-99379300D01*
X133875933Y-96536541D02*
X133821924Y-96620700D01*
X133821924Y-99379300D02*
X133774544Y-99291239D01*
X133821924Y-96620700D02*
X133774544Y-96708761D01*
X133774544Y-99291239D02*
X133734073Y-99199797D01*
X133774544Y-96708761D02*
X133734073Y-96800203D01*
X133734073Y-99199797D02*
X133700751Y-99105515D01*
X133734073Y-96800203D02*
X133700751Y-96894485D01*
X133700751Y-99105515D02*
X133674775Y-99008951D01*
X133700751Y-96894485D02*
X133674775Y-96991049D01*
X133674775Y-99008951D02*
X133656298Y-98910676D01*
X133674775Y-96991049D02*
X133656298Y-97089324D01*
X133656298Y-98910676D02*
X133645430Y-98811271D01*
X133656298Y-97089324D02*
X133645430Y-97188729D01*
X133645430Y-98811271D02*
X133642235Y-98711325D01*
X133645430Y-97188729D02*
X133642235Y-97288675D01*
X133642235Y-97288675D02*
X133642235Y-98711325D01*
X141043705Y-104879548D02*
X141218911Y-105183013D01*
X141044043Y-101119867D02*
X141268911Y-100730385D01*
X135956294Y-101120452D02*
X135781088Y-100816987D01*
X135955957Y-104880133D02*
X135731089Y-105269615D01*
X135956294Y-101120452D02*
X135963972Y-101220157D01*
X141044043Y-101119867D02*
X141036347Y-101219570D01*
X135963972Y-101220157D02*
X135979291Y-101318977D01*
X141036347Y-101219570D02*
X141021010Y-101318386D01*
X135979291Y-101318977D02*
X136002161Y-101416327D01*
X141021010Y-101318386D02*
X140998123Y-101415731D01*
X136002161Y-101416327D02*
X136032446Y-101511631D01*
X140998123Y-101415731D02*
X140967821Y-101511029D01*
X136032446Y-101511631D02*
X136069967Y-101604325D01*
X140967821Y-101511029D02*
X140930283Y-101603716D01*
X136069967Y-101604325D02*
X136114502Y-101693861D01*
X140930283Y-101603716D02*
X140885732Y-101693243D01*
X136114502Y-101693861D02*
X136165788Y-101779709D01*
X140885732Y-101693243D02*
X140834431Y-101779081D01*
X136165788Y-101779709D02*
X136223521Y-101861361D01*
X140834431Y-101779081D02*
X140776684Y-101860722D01*
X136223521Y-101861361D02*
X136287359Y-101938334D01*
X140776684Y-101860722D02*
X140712832Y-101937683D01*
X136287359Y-101938334D02*
X136356925Y-102010172D01*
X140712832Y-101937683D02*
X140643253Y-102009508D01*
X136356925Y-102010172D02*
X136431807Y-102076450D01*
X140643253Y-102009508D02*
X140568359Y-102075772D01*
X136431807Y-102076450D02*
X136511562Y-102136776D01*
X140568359Y-102075772D02*
X140488593Y-102136083D01*
X136511562Y-102136776D02*
X136595718Y-102190793D01*
X140488593Y-102136083D02*
X140404427Y-102190084D01*
X136595718Y-102190793D02*
X136683777Y-102238181D01*
X140404427Y-102190084D02*
X140316359Y-102237456D01*
X136683777Y-102238181D02*
X136775218Y-102278660D01*
X140316359Y-102237456D02*
X140224910Y-102277918D01*
X136775218Y-102278660D02*
X136869500Y-102311991D01*
X140224910Y-102277918D02*
X140130621Y-102311231D01*
X136869500Y-102311991D02*
X136966065Y-102337976D01*
X140130621Y-102311231D02*
X140034050Y-102337198D01*
X136966065Y-102337976D02*
X137064342Y-102356462D01*
X140034050Y-102337198D02*
X139935769Y-102355665D01*
X137064342Y-102356462D02*
X137163749Y-102367339D01*
X139935769Y-102355665D02*
X139836359Y-102366523D01*
X137163749Y-102367339D02*
X137263698Y-102370543D01*
X139836359Y-102366523D02*
X139736408Y-102369708D01*
X139736408Y-102369708D02*
X137263698Y-102370543D01*
X141043705Y-104879548D02*
X141036027Y-104779843D01*
X135955957Y-104880133D02*
X135963653Y-104780430D01*
X141036027Y-104779843D02*
X141020708Y-104681023D01*
X135963653Y-104780430D02*
X135978990Y-104681614D01*
X141020708Y-104681023D02*
X140997838Y-104583673D01*
X135978990Y-104681614D02*
X136001877Y-104584269D01*
X140997838Y-104583673D02*
X140967553Y-104488369D01*
X136001877Y-104584269D02*
X136032179Y-104488971D01*
X140967553Y-104488369D02*
X140930032Y-104395675D01*
X136032179Y-104488971D02*
X136069717Y-104396284D01*
X140930032Y-104395675D02*
X140885497Y-104306139D01*
X136069717Y-104396284D02*
X136114268Y-104306757D01*
X140885497Y-104306139D02*
X140834211Y-104220291D01*
X136114268Y-104306757D02*
X136165569Y-104220919D01*
X140834211Y-104220291D02*
X140776478Y-104138639D01*
X136165569Y-104220919D02*
X136223316Y-104139278D01*
X140776478Y-104138639D02*
X140712640Y-104061666D01*
X136223316Y-104139278D02*
X136287168Y-104062317D01*
X140712640Y-104061666D02*
X140643074Y-103989828D01*
X136287168Y-104062317D02*
X136356747Y-103990492D01*
X140643074Y-103989828D02*
X140568192Y-103923550D01*
X136356747Y-103990492D02*
X136431641Y-103924228D01*
X140568192Y-103923550D02*
X140488437Y-103863224D01*
X136431641Y-103924228D02*
X136511407Y-103863917D01*
X140488437Y-103863224D02*
X140404281Y-103809207D01*
X136511407Y-103863917D02*
X136595573Y-103809916D01*
X140404281Y-103809207D02*
X140316222Y-103761819D01*
X136595573Y-103809916D02*
X136683641Y-103762544D01*
X140316222Y-103761819D02*
X140224781Y-103721340D01*
X136683641Y-103762544D02*
X136775090Y-103722082D01*
X140224781Y-103721340D02*
X140130499Y-103688009D01*
X136775090Y-103722082D02*
X136869379Y-103688769D01*
X140130499Y-103688009D02*
X140033934Y-103662024D01*
X136869379Y-103688769D02*
X136965950Y-103662802D01*
X140033934Y-103662024D02*
X139935657Y-103643538D01*
X136965950Y-103662802D02*
X137064231Y-103644335D01*
X139935657Y-103643538D02*
X139836250Y-103632661D01*
X137064231Y-103644335D02*
X137163641Y-103633477D01*
X139836250Y-103632661D02*
X139736301Y-103629457D01*
X137163641Y-103633477D02*
X137263592Y-103630292D01*
X139736301Y-103629457D02*
X137263592Y-103630292D01*
X135956294Y-91120452D02*
X135781088Y-90816987D01*
X135955957Y-94880133D02*
X135731089Y-95269615D01*
X141043705Y-94879548D02*
X141218911Y-95183013D01*
X141044043Y-91119867D02*
X141268911Y-90730385D01*
X141043705Y-94879548D02*
X141036027Y-94779843D01*
X135955957Y-94880133D02*
X135963653Y-94780430D01*
X141036027Y-94779843D02*
X141020708Y-94681023D01*
X135963653Y-94780430D02*
X135978990Y-94681614D01*
X141020708Y-94681023D02*
X140997838Y-94583673D01*
X135978990Y-94681614D02*
X136001877Y-94584269D01*
X140997838Y-94583673D02*
X140967553Y-94488369D01*
X136001877Y-94584269D02*
X136032179Y-94488971D01*
X140967553Y-94488369D02*
X140930032Y-94395675D01*
X136032179Y-94488971D02*
X136069717Y-94396284D01*
X140930032Y-94395675D02*
X140885497Y-94306139D01*
X136069717Y-94396284D02*
X136114268Y-94306757D01*
X140885497Y-94306139D02*
X140834211Y-94220291D01*
X136114268Y-94306757D02*
X136165569Y-94220919D01*
X140834211Y-94220291D02*
X140776478Y-94138639D01*
X136165569Y-94220919D02*
X136223316Y-94139278D01*
X140776478Y-94138639D02*
X140712640Y-94061666D01*
X136223316Y-94139278D02*
X136287168Y-94062317D01*
X140712640Y-94061666D02*
X140643074Y-93989828D01*
X136287168Y-94062317D02*
X136356747Y-93990492D01*
X140643074Y-93989828D02*
X140568192Y-93923550D01*
X136356747Y-93990492D02*
X136431641Y-93924228D01*
X140568192Y-93923550D02*
X140488437Y-93863224D01*
X136431641Y-93924228D02*
X136511407Y-93863917D01*
X140488437Y-93863224D02*
X140404281Y-93809207D01*
X136511407Y-93863917D02*
X136595573Y-93809916D01*
X140404281Y-93809207D02*
X140316222Y-93761819D01*
X136595573Y-93809916D02*
X136683641Y-93762544D01*
X140316222Y-93761819D02*
X140224781Y-93721340D01*
X136683641Y-93762544D02*
X136775090Y-93722082D01*
X140224781Y-93721340D02*
X140130499Y-93688009D01*
X136775090Y-93722082D02*
X136869379Y-93688769D01*
X140130499Y-93688009D02*
X140033934Y-93662024D01*
X136869379Y-93688769D02*
X136965950Y-93662802D01*
X140033934Y-93662024D02*
X139935657Y-93643538D01*
X136965950Y-93662802D02*
X137064231Y-93644335D01*
X139935657Y-93643538D02*
X139836250Y-93632661D01*
X137064231Y-93644335D02*
X137163641Y-93633477D01*
X139836250Y-93632661D02*
X139736301Y-93629457D01*
X137163641Y-93633477D02*
X137263592Y-93630292D01*
X137263592Y-93630292D02*
X139736301Y-93629457D01*
X135956294Y-91120452D02*
X135963972Y-91220157D01*
X141044043Y-91119867D02*
X141036347Y-91219570D01*
X135963972Y-91220157D02*
X135979291Y-91318977D01*
X141036347Y-91219570D02*
X141021010Y-91318386D01*
X135979291Y-91318977D02*
X136002161Y-91416327D01*
X141021010Y-91318386D02*
X140998123Y-91415731D01*
X136002161Y-91416327D02*
X136032446Y-91511631D01*
X140998123Y-91415731D02*
X140967821Y-91511029D01*
X136032446Y-91511631D02*
X136069967Y-91604325D01*
X140967821Y-91511029D02*
X140930283Y-91603716D01*
X136069967Y-91604325D02*
X136114502Y-91693861D01*
X140930283Y-91603716D02*
X140885732Y-91693243D01*
X136114502Y-91693861D02*
X136165788Y-91779709D01*
X140885732Y-91693243D02*
X140834431Y-91779081D01*
X136165788Y-91779709D02*
X136223521Y-91861361D01*
X140834431Y-91779081D02*
X140776684Y-91860722D01*
X136223521Y-91861361D02*
X136287359Y-91938334D01*
X140776684Y-91860722D02*
X140712832Y-91937683D01*
X136287359Y-91938334D02*
X136356925Y-92010172D01*
X140712832Y-91937683D02*
X140643253Y-92009508D01*
X136356925Y-92010172D02*
X136431807Y-92076450D01*
X140643253Y-92009508D02*
X140568359Y-92075772D01*
X136431807Y-92076450D02*
X136511562Y-92136776D01*
X140568359Y-92075772D02*
X140488593Y-92136083D01*
X136511562Y-92136776D02*
X136595718Y-92190793D01*
X140488593Y-92136083D02*
X140404427Y-92190084D01*
X136595718Y-92190793D02*
X136683777Y-92238181D01*
X140404427Y-92190084D02*
X140316359Y-92237456D01*
X136683777Y-92238181D02*
X136775218Y-92278660D01*
X140316359Y-92237456D02*
X140224910Y-92277918D01*
X136775218Y-92278660D02*
X136869500Y-92311991D01*
X140224910Y-92277918D02*
X140130621Y-92311231D01*
X136869500Y-92311991D02*
X136966065Y-92337976D01*
X140130621Y-92311231D02*
X140034050Y-92337198D01*
X136966065Y-92337976D02*
X137064342Y-92356462D01*
X140034050Y-92337198D02*
X139935769Y-92355665D01*
X137064342Y-92356462D02*
X137163749Y-92367339D01*
X139935769Y-92355665D02*
X139836359Y-92366523D01*
X137163749Y-92367339D02*
X137263698Y-92370543D01*
X139836359Y-92366523D02*
X139736408Y-92369708D01*
X137263698Y-92370543D02*
X139736408Y-92369708D01*
X141043705Y-84879548D02*
X141218911Y-85183013D01*
X141044043Y-81119867D02*
X141268911Y-80730385D01*
X135956294Y-81120452D02*
X135781088Y-80816987D01*
X135955957Y-84880133D02*
X135731089Y-85269615D01*
X135956294Y-81120452D02*
X135963972Y-81220157D01*
X141044043Y-81119867D02*
X141036347Y-81219570D01*
X135963972Y-81220157D02*
X135979291Y-81318977D01*
X141036347Y-81219570D02*
X141021010Y-81318386D01*
X135979291Y-81318977D02*
X136002161Y-81416327D01*
X141021010Y-81318386D02*
X140998123Y-81415731D01*
X136002161Y-81416327D02*
X136032446Y-81511631D01*
X140998123Y-81415731D02*
X140967821Y-81511029D01*
X136032446Y-81511631D02*
X136069967Y-81604325D01*
X140967821Y-81511029D02*
X140930283Y-81603716D01*
X136069967Y-81604325D02*
X136114502Y-81693861D01*
X140930283Y-81603716D02*
X140885732Y-81693243D01*
X136114502Y-81693861D02*
X136165788Y-81779709D01*
X140885732Y-81693243D02*
X140834431Y-81779081D01*
X136165788Y-81779709D02*
X136223521Y-81861361D01*
X140834431Y-81779081D02*
X140776684Y-81860722D01*
X136223521Y-81861361D02*
X136287359Y-81938334D01*
X140776684Y-81860722D02*
X140712832Y-81937683D01*
X136287359Y-81938334D02*
X136356925Y-82010172D01*
X140712832Y-81937683D02*
X140643253Y-82009508D01*
X136356925Y-82010172D02*
X136431807Y-82076450D01*
X140643253Y-82009508D02*
X140568359Y-82075772D01*
X136431807Y-82076450D02*
X136511562Y-82136776D01*
X140568359Y-82075772D02*
X140488593Y-82136083D01*
X136511562Y-82136776D02*
X136595718Y-82190793D01*
X140488593Y-82136083D02*
X140404427Y-82190084D01*
X136595718Y-82190793D02*
X136683777Y-82238181D01*
X140404427Y-82190084D02*
X140316359Y-82237456D01*
X136683777Y-82238181D02*
X136775218Y-82278660D01*
X140316359Y-82237456D02*
X140224910Y-82277918D01*
X136775218Y-82278660D02*
X136869500Y-82311991D01*
X140224910Y-82277918D02*
X140130621Y-82311231D01*
X136869500Y-82311991D02*
X136966065Y-82337976D01*
X140130621Y-82311231D02*
X140034050Y-82337198D01*
X136966065Y-82337976D02*
X137064342Y-82356462D01*
X140034050Y-82337198D02*
X139935769Y-82355665D01*
X137064342Y-82356462D02*
X137163749Y-82367339D01*
X139935769Y-82355665D02*
X139836359Y-82366523D01*
X137163749Y-82367339D02*
X137263698Y-82370543D01*
X139836359Y-82366523D02*
X139736408Y-82369708D01*
X139736408Y-82369708D02*
X137263698Y-82370543D01*
X141043705Y-84879548D02*
X141036027Y-84779843D01*
X135955957Y-84880133D02*
X135963653Y-84780430D01*
X141036027Y-84779843D02*
X141020708Y-84681023D01*
X135963653Y-84780430D02*
X135978990Y-84681614D01*
X141020708Y-84681023D02*
X140997838Y-84583673D01*
X135978990Y-84681614D02*
X136001877Y-84584269D01*
X140997838Y-84583673D02*
X140967553Y-84488369D01*
X136001877Y-84584269D02*
X136032179Y-84488971D01*
X140967553Y-84488369D02*
X140930032Y-84395675D01*
X136032179Y-84488971D02*
X136069717Y-84396284D01*
X140930032Y-84395675D02*
X140885497Y-84306139D01*
X136069717Y-84396284D02*
X136114268Y-84306757D01*
X140885497Y-84306139D02*
X140834211Y-84220291D01*
X136114268Y-84306757D02*
X136165569Y-84220919D01*
X140834211Y-84220291D02*
X140776478Y-84138639D01*
X136165569Y-84220919D02*
X136223316Y-84139278D01*
X140776478Y-84138639D02*
X140712640Y-84061666D01*
X136223316Y-84139278D02*
X136287168Y-84062317D01*
X140712640Y-84061666D02*
X140643074Y-83989828D01*
X136287168Y-84062317D02*
X136356747Y-83990492D01*
X140643074Y-83989828D02*
X140568192Y-83923550D01*
X136356747Y-83990492D02*
X136431641Y-83924228D01*
X140568192Y-83923550D02*
X140488437Y-83863224D01*
X136431641Y-83924228D02*
X136511407Y-83863917D01*
X140488437Y-83863224D02*
X140404281Y-83809207D01*
X136511407Y-83863917D02*
X136595573Y-83809916D01*
X140404281Y-83809207D02*
X140316222Y-83761819D01*
X136595573Y-83809916D02*
X136683641Y-83762544D01*
X140316222Y-83761819D02*
X140224781Y-83721340D01*
X136683641Y-83762544D02*
X136775090Y-83722082D01*
X140224781Y-83721340D02*
X140130499Y-83688009D01*
X136775090Y-83722082D02*
X136869379Y-83688769D01*
X140130499Y-83688009D02*
X140033934Y-83662024D01*
X136869379Y-83688769D02*
X136965950Y-83662802D01*
X140033934Y-83662024D02*
X139935657Y-83643538D01*
X136965950Y-83662802D02*
X137064231Y-83644335D01*
X139935657Y-83643538D02*
X139836250Y-83632661D01*
X137064231Y-83644335D02*
X137163641Y-83633477D01*
X139836250Y-83632661D02*
X139736301Y-83629457D01*
X137163641Y-83633477D02*
X137263592Y-83630292D01*
X139736301Y-83629457D02*
X137263592Y-83630292D01*
X141043705Y-74879548D02*
X141218911Y-75183013D01*
X141044043Y-71119867D02*
X141268911Y-70730385D01*
X135956294Y-71120452D02*
X135781088Y-70816987D01*
X135955957Y-74880133D02*
X135731089Y-75269615D01*
X135956294Y-71120452D02*
X135963972Y-71220157D01*
X141044043Y-71119867D02*
X141036347Y-71219570D01*
X135963972Y-71220157D02*
X135979291Y-71318977D01*
X141036347Y-71219570D02*
X141021010Y-71318386D01*
X135979291Y-71318977D02*
X136002161Y-71416327D01*
X141021010Y-71318386D02*
X140998123Y-71415731D01*
X136002161Y-71416327D02*
X136032446Y-71511631D01*
X140998123Y-71415731D02*
X140967821Y-71511029D01*
X136032446Y-71511631D02*
X136069967Y-71604325D01*
X140967821Y-71511029D02*
X140930283Y-71603716D01*
X136069967Y-71604325D02*
X136114502Y-71693861D01*
X140930283Y-71603716D02*
X140885732Y-71693243D01*
X136114502Y-71693861D02*
X136165788Y-71779709D01*
X140885732Y-71693243D02*
X140834431Y-71779081D01*
X136165788Y-71779709D02*
X136223521Y-71861361D01*
X140834431Y-71779081D02*
X140776684Y-71860722D01*
X136223521Y-71861361D02*
X136287359Y-71938334D01*
X140776684Y-71860722D02*
X140712832Y-71937683D01*
X136287359Y-71938334D02*
X136356925Y-72010172D01*
X140712832Y-71937683D02*
X140643253Y-72009508D01*
X136356925Y-72010172D02*
X136431807Y-72076450D01*
X140643253Y-72009508D02*
X140568359Y-72075772D01*
X136431807Y-72076450D02*
X136511562Y-72136776D01*
X140568359Y-72075772D02*
X140488593Y-72136083D01*
X136511562Y-72136776D02*
X136595718Y-72190793D01*
X140488593Y-72136083D02*
X140404427Y-72190084D01*
X136595718Y-72190793D02*
X136683777Y-72238181D01*
X140404427Y-72190084D02*
X140316359Y-72237456D01*
X136683777Y-72238181D02*
X136775218Y-72278660D01*
X140316359Y-72237456D02*
X140224910Y-72277918D01*
X136775218Y-72278660D02*
X136869500Y-72311991D01*
X140224910Y-72277918D02*
X140130621Y-72311231D01*
X136869500Y-72311991D02*
X136966065Y-72337976D01*
X140130621Y-72311231D02*
X140034050Y-72337198D01*
X136966065Y-72337976D02*
X137064342Y-72356462D01*
X140034050Y-72337198D02*
X139935769Y-72355665D01*
X137064342Y-72356462D02*
X137163749Y-72367339D01*
X139935769Y-72355665D02*
X139836359Y-72366523D01*
X137163749Y-72367339D02*
X137263698Y-72370543D01*
X139836359Y-72366523D02*
X139736408Y-72369708D01*
X139736408Y-72369708D02*
X137263698Y-72370543D01*
X141043705Y-74879548D02*
X141036027Y-74779843D01*
X135955957Y-74880133D02*
X135963653Y-74780430D01*
X141036027Y-74779843D02*
X141020708Y-74681023D01*
X135963653Y-74780430D02*
X135978990Y-74681614D01*
X141020708Y-74681023D02*
X140997838Y-74583673D01*
X135978990Y-74681614D02*
X136001877Y-74584269D01*
X140997838Y-74583673D02*
X140967553Y-74488369D01*
X136001877Y-74584269D02*
X136032179Y-74488971D01*
X140967553Y-74488369D02*
X140930032Y-74395675D01*
X136032179Y-74488971D02*
X136069717Y-74396284D01*
X140930032Y-74395675D02*
X140885497Y-74306139D01*
X136069717Y-74396284D02*
X136114268Y-74306757D01*
X140885497Y-74306139D02*
X140834211Y-74220291D01*
X136114268Y-74306757D02*
X136165569Y-74220919D01*
X140834211Y-74220291D02*
X140776478Y-74138639D01*
X136165569Y-74220919D02*
X136223316Y-74139278D01*
X140776478Y-74138639D02*
X140712640Y-74061666D01*
X136223316Y-74139278D02*
X136287168Y-74062317D01*
X140712640Y-74061666D02*
X140643074Y-73989828D01*
X136287168Y-74062317D02*
X136356747Y-73990492D01*
X140643074Y-73989828D02*
X140568192Y-73923550D01*
X136356747Y-73990492D02*
X136431641Y-73924228D01*
X140568192Y-73923550D02*
X140488437Y-73863224D01*
X136431641Y-73924228D02*
X136511407Y-73863917D01*
X140488437Y-73863224D02*
X140404281Y-73809207D01*
X136511407Y-73863917D02*
X136595573Y-73809916D01*
X140404281Y-73809207D02*
X140316222Y-73761819D01*
X136595573Y-73809916D02*
X136683641Y-73762544D01*
X140316222Y-73761819D02*
X140224781Y-73721340D01*
X136683641Y-73762544D02*
X136775090Y-73722082D01*
X140224781Y-73721340D02*
X140130499Y-73688009D01*
X136775090Y-73722082D02*
X136869379Y-73688769D01*
X140130499Y-73688009D02*
X140033934Y-73662024D01*
X136869379Y-73688769D02*
X136965950Y-73662802D01*
X140033934Y-73662024D02*
X139935657Y-73643538D01*
X136965950Y-73662802D02*
X137064231Y-73644335D01*
X139935657Y-73643538D02*
X139836250Y-73632661D01*
X137064231Y-73644335D02*
X137163641Y-73633477D01*
X139836250Y-73632661D02*
X139736301Y-73629457D01*
X137163641Y-73633477D02*
X137263592Y-73630292D01*
X139736301Y-73629457D02*
X137263592Y-73630292D01*
X134892193Y-75981187D02*
X135632779Y-75359761D01*
X131107807Y-75981187D02*
X130290617Y-75295483D01*
X131107807Y-80018813D02*
X130367221Y-80640238D01*
X134892193Y-80018813D02*
X135709383Y-80704517D01*
X131107807Y-80018813D02*
X131207511Y-80011126D01*
X131107807Y-75981187D02*
X131207511Y-75988874D01*
X131207511Y-80011126D02*
X131306329Y-79995798D01*
X131207511Y-75988874D02*
X131306329Y-76004202D01*
X131306329Y-79995798D02*
X131403676Y-79972920D01*
X131306329Y-76004202D02*
X131403676Y-76027080D01*
X131403676Y-79972920D02*
X131498976Y-79942627D01*
X131403676Y-76027080D02*
X131498976Y-76057373D01*
X131498976Y-79942627D02*
X131591666Y-79905098D01*
X131498976Y-76057373D02*
X131591666Y-76094902D01*
X131591666Y-79905098D02*
X131681197Y-79860555D01*
X131591666Y-76094902D02*
X131681197Y-76139445D01*
X131681197Y-79860555D02*
X131767039Y-79809262D01*
X131681197Y-76139445D02*
X131767039Y-76190738D01*
X131767039Y-79809262D02*
X131848684Y-79751522D01*
X131767039Y-76190738D02*
X131848684Y-76248478D01*
X131848684Y-79751522D02*
X131925649Y-79687677D01*
X131848684Y-76248478D02*
X131925649Y-76312323D01*
X131925649Y-79687677D02*
X131997479Y-79618105D01*
X131925649Y-76312323D02*
X131997479Y-76381895D01*
X131997479Y-79618105D02*
X132063749Y-79543218D01*
X131997479Y-76381895D02*
X132063749Y-76456782D01*
X132063749Y-79543218D02*
X132124067Y-79463459D01*
X132063749Y-76456782D02*
X132124067Y-76536541D01*
X132124067Y-79463459D02*
X132178076Y-79379300D01*
X132124067Y-76536541D02*
X132178076Y-76620700D01*
X132178076Y-79379300D02*
X132225456Y-79291239D01*
X132178076Y-76620700D02*
X132225456Y-76708761D01*
X132225456Y-79291239D02*
X132265927Y-79199797D01*
X132225456Y-76708761D02*
X132265927Y-76800203D01*
X132265927Y-79199797D02*
X132299249Y-79105515D01*
X132265927Y-76800203D02*
X132299249Y-76894485D01*
X132299249Y-79105515D02*
X132325225Y-79008951D01*
X132299249Y-76894485D02*
X132325225Y-76991049D01*
X132325225Y-79008951D02*
X132343702Y-78910676D01*
X132325225Y-76991049D02*
X132343702Y-77089324D01*
X132343702Y-78910676D02*
X132354570Y-78811271D01*
X132343702Y-77089324D02*
X132354570Y-77188729D01*
X132354570Y-78811271D02*
X132357765Y-78711325D01*
X132354570Y-77188729D02*
X132357765Y-77288675D01*
X132357765Y-77288675D02*
X132357765Y-78711325D01*
X134892193Y-80018813D02*
X134792489Y-80011126D01*
X134892193Y-75981187D02*
X134792489Y-75988874D01*
X134792489Y-80011126D02*
X134693671Y-79995798D01*
X134792489Y-75988874D02*
X134693671Y-76004202D01*
X134693671Y-79995798D02*
X134596324Y-79972920D01*
X134693671Y-76004202D02*
X134596324Y-76027080D01*
X134596324Y-79972920D02*
X134501024Y-79942627D01*
X134596324Y-76027080D02*
X134501024Y-76057373D01*
X134501024Y-79942627D02*
X134408334Y-79905098D01*
X134501024Y-76057373D02*
X134408334Y-76094902D01*
X134408334Y-79905098D02*
X134318803Y-79860555D01*
X134408334Y-76094902D02*
X134318803Y-76139445D01*
X134318803Y-79860555D02*
X134232961Y-79809262D01*
X134318803Y-76139445D02*
X134232961Y-76190738D01*
X134232961Y-79809262D02*
X134151316Y-79751522D01*
X134232961Y-76190738D02*
X134151316Y-76248478D01*
X134151316Y-79751522D02*
X134074351Y-79687677D01*
X134151316Y-76248478D02*
X134074351Y-76312323D01*
X134074351Y-79687677D02*
X134002521Y-79618105D01*
X134074351Y-76312323D02*
X134002521Y-76381895D01*
X134002521Y-79618105D02*
X133936251Y-79543218D01*
X134002521Y-76381895D02*
X133936251Y-76456782D01*
X133936251Y-79543218D02*
X133875933Y-79463459D01*
X133936251Y-76456782D02*
X133875933Y-76536541D01*
X133875933Y-79463459D02*
X133821924Y-79379300D01*
X133875933Y-76536541D02*
X133821924Y-76620700D01*
X133821924Y-79379300D02*
X133774544Y-79291239D01*
X133821924Y-76620700D02*
X133774544Y-76708761D01*
X133774544Y-79291239D02*
X133734073Y-79199797D01*
X133774544Y-76708761D02*
X133734073Y-76800203D01*
X133734073Y-79199797D02*
X133700751Y-79105515D01*
X133734073Y-76800203D02*
X133700751Y-76894485D01*
X133700751Y-79105515D02*
X133674775Y-79008951D01*
X133700751Y-76894485D02*
X133674775Y-76991049D01*
X133674775Y-79008951D02*
X133656298Y-78910676D01*
X133674775Y-76991049D02*
X133656298Y-77089324D01*
X133656298Y-78910676D02*
X133645430Y-78811271D01*
X133656298Y-77089324D02*
X133645430Y-77188729D01*
X133645430Y-78811271D02*
X133642235Y-78711325D01*
X133645430Y-77188729D02*
X133642235Y-77288675D01*
X133642235Y-77288675D02*
X133642235Y-78711325D01*
X127000000Y-70999996D02*
X127000000Y-67000000D01*
X130043705Y-74879548D02*
X130218911Y-75183013D01*
X130044043Y-71119867D02*
X130268911Y-70730385D01*
X130043705Y-74879548D02*
X130036027Y-74779843D01*
X130036027Y-74779843D02*
X130020708Y-74681023D01*
X130020708Y-74681023D02*
X129997838Y-74583673D01*
X129997838Y-74583673D02*
X129967553Y-74488369D01*
X129967553Y-74488369D02*
X129930032Y-74395675D01*
X129930032Y-74395675D02*
X129885497Y-74306139D01*
X129885497Y-74306139D02*
X129834211Y-74220291D01*
X127000000Y-75000016D02*
X127007687Y-74900312D01*
X129834211Y-74220291D02*
X129776478Y-74138639D01*
X127007687Y-74900312D02*
X127023015Y-74801494D01*
X129776478Y-74138639D02*
X129712640Y-74061666D01*
X127023015Y-74801494D02*
X127045893Y-74704147D01*
X129712640Y-74061666D02*
X129643074Y-73989828D01*
X127045893Y-74704147D02*
X127076186Y-74608847D01*
X129643074Y-73989828D02*
X129568192Y-73923550D01*
X127076186Y-74608847D02*
X127113715Y-74516157D01*
X129568192Y-73923550D02*
X129488437Y-73863224D01*
X127113715Y-74516157D02*
X127158258Y-74426626D01*
X129488437Y-73863224D02*
X129404281Y-73809207D01*
X127158258Y-74426626D02*
X127209551Y-74340784D01*
X129404281Y-73809207D02*
X129316222Y-73761819D01*
X127209551Y-74340784D02*
X127267291Y-74259139D01*
X129316222Y-73761819D02*
X129224781Y-73721340D01*
X127267291Y-74259139D02*
X127331136Y-74182174D01*
X129224781Y-73721340D02*
X129130499Y-73688009D01*
X127331136Y-74182174D02*
X127400708Y-74110344D01*
X129130499Y-73688009D02*
X129033934Y-73662024D01*
X127400708Y-74110344D02*
X127475595Y-74044074D01*
X129033934Y-73662024D02*
X128935657Y-73643538D01*
X127475595Y-74044074D02*
X127555354Y-73983756D01*
X128935657Y-73643538D02*
X128836250Y-73632661D01*
X127555354Y-73983756D02*
X127639513Y-73929747D01*
X128836250Y-73632661D02*
X128736301Y-73629457D01*
X127639513Y-73929747D02*
X127727574Y-73882367D01*
X128736301Y-73629457D02*
X128636401Y-73633945D01*
X127727574Y-73882367D02*
X127819016Y-73841896D01*
X128636401Y-73633945D02*
X128537142Y-73646099D01*
X127819016Y-73841896D02*
X127913298Y-73808574D01*
X128537142Y-73646099D02*
X128439111Y-73665847D01*
X127913298Y-73808574D02*
X128439111Y-73665847D01*
X130044043Y-71119867D02*
X130036347Y-71219570D01*
X130036347Y-71219570D02*
X130021010Y-71318386D01*
X130021010Y-71318386D02*
X129998123Y-71415731D01*
X129998123Y-71415731D02*
X129967821Y-71511029D01*
X129967821Y-71511029D02*
X129930283Y-71603716D01*
X129930283Y-71603716D02*
X129885732Y-71693243D01*
X129885732Y-71693243D02*
X129834431Y-71779081D01*
X127000000Y-70999996D02*
X127007687Y-71099700D01*
X129834431Y-71779081D02*
X129776684Y-71860722D01*
X127007687Y-71099700D02*
X127023015Y-71198518D01*
X129776684Y-71860722D02*
X129712832Y-71937683D01*
X127023015Y-71198518D02*
X127045893Y-71295865D01*
X129712832Y-71937683D02*
X129643253Y-72009508D01*
X127045893Y-71295865D02*
X127076186Y-71391165D01*
X129643253Y-72009508D02*
X129568359Y-72075772D01*
X127076186Y-71391165D02*
X127113715Y-71483855D01*
X129568359Y-72075772D02*
X129488593Y-72136083D01*
X127113715Y-71483855D02*
X127158258Y-71573386D01*
X129488593Y-72136083D02*
X129404427Y-72190084D01*
X127158258Y-71573386D02*
X127209551Y-71659228D01*
X129404427Y-72190084D02*
X129316359Y-72237456D01*
X127209551Y-71659228D02*
X127267291Y-71740873D01*
X129316359Y-72237456D02*
X129224910Y-72277918D01*
X127267291Y-71740873D02*
X127331136Y-71817838D01*
X129224910Y-72277918D02*
X129130621Y-72311231D01*
X127331136Y-71817838D02*
X127400708Y-71889668D01*
X129130621Y-72311231D02*
X129034050Y-72337198D01*
X127400708Y-71889668D02*
X127475595Y-71955938D01*
X129034050Y-72337198D02*
X128935769Y-72355665D01*
X127475595Y-71955938D02*
X127555354Y-72016256D01*
X128935769Y-72355665D02*
X128836359Y-72366523D01*
X127555354Y-72016256D02*
X127639513Y-72070265D01*
X128836359Y-72366523D02*
X128736408Y-72369708D01*
X127639513Y-72070265D02*
X127727574Y-72117645D01*
X128736408Y-72369708D02*
X128636508Y-72365201D01*
X127727574Y-72117645D02*
X127819016Y-72158116D01*
X128636508Y-72365201D02*
X128537250Y-72353028D01*
X127819016Y-72158116D02*
X127913298Y-72191438D01*
X128537250Y-72353028D02*
X128439221Y-72333261D01*
X127913298Y-72191438D02*
X128439221Y-72333261D01*
X127000000Y-105000004D02*
X127000000Y-109000000D01*
X130043705Y-104879548D02*
X130218911Y-105183013D01*
X130044043Y-101119867D02*
X130268911Y-100730385D01*
X130043705Y-104879548D02*
X130036027Y-104779843D01*
X130036027Y-104779843D02*
X130020708Y-104681023D01*
X130020708Y-104681023D02*
X129997838Y-104583673D01*
X129997838Y-104583673D02*
X129967553Y-104488369D01*
X129967553Y-104488369D02*
X129930032Y-104395675D01*
X129930032Y-104395675D02*
X129885497Y-104306139D01*
X129885497Y-104306139D02*
X129834211Y-104220291D01*
X127000000Y-105000004D02*
X127007687Y-104900300D01*
X129834211Y-104220291D02*
X129776478Y-104138639D01*
X127007687Y-104900300D02*
X127023015Y-104801482D01*
X129776478Y-104138639D02*
X129712640Y-104061666D01*
X127023015Y-104801482D02*
X127045893Y-104704135D01*
X129712640Y-104061666D02*
X129643074Y-103989828D01*
X127045893Y-104704135D02*
X127076186Y-104608835D01*
X129643074Y-103989828D02*
X129568192Y-103923550D01*
X127076186Y-104608835D02*
X127113715Y-104516145D01*
X129568192Y-103923550D02*
X129488437Y-103863224D01*
X127113715Y-104516145D02*
X127158258Y-104426614D01*
X129488437Y-103863224D02*
X129404281Y-103809207D01*
X127158258Y-104426614D02*
X127209551Y-104340772D01*
X129404281Y-103809207D02*
X129316222Y-103761819D01*
X127209551Y-104340772D02*
X127267291Y-104259127D01*
X129316222Y-103761819D02*
X129224781Y-103721340D01*
X127267291Y-104259127D02*
X127331136Y-104182162D01*
X129224781Y-103721340D02*
X129130499Y-103688009D01*
X127331136Y-104182162D02*
X127400708Y-104110332D01*
X129130499Y-103688009D02*
X129033934Y-103662024D01*
X127400708Y-104110332D02*
X127475595Y-104044062D01*
X129033934Y-103662024D02*
X128935657Y-103643538D01*
X127475595Y-104044062D02*
X127555354Y-103983744D01*
X128935657Y-103643538D02*
X128836250Y-103632661D01*
X127555354Y-103983744D02*
X127639513Y-103929735D01*
X128836250Y-103632661D02*
X128736301Y-103629457D01*
X127639513Y-103929735D02*
X127727574Y-103882355D01*
X128736301Y-103629457D02*
X128636401Y-103633945D01*
X127727574Y-103882355D02*
X127819016Y-103841884D01*
X128636401Y-103633945D02*
X128537142Y-103646099D01*
X127819016Y-103841884D02*
X127913298Y-103808562D01*
X128537142Y-103646099D02*
X128439111Y-103665847D01*
X127913298Y-103808562D02*
X128439111Y-103665847D01*
X130044043Y-101119867D02*
X130036347Y-101219570D01*
X130036347Y-101219570D02*
X130021010Y-101318386D01*
X130021010Y-101318386D02*
X129998123Y-101415731D01*
X129998123Y-101415731D02*
X129967821Y-101511029D01*
X129967821Y-101511029D02*
X129930283Y-101603716D01*
X129930283Y-101603716D02*
X129885732Y-101693243D01*
X129885732Y-101693243D02*
X129834431Y-101779081D01*
X127000000Y-101000018D02*
X127007687Y-101099722D01*
X129834431Y-101779081D02*
X129776684Y-101860722D01*
X127007687Y-101099722D02*
X127023015Y-101198540D01*
X129776684Y-101860722D02*
X129712832Y-101937683D01*
X127023015Y-101198540D02*
X127045893Y-101295887D01*
X129712832Y-101937683D02*
X129643253Y-102009508D01*
X127045893Y-101295887D02*
X127076186Y-101391187D01*
X129643253Y-102009508D02*
X129568359Y-102075772D01*
X127076186Y-101391187D02*
X127113715Y-101483877D01*
X129568359Y-102075772D02*
X129488593Y-102136083D01*
X127113715Y-101483877D02*
X127158258Y-101573408D01*
X129488593Y-102136083D02*
X129404427Y-102190084D01*
X127158258Y-101573408D02*
X127209551Y-101659250D01*
X129404427Y-102190084D02*
X129316359Y-102237456D01*
X127209551Y-101659250D02*
X127267291Y-101740895D01*
X129316359Y-102237456D02*
X129224910Y-102277918D01*
X127267291Y-101740895D02*
X127331136Y-101817860D01*
X129224910Y-102277918D02*
X129130621Y-102311231D01*
X127331136Y-101817860D02*
X127400708Y-101889690D01*
X129130621Y-102311231D02*
X129034050Y-102337198D01*
X127400708Y-101889690D02*
X127475595Y-101955960D01*
X129034050Y-102337198D02*
X128935769Y-102355665D01*
X127475595Y-101955960D02*
X127555354Y-102016278D01*
X128935769Y-102355665D02*
X128836359Y-102366523D01*
X127555354Y-102016278D02*
X127639513Y-102070287D01*
X128836359Y-102366523D02*
X128736408Y-102369708D01*
X127639513Y-102070287D02*
X127727574Y-102117667D01*
X128736408Y-102369708D02*
X128636508Y-102365201D01*
X127727574Y-102117667D02*
X127819016Y-102158138D01*
X128636508Y-102365201D02*
X128537250Y-102353028D01*
X127819016Y-102158138D02*
X127913298Y-102191460D01*
X128537250Y-102353028D02*
X128439221Y-102333261D01*
X127913298Y-102191460D02*
X128439221Y-102333261D01*
X127000000Y-95000004D02*
X127000000Y-101000018D01*
X130043705Y-94879548D02*
X130218911Y-95183013D01*
X130044043Y-91119867D02*
X130268911Y-90730385D01*
X130043705Y-94879548D02*
X130036027Y-94779843D01*
X130036027Y-94779843D02*
X130020708Y-94681023D01*
X130020708Y-94681023D02*
X129997838Y-94583673D01*
X129997838Y-94583673D02*
X129967553Y-94488369D01*
X129967553Y-94488369D02*
X129930032Y-94395675D01*
X129930032Y-94395675D02*
X129885497Y-94306139D01*
X129885497Y-94306139D02*
X129834211Y-94220291D01*
X127000000Y-95000004D02*
X127007687Y-94900300D01*
X129834211Y-94220291D02*
X129776478Y-94138639D01*
X127007687Y-94900300D02*
X127023015Y-94801482D01*
X129776478Y-94138639D02*
X129712640Y-94061666D01*
X127023015Y-94801482D02*
X127045893Y-94704135D01*
X129712640Y-94061666D02*
X129643074Y-93989828D01*
X127045893Y-94704135D02*
X127076186Y-94608835D01*
X129643074Y-93989828D02*
X129568192Y-93923550D01*
X127076186Y-94608835D02*
X127113715Y-94516145D01*
X129568192Y-93923550D02*
X129488437Y-93863224D01*
X127113715Y-94516145D02*
X127158258Y-94426614D01*
X129488437Y-93863224D02*
X129404281Y-93809207D01*
X127158258Y-94426614D02*
X127209551Y-94340772D01*
X129404281Y-93809207D02*
X129316222Y-93761819D01*
X127209551Y-94340772D02*
X127267291Y-94259127D01*
X129316222Y-93761819D02*
X129224781Y-93721340D01*
X127267291Y-94259127D02*
X127331136Y-94182162D01*
X129224781Y-93721340D02*
X129130499Y-93688009D01*
X127331136Y-94182162D02*
X127400708Y-94110332D01*
X129130499Y-93688009D02*
X129033934Y-93662024D01*
X127400708Y-94110332D02*
X127475595Y-94044062D01*
X129033934Y-93662024D02*
X128935657Y-93643538D01*
X127475595Y-94044062D02*
X127555354Y-93983744D01*
X128935657Y-93643538D02*
X128836250Y-93632661D01*
X127555354Y-93983744D02*
X127639513Y-93929735D01*
X128836250Y-93632661D02*
X128736301Y-93629457D01*
X127639513Y-93929735D02*
X127727574Y-93882355D01*
X128736301Y-93629457D02*
X128636401Y-93633945D01*
X127727574Y-93882355D02*
X127819016Y-93841884D01*
X128636401Y-93633945D02*
X128537142Y-93646099D01*
X127819016Y-93841884D02*
X127913298Y-93808562D01*
X128537142Y-93646099D02*
X128439111Y-93665847D01*
X127913298Y-93808562D02*
X128439111Y-93665847D01*
X130044043Y-91119867D02*
X130036347Y-91219570D01*
X130036347Y-91219570D02*
X130021010Y-91318386D01*
X130021010Y-91318386D02*
X129998123Y-91415731D01*
X129998123Y-91415731D02*
X129967821Y-91511029D01*
X129967821Y-91511029D02*
X129930283Y-91603716D01*
X129930283Y-91603716D02*
X129885732Y-91693243D01*
X129885732Y-91693243D02*
X129834431Y-91779081D01*
X127000000Y-90999986D02*
X127007687Y-91099690D01*
X129834431Y-91779081D02*
X129776684Y-91860722D01*
X127007687Y-91099690D02*
X127023015Y-91198508D01*
X129776684Y-91860722D02*
X129712832Y-91937683D01*
X127023015Y-91198508D02*
X127045893Y-91295855D01*
X129712832Y-91937683D02*
X129643253Y-92009508D01*
X127045893Y-91295855D02*
X127076186Y-91391155D01*
X129643253Y-92009508D02*
X129568359Y-92075772D01*
X127076186Y-91391155D02*
X127113715Y-91483845D01*
X129568359Y-92075772D02*
X129488593Y-92136083D01*
X127113715Y-91483845D02*
X127158258Y-91573376D01*
X129488593Y-92136083D02*
X129404427Y-92190084D01*
X127158258Y-91573376D02*
X127209551Y-91659218D01*
X129404427Y-92190084D02*
X129316359Y-92237456D01*
X127209551Y-91659218D02*
X127267291Y-91740863D01*
X129316359Y-92237456D02*
X129224910Y-92277918D01*
X127267291Y-91740863D02*
X127331136Y-91817828D01*
X129224910Y-92277918D02*
X129130621Y-92311231D01*
X127331136Y-91817828D02*
X127400708Y-91889658D01*
X129130621Y-92311231D02*
X129034050Y-92337198D01*
X127400708Y-91889658D02*
X127475595Y-91955928D01*
X129034050Y-92337198D02*
X128935769Y-92355665D01*
X127475595Y-91955928D02*
X127555354Y-92016246D01*
X128935769Y-92355665D02*
X128836359Y-92366523D01*
X127555354Y-92016246D02*
X127639513Y-92070255D01*
X128836359Y-92366523D02*
X128736408Y-92369708D01*
X127639513Y-92070255D02*
X127727574Y-92117635D01*
X128736408Y-92369708D02*
X128636508Y-92365201D01*
X127727574Y-92117635D02*
X127819016Y-92158106D01*
X128636508Y-92365201D02*
X128537250Y-92353028D01*
X127819016Y-92158106D02*
X127913298Y-92191428D01*
X128537250Y-92353028D02*
X128439221Y-92333261D01*
X127913298Y-92191428D02*
X128439221Y-92333261D01*
X127000000Y-84999996D02*
X127000000Y-90999986D01*
X127000000Y-81000004D02*
X127000000Y-75000016D01*
X130043705Y-84879548D02*
X130218911Y-85183013D01*
X130044043Y-81119867D02*
X130268911Y-80730385D01*
X130043705Y-84879548D02*
X130036027Y-84779843D01*
X130036027Y-84779843D02*
X130020708Y-84681023D01*
X130020708Y-84681023D02*
X129997838Y-84583673D01*
X129997838Y-84583673D02*
X129967553Y-84488369D01*
X129967553Y-84488369D02*
X129930032Y-84395675D01*
X129930032Y-84395675D02*
X129885497Y-84306139D01*
X129885497Y-84306139D02*
X129834211Y-84220291D01*
X127000000Y-84999996D02*
X127007687Y-84900292D01*
X129834211Y-84220291D02*
X129776478Y-84138639D01*
X127007687Y-84900292D02*
X127023015Y-84801474D01*
X129776478Y-84138639D02*
X129712640Y-84061666D01*
X127023015Y-84801474D02*
X127045893Y-84704127D01*
X129712640Y-84061666D02*
X129643074Y-83989828D01*
X127045893Y-84704127D02*
X127076186Y-84608827D01*
X129643074Y-83989828D02*
X129568192Y-83923550D01*
X127076186Y-84608827D02*
X127113715Y-84516137D01*
X129568192Y-83923550D02*
X129488437Y-83863224D01*
X127113715Y-84516137D02*
X127158258Y-84426606D01*
X129488437Y-83863224D02*
X129404281Y-83809207D01*
X127158258Y-84426606D02*
X127209551Y-84340764D01*
X129404281Y-83809207D02*
X129316222Y-83761819D01*
X127209551Y-84340764D02*
X127267291Y-84259119D01*
X129316222Y-83761819D02*
X129224781Y-83721340D01*
X127267291Y-84259119D02*
X127331136Y-84182154D01*
X129224781Y-83721340D02*
X129130499Y-83688009D01*
X127331136Y-84182154D02*
X127400708Y-84110324D01*
X129130499Y-83688009D02*
X129033934Y-83662024D01*
X127400708Y-84110324D02*
X127475595Y-84044054D01*
X129033934Y-83662024D02*
X128935657Y-83643538D01*
X127475595Y-84044054D02*
X127555354Y-83983736D01*
X128935657Y-83643538D02*
X128836250Y-83632661D01*
X127555354Y-83983736D02*
X127639513Y-83929727D01*
X128836250Y-83632661D02*
X128736301Y-83629457D01*
X127639513Y-83929727D02*
X127727574Y-83882347D01*
X128736301Y-83629457D02*
X128636401Y-83633945D01*
X127727574Y-83882347D02*
X127819016Y-83841876D01*
X128636401Y-83633945D02*
X128537142Y-83646099D01*
X127819016Y-83841876D02*
X127913298Y-83808554D01*
X128537142Y-83646099D02*
X128439111Y-83665847D01*
X127913298Y-83808554D02*
X128439111Y-83665847D01*
X130044043Y-81119867D02*
X130036347Y-81219570D01*
X130036347Y-81219570D02*
X130021010Y-81318386D01*
X130021010Y-81318386D02*
X129998123Y-81415731D01*
X129998123Y-81415731D02*
X129967821Y-81511029D01*
X129967821Y-81511029D02*
X129930283Y-81603716D01*
X129930283Y-81603716D02*
X129885732Y-81693243D01*
X129885732Y-81693243D02*
X129834431Y-81779081D01*
X127000000Y-81000004D02*
X127007687Y-81099708D01*
X129834431Y-81779081D02*
X129776684Y-81860722D01*
X127007687Y-81099708D02*
X127023015Y-81198526D01*
X129776684Y-81860722D02*
X129712832Y-81937683D01*
X127023015Y-81198526D02*
X127045893Y-81295873D01*
X129712832Y-81937683D02*
X129643253Y-82009508D01*
X127045893Y-81295873D02*
X127076186Y-81391173D01*
X129643253Y-82009508D02*
X129568359Y-82075772D01*
X127076186Y-81391173D02*
X127113715Y-81483863D01*
X129568359Y-82075772D02*
X129488593Y-82136083D01*
X127113715Y-81483863D02*
X127158258Y-81573394D01*
X129488593Y-82136083D02*
X129404427Y-82190084D01*
X127158258Y-81573394D02*
X127209551Y-81659236D01*
X129404427Y-82190084D02*
X129316359Y-82237456D01*
X127209551Y-81659236D02*
X127267291Y-81740881D01*
X129316359Y-82237456D02*
X129224910Y-82277918D01*
X127267291Y-81740881D02*
X127331136Y-81817846D01*
X129224910Y-82277918D02*
X129130621Y-82311231D01*
X127331136Y-81817846D02*
X127400708Y-81889676D01*
X129130621Y-82311231D02*
X129034050Y-82337198D01*
X127400708Y-81889676D02*
X127475595Y-81955946D01*
X129034050Y-82337198D02*
X128935769Y-82355665D01*
X127475595Y-81955946D02*
X127555354Y-82016264D01*
X128935769Y-82355665D02*
X128836359Y-82366523D01*
X127555354Y-82016264D02*
X127639513Y-82070273D01*
X128836359Y-82366523D02*
X128736408Y-82369708D01*
X127639513Y-82070273D02*
X127727574Y-82117653D01*
X128736408Y-82369708D02*
X128636508Y-82365201D01*
X127727574Y-82117653D02*
X127819016Y-82158124D01*
X128636508Y-82365201D02*
X128537250Y-82353028D01*
X127819016Y-82158124D02*
X127913298Y-82191446D01*
X128537250Y-82353028D02*
X128439221Y-82333261D01*
X127913298Y-82191446D02*
X128439221Y-82333261D01*
X167999998Y-109000000D02*
X173000000Y-109000000D01*
X167892193Y-105981187D02*
X168632779Y-105359761D01*
X164107807Y-105981187D02*
X163290617Y-105295483D01*
X167892193Y-105981187D02*
X167792489Y-105988874D01*
X167792489Y-105988874D02*
X167693671Y-106004202D01*
X167693671Y-106004202D02*
X167596324Y-106027080D01*
X167596324Y-106027080D02*
X167501024Y-106057373D01*
X167501024Y-106057373D02*
X167408334Y-106094902D01*
X167408334Y-106094902D02*
X167318803Y-106139445D01*
X167318803Y-106139445D02*
X167232961Y-106190738D01*
X167999998Y-109000000D02*
X167900294Y-108992313D01*
X167232961Y-106190738D02*
X167151316Y-106248478D01*
X167900294Y-108992313D02*
X167801476Y-108976985D01*
X167151316Y-106248478D02*
X167074351Y-106312323D01*
X167801476Y-108976985D02*
X167704129Y-108954107D01*
X167074351Y-106312323D02*
X167002521Y-106381895D01*
X167704129Y-108954107D02*
X167608829Y-108923814D01*
X167002521Y-106381895D02*
X166936251Y-106456782D01*
X167608829Y-108923814D02*
X167516139Y-108886285D01*
X166936251Y-106456782D02*
X166875933Y-106536541D01*
X167516139Y-108886285D02*
X167426608Y-108841742D01*
X166875933Y-106536541D02*
X166821924Y-106620700D01*
X167426608Y-108841742D02*
X167340766Y-108790449D01*
X166821924Y-106620700D02*
X166774544Y-106708761D01*
X167340766Y-108790449D02*
X167259121Y-108732709D01*
X166774544Y-106708761D02*
X166734073Y-106800203D01*
X167259121Y-108732709D02*
X167182156Y-108668864D01*
X166734073Y-106800203D02*
X166700751Y-106894485D01*
X167182156Y-108668864D02*
X167110326Y-108599292D01*
X166700751Y-106894485D02*
X166674775Y-106991049D01*
X167110326Y-108599292D02*
X167044056Y-108524405D01*
X166674775Y-106991049D02*
X166656298Y-107089324D01*
X167044056Y-108524405D02*
X166983738Y-108444646D01*
X166656298Y-107089324D02*
X166645430Y-107188729D01*
X166983738Y-108444646D02*
X166929729Y-108360487D01*
X166645430Y-107188729D02*
X166642235Y-107288675D01*
X166929729Y-108360487D02*
X166882349Y-108272426D01*
X166642235Y-107288675D02*
X166646732Y-107388571D01*
X166882349Y-108272426D02*
X166841878Y-108180984D01*
X166646732Y-107388571D02*
X166658894Y-107487826D01*
X166841878Y-108180984D02*
X166808556Y-108086702D01*
X166658894Y-107487826D02*
X166678649Y-107585852D01*
X166808556Y-108086702D02*
X166782580Y-107990138D01*
X166782580Y-107990138D02*
X166678649Y-107585852D01*
X164107807Y-105981187D02*
X164207511Y-105988874D01*
X164207511Y-105988874D02*
X164306329Y-106004202D01*
X164306329Y-106004202D02*
X164403676Y-106027080D01*
X164403676Y-106027080D02*
X164498976Y-106057373D01*
X164498976Y-106057373D02*
X164591666Y-106094902D01*
X164591666Y-106094902D02*
X164681197Y-106139445D01*
X164681197Y-106139445D02*
X164767039Y-106190738D01*
X164000002Y-109000000D02*
X164099706Y-108992313D01*
X164767039Y-106190738D02*
X164848684Y-106248478D01*
X164099706Y-108992313D02*
X164198524Y-108976985D01*
X164848684Y-106248478D02*
X164925649Y-106312323D01*
X164198524Y-108976985D02*
X164295871Y-108954107D01*
X164925649Y-106312323D02*
X164997479Y-106381895D01*
X164295871Y-108954107D02*
X164391171Y-108923814D01*
X164997479Y-106381895D02*
X165063749Y-106456782D01*
X164391171Y-108923814D02*
X164483861Y-108886285D01*
X165063749Y-106456782D02*
X165124067Y-106536541D01*
X164483861Y-108886285D02*
X164573392Y-108841742D01*
X165124067Y-106536541D02*
X165178076Y-106620700D01*
X164573392Y-108841742D02*
X164659234Y-108790449D01*
X165178076Y-106620700D02*
X165225456Y-106708761D01*
X164659234Y-108790449D02*
X164740879Y-108732709D01*
X165225456Y-106708761D02*
X165265927Y-106800203D01*
X164740879Y-108732709D02*
X164817844Y-108668864D01*
X165265927Y-106800203D02*
X165299249Y-106894485D01*
X164817844Y-108668864D02*
X164889674Y-108599292D01*
X165299249Y-106894485D02*
X165325225Y-106991049D01*
X164889674Y-108599292D02*
X164955944Y-108524405D01*
X165325225Y-106991049D02*
X165343702Y-107089324D01*
X164955944Y-108524405D02*
X165016262Y-108444646D01*
X165343702Y-107089324D02*
X165354570Y-107188729D01*
X165016262Y-108444646D02*
X165070271Y-108360487D01*
X165354570Y-107188729D02*
X165357765Y-107288675D01*
X165070271Y-108360487D02*
X165117651Y-108272426D01*
X165357765Y-107288675D02*
X165353268Y-107388571D01*
X165117651Y-108272426D02*
X165158122Y-108180984D01*
X165353268Y-107388571D02*
X165341106Y-107487826D01*
X165158122Y-108180984D02*
X165191444Y-108086702D01*
X165341106Y-107487826D02*
X165321351Y-107585852D01*
X165191444Y-108086702D02*
X165217420Y-107990138D01*
X165217420Y-107990138D02*
X165321351Y-107585852D01*
X156999998Y-109000000D02*
X164000002Y-109000000D01*
X156892193Y-105981187D02*
X157632779Y-105359761D01*
X153107807Y-105981187D02*
X152290617Y-105295483D01*
X156892193Y-105981187D02*
X156792489Y-105988874D01*
X156792489Y-105988874D02*
X156693671Y-106004202D01*
X156693671Y-106004202D02*
X156596324Y-106027080D01*
X156596324Y-106027080D02*
X156501024Y-106057373D01*
X156501024Y-106057373D02*
X156408334Y-106094902D01*
X156408334Y-106094902D02*
X156318803Y-106139445D01*
X156318803Y-106139445D02*
X156232961Y-106190738D01*
X156999998Y-109000000D02*
X156900294Y-108992313D01*
X156232961Y-106190738D02*
X156151316Y-106248478D01*
X156900294Y-108992313D02*
X156801476Y-108976985D01*
X156151316Y-106248478D02*
X156074351Y-106312323D01*
X156801476Y-108976985D02*
X156704129Y-108954107D01*
X156074351Y-106312323D02*
X156002521Y-106381895D01*
X156704129Y-108954107D02*
X156608829Y-108923814D01*
X156002521Y-106381895D02*
X155936251Y-106456782D01*
X156608829Y-108923814D02*
X156516139Y-108886285D01*
X155936251Y-106456782D02*
X155875933Y-106536541D01*
X156516139Y-108886285D02*
X156426608Y-108841742D01*
X155875933Y-106536541D02*
X155821924Y-106620700D01*
X156426608Y-108841742D02*
X156340766Y-108790449D01*
X155821924Y-106620700D02*
X155774544Y-106708761D01*
X156340766Y-108790449D02*
X156259121Y-108732709D01*
X155774544Y-106708761D02*
X155734073Y-106800203D01*
X156259121Y-108732709D02*
X156182156Y-108668864D01*
X155734073Y-106800203D02*
X155700751Y-106894485D01*
X156182156Y-108668864D02*
X156110326Y-108599292D01*
X155700751Y-106894485D02*
X155674775Y-106991049D01*
X156110326Y-108599292D02*
X156044056Y-108524405D01*
X155674775Y-106991049D02*
X155656298Y-107089324D01*
X156044056Y-108524405D02*
X155983738Y-108444646D01*
X155656298Y-107089324D02*
X155645430Y-107188729D01*
X155983738Y-108444646D02*
X155929729Y-108360487D01*
X155645430Y-107188729D02*
X155642235Y-107288675D01*
X155929729Y-108360487D02*
X155882349Y-108272426D01*
X155642235Y-107288675D02*
X155646732Y-107388571D01*
X155882349Y-108272426D02*
X155841878Y-108180984D01*
X155646732Y-107388571D02*
X155658894Y-107487826D01*
X155841878Y-108180984D02*
X155808556Y-108086702D01*
X155658894Y-107487826D02*
X155678649Y-107585852D01*
X155808556Y-108086702D02*
X155782580Y-107990138D01*
X155782580Y-107990138D02*
X155678649Y-107585852D01*
X153107807Y-105981187D02*
X153207511Y-105988874D01*
X153207511Y-105988874D02*
X153306329Y-106004202D01*
X153306329Y-106004202D02*
X153403676Y-106027080D01*
X153403676Y-106027080D02*
X153498976Y-106057373D01*
X153498976Y-106057373D02*
X153591666Y-106094902D01*
X153591666Y-106094902D02*
X153681197Y-106139445D01*
X153681197Y-106139445D02*
X153767039Y-106190738D01*
X153000016Y-109000000D02*
X153099720Y-108992313D01*
X153767039Y-106190738D02*
X153848684Y-106248478D01*
X153099720Y-108992313D02*
X153198538Y-108976985D01*
X153848684Y-106248478D02*
X153925649Y-106312323D01*
X153198538Y-108976985D02*
X153295885Y-108954107D01*
X153925649Y-106312323D02*
X153997479Y-106381895D01*
X153295885Y-108954107D02*
X153391185Y-108923814D01*
X153997479Y-106381895D02*
X154063749Y-106456782D01*
X153391185Y-108923814D02*
X153483875Y-108886285D01*
X154063749Y-106456782D02*
X154124067Y-106536541D01*
X153483875Y-108886285D02*
X153573406Y-108841742D01*
X154124067Y-106536541D02*
X154178076Y-106620700D01*
X153573406Y-108841742D02*
X153659248Y-108790449D01*
X154178076Y-106620700D02*
X154225456Y-106708761D01*
X153659248Y-108790449D02*
X153740893Y-108732709D01*
X154225456Y-106708761D02*
X154265927Y-106800203D01*
X153740893Y-108732709D02*
X153817858Y-108668864D01*
X154265927Y-106800203D02*
X154299249Y-106894485D01*
X153817858Y-108668864D02*
X153889688Y-108599292D01*
X154299249Y-106894485D02*
X154325225Y-106991049D01*
X153889688Y-108599292D02*
X153955958Y-108524405D01*
X154325225Y-106991049D02*
X154343702Y-107089324D01*
X153955958Y-108524405D02*
X154016276Y-108444646D01*
X154343702Y-107089324D02*
X154354570Y-107188729D01*
X154016276Y-108444646D02*
X154070285Y-108360487D01*
X154354570Y-107188729D02*
X154357765Y-107288675D01*
X154070285Y-108360487D02*
X154117665Y-108272426D01*
X154357765Y-107288675D02*
X154353268Y-107388571D01*
X154117665Y-108272426D02*
X154158136Y-108180984D01*
X154353268Y-107388571D02*
X154341106Y-107487826D01*
X154158136Y-108180984D02*
X154191458Y-108086702D01*
X154341106Y-107487826D02*
X154321351Y-107585852D01*
X154191458Y-108086702D02*
X154217434Y-107990138D01*
X154217434Y-107990138D02*
X154321351Y-107585852D01*
X146000002Y-109000000D02*
X153000016Y-109000000D01*
X145892193Y-105981187D02*
X146632779Y-105359761D01*
X142107807Y-105981187D02*
X141290617Y-105295483D01*
X145892193Y-105981187D02*
X145792489Y-105988874D01*
X145792489Y-105988874D02*
X145693671Y-106004202D01*
X145693671Y-106004202D02*
X145596324Y-106027080D01*
X145596324Y-106027080D02*
X145501024Y-106057373D01*
X145501024Y-106057373D02*
X145408334Y-106094902D01*
X145408334Y-106094902D02*
X145318803Y-106139445D01*
X145318803Y-106139445D02*
X145232961Y-106190738D01*
X146000002Y-109000000D02*
X145900298Y-108992313D01*
X145232961Y-106190738D02*
X145151316Y-106248478D01*
X145900298Y-108992313D02*
X145801480Y-108976985D01*
X145151316Y-106248478D02*
X145074351Y-106312323D01*
X145801480Y-108976985D02*
X145704133Y-108954107D01*
X145074351Y-106312323D02*
X145002521Y-106381895D01*
X145704133Y-108954107D02*
X145608833Y-108923814D01*
X145002521Y-106381895D02*
X144936251Y-106456782D01*
X145608833Y-108923814D02*
X145516143Y-108886285D01*
X144936251Y-106456782D02*
X144875933Y-106536541D01*
X145516143Y-108886285D02*
X145426612Y-108841742D01*
X144875933Y-106536541D02*
X144821924Y-106620700D01*
X145426612Y-108841742D02*
X145340770Y-108790449D01*
X144821924Y-106620700D02*
X144774544Y-106708761D01*
X145340770Y-108790449D02*
X145259125Y-108732709D01*
X144774544Y-106708761D02*
X144734073Y-106800203D01*
X145259125Y-108732709D02*
X145182160Y-108668864D01*
X144734073Y-106800203D02*
X144700751Y-106894485D01*
X145182160Y-108668864D02*
X145110330Y-108599292D01*
X144700751Y-106894485D02*
X144674775Y-106991049D01*
X145110330Y-108599292D02*
X145044060Y-108524405D01*
X144674775Y-106991049D02*
X144656298Y-107089324D01*
X145044060Y-108524405D02*
X144983742Y-108444646D01*
X144656298Y-107089324D02*
X144645430Y-107188729D01*
X144983742Y-108444646D02*
X144929733Y-108360487D01*
X144645430Y-107188729D02*
X144642235Y-107288675D01*
X144929733Y-108360487D02*
X144882353Y-108272426D01*
X144642235Y-107288675D02*
X144646732Y-107388571D01*
X144882353Y-108272426D02*
X144841882Y-108180984D01*
X144646732Y-107388571D02*
X144658894Y-107487826D01*
X144841882Y-108180984D02*
X144808560Y-108086702D01*
X144658894Y-107487826D02*
X144678649Y-107585852D01*
X144808560Y-108086702D02*
X144782584Y-107990138D01*
X144782584Y-107990138D02*
X144678649Y-107585852D01*
X142107807Y-105981187D02*
X142207511Y-105988874D01*
X142207511Y-105988874D02*
X142306329Y-106004202D01*
X142306329Y-106004202D02*
X142403676Y-106027080D01*
X142403676Y-106027080D02*
X142498976Y-106057373D01*
X142498976Y-106057373D02*
X142591666Y-106094902D01*
X142591666Y-106094902D02*
X142681197Y-106139445D01*
X142681197Y-106139445D02*
X142767039Y-106190738D01*
X141999984Y-109000000D02*
X142099688Y-108992313D01*
X142767039Y-106190738D02*
X142848684Y-106248478D01*
X142099688Y-108992313D02*
X142198506Y-108976985D01*
X142848684Y-106248478D02*
X142925649Y-106312323D01*
X142198506Y-108976985D02*
X142295853Y-108954107D01*
X142925649Y-106312323D02*
X142997479Y-106381895D01*
X142295853Y-108954107D02*
X142391153Y-108923814D01*
X142997479Y-106381895D02*
X143063749Y-106456782D01*
X142391153Y-108923814D02*
X142483843Y-108886285D01*
X143063749Y-106456782D02*
X143124067Y-106536541D01*
X142483843Y-108886285D02*
X142573374Y-108841742D01*
X143124067Y-106536541D02*
X143178076Y-106620700D01*
X142573374Y-108841742D02*
X142659216Y-108790449D01*
X143178076Y-106620700D02*
X143225456Y-106708761D01*
X142659216Y-108790449D02*
X142740861Y-108732709D01*
X143225456Y-106708761D02*
X143265927Y-106800203D01*
X142740861Y-108732709D02*
X142817826Y-108668864D01*
X143265927Y-106800203D02*
X143299249Y-106894485D01*
X142817826Y-108668864D02*
X142889656Y-108599292D01*
X143299249Y-106894485D02*
X143325225Y-106991049D01*
X142889656Y-108599292D02*
X142955926Y-108524405D01*
X143325225Y-106991049D02*
X143343702Y-107089324D01*
X142955926Y-108524405D02*
X143016244Y-108444646D01*
X143343702Y-107089324D02*
X143354570Y-107188729D01*
X143016244Y-108444646D02*
X143070253Y-108360487D01*
X143354570Y-107188729D02*
X143357765Y-107288675D01*
X143070253Y-108360487D02*
X143117633Y-108272426D01*
X143357765Y-107288675D02*
X143353268Y-107388571D01*
X143117633Y-108272426D02*
X143158104Y-108180984D01*
X143353268Y-107388571D02*
X143341106Y-107487826D01*
X143158104Y-108180984D02*
X143191426Y-108086702D01*
X143341106Y-107487826D02*
X143321351Y-107585852D01*
X143191426Y-108086702D02*
X143217402Y-107990138D01*
X143217402Y-107990138D02*
X143321351Y-107585852D01*
X134999994Y-109000000D02*
X141999984Y-109000000D01*
X130999996Y-109000000D02*
X127000000Y-109000000D01*
X134892193Y-105981187D02*
X135632779Y-105359761D01*
X131107807Y-105981187D02*
X130290617Y-105295483D01*
X134892193Y-105981187D02*
X134792489Y-105988874D01*
X134792489Y-105988874D02*
X134693671Y-106004202D01*
X134693671Y-106004202D02*
X134596324Y-106027080D01*
X134596324Y-106027080D02*
X134501024Y-106057373D01*
X134501024Y-106057373D02*
X134408334Y-106094902D01*
X134408334Y-106094902D02*
X134318803Y-106139445D01*
X134318803Y-106139445D02*
X134232961Y-106190738D01*
X134999994Y-109000000D02*
X134900290Y-108992313D01*
X134232961Y-106190738D02*
X134151316Y-106248478D01*
X134900290Y-108992313D02*
X134801472Y-108976985D01*
X134151316Y-106248478D02*
X134074351Y-106312323D01*
X134801472Y-108976985D02*
X134704125Y-108954107D01*
X134074351Y-106312323D02*
X134002521Y-106381895D01*
X134704125Y-108954107D02*
X134608825Y-108923814D01*
X134002521Y-106381895D02*
X133936251Y-106456782D01*
X134608825Y-108923814D02*
X134516135Y-108886285D01*
X133936251Y-106456782D02*
X133875933Y-106536541D01*
X134516135Y-108886285D02*
X134426604Y-108841742D01*
X133875933Y-106536541D02*
X133821924Y-106620700D01*
X134426604Y-108841742D02*
X134340762Y-108790449D01*
X133821924Y-106620700D02*
X133774544Y-106708761D01*
X134340762Y-108790449D02*
X134259117Y-108732709D01*
X133774544Y-106708761D02*
X133734073Y-106800203D01*
X134259117Y-108732709D02*
X134182152Y-108668864D01*
X133734073Y-106800203D02*
X133700751Y-106894485D01*
X134182152Y-108668864D02*
X134110322Y-108599292D01*
X133700751Y-106894485D02*
X133674775Y-106991049D01*
X134110322Y-108599292D02*
X134044052Y-108524405D01*
X133674775Y-106991049D02*
X133656298Y-107089324D01*
X134044052Y-108524405D02*
X133983734Y-108444646D01*
X133656298Y-107089324D02*
X133645430Y-107188729D01*
X133983734Y-108444646D02*
X133929725Y-108360487D01*
X133645430Y-107188729D02*
X133642235Y-107288675D01*
X133929725Y-108360487D02*
X133882345Y-108272426D01*
X133642235Y-107288675D02*
X133646732Y-107388571D01*
X133882345Y-108272426D02*
X133841874Y-108180984D01*
X133646732Y-107388571D02*
X133658894Y-107487826D01*
X133841874Y-108180984D02*
X133808552Y-108086702D01*
X133658894Y-107487826D02*
X133678649Y-107585852D01*
X133808552Y-108086702D02*
X133782576Y-107990138D01*
X133782576Y-107990138D02*
X133678649Y-107585852D01*
X131107807Y-105981187D02*
X131207511Y-105988874D01*
X131207511Y-105988874D02*
X131306329Y-106004202D01*
X131306329Y-106004202D02*
X131403676Y-106027080D01*
X131403676Y-106027080D02*
X131498976Y-106057373D01*
X131498976Y-106057373D02*
X131591666Y-106094902D01*
X131591666Y-106094902D02*
X131681197Y-106139445D01*
X131681197Y-106139445D02*
X131767039Y-106190738D01*
X130999996Y-109000000D02*
X131099700Y-108992313D01*
X131767039Y-106190738D02*
X131848684Y-106248478D01*
X131099700Y-108992313D02*
X131198518Y-108976985D01*
X131848684Y-106248478D02*
X131925649Y-106312323D01*
X131198518Y-108976985D02*
X131295865Y-108954107D01*
X131925649Y-106312323D02*
X131997479Y-106381895D01*
X131295865Y-108954107D02*
X131391165Y-108923814D01*
X131997479Y-106381895D02*
X132063749Y-106456782D01*
X131391165Y-108923814D02*
X131483855Y-108886285D01*
X132063749Y-106456782D02*
X132124067Y-106536541D01*
X131483855Y-108886285D02*
X131573386Y-108841742D01*
X132124067Y-106536541D02*
X132178076Y-106620700D01*
X131573386Y-108841742D02*
X131659228Y-108790449D01*
X132178076Y-106620700D02*
X132225456Y-106708761D01*
X131659228Y-108790449D02*
X131740873Y-108732709D01*
X132225456Y-106708761D02*
X132265927Y-106800203D01*
X131740873Y-108732709D02*
X131817838Y-108668864D01*
X132265927Y-106800203D02*
X132299249Y-106894485D01*
X131817838Y-108668864D02*
X131889668Y-108599292D01*
X132299249Y-106894485D02*
X132325225Y-106991049D01*
X131889668Y-108599292D02*
X131955938Y-108524405D01*
X132325225Y-106991049D02*
X132343702Y-107089324D01*
X131955938Y-108524405D02*
X132016256Y-108444646D01*
X132343702Y-107089324D02*
X132354570Y-107188729D01*
X132016256Y-108444646D02*
X132070265Y-108360487D01*
X132354570Y-107188729D02*
X132357765Y-107288675D01*
X132070265Y-108360487D02*
X132117645Y-108272426D01*
X132357765Y-107288675D02*
X132353268Y-107388571D01*
X132117645Y-108272426D02*
X132158116Y-108180984D01*
X132353268Y-107388571D02*
X132341106Y-107487826D01*
X132158116Y-108180984D02*
X132191438Y-108086702D01*
X132341106Y-107487826D02*
X132321351Y-107585852D01*
X132191438Y-108086702D02*
X132217414Y-107990138D01*
X132217414Y-107990138D02*
X132321351Y-107585852D01*
X131107807Y-70018813D02*
X130367221Y-70640238D01*
X134892193Y-70018813D02*
X135709383Y-70704517D01*
X130999996Y-67000000D02*
X127000000Y-67000000D01*
X134892193Y-70018813D02*
X134792489Y-70011126D01*
X134792489Y-70011126D02*
X134693671Y-69995798D01*
X134693671Y-69995798D02*
X134596324Y-69972920D01*
X134596324Y-69972920D02*
X134501024Y-69942627D01*
X134501024Y-69942627D02*
X134408334Y-69905098D01*
X134408334Y-69905098D02*
X134318803Y-69860555D01*
X134318803Y-69860555D02*
X134232961Y-69809262D01*
X135000000Y-67000000D02*
X134900296Y-67007687D01*
X134232961Y-69809262D02*
X134151316Y-69751522D01*
X134900296Y-67007687D02*
X134801478Y-67023015D01*
X134151316Y-69751522D02*
X134074351Y-69687677D01*
X134801478Y-67023015D02*
X134704131Y-67045893D01*
X134074351Y-69687677D02*
X134002521Y-69618105D01*
X134704131Y-67045893D02*
X134608831Y-67076186D01*
X134002521Y-69618105D02*
X133936251Y-69543218D01*
X134608831Y-67076186D02*
X134516141Y-67113715D01*
X133936251Y-69543218D02*
X133875933Y-69463459D01*
X134516141Y-67113715D02*
X134426610Y-67158258D01*
X133875933Y-69463459D02*
X133821924Y-69379300D01*
X134426610Y-67158258D02*
X134340768Y-67209551D01*
X133821924Y-69379300D02*
X133774544Y-69291239D01*
X134340768Y-67209551D02*
X134259123Y-67267291D01*
X133774544Y-69291239D02*
X133734073Y-69199797D01*
X134259123Y-67267291D02*
X134182158Y-67331136D01*
X133734073Y-69199797D02*
X133700751Y-69105515D01*
X134182158Y-67331136D02*
X134110328Y-67400708D01*
X133700751Y-69105515D02*
X133674775Y-69008951D01*
X134110328Y-67400708D02*
X134044058Y-67475595D01*
X133674775Y-69008951D02*
X133656298Y-68910676D01*
X134044058Y-67475595D02*
X133983740Y-67555354D01*
X133656298Y-68910676D02*
X133645430Y-68811271D01*
X133983740Y-67555354D02*
X133929731Y-67639513D01*
X133645430Y-68811271D02*
X133642235Y-68711325D01*
X133929731Y-67639513D02*
X133882351Y-67727574D01*
X133642235Y-68711325D02*
X133646732Y-68611429D01*
X133882351Y-67727574D02*
X133841880Y-67819016D01*
X133646732Y-68611429D02*
X133658894Y-68512174D01*
X133841880Y-67819016D02*
X133808558Y-67913298D01*
X133658894Y-68512174D02*
X133678649Y-68414148D01*
X133808558Y-67913298D02*
X133782582Y-68009862D01*
X133678649Y-68414148D02*
X133782582Y-68009862D01*
X131107807Y-70018813D02*
X131207511Y-70011126D01*
X131207511Y-70011126D02*
X131306329Y-69995798D01*
X131306329Y-69995798D02*
X131403676Y-69972920D01*
X131403676Y-69972920D02*
X131498976Y-69942627D01*
X131498976Y-69942627D02*
X131591666Y-69905098D01*
X131591666Y-69905098D02*
X131681197Y-69860555D01*
X131681197Y-69860555D02*
X131767039Y-69809262D01*
X130999996Y-67000000D02*
X131099700Y-67007687D01*
X131767039Y-69809262D02*
X131848684Y-69751522D01*
X131099700Y-67007687D02*
X131198518Y-67023015D01*
X131848684Y-69751522D02*
X131925649Y-69687677D01*
X131198518Y-67023015D02*
X131295865Y-67045893D01*
X131925649Y-69687677D02*
X131997479Y-69618105D01*
X131295865Y-67045893D02*
X131391165Y-67076186D01*
X131997479Y-69618105D02*
X132063749Y-69543218D01*
X131391165Y-67076186D02*
X131483855Y-67113715D01*
X132063749Y-69543218D02*
X132124067Y-69463459D01*
X131483855Y-67113715D02*
X131573386Y-67158258D01*
X132124067Y-69463459D02*
X132178076Y-69379300D01*
X131573386Y-67158258D02*
X131659228Y-67209551D01*
X132178076Y-69379300D02*
X132225456Y-69291239D01*
X131659228Y-67209551D02*
X131740873Y-67267291D01*
X132225456Y-69291239D02*
X132265927Y-69199797D01*
X131740873Y-67267291D02*
X131817838Y-67331136D01*
X132265927Y-69199797D02*
X132299249Y-69105515D01*
X131817838Y-67331136D02*
X131889668Y-67400708D01*
X132299249Y-69105515D02*
X132325225Y-69008951D01*
X131889668Y-67400708D02*
X131955938Y-67475595D01*
X132325225Y-69008951D02*
X132343702Y-68910676D01*
X131955938Y-67475595D02*
X132016256Y-67555354D01*
X132343702Y-68910676D02*
X132354570Y-68811271D01*
X132016256Y-67555354D02*
X132070265Y-67639513D01*
X132354570Y-68811271D02*
X132357765Y-68711325D01*
X132070265Y-67639513D02*
X132117645Y-67727574D01*
X132357765Y-68711325D02*
X132353268Y-68611429D01*
X132117645Y-67727574D02*
X132158116Y-67819016D01*
X132353268Y-68611429D02*
X132341106Y-68512174D01*
X132158116Y-67819016D02*
X132191438Y-67913298D01*
X132341106Y-68512174D02*
X132321351Y-68414148D01*
X132191438Y-67913298D02*
X132217414Y-68009862D01*
X132321351Y-68414148D02*
X132217414Y-68009862D01*
X142107807Y-70018813D02*
X141367221Y-70640238D01*
X145892193Y-70018813D02*
X146709383Y-70704517D01*
X142000002Y-67000000D02*
X135000000Y-67000000D01*
X145892193Y-70018813D02*
X145792489Y-70011126D01*
X145792489Y-70011126D02*
X145693671Y-69995798D01*
X145693671Y-69995798D02*
X145596324Y-69972920D01*
X145596324Y-69972920D02*
X145501024Y-69942627D01*
X145501024Y-69942627D02*
X145408334Y-69905098D01*
X145408334Y-69905098D02*
X145318803Y-69860555D01*
X145318803Y-69860555D02*
X145232961Y-69809262D01*
X146000014Y-67000000D02*
X145900310Y-67007687D01*
X145232961Y-69809262D02*
X145151316Y-69751522D01*
X145900310Y-67007687D02*
X145801492Y-67023015D01*
X145151316Y-69751522D02*
X145074351Y-69687677D01*
X145801492Y-67023015D02*
X145704145Y-67045893D01*
X145074351Y-69687677D02*
X145002521Y-69618105D01*
X145704145Y-67045893D02*
X145608845Y-67076186D01*
X145002521Y-69618105D02*
X144936251Y-69543218D01*
X145608845Y-67076186D02*
X145516155Y-67113715D01*
X144936251Y-69543218D02*
X144875933Y-69463459D01*
X145516155Y-67113715D02*
X145426624Y-67158258D01*
X144875933Y-69463459D02*
X144821924Y-69379300D01*
X145426624Y-67158258D02*
X145340782Y-67209551D01*
X144821924Y-69379300D02*
X144774544Y-69291239D01*
X145340782Y-67209551D02*
X145259137Y-67267291D01*
X144774544Y-69291239D02*
X144734073Y-69199797D01*
X145259137Y-67267291D02*
X145182172Y-67331136D01*
X144734073Y-69199797D02*
X144700751Y-69105515D01*
X145182172Y-67331136D02*
X145110342Y-67400708D01*
X144700751Y-69105515D02*
X144674775Y-69008951D01*
X145110342Y-67400708D02*
X145044072Y-67475595D01*
X144674775Y-69008951D02*
X144656298Y-68910676D01*
X145044072Y-67475595D02*
X144983754Y-67555354D01*
X144656298Y-68910676D02*
X144645430Y-68811271D01*
X144983754Y-67555354D02*
X144929745Y-67639513D01*
X144645430Y-68811271D02*
X144642235Y-68711325D01*
X144929745Y-67639513D02*
X144882365Y-67727574D01*
X144642235Y-68711325D02*
X144646732Y-68611429D01*
X144882365Y-67727574D02*
X144841894Y-67819016D01*
X144646732Y-68611429D02*
X144658894Y-68512174D01*
X144841894Y-67819016D02*
X144808572Y-67913298D01*
X144658894Y-68512174D02*
X144678649Y-68414148D01*
X144808572Y-67913298D02*
X144782596Y-68009862D01*
X144678649Y-68414148D02*
X144782596Y-68009862D01*
X142107807Y-70018813D02*
X142207511Y-70011126D01*
X142207511Y-70011126D02*
X142306329Y-69995798D01*
X142306329Y-69995798D02*
X142403676Y-69972920D01*
X142403676Y-69972920D02*
X142498976Y-69942627D01*
X142498976Y-69942627D02*
X142591666Y-69905098D01*
X142591666Y-69905098D02*
X142681197Y-69860555D01*
X142681197Y-69860555D02*
X142767039Y-69809262D01*
X142000002Y-67000000D02*
X142099706Y-67007687D01*
X142767039Y-69809262D02*
X142848684Y-69751522D01*
X142099706Y-67007687D02*
X142198524Y-67023015D01*
X142848684Y-69751522D02*
X142925649Y-69687677D01*
X142198524Y-67023015D02*
X142295871Y-67045893D01*
X142925649Y-69687677D02*
X142997479Y-69618105D01*
X142295871Y-67045893D02*
X142391171Y-67076186D01*
X142997479Y-69618105D02*
X143063749Y-69543218D01*
X142391171Y-67076186D02*
X142483861Y-67113715D01*
X143063749Y-69543218D02*
X143124067Y-69463459D01*
X142483861Y-67113715D02*
X142573392Y-67158258D01*
X143124067Y-69463459D02*
X143178076Y-69379300D01*
X142573392Y-67158258D02*
X142659234Y-67209551D01*
X143178076Y-69379300D02*
X143225456Y-69291239D01*
X142659234Y-67209551D02*
X142740879Y-67267291D01*
X143225456Y-69291239D02*
X143265927Y-69199797D01*
X142740879Y-67267291D02*
X142817844Y-67331136D01*
X143265927Y-69199797D02*
X143299249Y-69105515D01*
X142817844Y-67331136D02*
X142889674Y-67400708D01*
X143299249Y-69105515D02*
X143325225Y-69008951D01*
X142889674Y-67400708D02*
X142955944Y-67475595D01*
X143325225Y-69008951D02*
X143343702Y-68910676D01*
X142955944Y-67475595D02*
X143016262Y-67555354D01*
X143343702Y-68910676D02*
X143354570Y-68811271D01*
X143016262Y-67555354D02*
X143070271Y-67639513D01*
X143354570Y-68811271D02*
X143357765Y-68711325D01*
X143070271Y-67639513D02*
X143117651Y-67727574D01*
X143357765Y-68711325D02*
X143353268Y-68611429D01*
X143117651Y-67727574D02*
X143158122Y-67819016D01*
X143353268Y-68611429D02*
X143341106Y-68512174D01*
X143158122Y-67819016D02*
X143191444Y-67913298D01*
X143341106Y-68512174D02*
X143321351Y-68414148D01*
X143191444Y-67913298D02*
X143217420Y-68009862D01*
X143321351Y-68414148D02*
X143217420Y-68009862D01*
X153107807Y-70018813D02*
X152367221Y-70640238D01*
X156892193Y-70018813D02*
X157709383Y-70704517D01*
X153000006Y-67000000D02*
X146000014Y-67000000D01*
X156892193Y-70018813D02*
X156792489Y-70011126D01*
X156792489Y-70011126D02*
X156693671Y-69995798D01*
X156693671Y-69995798D02*
X156596324Y-69972920D01*
X156596324Y-69972920D02*
X156501024Y-69942627D01*
X156501024Y-69942627D02*
X156408334Y-69905098D01*
X156408334Y-69905098D02*
X156318803Y-69860555D01*
X156318803Y-69860555D02*
X156232961Y-69809262D01*
X157000016Y-67000000D02*
X156900312Y-67007687D01*
X156232961Y-69809262D02*
X156151316Y-69751522D01*
X156900312Y-67007687D02*
X156801494Y-67023015D01*
X156151316Y-69751522D02*
X156074351Y-69687677D01*
X156801494Y-67023015D02*
X156704147Y-67045893D01*
X156074351Y-69687677D02*
X156002521Y-69618105D01*
X156704147Y-67045893D02*
X156608847Y-67076186D01*
X156002521Y-69618105D02*
X155936251Y-69543218D01*
X156608847Y-67076186D02*
X156516157Y-67113715D01*
X155936251Y-69543218D02*
X155875933Y-69463459D01*
X156516157Y-67113715D02*
X156426626Y-67158258D01*
X155875933Y-69463459D02*
X155821924Y-69379300D01*
X156426626Y-67158258D02*
X156340784Y-67209551D01*
X155821924Y-69379300D02*
X155774544Y-69291239D01*
X156340784Y-67209551D02*
X156259139Y-67267291D01*
X155774544Y-69291239D02*
X155734073Y-69199797D01*
X156259139Y-67267291D02*
X156182174Y-67331136D01*
X155734073Y-69199797D02*
X155700751Y-69105515D01*
X156182174Y-67331136D02*
X156110344Y-67400708D01*
X155700751Y-69105515D02*
X155674775Y-69008951D01*
X156110344Y-67400708D02*
X156044074Y-67475595D01*
X155674775Y-69008951D02*
X155656298Y-68910676D01*
X156044074Y-67475595D02*
X155983756Y-67555354D01*
X155656298Y-68910676D02*
X155645430Y-68811271D01*
X155983756Y-67555354D02*
X155929747Y-67639513D01*
X155645430Y-68811271D02*
X155642235Y-68711325D01*
X155929747Y-67639513D02*
X155882367Y-67727574D01*
X155642235Y-68711325D02*
X155646732Y-68611429D01*
X155882367Y-67727574D02*
X155841896Y-67819016D01*
X155646732Y-68611429D02*
X155658894Y-68512174D01*
X155841896Y-67819016D02*
X155808574Y-67913298D01*
X155658894Y-68512174D02*
X155678649Y-68414148D01*
X155808574Y-67913298D02*
X155782598Y-68009862D01*
X155678649Y-68414148D02*
X155782598Y-68009862D01*
X153107807Y-70018813D02*
X153207511Y-70011126D01*
X153207511Y-70011126D02*
X153306329Y-69995798D01*
X153306329Y-69995798D02*
X153403676Y-69972920D01*
X153403676Y-69972920D02*
X153498976Y-69942627D01*
X153498976Y-69942627D02*
X153591666Y-69905098D01*
X153591666Y-69905098D02*
X153681197Y-69860555D01*
X153681197Y-69860555D02*
X153767039Y-69809262D01*
X153000006Y-67000000D02*
X153099710Y-67007687D01*
X153767039Y-69809262D02*
X153848684Y-69751522D01*
X153099710Y-67007687D02*
X153198528Y-67023015D01*
X153848684Y-69751522D02*
X153925649Y-69687677D01*
X153198528Y-67023015D02*
X153295875Y-67045893D01*
X153925649Y-69687677D02*
X153997479Y-69618105D01*
X153295875Y-67045893D02*
X153391175Y-67076186D01*
X153997479Y-69618105D02*
X154063749Y-69543218D01*
X153391175Y-67076186D02*
X153483865Y-67113715D01*
X154063749Y-69543218D02*
X154124067Y-69463459D01*
X153483865Y-67113715D02*
X153573396Y-67158258D01*
X154124067Y-69463459D02*
X154178076Y-69379300D01*
X153573396Y-67158258D02*
X153659238Y-67209551D01*
X154178076Y-69379300D02*
X154225456Y-69291239D01*
X153659238Y-67209551D02*
X153740883Y-67267291D01*
X154225456Y-69291239D02*
X154265927Y-69199797D01*
X153740883Y-67267291D02*
X153817848Y-67331136D01*
X154265927Y-69199797D02*
X154299249Y-69105515D01*
X153817848Y-67331136D02*
X153889678Y-67400708D01*
X154299249Y-69105515D02*
X154325225Y-69008951D01*
X153889678Y-67400708D02*
X153955948Y-67475595D01*
X154325225Y-69008951D02*
X154343702Y-68910676D01*
X153955948Y-67475595D02*
X154016266Y-67555354D01*
X154343702Y-68910676D02*
X154354570Y-68811271D01*
X154016266Y-67555354D02*
X154070275Y-67639513D01*
X154354570Y-68811271D02*
X154357765Y-68711325D01*
X154070275Y-67639513D02*
X154117655Y-67727574D01*
X154357765Y-68711325D02*
X154353268Y-68611429D01*
X154117655Y-67727574D02*
X154158126Y-67819016D01*
X154353268Y-68611429D02*
X154341106Y-68512174D01*
X154158126Y-67819016D02*
X154191448Y-67913298D01*
X154341106Y-68512174D02*
X154321351Y-68414148D01*
X154191448Y-67913298D02*
X154217424Y-68009862D01*
X154321351Y-68414148D02*
X154217424Y-68009862D01*
X164107807Y-70018813D02*
X163367221Y-70640238D01*
X167892193Y-70018813D02*
X168709383Y-70704517D01*
X164000006Y-67000000D02*
X157000016Y-67000000D01*
X167999998Y-67000000D02*
X173000000Y-67000000D01*
X167892193Y-70018813D02*
X167792489Y-70011126D01*
X167792489Y-70011126D02*
X167693671Y-69995798D01*
X167693671Y-69995798D02*
X167596324Y-69972920D01*
X167596324Y-69972920D02*
X167501024Y-69942627D01*
X167501024Y-69942627D02*
X167408334Y-69905098D01*
X167408334Y-69905098D02*
X167318803Y-69860555D01*
X167318803Y-69860555D02*
X167232961Y-69809262D01*
X167999998Y-67000000D02*
X167900294Y-67007687D01*
X167232961Y-69809262D02*
X167151316Y-69751522D01*
X167900294Y-67007687D02*
X167801476Y-67023015D01*
X167151316Y-69751522D02*
X167074351Y-69687677D01*
X167801476Y-67023015D02*
X167704129Y-67045893D01*
X167074351Y-69687677D02*
X167002521Y-69618105D01*
X167704129Y-67045893D02*
X167608829Y-67076186D01*
X167002521Y-69618105D02*
X166936251Y-69543218D01*
X167608829Y-67076186D02*
X167516139Y-67113715D01*
X166936251Y-69543218D02*
X166875933Y-69463459D01*
X167516139Y-67113715D02*
X167426608Y-67158258D01*
X166875933Y-69463459D02*
X166821924Y-69379300D01*
X167426608Y-67158258D02*
X167340766Y-67209551D01*
X166821924Y-69379300D02*
X166774544Y-69291239D01*
X167340766Y-67209551D02*
X167259121Y-67267291D01*
X166774544Y-69291239D02*
X166734073Y-69199797D01*
X167259121Y-67267291D02*
X167182156Y-67331136D01*
X166734073Y-69199797D02*
X166700751Y-69105515D01*
X167182156Y-67331136D02*
X167110326Y-67400708D01*
X166700751Y-69105515D02*
X166674775Y-69008951D01*
X167110326Y-67400708D02*
X167044056Y-67475595D01*
X166674775Y-69008951D02*
X166656298Y-68910676D01*
X167044056Y-67475595D02*
X166983738Y-67555354D01*
X166656298Y-68910676D02*
X166645430Y-68811271D01*
X166983738Y-67555354D02*
X166929729Y-67639513D01*
X166645430Y-68811271D02*
X166642235Y-68711325D01*
X166929729Y-67639513D02*
X166882349Y-67727574D01*
X166642235Y-68711325D02*
X166646732Y-68611429D01*
X166882349Y-67727574D02*
X166841878Y-67819016D01*
X166646732Y-68611429D02*
X166658894Y-68512174D01*
X166841878Y-67819016D02*
X166808556Y-67913298D01*
X166658894Y-68512174D02*
X166678649Y-68414148D01*
X166808556Y-67913298D02*
X166782580Y-68009862D01*
X166678649Y-68414148D02*
X166782580Y-68009862D01*
X164107807Y-70018813D02*
X164207511Y-70011126D01*
X164207511Y-70011126D02*
X164306329Y-69995798D01*
X164306329Y-69995798D02*
X164403676Y-69972920D01*
X164403676Y-69972920D02*
X164498976Y-69942627D01*
X164498976Y-69942627D02*
X164591666Y-69905098D01*
X164591666Y-69905098D02*
X164681197Y-69860555D01*
X164681197Y-69860555D02*
X164767039Y-69809262D01*
X164000006Y-67000000D02*
X164099710Y-67007687D01*
X164767039Y-69809262D02*
X164848684Y-69751522D01*
X164099710Y-67007687D02*
X164198528Y-67023015D01*
X164848684Y-69751522D02*
X164925649Y-69687677D01*
X164198528Y-67023015D02*
X164295875Y-67045893D01*
X164925649Y-69687677D02*
X164997479Y-69618105D01*
X164295875Y-67045893D02*
X164391175Y-67076186D01*
X164997479Y-69618105D02*
X165063749Y-69543218D01*
X164391175Y-67076186D02*
X164483865Y-67113715D01*
X165063749Y-69543218D02*
X165124067Y-69463459D01*
X164483865Y-67113715D02*
X164573396Y-67158258D01*
X165124067Y-69463459D02*
X165178076Y-69379300D01*
X164573396Y-67158258D02*
X164659238Y-67209551D01*
X165178076Y-69379300D02*
X165225456Y-69291239D01*
X164659238Y-67209551D02*
X164740883Y-67267291D01*
X165225456Y-69291239D02*
X165265927Y-69199797D01*
X164740883Y-67267291D02*
X164817848Y-67331136D01*
X165265927Y-69199797D02*
X165299249Y-69105515D01*
X164817848Y-67331136D02*
X164889678Y-67400708D01*
X165299249Y-69105515D02*
X165325225Y-69008951D01*
X164889678Y-67400708D02*
X164955948Y-67475595D01*
X165325225Y-69008951D02*
X165343702Y-68910676D01*
X164955948Y-67475595D02*
X165016266Y-67555354D01*
X165343702Y-68910676D02*
X165354570Y-68811271D01*
X165016266Y-67555354D02*
X165070275Y-67639513D01*
X165354570Y-68811271D02*
X165357765Y-68711325D01*
X165070275Y-67639513D02*
X165117655Y-67727574D01*
X165357765Y-68711325D02*
X165353268Y-68611429D01*
X165117655Y-67727574D02*
X165158126Y-67819016D01*
X165353268Y-68611429D02*
X165341106Y-68512174D01*
X165158126Y-67819016D02*
X165191448Y-67913298D01*
X165341106Y-68512174D02*
X165321351Y-68414148D01*
X165191448Y-67913298D02*
X165217424Y-68009862D01*
X165321351Y-68414148D02*
X165217424Y-68009862D01*
X168956294Y-81120452D02*
X168781088Y-80816987D01*
X168955957Y-84880133D02*
X168731089Y-85269615D01*
X168955957Y-84880133D02*
X168963653Y-84780430D01*
X168963653Y-84780430D02*
X168978990Y-84681614D01*
X168978990Y-84681614D02*
X169001877Y-84584269D01*
X173000000Y-85000024D02*
X172992313Y-84900320D01*
X169001877Y-84584269D02*
X169032179Y-84488971D01*
X172992313Y-84900320D02*
X172976985Y-84801502D01*
X169032179Y-84488971D02*
X169069717Y-84396284D01*
X172976985Y-84801502D02*
X172954107Y-84704155D01*
X169069717Y-84396284D02*
X169114268Y-84306757D01*
X172954107Y-84704155D02*
X172923814Y-84608855D01*
X169114268Y-84306757D02*
X169165569Y-84220919D01*
X172923814Y-84608855D02*
X172886285Y-84516165D01*
X169165569Y-84220919D02*
X169223316Y-84139278D01*
X172886285Y-84516165D02*
X172841742Y-84426634D01*
X169223316Y-84139278D02*
X169287168Y-84062317D01*
X172841742Y-84426634D02*
X172790449Y-84340792D01*
X169287168Y-84062317D02*
X169356747Y-83990492D01*
X172790449Y-84340792D02*
X172732709Y-84259147D01*
X169356747Y-83990492D02*
X169431641Y-83924228D01*
X172732709Y-84259147D02*
X172668864Y-84182182D01*
X169431641Y-83924228D02*
X169511407Y-83863917D01*
X172668864Y-84182182D02*
X172599292Y-84110352D01*
X169511407Y-83863917D02*
X169595573Y-83809916D01*
X172599292Y-84110352D02*
X172524405Y-84044082D01*
X169595573Y-83809916D02*
X169683641Y-83762544D01*
X172524405Y-84044082D02*
X172444646Y-83983764D01*
X169683641Y-83762544D02*
X169775090Y-83722082D01*
X172444646Y-83983764D02*
X172360487Y-83929755D01*
X169775090Y-83722082D02*
X169869379Y-83688769D01*
X172360487Y-83929755D02*
X172272426Y-83882375D01*
X169869379Y-83688769D02*
X169965950Y-83662802D01*
X172272426Y-83882375D02*
X172180984Y-83841904D01*
X169965950Y-83662802D02*
X170064231Y-83644335D01*
X172180984Y-83841904D02*
X172086702Y-83808582D01*
X170064231Y-83644335D02*
X170163641Y-83633477D01*
X172086702Y-83808582D02*
X171990138Y-83782606D01*
X170163641Y-83633477D02*
X170263592Y-83630292D01*
X171990138Y-83782606D02*
X171891863Y-83764129D01*
X170263592Y-83630292D02*
X170363492Y-83634799D01*
X171891863Y-83764129D02*
X171792458Y-83753261D01*
X170363492Y-83634799D02*
X171792458Y-83753261D01*
X168956294Y-81120452D02*
X168963972Y-81220157D01*
X168963972Y-81220157D02*
X168979291Y-81318977D01*
X168979291Y-81318977D02*
X169002161Y-81416327D01*
X173000000Y-81000000D02*
X172992313Y-81099704D01*
X169002161Y-81416327D02*
X169032446Y-81511631D01*
X172992313Y-81099704D02*
X172976985Y-81198522D01*
X169032446Y-81511631D02*
X169069967Y-81604325D01*
X172976985Y-81198522D02*
X172954107Y-81295869D01*
X169069967Y-81604325D02*
X169114502Y-81693861D01*
X172954107Y-81295869D02*
X172923814Y-81391169D01*
X169114502Y-81693861D02*
X169165788Y-81779709D01*
X172923814Y-81391169D02*
X172886285Y-81483859D01*
X169165788Y-81779709D02*
X169223521Y-81861361D01*
X172886285Y-81483859D02*
X172841742Y-81573390D01*
X169223521Y-81861361D02*
X169287359Y-81938334D01*
X172841742Y-81573390D02*
X172790449Y-81659232D01*
X169287359Y-81938334D02*
X169356925Y-82010172D01*
X172790449Y-81659232D02*
X172732709Y-81740877D01*
X169356925Y-82010172D02*
X169431807Y-82076450D01*
X172732709Y-81740877D02*
X172668864Y-81817842D01*
X169431807Y-82076450D02*
X169511562Y-82136776D01*
X172668864Y-81817842D02*
X172599292Y-81889672D01*
X169511562Y-82136776D02*
X169595718Y-82190793D01*
X172599292Y-81889672D02*
X172524405Y-81955942D01*
X169595718Y-82190793D02*
X169683777Y-82238181D01*
X172524405Y-81955942D02*
X172444646Y-82016260D01*
X169683777Y-82238181D02*
X169775218Y-82278660D01*
X172444646Y-82016260D02*
X172360487Y-82070269D01*
X169775218Y-82278660D02*
X169869500Y-82311991D01*
X172360487Y-82070269D02*
X172272426Y-82117649D01*
X169869500Y-82311991D02*
X169966065Y-82337976D01*
X172272426Y-82117649D02*
X172180984Y-82158120D01*
X169966065Y-82337976D02*
X170064342Y-82356462D01*
X172180984Y-82158120D02*
X172086702Y-82191442D01*
X170064342Y-82356462D02*
X170163749Y-82367339D01*
X172086702Y-82191442D02*
X171990138Y-82217418D01*
X170163749Y-82367339D02*
X170263698Y-82370543D01*
X171990138Y-82217418D02*
X171891863Y-82235895D01*
X170263698Y-82370543D02*
X170363598Y-82366055D01*
X171891863Y-82235895D02*
X171792458Y-82246763D01*
X170363598Y-82366055D02*
X171792458Y-82246763D01*
X173000000Y-91000006D02*
X173000000Y-85000024D01*
X168956294Y-91120452D02*
X168781088Y-90816987D01*
X168955957Y-94880133D02*
X168731089Y-95269615D01*
X168956294Y-91120452D02*
X168963972Y-91220157D01*
X168963972Y-91220157D02*
X168979291Y-91318977D01*
X168979291Y-91318977D02*
X169002161Y-91416327D01*
X173000000Y-91000006D02*
X172992313Y-91099710D01*
X169002161Y-91416327D02*
X169032446Y-91511631D01*
X172992313Y-91099710D02*
X172976985Y-91198528D01*
X169032446Y-91511631D02*
X169069967Y-91604325D01*
X172976985Y-91198528D02*
X172954107Y-91295875D01*
X169069967Y-91604325D02*
X169114502Y-91693861D01*
X172954107Y-91295875D02*
X172923814Y-91391175D01*
X169114502Y-91693861D02*
X169165788Y-91779709D01*
X172923814Y-91391175D02*
X172886285Y-91483865D01*
X169165788Y-91779709D02*
X169223521Y-91861361D01*
X172886285Y-91483865D02*
X172841742Y-91573396D01*
X169223521Y-91861361D02*
X169287359Y-91938334D01*
X172841742Y-91573396D02*
X172790449Y-91659238D01*
X169287359Y-91938334D02*
X169356925Y-92010172D01*
X172790449Y-91659238D02*
X172732709Y-91740883D01*
X169356925Y-92010172D02*
X169431807Y-92076450D01*
X172732709Y-91740883D02*
X172668864Y-91817848D01*
X169431807Y-92076450D02*
X169511562Y-92136776D01*
X172668864Y-91817848D02*
X172599292Y-91889678D01*
X169511562Y-92136776D02*
X169595718Y-92190793D01*
X172599292Y-91889678D02*
X172524405Y-91955948D01*
X169595718Y-92190793D02*
X169683777Y-92238181D01*
X172524405Y-91955948D02*
X172444646Y-92016266D01*
X169683777Y-92238181D02*
X169775218Y-92278660D01*
X172444646Y-92016266D02*
X172360487Y-92070275D01*
X169775218Y-92278660D02*
X169869500Y-92311991D01*
X172360487Y-92070275D02*
X172272426Y-92117655D01*
X169869500Y-92311991D02*
X169966065Y-92337976D01*
X172272426Y-92117655D02*
X172180984Y-92158126D01*
X169966065Y-92337976D02*
X170064342Y-92356462D01*
X172180984Y-92158126D02*
X172086702Y-92191448D01*
X170064342Y-92356462D02*
X170163749Y-92367339D01*
X172086702Y-92191448D02*
X171990138Y-92217424D01*
X170163749Y-92367339D02*
X170263698Y-92370543D01*
X171990138Y-92217424D02*
X171891863Y-92235901D01*
X170263698Y-92370543D02*
X170363598Y-92366055D01*
X171891863Y-92235901D02*
X171792458Y-92246769D01*
X171792458Y-92246769D02*
X170363598Y-92366055D01*
X168955957Y-94880133D02*
X168963653Y-94780430D01*
X168963653Y-94780430D02*
X168978990Y-94681614D01*
X168978990Y-94681614D02*
X169001877Y-94584269D01*
X173000000Y-95000000D02*
X172992313Y-94900296D01*
X169001877Y-94584269D02*
X169032179Y-94488971D01*
X172992313Y-94900296D02*
X172976985Y-94801478D01*
X169032179Y-94488971D02*
X169069717Y-94396284D01*
X172976985Y-94801478D02*
X172954107Y-94704131D01*
X169069717Y-94396284D02*
X169114268Y-94306757D01*
X172954107Y-94704131D02*
X172923814Y-94608831D01*
X169114268Y-94306757D02*
X169165569Y-94220919D01*
X172923814Y-94608831D02*
X172886285Y-94516141D01*
X169165569Y-94220919D02*
X169223316Y-94139278D01*
X172886285Y-94516141D02*
X172841742Y-94426610D01*
X169223316Y-94139278D02*
X169287168Y-94062317D01*
X172841742Y-94426610D02*
X172790449Y-94340768D01*
X169287168Y-94062317D02*
X169356747Y-93990492D01*
X172790449Y-94340768D02*
X172732709Y-94259123D01*
X169356747Y-93990492D02*
X169431641Y-93924228D01*
X172732709Y-94259123D02*
X172668864Y-94182158D01*
X169431641Y-93924228D02*
X169511407Y-93863917D01*
X172668864Y-94182158D02*
X172599292Y-94110328D01*
X169511407Y-93863917D02*
X169595573Y-93809916D01*
X172599292Y-94110328D02*
X172524405Y-94044058D01*
X169595573Y-93809916D02*
X169683641Y-93762544D01*
X172524405Y-94044058D02*
X172444646Y-93983740D01*
X169683641Y-93762544D02*
X169775090Y-93722082D01*
X172444646Y-93983740D02*
X172360487Y-93929731D01*
X169775090Y-93722082D02*
X169869379Y-93688769D01*
X172360487Y-93929731D02*
X172272426Y-93882351D01*
X169869379Y-93688769D02*
X169965950Y-93662802D01*
X172272426Y-93882351D02*
X172180984Y-93841880D01*
X169965950Y-93662802D02*
X170064231Y-93644335D01*
X172180984Y-93841880D02*
X172086702Y-93808558D01*
X170064231Y-93644335D02*
X170163641Y-93633477D01*
X172086702Y-93808558D02*
X171990138Y-93782582D01*
X170163641Y-93633477D02*
X170263592Y-93630292D01*
X171990138Y-93782582D02*
X171891863Y-93764105D01*
X170263592Y-93630292D02*
X170363492Y-93634799D01*
X171891863Y-93764105D02*
X171792458Y-93753237D01*
X171792458Y-93753237D02*
X170363492Y-93634799D01*
X168956294Y-101120452D02*
X168781088Y-100816987D01*
X168955957Y-104880133D02*
X168731089Y-105269615D01*
X173000000Y-101000000D02*
X173000000Y-95000000D01*
X173000000Y-105000004D02*
X173000000Y-109000000D01*
X168955957Y-104880133D02*
X168963653Y-104780430D01*
X168963653Y-104780430D02*
X168978990Y-104681614D01*
X168978990Y-104681614D02*
X169001877Y-104584269D01*
X173000000Y-105000004D02*
X172992313Y-104900300D01*
X169001877Y-104584269D02*
X169032179Y-104488971D01*
X172992313Y-104900300D02*
X172976985Y-104801482D01*
X169032179Y-104488971D02*
X169069717Y-104396284D01*
X172976985Y-104801482D02*
X172954107Y-104704135D01*
X169069717Y-104396284D02*
X169114268Y-104306757D01*
X172954107Y-104704135D02*
X172923814Y-104608835D01*
X169114268Y-104306757D02*
X169165569Y-104220919D01*
X172923814Y-104608835D02*
X172886285Y-104516145D01*
X169165569Y-104220919D02*
X169223316Y-104139278D01*
X172886285Y-104516145D02*
X172841742Y-104426614D01*
X169223316Y-104139278D02*
X169287168Y-104062317D01*
X172841742Y-104426614D02*
X172790449Y-104340772D01*
X169287168Y-104062317D02*
X169356747Y-103990492D01*
X172790449Y-104340772D02*
X172732709Y-104259127D01*
X169356747Y-103990492D02*
X169431641Y-103924228D01*
X172732709Y-104259127D02*
X172668864Y-104182162D01*
X169431641Y-103924228D02*
X169511407Y-103863917D01*
X172668864Y-104182162D02*
X172599292Y-104110332D01*
X169511407Y-103863917D02*
X169595573Y-103809916D01*
X172599292Y-104110332D02*
X172524405Y-104044062D01*
X169595573Y-103809916D02*
X169683641Y-103762544D01*
X172524405Y-104044062D02*
X172444646Y-103983744D01*
X169683641Y-103762544D02*
X169775090Y-103722082D01*
X172444646Y-103983744D02*
X172360487Y-103929735D01*
X169775090Y-103722082D02*
X169869379Y-103688769D01*
X172360487Y-103929735D02*
X172272426Y-103882355D01*
X169869379Y-103688769D02*
X169965950Y-103662802D01*
X172272426Y-103882355D02*
X172180984Y-103841884D01*
X169965950Y-103662802D02*
X170064231Y-103644335D01*
X172180984Y-103841884D02*
X172086702Y-103808562D01*
X170064231Y-103644335D02*
X170163641Y-103633477D01*
X172086702Y-103808562D02*
X171990138Y-103782586D01*
X170163641Y-103633477D02*
X170263592Y-103630292D01*
X171990138Y-103782586D02*
X171891863Y-103764109D01*
X170263592Y-103630292D02*
X170363492Y-103634799D01*
X171891863Y-103764109D02*
X171792458Y-103753241D01*
X170363492Y-103634799D02*
X171792458Y-103753241D01*
X168956294Y-101120452D02*
X168963972Y-101220157D01*
X168963972Y-101220157D02*
X168979291Y-101318977D01*
X168979291Y-101318977D02*
X169002161Y-101416327D01*
X173000000Y-101000000D02*
X172992313Y-101099704D01*
X169002161Y-101416327D02*
X169032446Y-101511631D01*
X172992313Y-101099704D02*
X172976985Y-101198522D01*
X169032446Y-101511631D02*
X169069967Y-101604325D01*
X172976985Y-101198522D02*
X172954107Y-101295869D01*
X169069967Y-101604325D02*
X169114502Y-101693861D01*
X172954107Y-101295869D02*
X172923814Y-101391169D01*
X169114502Y-101693861D02*
X169165788Y-101779709D01*
X172923814Y-101391169D02*
X172886285Y-101483859D01*
X169165788Y-101779709D02*
X169223521Y-101861361D01*
X172886285Y-101483859D02*
X172841742Y-101573390D01*
X169223521Y-101861361D02*
X169287359Y-101938334D01*
X172841742Y-101573390D02*
X172790449Y-101659232D01*
X169287359Y-101938334D02*
X169356925Y-102010172D01*
X172790449Y-101659232D02*
X172732709Y-101740877D01*
X169356925Y-102010172D02*
X169431807Y-102076450D01*
X172732709Y-101740877D02*
X172668864Y-101817842D01*
X169431807Y-102076450D02*
X169511562Y-102136776D01*
X172668864Y-101817842D02*
X172599292Y-101889672D01*
X169511562Y-102136776D02*
X169595718Y-102190793D01*
X172599292Y-101889672D02*
X172524405Y-101955942D01*
X169595718Y-102190793D02*
X169683777Y-102238181D01*
X172524405Y-101955942D02*
X172444646Y-102016260D01*
X169683777Y-102238181D02*
X169775218Y-102278660D01*
X172444646Y-102016260D02*
X172360487Y-102070269D01*
X169775218Y-102278660D02*
X169869500Y-102311991D01*
X172360487Y-102070269D02*
X172272426Y-102117649D01*
X169869500Y-102311991D02*
X169966065Y-102337976D01*
X172272426Y-102117649D02*
X172180984Y-102158120D01*
X169966065Y-102337976D02*
X170064342Y-102356462D01*
X172180984Y-102158120D02*
X172086702Y-102191442D01*
X170064342Y-102356462D02*
X170163749Y-102367339D01*
X172086702Y-102191442D02*
X171990138Y-102217418D01*
X170163749Y-102367339D02*
X170263698Y-102370543D01*
X171990138Y-102217418D02*
X171891863Y-102235895D01*
X170263698Y-102370543D02*
X170363598Y-102366055D01*
X171891863Y-102235895D02*
X171792458Y-102246763D01*
X170363598Y-102366055D02*
X171792458Y-102246763D01*
X168956294Y-71120452D02*
X168781088Y-70816987D01*
X168955957Y-74880133D02*
X168731089Y-75269615D01*
X173000000Y-75000000D02*
X173000000Y-81000000D01*
X173000000Y-70999996D02*
X173000000Y-67000000D01*
X168955957Y-74880133D02*
X168963653Y-74780430D01*
X168963653Y-74780430D02*
X168978990Y-74681614D01*
X168978990Y-74681614D02*
X169001877Y-74584269D01*
X173000000Y-75000000D02*
X172992313Y-74900296D01*
X169001877Y-74584269D02*
X169032179Y-74488971D01*
X172992313Y-74900296D02*
X172976985Y-74801478D01*
X169032179Y-74488971D02*
X169069717Y-74396284D01*
X172976985Y-74801478D02*
X172954107Y-74704131D01*
X169069717Y-74396284D02*
X169114268Y-74306757D01*
X172954107Y-74704131D02*
X172923814Y-74608831D01*
X169114268Y-74306757D02*
X169165569Y-74220919D01*
X172923814Y-74608831D02*
X172886285Y-74516141D01*
X169165569Y-74220919D02*
X169223316Y-74139278D01*
X172886285Y-74516141D02*
X172841742Y-74426610D01*
X169223316Y-74139278D02*
X169287168Y-74062317D01*
X172841742Y-74426610D02*
X172790449Y-74340768D01*
X169287168Y-74062317D02*
X169356747Y-73990492D01*
X172790449Y-74340768D02*
X172732709Y-74259123D01*
X169356747Y-73990492D02*
X169431641Y-73924228D01*
X172732709Y-74259123D02*
X172668864Y-74182158D01*
X169431641Y-73924228D02*
X169511407Y-73863917D01*
X172668864Y-74182158D02*
X172599292Y-74110328D01*
X169511407Y-73863917D02*
X169595573Y-73809916D01*
X172599292Y-74110328D02*
X172524405Y-74044058D01*
X169595573Y-73809916D02*
X169683641Y-73762544D01*
X172524405Y-74044058D02*
X172444646Y-73983740D01*
X169683641Y-73762544D02*
X169775090Y-73722082D01*
X172444646Y-73983740D02*
X172360487Y-73929731D01*
X169775090Y-73722082D02*
X169869379Y-73688769D01*
X172360487Y-73929731D02*
X172272426Y-73882351D01*
X169869379Y-73688769D02*
X169965950Y-73662802D01*
X172272426Y-73882351D02*
X172180984Y-73841880D01*
X169965950Y-73662802D02*
X170064231Y-73644335D01*
X172180984Y-73841880D02*
X172086702Y-73808558D01*
X170064231Y-73644335D02*
X170163641Y-73633477D01*
X172086702Y-73808558D02*
X171990138Y-73782582D01*
X170163641Y-73633477D02*
X170263592Y-73630292D01*
X171990138Y-73782582D02*
X171891863Y-73764105D01*
X170263592Y-73630292D02*
X170363492Y-73634799D01*
X171891863Y-73764105D02*
X171792458Y-73753237D01*
X170363492Y-73634799D02*
X171792458Y-73753237D01*
X168956294Y-71120452D02*
X168963972Y-71220157D01*
X168963972Y-71220157D02*
X168979291Y-71318977D01*
X168979291Y-71318977D02*
X169002161Y-71416327D01*
X173000000Y-70999996D02*
X172992313Y-71099700D01*
X169002161Y-71416327D02*
X169032446Y-71511631D01*
X172992313Y-71099700D02*
X172976985Y-71198518D01*
X169032446Y-71511631D02*
X169069967Y-71604325D01*
X172976985Y-71198518D02*
X172954107Y-71295865D01*
X169069967Y-71604325D02*
X169114502Y-71693861D01*
X172954107Y-71295865D02*
X172923814Y-71391165D01*
X169114502Y-71693861D02*
X169165788Y-71779709D01*
X172923814Y-71391165D02*
X172886285Y-71483855D01*
X169165788Y-71779709D02*
X169223521Y-71861361D01*
X172886285Y-71483855D02*
X172841742Y-71573386D01*
X169223521Y-71861361D02*
X169287359Y-71938334D01*
X172841742Y-71573386D02*
X172790449Y-71659228D01*
X169287359Y-71938334D02*
X169356925Y-72010172D01*
X172790449Y-71659228D02*
X172732709Y-71740873D01*
X169356925Y-72010172D02*
X169431807Y-72076450D01*
X172732709Y-71740873D02*
X172668864Y-71817838D01*
X169431807Y-72076450D02*
X169511562Y-72136776D01*
X172668864Y-71817838D02*
X172599292Y-71889668D01*
X169511562Y-72136776D02*
X169595718Y-72190793D01*
X172599292Y-71889668D02*
X172524405Y-71955938D01*
X169595718Y-72190793D02*
X169683777Y-72238181D01*
X172524405Y-71955938D02*
X172444646Y-72016256D01*
X169683777Y-72238181D02*
X169775218Y-72278660D01*
X172444646Y-72016256D02*
X172360487Y-72070265D01*
X169775218Y-72278660D02*
X169869500Y-72311991D01*
X172360487Y-72070265D02*
X172272426Y-72117645D01*
X169869500Y-72311991D02*
X169966065Y-72337976D01*
X172272426Y-72117645D02*
X172180984Y-72158116D01*
X169966065Y-72337976D02*
X170064342Y-72356462D01*
X172180984Y-72158116D02*
X172086702Y-72191438D01*
X170064342Y-72356462D02*
X170163749Y-72367339D01*
X172086702Y-72191438D02*
X171990138Y-72217414D01*
X170163749Y-72367339D02*
X170263698Y-72370543D01*
X171990138Y-72217414D02*
X171891863Y-72235891D01*
X170263698Y-72370543D02*
X170363598Y-72366055D01*
X171891863Y-72235891D02*
X171792458Y-72246759D01*
X170363598Y-72366055D02*
X171792458Y-72246759D01*
M02*
