M48
; DRILL file {KiCad 5.1.5-52549c5~84~ubuntu18.04.1} date Fri 30 Oct 2020 11:30:57 AM CET
; FORMAT={-:-/ absolute / inch / decimal}
; #@! TF.CreationDate,2020-10-30T11:30:57+01:00
; #@! TF.GenerationSoftware,Kicad,Pcbnew,5.1.5-52549c5~84~ubuntu18.04.1
; #@! TF.FileFunction,Plated,1,2,PTH
FMAT,2
INCH
T1C0.0118
T2C0.0256
%
G90
G05
T1
X5.1772Y-2.8583
X5.1772Y-2.9134
X5.1772Y-3.252
X5.1772Y-3.3071
X5.1772Y-3.6457
X5.1772Y-3.7008
X5.1772Y-4.0394
X5.1772Y-4.0945
X5.3189Y-2.874
X5.3189Y-3.2677
X5.3189Y-3.6614
X5.3189Y-4.0551
X5.6102Y-2.8583
X5.6102Y-2.9134
X5.6102Y-3.252
X5.6102Y-3.3071
X5.6102Y-3.6457
X5.6102Y-3.7008
X5.6102Y-4.0394
X5.6102Y-4.0945
X5.752Y-2.874
X5.752Y-3.2677
X5.752Y-3.6614
X5.752Y-4.0551
X6.0433Y-2.8583
X6.0433Y-2.9134
X6.0433Y-3.252
X6.0433Y-3.3071
X6.0433Y-3.6457
X6.0433Y-3.7008
X6.0433Y-4.0394
X6.0433Y-4.0945
X6.185Y-2.874
X6.185Y-3.2677
X6.185Y-3.6614
X6.185Y-4.0551
X6.4764Y-2.8583
X6.4764Y-2.9134
X6.4764Y-3.252
X6.4764Y-3.3071
X6.4764Y-3.6457
X6.4764Y-3.7008
X6.4764Y-4.0394
X6.4764Y-4.0945
X6.6181Y-2.874
X6.6181Y-3.2677
X6.6181Y-3.6614
X6.6181Y-4.0551
T2
X6.126Y-2.7724
X6.126Y-2.8224
X6.126Y-2.8724
X6.126Y-2.9224
X6.126Y-2.9724
X5.6929Y-3.9535
X5.6929Y-4.0035
X5.6929Y-4.0535
X5.6929Y-4.1035
X5.6929Y-4.1535
X5.6929Y-3.5598
X5.6929Y-3.6098
X5.6929Y-3.6598
X5.6929Y-3.7098
X5.6929Y-3.7598
X6.5591Y-3.1661
X6.5591Y-3.2161
X6.5591Y-3.2661
X6.5591Y-3.3161
X6.5591Y-3.3661
X5.2598Y-3.9535
X5.2598Y-4.0035
X5.2598Y-4.0535
X5.2598Y-4.1035
X5.2598Y-4.1535
X6.5591Y-2.7724
X6.5591Y-2.8224
X6.5591Y-2.8724
X6.5591Y-2.9224
X6.5591Y-2.9724
X6.126Y-3.9535
X6.126Y-4.0035
X6.126Y-4.0535
X6.126Y-4.1035
X6.126Y-4.1535
X6.126Y-3.5598
X6.126Y-3.6098
X6.126Y-3.6598
X6.126Y-3.7098
X6.126Y-3.7598
X5.2598Y-3.1661
X5.2598Y-3.2161
X5.2598Y-3.2661
X5.2598Y-3.3161
X5.2598Y-3.3661
X6.5591Y-3.5598
X6.5591Y-3.6098
X6.5591Y-3.6598
X6.5591Y-3.7098
X6.5591Y-3.7598
X6.126Y-3.1661
X6.126Y-3.2161
X6.126Y-3.2661
X6.126Y-3.3161
X6.126Y-3.3661
X5.6929Y-2.7724
X5.6929Y-2.8224
X5.6929Y-2.8724
X5.6929Y-2.9224
X5.6929Y-2.9724
X5.2598Y-2.7724
X5.2598Y-2.8224
X5.2598Y-2.8724
X5.2598Y-2.9224
X5.2598Y-2.9724
X5.6929Y-3.1661
X5.6929Y-3.2161
X5.6929Y-3.2661
X5.6929Y-3.3161
X5.6929Y-3.3661
X5.2598Y-3.5598
X5.2598Y-3.6098
X5.2598Y-3.6598
X5.2598Y-3.7098
X5.2598Y-3.7598
X6.5591Y-3.9535
X6.5591Y-4.0035
X6.5591Y-4.0535
X6.5591Y-4.1035
X6.5591Y-4.1535
T0
M30
