G04 #@! TF.GenerationSoftware,KiCad,Pcbnew,5.1.5-52549c5~84~ubuntu18.04.1*
G04 #@! TF.CreationDate,2020-10-30T11:30:54+01:00*
G04 #@! TF.ProjectId,output.load_cell_panel,6f757470-7574-42e6-9c6f-61645f63656c,rev?*
G04 #@! TF.SameCoordinates,Original*
G04 #@! TF.FileFunction,Legend,Top*
G04 #@! TF.FilePolarity,Positive*
%FSLAX46Y46*%
G04 Gerber Fmt 4.6, Leading zero omitted, Abs format (unit mm)*
G04 Created by KiCad (PCBNEW 5.1.5-52549c5~84~ubuntu18.04.1) date 2020-10-30 11:30:54*
%MOMM*%
%LPD*%
G04 APERTURE LIST*
%ADD10C,0.200000*%
%ADD11C,0.125000*%
%ADD12C,0.150000*%
G04 APERTURE END LIST*
D10*
X166250000Y-91900000D02*
G75*
G03X166250000Y-91900000I-100000J0D01*
G01*
X144250000Y-81900000D02*
G75*
G03X144250000Y-81900000I-100000J0D01*
G01*
X166250000Y-101900000D02*
G75*
G03X166250000Y-101900000I-100000J0D01*
G01*
X166250000Y-71900000D02*
G75*
G03X166250000Y-71900000I-100000J0D01*
G01*
X144250000Y-101900000D02*
G75*
G03X144250000Y-101900000I-100000J0D01*
G01*
X144250000Y-91900000D02*
G75*
G03X144250000Y-91900000I-100000J0D01*
G01*
X155250000Y-71900000D02*
G75*
G03X155250000Y-71900000I-100000J0D01*
G01*
X155250000Y-81900000D02*
G75*
G03X155250000Y-81900000I-100000J0D01*
G01*
X144250000Y-71900000D02*
G75*
G03X144250000Y-71900000I-100000J0D01*
G01*
X155250000Y-101900000D02*
G75*
G03X155250000Y-101900000I-100000J0D01*
G01*
X155250000Y-91900000D02*
G75*
G03X155250000Y-91900000I-100000J0D01*
G01*
X166250000Y-81900000D02*
G75*
G03X166250000Y-81900000I-100000J0D01*
G01*
X133250000Y-91900000D02*
G75*
G03X133250000Y-91900000I-100000J0D01*
G01*
X133250000Y-101900000D02*
G75*
G03X133250000Y-101900000I-100000J0D01*
G01*
X133250000Y-81900000D02*
G75*
G03X133250000Y-81900000I-100000J0D01*
G01*
X133250000Y-71900000D02*
G75*
G03X133250000Y-71900000I-100000J0D01*
G01*
D11*
X165216666Y-96178571D02*
X165192857Y-96202380D01*
X165121428Y-96226190D01*
X165073809Y-96226190D01*
X165002380Y-96202380D01*
X164954761Y-96154761D01*
X164930952Y-96107142D01*
X164907142Y-96011904D01*
X164907142Y-95940476D01*
X164930952Y-95845238D01*
X164954761Y-95797619D01*
X165002380Y-95750000D01*
X165073809Y-95726190D01*
X165121428Y-95726190D01*
X165192857Y-95750000D01*
X165216666Y-95773809D01*
X165407142Y-95773809D02*
X165430952Y-95750000D01*
X165478571Y-95726190D01*
X165597619Y-95726190D01*
X165645238Y-95750000D01*
X165669047Y-95773809D01*
X165692857Y-95821428D01*
X165692857Y-95869047D01*
X165669047Y-95940476D01*
X165383333Y-96226190D01*
X165692857Y-96226190D01*
D12*
D11*
X154216666Y-96178571D02*
X154192857Y-96202380D01*
X154121428Y-96226190D01*
X154073809Y-96226190D01*
X154002380Y-96202380D01*
X153954761Y-96154761D01*
X153930952Y-96107142D01*
X153907142Y-96011904D01*
X153907142Y-95940476D01*
X153930952Y-95845238D01*
X153954761Y-95797619D01*
X154002380Y-95750000D01*
X154073809Y-95726190D01*
X154121428Y-95726190D01*
X154192857Y-95750000D01*
X154216666Y-95773809D01*
X154407142Y-95773809D02*
X154430952Y-95750000D01*
X154478571Y-95726190D01*
X154597619Y-95726190D01*
X154645238Y-95750000D01*
X154669047Y-95773809D01*
X154692857Y-95821428D01*
X154692857Y-95869047D01*
X154669047Y-95940476D01*
X154383333Y-96226190D01*
X154692857Y-96226190D01*
D12*
D11*
X143216666Y-96178571D02*
X143192857Y-96202380D01*
X143121428Y-96226190D01*
X143073809Y-96226190D01*
X143002380Y-96202380D01*
X142954761Y-96154761D01*
X142930952Y-96107142D01*
X142907142Y-96011904D01*
X142907142Y-95940476D01*
X142930952Y-95845238D01*
X142954761Y-95797619D01*
X143002380Y-95750000D01*
X143073809Y-95726190D01*
X143121428Y-95726190D01*
X143192857Y-95750000D01*
X143216666Y-95773809D01*
X143407142Y-95773809D02*
X143430952Y-95750000D01*
X143478571Y-95726190D01*
X143597619Y-95726190D01*
X143645238Y-95750000D01*
X143669047Y-95773809D01*
X143692857Y-95821428D01*
X143692857Y-95869047D01*
X143669047Y-95940476D01*
X143383333Y-96226190D01*
X143692857Y-96226190D01*
D12*
D11*
X154216666Y-106178571D02*
X154192857Y-106202380D01*
X154121428Y-106226190D01*
X154073809Y-106226190D01*
X154002380Y-106202380D01*
X153954761Y-106154761D01*
X153930952Y-106107142D01*
X153907142Y-106011904D01*
X153907142Y-105940476D01*
X153930952Y-105845238D01*
X153954761Y-105797619D01*
X154002380Y-105750000D01*
X154073809Y-105726190D01*
X154121428Y-105726190D01*
X154192857Y-105750000D01*
X154216666Y-105773809D01*
X154407142Y-105773809D02*
X154430952Y-105750000D01*
X154478571Y-105726190D01*
X154597619Y-105726190D01*
X154645238Y-105750000D01*
X154669047Y-105773809D01*
X154692857Y-105821428D01*
X154692857Y-105869047D01*
X154669047Y-105940476D01*
X154383333Y-106226190D01*
X154692857Y-106226190D01*
D12*
D11*
X143216666Y-106178571D02*
X143192857Y-106202380D01*
X143121428Y-106226190D01*
X143073809Y-106226190D01*
X143002380Y-106202380D01*
X142954761Y-106154761D01*
X142930952Y-106107142D01*
X142907142Y-106011904D01*
X142907142Y-105940476D01*
X142930952Y-105845238D01*
X142954761Y-105797619D01*
X143002380Y-105750000D01*
X143073809Y-105726190D01*
X143121428Y-105726190D01*
X143192857Y-105750000D01*
X143216666Y-105773809D01*
X143407142Y-105773809D02*
X143430952Y-105750000D01*
X143478571Y-105726190D01*
X143597619Y-105726190D01*
X143645238Y-105750000D01*
X143669047Y-105773809D01*
X143692857Y-105821428D01*
X143692857Y-105869047D01*
X143669047Y-105940476D01*
X143383333Y-106226190D01*
X143692857Y-106226190D01*
D12*
D11*
X165216666Y-70278571D02*
X165192857Y-70302380D01*
X165121428Y-70326190D01*
X165073809Y-70326190D01*
X165002380Y-70302380D01*
X164954761Y-70254761D01*
X164930952Y-70207142D01*
X164907142Y-70111904D01*
X164907142Y-70040476D01*
X164930952Y-69945238D01*
X164954761Y-69897619D01*
X165002380Y-69850000D01*
X165073809Y-69826190D01*
X165121428Y-69826190D01*
X165192857Y-69850000D01*
X165216666Y-69873809D01*
X165692857Y-70326190D02*
X165407142Y-70326190D01*
X165550000Y-70326190D02*
X165550000Y-69826190D01*
X165502380Y-69897619D01*
X165454761Y-69945238D01*
X165407142Y-69969047D01*
D12*
D11*
X143216666Y-90278571D02*
X143192857Y-90302380D01*
X143121428Y-90326190D01*
X143073809Y-90326190D01*
X143002380Y-90302380D01*
X142954761Y-90254761D01*
X142930952Y-90207142D01*
X142907142Y-90111904D01*
X142907142Y-90040476D01*
X142930952Y-89945238D01*
X142954761Y-89897619D01*
X143002380Y-89850000D01*
X143073809Y-89826190D01*
X143121428Y-89826190D01*
X143192857Y-89850000D01*
X143216666Y-89873809D01*
X143692857Y-90326190D02*
X143407142Y-90326190D01*
X143550000Y-90326190D02*
X143550000Y-89826190D01*
X143502380Y-89897619D01*
X143454761Y-89945238D01*
X143407142Y-89969047D01*
D12*
D11*
X169226190Y-92583333D02*
X168988095Y-92750000D01*
X169226190Y-92869047D02*
X168726190Y-92869047D01*
X168726190Y-92678571D01*
X168750000Y-92630952D01*
X168773809Y-92607142D01*
X168821428Y-92583333D01*
X168892857Y-92583333D01*
X168940476Y-92607142D01*
X168964285Y-92630952D01*
X168988095Y-92678571D01*
X168988095Y-92869047D01*
X168773809Y-92392857D02*
X168750000Y-92369047D01*
X168726190Y-92321428D01*
X168726190Y-92202380D01*
X168750000Y-92154761D01*
X168773809Y-92130952D01*
X168821428Y-92107142D01*
X168869047Y-92107142D01*
X168940476Y-92130952D01*
X169226190Y-92416666D01*
X169226190Y-92107142D01*
D12*
D11*
X158226190Y-92583333D02*
X157988095Y-92750000D01*
X158226190Y-92869047D02*
X157726190Y-92869047D01*
X157726190Y-92678571D01*
X157750000Y-92630952D01*
X157773809Y-92607142D01*
X157821428Y-92583333D01*
X157892857Y-92583333D01*
X157940476Y-92607142D01*
X157964285Y-92630952D01*
X157988095Y-92678571D01*
X157988095Y-92869047D01*
X157773809Y-92392857D02*
X157750000Y-92369047D01*
X157726190Y-92321428D01*
X157726190Y-92202380D01*
X157750000Y-92154761D01*
X157773809Y-92130952D01*
X157821428Y-92107142D01*
X157869047Y-92107142D01*
X157940476Y-92130952D01*
X158226190Y-92416666D01*
X158226190Y-92107142D01*
D12*
D11*
X169226190Y-73683333D02*
X168988095Y-73850000D01*
X169226190Y-73969047D02*
X168726190Y-73969047D01*
X168726190Y-73778571D01*
X168750000Y-73730952D01*
X168773809Y-73707142D01*
X168821428Y-73683333D01*
X168892857Y-73683333D01*
X168940476Y-73707142D01*
X168964285Y-73730952D01*
X168988095Y-73778571D01*
X168988095Y-73969047D01*
X169226190Y-73207142D02*
X169226190Y-73492857D01*
X169226190Y-73350000D02*
X168726190Y-73350000D01*
X168797619Y-73397619D01*
X168845238Y-73445238D01*
X168869047Y-73492857D01*
D12*
D11*
X154216666Y-100278571D02*
X154192857Y-100302380D01*
X154121428Y-100326190D01*
X154073809Y-100326190D01*
X154002380Y-100302380D01*
X153954761Y-100254761D01*
X153930952Y-100207142D01*
X153907142Y-100111904D01*
X153907142Y-100040476D01*
X153930952Y-99945238D01*
X153954761Y-99897619D01*
X154002380Y-99850000D01*
X154073809Y-99826190D01*
X154121428Y-99826190D01*
X154192857Y-99850000D01*
X154216666Y-99873809D01*
X154692857Y-100326190D02*
X154407142Y-100326190D01*
X154550000Y-100326190D02*
X154550000Y-99826190D01*
X154502380Y-99897619D01*
X154454761Y-99945238D01*
X154407142Y-99969047D01*
D12*
D11*
X147226190Y-93683333D02*
X146988095Y-93850000D01*
X147226190Y-93969047D02*
X146726190Y-93969047D01*
X146726190Y-93778571D01*
X146750000Y-93730952D01*
X146773809Y-93707142D01*
X146821428Y-93683333D01*
X146892857Y-93683333D01*
X146940476Y-93707142D01*
X146964285Y-93730952D01*
X146988095Y-93778571D01*
X146988095Y-93969047D01*
X147226190Y-93207142D02*
X147226190Y-93492857D01*
X147226190Y-93350000D02*
X146726190Y-93350000D01*
X146797619Y-93397619D01*
X146845238Y-93445238D01*
X146869047Y-93492857D01*
D12*
D11*
X158226190Y-93683333D02*
X157988095Y-93850000D01*
X158226190Y-93969047D02*
X157726190Y-93969047D01*
X157726190Y-93778571D01*
X157750000Y-93730952D01*
X157773809Y-93707142D01*
X157821428Y-93683333D01*
X157892857Y-93683333D01*
X157940476Y-93707142D01*
X157964285Y-93730952D01*
X157988095Y-93778571D01*
X157988095Y-93969047D01*
X158226190Y-93207142D02*
X158226190Y-93492857D01*
X158226190Y-93350000D02*
X157726190Y-93350000D01*
X157797619Y-93397619D01*
X157845238Y-93445238D01*
X157869047Y-93492857D01*
D12*
D11*
X147226190Y-92583333D02*
X146988095Y-92750000D01*
X147226190Y-92869047D02*
X146726190Y-92869047D01*
X146726190Y-92678571D01*
X146750000Y-92630952D01*
X146773809Y-92607142D01*
X146821428Y-92583333D01*
X146892857Y-92583333D01*
X146940476Y-92607142D01*
X146964285Y-92630952D01*
X146988095Y-92678571D01*
X146988095Y-92869047D01*
X146773809Y-92392857D02*
X146750000Y-92369047D01*
X146726190Y-92321428D01*
X146726190Y-92202380D01*
X146750000Y-92154761D01*
X146773809Y-92130952D01*
X146821428Y-92107142D01*
X146869047Y-92107142D01*
X146940476Y-92130952D01*
X147226190Y-92416666D01*
X147226190Y-92107142D01*
D12*
D11*
X169226190Y-93683333D02*
X168988095Y-93850000D01*
X169226190Y-93969047D02*
X168726190Y-93969047D01*
X168726190Y-93778571D01*
X168750000Y-93730952D01*
X168773809Y-93707142D01*
X168821428Y-93683333D01*
X168892857Y-93683333D01*
X168940476Y-93707142D01*
X168964285Y-93730952D01*
X168988095Y-93778571D01*
X168988095Y-93969047D01*
X169226190Y-93207142D02*
X169226190Y-93492857D01*
X169226190Y-93350000D02*
X168726190Y-93350000D01*
X168797619Y-93397619D01*
X168845238Y-93445238D01*
X168869047Y-93492857D01*
D12*
D11*
X147226190Y-83683333D02*
X146988095Y-83850000D01*
X147226190Y-83969047D02*
X146726190Y-83969047D01*
X146726190Y-83778571D01*
X146750000Y-83730952D01*
X146773809Y-83707142D01*
X146821428Y-83683333D01*
X146892857Y-83683333D01*
X146940476Y-83707142D01*
X146964285Y-83730952D01*
X146988095Y-83778571D01*
X146988095Y-83969047D01*
X147226190Y-83207142D02*
X147226190Y-83492857D01*
X147226190Y-83350000D02*
X146726190Y-83350000D01*
X146797619Y-83397619D01*
X146845238Y-83445238D01*
X146869047Y-83492857D01*
D12*
D11*
X147226190Y-73683333D02*
X146988095Y-73850000D01*
X147226190Y-73969047D02*
X146726190Y-73969047D01*
X146726190Y-73778571D01*
X146750000Y-73730952D01*
X146773809Y-73707142D01*
X146821428Y-73683333D01*
X146892857Y-73683333D01*
X146940476Y-73707142D01*
X146964285Y-73730952D01*
X146988095Y-73778571D01*
X146988095Y-73969047D01*
X147226190Y-73207142D02*
X147226190Y-73492857D01*
X147226190Y-73350000D02*
X146726190Y-73350000D01*
X146797619Y-73397619D01*
X146845238Y-73445238D01*
X146869047Y-73492857D01*
D12*
D11*
X154216666Y-90278571D02*
X154192857Y-90302380D01*
X154121428Y-90326190D01*
X154073809Y-90326190D01*
X154002380Y-90302380D01*
X153954761Y-90254761D01*
X153930952Y-90207142D01*
X153907142Y-90111904D01*
X153907142Y-90040476D01*
X153930952Y-89945238D01*
X153954761Y-89897619D01*
X154002380Y-89850000D01*
X154073809Y-89826190D01*
X154121428Y-89826190D01*
X154192857Y-89850000D01*
X154216666Y-89873809D01*
X154692857Y-90326190D02*
X154407142Y-90326190D01*
X154550000Y-90326190D02*
X154550000Y-89826190D01*
X154502380Y-89897619D01*
X154454761Y-89945238D01*
X154407142Y-89969047D01*
D12*
D11*
X147226190Y-103683333D02*
X146988095Y-103850000D01*
X147226190Y-103969047D02*
X146726190Y-103969047D01*
X146726190Y-103778571D01*
X146750000Y-103730952D01*
X146773809Y-103707142D01*
X146821428Y-103683333D01*
X146892857Y-103683333D01*
X146940476Y-103707142D01*
X146964285Y-103730952D01*
X146988095Y-103778571D01*
X146988095Y-103969047D01*
X147226190Y-103207142D02*
X147226190Y-103492857D01*
X147226190Y-103350000D02*
X146726190Y-103350000D01*
X146797619Y-103397619D01*
X146845238Y-103445238D01*
X146869047Y-103492857D01*
D12*
D11*
X169226190Y-72583333D02*
X168988095Y-72750000D01*
X169226190Y-72869047D02*
X168726190Y-72869047D01*
X168726190Y-72678571D01*
X168750000Y-72630952D01*
X168773809Y-72607142D01*
X168821428Y-72583333D01*
X168892857Y-72583333D01*
X168940476Y-72607142D01*
X168964285Y-72630952D01*
X168988095Y-72678571D01*
X168988095Y-72869047D01*
X168773809Y-72392857D02*
X168750000Y-72369047D01*
X168726190Y-72321428D01*
X168726190Y-72202380D01*
X168750000Y-72154761D01*
X168773809Y-72130952D01*
X168821428Y-72107142D01*
X168869047Y-72107142D01*
X168940476Y-72130952D01*
X169226190Y-72416666D01*
X169226190Y-72107142D01*
D12*
D11*
X165216666Y-100278571D02*
X165192857Y-100302380D01*
X165121428Y-100326190D01*
X165073809Y-100326190D01*
X165002380Y-100302380D01*
X164954761Y-100254761D01*
X164930952Y-100207142D01*
X164907142Y-100111904D01*
X164907142Y-100040476D01*
X164930952Y-99945238D01*
X164954761Y-99897619D01*
X165002380Y-99850000D01*
X165073809Y-99826190D01*
X165121428Y-99826190D01*
X165192857Y-99850000D01*
X165216666Y-99873809D01*
X165692857Y-100326190D02*
X165407142Y-100326190D01*
X165550000Y-100326190D02*
X165550000Y-99826190D01*
X165502380Y-99897619D01*
X165454761Y-99945238D01*
X165407142Y-99969047D01*
D12*
D11*
X158226190Y-103683333D02*
X157988095Y-103850000D01*
X158226190Y-103969047D02*
X157726190Y-103969047D01*
X157726190Y-103778571D01*
X157750000Y-103730952D01*
X157773809Y-103707142D01*
X157821428Y-103683333D01*
X157892857Y-103683333D01*
X157940476Y-103707142D01*
X157964285Y-103730952D01*
X157988095Y-103778571D01*
X157988095Y-103969047D01*
X158226190Y-103207142D02*
X158226190Y-103492857D01*
X158226190Y-103350000D02*
X157726190Y-103350000D01*
X157797619Y-103397619D01*
X157845238Y-103445238D01*
X157869047Y-103492857D01*
D12*
D11*
X169226190Y-103683333D02*
X168988095Y-103850000D01*
X169226190Y-103969047D02*
X168726190Y-103969047D01*
X168726190Y-103778571D01*
X168750000Y-103730952D01*
X168773809Y-103707142D01*
X168821428Y-103683333D01*
X168892857Y-103683333D01*
X168940476Y-103707142D01*
X168964285Y-103730952D01*
X168988095Y-103778571D01*
X168988095Y-103969047D01*
X169226190Y-103207142D02*
X169226190Y-103492857D01*
X169226190Y-103350000D02*
X168726190Y-103350000D01*
X168797619Y-103397619D01*
X168845238Y-103445238D01*
X168869047Y-103492857D01*
D12*
D11*
X158226190Y-102583333D02*
X157988095Y-102750000D01*
X158226190Y-102869047D02*
X157726190Y-102869047D01*
X157726190Y-102678571D01*
X157750000Y-102630952D01*
X157773809Y-102607142D01*
X157821428Y-102583333D01*
X157892857Y-102583333D01*
X157940476Y-102607142D01*
X157964285Y-102630952D01*
X157988095Y-102678571D01*
X157988095Y-102869047D01*
X157773809Y-102392857D02*
X157750000Y-102369047D01*
X157726190Y-102321428D01*
X157726190Y-102202380D01*
X157750000Y-102154761D01*
X157773809Y-102130952D01*
X157821428Y-102107142D01*
X157869047Y-102107142D01*
X157940476Y-102130952D01*
X158226190Y-102416666D01*
X158226190Y-102107142D01*
D12*
D11*
X154216666Y-80278571D02*
X154192857Y-80302380D01*
X154121428Y-80326190D01*
X154073809Y-80326190D01*
X154002380Y-80302380D01*
X153954761Y-80254761D01*
X153930952Y-80207142D01*
X153907142Y-80111904D01*
X153907142Y-80040476D01*
X153930952Y-79945238D01*
X153954761Y-79897619D01*
X154002380Y-79850000D01*
X154073809Y-79826190D01*
X154121428Y-79826190D01*
X154192857Y-79850000D01*
X154216666Y-79873809D01*
X154692857Y-80326190D02*
X154407142Y-80326190D01*
X154550000Y-80326190D02*
X154550000Y-79826190D01*
X154502380Y-79897619D01*
X154454761Y-79945238D01*
X154407142Y-79969047D01*
D12*
D11*
X158226190Y-83683333D02*
X157988095Y-83850000D01*
X158226190Y-83969047D02*
X157726190Y-83969047D01*
X157726190Y-83778571D01*
X157750000Y-83730952D01*
X157773809Y-83707142D01*
X157821428Y-83683333D01*
X157892857Y-83683333D01*
X157940476Y-83707142D01*
X157964285Y-83730952D01*
X157988095Y-83778571D01*
X157988095Y-83969047D01*
X158226190Y-83207142D02*
X158226190Y-83492857D01*
X158226190Y-83350000D02*
X157726190Y-83350000D01*
X157797619Y-83397619D01*
X157845238Y-83445238D01*
X157869047Y-83492857D01*
D12*
D11*
X165216666Y-90278571D02*
X165192857Y-90302380D01*
X165121428Y-90326190D01*
X165073809Y-90326190D01*
X165002380Y-90302380D01*
X164954761Y-90254761D01*
X164930952Y-90207142D01*
X164907142Y-90111904D01*
X164907142Y-90040476D01*
X164930952Y-89945238D01*
X164954761Y-89897619D01*
X165002380Y-89850000D01*
X165073809Y-89826190D01*
X165121428Y-89826190D01*
X165192857Y-89850000D01*
X165216666Y-89873809D01*
X165692857Y-90326190D02*
X165407142Y-90326190D01*
X165550000Y-90326190D02*
X165550000Y-89826190D01*
X165502380Y-89897619D01*
X165454761Y-89945238D01*
X165407142Y-89969047D01*
D12*
D11*
X147226190Y-102583333D02*
X146988095Y-102750000D01*
X147226190Y-102869047D02*
X146726190Y-102869047D01*
X146726190Y-102678571D01*
X146750000Y-102630952D01*
X146773809Y-102607142D01*
X146821428Y-102583333D01*
X146892857Y-102583333D01*
X146940476Y-102607142D01*
X146964285Y-102630952D01*
X146988095Y-102678571D01*
X146988095Y-102869047D01*
X146773809Y-102392857D02*
X146750000Y-102369047D01*
X146726190Y-102321428D01*
X146726190Y-102202380D01*
X146750000Y-102154761D01*
X146773809Y-102130952D01*
X146821428Y-102107142D01*
X146869047Y-102107142D01*
X146940476Y-102130952D01*
X147226190Y-102416666D01*
X147226190Y-102107142D01*
D12*
D11*
X158226190Y-73683333D02*
X157988095Y-73850000D01*
X158226190Y-73969047D02*
X157726190Y-73969047D01*
X157726190Y-73778571D01*
X157750000Y-73730952D01*
X157773809Y-73707142D01*
X157821428Y-73683333D01*
X157892857Y-73683333D01*
X157940476Y-73707142D01*
X157964285Y-73730952D01*
X157988095Y-73778571D01*
X157988095Y-73969047D01*
X158226190Y-73207142D02*
X158226190Y-73492857D01*
X158226190Y-73350000D02*
X157726190Y-73350000D01*
X157797619Y-73397619D01*
X157845238Y-73445238D01*
X157869047Y-73492857D01*
D12*
D11*
X147226190Y-82583333D02*
X146988095Y-82750000D01*
X147226190Y-82869047D02*
X146726190Y-82869047D01*
X146726190Y-82678571D01*
X146750000Y-82630952D01*
X146773809Y-82607142D01*
X146821428Y-82583333D01*
X146892857Y-82583333D01*
X146940476Y-82607142D01*
X146964285Y-82630952D01*
X146988095Y-82678571D01*
X146988095Y-82869047D01*
X146773809Y-82392857D02*
X146750000Y-82369047D01*
X146726190Y-82321428D01*
X146726190Y-82202380D01*
X146750000Y-82154761D01*
X146773809Y-82130952D01*
X146821428Y-82107142D01*
X146869047Y-82107142D01*
X146940476Y-82130952D01*
X147226190Y-82416666D01*
X147226190Y-82107142D01*
D12*
D11*
X143216666Y-70278571D02*
X143192857Y-70302380D01*
X143121428Y-70326190D01*
X143073809Y-70326190D01*
X143002380Y-70302380D01*
X142954761Y-70254761D01*
X142930952Y-70207142D01*
X142907142Y-70111904D01*
X142907142Y-70040476D01*
X142930952Y-69945238D01*
X142954761Y-69897619D01*
X143002380Y-69850000D01*
X143073809Y-69826190D01*
X143121428Y-69826190D01*
X143192857Y-69850000D01*
X143216666Y-69873809D01*
X143692857Y-70326190D02*
X143407142Y-70326190D01*
X143550000Y-70326190D02*
X143550000Y-69826190D01*
X143502380Y-69897619D01*
X143454761Y-69945238D01*
X143407142Y-69969047D01*
D12*
D11*
X169226190Y-83683333D02*
X168988095Y-83850000D01*
X169226190Y-83969047D02*
X168726190Y-83969047D01*
X168726190Y-83778571D01*
X168750000Y-83730952D01*
X168773809Y-83707142D01*
X168821428Y-83683333D01*
X168892857Y-83683333D01*
X168940476Y-83707142D01*
X168964285Y-83730952D01*
X168988095Y-83778571D01*
X168988095Y-83969047D01*
X169226190Y-83207142D02*
X169226190Y-83492857D01*
X169226190Y-83350000D02*
X168726190Y-83350000D01*
X168797619Y-83397619D01*
X168845238Y-83445238D01*
X168869047Y-83492857D01*
D12*
D11*
X143216666Y-80278571D02*
X143192857Y-80302380D01*
X143121428Y-80326190D01*
X143073809Y-80326190D01*
X143002380Y-80302380D01*
X142954761Y-80254761D01*
X142930952Y-80207142D01*
X142907142Y-80111904D01*
X142907142Y-80040476D01*
X142930952Y-79945238D01*
X142954761Y-79897619D01*
X143002380Y-79850000D01*
X143073809Y-79826190D01*
X143121428Y-79826190D01*
X143192857Y-79850000D01*
X143216666Y-79873809D01*
X143692857Y-80326190D02*
X143407142Y-80326190D01*
X143550000Y-80326190D02*
X143550000Y-79826190D01*
X143502380Y-79897619D01*
X143454761Y-79945238D01*
X143407142Y-79969047D01*
D12*
D11*
X165216666Y-80278571D02*
X165192857Y-80302380D01*
X165121428Y-80326190D01*
X165073809Y-80326190D01*
X165002380Y-80302380D01*
X164954761Y-80254761D01*
X164930952Y-80207142D01*
X164907142Y-80111904D01*
X164907142Y-80040476D01*
X164930952Y-79945238D01*
X164954761Y-79897619D01*
X165002380Y-79850000D01*
X165073809Y-79826190D01*
X165121428Y-79826190D01*
X165192857Y-79850000D01*
X165216666Y-79873809D01*
X165692857Y-80326190D02*
X165407142Y-80326190D01*
X165550000Y-80326190D02*
X165550000Y-79826190D01*
X165502380Y-79897619D01*
X165454761Y-79945238D01*
X165407142Y-79969047D01*
D12*
D11*
X169226190Y-82583333D02*
X168988095Y-82750000D01*
X169226190Y-82869047D02*
X168726190Y-82869047D01*
X168726190Y-82678571D01*
X168750000Y-82630952D01*
X168773809Y-82607142D01*
X168821428Y-82583333D01*
X168892857Y-82583333D01*
X168940476Y-82607142D01*
X168964285Y-82630952D01*
X168988095Y-82678571D01*
X168988095Y-82869047D01*
X168773809Y-82392857D02*
X168750000Y-82369047D01*
X168726190Y-82321428D01*
X168726190Y-82202380D01*
X168750000Y-82154761D01*
X168773809Y-82130952D01*
X168821428Y-82107142D01*
X168869047Y-82107142D01*
X168940476Y-82130952D01*
X169226190Y-82416666D01*
X169226190Y-82107142D01*
D12*
D11*
X158226190Y-82583333D02*
X157988095Y-82750000D01*
X158226190Y-82869047D02*
X157726190Y-82869047D01*
X157726190Y-82678571D01*
X157750000Y-82630952D01*
X157773809Y-82607142D01*
X157821428Y-82583333D01*
X157892857Y-82583333D01*
X157940476Y-82607142D01*
X157964285Y-82630952D01*
X157988095Y-82678571D01*
X157988095Y-82869047D01*
X157773809Y-82392857D02*
X157750000Y-82369047D01*
X157726190Y-82321428D01*
X157726190Y-82202380D01*
X157750000Y-82154761D01*
X157773809Y-82130952D01*
X157821428Y-82107142D01*
X157869047Y-82107142D01*
X157940476Y-82130952D01*
X158226190Y-82416666D01*
X158226190Y-82107142D01*
D12*
D11*
X169226190Y-102583333D02*
X168988095Y-102750000D01*
X169226190Y-102869047D02*
X168726190Y-102869047D01*
X168726190Y-102678571D01*
X168750000Y-102630952D01*
X168773809Y-102607142D01*
X168821428Y-102583333D01*
X168892857Y-102583333D01*
X168940476Y-102607142D01*
X168964285Y-102630952D01*
X168988095Y-102678571D01*
X168988095Y-102869047D01*
X168773809Y-102392857D02*
X168750000Y-102369047D01*
X168726190Y-102321428D01*
X168726190Y-102202380D01*
X168750000Y-102154761D01*
X168773809Y-102130952D01*
X168821428Y-102107142D01*
X168869047Y-102107142D01*
X168940476Y-102130952D01*
X169226190Y-102416666D01*
X169226190Y-102107142D01*
D12*
D11*
X154216666Y-70278571D02*
X154192857Y-70302380D01*
X154121428Y-70326190D01*
X154073809Y-70326190D01*
X154002380Y-70302380D01*
X153954761Y-70254761D01*
X153930952Y-70207142D01*
X153907142Y-70111904D01*
X153907142Y-70040476D01*
X153930952Y-69945238D01*
X153954761Y-69897619D01*
X154002380Y-69850000D01*
X154073809Y-69826190D01*
X154121428Y-69826190D01*
X154192857Y-69850000D01*
X154216666Y-69873809D01*
X154692857Y-70326190D02*
X154407142Y-70326190D01*
X154550000Y-70326190D02*
X154550000Y-69826190D01*
X154502380Y-69897619D01*
X154454761Y-69945238D01*
X154407142Y-69969047D01*
D12*
D11*
X143216666Y-100278571D02*
X143192857Y-100302380D01*
X143121428Y-100326190D01*
X143073809Y-100326190D01*
X143002380Y-100302380D01*
X142954761Y-100254761D01*
X142930952Y-100207142D01*
X142907142Y-100111904D01*
X142907142Y-100040476D01*
X142930952Y-99945238D01*
X142954761Y-99897619D01*
X143002380Y-99850000D01*
X143073809Y-99826190D01*
X143121428Y-99826190D01*
X143192857Y-99850000D01*
X143216666Y-99873809D01*
X143692857Y-100326190D02*
X143407142Y-100326190D01*
X143550000Y-100326190D02*
X143550000Y-99826190D01*
X143502380Y-99897619D01*
X143454761Y-99945238D01*
X143407142Y-99969047D01*
D12*
D11*
X143216666Y-76178571D02*
X143192857Y-76202380D01*
X143121428Y-76226190D01*
X143073809Y-76226190D01*
X143002380Y-76202380D01*
X142954761Y-76154761D01*
X142930952Y-76107142D01*
X142907142Y-76011904D01*
X142907142Y-75940476D01*
X142930952Y-75845238D01*
X142954761Y-75797619D01*
X143002380Y-75750000D01*
X143073809Y-75726190D01*
X143121428Y-75726190D01*
X143192857Y-75750000D01*
X143216666Y-75773809D01*
X143407142Y-75773809D02*
X143430952Y-75750000D01*
X143478571Y-75726190D01*
X143597619Y-75726190D01*
X143645238Y-75750000D01*
X143669047Y-75773809D01*
X143692857Y-75821428D01*
X143692857Y-75869047D01*
X143669047Y-75940476D01*
X143383333Y-76226190D01*
X143692857Y-76226190D01*
D12*
D11*
X154216666Y-86178571D02*
X154192857Y-86202380D01*
X154121428Y-86226190D01*
X154073809Y-86226190D01*
X154002380Y-86202380D01*
X153954761Y-86154761D01*
X153930952Y-86107142D01*
X153907142Y-86011904D01*
X153907142Y-85940476D01*
X153930952Y-85845238D01*
X153954761Y-85797619D01*
X154002380Y-85750000D01*
X154073809Y-85726190D01*
X154121428Y-85726190D01*
X154192857Y-85750000D01*
X154216666Y-85773809D01*
X154407142Y-85773809D02*
X154430952Y-85750000D01*
X154478571Y-85726190D01*
X154597619Y-85726190D01*
X154645238Y-85750000D01*
X154669047Y-85773809D01*
X154692857Y-85821428D01*
X154692857Y-85869047D01*
X154669047Y-85940476D01*
X154383333Y-86226190D01*
X154692857Y-86226190D01*
D12*
D11*
X165216666Y-76178571D02*
X165192857Y-76202380D01*
X165121428Y-76226190D01*
X165073809Y-76226190D01*
X165002380Y-76202380D01*
X164954761Y-76154761D01*
X164930952Y-76107142D01*
X164907142Y-76011904D01*
X164907142Y-75940476D01*
X164930952Y-75845238D01*
X164954761Y-75797619D01*
X165002380Y-75750000D01*
X165073809Y-75726190D01*
X165121428Y-75726190D01*
X165192857Y-75750000D01*
X165216666Y-75773809D01*
X165407142Y-75773809D02*
X165430952Y-75750000D01*
X165478571Y-75726190D01*
X165597619Y-75726190D01*
X165645238Y-75750000D01*
X165669047Y-75773809D01*
X165692857Y-75821428D01*
X165692857Y-75869047D01*
X165669047Y-75940476D01*
X165383333Y-76226190D01*
X165692857Y-76226190D01*
D12*
D11*
X143216666Y-86178571D02*
X143192857Y-86202380D01*
X143121428Y-86226190D01*
X143073809Y-86226190D01*
X143002380Y-86202380D01*
X142954761Y-86154761D01*
X142930952Y-86107142D01*
X142907142Y-86011904D01*
X142907142Y-85940476D01*
X142930952Y-85845238D01*
X142954761Y-85797619D01*
X143002380Y-85750000D01*
X143073809Y-85726190D01*
X143121428Y-85726190D01*
X143192857Y-85750000D01*
X143216666Y-85773809D01*
X143407142Y-85773809D02*
X143430952Y-85750000D01*
X143478571Y-85726190D01*
X143597619Y-85726190D01*
X143645238Y-85750000D01*
X143669047Y-85773809D01*
X143692857Y-85821428D01*
X143692857Y-85869047D01*
X143669047Y-85940476D01*
X143383333Y-86226190D01*
X143692857Y-86226190D01*
D12*
D11*
X154216666Y-76178571D02*
X154192857Y-76202380D01*
X154121428Y-76226190D01*
X154073809Y-76226190D01*
X154002380Y-76202380D01*
X153954761Y-76154761D01*
X153930952Y-76107142D01*
X153907142Y-76011904D01*
X153907142Y-75940476D01*
X153930952Y-75845238D01*
X153954761Y-75797619D01*
X154002380Y-75750000D01*
X154073809Y-75726190D01*
X154121428Y-75726190D01*
X154192857Y-75750000D01*
X154216666Y-75773809D01*
X154407142Y-75773809D02*
X154430952Y-75750000D01*
X154478571Y-75726190D01*
X154597619Y-75726190D01*
X154645238Y-75750000D01*
X154669047Y-75773809D01*
X154692857Y-75821428D01*
X154692857Y-75869047D01*
X154669047Y-75940476D01*
X154383333Y-76226190D01*
X154692857Y-76226190D01*
D12*
D11*
X165216666Y-106178571D02*
X165192857Y-106202380D01*
X165121428Y-106226190D01*
X165073809Y-106226190D01*
X165002380Y-106202380D01*
X164954761Y-106154761D01*
X164930952Y-106107142D01*
X164907142Y-106011904D01*
X164907142Y-105940476D01*
X164930952Y-105845238D01*
X164954761Y-105797619D01*
X165002380Y-105750000D01*
X165073809Y-105726190D01*
X165121428Y-105726190D01*
X165192857Y-105750000D01*
X165216666Y-105773809D01*
X165407142Y-105773809D02*
X165430952Y-105750000D01*
X165478571Y-105726190D01*
X165597619Y-105726190D01*
X165645238Y-105750000D01*
X165669047Y-105773809D01*
X165692857Y-105821428D01*
X165692857Y-105869047D01*
X165669047Y-105940476D01*
X165383333Y-106226190D01*
X165692857Y-106226190D01*
D12*
D11*
X165216666Y-86178571D02*
X165192857Y-86202380D01*
X165121428Y-86226190D01*
X165073809Y-86226190D01*
X165002380Y-86202380D01*
X164954761Y-86154761D01*
X164930952Y-86107142D01*
X164907142Y-86011904D01*
X164907142Y-85940476D01*
X164930952Y-85845238D01*
X164954761Y-85797619D01*
X165002380Y-85750000D01*
X165073809Y-85726190D01*
X165121428Y-85726190D01*
X165192857Y-85750000D01*
X165216666Y-85773809D01*
X165407142Y-85773809D02*
X165430952Y-85750000D01*
X165478571Y-85726190D01*
X165597619Y-85726190D01*
X165645238Y-85750000D01*
X165669047Y-85773809D01*
X165692857Y-85821428D01*
X165692857Y-85869047D01*
X165669047Y-85940476D01*
X165383333Y-86226190D01*
X165692857Y-86226190D01*
D12*
D11*
X158226190Y-72583333D02*
X157988095Y-72750000D01*
X158226190Y-72869047D02*
X157726190Y-72869047D01*
X157726190Y-72678571D01*
X157750000Y-72630952D01*
X157773809Y-72607142D01*
X157821428Y-72583333D01*
X157892857Y-72583333D01*
X157940476Y-72607142D01*
X157964285Y-72630952D01*
X157988095Y-72678571D01*
X157988095Y-72869047D01*
X157773809Y-72392857D02*
X157750000Y-72369047D01*
X157726190Y-72321428D01*
X157726190Y-72202380D01*
X157750000Y-72154761D01*
X157773809Y-72130952D01*
X157821428Y-72107142D01*
X157869047Y-72107142D01*
X157940476Y-72130952D01*
X158226190Y-72416666D01*
X158226190Y-72107142D01*
D12*
D11*
X147226190Y-72583333D02*
X146988095Y-72750000D01*
X147226190Y-72869047D02*
X146726190Y-72869047D01*
X146726190Y-72678571D01*
X146750000Y-72630952D01*
X146773809Y-72607142D01*
X146821428Y-72583333D01*
X146892857Y-72583333D01*
X146940476Y-72607142D01*
X146964285Y-72630952D01*
X146988095Y-72678571D01*
X146988095Y-72869047D01*
X146773809Y-72392857D02*
X146750000Y-72369047D01*
X146726190Y-72321428D01*
X146726190Y-72202380D01*
X146750000Y-72154761D01*
X146773809Y-72130952D01*
X146821428Y-72107142D01*
X146869047Y-72107142D01*
X146940476Y-72130952D01*
X147226190Y-72416666D01*
X147226190Y-72107142D01*
D12*
D11*
X132216666Y-106178571D02*
X132192857Y-106202380D01*
X132121428Y-106226190D01*
X132073809Y-106226190D01*
X132002380Y-106202380D01*
X131954761Y-106154761D01*
X131930952Y-106107142D01*
X131907142Y-106011904D01*
X131907142Y-105940476D01*
X131930952Y-105845238D01*
X131954761Y-105797619D01*
X132002380Y-105750000D01*
X132073809Y-105726190D01*
X132121428Y-105726190D01*
X132192857Y-105750000D01*
X132216666Y-105773809D01*
X132407142Y-105773809D02*
X132430952Y-105750000D01*
X132478571Y-105726190D01*
X132597619Y-105726190D01*
X132645238Y-105750000D01*
X132669047Y-105773809D01*
X132692857Y-105821428D01*
X132692857Y-105869047D01*
X132669047Y-105940476D01*
X132383333Y-106226190D01*
X132692857Y-106226190D01*
D12*
D11*
X136226190Y-103683333D02*
X135988095Y-103850000D01*
X136226190Y-103969047D02*
X135726190Y-103969047D01*
X135726190Y-103778571D01*
X135750000Y-103730952D01*
X135773809Y-103707142D01*
X135821428Y-103683333D01*
X135892857Y-103683333D01*
X135940476Y-103707142D01*
X135964285Y-103730952D01*
X135988095Y-103778571D01*
X135988095Y-103969047D01*
X136226190Y-103207142D02*
X136226190Y-103492857D01*
X136226190Y-103350000D02*
X135726190Y-103350000D01*
X135797619Y-103397619D01*
X135845238Y-103445238D01*
X135869047Y-103492857D01*
D12*
D11*
X136226190Y-82583333D02*
X135988095Y-82750000D01*
X136226190Y-82869047D02*
X135726190Y-82869047D01*
X135726190Y-82678571D01*
X135750000Y-82630952D01*
X135773809Y-82607142D01*
X135821428Y-82583333D01*
X135892857Y-82583333D01*
X135940476Y-82607142D01*
X135964285Y-82630952D01*
X135988095Y-82678571D01*
X135988095Y-82869047D01*
X135773809Y-82392857D02*
X135750000Y-82369047D01*
X135726190Y-82321428D01*
X135726190Y-82202380D01*
X135750000Y-82154761D01*
X135773809Y-82130952D01*
X135821428Y-82107142D01*
X135869047Y-82107142D01*
X135940476Y-82130952D01*
X136226190Y-82416666D01*
X136226190Y-82107142D01*
D12*
D11*
X132216666Y-90278571D02*
X132192857Y-90302380D01*
X132121428Y-90326190D01*
X132073809Y-90326190D01*
X132002380Y-90302380D01*
X131954761Y-90254761D01*
X131930952Y-90207142D01*
X131907142Y-90111904D01*
X131907142Y-90040476D01*
X131930952Y-89945238D01*
X131954761Y-89897619D01*
X132002380Y-89850000D01*
X132073809Y-89826190D01*
X132121428Y-89826190D01*
X132192857Y-89850000D01*
X132216666Y-89873809D01*
X132692857Y-90326190D02*
X132407142Y-90326190D01*
X132550000Y-90326190D02*
X132550000Y-89826190D01*
X132502380Y-89897619D01*
X132454761Y-89945238D01*
X132407142Y-89969047D01*
D12*
D11*
X136226190Y-83683333D02*
X135988095Y-83850000D01*
X136226190Y-83969047D02*
X135726190Y-83969047D01*
X135726190Y-83778571D01*
X135750000Y-83730952D01*
X135773809Y-83707142D01*
X135821428Y-83683333D01*
X135892857Y-83683333D01*
X135940476Y-83707142D01*
X135964285Y-83730952D01*
X135988095Y-83778571D01*
X135988095Y-83969047D01*
X136226190Y-83207142D02*
X136226190Y-83492857D01*
X136226190Y-83350000D02*
X135726190Y-83350000D01*
X135797619Y-83397619D01*
X135845238Y-83445238D01*
X135869047Y-83492857D01*
D12*
D11*
X136226190Y-102583333D02*
X135988095Y-102750000D01*
X136226190Y-102869047D02*
X135726190Y-102869047D01*
X135726190Y-102678571D01*
X135750000Y-102630952D01*
X135773809Y-102607142D01*
X135821428Y-102583333D01*
X135892857Y-102583333D01*
X135940476Y-102607142D01*
X135964285Y-102630952D01*
X135988095Y-102678571D01*
X135988095Y-102869047D01*
X135773809Y-102392857D02*
X135750000Y-102369047D01*
X135726190Y-102321428D01*
X135726190Y-102202380D01*
X135750000Y-102154761D01*
X135773809Y-102130952D01*
X135821428Y-102107142D01*
X135869047Y-102107142D01*
X135940476Y-102130952D01*
X136226190Y-102416666D01*
X136226190Y-102107142D01*
D12*
D11*
X132216666Y-100278571D02*
X132192857Y-100302380D01*
X132121428Y-100326190D01*
X132073809Y-100326190D01*
X132002380Y-100302380D01*
X131954761Y-100254761D01*
X131930952Y-100207142D01*
X131907142Y-100111904D01*
X131907142Y-100040476D01*
X131930952Y-99945238D01*
X131954761Y-99897619D01*
X132002380Y-99850000D01*
X132073809Y-99826190D01*
X132121428Y-99826190D01*
X132192857Y-99850000D01*
X132216666Y-99873809D01*
X132692857Y-100326190D02*
X132407142Y-100326190D01*
X132550000Y-100326190D02*
X132550000Y-99826190D01*
X132502380Y-99897619D01*
X132454761Y-99945238D01*
X132407142Y-99969047D01*
D12*
D11*
X132216666Y-80278571D02*
X132192857Y-80302380D01*
X132121428Y-80326190D01*
X132073809Y-80326190D01*
X132002380Y-80302380D01*
X131954761Y-80254761D01*
X131930952Y-80207142D01*
X131907142Y-80111904D01*
X131907142Y-80040476D01*
X131930952Y-79945238D01*
X131954761Y-79897619D01*
X132002380Y-79850000D01*
X132073809Y-79826190D01*
X132121428Y-79826190D01*
X132192857Y-79850000D01*
X132216666Y-79873809D01*
X132692857Y-80326190D02*
X132407142Y-80326190D01*
X132550000Y-80326190D02*
X132550000Y-79826190D01*
X132502380Y-79897619D01*
X132454761Y-79945238D01*
X132407142Y-79969047D01*
D12*
D11*
X136226190Y-93683333D02*
X135988095Y-93850000D01*
X136226190Y-93969047D02*
X135726190Y-93969047D01*
X135726190Y-93778571D01*
X135750000Y-93730952D01*
X135773809Y-93707142D01*
X135821428Y-93683333D01*
X135892857Y-93683333D01*
X135940476Y-93707142D01*
X135964285Y-93730952D01*
X135988095Y-93778571D01*
X135988095Y-93969047D01*
X136226190Y-93207142D02*
X136226190Y-93492857D01*
X136226190Y-93350000D02*
X135726190Y-93350000D01*
X135797619Y-93397619D01*
X135845238Y-93445238D01*
X135869047Y-93492857D01*
D12*
D11*
X136226190Y-92583333D02*
X135988095Y-92750000D01*
X136226190Y-92869047D02*
X135726190Y-92869047D01*
X135726190Y-92678571D01*
X135750000Y-92630952D01*
X135773809Y-92607142D01*
X135821428Y-92583333D01*
X135892857Y-92583333D01*
X135940476Y-92607142D01*
X135964285Y-92630952D01*
X135988095Y-92678571D01*
X135988095Y-92869047D01*
X135773809Y-92392857D02*
X135750000Y-92369047D01*
X135726190Y-92321428D01*
X135726190Y-92202380D01*
X135750000Y-92154761D01*
X135773809Y-92130952D01*
X135821428Y-92107142D01*
X135869047Y-92107142D01*
X135940476Y-92130952D01*
X136226190Y-92416666D01*
X136226190Y-92107142D01*
D12*
D11*
X132216666Y-86178571D02*
X132192857Y-86202380D01*
X132121428Y-86226190D01*
X132073809Y-86226190D01*
X132002380Y-86202380D01*
X131954761Y-86154761D01*
X131930952Y-86107142D01*
X131907142Y-86011904D01*
X131907142Y-85940476D01*
X131930952Y-85845238D01*
X131954761Y-85797619D01*
X132002380Y-85750000D01*
X132073809Y-85726190D01*
X132121428Y-85726190D01*
X132192857Y-85750000D01*
X132216666Y-85773809D01*
X132407142Y-85773809D02*
X132430952Y-85750000D01*
X132478571Y-85726190D01*
X132597619Y-85726190D01*
X132645238Y-85750000D01*
X132669047Y-85773809D01*
X132692857Y-85821428D01*
X132692857Y-85869047D01*
X132669047Y-85940476D01*
X132383333Y-86226190D01*
X132692857Y-86226190D01*
D12*
D11*
X132216666Y-96178571D02*
X132192857Y-96202380D01*
X132121428Y-96226190D01*
X132073809Y-96226190D01*
X132002380Y-96202380D01*
X131954761Y-96154761D01*
X131930952Y-96107142D01*
X131907142Y-96011904D01*
X131907142Y-95940476D01*
X131930952Y-95845238D01*
X131954761Y-95797619D01*
X132002380Y-95750000D01*
X132073809Y-95726190D01*
X132121428Y-95726190D01*
X132192857Y-95750000D01*
X132216666Y-95773809D01*
X132407142Y-95773809D02*
X132430952Y-95750000D01*
X132478571Y-95726190D01*
X132597619Y-95726190D01*
X132645238Y-95750000D01*
X132669047Y-95773809D01*
X132692857Y-95821428D01*
X132692857Y-95869047D01*
X132669047Y-95940476D01*
X132383333Y-96226190D01*
X132692857Y-96226190D01*
D12*
D11*
X132216666Y-70278571D02*
X132192857Y-70302380D01*
X132121428Y-70326190D01*
X132073809Y-70326190D01*
X132002380Y-70302380D01*
X131954761Y-70254761D01*
X131930952Y-70207142D01*
X131907142Y-70111904D01*
X131907142Y-70040476D01*
X131930952Y-69945238D01*
X131954761Y-69897619D01*
X132002380Y-69850000D01*
X132073809Y-69826190D01*
X132121428Y-69826190D01*
X132192857Y-69850000D01*
X132216666Y-69873809D01*
X132692857Y-70326190D02*
X132407142Y-70326190D01*
X132550000Y-70326190D02*
X132550000Y-69826190D01*
X132502380Y-69897619D01*
X132454761Y-69945238D01*
X132407142Y-69969047D01*
D12*
D11*
X132216666Y-76178571D02*
X132192857Y-76202380D01*
X132121428Y-76226190D01*
X132073809Y-76226190D01*
X132002380Y-76202380D01*
X131954761Y-76154761D01*
X131930952Y-76107142D01*
X131907142Y-76011904D01*
X131907142Y-75940476D01*
X131930952Y-75845238D01*
X131954761Y-75797619D01*
X132002380Y-75750000D01*
X132073809Y-75726190D01*
X132121428Y-75726190D01*
X132192857Y-75750000D01*
X132216666Y-75773809D01*
X132407142Y-75773809D02*
X132430952Y-75750000D01*
X132478571Y-75726190D01*
X132597619Y-75726190D01*
X132645238Y-75750000D01*
X132669047Y-75773809D01*
X132692857Y-75821428D01*
X132692857Y-75869047D01*
X132669047Y-75940476D01*
X132383333Y-76226190D01*
X132692857Y-76226190D01*
D12*
D11*
X136226190Y-73683333D02*
X135988095Y-73850000D01*
X136226190Y-73969047D02*
X135726190Y-73969047D01*
X135726190Y-73778571D01*
X135750000Y-73730952D01*
X135773809Y-73707142D01*
X135821428Y-73683333D01*
X135892857Y-73683333D01*
X135940476Y-73707142D01*
X135964285Y-73730952D01*
X135988095Y-73778571D01*
X135988095Y-73969047D01*
X136226190Y-73207142D02*
X136226190Y-73492857D01*
X136226190Y-73350000D02*
X135726190Y-73350000D01*
X135797619Y-73397619D01*
X135845238Y-73445238D01*
X135869047Y-73492857D01*
D12*
D11*
X136226190Y-72583333D02*
X135988095Y-72750000D01*
X136226190Y-72869047D02*
X135726190Y-72869047D01*
X135726190Y-72678571D01*
X135750000Y-72630952D01*
X135773809Y-72607142D01*
X135821428Y-72583333D01*
X135892857Y-72583333D01*
X135940476Y-72607142D01*
X135964285Y-72630952D01*
X135988095Y-72678571D01*
X135988095Y-72869047D01*
X135773809Y-72392857D02*
X135750000Y-72369047D01*
X135726190Y-72321428D01*
X135726190Y-72202380D01*
X135750000Y-72154761D01*
X135773809Y-72130952D01*
X135821428Y-72107142D01*
X135869047Y-72107142D01*
X135940476Y-72130952D01*
X136226190Y-72416666D01*
X136226190Y-72107142D01*
D12*
M02*
