G04 #@! TF.GenerationSoftware,KiCad,Pcbnew,5.0.2-bee76a0~70~ubuntu18.04.1*
G04 #@! TF.CreationDate,2020-02-27T14:19:30+01:00*
G04 #@! TF.ProjectId,output.load_cell_panel,6f757470-7574-42e6-9c6f-61645f63656c,rev?*
G04 #@! TF.SameCoordinates,Original*
G04 #@! TF.FileFunction,Profile,NP*
%FSLAX46Y46*%
G04 Gerber Fmt 4.6, Leading zero omitted, Abs format (unit mm)*
G04 Created by KiCad (PCBNEW 5.0.2-bee76a0~70~ubuntu18.04.1) date Thu 27 Feb 2020 02:19:30 PM CET*
%MOMM*%
%LPD*%
G01*
G04 APERTURE LIST*
%ADD10C,0.150000*%
%ADD11C,0.100000*%
G04 APERTURE END LIST*
D10*
X125000000Y-111000000D02*
X125000000Y-65000000D01*
X175000000Y-111000000D02*
X125000000Y-111000000D01*
X175000000Y-65000000D02*
X175000000Y-111000000D01*
X125000000Y-65000000D02*
X175000000Y-65000000D01*
D11*
X141100000Y-71199998D02*
X141100000Y-70100000D01*
X141100000Y-74800002D02*
X141100000Y-75900000D01*
X136700000Y-74800002D02*
X136700000Y-75900000D01*
X136700000Y-71199998D02*
X136700000Y-70100000D01*
X136700000Y-71199998D02*
X136707687Y-71299702D01*
X141100000Y-71199998D02*
X141092313Y-71299702D01*
X136707687Y-71299702D02*
X136723015Y-71398520D01*
X141092313Y-71299702D02*
X141076985Y-71398520D01*
X136723015Y-71398520D02*
X136745893Y-71495867D01*
X141076985Y-71398520D02*
X141054107Y-71495867D01*
X136745893Y-71495867D02*
X136776186Y-71591167D01*
X141054107Y-71495867D02*
X141023814Y-71591167D01*
X136776186Y-71591167D02*
X136813715Y-71683857D01*
X141023814Y-71591167D02*
X140986285Y-71683857D01*
X136813715Y-71683857D02*
X136858258Y-71773388D01*
X140986285Y-71683857D02*
X140941742Y-71773388D01*
X136858258Y-71773388D02*
X136909551Y-71859230D01*
X140941742Y-71773388D02*
X140890449Y-71859230D01*
X136909551Y-71859230D02*
X136967291Y-71940875D01*
X140890449Y-71859230D02*
X140832709Y-71940875D01*
X136967291Y-71940875D02*
X137031136Y-72017840D01*
X140832709Y-71940875D02*
X140768864Y-72017840D01*
X137031136Y-72017840D02*
X137100708Y-72089670D01*
X140768864Y-72017840D02*
X140699292Y-72089670D01*
X137100708Y-72089670D02*
X137175595Y-72155940D01*
X140699292Y-72089670D02*
X140624405Y-72155940D01*
X137175595Y-72155940D02*
X137255354Y-72216258D01*
X140624405Y-72155940D02*
X140544646Y-72216258D01*
X137255354Y-72216258D02*
X137339513Y-72270267D01*
X140544646Y-72216258D02*
X140460487Y-72270267D01*
X137339513Y-72270267D02*
X137427574Y-72317647D01*
X140460487Y-72270267D02*
X140372426Y-72317647D01*
X137427574Y-72317647D02*
X137519016Y-72358118D01*
X140372426Y-72317647D02*
X140280984Y-72358118D01*
X137519016Y-72358118D02*
X137613298Y-72391440D01*
X140280984Y-72358118D02*
X140186702Y-72391440D01*
X137613298Y-72391440D02*
X137709862Y-72417416D01*
X140186702Y-72391440D02*
X140090138Y-72417416D01*
X137709862Y-72417416D02*
X137808137Y-72435893D01*
X140090138Y-72417416D02*
X139991863Y-72435893D01*
X137808137Y-72435893D02*
X137907542Y-72446761D01*
X139991863Y-72435893D02*
X139892458Y-72446761D01*
X137907542Y-72446761D02*
X138007488Y-72449956D01*
X139892458Y-72446761D02*
X139792512Y-72449956D01*
X139792512Y-72449956D02*
X138007488Y-72449956D01*
X136700000Y-74800002D02*
X136707687Y-74700298D01*
X141100000Y-74800002D02*
X141092313Y-74700298D01*
X136707687Y-74700298D02*
X136723015Y-74601480D01*
X141092313Y-74700298D02*
X141076985Y-74601480D01*
X136723015Y-74601480D02*
X136745893Y-74504133D01*
X141076985Y-74601480D02*
X141054107Y-74504133D01*
X136745893Y-74504133D02*
X136776186Y-74408833D01*
X141054107Y-74504133D02*
X141023814Y-74408833D01*
X136776186Y-74408833D02*
X136813715Y-74316143D01*
X141023814Y-74408833D02*
X140986285Y-74316143D01*
X136813715Y-74316143D02*
X136858258Y-74226612D01*
X140986285Y-74316143D02*
X140941742Y-74226612D01*
X136858258Y-74226612D02*
X136909551Y-74140770D01*
X140941742Y-74226612D02*
X140890449Y-74140770D01*
X136909551Y-74140770D02*
X136967291Y-74059125D01*
X140890449Y-74140770D02*
X140832709Y-74059125D01*
X136967291Y-74059125D02*
X137031136Y-73982160D01*
X140832709Y-74059125D02*
X140768864Y-73982160D01*
X137031136Y-73982160D02*
X137100708Y-73910330D01*
X140768864Y-73982160D02*
X140699292Y-73910330D01*
X137100708Y-73910330D02*
X137175595Y-73844060D01*
X140699292Y-73910330D02*
X140624405Y-73844060D01*
X137175595Y-73844060D02*
X137255354Y-73783742D01*
X140624405Y-73844060D02*
X140544646Y-73783742D01*
X137255354Y-73783742D02*
X137339513Y-73729733D01*
X140544646Y-73783742D02*
X140460487Y-73729733D01*
X137339513Y-73729733D02*
X137427574Y-73682353D01*
X140460487Y-73729733D02*
X140372426Y-73682353D01*
X137427574Y-73682353D02*
X137519016Y-73641882D01*
X140372426Y-73682353D02*
X140280984Y-73641882D01*
X137519016Y-73641882D02*
X137613298Y-73608560D01*
X140280984Y-73641882D02*
X140186702Y-73608560D01*
X137613298Y-73608560D02*
X137709862Y-73582584D01*
X140186702Y-73608560D02*
X140090138Y-73582584D01*
X137709862Y-73582584D02*
X137808137Y-73564107D01*
X140090138Y-73582584D02*
X139991863Y-73564107D01*
X137808137Y-73564107D02*
X137907542Y-73553239D01*
X139991863Y-73564107D02*
X139892458Y-73553239D01*
X137907542Y-73553239D02*
X138007488Y-73550044D01*
X139892458Y-73553239D02*
X139792512Y-73550044D01*
X139792512Y-73550044D02*
X138007488Y-73550044D01*
X152100000Y-71199998D02*
X152100000Y-70100000D01*
X152100000Y-74800002D02*
X152100000Y-75900000D01*
X147700000Y-74800002D02*
X147700000Y-75900000D01*
X147700000Y-71199998D02*
X147700000Y-70100000D01*
X147700000Y-71199998D02*
X147707687Y-71299702D01*
X152100000Y-71199998D02*
X152092313Y-71299702D01*
X147707687Y-71299702D02*
X147723015Y-71398520D01*
X152092313Y-71299702D02*
X152076985Y-71398520D01*
X147723015Y-71398520D02*
X147745893Y-71495867D01*
X152076985Y-71398520D02*
X152054107Y-71495867D01*
X147745893Y-71495867D02*
X147776186Y-71591167D01*
X152054107Y-71495867D02*
X152023814Y-71591167D01*
X147776186Y-71591167D02*
X147813715Y-71683857D01*
X152023814Y-71591167D02*
X151986285Y-71683857D01*
X147813715Y-71683857D02*
X147858258Y-71773388D01*
X151986285Y-71683857D02*
X151941742Y-71773388D01*
X147858258Y-71773388D02*
X147909551Y-71859230D01*
X151941742Y-71773388D02*
X151890449Y-71859230D01*
X147909551Y-71859230D02*
X147967291Y-71940875D01*
X151890449Y-71859230D02*
X151832709Y-71940875D01*
X147967291Y-71940875D02*
X148031136Y-72017840D01*
X151832709Y-71940875D02*
X151768864Y-72017840D01*
X148031136Y-72017840D02*
X148100708Y-72089670D01*
X151768864Y-72017840D02*
X151699292Y-72089670D01*
X148100708Y-72089670D02*
X148175595Y-72155940D01*
X151699292Y-72089670D02*
X151624405Y-72155940D01*
X148175595Y-72155940D02*
X148255354Y-72216258D01*
X151624405Y-72155940D02*
X151544646Y-72216258D01*
X148255354Y-72216258D02*
X148339513Y-72270267D01*
X151544646Y-72216258D02*
X151460487Y-72270267D01*
X148339513Y-72270267D02*
X148427574Y-72317647D01*
X151460487Y-72270267D02*
X151372426Y-72317647D01*
X148427574Y-72317647D02*
X148519016Y-72358118D01*
X151372426Y-72317647D02*
X151280984Y-72358118D01*
X148519016Y-72358118D02*
X148613298Y-72391440D01*
X151280984Y-72358118D02*
X151186702Y-72391440D01*
X148613298Y-72391440D02*
X148709862Y-72417416D01*
X151186702Y-72391440D02*
X151090138Y-72417416D01*
X148709862Y-72417416D02*
X148808137Y-72435893D01*
X151090138Y-72417416D02*
X150991863Y-72435893D01*
X148808137Y-72435893D02*
X148907542Y-72446761D01*
X150991863Y-72435893D02*
X150892458Y-72446761D01*
X148907542Y-72446761D02*
X149007488Y-72449956D01*
X150892458Y-72446761D02*
X150792512Y-72449956D01*
X150792512Y-72449956D02*
X149007488Y-72449956D01*
X147700000Y-74800002D02*
X147707687Y-74700298D01*
X152100000Y-74800002D02*
X152092313Y-74700298D01*
X147707687Y-74700298D02*
X147723015Y-74601480D01*
X152092313Y-74700298D02*
X152076985Y-74601480D01*
X147723015Y-74601480D02*
X147745893Y-74504133D01*
X152076985Y-74601480D02*
X152054107Y-74504133D01*
X147745893Y-74504133D02*
X147776186Y-74408833D01*
X152054107Y-74504133D02*
X152023814Y-74408833D01*
X147776186Y-74408833D02*
X147813715Y-74316143D01*
X152023814Y-74408833D02*
X151986285Y-74316143D01*
X147813715Y-74316143D02*
X147858258Y-74226612D01*
X151986285Y-74316143D02*
X151941742Y-74226612D01*
X147858258Y-74226612D02*
X147909551Y-74140770D01*
X151941742Y-74226612D02*
X151890449Y-74140770D01*
X147909551Y-74140770D02*
X147967291Y-74059125D01*
X151890449Y-74140770D02*
X151832709Y-74059125D01*
X147967291Y-74059125D02*
X148031136Y-73982160D01*
X151832709Y-74059125D02*
X151768864Y-73982160D01*
X148031136Y-73982160D02*
X148100708Y-73910330D01*
X151768864Y-73982160D02*
X151699292Y-73910330D01*
X148100708Y-73910330D02*
X148175595Y-73844060D01*
X151699292Y-73910330D02*
X151624405Y-73844060D01*
X148175595Y-73844060D02*
X148255354Y-73783742D01*
X151624405Y-73844060D02*
X151544646Y-73783742D01*
X148255354Y-73783742D02*
X148339513Y-73729733D01*
X151544646Y-73783742D02*
X151460487Y-73729733D01*
X148339513Y-73729733D02*
X148427574Y-73682353D01*
X151460487Y-73729733D02*
X151372426Y-73682353D01*
X148427574Y-73682353D02*
X148519016Y-73641882D01*
X151372426Y-73682353D02*
X151280984Y-73641882D01*
X148519016Y-73641882D02*
X148613298Y-73608560D01*
X151280984Y-73641882D02*
X151186702Y-73608560D01*
X148613298Y-73608560D02*
X148709862Y-73582584D01*
X151186702Y-73608560D02*
X151090138Y-73582584D01*
X148709862Y-73582584D02*
X148808137Y-73564107D01*
X151090138Y-73582584D02*
X150991863Y-73564107D01*
X148808137Y-73564107D02*
X148907542Y-73553239D01*
X150991863Y-73564107D02*
X150892458Y-73553239D01*
X148907542Y-73553239D02*
X149007488Y-73550044D01*
X150892458Y-73553239D02*
X150792512Y-73550044D01*
X150792512Y-73550044D02*
X149007488Y-73550044D01*
X163100000Y-71199998D02*
X163100000Y-70100000D01*
X163100000Y-74800002D02*
X163100000Y-75900000D01*
X158700000Y-74800002D02*
X158700000Y-75900000D01*
X158700000Y-71199998D02*
X158700000Y-70100000D01*
X158700000Y-71199998D02*
X158707687Y-71299702D01*
X163100000Y-71199998D02*
X163092313Y-71299702D01*
X158707687Y-71299702D02*
X158723015Y-71398520D01*
X163092313Y-71299702D02*
X163076985Y-71398520D01*
X158723015Y-71398520D02*
X158745893Y-71495867D01*
X163076985Y-71398520D02*
X163054107Y-71495867D01*
X158745893Y-71495867D02*
X158776186Y-71591167D01*
X163054107Y-71495867D02*
X163023814Y-71591167D01*
X158776186Y-71591167D02*
X158813715Y-71683857D01*
X163023814Y-71591167D02*
X162986285Y-71683857D01*
X158813715Y-71683857D02*
X158858258Y-71773388D01*
X162986285Y-71683857D02*
X162941742Y-71773388D01*
X158858258Y-71773388D02*
X158909551Y-71859230D01*
X162941742Y-71773388D02*
X162890449Y-71859230D01*
X158909551Y-71859230D02*
X158967291Y-71940875D01*
X162890449Y-71859230D02*
X162832709Y-71940875D01*
X158967291Y-71940875D02*
X159031136Y-72017840D01*
X162832709Y-71940875D02*
X162768864Y-72017840D01*
X159031136Y-72017840D02*
X159100708Y-72089670D01*
X162768864Y-72017840D02*
X162699292Y-72089670D01*
X159100708Y-72089670D02*
X159175595Y-72155940D01*
X162699292Y-72089670D02*
X162624405Y-72155940D01*
X159175595Y-72155940D02*
X159255354Y-72216258D01*
X162624405Y-72155940D02*
X162544646Y-72216258D01*
X159255354Y-72216258D02*
X159339513Y-72270267D01*
X162544646Y-72216258D02*
X162460487Y-72270267D01*
X159339513Y-72270267D02*
X159427574Y-72317647D01*
X162460487Y-72270267D02*
X162372426Y-72317647D01*
X159427574Y-72317647D02*
X159519016Y-72358118D01*
X162372426Y-72317647D02*
X162280984Y-72358118D01*
X159519016Y-72358118D02*
X159613298Y-72391440D01*
X162280984Y-72358118D02*
X162186702Y-72391440D01*
X159613298Y-72391440D02*
X159709862Y-72417416D01*
X162186702Y-72391440D02*
X162090138Y-72417416D01*
X159709862Y-72417416D02*
X159808137Y-72435893D01*
X162090138Y-72417416D02*
X161991863Y-72435893D01*
X159808137Y-72435893D02*
X159907542Y-72446761D01*
X161991863Y-72435893D02*
X161892458Y-72446761D01*
X159907542Y-72446761D02*
X160007488Y-72449956D01*
X161892458Y-72446761D02*
X161792512Y-72449956D01*
X161792512Y-72449956D02*
X160007488Y-72449956D01*
X158700000Y-74800002D02*
X158707687Y-74700298D01*
X163100000Y-74800002D02*
X163092313Y-74700298D01*
X158707687Y-74700298D02*
X158723015Y-74601480D01*
X163092313Y-74700298D02*
X163076985Y-74601480D01*
X158723015Y-74601480D02*
X158745893Y-74504133D01*
X163076985Y-74601480D02*
X163054107Y-74504133D01*
X158745893Y-74504133D02*
X158776186Y-74408833D01*
X163054107Y-74504133D02*
X163023814Y-74408833D01*
X158776186Y-74408833D02*
X158813715Y-74316143D01*
X163023814Y-74408833D02*
X162986285Y-74316143D01*
X158813715Y-74316143D02*
X158858258Y-74226612D01*
X162986285Y-74316143D02*
X162941742Y-74226612D01*
X158858258Y-74226612D02*
X158909551Y-74140770D01*
X162941742Y-74226612D02*
X162890449Y-74140770D01*
X158909551Y-74140770D02*
X158967291Y-74059125D01*
X162890449Y-74140770D02*
X162832709Y-74059125D01*
X158967291Y-74059125D02*
X159031136Y-73982160D01*
X162832709Y-74059125D02*
X162768864Y-73982160D01*
X159031136Y-73982160D02*
X159100708Y-73910330D01*
X162768864Y-73982160D02*
X162699292Y-73910330D01*
X159100708Y-73910330D02*
X159175595Y-73844060D01*
X162699292Y-73910330D02*
X162624405Y-73844060D01*
X159175595Y-73844060D02*
X159255354Y-73783742D01*
X162624405Y-73844060D02*
X162544646Y-73783742D01*
X159255354Y-73783742D02*
X159339513Y-73729733D01*
X162544646Y-73783742D02*
X162460487Y-73729733D01*
X159339513Y-73729733D02*
X159427574Y-73682353D01*
X162460487Y-73729733D02*
X162372426Y-73682353D01*
X159427574Y-73682353D02*
X159519016Y-73641882D01*
X162372426Y-73682353D02*
X162280984Y-73641882D01*
X159519016Y-73641882D02*
X159613298Y-73608560D01*
X162280984Y-73641882D02*
X162186702Y-73608560D01*
X159613298Y-73608560D02*
X159709862Y-73582584D01*
X162186702Y-73608560D02*
X162090138Y-73582584D01*
X159709862Y-73582584D02*
X159808137Y-73564107D01*
X162090138Y-73582584D02*
X161991863Y-73564107D01*
X159808137Y-73564107D02*
X159907542Y-73553239D01*
X161991863Y-73564107D02*
X161892458Y-73553239D01*
X159907542Y-73553239D02*
X160007488Y-73550044D01*
X161892458Y-73553239D02*
X161792512Y-73550044D01*
X161792512Y-73550044D02*
X160007488Y-73550044D01*
X153199998Y-95900000D02*
X152100000Y-95900000D01*
X156799998Y-95900000D02*
X158700000Y-95900000D01*
X156799998Y-100100000D02*
X158700000Y-100100000D01*
X153199998Y-100100000D02*
X152100000Y-100100000D01*
X153199998Y-100100000D02*
X153299702Y-100092313D01*
X153199998Y-95900000D02*
X153299702Y-95907687D01*
X153299702Y-100092313D02*
X153398520Y-100076985D01*
X153299702Y-95907687D02*
X153398520Y-95923015D01*
X153398520Y-100076985D02*
X153495867Y-100054107D01*
X153398520Y-95923015D02*
X153495867Y-95945893D01*
X153495867Y-100054107D02*
X153591167Y-100023814D01*
X153495867Y-95945893D02*
X153591167Y-95976186D01*
X153591167Y-100023814D02*
X153683857Y-99986285D01*
X153591167Y-95976186D02*
X153683857Y-96013715D01*
X153683857Y-99986285D02*
X153773388Y-99941742D01*
X153683857Y-96013715D02*
X153773388Y-96058258D01*
X153773388Y-99941742D02*
X153859230Y-99890449D01*
X153773388Y-96058258D02*
X153859230Y-96109551D01*
X153859230Y-99890449D02*
X153940875Y-99832709D01*
X153859230Y-96109551D02*
X153940875Y-96167291D01*
X153940875Y-99832709D02*
X154017840Y-99768864D01*
X153940875Y-96167291D02*
X154017840Y-96231136D01*
X154017840Y-99768864D02*
X154089670Y-99699292D01*
X154017840Y-96231136D02*
X154089670Y-96300708D01*
X154089670Y-99699292D02*
X154155940Y-99624405D01*
X154089670Y-96300708D02*
X154155940Y-96375595D01*
X154155940Y-99624405D02*
X154216258Y-99544646D01*
X154155940Y-96375595D02*
X154216258Y-96455354D01*
X154216258Y-99544646D02*
X154270267Y-99460487D01*
X154216258Y-96455354D02*
X154270267Y-96539513D01*
X154270267Y-99460487D02*
X154317647Y-99372426D01*
X154270267Y-96539513D02*
X154317647Y-96627574D01*
X154317647Y-99372426D02*
X154358118Y-99280984D01*
X154317647Y-96627574D02*
X154358118Y-96719016D01*
X154358118Y-99280984D02*
X154391440Y-99186702D01*
X154358118Y-96719016D02*
X154391440Y-96813298D01*
X154391440Y-99186702D02*
X154417416Y-99090138D01*
X154391440Y-96813298D02*
X154417416Y-96909862D01*
X154417416Y-99090138D02*
X154435893Y-98991863D01*
X154417416Y-96909862D02*
X154435893Y-97008137D01*
X154435893Y-98991863D02*
X154446761Y-98892458D01*
X154435893Y-97008137D02*
X154446761Y-97107542D01*
X154446761Y-98892458D02*
X154449956Y-98792512D01*
X154446761Y-97107542D02*
X154449956Y-97207488D01*
X154449956Y-97207488D02*
X154449956Y-98792512D01*
X156799998Y-100100000D02*
X156700294Y-100092313D01*
X156799998Y-95900000D02*
X156700294Y-95907687D01*
X156700294Y-100092313D02*
X156601476Y-100076985D01*
X156700294Y-95907687D02*
X156601476Y-95923015D01*
X156601476Y-100076985D02*
X156504129Y-100054107D01*
X156601476Y-95923015D02*
X156504129Y-95945893D01*
X156504129Y-100054107D02*
X156408829Y-100023814D01*
X156504129Y-95945893D02*
X156408829Y-95976186D01*
X156408829Y-100023814D02*
X156316139Y-99986285D01*
X156408829Y-95976186D02*
X156316139Y-96013715D01*
X156316139Y-99986285D02*
X156226608Y-99941742D01*
X156316139Y-96013715D02*
X156226608Y-96058258D01*
X156226608Y-99941742D02*
X156140766Y-99890449D01*
X156226608Y-96058258D02*
X156140766Y-96109551D01*
X156140766Y-99890449D02*
X156059121Y-99832709D01*
X156140766Y-96109551D02*
X156059121Y-96167291D01*
X156059121Y-99832709D02*
X155982156Y-99768864D01*
X156059121Y-96167291D02*
X155982156Y-96231136D01*
X155982156Y-99768864D02*
X155910326Y-99699292D01*
X155982156Y-96231136D02*
X155910326Y-96300708D01*
X155910326Y-99699292D02*
X155844056Y-99624405D01*
X155910326Y-96300708D02*
X155844056Y-96375595D01*
X155844056Y-99624405D02*
X155783738Y-99544646D01*
X155844056Y-96375595D02*
X155783738Y-96455354D01*
X155783738Y-99544646D02*
X155729729Y-99460487D01*
X155783738Y-96455354D02*
X155729729Y-96539513D01*
X155729729Y-99460487D02*
X155682349Y-99372426D01*
X155729729Y-96539513D02*
X155682349Y-96627574D01*
X155682349Y-99372426D02*
X155641878Y-99280984D01*
X155682349Y-96627574D02*
X155641878Y-96719016D01*
X155641878Y-99280984D02*
X155608556Y-99186702D01*
X155641878Y-96719016D02*
X155608556Y-96813298D01*
X155608556Y-99186702D02*
X155582580Y-99090138D01*
X155608556Y-96813298D02*
X155582580Y-96909862D01*
X155582580Y-99090138D02*
X155564103Y-98991863D01*
X155582580Y-96909862D02*
X155564103Y-97008137D01*
X155564103Y-98991863D02*
X155553235Y-98892458D01*
X155564103Y-97008137D02*
X155553235Y-97107542D01*
X155553235Y-98892458D02*
X155550040Y-98792512D01*
X155553235Y-97107542D02*
X155550040Y-97207488D01*
X155550040Y-97207488D02*
X155550040Y-98792512D01*
X153199998Y-85900000D02*
X152100000Y-85900000D01*
X156799998Y-85900000D02*
X158700000Y-85900000D01*
X156799998Y-90100000D02*
X158700000Y-90100000D01*
X153199998Y-90100000D02*
X152100000Y-90100000D01*
X153199998Y-90100000D02*
X153299702Y-90092313D01*
X153199998Y-85900000D02*
X153299702Y-85907687D01*
X153299702Y-90092313D02*
X153398520Y-90076985D01*
X153299702Y-85907687D02*
X153398520Y-85923015D01*
X153398520Y-90076985D02*
X153495867Y-90054107D01*
X153398520Y-85923015D02*
X153495867Y-85945893D01*
X153495867Y-90054107D02*
X153591167Y-90023814D01*
X153495867Y-85945893D02*
X153591167Y-85976186D01*
X153591167Y-90023814D02*
X153683857Y-89986285D01*
X153591167Y-85976186D02*
X153683857Y-86013715D01*
X153683857Y-89986285D02*
X153773388Y-89941742D01*
X153683857Y-86013715D02*
X153773388Y-86058258D01*
X153773388Y-89941742D02*
X153859230Y-89890449D01*
X153773388Y-86058258D02*
X153859230Y-86109551D01*
X153859230Y-89890449D02*
X153940875Y-89832709D01*
X153859230Y-86109551D02*
X153940875Y-86167291D01*
X153940875Y-89832709D02*
X154017840Y-89768864D01*
X153940875Y-86167291D02*
X154017840Y-86231136D01*
X154017840Y-89768864D02*
X154089670Y-89699292D01*
X154017840Y-86231136D02*
X154089670Y-86300708D01*
X154089670Y-89699292D02*
X154155940Y-89624405D01*
X154089670Y-86300708D02*
X154155940Y-86375595D01*
X154155940Y-89624405D02*
X154216258Y-89544646D01*
X154155940Y-86375595D02*
X154216258Y-86455354D01*
X154216258Y-89544646D02*
X154270267Y-89460487D01*
X154216258Y-86455354D02*
X154270267Y-86539513D01*
X154270267Y-89460487D02*
X154317647Y-89372426D01*
X154270267Y-86539513D02*
X154317647Y-86627574D01*
X154317647Y-89372426D02*
X154358118Y-89280984D01*
X154317647Y-86627574D02*
X154358118Y-86719016D01*
X154358118Y-89280984D02*
X154391440Y-89186702D01*
X154358118Y-86719016D02*
X154391440Y-86813298D01*
X154391440Y-89186702D02*
X154417416Y-89090138D01*
X154391440Y-86813298D02*
X154417416Y-86909862D01*
X154417416Y-89090138D02*
X154435893Y-88991863D01*
X154417416Y-86909862D02*
X154435893Y-87008137D01*
X154435893Y-88991863D02*
X154446761Y-88892458D01*
X154435893Y-87008137D02*
X154446761Y-87107542D01*
X154446761Y-88892458D02*
X154449956Y-88792512D01*
X154446761Y-87107542D02*
X154449956Y-87207488D01*
X154449956Y-87207488D02*
X154449956Y-88792512D01*
X156799998Y-90100000D02*
X156700294Y-90092313D01*
X156799998Y-85900000D02*
X156700294Y-85907687D01*
X156700294Y-90092313D02*
X156601476Y-90076985D01*
X156700294Y-85907687D02*
X156601476Y-85923015D01*
X156601476Y-90076985D02*
X156504129Y-90054107D01*
X156601476Y-85923015D02*
X156504129Y-85945893D01*
X156504129Y-90054107D02*
X156408829Y-90023814D01*
X156504129Y-85945893D02*
X156408829Y-85976186D01*
X156408829Y-90023814D02*
X156316139Y-89986285D01*
X156408829Y-85976186D02*
X156316139Y-86013715D01*
X156316139Y-89986285D02*
X156226608Y-89941742D01*
X156316139Y-86013715D02*
X156226608Y-86058258D01*
X156226608Y-89941742D02*
X156140766Y-89890449D01*
X156226608Y-86058258D02*
X156140766Y-86109551D01*
X156140766Y-89890449D02*
X156059121Y-89832709D01*
X156140766Y-86109551D02*
X156059121Y-86167291D01*
X156059121Y-89832709D02*
X155982156Y-89768864D01*
X156059121Y-86167291D02*
X155982156Y-86231136D01*
X155982156Y-89768864D02*
X155910326Y-89699292D01*
X155982156Y-86231136D02*
X155910326Y-86300708D01*
X155910326Y-89699292D02*
X155844056Y-89624405D01*
X155910326Y-86300708D02*
X155844056Y-86375595D01*
X155844056Y-89624405D02*
X155783738Y-89544646D01*
X155844056Y-86375595D02*
X155783738Y-86455354D01*
X155783738Y-89544646D02*
X155729729Y-89460487D01*
X155783738Y-86455354D02*
X155729729Y-86539513D01*
X155729729Y-89460487D02*
X155682349Y-89372426D01*
X155729729Y-86539513D02*
X155682349Y-86627574D01*
X155682349Y-89372426D02*
X155641878Y-89280984D01*
X155682349Y-86627574D02*
X155641878Y-86719016D01*
X155641878Y-89280984D02*
X155608556Y-89186702D01*
X155641878Y-86719016D02*
X155608556Y-86813298D01*
X155608556Y-89186702D02*
X155582580Y-89090138D01*
X155608556Y-86813298D02*
X155582580Y-86909862D01*
X155582580Y-89090138D02*
X155564103Y-88991863D01*
X155582580Y-86909862D02*
X155564103Y-87008137D01*
X155564103Y-88991863D02*
X155553235Y-88892458D01*
X155564103Y-87008137D02*
X155553235Y-87107542D01*
X155553235Y-88892458D02*
X155550040Y-88792512D01*
X155553235Y-87107542D02*
X155550040Y-87207488D01*
X155550040Y-87207488D02*
X155550040Y-88792512D01*
X134799998Y-90100000D02*
X136700000Y-90100000D01*
X131199998Y-90100000D02*
X130100000Y-90100000D01*
X131199998Y-85900000D02*
X130100000Y-85900000D01*
X134799998Y-85900000D02*
X136700000Y-85900000D01*
X134799998Y-85900000D02*
X134700294Y-85907687D01*
X134799998Y-90100000D02*
X134700294Y-90092313D01*
X134700294Y-85907687D02*
X134601476Y-85923015D01*
X134700294Y-90092313D02*
X134601476Y-90076985D01*
X134601476Y-85923015D02*
X134504129Y-85945893D01*
X134601476Y-90076985D02*
X134504129Y-90054107D01*
X134504129Y-85945893D02*
X134408829Y-85976186D01*
X134504129Y-90054107D02*
X134408829Y-90023814D01*
X134408829Y-85976186D02*
X134316139Y-86013715D01*
X134408829Y-90023814D02*
X134316139Y-89986285D01*
X134316139Y-86013715D02*
X134226608Y-86058258D01*
X134316139Y-89986285D02*
X134226608Y-89941742D01*
X134226608Y-86058258D02*
X134140766Y-86109551D01*
X134226608Y-89941742D02*
X134140766Y-89890449D01*
X134140766Y-86109551D02*
X134059121Y-86167291D01*
X134140766Y-89890449D02*
X134059121Y-89832709D01*
X134059121Y-86167291D02*
X133982156Y-86231136D01*
X134059121Y-89832709D02*
X133982156Y-89768864D01*
X133982156Y-86231136D02*
X133910326Y-86300708D01*
X133982156Y-89768864D02*
X133910326Y-89699292D01*
X133910326Y-86300708D02*
X133844056Y-86375595D01*
X133910326Y-89699292D02*
X133844056Y-89624405D01*
X133844056Y-86375595D02*
X133783738Y-86455354D01*
X133844056Y-89624405D02*
X133783738Y-89544646D01*
X133783738Y-86455354D02*
X133729729Y-86539513D01*
X133783738Y-89544646D02*
X133729729Y-89460487D01*
X133729729Y-86539513D02*
X133682349Y-86627574D01*
X133729729Y-89460487D02*
X133682349Y-89372426D01*
X133682349Y-86627574D02*
X133641878Y-86719016D01*
X133682349Y-89372426D02*
X133641878Y-89280984D01*
X133641878Y-86719016D02*
X133608556Y-86813298D01*
X133641878Y-89280984D02*
X133608556Y-89186702D01*
X133608556Y-86813298D02*
X133582580Y-86909862D01*
X133608556Y-89186702D02*
X133582580Y-89090138D01*
X133582580Y-86909862D02*
X133564103Y-87008137D01*
X133582580Y-89090138D02*
X133564103Y-88991863D01*
X133564103Y-87008137D02*
X133553235Y-87107542D01*
X133564103Y-88991863D02*
X133553235Y-88892458D01*
X133553235Y-87107542D02*
X133550040Y-87207488D01*
X133553235Y-88892458D02*
X133550040Y-88792512D01*
X133550040Y-88792512D02*
X133550040Y-87207488D01*
X131199998Y-85900000D02*
X131299702Y-85907687D01*
X131199998Y-90100000D02*
X131299702Y-90092313D01*
X131299702Y-85907687D02*
X131398520Y-85923015D01*
X131299702Y-90092313D02*
X131398520Y-90076985D01*
X131398520Y-85923015D02*
X131495867Y-85945893D01*
X131398520Y-90076985D02*
X131495867Y-90054107D01*
X131495867Y-85945893D02*
X131591167Y-85976186D01*
X131495867Y-90054107D02*
X131591167Y-90023814D01*
X131591167Y-85976186D02*
X131683857Y-86013715D01*
X131591167Y-90023814D02*
X131683857Y-89986285D01*
X131683857Y-86013715D02*
X131773388Y-86058258D01*
X131683857Y-89986285D02*
X131773388Y-89941742D01*
X131773388Y-86058258D02*
X131859230Y-86109551D01*
X131773388Y-89941742D02*
X131859230Y-89890449D01*
X131859230Y-86109551D02*
X131940875Y-86167291D01*
X131859230Y-89890449D02*
X131940875Y-89832709D01*
X131940875Y-86167291D02*
X132017840Y-86231136D01*
X131940875Y-89832709D02*
X132017840Y-89768864D01*
X132017840Y-86231136D02*
X132089670Y-86300708D01*
X132017840Y-89768864D02*
X132089670Y-89699292D01*
X132089670Y-86300708D02*
X132155940Y-86375595D01*
X132089670Y-89699292D02*
X132155940Y-89624405D01*
X132155940Y-86375595D02*
X132216258Y-86455354D01*
X132155940Y-89624405D02*
X132216258Y-89544646D01*
X132216258Y-86455354D02*
X132270267Y-86539513D01*
X132216258Y-89544646D02*
X132270267Y-89460487D01*
X132270267Y-86539513D02*
X132317647Y-86627574D01*
X132270267Y-89460487D02*
X132317647Y-89372426D01*
X132317647Y-86627574D02*
X132358118Y-86719016D01*
X132317647Y-89372426D02*
X132358118Y-89280984D01*
X132358118Y-86719016D02*
X132391440Y-86813298D01*
X132358118Y-89280984D02*
X132391440Y-89186702D01*
X132391440Y-86813298D02*
X132417416Y-86909862D01*
X132391440Y-89186702D02*
X132417416Y-89090138D01*
X132417416Y-86909862D02*
X132435893Y-87008137D01*
X132417416Y-89090138D02*
X132435893Y-88991863D01*
X132435893Y-87008137D02*
X132446761Y-87107542D01*
X132435893Y-88991863D02*
X132446761Y-88892458D01*
X132446761Y-87107542D02*
X132449956Y-87207488D01*
X132446761Y-88892458D02*
X132449956Y-88792512D01*
X132449956Y-88792512D02*
X132449956Y-87207488D01*
X131199998Y-95900000D02*
X130100000Y-95900000D01*
X134799998Y-95900000D02*
X136700000Y-95900000D01*
X134799998Y-100100000D02*
X136700000Y-100100000D01*
X131199998Y-100100000D02*
X130100000Y-100100000D01*
X131199998Y-100100000D02*
X131299702Y-100092313D01*
X131199998Y-95900000D02*
X131299702Y-95907687D01*
X131299702Y-100092313D02*
X131398520Y-100076985D01*
X131299702Y-95907687D02*
X131398520Y-95923015D01*
X131398520Y-100076985D02*
X131495867Y-100054107D01*
X131398520Y-95923015D02*
X131495867Y-95945893D01*
X131495867Y-100054107D02*
X131591167Y-100023814D01*
X131495867Y-95945893D02*
X131591167Y-95976186D01*
X131591167Y-100023814D02*
X131683857Y-99986285D01*
X131591167Y-95976186D02*
X131683857Y-96013715D01*
X131683857Y-99986285D02*
X131773388Y-99941742D01*
X131683857Y-96013715D02*
X131773388Y-96058258D01*
X131773388Y-99941742D02*
X131859230Y-99890449D01*
X131773388Y-96058258D02*
X131859230Y-96109551D01*
X131859230Y-99890449D02*
X131940875Y-99832709D01*
X131859230Y-96109551D02*
X131940875Y-96167291D01*
X131940875Y-99832709D02*
X132017840Y-99768864D01*
X131940875Y-96167291D02*
X132017840Y-96231136D01*
X132017840Y-99768864D02*
X132089670Y-99699292D01*
X132017840Y-96231136D02*
X132089670Y-96300708D01*
X132089670Y-99699292D02*
X132155940Y-99624405D01*
X132089670Y-96300708D02*
X132155940Y-96375595D01*
X132155940Y-99624405D02*
X132216258Y-99544646D01*
X132155940Y-96375595D02*
X132216258Y-96455354D01*
X132216258Y-99544646D02*
X132270267Y-99460487D01*
X132216258Y-96455354D02*
X132270267Y-96539513D01*
X132270267Y-99460487D02*
X132317647Y-99372426D01*
X132270267Y-96539513D02*
X132317647Y-96627574D01*
X132317647Y-99372426D02*
X132358118Y-99280984D01*
X132317647Y-96627574D02*
X132358118Y-96719016D01*
X132358118Y-99280984D02*
X132391440Y-99186702D01*
X132358118Y-96719016D02*
X132391440Y-96813298D01*
X132391440Y-99186702D02*
X132417416Y-99090138D01*
X132391440Y-96813298D02*
X132417416Y-96909862D01*
X132417416Y-99090138D02*
X132435893Y-98991863D01*
X132417416Y-96909862D02*
X132435893Y-97008137D01*
X132435893Y-98991863D02*
X132446761Y-98892458D01*
X132435893Y-97008137D02*
X132446761Y-97107542D01*
X132446761Y-98892458D02*
X132449956Y-98792512D01*
X132446761Y-97107542D02*
X132449956Y-97207488D01*
X132449956Y-97207488D02*
X132449956Y-98792512D01*
X134799998Y-100100000D02*
X134700294Y-100092313D01*
X134799998Y-95900000D02*
X134700294Y-95907687D01*
X134700294Y-100092313D02*
X134601476Y-100076985D01*
X134700294Y-95907687D02*
X134601476Y-95923015D01*
X134601476Y-100076985D02*
X134504129Y-100054107D01*
X134601476Y-95923015D02*
X134504129Y-95945893D01*
X134504129Y-100054107D02*
X134408829Y-100023814D01*
X134504129Y-95945893D02*
X134408829Y-95976186D01*
X134408829Y-100023814D02*
X134316139Y-99986285D01*
X134408829Y-95976186D02*
X134316139Y-96013715D01*
X134316139Y-99986285D02*
X134226608Y-99941742D01*
X134316139Y-96013715D02*
X134226608Y-96058258D01*
X134226608Y-99941742D02*
X134140766Y-99890449D01*
X134226608Y-96058258D02*
X134140766Y-96109551D01*
X134140766Y-99890449D02*
X134059121Y-99832709D01*
X134140766Y-96109551D02*
X134059121Y-96167291D01*
X134059121Y-99832709D02*
X133982156Y-99768864D01*
X134059121Y-96167291D02*
X133982156Y-96231136D01*
X133982156Y-99768864D02*
X133910326Y-99699292D01*
X133982156Y-96231136D02*
X133910326Y-96300708D01*
X133910326Y-99699292D02*
X133844056Y-99624405D01*
X133910326Y-96300708D02*
X133844056Y-96375595D01*
X133844056Y-99624405D02*
X133783738Y-99544646D01*
X133844056Y-96375595D02*
X133783738Y-96455354D01*
X133783738Y-99544646D02*
X133729729Y-99460487D01*
X133783738Y-96455354D02*
X133729729Y-96539513D01*
X133729729Y-99460487D02*
X133682349Y-99372426D01*
X133729729Y-96539513D02*
X133682349Y-96627574D01*
X133682349Y-99372426D02*
X133641878Y-99280984D01*
X133682349Y-96627574D02*
X133641878Y-96719016D01*
X133641878Y-99280984D02*
X133608556Y-99186702D01*
X133641878Y-96719016D02*
X133608556Y-96813298D01*
X133608556Y-99186702D02*
X133582580Y-99090138D01*
X133608556Y-96813298D02*
X133582580Y-96909862D01*
X133582580Y-99090138D02*
X133564103Y-98991863D01*
X133582580Y-96909862D02*
X133564103Y-97008137D01*
X133564103Y-98991863D02*
X133553235Y-98892458D01*
X133564103Y-97008137D02*
X133553235Y-97107542D01*
X133553235Y-98892458D02*
X133550040Y-98792512D01*
X133553235Y-97107542D02*
X133550040Y-97207488D01*
X133550040Y-97207488D02*
X133550040Y-98792512D01*
X142199998Y-95900000D02*
X141100000Y-95900000D01*
X145799998Y-95900000D02*
X147700000Y-95900000D01*
X145799998Y-100100000D02*
X147700000Y-100100000D01*
X142199998Y-100100000D02*
X141100000Y-100100000D01*
X142199998Y-100100000D02*
X142299702Y-100092313D01*
X142199998Y-95900000D02*
X142299702Y-95907687D01*
X142299702Y-100092313D02*
X142398520Y-100076985D01*
X142299702Y-95907687D02*
X142398520Y-95923015D01*
X142398520Y-100076985D02*
X142495867Y-100054107D01*
X142398520Y-95923015D02*
X142495867Y-95945893D01*
X142495867Y-100054107D02*
X142591167Y-100023814D01*
X142495867Y-95945893D02*
X142591167Y-95976186D01*
X142591167Y-100023814D02*
X142683857Y-99986285D01*
X142591167Y-95976186D02*
X142683857Y-96013715D01*
X142683857Y-99986285D02*
X142773388Y-99941742D01*
X142683857Y-96013715D02*
X142773388Y-96058258D01*
X142773388Y-99941742D02*
X142859230Y-99890449D01*
X142773388Y-96058258D02*
X142859230Y-96109551D01*
X142859230Y-99890449D02*
X142940875Y-99832709D01*
X142859230Y-96109551D02*
X142940875Y-96167291D01*
X142940875Y-99832709D02*
X143017840Y-99768864D01*
X142940875Y-96167291D02*
X143017840Y-96231136D01*
X143017840Y-99768864D02*
X143089670Y-99699292D01*
X143017840Y-96231136D02*
X143089670Y-96300708D01*
X143089670Y-99699292D02*
X143155940Y-99624405D01*
X143089670Y-96300708D02*
X143155940Y-96375595D01*
X143155940Y-99624405D02*
X143216258Y-99544646D01*
X143155940Y-96375595D02*
X143216258Y-96455354D01*
X143216258Y-99544646D02*
X143270267Y-99460487D01*
X143216258Y-96455354D02*
X143270267Y-96539513D01*
X143270267Y-99460487D02*
X143317647Y-99372426D01*
X143270267Y-96539513D02*
X143317647Y-96627574D01*
X143317647Y-99372426D02*
X143358118Y-99280984D01*
X143317647Y-96627574D02*
X143358118Y-96719016D01*
X143358118Y-99280984D02*
X143391440Y-99186702D01*
X143358118Y-96719016D02*
X143391440Y-96813298D01*
X143391440Y-99186702D02*
X143417416Y-99090138D01*
X143391440Y-96813298D02*
X143417416Y-96909862D01*
X143417416Y-99090138D02*
X143435893Y-98991863D01*
X143417416Y-96909862D02*
X143435893Y-97008137D01*
X143435893Y-98991863D02*
X143446761Y-98892458D01*
X143435893Y-97008137D02*
X143446761Y-97107542D01*
X143446761Y-98892458D02*
X143449956Y-98792512D01*
X143446761Y-97107542D02*
X143449956Y-97207488D01*
X143449956Y-97207488D02*
X143449956Y-98792512D01*
X145799998Y-100100000D02*
X145700294Y-100092313D01*
X145799998Y-95900000D02*
X145700294Y-95907687D01*
X145700294Y-100092313D02*
X145601476Y-100076985D01*
X145700294Y-95907687D02*
X145601476Y-95923015D01*
X145601476Y-100076985D02*
X145504129Y-100054107D01*
X145601476Y-95923015D02*
X145504129Y-95945893D01*
X145504129Y-100054107D02*
X145408829Y-100023814D01*
X145504129Y-95945893D02*
X145408829Y-95976186D01*
X145408829Y-100023814D02*
X145316139Y-99986285D01*
X145408829Y-95976186D02*
X145316139Y-96013715D01*
X145316139Y-99986285D02*
X145226608Y-99941742D01*
X145316139Y-96013715D02*
X145226608Y-96058258D01*
X145226608Y-99941742D02*
X145140766Y-99890449D01*
X145226608Y-96058258D02*
X145140766Y-96109551D01*
X145140766Y-99890449D02*
X145059121Y-99832709D01*
X145140766Y-96109551D02*
X145059121Y-96167291D01*
X145059121Y-99832709D02*
X144982156Y-99768864D01*
X145059121Y-96167291D02*
X144982156Y-96231136D01*
X144982156Y-99768864D02*
X144910326Y-99699292D01*
X144982156Y-96231136D02*
X144910326Y-96300708D01*
X144910326Y-99699292D02*
X144844056Y-99624405D01*
X144910326Y-96300708D02*
X144844056Y-96375595D01*
X144844056Y-99624405D02*
X144783738Y-99544646D01*
X144844056Y-96375595D02*
X144783738Y-96455354D01*
X144783738Y-99544646D02*
X144729729Y-99460487D01*
X144783738Y-96455354D02*
X144729729Y-96539513D01*
X144729729Y-99460487D02*
X144682349Y-99372426D01*
X144729729Y-96539513D02*
X144682349Y-96627574D01*
X144682349Y-99372426D02*
X144641878Y-99280984D01*
X144682349Y-96627574D02*
X144641878Y-96719016D01*
X144641878Y-99280984D02*
X144608556Y-99186702D01*
X144641878Y-96719016D02*
X144608556Y-96813298D01*
X144608556Y-99186702D02*
X144582580Y-99090138D01*
X144608556Y-96813298D02*
X144582580Y-96909862D01*
X144582580Y-99090138D02*
X144564103Y-98991863D01*
X144582580Y-96909862D02*
X144564103Y-97008137D01*
X144564103Y-98991863D02*
X144553235Y-98892458D01*
X144564103Y-97008137D02*
X144553235Y-97107542D01*
X144553235Y-98892458D02*
X144550040Y-98792512D01*
X144553235Y-97107542D02*
X144550040Y-97207488D01*
X144550040Y-97207488D02*
X144550040Y-98792512D01*
X142199998Y-85900000D02*
X141100000Y-85900000D01*
X145799998Y-85900000D02*
X147700000Y-85900000D01*
X145799998Y-90100000D02*
X147700000Y-90100000D01*
X142199998Y-90100000D02*
X141100000Y-90100000D01*
X142199998Y-90100000D02*
X142299702Y-90092313D01*
X142199998Y-85900000D02*
X142299702Y-85907687D01*
X142299702Y-90092313D02*
X142398520Y-90076985D01*
X142299702Y-85907687D02*
X142398520Y-85923015D01*
X142398520Y-90076985D02*
X142495867Y-90054107D01*
X142398520Y-85923015D02*
X142495867Y-85945893D01*
X142495867Y-90054107D02*
X142591167Y-90023814D01*
X142495867Y-85945893D02*
X142591167Y-85976186D01*
X142591167Y-90023814D02*
X142683857Y-89986285D01*
X142591167Y-85976186D02*
X142683857Y-86013715D01*
X142683857Y-89986285D02*
X142773388Y-89941742D01*
X142683857Y-86013715D02*
X142773388Y-86058258D01*
X142773388Y-89941742D02*
X142859230Y-89890449D01*
X142773388Y-86058258D02*
X142859230Y-86109551D01*
X142859230Y-89890449D02*
X142940875Y-89832709D01*
X142859230Y-86109551D02*
X142940875Y-86167291D01*
X142940875Y-89832709D02*
X143017840Y-89768864D01*
X142940875Y-86167291D02*
X143017840Y-86231136D01*
X143017840Y-89768864D02*
X143089670Y-89699292D01*
X143017840Y-86231136D02*
X143089670Y-86300708D01*
X143089670Y-89699292D02*
X143155940Y-89624405D01*
X143089670Y-86300708D02*
X143155940Y-86375595D01*
X143155940Y-89624405D02*
X143216258Y-89544646D01*
X143155940Y-86375595D02*
X143216258Y-86455354D01*
X143216258Y-89544646D02*
X143270267Y-89460487D01*
X143216258Y-86455354D02*
X143270267Y-86539513D01*
X143270267Y-89460487D02*
X143317647Y-89372426D01*
X143270267Y-86539513D02*
X143317647Y-86627574D01*
X143317647Y-89372426D02*
X143358118Y-89280984D01*
X143317647Y-86627574D02*
X143358118Y-86719016D01*
X143358118Y-89280984D02*
X143391440Y-89186702D01*
X143358118Y-86719016D02*
X143391440Y-86813298D01*
X143391440Y-89186702D02*
X143417416Y-89090138D01*
X143391440Y-86813298D02*
X143417416Y-86909862D01*
X143417416Y-89090138D02*
X143435893Y-88991863D01*
X143417416Y-86909862D02*
X143435893Y-87008137D01*
X143435893Y-88991863D02*
X143446761Y-88892458D01*
X143435893Y-87008137D02*
X143446761Y-87107542D01*
X143446761Y-88892458D02*
X143449956Y-88792512D01*
X143446761Y-87107542D02*
X143449956Y-87207488D01*
X143449956Y-87207488D02*
X143449956Y-88792512D01*
X145799998Y-90100000D02*
X145700294Y-90092313D01*
X145799998Y-85900000D02*
X145700294Y-85907687D01*
X145700294Y-90092313D02*
X145601476Y-90076985D01*
X145700294Y-85907687D02*
X145601476Y-85923015D01*
X145601476Y-90076985D02*
X145504129Y-90054107D01*
X145601476Y-85923015D02*
X145504129Y-85945893D01*
X145504129Y-90054107D02*
X145408829Y-90023814D01*
X145504129Y-85945893D02*
X145408829Y-85976186D01*
X145408829Y-90023814D02*
X145316139Y-89986285D01*
X145408829Y-85976186D02*
X145316139Y-86013715D01*
X145316139Y-89986285D02*
X145226608Y-89941742D01*
X145316139Y-86013715D02*
X145226608Y-86058258D01*
X145226608Y-89941742D02*
X145140766Y-89890449D01*
X145226608Y-86058258D02*
X145140766Y-86109551D01*
X145140766Y-89890449D02*
X145059121Y-89832709D01*
X145140766Y-86109551D02*
X145059121Y-86167291D01*
X145059121Y-89832709D02*
X144982156Y-89768864D01*
X145059121Y-86167291D02*
X144982156Y-86231136D01*
X144982156Y-89768864D02*
X144910326Y-89699292D01*
X144982156Y-86231136D02*
X144910326Y-86300708D01*
X144910326Y-89699292D02*
X144844056Y-89624405D01*
X144910326Y-86300708D02*
X144844056Y-86375595D01*
X144844056Y-89624405D02*
X144783738Y-89544646D01*
X144844056Y-86375595D02*
X144783738Y-86455354D01*
X144783738Y-89544646D02*
X144729729Y-89460487D01*
X144783738Y-86455354D02*
X144729729Y-86539513D01*
X144729729Y-89460487D02*
X144682349Y-89372426D01*
X144729729Y-86539513D02*
X144682349Y-86627574D01*
X144682349Y-89372426D02*
X144641878Y-89280984D01*
X144682349Y-86627574D02*
X144641878Y-86719016D01*
X144641878Y-89280984D02*
X144608556Y-89186702D01*
X144641878Y-86719016D02*
X144608556Y-86813298D01*
X144608556Y-89186702D02*
X144582580Y-89090138D01*
X144608556Y-86813298D02*
X144582580Y-86909862D01*
X144582580Y-89090138D02*
X144564103Y-88991863D01*
X144582580Y-86909862D02*
X144564103Y-87008137D01*
X144564103Y-88991863D02*
X144553235Y-88892458D01*
X144564103Y-87008137D02*
X144553235Y-87107542D01*
X144553235Y-88892458D02*
X144550040Y-88792512D01*
X144553235Y-87107542D02*
X144550040Y-87207488D01*
X144550040Y-87207488D02*
X144550040Y-88792512D01*
X141100000Y-101199998D02*
X141100000Y-100100000D01*
X141100000Y-104800002D02*
X141100000Y-105900000D01*
X136700000Y-104800002D02*
X136700000Y-105900000D01*
X136700000Y-101199998D02*
X136700000Y-100100000D01*
X136700000Y-101199998D02*
X136707687Y-101299702D01*
X141100000Y-101199998D02*
X141092313Y-101299702D01*
X136707687Y-101299702D02*
X136723015Y-101398520D01*
X141092313Y-101299702D02*
X141076985Y-101398520D01*
X136723015Y-101398520D02*
X136745893Y-101495867D01*
X141076985Y-101398520D02*
X141054107Y-101495867D01*
X136745893Y-101495867D02*
X136776186Y-101591167D01*
X141054107Y-101495867D02*
X141023814Y-101591167D01*
X136776186Y-101591167D02*
X136813715Y-101683857D01*
X141023814Y-101591167D02*
X140986285Y-101683857D01*
X136813715Y-101683857D02*
X136858258Y-101773388D01*
X140986285Y-101683857D02*
X140941742Y-101773388D01*
X136858258Y-101773388D02*
X136909551Y-101859230D01*
X140941742Y-101773388D02*
X140890449Y-101859230D01*
X136909551Y-101859230D02*
X136967291Y-101940875D01*
X140890449Y-101859230D02*
X140832709Y-101940875D01*
X136967291Y-101940875D02*
X137031136Y-102017840D01*
X140832709Y-101940875D02*
X140768864Y-102017840D01*
X137031136Y-102017840D02*
X137100708Y-102089670D01*
X140768864Y-102017840D02*
X140699292Y-102089670D01*
X137100708Y-102089670D02*
X137175595Y-102155940D01*
X140699292Y-102089670D02*
X140624405Y-102155940D01*
X137175595Y-102155940D02*
X137255354Y-102216258D01*
X140624405Y-102155940D02*
X140544646Y-102216258D01*
X137255354Y-102216258D02*
X137339513Y-102270267D01*
X140544646Y-102216258D02*
X140460487Y-102270267D01*
X137339513Y-102270267D02*
X137427574Y-102317647D01*
X140460487Y-102270267D02*
X140372426Y-102317647D01*
X137427574Y-102317647D02*
X137519016Y-102358118D01*
X140372426Y-102317647D02*
X140280984Y-102358118D01*
X137519016Y-102358118D02*
X137613298Y-102391440D01*
X140280984Y-102358118D02*
X140186702Y-102391440D01*
X137613298Y-102391440D02*
X137709862Y-102417416D01*
X140186702Y-102391440D02*
X140090138Y-102417416D01*
X137709862Y-102417416D02*
X137808137Y-102435893D01*
X140090138Y-102417416D02*
X139991863Y-102435893D01*
X137808137Y-102435893D02*
X137907542Y-102446761D01*
X139991863Y-102435893D02*
X139892458Y-102446761D01*
X137907542Y-102446761D02*
X138007488Y-102449956D01*
X139892458Y-102446761D02*
X139792512Y-102449956D01*
X139792512Y-102449956D02*
X138007488Y-102449956D01*
X136700000Y-104800002D02*
X136707687Y-104700298D01*
X141100000Y-104800002D02*
X141092313Y-104700298D01*
X136707687Y-104700298D02*
X136723015Y-104601480D01*
X141092313Y-104700298D02*
X141076985Y-104601480D01*
X136723015Y-104601480D02*
X136745893Y-104504133D01*
X141076985Y-104601480D02*
X141054107Y-104504133D01*
X136745893Y-104504133D02*
X136776186Y-104408833D01*
X141054107Y-104504133D02*
X141023814Y-104408833D01*
X136776186Y-104408833D02*
X136813715Y-104316143D01*
X141023814Y-104408833D02*
X140986285Y-104316143D01*
X136813715Y-104316143D02*
X136858258Y-104226612D01*
X140986285Y-104316143D02*
X140941742Y-104226612D01*
X136858258Y-104226612D02*
X136909551Y-104140770D01*
X140941742Y-104226612D02*
X140890449Y-104140770D01*
X136909551Y-104140770D02*
X136967291Y-104059125D01*
X140890449Y-104140770D02*
X140832709Y-104059125D01*
X136967291Y-104059125D02*
X137031136Y-103982160D01*
X140832709Y-104059125D02*
X140768864Y-103982160D01*
X137031136Y-103982160D02*
X137100708Y-103910330D01*
X140768864Y-103982160D02*
X140699292Y-103910330D01*
X137100708Y-103910330D02*
X137175595Y-103844060D01*
X140699292Y-103910330D02*
X140624405Y-103844060D01*
X137175595Y-103844060D02*
X137255354Y-103783742D01*
X140624405Y-103844060D02*
X140544646Y-103783742D01*
X137255354Y-103783742D02*
X137339513Y-103729733D01*
X140544646Y-103783742D02*
X140460487Y-103729733D01*
X137339513Y-103729733D02*
X137427574Y-103682353D01*
X140460487Y-103729733D02*
X140372426Y-103682353D01*
X137427574Y-103682353D02*
X137519016Y-103641882D01*
X140372426Y-103682353D02*
X140280984Y-103641882D01*
X137519016Y-103641882D02*
X137613298Y-103608560D01*
X140280984Y-103641882D02*
X140186702Y-103608560D01*
X137613298Y-103608560D02*
X137709862Y-103582584D01*
X140186702Y-103608560D02*
X140090138Y-103582584D01*
X137709862Y-103582584D02*
X137808137Y-103564107D01*
X140090138Y-103582584D02*
X139991863Y-103564107D01*
X137808137Y-103564107D02*
X137907542Y-103553239D01*
X139991863Y-103564107D02*
X139892458Y-103553239D01*
X137907542Y-103553239D02*
X138007488Y-103550044D01*
X139892458Y-103553239D02*
X139792512Y-103550044D01*
X139792512Y-103550044D02*
X138007488Y-103550044D01*
X152100000Y-101199998D02*
X152100000Y-100100000D01*
X152100000Y-104800002D02*
X152100000Y-105900000D01*
X147700000Y-104800002D02*
X147700000Y-105900000D01*
X147700000Y-101199998D02*
X147700000Y-100100000D01*
X147700000Y-101199998D02*
X147707687Y-101299702D01*
X152100000Y-101199998D02*
X152092313Y-101299702D01*
X147707687Y-101299702D02*
X147723015Y-101398520D01*
X152092313Y-101299702D02*
X152076985Y-101398520D01*
X147723015Y-101398520D02*
X147745893Y-101495867D01*
X152076985Y-101398520D02*
X152054107Y-101495867D01*
X147745893Y-101495867D02*
X147776186Y-101591167D01*
X152054107Y-101495867D02*
X152023814Y-101591167D01*
X147776186Y-101591167D02*
X147813715Y-101683857D01*
X152023814Y-101591167D02*
X151986285Y-101683857D01*
X147813715Y-101683857D02*
X147858258Y-101773388D01*
X151986285Y-101683857D02*
X151941742Y-101773388D01*
X147858258Y-101773388D02*
X147909551Y-101859230D01*
X151941742Y-101773388D02*
X151890449Y-101859230D01*
X147909551Y-101859230D02*
X147967291Y-101940875D01*
X151890449Y-101859230D02*
X151832709Y-101940875D01*
X147967291Y-101940875D02*
X148031136Y-102017840D01*
X151832709Y-101940875D02*
X151768864Y-102017840D01*
X148031136Y-102017840D02*
X148100708Y-102089670D01*
X151768864Y-102017840D02*
X151699292Y-102089670D01*
X148100708Y-102089670D02*
X148175595Y-102155940D01*
X151699292Y-102089670D02*
X151624405Y-102155940D01*
X148175595Y-102155940D02*
X148255354Y-102216258D01*
X151624405Y-102155940D02*
X151544646Y-102216258D01*
X148255354Y-102216258D02*
X148339513Y-102270267D01*
X151544646Y-102216258D02*
X151460487Y-102270267D01*
X148339513Y-102270267D02*
X148427574Y-102317647D01*
X151460487Y-102270267D02*
X151372426Y-102317647D01*
X148427574Y-102317647D02*
X148519016Y-102358118D01*
X151372426Y-102317647D02*
X151280984Y-102358118D01*
X148519016Y-102358118D02*
X148613298Y-102391440D01*
X151280984Y-102358118D02*
X151186702Y-102391440D01*
X148613298Y-102391440D02*
X148709862Y-102417416D01*
X151186702Y-102391440D02*
X151090138Y-102417416D01*
X148709862Y-102417416D02*
X148808137Y-102435893D01*
X151090138Y-102417416D02*
X150991863Y-102435893D01*
X148808137Y-102435893D02*
X148907542Y-102446761D01*
X150991863Y-102435893D02*
X150892458Y-102446761D01*
X148907542Y-102446761D02*
X149007488Y-102449956D01*
X150892458Y-102446761D02*
X150792512Y-102449956D01*
X150792512Y-102449956D02*
X149007488Y-102449956D01*
X147700000Y-104800002D02*
X147707687Y-104700298D01*
X152100000Y-104800002D02*
X152092313Y-104700298D01*
X147707687Y-104700298D02*
X147723015Y-104601480D01*
X152092313Y-104700298D02*
X152076985Y-104601480D01*
X147723015Y-104601480D02*
X147745893Y-104504133D01*
X152076985Y-104601480D02*
X152054107Y-104504133D01*
X147745893Y-104504133D02*
X147776186Y-104408833D01*
X152054107Y-104504133D02*
X152023814Y-104408833D01*
X147776186Y-104408833D02*
X147813715Y-104316143D01*
X152023814Y-104408833D02*
X151986285Y-104316143D01*
X147813715Y-104316143D02*
X147858258Y-104226612D01*
X151986285Y-104316143D02*
X151941742Y-104226612D01*
X147858258Y-104226612D02*
X147909551Y-104140770D01*
X151941742Y-104226612D02*
X151890449Y-104140770D01*
X147909551Y-104140770D02*
X147967291Y-104059125D01*
X151890449Y-104140770D02*
X151832709Y-104059125D01*
X147967291Y-104059125D02*
X148031136Y-103982160D01*
X151832709Y-104059125D02*
X151768864Y-103982160D01*
X148031136Y-103982160D02*
X148100708Y-103910330D01*
X151768864Y-103982160D02*
X151699292Y-103910330D01*
X148100708Y-103910330D02*
X148175595Y-103844060D01*
X151699292Y-103910330D02*
X151624405Y-103844060D01*
X148175595Y-103844060D02*
X148255354Y-103783742D01*
X151624405Y-103844060D02*
X151544646Y-103783742D01*
X148255354Y-103783742D02*
X148339513Y-103729733D01*
X151544646Y-103783742D02*
X151460487Y-103729733D01*
X148339513Y-103729733D02*
X148427574Y-103682353D01*
X151460487Y-103729733D02*
X151372426Y-103682353D01*
X148427574Y-103682353D02*
X148519016Y-103641882D01*
X151372426Y-103682353D02*
X151280984Y-103641882D01*
X148519016Y-103641882D02*
X148613298Y-103608560D01*
X151280984Y-103641882D02*
X151186702Y-103608560D01*
X148613298Y-103608560D02*
X148709862Y-103582584D01*
X151186702Y-103608560D02*
X151090138Y-103582584D01*
X148709862Y-103582584D02*
X148808137Y-103564107D01*
X151090138Y-103582584D02*
X150991863Y-103564107D01*
X148808137Y-103564107D02*
X148907542Y-103553239D01*
X150991863Y-103564107D02*
X150892458Y-103553239D01*
X148907542Y-103553239D02*
X149007488Y-103550044D01*
X150892458Y-103553239D02*
X150792512Y-103550044D01*
X150792512Y-103550044D02*
X149007488Y-103550044D01*
X158700000Y-104800002D02*
X158700000Y-105900000D01*
X158700000Y-101199998D02*
X158700000Y-100100000D01*
X163100000Y-101199998D02*
X163100000Y-100100000D01*
X163100000Y-104800002D02*
X163100000Y-105900000D01*
X163100000Y-104800002D02*
X163092313Y-104700298D01*
X158700000Y-104800002D02*
X158707687Y-104700298D01*
X163092313Y-104700298D02*
X163076985Y-104601480D01*
X158707687Y-104700298D02*
X158723015Y-104601480D01*
X163076985Y-104601480D02*
X163054107Y-104504133D01*
X158723015Y-104601480D02*
X158745893Y-104504133D01*
X163054107Y-104504133D02*
X163023814Y-104408833D01*
X158745893Y-104504133D02*
X158776186Y-104408833D01*
X163023814Y-104408833D02*
X162986285Y-104316143D01*
X158776186Y-104408833D02*
X158813715Y-104316143D01*
X162986285Y-104316143D02*
X162941742Y-104226612D01*
X158813715Y-104316143D02*
X158858258Y-104226612D01*
X162941742Y-104226612D02*
X162890449Y-104140770D01*
X158858258Y-104226612D02*
X158909551Y-104140770D01*
X162890449Y-104140770D02*
X162832709Y-104059125D01*
X158909551Y-104140770D02*
X158967291Y-104059125D01*
X162832709Y-104059125D02*
X162768864Y-103982160D01*
X158967291Y-104059125D02*
X159031136Y-103982160D01*
X162768864Y-103982160D02*
X162699292Y-103910330D01*
X159031136Y-103982160D02*
X159100708Y-103910330D01*
X162699292Y-103910330D02*
X162624405Y-103844060D01*
X159100708Y-103910330D02*
X159175595Y-103844060D01*
X162624405Y-103844060D02*
X162544646Y-103783742D01*
X159175595Y-103844060D02*
X159255354Y-103783742D01*
X162544646Y-103783742D02*
X162460487Y-103729733D01*
X159255354Y-103783742D02*
X159339513Y-103729733D01*
X162460487Y-103729733D02*
X162372426Y-103682353D01*
X159339513Y-103729733D02*
X159427574Y-103682353D01*
X162372426Y-103682353D02*
X162280984Y-103641882D01*
X159427574Y-103682353D02*
X159519016Y-103641882D01*
X162280984Y-103641882D02*
X162186702Y-103608560D01*
X159519016Y-103641882D02*
X159613298Y-103608560D01*
X162186702Y-103608560D02*
X162090138Y-103582584D01*
X159613298Y-103608560D02*
X159709862Y-103582584D01*
X162090138Y-103582584D02*
X161991863Y-103564107D01*
X159709862Y-103582584D02*
X159808137Y-103564107D01*
X161991863Y-103564107D02*
X161892458Y-103553239D01*
X159808137Y-103564107D02*
X159907542Y-103553239D01*
X161892458Y-103553239D02*
X161792512Y-103550044D01*
X159907542Y-103553239D02*
X160007488Y-103550044D01*
X160007488Y-103550044D02*
X161792512Y-103550044D01*
X163100000Y-101199998D02*
X163092313Y-101299702D01*
X158700000Y-101199998D02*
X158707687Y-101299702D01*
X163092313Y-101299702D02*
X163076985Y-101398520D01*
X158707687Y-101299702D02*
X158723015Y-101398520D01*
X163076985Y-101398520D02*
X163054107Y-101495867D01*
X158723015Y-101398520D02*
X158745893Y-101495867D01*
X163054107Y-101495867D02*
X163023814Y-101591167D01*
X158745893Y-101495867D02*
X158776186Y-101591167D01*
X163023814Y-101591167D02*
X162986285Y-101683857D01*
X158776186Y-101591167D02*
X158813715Y-101683857D01*
X162986285Y-101683857D02*
X162941742Y-101773388D01*
X158813715Y-101683857D02*
X158858258Y-101773388D01*
X162941742Y-101773388D02*
X162890449Y-101859230D01*
X158858258Y-101773388D02*
X158909551Y-101859230D01*
X162890449Y-101859230D02*
X162832709Y-101940875D01*
X158909551Y-101859230D02*
X158967291Y-101940875D01*
X162832709Y-101940875D02*
X162768864Y-102017840D01*
X158967291Y-101940875D02*
X159031136Y-102017840D01*
X162768864Y-102017840D02*
X162699292Y-102089670D01*
X159031136Y-102017840D02*
X159100708Y-102089670D01*
X162699292Y-102089670D02*
X162624405Y-102155940D01*
X159100708Y-102089670D02*
X159175595Y-102155940D01*
X162624405Y-102155940D02*
X162544646Y-102216258D01*
X159175595Y-102155940D02*
X159255354Y-102216258D01*
X162544646Y-102216258D02*
X162460487Y-102270267D01*
X159255354Y-102216258D02*
X159339513Y-102270267D01*
X162460487Y-102270267D02*
X162372426Y-102317647D01*
X159339513Y-102270267D02*
X159427574Y-102317647D01*
X162372426Y-102317647D02*
X162280984Y-102358118D01*
X159427574Y-102317647D02*
X159519016Y-102358118D01*
X162280984Y-102358118D02*
X162186702Y-102391440D01*
X159519016Y-102358118D02*
X159613298Y-102391440D01*
X162186702Y-102391440D02*
X162090138Y-102417416D01*
X159613298Y-102391440D02*
X159709862Y-102417416D01*
X162090138Y-102417416D02*
X161991863Y-102435893D01*
X159709862Y-102417416D02*
X159808137Y-102435893D01*
X161991863Y-102435893D02*
X161892458Y-102446761D01*
X159808137Y-102435893D02*
X159907542Y-102446761D01*
X161892458Y-102446761D02*
X161792512Y-102449956D01*
X159907542Y-102446761D02*
X160007488Y-102449956D01*
X160007488Y-102449956D02*
X161792512Y-102449956D01*
X164199998Y-95900000D02*
X163100000Y-95900000D01*
X167799998Y-95900000D02*
X169700000Y-95900000D01*
X167799998Y-100100000D02*
X169700000Y-100100000D01*
X164199998Y-100100000D02*
X163100000Y-100100000D01*
X164199998Y-100100000D02*
X164299702Y-100092313D01*
X164199998Y-95900000D02*
X164299702Y-95907687D01*
X164299702Y-100092313D02*
X164398520Y-100076985D01*
X164299702Y-95907687D02*
X164398520Y-95923015D01*
X164398520Y-100076985D02*
X164495867Y-100054107D01*
X164398520Y-95923015D02*
X164495867Y-95945893D01*
X164495867Y-100054107D02*
X164591167Y-100023814D01*
X164495867Y-95945893D02*
X164591167Y-95976186D01*
X164591167Y-100023814D02*
X164683857Y-99986285D01*
X164591167Y-95976186D02*
X164683857Y-96013715D01*
X164683857Y-99986285D02*
X164773388Y-99941742D01*
X164683857Y-96013715D02*
X164773388Y-96058258D01*
X164773388Y-99941742D02*
X164859230Y-99890449D01*
X164773388Y-96058258D02*
X164859230Y-96109551D01*
X164859230Y-99890449D02*
X164940875Y-99832709D01*
X164859230Y-96109551D02*
X164940875Y-96167291D01*
X164940875Y-99832709D02*
X165017840Y-99768864D01*
X164940875Y-96167291D02*
X165017840Y-96231136D01*
X165017840Y-99768864D02*
X165089670Y-99699292D01*
X165017840Y-96231136D02*
X165089670Y-96300708D01*
X165089670Y-99699292D02*
X165155940Y-99624405D01*
X165089670Y-96300708D02*
X165155940Y-96375595D01*
X165155940Y-99624405D02*
X165216258Y-99544646D01*
X165155940Y-96375595D02*
X165216258Y-96455354D01*
X165216258Y-99544646D02*
X165270267Y-99460487D01*
X165216258Y-96455354D02*
X165270267Y-96539513D01*
X165270267Y-99460487D02*
X165317647Y-99372426D01*
X165270267Y-96539513D02*
X165317647Y-96627574D01*
X165317647Y-99372426D02*
X165358118Y-99280984D01*
X165317647Y-96627574D02*
X165358118Y-96719016D01*
X165358118Y-99280984D02*
X165391440Y-99186702D01*
X165358118Y-96719016D02*
X165391440Y-96813298D01*
X165391440Y-99186702D02*
X165417416Y-99090138D01*
X165391440Y-96813298D02*
X165417416Y-96909862D01*
X165417416Y-99090138D02*
X165435893Y-98991863D01*
X165417416Y-96909862D02*
X165435893Y-97008137D01*
X165435893Y-98991863D02*
X165446761Y-98892458D01*
X165435893Y-97008137D02*
X165446761Y-97107542D01*
X165446761Y-98892458D02*
X165449956Y-98792512D01*
X165446761Y-97107542D02*
X165449956Y-97207488D01*
X165449956Y-97207488D02*
X165449956Y-98792512D01*
X167799998Y-100100000D02*
X167700294Y-100092313D01*
X167799998Y-95900000D02*
X167700294Y-95907687D01*
X167700294Y-100092313D02*
X167601476Y-100076985D01*
X167700294Y-95907687D02*
X167601476Y-95923015D01*
X167601476Y-100076985D02*
X167504129Y-100054107D01*
X167601476Y-95923015D02*
X167504129Y-95945893D01*
X167504129Y-100054107D02*
X167408829Y-100023814D01*
X167504129Y-95945893D02*
X167408829Y-95976186D01*
X167408829Y-100023814D02*
X167316139Y-99986285D01*
X167408829Y-95976186D02*
X167316139Y-96013715D01*
X167316139Y-99986285D02*
X167226608Y-99941742D01*
X167316139Y-96013715D02*
X167226608Y-96058258D01*
X167226608Y-99941742D02*
X167140766Y-99890449D01*
X167226608Y-96058258D02*
X167140766Y-96109551D01*
X167140766Y-99890449D02*
X167059121Y-99832709D01*
X167140766Y-96109551D02*
X167059121Y-96167291D01*
X167059121Y-99832709D02*
X166982156Y-99768864D01*
X167059121Y-96167291D02*
X166982156Y-96231136D01*
X166982156Y-99768864D02*
X166910326Y-99699292D01*
X166982156Y-96231136D02*
X166910326Y-96300708D01*
X166910326Y-99699292D02*
X166844056Y-99624405D01*
X166910326Y-96300708D02*
X166844056Y-96375595D01*
X166844056Y-99624405D02*
X166783738Y-99544646D01*
X166844056Y-96375595D02*
X166783738Y-96455354D01*
X166783738Y-99544646D02*
X166729729Y-99460487D01*
X166783738Y-96455354D02*
X166729729Y-96539513D01*
X166729729Y-99460487D02*
X166682349Y-99372426D01*
X166729729Y-96539513D02*
X166682349Y-96627574D01*
X166682349Y-99372426D02*
X166641878Y-99280984D01*
X166682349Y-96627574D02*
X166641878Y-96719016D01*
X166641878Y-99280984D02*
X166608556Y-99186702D01*
X166641878Y-96719016D02*
X166608556Y-96813298D01*
X166608556Y-99186702D02*
X166582580Y-99090138D01*
X166608556Y-96813298D02*
X166582580Y-96909862D01*
X166582580Y-99090138D02*
X166564103Y-98991863D01*
X166582580Y-96909862D02*
X166564103Y-97008137D01*
X166564103Y-98991863D02*
X166553235Y-98892458D01*
X166564103Y-97008137D02*
X166553235Y-97107542D01*
X166553235Y-98892458D02*
X166550040Y-98792512D01*
X166553235Y-97107542D02*
X166550040Y-97207488D01*
X166550040Y-97207488D02*
X166550040Y-98792512D01*
X164199998Y-85900000D02*
X163100000Y-85900000D01*
X167799998Y-85900000D02*
X169700000Y-85900000D01*
X167799998Y-90100000D02*
X169700000Y-90100000D01*
X164199998Y-90100000D02*
X163100000Y-90100000D01*
X164199998Y-90100000D02*
X164299702Y-90092313D01*
X164199998Y-85900000D02*
X164299702Y-85907687D01*
X164299702Y-90092313D02*
X164398520Y-90076985D01*
X164299702Y-85907687D02*
X164398520Y-85923015D01*
X164398520Y-90076985D02*
X164495867Y-90054107D01*
X164398520Y-85923015D02*
X164495867Y-85945893D01*
X164495867Y-90054107D02*
X164591167Y-90023814D01*
X164495867Y-85945893D02*
X164591167Y-85976186D01*
X164591167Y-90023814D02*
X164683857Y-89986285D01*
X164591167Y-85976186D02*
X164683857Y-86013715D01*
X164683857Y-89986285D02*
X164773388Y-89941742D01*
X164683857Y-86013715D02*
X164773388Y-86058258D01*
X164773388Y-89941742D02*
X164859230Y-89890449D01*
X164773388Y-86058258D02*
X164859230Y-86109551D01*
X164859230Y-89890449D02*
X164940875Y-89832709D01*
X164859230Y-86109551D02*
X164940875Y-86167291D01*
X164940875Y-89832709D02*
X165017840Y-89768864D01*
X164940875Y-86167291D02*
X165017840Y-86231136D01*
X165017840Y-89768864D02*
X165089670Y-89699292D01*
X165017840Y-86231136D02*
X165089670Y-86300708D01*
X165089670Y-89699292D02*
X165155940Y-89624405D01*
X165089670Y-86300708D02*
X165155940Y-86375595D01*
X165155940Y-89624405D02*
X165216258Y-89544646D01*
X165155940Y-86375595D02*
X165216258Y-86455354D01*
X165216258Y-89544646D02*
X165270267Y-89460487D01*
X165216258Y-86455354D02*
X165270267Y-86539513D01*
X165270267Y-89460487D02*
X165317647Y-89372426D01*
X165270267Y-86539513D02*
X165317647Y-86627574D01*
X165317647Y-89372426D02*
X165358118Y-89280984D01*
X165317647Y-86627574D02*
X165358118Y-86719016D01*
X165358118Y-89280984D02*
X165391440Y-89186702D01*
X165358118Y-86719016D02*
X165391440Y-86813298D01*
X165391440Y-89186702D02*
X165417416Y-89090138D01*
X165391440Y-86813298D02*
X165417416Y-86909862D01*
X165417416Y-89090138D02*
X165435893Y-88991863D01*
X165417416Y-86909862D02*
X165435893Y-87008137D01*
X165435893Y-88991863D02*
X165446761Y-88892458D01*
X165435893Y-87008137D02*
X165446761Y-87107542D01*
X165446761Y-88892458D02*
X165449956Y-88792512D01*
X165446761Y-87107542D02*
X165449956Y-87207488D01*
X165449956Y-87207488D02*
X165449956Y-88792512D01*
X167799998Y-90100000D02*
X167700294Y-90092313D01*
X167799998Y-85900000D02*
X167700294Y-85907687D01*
X167700294Y-90092313D02*
X167601476Y-90076985D01*
X167700294Y-85907687D02*
X167601476Y-85923015D01*
X167601476Y-90076985D02*
X167504129Y-90054107D01*
X167601476Y-85923015D02*
X167504129Y-85945893D01*
X167504129Y-90054107D02*
X167408829Y-90023814D01*
X167504129Y-85945893D02*
X167408829Y-85976186D01*
X167408829Y-90023814D02*
X167316139Y-89986285D01*
X167408829Y-85976186D02*
X167316139Y-86013715D01*
X167316139Y-89986285D02*
X167226608Y-89941742D01*
X167316139Y-86013715D02*
X167226608Y-86058258D01*
X167226608Y-89941742D02*
X167140766Y-89890449D01*
X167226608Y-86058258D02*
X167140766Y-86109551D01*
X167140766Y-89890449D02*
X167059121Y-89832709D01*
X167140766Y-86109551D02*
X167059121Y-86167291D01*
X167059121Y-89832709D02*
X166982156Y-89768864D01*
X167059121Y-86167291D02*
X166982156Y-86231136D01*
X166982156Y-89768864D02*
X166910326Y-89699292D01*
X166982156Y-86231136D02*
X166910326Y-86300708D01*
X166910326Y-89699292D02*
X166844056Y-89624405D01*
X166910326Y-86300708D02*
X166844056Y-86375595D01*
X166844056Y-89624405D02*
X166783738Y-89544646D01*
X166844056Y-86375595D02*
X166783738Y-86455354D01*
X166783738Y-89544646D02*
X166729729Y-89460487D01*
X166783738Y-86455354D02*
X166729729Y-86539513D01*
X166729729Y-89460487D02*
X166682349Y-89372426D01*
X166729729Y-86539513D02*
X166682349Y-86627574D01*
X166682349Y-89372426D02*
X166641878Y-89280984D01*
X166682349Y-86627574D02*
X166641878Y-86719016D01*
X166641878Y-89280984D02*
X166608556Y-89186702D01*
X166641878Y-86719016D02*
X166608556Y-86813298D01*
X166608556Y-89186702D02*
X166582580Y-89090138D01*
X166608556Y-86813298D02*
X166582580Y-86909862D01*
X166582580Y-89090138D02*
X166564103Y-88991863D01*
X166582580Y-86909862D02*
X166564103Y-87008137D01*
X166564103Y-88991863D02*
X166553235Y-88892458D01*
X166564103Y-87008137D02*
X166553235Y-87107542D01*
X166553235Y-88892458D02*
X166550040Y-88792512D01*
X166553235Y-87107542D02*
X166550040Y-87207488D01*
X166550040Y-87207488D02*
X166550040Y-88792512D01*
X164199998Y-75900000D02*
X163100000Y-75900000D01*
X167799998Y-75900000D02*
X169700000Y-75900000D01*
X167799998Y-80100000D02*
X169700000Y-80100000D01*
X164199998Y-80100000D02*
X163100000Y-80100000D01*
X164199998Y-80100000D02*
X164299702Y-80092313D01*
X164199998Y-75900000D02*
X164299702Y-75907687D01*
X164299702Y-80092313D02*
X164398520Y-80076985D01*
X164299702Y-75907687D02*
X164398520Y-75923015D01*
X164398520Y-80076985D02*
X164495867Y-80054107D01*
X164398520Y-75923015D02*
X164495867Y-75945893D01*
X164495867Y-80054107D02*
X164591167Y-80023814D01*
X164495867Y-75945893D02*
X164591167Y-75976186D01*
X164591167Y-80023814D02*
X164683857Y-79986285D01*
X164591167Y-75976186D02*
X164683857Y-76013715D01*
X164683857Y-79986285D02*
X164773388Y-79941742D01*
X164683857Y-76013715D02*
X164773388Y-76058258D01*
X164773388Y-79941742D02*
X164859230Y-79890449D01*
X164773388Y-76058258D02*
X164859230Y-76109551D01*
X164859230Y-79890449D02*
X164940875Y-79832709D01*
X164859230Y-76109551D02*
X164940875Y-76167291D01*
X164940875Y-79832709D02*
X165017840Y-79768864D01*
X164940875Y-76167291D02*
X165017840Y-76231136D01*
X165017840Y-79768864D02*
X165089670Y-79699292D01*
X165017840Y-76231136D02*
X165089670Y-76300708D01*
X165089670Y-79699292D02*
X165155940Y-79624405D01*
X165089670Y-76300708D02*
X165155940Y-76375595D01*
X165155940Y-79624405D02*
X165216258Y-79544646D01*
X165155940Y-76375595D02*
X165216258Y-76455354D01*
X165216258Y-79544646D02*
X165270267Y-79460487D01*
X165216258Y-76455354D02*
X165270267Y-76539513D01*
X165270267Y-79460487D02*
X165317647Y-79372426D01*
X165270267Y-76539513D02*
X165317647Y-76627574D01*
X165317647Y-79372426D02*
X165358118Y-79280984D01*
X165317647Y-76627574D02*
X165358118Y-76719016D01*
X165358118Y-79280984D02*
X165391440Y-79186702D01*
X165358118Y-76719016D02*
X165391440Y-76813298D01*
X165391440Y-79186702D02*
X165417416Y-79090138D01*
X165391440Y-76813298D02*
X165417416Y-76909862D01*
X165417416Y-79090138D02*
X165435893Y-78991863D01*
X165417416Y-76909862D02*
X165435893Y-77008137D01*
X165435893Y-78991863D02*
X165446761Y-78892458D01*
X165435893Y-77008137D02*
X165446761Y-77107542D01*
X165446761Y-78892458D02*
X165449956Y-78792512D01*
X165446761Y-77107542D02*
X165449956Y-77207488D01*
X165449956Y-77207488D02*
X165449956Y-78792512D01*
X167799998Y-80100000D02*
X167700294Y-80092313D01*
X167799998Y-75900000D02*
X167700294Y-75907687D01*
X167700294Y-80092313D02*
X167601476Y-80076985D01*
X167700294Y-75907687D02*
X167601476Y-75923015D01*
X167601476Y-80076985D02*
X167504129Y-80054107D01*
X167601476Y-75923015D02*
X167504129Y-75945893D01*
X167504129Y-80054107D02*
X167408829Y-80023814D01*
X167504129Y-75945893D02*
X167408829Y-75976186D01*
X167408829Y-80023814D02*
X167316139Y-79986285D01*
X167408829Y-75976186D02*
X167316139Y-76013715D01*
X167316139Y-79986285D02*
X167226608Y-79941742D01*
X167316139Y-76013715D02*
X167226608Y-76058258D01*
X167226608Y-79941742D02*
X167140766Y-79890449D01*
X167226608Y-76058258D02*
X167140766Y-76109551D01*
X167140766Y-79890449D02*
X167059121Y-79832709D01*
X167140766Y-76109551D02*
X167059121Y-76167291D01*
X167059121Y-79832709D02*
X166982156Y-79768864D01*
X167059121Y-76167291D02*
X166982156Y-76231136D01*
X166982156Y-79768864D02*
X166910326Y-79699292D01*
X166982156Y-76231136D02*
X166910326Y-76300708D01*
X166910326Y-79699292D02*
X166844056Y-79624405D01*
X166910326Y-76300708D02*
X166844056Y-76375595D01*
X166844056Y-79624405D02*
X166783738Y-79544646D01*
X166844056Y-76375595D02*
X166783738Y-76455354D01*
X166783738Y-79544646D02*
X166729729Y-79460487D01*
X166783738Y-76455354D02*
X166729729Y-76539513D01*
X166729729Y-79460487D02*
X166682349Y-79372426D01*
X166729729Y-76539513D02*
X166682349Y-76627574D01*
X166682349Y-79372426D02*
X166641878Y-79280984D01*
X166682349Y-76627574D02*
X166641878Y-76719016D01*
X166641878Y-79280984D02*
X166608556Y-79186702D01*
X166641878Y-76719016D02*
X166608556Y-76813298D01*
X166608556Y-79186702D02*
X166582580Y-79090138D01*
X166608556Y-76813298D02*
X166582580Y-76909862D01*
X166582580Y-79090138D02*
X166564103Y-78991863D01*
X166582580Y-76909862D02*
X166564103Y-77008137D01*
X166564103Y-78991863D02*
X166553235Y-78892458D01*
X166564103Y-77008137D02*
X166553235Y-77107542D01*
X166553235Y-78892458D02*
X166550040Y-78792512D01*
X166553235Y-77107542D02*
X166550040Y-77207488D01*
X166550040Y-77207488D02*
X166550040Y-78792512D01*
X153199998Y-75900000D02*
X152100000Y-75900000D01*
X156799998Y-75900000D02*
X158700000Y-75900000D01*
X156799998Y-80100000D02*
X158700000Y-80100000D01*
X153199998Y-80100000D02*
X152100000Y-80100000D01*
X153199998Y-80100000D02*
X153299702Y-80092313D01*
X153199998Y-75900000D02*
X153299702Y-75907687D01*
X153299702Y-80092313D02*
X153398520Y-80076985D01*
X153299702Y-75907687D02*
X153398520Y-75923015D01*
X153398520Y-80076985D02*
X153495867Y-80054107D01*
X153398520Y-75923015D02*
X153495867Y-75945893D01*
X153495867Y-80054107D02*
X153591167Y-80023814D01*
X153495867Y-75945893D02*
X153591167Y-75976186D01*
X153591167Y-80023814D02*
X153683857Y-79986285D01*
X153591167Y-75976186D02*
X153683857Y-76013715D01*
X153683857Y-79986285D02*
X153773388Y-79941742D01*
X153683857Y-76013715D02*
X153773388Y-76058258D01*
X153773388Y-79941742D02*
X153859230Y-79890449D01*
X153773388Y-76058258D02*
X153859230Y-76109551D01*
X153859230Y-79890449D02*
X153940875Y-79832709D01*
X153859230Y-76109551D02*
X153940875Y-76167291D01*
X153940875Y-79832709D02*
X154017840Y-79768864D01*
X153940875Y-76167291D02*
X154017840Y-76231136D01*
X154017840Y-79768864D02*
X154089670Y-79699292D01*
X154017840Y-76231136D02*
X154089670Y-76300708D01*
X154089670Y-79699292D02*
X154155940Y-79624405D01*
X154089670Y-76300708D02*
X154155940Y-76375595D01*
X154155940Y-79624405D02*
X154216258Y-79544646D01*
X154155940Y-76375595D02*
X154216258Y-76455354D01*
X154216258Y-79544646D02*
X154270267Y-79460487D01*
X154216258Y-76455354D02*
X154270267Y-76539513D01*
X154270267Y-79460487D02*
X154317647Y-79372426D01*
X154270267Y-76539513D02*
X154317647Y-76627574D01*
X154317647Y-79372426D02*
X154358118Y-79280984D01*
X154317647Y-76627574D02*
X154358118Y-76719016D01*
X154358118Y-79280984D02*
X154391440Y-79186702D01*
X154358118Y-76719016D02*
X154391440Y-76813298D01*
X154391440Y-79186702D02*
X154417416Y-79090138D01*
X154391440Y-76813298D02*
X154417416Y-76909862D01*
X154417416Y-79090138D02*
X154435893Y-78991863D01*
X154417416Y-76909862D02*
X154435893Y-77008137D01*
X154435893Y-78991863D02*
X154446761Y-78892458D01*
X154435893Y-77008137D02*
X154446761Y-77107542D01*
X154446761Y-78892458D02*
X154449956Y-78792512D01*
X154446761Y-77107542D02*
X154449956Y-77207488D01*
X154449956Y-77207488D02*
X154449956Y-78792512D01*
X156799998Y-80100000D02*
X156700294Y-80092313D01*
X156799998Y-75900000D02*
X156700294Y-75907687D01*
X156700294Y-80092313D02*
X156601476Y-80076985D01*
X156700294Y-75907687D02*
X156601476Y-75923015D01*
X156601476Y-80076985D02*
X156504129Y-80054107D01*
X156601476Y-75923015D02*
X156504129Y-75945893D01*
X156504129Y-80054107D02*
X156408829Y-80023814D01*
X156504129Y-75945893D02*
X156408829Y-75976186D01*
X156408829Y-80023814D02*
X156316139Y-79986285D01*
X156408829Y-75976186D02*
X156316139Y-76013715D01*
X156316139Y-79986285D02*
X156226608Y-79941742D01*
X156316139Y-76013715D02*
X156226608Y-76058258D01*
X156226608Y-79941742D02*
X156140766Y-79890449D01*
X156226608Y-76058258D02*
X156140766Y-76109551D01*
X156140766Y-79890449D02*
X156059121Y-79832709D01*
X156140766Y-76109551D02*
X156059121Y-76167291D01*
X156059121Y-79832709D02*
X155982156Y-79768864D01*
X156059121Y-76167291D02*
X155982156Y-76231136D01*
X155982156Y-79768864D02*
X155910326Y-79699292D01*
X155982156Y-76231136D02*
X155910326Y-76300708D01*
X155910326Y-79699292D02*
X155844056Y-79624405D01*
X155910326Y-76300708D02*
X155844056Y-76375595D01*
X155844056Y-79624405D02*
X155783738Y-79544646D01*
X155844056Y-76375595D02*
X155783738Y-76455354D01*
X155783738Y-79544646D02*
X155729729Y-79460487D01*
X155783738Y-76455354D02*
X155729729Y-76539513D01*
X155729729Y-79460487D02*
X155682349Y-79372426D01*
X155729729Y-76539513D02*
X155682349Y-76627574D01*
X155682349Y-79372426D02*
X155641878Y-79280984D01*
X155682349Y-76627574D02*
X155641878Y-76719016D01*
X155641878Y-79280984D02*
X155608556Y-79186702D01*
X155641878Y-76719016D02*
X155608556Y-76813298D01*
X155608556Y-79186702D02*
X155582580Y-79090138D01*
X155608556Y-76813298D02*
X155582580Y-76909862D01*
X155582580Y-79090138D02*
X155564103Y-78991863D01*
X155582580Y-76909862D02*
X155564103Y-77008137D01*
X155564103Y-78991863D02*
X155553235Y-78892458D01*
X155564103Y-77008137D02*
X155553235Y-77107542D01*
X155553235Y-78892458D02*
X155550040Y-78792512D01*
X155553235Y-77107542D02*
X155550040Y-77207488D01*
X155550040Y-77207488D02*
X155550040Y-78792512D01*
X145799998Y-80100000D02*
X147700000Y-80100000D01*
X142199998Y-80100000D02*
X141100000Y-80100000D01*
X142199998Y-75900000D02*
X141100000Y-75900000D01*
X145799998Y-75900000D02*
X147700000Y-75900000D01*
X145799998Y-75900000D02*
X145700294Y-75907687D01*
X145799998Y-80100000D02*
X145700294Y-80092313D01*
X145700294Y-75907687D02*
X145601476Y-75923015D01*
X145700294Y-80092313D02*
X145601476Y-80076985D01*
X145601476Y-75923015D02*
X145504129Y-75945893D01*
X145601476Y-80076985D02*
X145504129Y-80054107D01*
X145504129Y-75945893D02*
X145408829Y-75976186D01*
X145504129Y-80054107D02*
X145408829Y-80023814D01*
X145408829Y-75976186D02*
X145316139Y-76013715D01*
X145408829Y-80023814D02*
X145316139Y-79986285D01*
X145316139Y-76013715D02*
X145226608Y-76058258D01*
X145316139Y-79986285D02*
X145226608Y-79941742D01*
X145226608Y-76058258D02*
X145140766Y-76109551D01*
X145226608Y-79941742D02*
X145140766Y-79890449D01*
X145140766Y-76109551D02*
X145059121Y-76167291D01*
X145140766Y-79890449D02*
X145059121Y-79832709D01*
X145059121Y-76167291D02*
X144982156Y-76231136D01*
X145059121Y-79832709D02*
X144982156Y-79768864D01*
X144982156Y-76231136D02*
X144910326Y-76300708D01*
X144982156Y-79768864D02*
X144910326Y-79699292D01*
X144910326Y-76300708D02*
X144844056Y-76375595D01*
X144910326Y-79699292D02*
X144844056Y-79624405D01*
X144844056Y-76375595D02*
X144783738Y-76455354D01*
X144844056Y-79624405D02*
X144783738Y-79544646D01*
X144783738Y-76455354D02*
X144729729Y-76539513D01*
X144783738Y-79544646D02*
X144729729Y-79460487D01*
X144729729Y-76539513D02*
X144682349Y-76627574D01*
X144729729Y-79460487D02*
X144682349Y-79372426D01*
X144682349Y-76627574D02*
X144641878Y-76719016D01*
X144682349Y-79372426D02*
X144641878Y-79280984D01*
X144641878Y-76719016D02*
X144608556Y-76813298D01*
X144641878Y-79280984D02*
X144608556Y-79186702D01*
X144608556Y-76813298D02*
X144582580Y-76909862D01*
X144608556Y-79186702D02*
X144582580Y-79090138D01*
X144582580Y-76909862D02*
X144564103Y-77008137D01*
X144582580Y-79090138D02*
X144564103Y-78991863D01*
X144564103Y-77008137D02*
X144553235Y-77107542D01*
X144564103Y-78991863D02*
X144553235Y-78892458D01*
X144553235Y-77107542D02*
X144550040Y-77207488D01*
X144553235Y-78892458D02*
X144550040Y-78792512D01*
X144550040Y-78792512D02*
X144550040Y-77207488D01*
X142199998Y-75900000D02*
X142299702Y-75907687D01*
X142199998Y-80100000D02*
X142299702Y-80092313D01*
X142299702Y-75907687D02*
X142398520Y-75923015D01*
X142299702Y-80092313D02*
X142398520Y-80076985D01*
X142398520Y-75923015D02*
X142495867Y-75945893D01*
X142398520Y-80076985D02*
X142495867Y-80054107D01*
X142495867Y-75945893D02*
X142591167Y-75976186D01*
X142495867Y-80054107D02*
X142591167Y-80023814D01*
X142591167Y-75976186D02*
X142683857Y-76013715D01*
X142591167Y-80023814D02*
X142683857Y-79986285D01*
X142683857Y-76013715D02*
X142773388Y-76058258D01*
X142683857Y-79986285D02*
X142773388Y-79941742D01*
X142773388Y-76058258D02*
X142859230Y-76109551D01*
X142773388Y-79941742D02*
X142859230Y-79890449D01*
X142859230Y-76109551D02*
X142940875Y-76167291D01*
X142859230Y-79890449D02*
X142940875Y-79832709D01*
X142940875Y-76167291D02*
X143017840Y-76231136D01*
X142940875Y-79832709D02*
X143017840Y-79768864D01*
X143017840Y-76231136D02*
X143089670Y-76300708D01*
X143017840Y-79768864D02*
X143089670Y-79699292D01*
X143089670Y-76300708D02*
X143155940Y-76375595D01*
X143089670Y-79699292D02*
X143155940Y-79624405D01*
X143155940Y-76375595D02*
X143216258Y-76455354D01*
X143155940Y-79624405D02*
X143216258Y-79544646D01*
X143216258Y-76455354D02*
X143270267Y-76539513D01*
X143216258Y-79544646D02*
X143270267Y-79460487D01*
X143270267Y-76539513D02*
X143317647Y-76627574D01*
X143270267Y-79460487D02*
X143317647Y-79372426D01*
X143317647Y-76627574D02*
X143358118Y-76719016D01*
X143317647Y-79372426D02*
X143358118Y-79280984D01*
X143358118Y-76719016D02*
X143391440Y-76813298D01*
X143358118Y-79280984D02*
X143391440Y-79186702D01*
X143391440Y-76813298D02*
X143417416Y-76909862D01*
X143391440Y-79186702D02*
X143417416Y-79090138D01*
X143417416Y-76909862D02*
X143435893Y-77008137D01*
X143417416Y-79090138D02*
X143435893Y-78991863D01*
X143435893Y-77008137D02*
X143446761Y-77107542D01*
X143435893Y-78991863D02*
X143446761Y-78892458D01*
X143446761Y-77107542D02*
X143449956Y-77207488D01*
X143446761Y-78892458D02*
X143449956Y-78792512D01*
X143449956Y-78792512D02*
X143449956Y-77207488D01*
X131199998Y-75900000D02*
X130100000Y-75900000D01*
X134799998Y-75900000D02*
X136700000Y-75900000D01*
X134799998Y-80100000D02*
X136700000Y-80100000D01*
X131199998Y-80100000D02*
X130100000Y-80100000D01*
X131199998Y-80100000D02*
X131299702Y-80092313D01*
X131199998Y-75900000D02*
X131299702Y-75907687D01*
X131299702Y-80092313D02*
X131398520Y-80076985D01*
X131299702Y-75907687D02*
X131398520Y-75923015D01*
X131398520Y-80076985D02*
X131495867Y-80054107D01*
X131398520Y-75923015D02*
X131495867Y-75945893D01*
X131495867Y-80054107D02*
X131591167Y-80023814D01*
X131495867Y-75945893D02*
X131591167Y-75976186D01*
X131591167Y-80023814D02*
X131683857Y-79986285D01*
X131591167Y-75976186D02*
X131683857Y-76013715D01*
X131683857Y-79986285D02*
X131773388Y-79941742D01*
X131683857Y-76013715D02*
X131773388Y-76058258D01*
X131773388Y-79941742D02*
X131859230Y-79890449D01*
X131773388Y-76058258D02*
X131859230Y-76109551D01*
X131859230Y-79890449D02*
X131940875Y-79832709D01*
X131859230Y-76109551D02*
X131940875Y-76167291D01*
X131940875Y-79832709D02*
X132017840Y-79768864D01*
X131940875Y-76167291D02*
X132017840Y-76231136D01*
X132017840Y-79768864D02*
X132089670Y-79699292D01*
X132017840Y-76231136D02*
X132089670Y-76300708D01*
X132089670Y-79699292D02*
X132155940Y-79624405D01*
X132089670Y-76300708D02*
X132155940Y-76375595D01*
X132155940Y-79624405D02*
X132216258Y-79544646D01*
X132155940Y-76375595D02*
X132216258Y-76455354D01*
X132216258Y-79544646D02*
X132270267Y-79460487D01*
X132216258Y-76455354D02*
X132270267Y-76539513D01*
X132270267Y-79460487D02*
X132317647Y-79372426D01*
X132270267Y-76539513D02*
X132317647Y-76627574D01*
X132317647Y-79372426D02*
X132358118Y-79280984D01*
X132317647Y-76627574D02*
X132358118Y-76719016D01*
X132358118Y-79280984D02*
X132391440Y-79186702D01*
X132358118Y-76719016D02*
X132391440Y-76813298D01*
X132391440Y-79186702D02*
X132417416Y-79090138D01*
X132391440Y-76813298D02*
X132417416Y-76909862D01*
X132417416Y-79090138D02*
X132435893Y-78991863D01*
X132417416Y-76909862D02*
X132435893Y-77008137D01*
X132435893Y-78991863D02*
X132446761Y-78892458D01*
X132435893Y-77008137D02*
X132446761Y-77107542D01*
X132446761Y-78892458D02*
X132449956Y-78792512D01*
X132446761Y-77107542D02*
X132449956Y-77207488D01*
X132449956Y-77207488D02*
X132449956Y-78792512D01*
X134799998Y-80100000D02*
X134700294Y-80092313D01*
X134799998Y-75900000D02*
X134700294Y-75907687D01*
X134700294Y-80092313D02*
X134601476Y-80076985D01*
X134700294Y-75907687D02*
X134601476Y-75923015D01*
X134601476Y-80076985D02*
X134504129Y-80054107D01*
X134601476Y-75923015D02*
X134504129Y-75945893D01*
X134504129Y-80054107D02*
X134408829Y-80023814D01*
X134504129Y-75945893D02*
X134408829Y-75976186D01*
X134408829Y-80023814D02*
X134316139Y-79986285D01*
X134408829Y-75976186D02*
X134316139Y-76013715D01*
X134316139Y-79986285D02*
X134226608Y-79941742D01*
X134316139Y-76013715D02*
X134226608Y-76058258D01*
X134226608Y-79941742D02*
X134140766Y-79890449D01*
X134226608Y-76058258D02*
X134140766Y-76109551D01*
X134140766Y-79890449D02*
X134059121Y-79832709D01*
X134140766Y-76109551D02*
X134059121Y-76167291D01*
X134059121Y-79832709D02*
X133982156Y-79768864D01*
X134059121Y-76167291D02*
X133982156Y-76231136D01*
X133982156Y-79768864D02*
X133910326Y-79699292D01*
X133982156Y-76231136D02*
X133910326Y-76300708D01*
X133910326Y-79699292D02*
X133844056Y-79624405D01*
X133910326Y-76300708D02*
X133844056Y-76375595D01*
X133844056Y-79624405D02*
X133783738Y-79544646D01*
X133844056Y-76375595D02*
X133783738Y-76455354D01*
X133783738Y-79544646D02*
X133729729Y-79460487D01*
X133783738Y-76455354D02*
X133729729Y-76539513D01*
X133729729Y-79460487D02*
X133682349Y-79372426D01*
X133729729Y-76539513D02*
X133682349Y-76627574D01*
X133682349Y-79372426D02*
X133641878Y-79280984D01*
X133682349Y-76627574D02*
X133641878Y-76719016D01*
X133641878Y-79280984D02*
X133608556Y-79186702D01*
X133641878Y-76719016D02*
X133608556Y-76813298D01*
X133608556Y-79186702D02*
X133582580Y-79090138D01*
X133608556Y-76813298D02*
X133582580Y-76909862D01*
X133582580Y-79090138D02*
X133564103Y-78991863D01*
X133582580Y-76909862D02*
X133564103Y-77008137D01*
X133564103Y-78991863D02*
X133553235Y-78892458D01*
X133564103Y-77008137D02*
X133553235Y-77107542D01*
X133553235Y-78892458D02*
X133550040Y-78792512D01*
X133553235Y-77107542D02*
X133550040Y-77207488D01*
X133550040Y-77207488D02*
X133550040Y-78792512D01*
X127000000Y-71199996D02*
X127000000Y-67000000D01*
X130100000Y-71199998D02*
X130100000Y-70100000D01*
X130100000Y-74800002D02*
X130100000Y-75900000D01*
X130100000Y-74800002D02*
X130092313Y-74700298D01*
X127000000Y-74800014D02*
X127007687Y-74700310D01*
X130092313Y-74700298D02*
X130076985Y-74601480D01*
X127007687Y-74700310D02*
X127023015Y-74601492D01*
X130076985Y-74601480D02*
X130054107Y-74504133D01*
X127023015Y-74601492D02*
X127045893Y-74504145D01*
X130054107Y-74504133D02*
X130023814Y-74408833D01*
X127045893Y-74504145D02*
X127076186Y-74408845D01*
X130023814Y-74408833D02*
X129986285Y-74316143D01*
X127076186Y-74408845D02*
X127113715Y-74316155D01*
X129986285Y-74316143D02*
X129941742Y-74226612D01*
X127113715Y-74316155D02*
X127158258Y-74226624D01*
X129941742Y-74226612D02*
X129890449Y-74140770D01*
X127158258Y-74226624D02*
X127209551Y-74140782D01*
X129890449Y-74140770D02*
X129832709Y-74059125D01*
X127209551Y-74140782D02*
X127267291Y-74059137D01*
X129832709Y-74059125D02*
X129768864Y-73982160D01*
X127267291Y-74059137D02*
X127331136Y-73982172D01*
X129768864Y-73982160D02*
X129699292Y-73910330D01*
X127331136Y-73982172D02*
X127400708Y-73910342D01*
X129699292Y-73910330D02*
X129624405Y-73844060D01*
X127400708Y-73910342D02*
X127475595Y-73844072D01*
X129624405Y-73844060D02*
X129544646Y-73783742D01*
X127475595Y-73844072D02*
X127555354Y-73783754D01*
X129544646Y-73783742D02*
X129460487Y-73729733D01*
X127555354Y-73783754D02*
X127639513Y-73729745D01*
X129460487Y-73729733D02*
X129372426Y-73682353D01*
X127639513Y-73729745D02*
X127727574Y-73682365D01*
X129372426Y-73682353D02*
X129280984Y-73641882D01*
X127727574Y-73682365D02*
X127819016Y-73641894D01*
X129280984Y-73641882D02*
X129186702Y-73608560D01*
X127819016Y-73641894D02*
X127913298Y-73608572D01*
X129186702Y-73608560D02*
X129090138Y-73582584D01*
X127913298Y-73608572D02*
X128009862Y-73582596D01*
X129090138Y-73582584D02*
X128991863Y-73564107D01*
X128009862Y-73582596D02*
X128108137Y-73564119D01*
X128991863Y-73564107D02*
X128892458Y-73553239D01*
X128108137Y-73564119D02*
X128207542Y-73553251D01*
X128892458Y-73553239D02*
X128792512Y-73550044D01*
X128207542Y-73553251D02*
X128307488Y-73550056D01*
X128307488Y-73550056D02*
X128792512Y-73550044D01*
X130100000Y-71199998D02*
X130092313Y-71299702D01*
X127000000Y-71199996D02*
X127007687Y-71299700D01*
X130092313Y-71299702D02*
X130076985Y-71398520D01*
X127007687Y-71299700D02*
X127023015Y-71398518D01*
X130076985Y-71398520D02*
X130054107Y-71495867D01*
X127023015Y-71398518D02*
X127045893Y-71495865D01*
X130054107Y-71495867D02*
X130023814Y-71591167D01*
X127045893Y-71495865D02*
X127076186Y-71591165D01*
X130023814Y-71591167D02*
X129986285Y-71683857D01*
X127076186Y-71591165D02*
X127113715Y-71683855D01*
X129986285Y-71683857D02*
X129941742Y-71773388D01*
X127113715Y-71683855D02*
X127158258Y-71773386D01*
X129941742Y-71773388D02*
X129890449Y-71859230D01*
X127158258Y-71773386D02*
X127209551Y-71859228D01*
X129890449Y-71859230D02*
X129832709Y-71940875D01*
X127209551Y-71859228D02*
X127267291Y-71940873D01*
X129832709Y-71940875D02*
X129768864Y-72017840D01*
X127267291Y-71940873D02*
X127331136Y-72017838D01*
X129768864Y-72017840D02*
X129699292Y-72089670D01*
X127331136Y-72017838D02*
X127400708Y-72089668D01*
X129699292Y-72089670D02*
X129624405Y-72155940D01*
X127400708Y-72089668D02*
X127475595Y-72155938D01*
X129624405Y-72155940D02*
X129544646Y-72216258D01*
X127475595Y-72155938D02*
X127555354Y-72216256D01*
X129544646Y-72216258D02*
X129460487Y-72270267D01*
X127555354Y-72216256D02*
X127639513Y-72270265D01*
X129460487Y-72270267D02*
X129372426Y-72317647D01*
X127639513Y-72270265D02*
X127727574Y-72317645D01*
X129372426Y-72317647D02*
X129280984Y-72358118D01*
X127727574Y-72317645D02*
X127819016Y-72358116D01*
X129280984Y-72358118D02*
X129186702Y-72391440D01*
X127819016Y-72358116D02*
X127913298Y-72391438D01*
X129186702Y-72391440D02*
X129090138Y-72417416D01*
X127913298Y-72391438D02*
X128009862Y-72417414D01*
X129090138Y-72417416D02*
X128991863Y-72435893D01*
X128009862Y-72417414D02*
X128108137Y-72435891D01*
X128991863Y-72435893D02*
X128892458Y-72446761D01*
X128108137Y-72435891D02*
X128207542Y-72446759D01*
X128892458Y-72446761D02*
X128792512Y-72449956D01*
X128207542Y-72446759D02*
X128307488Y-72449954D01*
X128307488Y-72449954D02*
X128792512Y-72449956D01*
X158700000Y-94800002D02*
X158700000Y-95900000D01*
X158700000Y-91199998D02*
X158700000Y-90100000D01*
X163100000Y-91199998D02*
X163100000Y-90100000D01*
X163100000Y-94800002D02*
X163100000Y-95900000D01*
X163100000Y-94800002D02*
X163092313Y-94700298D01*
X158700000Y-94800002D02*
X158707687Y-94700298D01*
X163092313Y-94700298D02*
X163076985Y-94601480D01*
X158707687Y-94700298D02*
X158723015Y-94601480D01*
X163076985Y-94601480D02*
X163054107Y-94504133D01*
X158723015Y-94601480D02*
X158745893Y-94504133D01*
X163054107Y-94504133D02*
X163023814Y-94408833D01*
X158745893Y-94504133D02*
X158776186Y-94408833D01*
X163023814Y-94408833D02*
X162986285Y-94316143D01*
X158776186Y-94408833D02*
X158813715Y-94316143D01*
X162986285Y-94316143D02*
X162941742Y-94226612D01*
X158813715Y-94316143D02*
X158858258Y-94226612D01*
X162941742Y-94226612D02*
X162890449Y-94140770D01*
X158858258Y-94226612D02*
X158909551Y-94140770D01*
X162890449Y-94140770D02*
X162832709Y-94059125D01*
X158909551Y-94140770D02*
X158967291Y-94059125D01*
X162832709Y-94059125D02*
X162768864Y-93982160D01*
X158967291Y-94059125D02*
X159031136Y-93982160D01*
X162768864Y-93982160D02*
X162699292Y-93910330D01*
X159031136Y-93982160D02*
X159100708Y-93910330D01*
X162699292Y-93910330D02*
X162624405Y-93844060D01*
X159100708Y-93910330D02*
X159175595Y-93844060D01*
X162624405Y-93844060D02*
X162544646Y-93783742D01*
X159175595Y-93844060D02*
X159255354Y-93783742D01*
X162544646Y-93783742D02*
X162460487Y-93729733D01*
X159255354Y-93783742D02*
X159339513Y-93729733D01*
X162460487Y-93729733D02*
X162372426Y-93682353D01*
X159339513Y-93729733D02*
X159427574Y-93682353D01*
X162372426Y-93682353D02*
X162280984Y-93641882D01*
X159427574Y-93682353D02*
X159519016Y-93641882D01*
X162280984Y-93641882D02*
X162186702Y-93608560D01*
X159519016Y-93641882D02*
X159613298Y-93608560D01*
X162186702Y-93608560D02*
X162090138Y-93582584D01*
X159613298Y-93608560D02*
X159709862Y-93582584D01*
X162090138Y-93582584D02*
X161991863Y-93564107D01*
X159709862Y-93582584D02*
X159808137Y-93564107D01*
X161991863Y-93564107D02*
X161892458Y-93553239D01*
X159808137Y-93564107D02*
X159907542Y-93553239D01*
X161892458Y-93553239D02*
X161792512Y-93550044D01*
X159907542Y-93553239D02*
X160007488Y-93550044D01*
X160007488Y-93550044D02*
X161792512Y-93550044D01*
X163100000Y-91199998D02*
X163092313Y-91299702D01*
X158700000Y-91199998D02*
X158707687Y-91299702D01*
X163092313Y-91299702D02*
X163076985Y-91398520D01*
X158707687Y-91299702D02*
X158723015Y-91398520D01*
X163076985Y-91398520D02*
X163054107Y-91495867D01*
X158723015Y-91398520D02*
X158745893Y-91495867D01*
X163054107Y-91495867D02*
X163023814Y-91591167D01*
X158745893Y-91495867D02*
X158776186Y-91591167D01*
X163023814Y-91591167D02*
X162986285Y-91683857D01*
X158776186Y-91591167D02*
X158813715Y-91683857D01*
X162986285Y-91683857D02*
X162941742Y-91773388D01*
X158813715Y-91683857D02*
X158858258Y-91773388D01*
X162941742Y-91773388D02*
X162890449Y-91859230D01*
X158858258Y-91773388D02*
X158909551Y-91859230D01*
X162890449Y-91859230D02*
X162832709Y-91940875D01*
X158909551Y-91859230D02*
X158967291Y-91940875D01*
X162832709Y-91940875D02*
X162768864Y-92017840D01*
X158967291Y-91940875D02*
X159031136Y-92017840D01*
X162768864Y-92017840D02*
X162699292Y-92089670D01*
X159031136Y-92017840D02*
X159100708Y-92089670D01*
X162699292Y-92089670D02*
X162624405Y-92155940D01*
X159100708Y-92089670D02*
X159175595Y-92155940D01*
X162624405Y-92155940D02*
X162544646Y-92216258D01*
X159175595Y-92155940D02*
X159255354Y-92216258D01*
X162544646Y-92216258D02*
X162460487Y-92270267D01*
X159255354Y-92216258D02*
X159339513Y-92270267D01*
X162460487Y-92270267D02*
X162372426Y-92317647D01*
X159339513Y-92270267D02*
X159427574Y-92317647D01*
X162372426Y-92317647D02*
X162280984Y-92358118D01*
X159427574Y-92317647D02*
X159519016Y-92358118D01*
X162280984Y-92358118D02*
X162186702Y-92391440D01*
X159519016Y-92358118D02*
X159613298Y-92391440D01*
X162186702Y-92391440D02*
X162090138Y-92417416D01*
X159613298Y-92391440D02*
X159709862Y-92417416D01*
X162090138Y-92417416D02*
X161991863Y-92435893D01*
X159709862Y-92417416D02*
X159808137Y-92435893D01*
X161991863Y-92435893D02*
X161892458Y-92446761D01*
X159808137Y-92435893D02*
X159907542Y-92446761D01*
X161892458Y-92446761D02*
X161792512Y-92449956D01*
X159907542Y-92446761D02*
X160007488Y-92449956D01*
X160007488Y-92449956D02*
X161792512Y-92449956D01*
X147700000Y-94800002D02*
X147700000Y-95900000D01*
X147700000Y-91199998D02*
X147700000Y-90100000D01*
X152100000Y-91199998D02*
X152100000Y-90100000D01*
X152100000Y-94800002D02*
X152100000Y-95900000D01*
X152100000Y-94800002D02*
X152092313Y-94700298D01*
X147700000Y-94800002D02*
X147707687Y-94700298D01*
X152092313Y-94700298D02*
X152076985Y-94601480D01*
X147707687Y-94700298D02*
X147723015Y-94601480D01*
X152076985Y-94601480D02*
X152054107Y-94504133D01*
X147723015Y-94601480D02*
X147745893Y-94504133D01*
X152054107Y-94504133D02*
X152023814Y-94408833D01*
X147745893Y-94504133D02*
X147776186Y-94408833D01*
X152023814Y-94408833D02*
X151986285Y-94316143D01*
X147776186Y-94408833D02*
X147813715Y-94316143D01*
X151986285Y-94316143D02*
X151941742Y-94226612D01*
X147813715Y-94316143D02*
X147858258Y-94226612D01*
X151941742Y-94226612D02*
X151890449Y-94140770D01*
X147858258Y-94226612D02*
X147909551Y-94140770D01*
X151890449Y-94140770D02*
X151832709Y-94059125D01*
X147909551Y-94140770D02*
X147967291Y-94059125D01*
X151832709Y-94059125D02*
X151768864Y-93982160D01*
X147967291Y-94059125D02*
X148031136Y-93982160D01*
X151768864Y-93982160D02*
X151699292Y-93910330D01*
X148031136Y-93982160D02*
X148100708Y-93910330D01*
X151699292Y-93910330D02*
X151624405Y-93844060D01*
X148100708Y-93910330D02*
X148175595Y-93844060D01*
X151624405Y-93844060D02*
X151544646Y-93783742D01*
X148175595Y-93844060D02*
X148255354Y-93783742D01*
X151544646Y-93783742D02*
X151460487Y-93729733D01*
X148255354Y-93783742D02*
X148339513Y-93729733D01*
X151460487Y-93729733D02*
X151372426Y-93682353D01*
X148339513Y-93729733D02*
X148427574Y-93682353D01*
X151372426Y-93682353D02*
X151280984Y-93641882D01*
X148427574Y-93682353D02*
X148519016Y-93641882D01*
X151280984Y-93641882D02*
X151186702Y-93608560D01*
X148519016Y-93641882D02*
X148613298Y-93608560D01*
X151186702Y-93608560D02*
X151090138Y-93582584D01*
X148613298Y-93608560D02*
X148709862Y-93582584D01*
X151090138Y-93582584D02*
X150991863Y-93564107D01*
X148709862Y-93582584D02*
X148808137Y-93564107D01*
X150991863Y-93564107D02*
X150892458Y-93553239D01*
X148808137Y-93564107D02*
X148907542Y-93553239D01*
X150892458Y-93553239D02*
X150792512Y-93550044D01*
X148907542Y-93553239D02*
X149007488Y-93550044D01*
X149007488Y-93550044D02*
X150792512Y-93550044D01*
X152100000Y-91199998D02*
X152092313Y-91299702D01*
X147700000Y-91199998D02*
X147707687Y-91299702D01*
X152092313Y-91299702D02*
X152076985Y-91398520D01*
X147707687Y-91299702D02*
X147723015Y-91398520D01*
X152076985Y-91398520D02*
X152054107Y-91495867D01*
X147723015Y-91398520D02*
X147745893Y-91495867D01*
X152054107Y-91495867D02*
X152023814Y-91591167D01*
X147745893Y-91495867D02*
X147776186Y-91591167D01*
X152023814Y-91591167D02*
X151986285Y-91683857D01*
X147776186Y-91591167D02*
X147813715Y-91683857D01*
X151986285Y-91683857D02*
X151941742Y-91773388D01*
X147813715Y-91683857D02*
X147858258Y-91773388D01*
X151941742Y-91773388D02*
X151890449Y-91859230D01*
X147858258Y-91773388D02*
X147909551Y-91859230D01*
X151890449Y-91859230D02*
X151832709Y-91940875D01*
X147909551Y-91859230D02*
X147967291Y-91940875D01*
X151832709Y-91940875D02*
X151768864Y-92017840D01*
X147967291Y-91940875D02*
X148031136Y-92017840D01*
X151768864Y-92017840D02*
X151699292Y-92089670D01*
X148031136Y-92017840D02*
X148100708Y-92089670D01*
X151699292Y-92089670D02*
X151624405Y-92155940D01*
X148100708Y-92089670D02*
X148175595Y-92155940D01*
X151624405Y-92155940D02*
X151544646Y-92216258D01*
X148175595Y-92155940D02*
X148255354Y-92216258D01*
X151544646Y-92216258D02*
X151460487Y-92270267D01*
X148255354Y-92216258D02*
X148339513Y-92270267D01*
X151460487Y-92270267D02*
X151372426Y-92317647D01*
X148339513Y-92270267D02*
X148427574Y-92317647D01*
X151372426Y-92317647D02*
X151280984Y-92358118D01*
X148427574Y-92317647D02*
X148519016Y-92358118D01*
X151280984Y-92358118D02*
X151186702Y-92391440D01*
X148519016Y-92358118D02*
X148613298Y-92391440D01*
X151186702Y-92391440D02*
X151090138Y-92417416D01*
X148613298Y-92391440D02*
X148709862Y-92417416D01*
X151090138Y-92417416D02*
X150991863Y-92435893D01*
X148709862Y-92417416D02*
X148808137Y-92435893D01*
X150991863Y-92435893D02*
X150892458Y-92446761D01*
X148808137Y-92435893D02*
X148907542Y-92446761D01*
X150892458Y-92446761D02*
X150792512Y-92449956D01*
X148907542Y-92446761D02*
X149007488Y-92449956D01*
X149007488Y-92449956D02*
X150792512Y-92449956D01*
X136700000Y-94800002D02*
X136700000Y-95900000D01*
X136700000Y-91199998D02*
X136700000Y-90100000D01*
X141100000Y-91199998D02*
X141100000Y-90100000D01*
X141100000Y-94800002D02*
X141100000Y-95900000D01*
X141100000Y-94800002D02*
X141092313Y-94700298D01*
X136700000Y-94800002D02*
X136707687Y-94700298D01*
X141092313Y-94700298D02*
X141076985Y-94601480D01*
X136707687Y-94700298D02*
X136723015Y-94601480D01*
X141076985Y-94601480D02*
X141054107Y-94504133D01*
X136723015Y-94601480D02*
X136745893Y-94504133D01*
X141054107Y-94504133D02*
X141023814Y-94408833D01*
X136745893Y-94504133D02*
X136776186Y-94408833D01*
X141023814Y-94408833D02*
X140986285Y-94316143D01*
X136776186Y-94408833D02*
X136813715Y-94316143D01*
X140986285Y-94316143D02*
X140941742Y-94226612D01*
X136813715Y-94316143D02*
X136858258Y-94226612D01*
X140941742Y-94226612D02*
X140890449Y-94140770D01*
X136858258Y-94226612D02*
X136909551Y-94140770D01*
X140890449Y-94140770D02*
X140832709Y-94059125D01*
X136909551Y-94140770D02*
X136967291Y-94059125D01*
X140832709Y-94059125D02*
X140768864Y-93982160D01*
X136967291Y-94059125D02*
X137031136Y-93982160D01*
X140768864Y-93982160D02*
X140699292Y-93910330D01*
X137031136Y-93982160D02*
X137100708Y-93910330D01*
X140699292Y-93910330D02*
X140624405Y-93844060D01*
X137100708Y-93910330D02*
X137175595Y-93844060D01*
X140624405Y-93844060D02*
X140544646Y-93783742D01*
X137175595Y-93844060D02*
X137255354Y-93783742D01*
X140544646Y-93783742D02*
X140460487Y-93729733D01*
X137255354Y-93783742D02*
X137339513Y-93729733D01*
X140460487Y-93729733D02*
X140372426Y-93682353D01*
X137339513Y-93729733D02*
X137427574Y-93682353D01*
X140372426Y-93682353D02*
X140280984Y-93641882D01*
X137427574Y-93682353D02*
X137519016Y-93641882D01*
X140280984Y-93641882D02*
X140186702Y-93608560D01*
X137519016Y-93641882D02*
X137613298Y-93608560D01*
X140186702Y-93608560D02*
X140090138Y-93582584D01*
X137613298Y-93608560D02*
X137709862Y-93582584D01*
X140090138Y-93582584D02*
X139991863Y-93564107D01*
X137709862Y-93582584D02*
X137808137Y-93564107D01*
X139991863Y-93564107D02*
X139892458Y-93553239D01*
X137808137Y-93564107D02*
X137907542Y-93553239D01*
X139892458Y-93553239D02*
X139792512Y-93550044D01*
X137907542Y-93553239D02*
X138007488Y-93550044D01*
X138007488Y-93550044D02*
X139792512Y-93550044D01*
X141100000Y-91199998D02*
X141092313Y-91299702D01*
X136700000Y-91199998D02*
X136707687Y-91299702D01*
X141092313Y-91299702D02*
X141076985Y-91398520D01*
X136707687Y-91299702D02*
X136723015Y-91398520D01*
X141076985Y-91398520D02*
X141054107Y-91495867D01*
X136723015Y-91398520D02*
X136745893Y-91495867D01*
X141054107Y-91495867D02*
X141023814Y-91591167D01*
X136745893Y-91495867D02*
X136776186Y-91591167D01*
X141023814Y-91591167D02*
X140986285Y-91683857D01*
X136776186Y-91591167D02*
X136813715Y-91683857D01*
X140986285Y-91683857D02*
X140941742Y-91773388D01*
X136813715Y-91683857D02*
X136858258Y-91773388D01*
X140941742Y-91773388D02*
X140890449Y-91859230D01*
X136858258Y-91773388D02*
X136909551Y-91859230D01*
X140890449Y-91859230D02*
X140832709Y-91940875D01*
X136909551Y-91859230D02*
X136967291Y-91940875D01*
X140832709Y-91940875D02*
X140768864Y-92017840D01*
X136967291Y-91940875D02*
X137031136Y-92017840D01*
X140768864Y-92017840D02*
X140699292Y-92089670D01*
X137031136Y-92017840D02*
X137100708Y-92089670D01*
X140699292Y-92089670D02*
X140624405Y-92155940D01*
X137100708Y-92089670D02*
X137175595Y-92155940D01*
X140624405Y-92155940D02*
X140544646Y-92216258D01*
X137175595Y-92155940D02*
X137255354Y-92216258D01*
X140544646Y-92216258D02*
X140460487Y-92270267D01*
X137255354Y-92216258D02*
X137339513Y-92270267D01*
X140460487Y-92270267D02*
X140372426Y-92317647D01*
X137339513Y-92270267D02*
X137427574Y-92317647D01*
X140372426Y-92317647D02*
X140280984Y-92358118D01*
X137427574Y-92317647D02*
X137519016Y-92358118D01*
X140280984Y-92358118D02*
X140186702Y-92391440D01*
X137519016Y-92358118D02*
X137613298Y-92391440D01*
X140186702Y-92391440D02*
X140090138Y-92417416D01*
X137613298Y-92391440D02*
X137709862Y-92417416D01*
X140090138Y-92417416D02*
X139991863Y-92435893D01*
X137709862Y-92417416D02*
X137808137Y-92435893D01*
X139991863Y-92435893D02*
X139892458Y-92446761D01*
X137808137Y-92435893D02*
X137907542Y-92446761D01*
X139892458Y-92446761D02*
X139792512Y-92449956D01*
X137907542Y-92446761D02*
X138007488Y-92449956D01*
X138007488Y-92449956D02*
X139792512Y-92449956D01*
X141100000Y-81199998D02*
X141100000Y-80100000D01*
X141100000Y-84800002D02*
X141100000Y-85900000D01*
X136700000Y-84800002D02*
X136700000Y-85900000D01*
X136700000Y-81199998D02*
X136700000Y-80100000D01*
X136700000Y-81199998D02*
X136707687Y-81299702D01*
X141100000Y-81199998D02*
X141092313Y-81299702D01*
X136707687Y-81299702D02*
X136723015Y-81398520D01*
X141092313Y-81299702D02*
X141076985Y-81398520D01*
X136723015Y-81398520D02*
X136745893Y-81495867D01*
X141076985Y-81398520D02*
X141054107Y-81495867D01*
X136745893Y-81495867D02*
X136776186Y-81591167D01*
X141054107Y-81495867D02*
X141023814Y-81591167D01*
X136776186Y-81591167D02*
X136813715Y-81683857D01*
X141023814Y-81591167D02*
X140986285Y-81683857D01*
X136813715Y-81683857D02*
X136858258Y-81773388D01*
X140986285Y-81683857D02*
X140941742Y-81773388D01*
X136858258Y-81773388D02*
X136909551Y-81859230D01*
X140941742Y-81773388D02*
X140890449Y-81859230D01*
X136909551Y-81859230D02*
X136967291Y-81940875D01*
X140890449Y-81859230D02*
X140832709Y-81940875D01*
X136967291Y-81940875D02*
X137031136Y-82017840D01*
X140832709Y-81940875D02*
X140768864Y-82017840D01*
X137031136Y-82017840D02*
X137100708Y-82089670D01*
X140768864Y-82017840D02*
X140699292Y-82089670D01*
X137100708Y-82089670D02*
X137175595Y-82155940D01*
X140699292Y-82089670D02*
X140624405Y-82155940D01*
X137175595Y-82155940D02*
X137255354Y-82216258D01*
X140624405Y-82155940D02*
X140544646Y-82216258D01*
X137255354Y-82216258D02*
X137339513Y-82270267D01*
X140544646Y-82216258D02*
X140460487Y-82270267D01*
X137339513Y-82270267D02*
X137427574Y-82317647D01*
X140460487Y-82270267D02*
X140372426Y-82317647D01*
X137427574Y-82317647D02*
X137519016Y-82358118D01*
X140372426Y-82317647D02*
X140280984Y-82358118D01*
X137519016Y-82358118D02*
X137613298Y-82391440D01*
X140280984Y-82358118D02*
X140186702Y-82391440D01*
X137613298Y-82391440D02*
X137709862Y-82417416D01*
X140186702Y-82391440D02*
X140090138Y-82417416D01*
X137709862Y-82417416D02*
X137808137Y-82435893D01*
X140090138Y-82417416D02*
X139991863Y-82435893D01*
X137808137Y-82435893D02*
X137907542Y-82446761D01*
X139991863Y-82435893D02*
X139892458Y-82446761D01*
X137907542Y-82446761D02*
X138007488Y-82449956D01*
X139892458Y-82446761D02*
X139792512Y-82449956D01*
X139792512Y-82449956D02*
X138007488Y-82449956D01*
X136700000Y-84800002D02*
X136707687Y-84700298D01*
X141100000Y-84800002D02*
X141092313Y-84700298D01*
X136707687Y-84700298D02*
X136723015Y-84601480D01*
X141092313Y-84700298D02*
X141076985Y-84601480D01*
X136723015Y-84601480D02*
X136745893Y-84504133D01*
X141076985Y-84601480D02*
X141054107Y-84504133D01*
X136745893Y-84504133D02*
X136776186Y-84408833D01*
X141054107Y-84504133D02*
X141023814Y-84408833D01*
X136776186Y-84408833D02*
X136813715Y-84316143D01*
X141023814Y-84408833D02*
X140986285Y-84316143D01*
X136813715Y-84316143D02*
X136858258Y-84226612D01*
X140986285Y-84316143D02*
X140941742Y-84226612D01*
X136858258Y-84226612D02*
X136909551Y-84140770D01*
X140941742Y-84226612D02*
X140890449Y-84140770D01*
X136909551Y-84140770D02*
X136967291Y-84059125D01*
X140890449Y-84140770D02*
X140832709Y-84059125D01*
X136967291Y-84059125D02*
X137031136Y-83982160D01*
X140832709Y-84059125D02*
X140768864Y-83982160D01*
X137031136Y-83982160D02*
X137100708Y-83910330D01*
X140768864Y-83982160D02*
X140699292Y-83910330D01*
X137100708Y-83910330D02*
X137175595Y-83844060D01*
X140699292Y-83910330D02*
X140624405Y-83844060D01*
X137175595Y-83844060D02*
X137255354Y-83783742D01*
X140624405Y-83844060D02*
X140544646Y-83783742D01*
X137255354Y-83783742D02*
X137339513Y-83729733D01*
X140544646Y-83783742D02*
X140460487Y-83729733D01*
X137339513Y-83729733D02*
X137427574Y-83682353D01*
X140460487Y-83729733D02*
X140372426Y-83682353D01*
X137427574Y-83682353D02*
X137519016Y-83641882D01*
X140372426Y-83682353D02*
X140280984Y-83641882D01*
X137519016Y-83641882D02*
X137613298Y-83608560D01*
X140280984Y-83641882D02*
X140186702Y-83608560D01*
X137613298Y-83608560D02*
X137709862Y-83582584D01*
X140186702Y-83608560D02*
X140090138Y-83582584D01*
X137709862Y-83582584D02*
X137808137Y-83564107D01*
X140090138Y-83582584D02*
X139991863Y-83564107D01*
X137808137Y-83564107D02*
X137907542Y-83553239D01*
X139991863Y-83564107D02*
X139892458Y-83553239D01*
X137907542Y-83553239D02*
X138007488Y-83550044D01*
X139892458Y-83553239D02*
X139792512Y-83550044D01*
X139792512Y-83550044D02*
X138007488Y-83550044D01*
X152100000Y-81199998D02*
X152100000Y-80100000D01*
X152100000Y-84800002D02*
X152100000Y-85900000D01*
X147700000Y-84800002D02*
X147700000Y-85900000D01*
X147700000Y-81199998D02*
X147700000Y-80100000D01*
X147700000Y-81199998D02*
X147707687Y-81299702D01*
X152100000Y-81199998D02*
X152092313Y-81299702D01*
X147707687Y-81299702D02*
X147723015Y-81398520D01*
X152092313Y-81299702D02*
X152076985Y-81398520D01*
X147723015Y-81398520D02*
X147745893Y-81495867D01*
X152076985Y-81398520D02*
X152054107Y-81495867D01*
X147745893Y-81495867D02*
X147776186Y-81591167D01*
X152054107Y-81495867D02*
X152023814Y-81591167D01*
X147776186Y-81591167D02*
X147813715Y-81683857D01*
X152023814Y-81591167D02*
X151986285Y-81683857D01*
X147813715Y-81683857D02*
X147858258Y-81773388D01*
X151986285Y-81683857D02*
X151941742Y-81773388D01*
X147858258Y-81773388D02*
X147909551Y-81859230D01*
X151941742Y-81773388D02*
X151890449Y-81859230D01*
X147909551Y-81859230D02*
X147967291Y-81940875D01*
X151890449Y-81859230D02*
X151832709Y-81940875D01*
X147967291Y-81940875D02*
X148031136Y-82017840D01*
X151832709Y-81940875D02*
X151768864Y-82017840D01*
X148031136Y-82017840D02*
X148100708Y-82089670D01*
X151768864Y-82017840D02*
X151699292Y-82089670D01*
X148100708Y-82089670D02*
X148175595Y-82155940D01*
X151699292Y-82089670D02*
X151624405Y-82155940D01*
X148175595Y-82155940D02*
X148255354Y-82216258D01*
X151624405Y-82155940D02*
X151544646Y-82216258D01*
X148255354Y-82216258D02*
X148339513Y-82270267D01*
X151544646Y-82216258D02*
X151460487Y-82270267D01*
X148339513Y-82270267D02*
X148427574Y-82317647D01*
X151460487Y-82270267D02*
X151372426Y-82317647D01*
X148427574Y-82317647D02*
X148519016Y-82358118D01*
X151372426Y-82317647D02*
X151280984Y-82358118D01*
X148519016Y-82358118D02*
X148613298Y-82391440D01*
X151280984Y-82358118D02*
X151186702Y-82391440D01*
X148613298Y-82391440D02*
X148709862Y-82417416D01*
X151186702Y-82391440D02*
X151090138Y-82417416D01*
X148709862Y-82417416D02*
X148808137Y-82435893D01*
X151090138Y-82417416D02*
X150991863Y-82435893D01*
X148808137Y-82435893D02*
X148907542Y-82446761D01*
X150991863Y-82435893D02*
X150892458Y-82446761D01*
X148907542Y-82446761D02*
X149007488Y-82449956D01*
X150892458Y-82446761D02*
X150792512Y-82449956D01*
X150792512Y-82449956D02*
X149007488Y-82449956D01*
X147700000Y-84800002D02*
X147707687Y-84700298D01*
X152100000Y-84800002D02*
X152092313Y-84700298D01*
X147707687Y-84700298D02*
X147723015Y-84601480D01*
X152092313Y-84700298D02*
X152076985Y-84601480D01*
X147723015Y-84601480D02*
X147745893Y-84504133D01*
X152076985Y-84601480D02*
X152054107Y-84504133D01*
X147745893Y-84504133D02*
X147776186Y-84408833D01*
X152054107Y-84504133D02*
X152023814Y-84408833D01*
X147776186Y-84408833D02*
X147813715Y-84316143D01*
X152023814Y-84408833D02*
X151986285Y-84316143D01*
X147813715Y-84316143D02*
X147858258Y-84226612D01*
X151986285Y-84316143D02*
X151941742Y-84226612D01*
X147858258Y-84226612D02*
X147909551Y-84140770D01*
X151941742Y-84226612D02*
X151890449Y-84140770D01*
X147909551Y-84140770D02*
X147967291Y-84059125D01*
X151890449Y-84140770D02*
X151832709Y-84059125D01*
X147967291Y-84059125D02*
X148031136Y-83982160D01*
X151832709Y-84059125D02*
X151768864Y-83982160D01*
X148031136Y-83982160D02*
X148100708Y-83910330D01*
X151768864Y-83982160D02*
X151699292Y-83910330D01*
X148100708Y-83910330D02*
X148175595Y-83844060D01*
X151699292Y-83910330D02*
X151624405Y-83844060D01*
X148175595Y-83844060D02*
X148255354Y-83783742D01*
X151624405Y-83844060D02*
X151544646Y-83783742D01*
X148255354Y-83783742D02*
X148339513Y-83729733D01*
X151544646Y-83783742D02*
X151460487Y-83729733D01*
X148339513Y-83729733D02*
X148427574Y-83682353D01*
X151460487Y-83729733D02*
X151372426Y-83682353D01*
X148427574Y-83682353D02*
X148519016Y-83641882D01*
X151372426Y-83682353D02*
X151280984Y-83641882D01*
X148519016Y-83641882D02*
X148613298Y-83608560D01*
X151280984Y-83641882D02*
X151186702Y-83608560D01*
X148613298Y-83608560D02*
X148709862Y-83582584D01*
X151186702Y-83608560D02*
X151090138Y-83582584D01*
X148709862Y-83582584D02*
X148808137Y-83564107D01*
X151090138Y-83582584D02*
X150991863Y-83564107D01*
X148808137Y-83564107D02*
X148907542Y-83553239D01*
X150991863Y-83564107D02*
X150892458Y-83553239D01*
X148907542Y-83553239D02*
X149007488Y-83550044D01*
X150892458Y-83553239D02*
X150792512Y-83550044D01*
X150792512Y-83550044D02*
X149007488Y-83550044D01*
X163100000Y-81199998D02*
X163100000Y-80100000D01*
X163100000Y-84800002D02*
X163100000Y-85900000D01*
X158700000Y-84800002D02*
X158700000Y-85900000D01*
X158700000Y-81199998D02*
X158700000Y-80100000D01*
X158700000Y-81199998D02*
X158707687Y-81299702D01*
X163100000Y-81199998D02*
X163092313Y-81299702D01*
X158707687Y-81299702D02*
X158723015Y-81398520D01*
X163092313Y-81299702D02*
X163076985Y-81398520D01*
X158723015Y-81398520D02*
X158745893Y-81495867D01*
X163076985Y-81398520D02*
X163054107Y-81495867D01*
X158745893Y-81495867D02*
X158776186Y-81591167D01*
X163054107Y-81495867D02*
X163023814Y-81591167D01*
X158776186Y-81591167D02*
X158813715Y-81683857D01*
X163023814Y-81591167D02*
X162986285Y-81683857D01*
X158813715Y-81683857D02*
X158858258Y-81773388D01*
X162986285Y-81683857D02*
X162941742Y-81773388D01*
X158858258Y-81773388D02*
X158909551Y-81859230D01*
X162941742Y-81773388D02*
X162890449Y-81859230D01*
X158909551Y-81859230D02*
X158967291Y-81940875D01*
X162890449Y-81859230D02*
X162832709Y-81940875D01*
X158967291Y-81940875D02*
X159031136Y-82017840D01*
X162832709Y-81940875D02*
X162768864Y-82017840D01*
X159031136Y-82017840D02*
X159100708Y-82089670D01*
X162768864Y-82017840D02*
X162699292Y-82089670D01*
X159100708Y-82089670D02*
X159175595Y-82155940D01*
X162699292Y-82089670D02*
X162624405Y-82155940D01*
X159175595Y-82155940D02*
X159255354Y-82216258D01*
X162624405Y-82155940D02*
X162544646Y-82216258D01*
X159255354Y-82216258D02*
X159339513Y-82270267D01*
X162544646Y-82216258D02*
X162460487Y-82270267D01*
X159339513Y-82270267D02*
X159427574Y-82317647D01*
X162460487Y-82270267D02*
X162372426Y-82317647D01*
X159427574Y-82317647D02*
X159519016Y-82358118D01*
X162372426Y-82317647D02*
X162280984Y-82358118D01*
X159519016Y-82358118D02*
X159613298Y-82391440D01*
X162280984Y-82358118D02*
X162186702Y-82391440D01*
X159613298Y-82391440D02*
X159709862Y-82417416D01*
X162186702Y-82391440D02*
X162090138Y-82417416D01*
X159709862Y-82417416D02*
X159808137Y-82435893D01*
X162090138Y-82417416D02*
X161991863Y-82435893D01*
X159808137Y-82435893D02*
X159907542Y-82446761D01*
X161991863Y-82435893D02*
X161892458Y-82446761D01*
X159907542Y-82446761D02*
X160007488Y-82449956D01*
X161892458Y-82446761D02*
X161792512Y-82449956D01*
X161792512Y-82449956D02*
X160007488Y-82449956D01*
X158700000Y-84800002D02*
X158707687Y-84700298D01*
X163100000Y-84800002D02*
X163092313Y-84700298D01*
X158707687Y-84700298D02*
X158723015Y-84601480D01*
X163092313Y-84700298D02*
X163076985Y-84601480D01*
X158723015Y-84601480D02*
X158745893Y-84504133D01*
X163076985Y-84601480D02*
X163054107Y-84504133D01*
X158745893Y-84504133D02*
X158776186Y-84408833D01*
X163054107Y-84504133D02*
X163023814Y-84408833D01*
X158776186Y-84408833D02*
X158813715Y-84316143D01*
X163023814Y-84408833D02*
X162986285Y-84316143D01*
X158813715Y-84316143D02*
X158858258Y-84226612D01*
X162986285Y-84316143D02*
X162941742Y-84226612D01*
X158858258Y-84226612D02*
X158909551Y-84140770D01*
X162941742Y-84226612D02*
X162890449Y-84140770D01*
X158909551Y-84140770D02*
X158967291Y-84059125D01*
X162890449Y-84140770D02*
X162832709Y-84059125D01*
X158967291Y-84059125D02*
X159031136Y-83982160D01*
X162832709Y-84059125D02*
X162768864Y-83982160D01*
X159031136Y-83982160D02*
X159100708Y-83910330D01*
X162768864Y-83982160D02*
X162699292Y-83910330D01*
X159100708Y-83910330D02*
X159175595Y-83844060D01*
X162699292Y-83910330D02*
X162624405Y-83844060D01*
X159175595Y-83844060D02*
X159255354Y-83783742D01*
X162624405Y-83844060D02*
X162544646Y-83783742D01*
X159255354Y-83783742D02*
X159339513Y-83729733D01*
X162544646Y-83783742D02*
X162460487Y-83729733D01*
X159339513Y-83729733D02*
X159427574Y-83682353D01*
X162460487Y-83729733D02*
X162372426Y-83682353D01*
X159427574Y-83682353D02*
X159519016Y-83641882D01*
X162372426Y-83682353D02*
X162280984Y-83641882D01*
X159519016Y-83641882D02*
X159613298Y-83608560D01*
X162280984Y-83641882D02*
X162186702Y-83608560D01*
X159613298Y-83608560D02*
X159709862Y-83582584D01*
X162186702Y-83608560D02*
X162090138Y-83582584D01*
X159709862Y-83582584D02*
X159808137Y-83564107D01*
X162090138Y-83582584D02*
X161991863Y-83564107D01*
X159808137Y-83564107D02*
X159907542Y-83553239D01*
X161991863Y-83564107D02*
X161892458Y-83553239D01*
X159907542Y-83553239D02*
X160007488Y-83550044D01*
X161892458Y-83553239D02*
X161792512Y-83550044D01*
X161792512Y-83550044D02*
X160007488Y-83550044D01*
X169700000Y-84800002D02*
X169700000Y-85900000D01*
X169700000Y-81199998D02*
X169700000Y-80100000D01*
X169700000Y-84800002D02*
X169707687Y-84700298D01*
X173000000Y-84800022D02*
X172992313Y-84700318D01*
X169707687Y-84700298D02*
X169723015Y-84601480D01*
X172992313Y-84700318D02*
X172976985Y-84601500D01*
X169723015Y-84601480D02*
X169745893Y-84504133D01*
X172976985Y-84601500D02*
X172954107Y-84504153D01*
X169745893Y-84504133D02*
X169776186Y-84408833D01*
X172954107Y-84504153D02*
X172923814Y-84408853D01*
X169776186Y-84408833D02*
X169813715Y-84316143D01*
X172923814Y-84408853D02*
X172886285Y-84316163D01*
X169813715Y-84316143D02*
X169858258Y-84226612D01*
X172886285Y-84316163D02*
X172841742Y-84226632D01*
X169858258Y-84226612D02*
X169909551Y-84140770D01*
X172841742Y-84226632D02*
X172790449Y-84140790D01*
X169909551Y-84140770D02*
X169967291Y-84059125D01*
X172790449Y-84140790D02*
X172732709Y-84059145D01*
X169967291Y-84059125D02*
X170031136Y-83982160D01*
X172732709Y-84059145D02*
X172668864Y-83982180D01*
X170031136Y-83982160D02*
X170100708Y-83910330D01*
X172668864Y-83982180D02*
X172599292Y-83910350D01*
X170100708Y-83910330D02*
X170175595Y-83844060D01*
X172599292Y-83910350D02*
X172524405Y-83844080D01*
X170175595Y-83844060D02*
X170255354Y-83783742D01*
X172524405Y-83844080D02*
X172444646Y-83783762D01*
X170255354Y-83783742D02*
X170339513Y-83729733D01*
X172444646Y-83783762D02*
X172360487Y-83729753D01*
X170339513Y-83729733D02*
X170427574Y-83682353D01*
X172360487Y-83729753D02*
X172272426Y-83682373D01*
X170427574Y-83682353D02*
X170519016Y-83641882D01*
X172272426Y-83682373D02*
X172180984Y-83641902D01*
X170519016Y-83641882D02*
X170613298Y-83608560D01*
X172180984Y-83641902D02*
X172086702Y-83608580D01*
X170613298Y-83608560D02*
X170709862Y-83582584D01*
X172086702Y-83608580D02*
X171990138Y-83582604D01*
X170709862Y-83582584D02*
X170808137Y-83564107D01*
X171990138Y-83582604D02*
X171891863Y-83564127D01*
X170808137Y-83564107D02*
X170907542Y-83553239D01*
X171891863Y-83564127D02*
X171792458Y-83553259D01*
X170907542Y-83553239D02*
X171007488Y-83550044D01*
X171792458Y-83553259D02*
X171692512Y-83550064D01*
X171007488Y-83550044D02*
X171692512Y-83550064D01*
X173000000Y-81200000D02*
X172992313Y-81299704D01*
X169700000Y-81199998D02*
X169707687Y-81299702D01*
X172992313Y-81299704D02*
X172976985Y-81398522D01*
X169707687Y-81299702D02*
X169723015Y-81398520D01*
X172976985Y-81398522D02*
X172954107Y-81495869D01*
X169723015Y-81398520D02*
X169745893Y-81495867D01*
X172954107Y-81495869D02*
X172923814Y-81591169D01*
X169745893Y-81495867D02*
X169776186Y-81591167D01*
X172923814Y-81591169D02*
X172886285Y-81683859D01*
X169776186Y-81591167D02*
X169813715Y-81683857D01*
X172886285Y-81683859D02*
X172841742Y-81773390D01*
X169813715Y-81683857D02*
X169858258Y-81773388D01*
X172841742Y-81773390D02*
X172790449Y-81859232D01*
X169858258Y-81773388D02*
X169909551Y-81859230D01*
X172790449Y-81859232D02*
X172732709Y-81940877D01*
X169909551Y-81859230D02*
X169967291Y-81940875D01*
X172732709Y-81940877D02*
X172668864Y-82017842D01*
X169967291Y-81940875D02*
X170031136Y-82017840D01*
X172668864Y-82017842D02*
X172599292Y-82089672D01*
X170031136Y-82017840D02*
X170100708Y-82089670D01*
X172599292Y-82089672D02*
X172524405Y-82155942D01*
X170100708Y-82089670D02*
X170175595Y-82155940D01*
X172524405Y-82155942D02*
X172444646Y-82216260D01*
X170175595Y-82155940D02*
X170255354Y-82216258D01*
X172444646Y-82216260D02*
X172360487Y-82270269D01*
X170255354Y-82216258D02*
X170339513Y-82270267D01*
X172360487Y-82270269D02*
X172272426Y-82317649D01*
X170339513Y-82270267D02*
X170427574Y-82317647D01*
X172272426Y-82317649D02*
X172180984Y-82358120D01*
X170427574Y-82317647D02*
X170519016Y-82358118D01*
X172180984Y-82358120D02*
X172086702Y-82391442D01*
X170519016Y-82358118D02*
X170613298Y-82391440D01*
X172086702Y-82391442D02*
X171990138Y-82417418D01*
X170613298Y-82391440D02*
X170709862Y-82417416D01*
X171990138Y-82417418D02*
X171891863Y-82435895D01*
X170709862Y-82417416D02*
X170808137Y-82435893D01*
X171891863Y-82435895D02*
X171792458Y-82446763D01*
X170808137Y-82435893D02*
X170907542Y-82446761D01*
X171792458Y-82446763D02*
X171692512Y-82449958D01*
X170907542Y-82446761D02*
X171007488Y-82449956D01*
X171007488Y-82449956D02*
X171692512Y-82449958D01*
X173000000Y-91199993D02*
X173000000Y-84800022D01*
X169700000Y-94800002D02*
X169700000Y-95900000D01*
X169700000Y-91199998D02*
X169700000Y-90100000D01*
X169700000Y-91199998D02*
X169707687Y-91299702D01*
X173000000Y-91199993D02*
X172992313Y-91299697D01*
X169707687Y-91299702D02*
X169723015Y-91398520D01*
X172992313Y-91299697D02*
X172976985Y-91398515D01*
X169723015Y-91398520D02*
X169745893Y-91495867D01*
X172976985Y-91398515D02*
X172954107Y-91495862D01*
X169745893Y-91495867D02*
X169776186Y-91591167D01*
X172954107Y-91495862D02*
X172923814Y-91591162D01*
X169776186Y-91591167D02*
X169813715Y-91683857D01*
X172923814Y-91591162D02*
X172886285Y-91683852D01*
X169813715Y-91683857D02*
X169858258Y-91773388D01*
X172886285Y-91683852D02*
X172841742Y-91773383D01*
X169858258Y-91773388D02*
X169909551Y-91859230D01*
X172841742Y-91773383D02*
X172790449Y-91859225D01*
X169909551Y-91859230D02*
X169967291Y-91940875D01*
X172790449Y-91859225D02*
X172732709Y-91940870D01*
X169967291Y-91940875D02*
X170031136Y-92017840D01*
X172732709Y-91940870D02*
X172668864Y-92017835D01*
X170031136Y-92017840D02*
X170100708Y-92089670D01*
X172668864Y-92017835D02*
X172599292Y-92089665D01*
X170100708Y-92089670D02*
X170175595Y-92155940D01*
X172599292Y-92089665D02*
X172524405Y-92155935D01*
X170175595Y-92155940D02*
X170255354Y-92216258D01*
X172524405Y-92155935D02*
X172444646Y-92216253D01*
X170255354Y-92216258D02*
X170339513Y-92270267D01*
X172444646Y-92216253D02*
X172360487Y-92270262D01*
X170339513Y-92270267D02*
X170427574Y-92317647D01*
X172360487Y-92270262D02*
X172272426Y-92317642D01*
X170427574Y-92317647D02*
X170519016Y-92358118D01*
X172272426Y-92317642D02*
X172180984Y-92358113D01*
X170519016Y-92358118D02*
X170613298Y-92391440D01*
X172180984Y-92358113D02*
X172086702Y-92391435D01*
X170613298Y-92391440D02*
X170709862Y-92417416D01*
X172086702Y-92391435D02*
X171990138Y-92417411D01*
X170709862Y-92417416D02*
X170808137Y-92435893D01*
X171990138Y-92417411D02*
X171891863Y-92435888D01*
X170808137Y-92435893D02*
X170907542Y-92446761D01*
X171891863Y-92435888D02*
X171792458Y-92446756D01*
X170907542Y-92446761D02*
X171007488Y-92449956D01*
X171792458Y-92446756D02*
X171692512Y-92449951D01*
X171692512Y-92449951D02*
X171007488Y-92449956D01*
X173000000Y-94800000D02*
X172992313Y-94700296D01*
X169700000Y-94800002D02*
X169707687Y-94700298D01*
X172992313Y-94700296D02*
X172976985Y-94601478D01*
X169707687Y-94700298D02*
X169723015Y-94601480D01*
X172976985Y-94601478D02*
X172954107Y-94504131D01*
X169723015Y-94601480D02*
X169745893Y-94504133D01*
X172954107Y-94504131D02*
X172923814Y-94408831D01*
X169745893Y-94504133D02*
X169776186Y-94408833D01*
X172923814Y-94408831D02*
X172886285Y-94316141D01*
X169776186Y-94408833D02*
X169813715Y-94316143D01*
X172886285Y-94316141D02*
X172841742Y-94226610D01*
X169813715Y-94316143D02*
X169858258Y-94226612D01*
X172841742Y-94226610D02*
X172790449Y-94140768D01*
X169858258Y-94226612D02*
X169909551Y-94140770D01*
X172790449Y-94140768D02*
X172732709Y-94059123D01*
X169909551Y-94140770D02*
X169967291Y-94059125D01*
X172732709Y-94059123D02*
X172668864Y-93982158D01*
X169967291Y-94059125D02*
X170031136Y-93982160D01*
X172668864Y-93982158D02*
X172599292Y-93910328D01*
X170031136Y-93982160D02*
X170100708Y-93910330D01*
X172599292Y-93910328D02*
X172524405Y-93844058D01*
X170100708Y-93910330D02*
X170175595Y-93844060D01*
X172524405Y-93844058D02*
X172444646Y-93783740D01*
X170175595Y-93844060D02*
X170255354Y-93783742D01*
X172444646Y-93783740D02*
X172360487Y-93729731D01*
X170255354Y-93783742D02*
X170339513Y-93729733D01*
X172360487Y-93729731D02*
X172272426Y-93682351D01*
X170339513Y-93729733D02*
X170427574Y-93682353D01*
X172272426Y-93682351D02*
X172180984Y-93641880D01*
X170427574Y-93682353D02*
X170519016Y-93641882D01*
X172180984Y-93641880D02*
X172086702Y-93608558D01*
X170519016Y-93641882D02*
X170613298Y-93608560D01*
X172086702Y-93608558D02*
X171990138Y-93582582D01*
X170613298Y-93608560D02*
X170709862Y-93582584D01*
X171990138Y-93582582D02*
X171891863Y-93564105D01*
X170709862Y-93582584D02*
X170808137Y-93564107D01*
X171891863Y-93564105D02*
X171792458Y-93553237D01*
X170808137Y-93564107D02*
X170907542Y-93553239D01*
X171792458Y-93553237D02*
X171692512Y-93550042D01*
X170907542Y-93553239D02*
X171007488Y-93550044D01*
X171692512Y-93550042D02*
X171007488Y-93550044D01*
X169700000Y-104800002D02*
X169700000Y-105900000D01*
X169700000Y-101199998D02*
X169700000Y-100100000D01*
X173000000Y-101200004D02*
X173000000Y-94800000D01*
X173000000Y-104800004D02*
X173000000Y-109000000D01*
X169700000Y-104800002D02*
X169707687Y-104700298D01*
X173000000Y-104800004D02*
X172992313Y-104700300D01*
X169707687Y-104700298D02*
X169723015Y-104601480D01*
X172992313Y-104700300D02*
X172976985Y-104601482D01*
X169723015Y-104601480D02*
X169745893Y-104504133D01*
X172976985Y-104601482D02*
X172954107Y-104504135D01*
X169745893Y-104504133D02*
X169776186Y-104408833D01*
X172954107Y-104504135D02*
X172923814Y-104408835D01*
X169776186Y-104408833D02*
X169813715Y-104316143D01*
X172923814Y-104408835D02*
X172886285Y-104316145D01*
X169813715Y-104316143D02*
X169858258Y-104226612D01*
X172886285Y-104316145D02*
X172841742Y-104226614D01*
X169858258Y-104226612D02*
X169909551Y-104140770D01*
X172841742Y-104226614D02*
X172790449Y-104140772D01*
X169909551Y-104140770D02*
X169967291Y-104059125D01*
X172790449Y-104140772D02*
X172732709Y-104059127D01*
X169967291Y-104059125D02*
X170031136Y-103982160D01*
X172732709Y-104059127D02*
X172668864Y-103982162D01*
X170031136Y-103982160D02*
X170100708Y-103910330D01*
X172668864Y-103982162D02*
X172599292Y-103910332D01*
X170100708Y-103910330D02*
X170175595Y-103844060D01*
X172599292Y-103910332D02*
X172524405Y-103844062D01*
X170175595Y-103844060D02*
X170255354Y-103783742D01*
X172524405Y-103844062D02*
X172444646Y-103783744D01*
X170255354Y-103783742D02*
X170339513Y-103729733D01*
X172444646Y-103783744D02*
X172360487Y-103729735D01*
X170339513Y-103729733D02*
X170427574Y-103682353D01*
X172360487Y-103729735D02*
X172272426Y-103682355D01*
X170427574Y-103682353D02*
X170519016Y-103641882D01*
X172272426Y-103682355D02*
X172180984Y-103641884D01*
X170519016Y-103641882D02*
X170613298Y-103608560D01*
X172180984Y-103641884D02*
X172086702Y-103608562D01*
X170613298Y-103608560D02*
X170709862Y-103582584D01*
X172086702Y-103608562D02*
X171990138Y-103582586D01*
X170709862Y-103582584D02*
X170808137Y-103564107D01*
X171990138Y-103582586D02*
X171891863Y-103564109D01*
X170808137Y-103564107D02*
X170907542Y-103553239D01*
X171891863Y-103564109D02*
X171792458Y-103553241D01*
X170907542Y-103553239D02*
X171007488Y-103550044D01*
X171792458Y-103553241D02*
X171692512Y-103550046D01*
X171007488Y-103550044D02*
X171692512Y-103550046D01*
X173000000Y-101200004D02*
X172992313Y-101299708D01*
X169700000Y-101199998D02*
X169707687Y-101299702D01*
X172992313Y-101299708D02*
X172976985Y-101398526D01*
X169707687Y-101299702D02*
X169723015Y-101398520D01*
X172976985Y-101398526D02*
X172954107Y-101495873D01*
X169723015Y-101398520D02*
X169745893Y-101495867D01*
X172954107Y-101495873D02*
X172923814Y-101591173D01*
X169745893Y-101495867D02*
X169776186Y-101591167D01*
X172923814Y-101591173D02*
X172886285Y-101683863D01*
X169776186Y-101591167D02*
X169813715Y-101683857D01*
X172886285Y-101683863D02*
X172841742Y-101773394D01*
X169813715Y-101683857D02*
X169858258Y-101773388D01*
X172841742Y-101773394D02*
X172790449Y-101859236D01*
X169858258Y-101773388D02*
X169909551Y-101859230D01*
X172790449Y-101859236D02*
X172732709Y-101940881D01*
X169909551Y-101859230D02*
X169967291Y-101940875D01*
X172732709Y-101940881D02*
X172668864Y-102017846D01*
X169967291Y-101940875D02*
X170031136Y-102017840D01*
X172668864Y-102017846D02*
X172599292Y-102089676D01*
X170031136Y-102017840D02*
X170100708Y-102089670D01*
X172599292Y-102089676D02*
X172524405Y-102155946D01*
X170100708Y-102089670D02*
X170175595Y-102155940D01*
X172524405Y-102155946D02*
X172444646Y-102216264D01*
X170175595Y-102155940D02*
X170255354Y-102216258D01*
X172444646Y-102216264D02*
X172360487Y-102270273D01*
X170255354Y-102216258D02*
X170339513Y-102270267D01*
X172360487Y-102270273D02*
X172272426Y-102317653D01*
X170339513Y-102270267D02*
X170427574Y-102317647D01*
X172272426Y-102317653D02*
X172180984Y-102358124D01*
X170427574Y-102317647D02*
X170519016Y-102358118D01*
X172180984Y-102358124D02*
X172086702Y-102391446D01*
X170519016Y-102358118D02*
X170613298Y-102391440D01*
X172086702Y-102391446D02*
X171990138Y-102417422D01*
X170613298Y-102391440D02*
X170709862Y-102417416D01*
X171990138Y-102417422D02*
X171891863Y-102435899D01*
X170709862Y-102417416D02*
X170808137Y-102435893D01*
X171891863Y-102435899D02*
X171792458Y-102446767D01*
X170808137Y-102435893D02*
X170907542Y-102446761D01*
X171792458Y-102446767D02*
X171692512Y-102449962D01*
X170907542Y-102446761D02*
X171007488Y-102449956D01*
X171007488Y-102449956D02*
X171692512Y-102449962D01*
X167799998Y-109000000D02*
X173000000Y-109000000D01*
X164199998Y-105900000D02*
X163100000Y-105900000D01*
X167799998Y-105900000D02*
X169700000Y-105900000D01*
X167799998Y-105900000D02*
X167700294Y-105907687D01*
X167799998Y-109000000D02*
X167700294Y-108992313D01*
X167700294Y-105907687D02*
X167601476Y-105923015D01*
X167700294Y-108992313D02*
X167601476Y-108976985D01*
X167601476Y-105923015D02*
X167504129Y-105945893D01*
X167601476Y-108976985D02*
X167504129Y-108954107D01*
X167504129Y-105945893D02*
X167408829Y-105976186D01*
X167504129Y-108954107D02*
X167408829Y-108923814D01*
X167408829Y-105976186D02*
X167316139Y-106013715D01*
X167408829Y-108923814D02*
X167316139Y-108886285D01*
X167316139Y-106013715D02*
X167226608Y-106058258D01*
X167316139Y-108886285D02*
X167226608Y-108841742D01*
X167226608Y-106058258D02*
X167140766Y-106109551D01*
X167226608Y-108841742D02*
X167140766Y-108790449D01*
X167140766Y-106109551D02*
X167059121Y-106167291D01*
X167140766Y-108790449D02*
X167059121Y-108732709D01*
X167059121Y-106167291D02*
X166982156Y-106231136D01*
X167059121Y-108732709D02*
X166982156Y-108668864D01*
X166982156Y-106231136D02*
X166910326Y-106300708D01*
X166982156Y-108668864D02*
X166910326Y-108599292D01*
X166910326Y-106300708D02*
X166844056Y-106375595D01*
X166910326Y-108599292D02*
X166844056Y-108524405D01*
X166844056Y-106375595D02*
X166783738Y-106455354D01*
X166844056Y-108524405D02*
X166783738Y-108444646D01*
X166783738Y-106455354D02*
X166729729Y-106539513D01*
X166783738Y-108444646D02*
X166729729Y-108360487D01*
X166729729Y-106539513D02*
X166682349Y-106627574D01*
X166729729Y-108360487D02*
X166682349Y-108272426D01*
X166682349Y-106627574D02*
X166641878Y-106719016D01*
X166682349Y-108272426D02*
X166641878Y-108180984D01*
X166641878Y-106719016D02*
X166608556Y-106813298D01*
X166641878Y-108180984D02*
X166608556Y-108086702D01*
X166608556Y-106813298D02*
X166582580Y-106909862D01*
X166608556Y-108086702D02*
X166582580Y-107990138D01*
X166582580Y-106909862D02*
X166564103Y-107008137D01*
X166582580Y-107990138D02*
X166564103Y-107891863D01*
X166564103Y-107008137D02*
X166553235Y-107107542D01*
X166564103Y-107891863D02*
X166553235Y-107792458D01*
X166553235Y-107107542D02*
X166550040Y-107207488D01*
X166553235Y-107792458D02*
X166550040Y-107692512D01*
X166550040Y-107692512D02*
X166550040Y-107207488D01*
X164200002Y-109000000D02*
X164299706Y-108992313D01*
X164199998Y-105900000D02*
X164299702Y-105907687D01*
X164299706Y-108992313D02*
X164398524Y-108976985D01*
X164299702Y-105907687D02*
X164398520Y-105923015D01*
X164398524Y-108976985D02*
X164495871Y-108954107D01*
X164398520Y-105923015D02*
X164495867Y-105945893D01*
X164495871Y-108954107D02*
X164591171Y-108923814D01*
X164495867Y-105945893D02*
X164591167Y-105976186D01*
X164591171Y-108923814D02*
X164683861Y-108886285D01*
X164591167Y-105976186D02*
X164683857Y-106013715D01*
X164683861Y-108886285D02*
X164773392Y-108841742D01*
X164683857Y-106013715D02*
X164773388Y-106058258D01*
X164773392Y-108841742D02*
X164859234Y-108790449D01*
X164773388Y-106058258D02*
X164859230Y-106109551D01*
X164859234Y-108790449D02*
X164940879Y-108732709D01*
X164859230Y-106109551D02*
X164940875Y-106167291D01*
X164940879Y-108732709D02*
X165017844Y-108668864D01*
X164940875Y-106167291D02*
X165017840Y-106231136D01*
X165017844Y-108668864D02*
X165089674Y-108599292D01*
X165017840Y-106231136D02*
X165089670Y-106300708D01*
X165089674Y-108599292D02*
X165155944Y-108524405D01*
X165089670Y-106300708D02*
X165155940Y-106375595D01*
X165155944Y-108524405D02*
X165216262Y-108444646D01*
X165155940Y-106375595D02*
X165216258Y-106455354D01*
X165216262Y-108444646D02*
X165270271Y-108360487D01*
X165216258Y-106455354D02*
X165270267Y-106539513D01*
X165270271Y-108360487D02*
X165317651Y-108272426D01*
X165270267Y-106539513D02*
X165317647Y-106627574D01*
X165317651Y-108272426D02*
X165358122Y-108180984D01*
X165317647Y-106627574D02*
X165358118Y-106719016D01*
X165358122Y-108180984D02*
X165391444Y-108086702D01*
X165358118Y-106719016D02*
X165391440Y-106813298D01*
X165391444Y-108086702D02*
X165417420Y-107990138D01*
X165391440Y-106813298D02*
X165417416Y-106909862D01*
X165417420Y-107990138D02*
X165435897Y-107891863D01*
X165417416Y-106909862D02*
X165435893Y-107008137D01*
X165435897Y-107891863D02*
X165446765Y-107792458D01*
X165435893Y-107008137D02*
X165446761Y-107107542D01*
X165446765Y-107792458D02*
X165449960Y-107692512D01*
X165446761Y-107107542D02*
X165449956Y-107207488D01*
X165449960Y-107692512D02*
X165449956Y-107207488D01*
X156800005Y-109000000D02*
X164200002Y-109000000D01*
X153199998Y-105900000D02*
X152100000Y-105900000D01*
X156799998Y-105900000D02*
X158700000Y-105900000D01*
X156799998Y-105900000D02*
X156700294Y-105907687D01*
X156800005Y-109000000D02*
X156700301Y-108992313D01*
X156700294Y-105907687D02*
X156601476Y-105923015D01*
X156700301Y-108992313D02*
X156601483Y-108976985D01*
X156601476Y-105923015D02*
X156504129Y-105945893D01*
X156601483Y-108976985D02*
X156504136Y-108954107D01*
X156504129Y-105945893D02*
X156408829Y-105976186D01*
X156504136Y-108954107D02*
X156408836Y-108923814D01*
X156408829Y-105976186D02*
X156316139Y-106013715D01*
X156408836Y-108923814D02*
X156316146Y-108886285D01*
X156316139Y-106013715D02*
X156226608Y-106058258D01*
X156316146Y-108886285D02*
X156226615Y-108841742D01*
X156226608Y-106058258D02*
X156140766Y-106109551D01*
X156226615Y-108841742D02*
X156140773Y-108790449D01*
X156140766Y-106109551D02*
X156059121Y-106167291D01*
X156140773Y-108790449D02*
X156059128Y-108732709D01*
X156059121Y-106167291D02*
X155982156Y-106231136D01*
X156059128Y-108732709D02*
X155982163Y-108668864D01*
X155982156Y-106231136D02*
X155910326Y-106300708D01*
X155982163Y-108668864D02*
X155910333Y-108599292D01*
X155910326Y-106300708D02*
X155844056Y-106375595D01*
X155910333Y-108599292D02*
X155844063Y-108524405D01*
X155844056Y-106375595D02*
X155783738Y-106455354D01*
X155844063Y-108524405D02*
X155783745Y-108444646D01*
X155783738Y-106455354D02*
X155729729Y-106539513D01*
X155783745Y-108444646D02*
X155729736Y-108360487D01*
X155729729Y-106539513D02*
X155682349Y-106627574D01*
X155729736Y-108360487D02*
X155682356Y-108272426D01*
X155682349Y-106627574D02*
X155641878Y-106719016D01*
X155682356Y-108272426D02*
X155641885Y-108180984D01*
X155641878Y-106719016D02*
X155608556Y-106813298D01*
X155641885Y-108180984D02*
X155608563Y-108086702D01*
X155608556Y-106813298D02*
X155582580Y-106909862D01*
X155608563Y-108086702D02*
X155582587Y-107990138D01*
X155582580Y-106909862D02*
X155564103Y-107008137D01*
X155582587Y-107990138D02*
X155564110Y-107891863D01*
X155564103Y-107008137D02*
X155553235Y-107107542D01*
X155564110Y-107891863D02*
X155553242Y-107792458D01*
X155553235Y-107107542D02*
X155550040Y-107207488D01*
X155553242Y-107792458D02*
X155550047Y-107692512D01*
X155550047Y-107692512D02*
X155550040Y-107207488D01*
X153200014Y-109000000D02*
X153299718Y-108992313D01*
X153199998Y-105900000D02*
X153299702Y-105907687D01*
X153299718Y-108992313D02*
X153398536Y-108976985D01*
X153299702Y-105907687D02*
X153398520Y-105923015D01*
X153398536Y-108976985D02*
X153495883Y-108954107D01*
X153398520Y-105923015D02*
X153495867Y-105945893D01*
X153495883Y-108954107D02*
X153591183Y-108923814D01*
X153495867Y-105945893D02*
X153591167Y-105976186D01*
X153591183Y-108923814D02*
X153683873Y-108886285D01*
X153591167Y-105976186D02*
X153683857Y-106013715D01*
X153683873Y-108886285D02*
X153773404Y-108841742D01*
X153683857Y-106013715D02*
X153773388Y-106058258D01*
X153773404Y-108841742D02*
X153859246Y-108790449D01*
X153773388Y-106058258D02*
X153859230Y-106109551D01*
X153859246Y-108790449D02*
X153940891Y-108732709D01*
X153859230Y-106109551D02*
X153940875Y-106167291D01*
X153940891Y-108732709D02*
X154017856Y-108668864D01*
X153940875Y-106167291D02*
X154017840Y-106231136D01*
X154017856Y-108668864D02*
X154089686Y-108599292D01*
X154017840Y-106231136D02*
X154089670Y-106300708D01*
X154089686Y-108599292D02*
X154155956Y-108524405D01*
X154089670Y-106300708D02*
X154155940Y-106375595D01*
X154155956Y-108524405D02*
X154216274Y-108444646D01*
X154155940Y-106375595D02*
X154216258Y-106455354D01*
X154216274Y-108444646D02*
X154270283Y-108360487D01*
X154216258Y-106455354D02*
X154270267Y-106539513D01*
X154270283Y-108360487D02*
X154317663Y-108272426D01*
X154270267Y-106539513D02*
X154317647Y-106627574D01*
X154317663Y-108272426D02*
X154358134Y-108180984D01*
X154317647Y-106627574D02*
X154358118Y-106719016D01*
X154358134Y-108180984D02*
X154391456Y-108086702D01*
X154358118Y-106719016D02*
X154391440Y-106813298D01*
X154391456Y-108086702D02*
X154417432Y-107990138D01*
X154391440Y-106813298D02*
X154417416Y-106909862D01*
X154417432Y-107990138D02*
X154435909Y-107891863D01*
X154417416Y-106909862D02*
X154435893Y-107008137D01*
X154435909Y-107891863D02*
X154446777Y-107792458D01*
X154435893Y-107008137D02*
X154446761Y-107107542D01*
X154446777Y-107792458D02*
X154449972Y-107692512D01*
X154446761Y-107107542D02*
X154449956Y-107207488D01*
X154449972Y-107692512D02*
X154449956Y-107207488D01*
X145799993Y-109000000D02*
X153200014Y-109000000D01*
X142199998Y-105900000D02*
X141100000Y-105900000D01*
X145799998Y-105900000D02*
X147700000Y-105900000D01*
X145799993Y-109000000D02*
X145700289Y-108992313D01*
X145799998Y-105900000D02*
X145700294Y-105907687D01*
X145700289Y-108992313D02*
X145601471Y-108976985D01*
X145700294Y-105907687D02*
X145601476Y-105923015D01*
X145601471Y-108976985D02*
X145504124Y-108954107D01*
X145601476Y-105923015D02*
X145504129Y-105945893D01*
X145504124Y-108954107D02*
X145408824Y-108923814D01*
X145504129Y-105945893D02*
X145408829Y-105976186D01*
X145408824Y-108923814D02*
X145316134Y-108886285D01*
X145408829Y-105976186D02*
X145316139Y-106013715D01*
X145316134Y-108886285D02*
X145226603Y-108841742D01*
X145316139Y-106013715D02*
X145226608Y-106058258D01*
X145226603Y-108841742D02*
X145140761Y-108790449D01*
X145226608Y-106058258D02*
X145140766Y-106109551D01*
X145140761Y-108790449D02*
X145059116Y-108732709D01*
X145140766Y-106109551D02*
X145059121Y-106167291D01*
X145059116Y-108732709D02*
X144982151Y-108668864D01*
X145059121Y-106167291D02*
X144982156Y-106231136D01*
X144982151Y-108668864D02*
X144910321Y-108599292D01*
X144982156Y-106231136D02*
X144910326Y-106300708D01*
X144910321Y-108599292D02*
X144844051Y-108524405D01*
X144910326Y-106300708D02*
X144844056Y-106375595D01*
X144844051Y-108524405D02*
X144783733Y-108444646D01*
X144844056Y-106375595D02*
X144783738Y-106455354D01*
X144783733Y-108444646D02*
X144729724Y-108360487D01*
X144783738Y-106455354D02*
X144729729Y-106539513D01*
X144729724Y-108360487D02*
X144682344Y-108272426D01*
X144729729Y-106539513D02*
X144682349Y-106627574D01*
X144682344Y-108272426D02*
X144641873Y-108180984D01*
X144682349Y-106627574D02*
X144641878Y-106719016D01*
X144641873Y-108180984D02*
X144608551Y-108086702D01*
X144641878Y-106719016D02*
X144608556Y-106813298D01*
X144608551Y-108086702D02*
X144582575Y-107990138D01*
X144608556Y-106813298D02*
X144582580Y-106909862D01*
X144582575Y-107990138D02*
X144564098Y-107891863D01*
X144582580Y-106909862D02*
X144564103Y-107008137D01*
X144564098Y-107891863D02*
X144553230Y-107792458D01*
X144564103Y-107008137D02*
X144553235Y-107107542D01*
X144553230Y-107792458D02*
X144550035Y-107692512D01*
X144553235Y-107107542D02*
X144550040Y-107207488D01*
X144550035Y-107692512D02*
X144550040Y-107207488D01*
X142199998Y-105900000D02*
X142299702Y-105907687D01*
X142199986Y-109000000D02*
X142299690Y-108992313D01*
X142299702Y-105907687D02*
X142398520Y-105923015D01*
X142299690Y-108992313D02*
X142398508Y-108976985D01*
X142398520Y-105923015D02*
X142495867Y-105945893D01*
X142398508Y-108976985D02*
X142495855Y-108954107D01*
X142495867Y-105945893D02*
X142591167Y-105976186D01*
X142495855Y-108954107D02*
X142591155Y-108923814D01*
X142591167Y-105976186D02*
X142683857Y-106013715D01*
X142591155Y-108923814D02*
X142683845Y-108886285D01*
X142683857Y-106013715D02*
X142773388Y-106058258D01*
X142683845Y-108886285D02*
X142773376Y-108841742D01*
X142773388Y-106058258D02*
X142859230Y-106109551D01*
X142773376Y-108841742D02*
X142859218Y-108790449D01*
X142859230Y-106109551D02*
X142940875Y-106167291D01*
X142859218Y-108790449D02*
X142940863Y-108732709D01*
X142940875Y-106167291D02*
X143017840Y-106231136D01*
X142940863Y-108732709D02*
X143017828Y-108668864D01*
X143017840Y-106231136D02*
X143089670Y-106300708D01*
X143017828Y-108668864D02*
X143089658Y-108599292D01*
X143089670Y-106300708D02*
X143155940Y-106375595D01*
X143089658Y-108599292D02*
X143155928Y-108524405D01*
X143155940Y-106375595D02*
X143216258Y-106455354D01*
X143155928Y-108524405D02*
X143216246Y-108444646D01*
X143216258Y-106455354D02*
X143270267Y-106539513D01*
X143216246Y-108444646D02*
X143270255Y-108360487D01*
X143270267Y-106539513D02*
X143317647Y-106627574D01*
X143270255Y-108360487D02*
X143317635Y-108272426D01*
X143317647Y-106627574D02*
X143358118Y-106719016D01*
X143317635Y-108272426D02*
X143358106Y-108180984D01*
X143358118Y-106719016D02*
X143391440Y-106813298D01*
X143358106Y-108180984D02*
X143391428Y-108086702D01*
X143391440Y-106813298D02*
X143417416Y-106909862D01*
X143391428Y-108086702D02*
X143417404Y-107990138D01*
X143417416Y-106909862D02*
X143435893Y-107008137D01*
X143417404Y-107990138D02*
X143435881Y-107891863D01*
X143435893Y-107008137D02*
X143446761Y-107107542D01*
X143435881Y-107891863D02*
X143446749Y-107792458D01*
X143446761Y-107107542D02*
X143449956Y-107207488D01*
X143446749Y-107792458D02*
X143449944Y-107692512D01*
X143449944Y-107692512D02*
X143449956Y-107207488D01*
X134800004Y-109000000D02*
X142199986Y-109000000D01*
X131199996Y-109000000D02*
X127000000Y-109000000D01*
X131199998Y-105900000D02*
X130100000Y-105900000D01*
X134799998Y-105900000D02*
X136700000Y-105900000D01*
X134799998Y-105900000D02*
X134700294Y-105907687D01*
X134800004Y-109000000D02*
X134700300Y-108992313D01*
X134700294Y-105907687D02*
X134601476Y-105923015D01*
X134700300Y-108992313D02*
X134601482Y-108976985D01*
X134601476Y-105923015D02*
X134504129Y-105945893D01*
X134601482Y-108976985D02*
X134504135Y-108954107D01*
X134504129Y-105945893D02*
X134408829Y-105976186D01*
X134504135Y-108954107D02*
X134408835Y-108923814D01*
X134408829Y-105976186D02*
X134316139Y-106013715D01*
X134408835Y-108923814D02*
X134316145Y-108886285D01*
X134316139Y-106013715D02*
X134226608Y-106058258D01*
X134316145Y-108886285D02*
X134226614Y-108841742D01*
X134226608Y-106058258D02*
X134140766Y-106109551D01*
X134226614Y-108841742D02*
X134140772Y-108790449D01*
X134140766Y-106109551D02*
X134059121Y-106167291D01*
X134140772Y-108790449D02*
X134059127Y-108732709D01*
X134059121Y-106167291D02*
X133982156Y-106231136D01*
X134059127Y-108732709D02*
X133982162Y-108668864D01*
X133982156Y-106231136D02*
X133910326Y-106300708D01*
X133982162Y-108668864D02*
X133910332Y-108599292D01*
X133910326Y-106300708D02*
X133844056Y-106375595D01*
X133910332Y-108599292D02*
X133844062Y-108524405D01*
X133844056Y-106375595D02*
X133783738Y-106455354D01*
X133844062Y-108524405D02*
X133783744Y-108444646D01*
X133783738Y-106455354D02*
X133729729Y-106539513D01*
X133783744Y-108444646D02*
X133729735Y-108360487D01*
X133729729Y-106539513D02*
X133682349Y-106627574D01*
X133729735Y-108360487D02*
X133682355Y-108272426D01*
X133682349Y-106627574D02*
X133641878Y-106719016D01*
X133682355Y-108272426D02*
X133641884Y-108180984D01*
X133641878Y-106719016D02*
X133608556Y-106813298D01*
X133641884Y-108180984D02*
X133608562Y-108086702D01*
X133608556Y-106813298D02*
X133582580Y-106909862D01*
X133608562Y-108086702D02*
X133582586Y-107990138D01*
X133582580Y-106909862D02*
X133564103Y-107008137D01*
X133582586Y-107990138D02*
X133564109Y-107891863D01*
X133564103Y-107008137D02*
X133553235Y-107107542D01*
X133564109Y-107891863D02*
X133553241Y-107792458D01*
X133553235Y-107107542D02*
X133550040Y-107207488D01*
X133553241Y-107792458D02*
X133550046Y-107692512D01*
X133550046Y-107692512D02*
X133550040Y-107207488D01*
X131199998Y-105900000D02*
X131299702Y-105907687D01*
X131199996Y-109000000D02*
X131299700Y-108992313D01*
X131299702Y-105907687D02*
X131398520Y-105923015D01*
X131299700Y-108992313D02*
X131398518Y-108976985D01*
X131398520Y-105923015D02*
X131495867Y-105945893D01*
X131398518Y-108976985D02*
X131495865Y-108954107D01*
X131495867Y-105945893D02*
X131591167Y-105976186D01*
X131495865Y-108954107D02*
X131591165Y-108923814D01*
X131591167Y-105976186D02*
X131683857Y-106013715D01*
X131591165Y-108923814D02*
X131683855Y-108886285D01*
X131683857Y-106013715D02*
X131773388Y-106058258D01*
X131683855Y-108886285D02*
X131773386Y-108841742D01*
X131773388Y-106058258D02*
X131859230Y-106109551D01*
X131773386Y-108841742D02*
X131859228Y-108790449D01*
X131859230Y-106109551D02*
X131940875Y-106167291D01*
X131859228Y-108790449D02*
X131940873Y-108732709D01*
X131940875Y-106167291D02*
X132017840Y-106231136D01*
X131940873Y-108732709D02*
X132017838Y-108668864D01*
X132017840Y-106231136D02*
X132089670Y-106300708D01*
X132017838Y-108668864D02*
X132089668Y-108599292D01*
X132089670Y-106300708D02*
X132155940Y-106375595D01*
X132089668Y-108599292D02*
X132155938Y-108524405D01*
X132155940Y-106375595D02*
X132216258Y-106455354D01*
X132155938Y-108524405D02*
X132216256Y-108444646D01*
X132216258Y-106455354D02*
X132270267Y-106539513D01*
X132216256Y-108444646D02*
X132270265Y-108360487D01*
X132270267Y-106539513D02*
X132317647Y-106627574D01*
X132270265Y-108360487D02*
X132317645Y-108272426D01*
X132317647Y-106627574D02*
X132358118Y-106719016D01*
X132317645Y-108272426D02*
X132358116Y-108180984D01*
X132358118Y-106719016D02*
X132391440Y-106813298D01*
X132358116Y-108180984D02*
X132391438Y-108086702D01*
X132391440Y-106813298D02*
X132417416Y-106909862D01*
X132391438Y-108086702D02*
X132417414Y-107990138D01*
X132417416Y-106909862D02*
X132435893Y-107008137D01*
X132417414Y-107990138D02*
X132435891Y-107891863D01*
X132435893Y-107008137D02*
X132446761Y-107107542D01*
X132435891Y-107891863D02*
X132446759Y-107792458D01*
X132446761Y-107107542D02*
X132449956Y-107207488D01*
X132446759Y-107792458D02*
X132449954Y-107692512D01*
X132449954Y-107692512D02*
X132449956Y-107207488D01*
X127000000Y-104800004D02*
X127000000Y-109000000D01*
X130100000Y-101199998D02*
X130100000Y-100100000D01*
X130100000Y-104800002D02*
X130100000Y-105900000D01*
X130100000Y-104800002D02*
X130092313Y-104700298D01*
X127000000Y-104800004D02*
X127007687Y-104700300D01*
X130092313Y-104700298D02*
X130076985Y-104601480D01*
X127007687Y-104700300D02*
X127023015Y-104601482D01*
X130076985Y-104601480D02*
X130054107Y-104504133D01*
X127023015Y-104601482D02*
X127045893Y-104504135D01*
X130054107Y-104504133D02*
X130023814Y-104408833D01*
X127045893Y-104504135D02*
X127076186Y-104408835D01*
X130023814Y-104408833D02*
X129986285Y-104316143D01*
X127076186Y-104408835D02*
X127113715Y-104316145D01*
X129986285Y-104316143D02*
X129941742Y-104226612D01*
X127113715Y-104316145D02*
X127158258Y-104226614D01*
X129941742Y-104226612D02*
X129890449Y-104140770D01*
X127158258Y-104226614D02*
X127209551Y-104140772D01*
X129890449Y-104140770D02*
X129832709Y-104059125D01*
X127209551Y-104140772D02*
X127267291Y-104059127D01*
X129832709Y-104059125D02*
X129768864Y-103982160D01*
X127267291Y-104059127D02*
X127331136Y-103982162D01*
X129768864Y-103982160D02*
X129699292Y-103910330D01*
X127331136Y-103982162D02*
X127400708Y-103910332D01*
X129699292Y-103910330D02*
X129624405Y-103844060D01*
X127400708Y-103910332D02*
X127475595Y-103844062D01*
X129624405Y-103844060D02*
X129544646Y-103783742D01*
X127475595Y-103844062D02*
X127555354Y-103783744D01*
X129544646Y-103783742D02*
X129460487Y-103729733D01*
X127555354Y-103783744D02*
X127639513Y-103729735D01*
X129460487Y-103729733D02*
X129372426Y-103682353D01*
X127639513Y-103729735D02*
X127727574Y-103682355D01*
X129372426Y-103682353D02*
X129280984Y-103641882D01*
X127727574Y-103682355D02*
X127819016Y-103641884D01*
X129280984Y-103641882D02*
X129186702Y-103608560D01*
X127819016Y-103641884D02*
X127913298Y-103608562D01*
X129186702Y-103608560D02*
X129090138Y-103582584D01*
X127913298Y-103608562D02*
X128009862Y-103582586D01*
X129090138Y-103582584D02*
X128991863Y-103564107D01*
X128009862Y-103582586D02*
X128108137Y-103564109D01*
X128991863Y-103564107D02*
X128892458Y-103553239D01*
X128108137Y-103564109D02*
X128207542Y-103553241D01*
X128892458Y-103553239D02*
X128792512Y-103550044D01*
X128207542Y-103553241D02*
X128307488Y-103550046D01*
X128307488Y-103550046D02*
X128792512Y-103550044D01*
X127000000Y-101200000D02*
X127007687Y-101299704D01*
X130100000Y-101199998D02*
X130092313Y-101299702D01*
X127007687Y-101299704D02*
X127023015Y-101398522D01*
X130092313Y-101299702D02*
X130076985Y-101398520D01*
X127023015Y-101398522D02*
X127045893Y-101495869D01*
X130076985Y-101398520D02*
X130054107Y-101495867D01*
X127045893Y-101495869D02*
X127076186Y-101591169D01*
X130054107Y-101495867D02*
X130023814Y-101591167D01*
X127076186Y-101591169D02*
X127113715Y-101683859D01*
X130023814Y-101591167D02*
X129986285Y-101683857D01*
X127113715Y-101683859D02*
X127158258Y-101773390D01*
X129986285Y-101683857D02*
X129941742Y-101773388D01*
X127158258Y-101773390D02*
X127209551Y-101859232D01*
X129941742Y-101773388D02*
X129890449Y-101859230D01*
X127209551Y-101859232D02*
X127267291Y-101940877D01*
X129890449Y-101859230D02*
X129832709Y-101940875D01*
X127267291Y-101940877D02*
X127331136Y-102017842D01*
X129832709Y-101940875D02*
X129768864Y-102017840D01*
X127331136Y-102017842D02*
X127400708Y-102089672D01*
X129768864Y-102017840D02*
X129699292Y-102089670D01*
X127400708Y-102089672D02*
X127475595Y-102155942D01*
X129699292Y-102089670D02*
X129624405Y-102155940D01*
X127475595Y-102155942D02*
X127555354Y-102216260D01*
X129624405Y-102155940D02*
X129544646Y-102216258D01*
X127555354Y-102216260D02*
X127639513Y-102270269D01*
X129544646Y-102216258D02*
X129460487Y-102270267D01*
X127639513Y-102270269D02*
X127727574Y-102317649D01*
X129460487Y-102270267D02*
X129372426Y-102317647D01*
X127727574Y-102317649D02*
X127819016Y-102358120D01*
X129372426Y-102317647D02*
X129280984Y-102358118D01*
X127819016Y-102358120D02*
X127913298Y-102391442D01*
X129280984Y-102358118D02*
X129186702Y-102391440D01*
X127913298Y-102391442D02*
X128009862Y-102417418D01*
X129186702Y-102391440D02*
X129090138Y-102417416D01*
X128009862Y-102417418D02*
X128108137Y-102435895D01*
X129090138Y-102417416D02*
X128991863Y-102435893D01*
X128108137Y-102435895D02*
X128207542Y-102446763D01*
X128991863Y-102435893D02*
X128892458Y-102446761D01*
X128207542Y-102446763D02*
X128307488Y-102449958D01*
X128892458Y-102446761D02*
X128792512Y-102449956D01*
X128307488Y-102449958D02*
X128792512Y-102449956D01*
X127000000Y-94799996D02*
X127000000Y-101200000D01*
X130100000Y-91199998D02*
X130100000Y-90100000D01*
X130100000Y-94800002D02*
X130100000Y-95900000D01*
X127000000Y-94799996D02*
X127007687Y-94700292D01*
X130100000Y-94800002D02*
X130092313Y-94700298D01*
X127007687Y-94700292D02*
X127023015Y-94601474D01*
X130092313Y-94700298D02*
X130076985Y-94601480D01*
X127023015Y-94601474D02*
X127045893Y-94504127D01*
X130076985Y-94601480D02*
X130054107Y-94504133D01*
X127045893Y-94504127D02*
X127076186Y-94408827D01*
X130054107Y-94504133D02*
X130023814Y-94408833D01*
X127076186Y-94408827D02*
X127113715Y-94316137D01*
X130023814Y-94408833D02*
X129986285Y-94316143D01*
X127113715Y-94316137D02*
X127158258Y-94226606D01*
X129986285Y-94316143D02*
X129941742Y-94226612D01*
X127158258Y-94226606D02*
X127209551Y-94140764D01*
X129941742Y-94226612D02*
X129890449Y-94140770D01*
X127209551Y-94140764D02*
X127267291Y-94059119D01*
X129890449Y-94140770D02*
X129832709Y-94059125D01*
X127267291Y-94059119D02*
X127331136Y-93982154D01*
X129832709Y-94059125D02*
X129768864Y-93982160D01*
X127331136Y-93982154D02*
X127400708Y-93910324D01*
X129768864Y-93982160D02*
X129699292Y-93910330D01*
X127400708Y-93910324D02*
X127475595Y-93844054D01*
X129699292Y-93910330D02*
X129624405Y-93844060D01*
X127475595Y-93844054D02*
X127555354Y-93783736D01*
X129624405Y-93844060D02*
X129544646Y-93783742D01*
X127555354Y-93783736D02*
X127639513Y-93729727D01*
X129544646Y-93783742D02*
X129460487Y-93729733D01*
X127639513Y-93729727D02*
X127727574Y-93682347D01*
X129460487Y-93729733D02*
X129372426Y-93682353D01*
X127727574Y-93682347D02*
X127819016Y-93641876D01*
X129372426Y-93682353D02*
X129280984Y-93641882D01*
X127819016Y-93641876D02*
X127913298Y-93608554D01*
X129280984Y-93641882D02*
X129186702Y-93608560D01*
X127913298Y-93608554D02*
X128009862Y-93582578D01*
X129186702Y-93608560D02*
X129090138Y-93582584D01*
X128009862Y-93582578D02*
X128108137Y-93564101D01*
X129090138Y-93582584D02*
X128991863Y-93564107D01*
X128108137Y-93564101D02*
X128207542Y-93553233D01*
X128991863Y-93564107D02*
X128892458Y-93553239D01*
X128207542Y-93553233D02*
X128307488Y-93550038D01*
X128892458Y-93553239D02*
X128792512Y-93550044D01*
X128307488Y-93550038D02*
X128792512Y-93550044D01*
X127000000Y-91200004D02*
X127007687Y-91299708D01*
X130100000Y-91199998D02*
X130092313Y-91299702D01*
X127007687Y-91299708D02*
X127023015Y-91398526D01*
X130092313Y-91299702D02*
X130076985Y-91398520D01*
X127023015Y-91398526D02*
X127045893Y-91495873D01*
X130076985Y-91398520D02*
X130054107Y-91495867D01*
X127045893Y-91495873D02*
X127076186Y-91591173D01*
X130054107Y-91495867D02*
X130023814Y-91591167D01*
X127076186Y-91591173D02*
X127113715Y-91683863D01*
X130023814Y-91591167D02*
X129986285Y-91683857D01*
X127113715Y-91683863D02*
X127158258Y-91773394D01*
X129986285Y-91683857D02*
X129941742Y-91773388D01*
X127158258Y-91773394D02*
X127209551Y-91859236D01*
X129941742Y-91773388D02*
X129890449Y-91859230D01*
X127209551Y-91859236D02*
X127267291Y-91940881D01*
X129890449Y-91859230D02*
X129832709Y-91940875D01*
X127267291Y-91940881D02*
X127331136Y-92017846D01*
X129832709Y-91940875D02*
X129768864Y-92017840D01*
X127331136Y-92017846D02*
X127400708Y-92089676D01*
X129768864Y-92017840D02*
X129699292Y-92089670D01*
X127400708Y-92089676D02*
X127475595Y-92155946D01*
X129699292Y-92089670D02*
X129624405Y-92155940D01*
X127475595Y-92155946D02*
X127555354Y-92216264D01*
X129624405Y-92155940D02*
X129544646Y-92216258D01*
X127555354Y-92216264D02*
X127639513Y-92270273D01*
X129544646Y-92216258D02*
X129460487Y-92270267D01*
X127639513Y-92270273D02*
X127727574Y-92317653D01*
X129460487Y-92270267D02*
X129372426Y-92317647D01*
X127727574Y-92317653D02*
X127819016Y-92358124D01*
X129372426Y-92317647D02*
X129280984Y-92358118D01*
X127819016Y-92358124D02*
X127913298Y-92391446D01*
X129280984Y-92358118D02*
X129186702Y-92391440D01*
X127913298Y-92391446D02*
X128009862Y-92417422D01*
X129186702Y-92391440D02*
X129090138Y-92417416D01*
X128009862Y-92417422D02*
X128108137Y-92435899D01*
X129090138Y-92417416D02*
X128991863Y-92435893D01*
X128108137Y-92435899D02*
X128207542Y-92446767D01*
X128991863Y-92435893D02*
X128892458Y-92446761D01*
X128207542Y-92446767D02*
X128307488Y-92449962D01*
X128892458Y-92446761D02*
X128792512Y-92449956D01*
X128307488Y-92449962D02*
X128792512Y-92449956D01*
X127000000Y-84799998D02*
X127000000Y-91200004D01*
X127000000Y-81200007D02*
X127000000Y-74800014D01*
X130100000Y-81199998D02*
X130100000Y-80100000D01*
X130100000Y-84800002D02*
X130100000Y-85900000D01*
X127000000Y-84799998D02*
X127007687Y-84700294D01*
X130100000Y-84800002D02*
X130092313Y-84700298D01*
X127007687Y-84700294D02*
X127023015Y-84601476D01*
X130092313Y-84700298D02*
X130076985Y-84601480D01*
X127023015Y-84601476D02*
X127045893Y-84504129D01*
X130076985Y-84601480D02*
X130054107Y-84504133D01*
X127045893Y-84504129D02*
X127076186Y-84408829D01*
X130054107Y-84504133D02*
X130023814Y-84408833D01*
X127076186Y-84408829D02*
X127113715Y-84316139D01*
X130023814Y-84408833D02*
X129986285Y-84316143D01*
X127113715Y-84316139D02*
X127158258Y-84226608D01*
X129986285Y-84316143D02*
X129941742Y-84226612D01*
X127158258Y-84226608D02*
X127209551Y-84140766D01*
X129941742Y-84226612D02*
X129890449Y-84140770D01*
X127209551Y-84140766D02*
X127267291Y-84059121D01*
X129890449Y-84140770D02*
X129832709Y-84059125D01*
X127267291Y-84059121D02*
X127331136Y-83982156D01*
X129832709Y-84059125D02*
X129768864Y-83982160D01*
X127331136Y-83982156D02*
X127400708Y-83910326D01*
X129768864Y-83982160D02*
X129699292Y-83910330D01*
X127400708Y-83910326D02*
X127475595Y-83844056D01*
X129699292Y-83910330D02*
X129624405Y-83844060D01*
X127475595Y-83844056D02*
X127555354Y-83783738D01*
X129624405Y-83844060D02*
X129544646Y-83783742D01*
X127555354Y-83783738D02*
X127639513Y-83729729D01*
X129544646Y-83783742D02*
X129460487Y-83729733D01*
X127639513Y-83729729D02*
X127727574Y-83682349D01*
X129460487Y-83729733D02*
X129372426Y-83682353D01*
X127727574Y-83682349D02*
X127819016Y-83641878D01*
X129372426Y-83682353D02*
X129280984Y-83641882D01*
X127819016Y-83641878D02*
X127913298Y-83608556D01*
X129280984Y-83641882D02*
X129186702Y-83608560D01*
X127913298Y-83608556D02*
X128009862Y-83582580D01*
X129186702Y-83608560D02*
X129090138Y-83582584D01*
X128009862Y-83582580D02*
X128108137Y-83564103D01*
X129090138Y-83582584D02*
X128991863Y-83564107D01*
X128108137Y-83564103D02*
X128207542Y-83553235D01*
X128991863Y-83564107D02*
X128892458Y-83553239D01*
X128207542Y-83553235D02*
X128307488Y-83550040D01*
X128892458Y-83553239D02*
X128792512Y-83550044D01*
X128307488Y-83550040D02*
X128792512Y-83550044D01*
X127000000Y-81200007D02*
X127007687Y-81299711D01*
X130100000Y-81199998D02*
X130092313Y-81299702D01*
X127007687Y-81299711D02*
X127023015Y-81398529D01*
X130092313Y-81299702D02*
X130076985Y-81398520D01*
X127023015Y-81398529D02*
X127045893Y-81495876D01*
X130076985Y-81398520D02*
X130054107Y-81495867D01*
X127045893Y-81495876D02*
X127076186Y-81591176D01*
X130054107Y-81495867D02*
X130023814Y-81591167D01*
X127076186Y-81591176D02*
X127113715Y-81683866D01*
X130023814Y-81591167D02*
X129986285Y-81683857D01*
X127113715Y-81683866D02*
X127158258Y-81773397D01*
X129986285Y-81683857D02*
X129941742Y-81773388D01*
X127158258Y-81773397D02*
X127209551Y-81859239D01*
X129941742Y-81773388D02*
X129890449Y-81859230D01*
X127209551Y-81859239D02*
X127267291Y-81940884D01*
X129890449Y-81859230D02*
X129832709Y-81940875D01*
X127267291Y-81940884D02*
X127331136Y-82017849D01*
X129832709Y-81940875D02*
X129768864Y-82017840D01*
X127331136Y-82017849D02*
X127400708Y-82089679D01*
X129768864Y-82017840D02*
X129699292Y-82089670D01*
X127400708Y-82089679D02*
X127475595Y-82155949D01*
X129699292Y-82089670D02*
X129624405Y-82155940D01*
X127475595Y-82155949D02*
X127555354Y-82216267D01*
X129624405Y-82155940D02*
X129544646Y-82216258D01*
X127555354Y-82216267D02*
X127639513Y-82270276D01*
X129544646Y-82216258D02*
X129460487Y-82270267D01*
X127639513Y-82270276D02*
X127727574Y-82317656D01*
X129460487Y-82270267D02*
X129372426Y-82317647D01*
X127727574Y-82317656D02*
X127819016Y-82358127D01*
X129372426Y-82317647D02*
X129280984Y-82358118D01*
X127819016Y-82358127D02*
X127913298Y-82391449D01*
X129280984Y-82358118D02*
X129186702Y-82391440D01*
X127913298Y-82391449D02*
X128009862Y-82417425D01*
X129186702Y-82391440D02*
X129090138Y-82417416D01*
X128009862Y-82417425D02*
X128108137Y-82435902D01*
X129090138Y-82417416D02*
X128991863Y-82435893D01*
X128108137Y-82435902D02*
X128207542Y-82446770D01*
X128991863Y-82435893D02*
X128892458Y-82446761D01*
X128207542Y-82446770D02*
X128307488Y-82449965D01*
X128892458Y-82446761D02*
X128792512Y-82449956D01*
X128307488Y-82449965D02*
X128792512Y-82449956D01*
X134799998Y-70100000D02*
X136700000Y-70100000D01*
X131199998Y-70100000D02*
X130100000Y-70100000D01*
X131199996Y-67000000D02*
X127000000Y-67000000D01*
X134799998Y-70100000D02*
X134700294Y-70092313D01*
X134800000Y-67000000D02*
X134700296Y-67007687D01*
X134700294Y-70092313D02*
X134601476Y-70076985D01*
X134700296Y-67007687D02*
X134601478Y-67023015D01*
X134601476Y-70076985D02*
X134504129Y-70054107D01*
X134601478Y-67023015D02*
X134504131Y-67045893D01*
X134504129Y-70054107D02*
X134408829Y-70023814D01*
X134504131Y-67045893D02*
X134408831Y-67076186D01*
X134408829Y-70023814D02*
X134316139Y-69986285D01*
X134408831Y-67076186D02*
X134316141Y-67113715D01*
X134316139Y-69986285D02*
X134226608Y-69941742D01*
X134316141Y-67113715D02*
X134226610Y-67158258D01*
X134226608Y-69941742D02*
X134140766Y-69890449D01*
X134226610Y-67158258D02*
X134140768Y-67209551D01*
X134140766Y-69890449D02*
X134059121Y-69832709D01*
X134140768Y-67209551D02*
X134059123Y-67267291D01*
X134059121Y-69832709D02*
X133982156Y-69768864D01*
X134059123Y-67267291D02*
X133982158Y-67331136D01*
X133982156Y-69768864D02*
X133910326Y-69699292D01*
X133982158Y-67331136D02*
X133910328Y-67400708D01*
X133910326Y-69699292D02*
X133844056Y-69624405D01*
X133910328Y-67400708D02*
X133844058Y-67475595D01*
X133844056Y-69624405D02*
X133783738Y-69544646D01*
X133844058Y-67475595D02*
X133783740Y-67555354D01*
X133783738Y-69544646D02*
X133729729Y-69460487D01*
X133783740Y-67555354D02*
X133729731Y-67639513D01*
X133729729Y-69460487D02*
X133682349Y-69372426D01*
X133729731Y-67639513D02*
X133682351Y-67727574D01*
X133682349Y-69372426D02*
X133641878Y-69280984D01*
X133682351Y-67727574D02*
X133641880Y-67819016D01*
X133641878Y-69280984D02*
X133608556Y-69186702D01*
X133641880Y-67819016D02*
X133608558Y-67913298D01*
X133608556Y-69186702D02*
X133582580Y-69090138D01*
X133608558Y-67913298D02*
X133582582Y-68009862D01*
X133582580Y-69090138D02*
X133564103Y-68991863D01*
X133582582Y-68009862D02*
X133564105Y-68108137D01*
X133564103Y-68991863D02*
X133553235Y-68892458D01*
X133564105Y-68108137D02*
X133553237Y-68207542D01*
X133553235Y-68892458D02*
X133550040Y-68792512D01*
X133553237Y-68207542D02*
X133550042Y-68307488D01*
X133550040Y-68792512D02*
X133550042Y-68307488D01*
X131199998Y-70100000D02*
X131299702Y-70092313D01*
X131199996Y-67000000D02*
X131299700Y-67007687D01*
X131299702Y-70092313D02*
X131398520Y-70076985D01*
X131299700Y-67007687D02*
X131398518Y-67023015D01*
X131398520Y-70076985D02*
X131495867Y-70054107D01*
X131398518Y-67023015D02*
X131495865Y-67045893D01*
X131495867Y-70054107D02*
X131591167Y-70023814D01*
X131495865Y-67045893D02*
X131591165Y-67076186D01*
X131591167Y-70023814D02*
X131683857Y-69986285D01*
X131591165Y-67076186D02*
X131683855Y-67113715D01*
X131683857Y-69986285D02*
X131773388Y-69941742D01*
X131683855Y-67113715D02*
X131773386Y-67158258D01*
X131773388Y-69941742D02*
X131859230Y-69890449D01*
X131773386Y-67158258D02*
X131859228Y-67209551D01*
X131859230Y-69890449D02*
X131940875Y-69832709D01*
X131859228Y-67209551D02*
X131940873Y-67267291D01*
X131940875Y-69832709D02*
X132017840Y-69768864D01*
X131940873Y-67267291D02*
X132017838Y-67331136D01*
X132017840Y-69768864D02*
X132089670Y-69699292D01*
X132017838Y-67331136D02*
X132089668Y-67400708D01*
X132089670Y-69699292D02*
X132155940Y-69624405D01*
X132089668Y-67400708D02*
X132155938Y-67475595D01*
X132155940Y-69624405D02*
X132216258Y-69544646D01*
X132155938Y-67475595D02*
X132216256Y-67555354D01*
X132216258Y-69544646D02*
X132270267Y-69460487D01*
X132216256Y-67555354D02*
X132270265Y-67639513D01*
X132270267Y-69460487D02*
X132317647Y-69372426D01*
X132270265Y-67639513D02*
X132317645Y-67727574D01*
X132317647Y-69372426D02*
X132358118Y-69280984D01*
X132317645Y-67727574D02*
X132358116Y-67819016D01*
X132358118Y-69280984D02*
X132391440Y-69186702D01*
X132358116Y-67819016D02*
X132391438Y-67913298D01*
X132391440Y-69186702D02*
X132417416Y-69090138D01*
X132391438Y-67913298D02*
X132417414Y-68009862D01*
X132417416Y-69090138D02*
X132435893Y-68991863D01*
X132417414Y-68009862D02*
X132435891Y-68108137D01*
X132435893Y-68991863D02*
X132446761Y-68892458D01*
X132435891Y-68108137D02*
X132446759Y-68207542D01*
X132446761Y-68892458D02*
X132449956Y-68792512D01*
X132446759Y-68207542D02*
X132449954Y-68307488D01*
X132449956Y-68792512D02*
X132449954Y-68307488D01*
X145799998Y-70100000D02*
X147700000Y-70100000D01*
X142199998Y-70100000D02*
X141100000Y-70100000D01*
X142199995Y-67000000D02*
X134800000Y-67000000D01*
X145799998Y-70100000D02*
X145700294Y-70092313D01*
X145800013Y-67000000D02*
X145700309Y-67007687D01*
X145700294Y-70092313D02*
X145601476Y-70076985D01*
X145700309Y-67007687D02*
X145601491Y-67023015D01*
X145601476Y-70076985D02*
X145504129Y-70054107D01*
X145601491Y-67023015D02*
X145504144Y-67045893D01*
X145504129Y-70054107D02*
X145408829Y-70023814D01*
X145504144Y-67045893D02*
X145408844Y-67076186D01*
X145408829Y-70023814D02*
X145316139Y-69986285D01*
X145408844Y-67076186D02*
X145316154Y-67113715D01*
X145316139Y-69986285D02*
X145226608Y-69941742D01*
X145316154Y-67113715D02*
X145226623Y-67158258D01*
X145226608Y-69941742D02*
X145140766Y-69890449D01*
X145226623Y-67158258D02*
X145140781Y-67209551D01*
X145140766Y-69890449D02*
X145059121Y-69832709D01*
X145140781Y-67209551D02*
X145059136Y-67267291D01*
X145059121Y-69832709D02*
X144982156Y-69768864D01*
X145059136Y-67267291D02*
X144982171Y-67331136D01*
X144982156Y-69768864D02*
X144910326Y-69699292D01*
X144982171Y-67331136D02*
X144910341Y-67400708D01*
X144910326Y-69699292D02*
X144844056Y-69624405D01*
X144910341Y-67400708D02*
X144844071Y-67475595D01*
X144844056Y-69624405D02*
X144783738Y-69544646D01*
X144844071Y-67475595D02*
X144783753Y-67555354D01*
X144783738Y-69544646D02*
X144729729Y-69460487D01*
X144783753Y-67555354D02*
X144729744Y-67639513D01*
X144729729Y-69460487D02*
X144682349Y-69372426D01*
X144729744Y-67639513D02*
X144682364Y-67727574D01*
X144682349Y-69372426D02*
X144641878Y-69280984D01*
X144682364Y-67727574D02*
X144641893Y-67819016D01*
X144641878Y-69280984D02*
X144608556Y-69186702D01*
X144641893Y-67819016D02*
X144608571Y-67913298D01*
X144608556Y-69186702D02*
X144582580Y-69090138D01*
X144608571Y-67913298D02*
X144582595Y-68009862D01*
X144582580Y-69090138D02*
X144564103Y-68991863D01*
X144582595Y-68009862D02*
X144564118Y-68108137D01*
X144564103Y-68991863D02*
X144553235Y-68892458D01*
X144564118Y-68108137D02*
X144553250Y-68207542D01*
X144553235Y-68892458D02*
X144550040Y-68792512D01*
X144553250Y-68207542D02*
X144550055Y-68307488D01*
X144550040Y-68792512D02*
X144550055Y-68307488D01*
X142199998Y-70100000D02*
X142299702Y-70092313D01*
X142199995Y-67000000D02*
X142299699Y-67007687D01*
X142299702Y-70092313D02*
X142398520Y-70076985D01*
X142299699Y-67007687D02*
X142398517Y-67023015D01*
X142398520Y-70076985D02*
X142495867Y-70054107D01*
X142398517Y-67023015D02*
X142495864Y-67045893D01*
X142495867Y-70054107D02*
X142591167Y-70023814D01*
X142495864Y-67045893D02*
X142591164Y-67076186D01*
X142591167Y-70023814D02*
X142683857Y-69986285D01*
X142591164Y-67076186D02*
X142683854Y-67113715D01*
X142683857Y-69986285D02*
X142773388Y-69941742D01*
X142683854Y-67113715D02*
X142773385Y-67158258D01*
X142773388Y-69941742D02*
X142859230Y-69890449D01*
X142773385Y-67158258D02*
X142859227Y-67209551D01*
X142859230Y-69890449D02*
X142940875Y-69832709D01*
X142859227Y-67209551D02*
X142940872Y-67267291D01*
X142940875Y-69832709D02*
X143017840Y-69768864D01*
X142940872Y-67267291D02*
X143017837Y-67331136D01*
X143017840Y-69768864D02*
X143089670Y-69699292D01*
X143017837Y-67331136D02*
X143089667Y-67400708D01*
X143089670Y-69699292D02*
X143155940Y-69624405D01*
X143089667Y-67400708D02*
X143155937Y-67475595D01*
X143155940Y-69624405D02*
X143216258Y-69544646D01*
X143155937Y-67475595D02*
X143216255Y-67555354D01*
X143216258Y-69544646D02*
X143270267Y-69460487D01*
X143216255Y-67555354D02*
X143270264Y-67639513D01*
X143270267Y-69460487D02*
X143317647Y-69372426D01*
X143270264Y-67639513D02*
X143317644Y-67727574D01*
X143317647Y-69372426D02*
X143358118Y-69280984D01*
X143317644Y-67727574D02*
X143358115Y-67819016D01*
X143358118Y-69280984D02*
X143391440Y-69186702D01*
X143358115Y-67819016D02*
X143391437Y-67913298D01*
X143391440Y-69186702D02*
X143417416Y-69090138D01*
X143391437Y-67913298D02*
X143417413Y-68009862D01*
X143417416Y-69090138D02*
X143435893Y-68991863D01*
X143417413Y-68009862D02*
X143435890Y-68108137D01*
X143435893Y-68991863D02*
X143446761Y-68892458D01*
X143435890Y-68108137D02*
X143446758Y-68207542D01*
X143446761Y-68892458D02*
X143449956Y-68792512D01*
X143446758Y-68207542D02*
X143449953Y-68307488D01*
X143449956Y-68792512D02*
X143449953Y-68307488D01*
X156799998Y-70100000D02*
X158700000Y-70100000D01*
X153199998Y-70100000D02*
X152100000Y-70100000D01*
X153199996Y-67000000D02*
X145800013Y-67000000D01*
X156799998Y-70100000D02*
X156700294Y-70092313D01*
X156800014Y-67000000D02*
X156700310Y-67007687D01*
X156700294Y-70092313D02*
X156601476Y-70076985D01*
X156700310Y-67007687D02*
X156601492Y-67023015D01*
X156601476Y-70076985D02*
X156504129Y-70054107D01*
X156601492Y-67023015D02*
X156504145Y-67045893D01*
X156504129Y-70054107D02*
X156408829Y-70023814D01*
X156504145Y-67045893D02*
X156408845Y-67076186D01*
X156408829Y-70023814D02*
X156316139Y-69986285D01*
X156408845Y-67076186D02*
X156316155Y-67113715D01*
X156316139Y-69986285D02*
X156226608Y-69941742D01*
X156316155Y-67113715D02*
X156226624Y-67158258D01*
X156226608Y-69941742D02*
X156140766Y-69890449D01*
X156226624Y-67158258D02*
X156140782Y-67209551D01*
X156140766Y-69890449D02*
X156059121Y-69832709D01*
X156140782Y-67209551D02*
X156059137Y-67267291D01*
X156059121Y-69832709D02*
X155982156Y-69768864D01*
X156059137Y-67267291D02*
X155982172Y-67331136D01*
X155982156Y-69768864D02*
X155910326Y-69699292D01*
X155982172Y-67331136D02*
X155910342Y-67400708D01*
X155910326Y-69699292D02*
X155844056Y-69624405D01*
X155910342Y-67400708D02*
X155844072Y-67475595D01*
X155844056Y-69624405D02*
X155783738Y-69544646D01*
X155844072Y-67475595D02*
X155783754Y-67555354D01*
X155783738Y-69544646D02*
X155729729Y-69460487D01*
X155783754Y-67555354D02*
X155729745Y-67639513D01*
X155729729Y-69460487D02*
X155682349Y-69372426D01*
X155729745Y-67639513D02*
X155682365Y-67727574D01*
X155682349Y-69372426D02*
X155641878Y-69280984D01*
X155682365Y-67727574D02*
X155641894Y-67819016D01*
X155641878Y-69280984D02*
X155608556Y-69186702D01*
X155641894Y-67819016D02*
X155608572Y-67913298D01*
X155608556Y-69186702D02*
X155582580Y-69090138D01*
X155608572Y-67913298D02*
X155582596Y-68009862D01*
X155582580Y-69090138D02*
X155564103Y-68991863D01*
X155582596Y-68009862D02*
X155564119Y-68108137D01*
X155564103Y-68991863D02*
X155553235Y-68892458D01*
X155564119Y-68108137D02*
X155553251Y-68207542D01*
X155553235Y-68892458D02*
X155550040Y-68792512D01*
X155553251Y-68207542D02*
X155550056Y-68307488D01*
X155550040Y-68792512D02*
X155550056Y-68307488D01*
X153199998Y-70100000D02*
X153299702Y-70092313D01*
X153199996Y-67000000D02*
X153299700Y-67007687D01*
X153299702Y-70092313D02*
X153398520Y-70076985D01*
X153299700Y-67007687D02*
X153398518Y-67023015D01*
X153398520Y-70076985D02*
X153495867Y-70054107D01*
X153398518Y-67023015D02*
X153495865Y-67045893D01*
X153495867Y-70054107D02*
X153591167Y-70023814D01*
X153495865Y-67045893D02*
X153591165Y-67076186D01*
X153591167Y-70023814D02*
X153683857Y-69986285D01*
X153591165Y-67076186D02*
X153683855Y-67113715D01*
X153683857Y-69986285D02*
X153773388Y-69941742D01*
X153683855Y-67113715D02*
X153773386Y-67158258D01*
X153773388Y-69941742D02*
X153859230Y-69890449D01*
X153773386Y-67158258D02*
X153859228Y-67209551D01*
X153859230Y-69890449D02*
X153940875Y-69832709D01*
X153859228Y-67209551D02*
X153940873Y-67267291D01*
X153940875Y-69832709D02*
X154017840Y-69768864D01*
X153940873Y-67267291D02*
X154017838Y-67331136D01*
X154017840Y-69768864D02*
X154089670Y-69699292D01*
X154017838Y-67331136D02*
X154089668Y-67400708D01*
X154089670Y-69699292D02*
X154155940Y-69624405D01*
X154089668Y-67400708D02*
X154155938Y-67475595D01*
X154155940Y-69624405D02*
X154216258Y-69544646D01*
X154155938Y-67475595D02*
X154216256Y-67555354D01*
X154216258Y-69544646D02*
X154270267Y-69460487D01*
X154216256Y-67555354D02*
X154270265Y-67639513D01*
X154270267Y-69460487D02*
X154317647Y-69372426D01*
X154270265Y-67639513D02*
X154317645Y-67727574D01*
X154317647Y-69372426D02*
X154358118Y-69280984D01*
X154317645Y-67727574D02*
X154358116Y-67819016D01*
X154358118Y-69280984D02*
X154391440Y-69186702D01*
X154358116Y-67819016D02*
X154391438Y-67913298D01*
X154391440Y-69186702D02*
X154417416Y-69090138D01*
X154391438Y-67913298D02*
X154417414Y-68009862D01*
X154417416Y-69090138D02*
X154435893Y-68991863D01*
X154417414Y-68009862D02*
X154435891Y-68108137D01*
X154435893Y-68991863D02*
X154446761Y-68892458D01*
X154435891Y-68108137D02*
X154446759Y-68207542D01*
X154446761Y-68892458D02*
X154449956Y-68792512D01*
X154446759Y-68207542D02*
X154449954Y-68307488D01*
X154449956Y-68792512D02*
X154449954Y-68307488D01*
X167799998Y-70100000D02*
X169700000Y-70100000D01*
X164199998Y-70100000D02*
X163100000Y-70100000D01*
X164199996Y-67000000D02*
X156800014Y-67000000D01*
X167799998Y-67000000D02*
X173000000Y-67000000D01*
X167799998Y-67000000D02*
X167700294Y-67007687D01*
X167799998Y-70100000D02*
X167700294Y-70092313D01*
X167700294Y-67007687D02*
X167601476Y-67023015D01*
X167700294Y-70092313D02*
X167601476Y-70076985D01*
X167601476Y-67023015D02*
X167504129Y-67045893D01*
X167601476Y-70076985D02*
X167504129Y-70054107D01*
X167504129Y-67045893D02*
X167408829Y-67076186D01*
X167504129Y-70054107D02*
X167408829Y-70023814D01*
X167408829Y-67076186D02*
X167316139Y-67113715D01*
X167408829Y-70023814D02*
X167316139Y-69986285D01*
X167316139Y-67113715D02*
X167226608Y-67158258D01*
X167316139Y-69986285D02*
X167226608Y-69941742D01*
X167226608Y-67158258D02*
X167140766Y-67209551D01*
X167226608Y-69941742D02*
X167140766Y-69890449D01*
X167140766Y-67209551D02*
X167059121Y-67267291D01*
X167140766Y-69890449D02*
X167059121Y-69832709D01*
X167059121Y-67267291D02*
X166982156Y-67331136D01*
X167059121Y-69832709D02*
X166982156Y-69768864D01*
X166982156Y-67331136D02*
X166910326Y-67400708D01*
X166982156Y-69768864D02*
X166910326Y-69699292D01*
X166910326Y-67400708D02*
X166844056Y-67475595D01*
X166910326Y-69699292D02*
X166844056Y-69624405D01*
X166844056Y-67475595D02*
X166783738Y-67555354D01*
X166844056Y-69624405D02*
X166783738Y-69544646D01*
X166783738Y-67555354D02*
X166729729Y-67639513D01*
X166783738Y-69544646D02*
X166729729Y-69460487D01*
X166729729Y-67639513D02*
X166682349Y-67727574D01*
X166729729Y-69460487D02*
X166682349Y-69372426D01*
X166682349Y-67727574D02*
X166641878Y-67819016D01*
X166682349Y-69372426D02*
X166641878Y-69280984D01*
X166641878Y-67819016D02*
X166608556Y-67913298D01*
X166641878Y-69280984D02*
X166608556Y-69186702D01*
X166608556Y-67913298D02*
X166582580Y-68009862D01*
X166608556Y-69186702D02*
X166582580Y-69090138D01*
X166582580Y-68009862D02*
X166564103Y-68108137D01*
X166582580Y-69090138D02*
X166564103Y-68991863D01*
X166564103Y-68108137D02*
X166553235Y-68207542D01*
X166564103Y-68991863D02*
X166553235Y-68892458D01*
X166553235Y-68207542D02*
X166550040Y-68307488D01*
X166553235Y-68892458D02*
X166550040Y-68792512D01*
X166550040Y-68792512D02*
X166550040Y-68307488D01*
X164199998Y-70100000D02*
X164299702Y-70092313D01*
X164199996Y-67000000D02*
X164299700Y-67007687D01*
X164299702Y-70092313D02*
X164398520Y-70076985D01*
X164299700Y-67007687D02*
X164398518Y-67023015D01*
X164398520Y-70076985D02*
X164495867Y-70054107D01*
X164398518Y-67023015D02*
X164495865Y-67045893D01*
X164495867Y-70054107D02*
X164591167Y-70023814D01*
X164495865Y-67045893D02*
X164591165Y-67076186D01*
X164591167Y-70023814D02*
X164683857Y-69986285D01*
X164591165Y-67076186D02*
X164683855Y-67113715D01*
X164683857Y-69986285D02*
X164773388Y-69941742D01*
X164683855Y-67113715D02*
X164773386Y-67158258D01*
X164773388Y-69941742D02*
X164859230Y-69890449D01*
X164773386Y-67158258D02*
X164859228Y-67209551D01*
X164859230Y-69890449D02*
X164940875Y-69832709D01*
X164859228Y-67209551D02*
X164940873Y-67267291D01*
X164940875Y-69832709D02*
X165017840Y-69768864D01*
X164940873Y-67267291D02*
X165017838Y-67331136D01*
X165017840Y-69768864D02*
X165089670Y-69699292D01*
X165017838Y-67331136D02*
X165089668Y-67400708D01*
X165089670Y-69699292D02*
X165155940Y-69624405D01*
X165089668Y-67400708D02*
X165155938Y-67475595D01*
X165155940Y-69624405D02*
X165216258Y-69544646D01*
X165155938Y-67475595D02*
X165216256Y-67555354D01*
X165216258Y-69544646D02*
X165270267Y-69460487D01*
X165216256Y-67555354D02*
X165270265Y-67639513D01*
X165270267Y-69460487D02*
X165317647Y-69372426D01*
X165270265Y-67639513D02*
X165317645Y-67727574D01*
X165317647Y-69372426D02*
X165358118Y-69280984D01*
X165317645Y-67727574D02*
X165358116Y-67819016D01*
X165358118Y-69280984D02*
X165391440Y-69186702D01*
X165358116Y-67819016D02*
X165391438Y-67913298D01*
X165391440Y-69186702D02*
X165417416Y-69090138D01*
X165391438Y-67913298D02*
X165417414Y-68009862D01*
X165417416Y-69090138D02*
X165435893Y-68991863D01*
X165417414Y-68009862D02*
X165435891Y-68108137D01*
X165435893Y-68991863D02*
X165446761Y-68892458D01*
X165435891Y-68108137D02*
X165446759Y-68207542D01*
X165446761Y-68892458D02*
X165449956Y-68792512D01*
X165446759Y-68207542D02*
X165449954Y-68307488D01*
X165449956Y-68792512D02*
X165449954Y-68307488D01*
X169700000Y-74800002D02*
X169700000Y-75900000D01*
X169700000Y-71199998D02*
X169700000Y-70100000D01*
X173000000Y-74799996D02*
X173000000Y-81200000D01*
X173000000Y-71199996D02*
X173000000Y-67000000D01*
X173000000Y-74799996D02*
X172992313Y-74700292D01*
X169700000Y-74800002D02*
X169707687Y-74700298D01*
X172992313Y-74700292D02*
X172976985Y-74601474D01*
X169707687Y-74700298D02*
X169723015Y-74601480D01*
X172976985Y-74601474D02*
X172954107Y-74504127D01*
X169723015Y-74601480D02*
X169745893Y-74504133D01*
X172954107Y-74504127D02*
X172923814Y-74408827D01*
X169745893Y-74504133D02*
X169776186Y-74408833D01*
X172923814Y-74408827D02*
X172886285Y-74316137D01*
X169776186Y-74408833D02*
X169813715Y-74316143D01*
X172886285Y-74316137D02*
X172841742Y-74226606D01*
X169813715Y-74316143D02*
X169858258Y-74226612D01*
X172841742Y-74226606D02*
X172790449Y-74140764D01*
X169858258Y-74226612D02*
X169909551Y-74140770D01*
X172790449Y-74140764D02*
X172732709Y-74059119D01*
X169909551Y-74140770D02*
X169967291Y-74059125D01*
X172732709Y-74059119D02*
X172668864Y-73982154D01*
X169967291Y-74059125D02*
X170031136Y-73982160D01*
X172668864Y-73982154D02*
X172599292Y-73910324D01*
X170031136Y-73982160D02*
X170100708Y-73910330D01*
X172599292Y-73910324D02*
X172524405Y-73844054D01*
X170100708Y-73910330D02*
X170175595Y-73844060D01*
X172524405Y-73844054D02*
X172444646Y-73783736D01*
X170175595Y-73844060D02*
X170255354Y-73783742D01*
X172444646Y-73783736D02*
X172360487Y-73729727D01*
X170255354Y-73783742D02*
X170339513Y-73729733D01*
X172360487Y-73729727D02*
X172272426Y-73682347D01*
X170339513Y-73729733D02*
X170427574Y-73682353D01*
X172272426Y-73682347D02*
X172180984Y-73641876D01*
X170427574Y-73682353D02*
X170519016Y-73641882D01*
X172180984Y-73641876D02*
X172086702Y-73608554D01*
X170519016Y-73641882D02*
X170613298Y-73608560D01*
X172086702Y-73608554D02*
X171990138Y-73582578D01*
X170613298Y-73608560D02*
X170709862Y-73582584D01*
X171990138Y-73582578D02*
X171891863Y-73564101D01*
X170709862Y-73582584D02*
X170808137Y-73564107D01*
X171891863Y-73564101D02*
X171792458Y-73553233D01*
X170808137Y-73564107D02*
X170907542Y-73553239D01*
X171792458Y-73553233D02*
X171692512Y-73550038D01*
X170907542Y-73553239D02*
X171007488Y-73550044D01*
X171007488Y-73550044D02*
X171692512Y-73550038D01*
X169700000Y-71199998D02*
X169707687Y-71299702D01*
X173000000Y-71199996D02*
X172992313Y-71299700D01*
X169707687Y-71299702D02*
X169723015Y-71398520D01*
X172992313Y-71299700D02*
X172976985Y-71398518D01*
X169723015Y-71398520D02*
X169745893Y-71495867D01*
X172976985Y-71398518D02*
X172954107Y-71495865D01*
X169745893Y-71495867D02*
X169776186Y-71591167D01*
X172954107Y-71495865D02*
X172923814Y-71591165D01*
X169776186Y-71591167D02*
X169813715Y-71683857D01*
X172923814Y-71591165D02*
X172886285Y-71683855D01*
X169813715Y-71683857D02*
X169858258Y-71773388D01*
X172886285Y-71683855D02*
X172841742Y-71773386D01*
X169858258Y-71773388D02*
X169909551Y-71859230D01*
X172841742Y-71773386D02*
X172790449Y-71859228D01*
X169909551Y-71859230D02*
X169967291Y-71940875D01*
X172790449Y-71859228D02*
X172732709Y-71940873D01*
X169967291Y-71940875D02*
X170031136Y-72017840D01*
X172732709Y-71940873D02*
X172668864Y-72017838D01*
X170031136Y-72017840D02*
X170100708Y-72089670D01*
X172668864Y-72017838D02*
X172599292Y-72089668D01*
X170100708Y-72089670D02*
X170175595Y-72155940D01*
X172599292Y-72089668D02*
X172524405Y-72155938D01*
X170175595Y-72155940D02*
X170255354Y-72216258D01*
X172524405Y-72155938D02*
X172444646Y-72216256D01*
X170255354Y-72216258D02*
X170339513Y-72270267D01*
X172444646Y-72216256D02*
X172360487Y-72270265D01*
X170339513Y-72270267D02*
X170427574Y-72317647D01*
X172360487Y-72270265D02*
X172272426Y-72317645D01*
X170427574Y-72317647D02*
X170519016Y-72358118D01*
X172272426Y-72317645D02*
X172180984Y-72358116D01*
X170519016Y-72358118D02*
X170613298Y-72391440D01*
X172180984Y-72358116D02*
X172086702Y-72391438D01*
X170613298Y-72391440D02*
X170709862Y-72417416D01*
X172086702Y-72391438D02*
X171990138Y-72417414D01*
X170709862Y-72417416D02*
X170808137Y-72435893D01*
X171990138Y-72417414D02*
X171891863Y-72435891D01*
X170808137Y-72435893D02*
X170907542Y-72446761D01*
X171891863Y-72435891D02*
X171792458Y-72446759D01*
X170907542Y-72446761D02*
X171007488Y-72449956D01*
X171792458Y-72446759D02*
X171692512Y-72449954D01*
X171007488Y-72449956D02*
X171692512Y-72449954D01*
M02*
