G04 #@! TF.GenerationSoftware,KiCad,Pcbnew,5.0.2-bee76a0~70~ubuntu18.04.1*
G04 #@! TF.CreationDate,2020-02-27T14:19:30+01:00*
G04 #@! TF.ProjectId,output.load_cell_panel,6f757470-7574-42e6-9c6f-61645f63656c,rev?*
G04 #@! TF.SameCoordinates,Original*
G04 #@! TF.FileFunction,Legend,Bot*
G04 #@! TF.FilePolarity,Positive*
%FSLAX46Y46*%
G04 Gerber Fmt 4.6, Leading zero omitted, Abs format (unit mm)*
G04 Created by KiCad (PCBNEW 5.0.2-bee76a0~70~ubuntu18.04.1) date Thu 27 Feb 2020 02:19:30 PM CET*
%MOMM*%
%LPD*%
G01*
G04 APERTURE LIST*
%ADD10C,0.125000*%
G04 APERTURE END LIST*
D10*
X163550000Y-102766666D02*
X163516666Y-102700000D01*
X163516666Y-102600000D01*
X163550000Y-102500000D01*
X163616666Y-102433333D01*
X163683333Y-102400000D01*
X163816666Y-102366666D01*
X163916666Y-102366666D01*
X164050000Y-102400000D01*
X164116666Y-102433333D01*
X164183333Y-102500000D01*
X164216666Y-102600000D01*
X164216666Y-102666666D01*
X164183333Y-102766666D01*
X164150000Y-102800000D01*
X163916666Y-102800000D01*
X163916666Y-102666666D01*
X164216666Y-103100000D02*
X163516666Y-103100000D01*
X164216666Y-103500000D01*
X163516666Y-103500000D01*
X164216666Y-103833333D02*
X163516666Y-103833333D01*
X163516666Y-104000000D01*
X163550000Y-104100000D01*
X163616666Y-104166666D01*
X163683333Y-104200000D01*
X163816666Y-104233333D01*
X163916666Y-104233333D01*
X164050000Y-104200000D01*
X164116666Y-104166666D01*
X164183333Y-104100000D01*
X164216666Y-104000000D01*
X164216666Y-103833333D01*
X152550000Y-102766666D02*
X152516666Y-102700000D01*
X152516666Y-102600000D01*
X152550000Y-102500000D01*
X152616666Y-102433333D01*
X152683333Y-102400000D01*
X152816666Y-102366666D01*
X152916666Y-102366666D01*
X153050000Y-102400000D01*
X153116666Y-102433333D01*
X153183333Y-102500000D01*
X153216666Y-102600000D01*
X153216666Y-102666666D01*
X153183333Y-102766666D01*
X153150000Y-102800000D01*
X152916666Y-102800000D01*
X152916666Y-102666666D01*
X153216666Y-103100000D02*
X152516666Y-103100000D01*
X153216666Y-103500000D01*
X152516666Y-103500000D01*
X153216666Y-103833333D02*
X152516666Y-103833333D01*
X152516666Y-104000000D01*
X152550000Y-104100000D01*
X152616666Y-104166666D01*
X152683333Y-104200000D01*
X152816666Y-104233333D01*
X152916666Y-104233333D01*
X153050000Y-104200000D01*
X153116666Y-104166666D01*
X153183333Y-104100000D01*
X153216666Y-104000000D01*
X153216666Y-103833333D01*
X141550000Y-102766666D02*
X141516666Y-102700000D01*
X141516666Y-102600000D01*
X141550000Y-102500000D01*
X141616666Y-102433333D01*
X141683333Y-102400000D01*
X141816666Y-102366666D01*
X141916666Y-102366666D01*
X142050000Y-102400000D01*
X142116666Y-102433333D01*
X142183333Y-102500000D01*
X142216666Y-102600000D01*
X142216666Y-102666666D01*
X142183333Y-102766666D01*
X142150000Y-102800000D01*
X141916666Y-102800000D01*
X141916666Y-102666666D01*
X142216666Y-103100000D02*
X141516666Y-103100000D01*
X142216666Y-103500000D01*
X141516666Y-103500000D01*
X142216666Y-103833333D02*
X141516666Y-103833333D01*
X141516666Y-104000000D01*
X141550000Y-104100000D01*
X141616666Y-104166666D01*
X141683333Y-104200000D01*
X141816666Y-104233333D01*
X141916666Y-104233333D01*
X142050000Y-104200000D01*
X142116666Y-104166666D01*
X142183333Y-104100000D01*
X142216666Y-104000000D01*
X142216666Y-103833333D01*
X130550000Y-102766666D02*
X130516666Y-102700000D01*
X130516666Y-102600000D01*
X130550000Y-102500000D01*
X130616666Y-102433333D01*
X130683333Y-102400000D01*
X130816666Y-102366666D01*
X130916666Y-102366666D01*
X131050000Y-102400000D01*
X131116666Y-102433333D01*
X131183333Y-102500000D01*
X131216666Y-102600000D01*
X131216666Y-102666666D01*
X131183333Y-102766666D01*
X131150000Y-102800000D01*
X130916666Y-102800000D01*
X130916666Y-102666666D01*
X131216666Y-103100000D02*
X130516666Y-103100000D01*
X131216666Y-103500000D01*
X130516666Y-103500000D01*
X131216666Y-103833333D02*
X130516666Y-103833333D01*
X130516666Y-104000000D01*
X130550000Y-104100000D01*
X130616666Y-104166666D01*
X130683333Y-104200000D01*
X130816666Y-104233333D01*
X130916666Y-104233333D01*
X131050000Y-104200000D01*
X131116666Y-104166666D01*
X131183333Y-104100000D01*
X131216666Y-104000000D01*
X131216666Y-103833333D01*
X163550000Y-92766666D02*
X163516666Y-92700000D01*
X163516666Y-92600000D01*
X163550000Y-92500000D01*
X163616666Y-92433333D01*
X163683333Y-92400000D01*
X163816666Y-92366666D01*
X163916666Y-92366666D01*
X164050000Y-92400000D01*
X164116666Y-92433333D01*
X164183333Y-92500000D01*
X164216666Y-92600000D01*
X164216666Y-92666666D01*
X164183333Y-92766666D01*
X164150000Y-92800000D01*
X163916666Y-92800000D01*
X163916666Y-92666666D01*
X164216666Y-93100000D02*
X163516666Y-93100000D01*
X164216666Y-93500000D01*
X163516666Y-93500000D01*
X164216666Y-93833333D02*
X163516666Y-93833333D01*
X163516666Y-94000000D01*
X163550000Y-94100000D01*
X163616666Y-94166666D01*
X163683333Y-94200000D01*
X163816666Y-94233333D01*
X163916666Y-94233333D01*
X164050000Y-94200000D01*
X164116666Y-94166666D01*
X164183333Y-94100000D01*
X164216666Y-94000000D01*
X164216666Y-93833333D01*
X152550000Y-92766666D02*
X152516666Y-92700000D01*
X152516666Y-92600000D01*
X152550000Y-92500000D01*
X152616666Y-92433333D01*
X152683333Y-92400000D01*
X152816666Y-92366666D01*
X152916666Y-92366666D01*
X153050000Y-92400000D01*
X153116666Y-92433333D01*
X153183333Y-92500000D01*
X153216666Y-92600000D01*
X153216666Y-92666666D01*
X153183333Y-92766666D01*
X153150000Y-92800000D01*
X152916666Y-92800000D01*
X152916666Y-92666666D01*
X153216666Y-93100000D02*
X152516666Y-93100000D01*
X153216666Y-93500000D01*
X152516666Y-93500000D01*
X153216666Y-93833333D02*
X152516666Y-93833333D01*
X152516666Y-94000000D01*
X152550000Y-94100000D01*
X152616666Y-94166666D01*
X152683333Y-94200000D01*
X152816666Y-94233333D01*
X152916666Y-94233333D01*
X153050000Y-94200000D01*
X153116666Y-94166666D01*
X153183333Y-94100000D01*
X153216666Y-94000000D01*
X153216666Y-93833333D01*
X141550000Y-92766666D02*
X141516666Y-92700000D01*
X141516666Y-92600000D01*
X141550000Y-92500000D01*
X141616666Y-92433333D01*
X141683333Y-92400000D01*
X141816666Y-92366666D01*
X141916666Y-92366666D01*
X142050000Y-92400000D01*
X142116666Y-92433333D01*
X142183333Y-92500000D01*
X142216666Y-92600000D01*
X142216666Y-92666666D01*
X142183333Y-92766666D01*
X142150000Y-92800000D01*
X141916666Y-92800000D01*
X141916666Y-92666666D01*
X142216666Y-93100000D02*
X141516666Y-93100000D01*
X142216666Y-93500000D01*
X141516666Y-93500000D01*
X142216666Y-93833333D02*
X141516666Y-93833333D01*
X141516666Y-94000000D01*
X141550000Y-94100000D01*
X141616666Y-94166666D01*
X141683333Y-94200000D01*
X141816666Y-94233333D01*
X141916666Y-94233333D01*
X142050000Y-94200000D01*
X142116666Y-94166666D01*
X142183333Y-94100000D01*
X142216666Y-94000000D01*
X142216666Y-93833333D01*
X130550000Y-92766666D02*
X130516666Y-92700000D01*
X130516666Y-92600000D01*
X130550000Y-92500000D01*
X130616666Y-92433333D01*
X130683333Y-92400000D01*
X130816666Y-92366666D01*
X130916666Y-92366666D01*
X131050000Y-92400000D01*
X131116666Y-92433333D01*
X131183333Y-92500000D01*
X131216666Y-92600000D01*
X131216666Y-92666666D01*
X131183333Y-92766666D01*
X131150000Y-92800000D01*
X130916666Y-92800000D01*
X130916666Y-92666666D01*
X131216666Y-93100000D02*
X130516666Y-93100000D01*
X131216666Y-93500000D01*
X130516666Y-93500000D01*
X131216666Y-93833333D02*
X130516666Y-93833333D01*
X130516666Y-94000000D01*
X130550000Y-94100000D01*
X130616666Y-94166666D01*
X130683333Y-94200000D01*
X130816666Y-94233333D01*
X130916666Y-94233333D01*
X131050000Y-94200000D01*
X131116666Y-94166666D01*
X131183333Y-94100000D01*
X131216666Y-94000000D01*
X131216666Y-93833333D01*
X163550000Y-82766666D02*
X163516666Y-82700000D01*
X163516666Y-82600000D01*
X163550000Y-82500000D01*
X163616666Y-82433333D01*
X163683333Y-82400000D01*
X163816666Y-82366666D01*
X163916666Y-82366666D01*
X164050000Y-82400000D01*
X164116666Y-82433333D01*
X164183333Y-82500000D01*
X164216666Y-82600000D01*
X164216666Y-82666666D01*
X164183333Y-82766666D01*
X164150000Y-82800000D01*
X163916666Y-82800000D01*
X163916666Y-82666666D01*
X164216666Y-83100000D02*
X163516666Y-83100000D01*
X164216666Y-83500000D01*
X163516666Y-83500000D01*
X164216666Y-83833333D02*
X163516666Y-83833333D01*
X163516666Y-84000000D01*
X163550000Y-84100000D01*
X163616666Y-84166666D01*
X163683333Y-84200000D01*
X163816666Y-84233333D01*
X163916666Y-84233333D01*
X164050000Y-84200000D01*
X164116666Y-84166666D01*
X164183333Y-84100000D01*
X164216666Y-84000000D01*
X164216666Y-83833333D01*
X152550000Y-82766666D02*
X152516666Y-82700000D01*
X152516666Y-82600000D01*
X152550000Y-82500000D01*
X152616666Y-82433333D01*
X152683333Y-82400000D01*
X152816666Y-82366666D01*
X152916666Y-82366666D01*
X153050000Y-82400000D01*
X153116666Y-82433333D01*
X153183333Y-82500000D01*
X153216666Y-82600000D01*
X153216666Y-82666666D01*
X153183333Y-82766666D01*
X153150000Y-82800000D01*
X152916666Y-82800000D01*
X152916666Y-82666666D01*
X153216666Y-83100000D02*
X152516666Y-83100000D01*
X153216666Y-83500000D01*
X152516666Y-83500000D01*
X153216666Y-83833333D02*
X152516666Y-83833333D01*
X152516666Y-84000000D01*
X152550000Y-84100000D01*
X152616666Y-84166666D01*
X152683333Y-84200000D01*
X152816666Y-84233333D01*
X152916666Y-84233333D01*
X153050000Y-84200000D01*
X153116666Y-84166666D01*
X153183333Y-84100000D01*
X153216666Y-84000000D01*
X153216666Y-83833333D01*
X141550000Y-82766666D02*
X141516666Y-82700000D01*
X141516666Y-82600000D01*
X141550000Y-82500000D01*
X141616666Y-82433333D01*
X141683333Y-82400000D01*
X141816666Y-82366666D01*
X141916666Y-82366666D01*
X142050000Y-82400000D01*
X142116666Y-82433333D01*
X142183333Y-82500000D01*
X142216666Y-82600000D01*
X142216666Y-82666666D01*
X142183333Y-82766666D01*
X142150000Y-82800000D01*
X141916666Y-82800000D01*
X141916666Y-82666666D01*
X142216666Y-83100000D02*
X141516666Y-83100000D01*
X142216666Y-83500000D01*
X141516666Y-83500000D01*
X142216666Y-83833333D02*
X141516666Y-83833333D01*
X141516666Y-84000000D01*
X141550000Y-84100000D01*
X141616666Y-84166666D01*
X141683333Y-84200000D01*
X141816666Y-84233333D01*
X141916666Y-84233333D01*
X142050000Y-84200000D01*
X142116666Y-84166666D01*
X142183333Y-84100000D01*
X142216666Y-84000000D01*
X142216666Y-83833333D01*
X130550000Y-82766666D02*
X130516666Y-82700000D01*
X130516666Y-82600000D01*
X130550000Y-82500000D01*
X130616666Y-82433333D01*
X130683333Y-82400000D01*
X130816666Y-82366666D01*
X130916666Y-82366666D01*
X131050000Y-82400000D01*
X131116666Y-82433333D01*
X131183333Y-82500000D01*
X131216666Y-82600000D01*
X131216666Y-82666666D01*
X131183333Y-82766666D01*
X131150000Y-82800000D01*
X130916666Y-82800000D01*
X130916666Y-82666666D01*
X131216666Y-83100000D02*
X130516666Y-83100000D01*
X131216666Y-83500000D01*
X130516666Y-83500000D01*
X131216666Y-83833333D02*
X130516666Y-83833333D01*
X130516666Y-84000000D01*
X130550000Y-84100000D01*
X130616666Y-84166666D01*
X130683333Y-84200000D01*
X130816666Y-84233333D01*
X130916666Y-84233333D01*
X131050000Y-84200000D01*
X131116666Y-84166666D01*
X131183333Y-84100000D01*
X131216666Y-84000000D01*
X131216666Y-83833333D01*
X163550000Y-72766666D02*
X163516666Y-72700000D01*
X163516666Y-72600000D01*
X163550000Y-72500000D01*
X163616666Y-72433333D01*
X163683333Y-72400000D01*
X163816666Y-72366666D01*
X163916666Y-72366666D01*
X164050000Y-72400000D01*
X164116666Y-72433333D01*
X164183333Y-72500000D01*
X164216666Y-72600000D01*
X164216666Y-72666666D01*
X164183333Y-72766666D01*
X164150000Y-72800000D01*
X163916666Y-72800000D01*
X163916666Y-72666666D01*
X164216666Y-73100000D02*
X163516666Y-73100000D01*
X164216666Y-73500000D01*
X163516666Y-73500000D01*
X164216666Y-73833333D02*
X163516666Y-73833333D01*
X163516666Y-74000000D01*
X163550000Y-74100000D01*
X163616666Y-74166666D01*
X163683333Y-74200000D01*
X163816666Y-74233333D01*
X163916666Y-74233333D01*
X164050000Y-74200000D01*
X164116666Y-74166666D01*
X164183333Y-74100000D01*
X164216666Y-74000000D01*
X164216666Y-73833333D01*
X152550000Y-72766666D02*
X152516666Y-72700000D01*
X152516666Y-72600000D01*
X152550000Y-72500000D01*
X152616666Y-72433333D01*
X152683333Y-72400000D01*
X152816666Y-72366666D01*
X152916666Y-72366666D01*
X153050000Y-72400000D01*
X153116666Y-72433333D01*
X153183333Y-72500000D01*
X153216666Y-72600000D01*
X153216666Y-72666666D01*
X153183333Y-72766666D01*
X153150000Y-72800000D01*
X152916666Y-72800000D01*
X152916666Y-72666666D01*
X153216666Y-73100000D02*
X152516666Y-73100000D01*
X153216666Y-73500000D01*
X152516666Y-73500000D01*
X153216666Y-73833333D02*
X152516666Y-73833333D01*
X152516666Y-74000000D01*
X152550000Y-74100000D01*
X152616666Y-74166666D01*
X152683333Y-74200000D01*
X152816666Y-74233333D01*
X152916666Y-74233333D01*
X153050000Y-74200000D01*
X153116666Y-74166666D01*
X153183333Y-74100000D01*
X153216666Y-74000000D01*
X153216666Y-73833333D01*
X141550000Y-72766666D02*
X141516666Y-72700000D01*
X141516666Y-72600000D01*
X141550000Y-72500000D01*
X141616666Y-72433333D01*
X141683333Y-72400000D01*
X141816666Y-72366666D01*
X141916666Y-72366666D01*
X142050000Y-72400000D01*
X142116666Y-72433333D01*
X142183333Y-72500000D01*
X142216666Y-72600000D01*
X142216666Y-72666666D01*
X142183333Y-72766666D01*
X142150000Y-72800000D01*
X141916666Y-72800000D01*
X141916666Y-72666666D01*
X142216666Y-73100000D02*
X141516666Y-73100000D01*
X142216666Y-73500000D01*
X141516666Y-73500000D01*
X142216666Y-73833333D02*
X141516666Y-73833333D01*
X141516666Y-74000000D01*
X141550000Y-74100000D01*
X141616666Y-74166666D01*
X141683333Y-74200000D01*
X141816666Y-74233333D01*
X141916666Y-74233333D01*
X142050000Y-74200000D01*
X142116666Y-74166666D01*
X142183333Y-74100000D01*
X142216666Y-74000000D01*
X142216666Y-73833333D01*
X168596666Y-102266666D02*
X168596666Y-102700000D01*
X168863333Y-102466666D01*
X168863333Y-102566666D01*
X168896666Y-102633333D01*
X168930000Y-102666666D01*
X168996666Y-102700000D01*
X169163333Y-102700000D01*
X169230000Y-102666666D01*
X169263333Y-102633333D01*
X169296666Y-102566666D01*
X169296666Y-102366666D01*
X169263333Y-102300000D01*
X169230000Y-102266666D01*
X169230000Y-103000000D02*
X169263333Y-103033333D01*
X169296666Y-103000000D01*
X169263333Y-102966666D01*
X169230000Y-103000000D01*
X169296666Y-103000000D01*
X168596666Y-103266666D02*
X168596666Y-103700000D01*
X168863333Y-103466666D01*
X168863333Y-103566666D01*
X168896666Y-103633333D01*
X168930000Y-103666666D01*
X168996666Y-103700000D01*
X169163333Y-103700000D01*
X169230000Y-103666666D01*
X169263333Y-103633333D01*
X169296666Y-103566666D01*
X169296666Y-103366666D01*
X169263333Y-103300000D01*
X169230000Y-103266666D01*
X168596666Y-103900000D02*
X169296666Y-104133333D01*
X168596666Y-104366666D01*
X157596666Y-102266666D02*
X157596666Y-102700000D01*
X157863333Y-102466666D01*
X157863333Y-102566666D01*
X157896666Y-102633333D01*
X157930000Y-102666666D01*
X157996666Y-102700000D01*
X158163333Y-102700000D01*
X158230000Y-102666666D01*
X158263333Y-102633333D01*
X158296666Y-102566666D01*
X158296666Y-102366666D01*
X158263333Y-102300000D01*
X158230000Y-102266666D01*
X158230000Y-103000000D02*
X158263333Y-103033333D01*
X158296666Y-103000000D01*
X158263333Y-102966666D01*
X158230000Y-103000000D01*
X158296666Y-103000000D01*
X157596666Y-103266666D02*
X157596666Y-103700000D01*
X157863333Y-103466666D01*
X157863333Y-103566666D01*
X157896666Y-103633333D01*
X157930000Y-103666666D01*
X157996666Y-103700000D01*
X158163333Y-103700000D01*
X158230000Y-103666666D01*
X158263333Y-103633333D01*
X158296666Y-103566666D01*
X158296666Y-103366666D01*
X158263333Y-103300000D01*
X158230000Y-103266666D01*
X157596666Y-103900000D02*
X158296666Y-104133333D01*
X157596666Y-104366666D01*
X146596666Y-102266666D02*
X146596666Y-102700000D01*
X146863333Y-102466666D01*
X146863333Y-102566666D01*
X146896666Y-102633333D01*
X146930000Y-102666666D01*
X146996666Y-102700000D01*
X147163333Y-102700000D01*
X147230000Y-102666666D01*
X147263333Y-102633333D01*
X147296666Y-102566666D01*
X147296666Y-102366666D01*
X147263333Y-102300000D01*
X147230000Y-102266666D01*
X147230000Y-103000000D02*
X147263333Y-103033333D01*
X147296666Y-103000000D01*
X147263333Y-102966666D01*
X147230000Y-103000000D01*
X147296666Y-103000000D01*
X146596666Y-103266666D02*
X146596666Y-103700000D01*
X146863333Y-103466666D01*
X146863333Y-103566666D01*
X146896666Y-103633333D01*
X146930000Y-103666666D01*
X146996666Y-103700000D01*
X147163333Y-103700000D01*
X147230000Y-103666666D01*
X147263333Y-103633333D01*
X147296666Y-103566666D01*
X147296666Y-103366666D01*
X147263333Y-103300000D01*
X147230000Y-103266666D01*
X146596666Y-103900000D02*
X147296666Y-104133333D01*
X146596666Y-104366666D01*
X135596666Y-102266666D02*
X135596666Y-102700000D01*
X135863333Y-102466666D01*
X135863333Y-102566666D01*
X135896666Y-102633333D01*
X135930000Y-102666666D01*
X135996666Y-102700000D01*
X136163333Y-102700000D01*
X136230000Y-102666666D01*
X136263333Y-102633333D01*
X136296666Y-102566666D01*
X136296666Y-102366666D01*
X136263333Y-102300000D01*
X136230000Y-102266666D01*
X136230000Y-103000000D02*
X136263333Y-103033333D01*
X136296666Y-103000000D01*
X136263333Y-102966666D01*
X136230000Y-103000000D01*
X136296666Y-103000000D01*
X135596666Y-103266666D02*
X135596666Y-103700000D01*
X135863333Y-103466666D01*
X135863333Y-103566666D01*
X135896666Y-103633333D01*
X135930000Y-103666666D01*
X135996666Y-103700000D01*
X136163333Y-103700000D01*
X136230000Y-103666666D01*
X136263333Y-103633333D01*
X136296666Y-103566666D01*
X136296666Y-103366666D01*
X136263333Y-103300000D01*
X136230000Y-103266666D01*
X135596666Y-103900000D02*
X136296666Y-104133333D01*
X135596666Y-104366666D01*
X168596666Y-92266666D02*
X168596666Y-92700000D01*
X168863333Y-92466666D01*
X168863333Y-92566666D01*
X168896666Y-92633333D01*
X168930000Y-92666666D01*
X168996666Y-92700000D01*
X169163333Y-92700000D01*
X169230000Y-92666666D01*
X169263333Y-92633333D01*
X169296666Y-92566666D01*
X169296666Y-92366666D01*
X169263333Y-92300000D01*
X169230000Y-92266666D01*
X169230000Y-93000000D02*
X169263333Y-93033333D01*
X169296666Y-93000000D01*
X169263333Y-92966666D01*
X169230000Y-93000000D01*
X169296666Y-93000000D01*
X168596666Y-93266666D02*
X168596666Y-93700000D01*
X168863333Y-93466666D01*
X168863333Y-93566666D01*
X168896666Y-93633333D01*
X168930000Y-93666666D01*
X168996666Y-93700000D01*
X169163333Y-93700000D01*
X169230000Y-93666666D01*
X169263333Y-93633333D01*
X169296666Y-93566666D01*
X169296666Y-93366666D01*
X169263333Y-93300000D01*
X169230000Y-93266666D01*
X168596666Y-93900000D02*
X169296666Y-94133333D01*
X168596666Y-94366666D01*
X157596666Y-92266666D02*
X157596666Y-92700000D01*
X157863333Y-92466666D01*
X157863333Y-92566666D01*
X157896666Y-92633333D01*
X157930000Y-92666666D01*
X157996666Y-92700000D01*
X158163333Y-92700000D01*
X158230000Y-92666666D01*
X158263333Y-92633333D01*
X158296666Y-92566666D01*
X158296666Y-92366666D01*
X158263333Y-92300000D01*
X158230000Y-92266666D01*
X158230000Y-93000000D02*
X158263333Y-93033333D01*
X158296666Y-93000000D01*
X158263333Y-92966666D01*
X158230000Y-93000000D01*
X158296666Y-93000000D01*
X157596666Y-93266666D02*
X157596666Y-93700000D01*
X157863333Y-93466666D01*
X157863333Y-93566666D01*
X157896666Y-93633333D01*
X157930000Y-93666666D01*
X157996666Y-93700000D01*
X158163333Y-93700000D01*
X158230000Y-93666666D01*
X158263333Y-93633333D01*
X158296666Y-93566666D01*
X158296666Y-93366666D01*
X158263333Y-93300000D01*
X158230000Y-93266666D01*
X157596666Y-93900000D02*
X158296666Y-94133333D01*
X157596666Y-94366666D01*
X146596666Y-92266666D02*
X146596666Y-92700000D01*
X146863333Y-92466666D01*
X146863333Y-92566666D01*
X146896666Y-92633333D01*
X146930000Y-92666666D01*
X146996666Y-92700000D01*
X147163333Y-92700000D01*
X147230000Y-92666666D01*
X147263333Y-92633333D01*
X147296666Y-92566666D01*
X147296666Y-92366666D01*
X147263333Y-92300000D01*
X147230000Y-92266666D01*
X147230000Y-93000000D02*
X147263333Y-93033333D01*
X147296666Y-93000000D01*
X147263333Y-92966666D01*
X147230000Y-93000000D01*
X147296666Y-93000000D01*
X146596666Y-93266666D02*
X146596666Y-93700000D01*
X146863333Y-93466666D01*
X146863333Y-93566666D01*
X146896666Y-93633333D01*
X146930000Y-93666666D01*
X146996666Y-93700000D01*
X147163333Y-93700000D01*
X147230000Y-93666666D01*
X147263333Y-93633333D01*
X147296666Y-93566666D01*
X147296666Y-93366666D01*
X147263333Y-93300000D01*
X147230000Y-93266666D01*
X146596666Y-93900000D02*
X147296666Y-94133333D01*
X146596666Y-94366666D01*
X135596666Y-92266666D02*
X135596666Y-92700000D01*
X135863333Y-92466666D01*
X135863333Y-92566666D01*
X135896666Y-92633333D01*
X135930000Y-92666666D01*
X135996666Y-92700000D01*
X136163333Y-92700000D01*
X136230000Y-92666666D01*
X136263333Y-92633333D01*
X136296666Y-92566666D01*
X136296666Y-92366666D01*
X136263333Y-92300000D01*
X136230000Y-92266666D01*
X136230000Y-93000000D02*
X136263333Y-93033333D01*
X136296666Y-93000000D01*
X136263333Y-92966666D01*
X136230000Y-93000000D01*
X136296666Y-93000000D01*
X135596666Y-93266666D02*
X135596666Y-93700000D01*
X135863333Y-93466666D01*
X135863333Y-93566666D01*
X135896666Y-93633333D01*
X135930000Y-93666666D01*
X135996666Y-93700000D01*
X136163333Y-93700000D01*
X136230000Y-93666666D01*
X136263333Y-93633333D01*
X136296666Y-93566666D01*
X136296666Y-93366666D01*
X136263333Y-93300000D01*
X136230000Y-93266666D01*
X135596666Y-93900000D02*
X136296666Y-94133333D01*
X135596666Y-94366666D01*
X168596666Y-82266666D02*
X168596666Y-82700000D01*
X168863333Y-82466666D01*
X168863333Y-82566666D01*
X168896666Y-82633333D01*
X168930000Y-82666666D01*
X168996666Y-82700000D01*
X169163333Y-82700000D01*
X169230000Y-82666666D01*
X169263333Y-82633333D01*
X169296666Y-82566666D01*
X169296666Y-82366666D01*
X169263333Y-82300000D01*
X169230000Y-82266666D01*
X169230000Y-83000000D02*
X169263333Y-83033333D01*
X169296666Y-83000000D01*
X169263333Y-82966666D01*
X169230000Y-83000000D01*
X169296666Y-83000000D01*
X168596666Y-83266666D02*
X168596666Y-83700000D01*
X168863333Y-83466666D01*
X168863333Y-83566666D01*
X168896666Y-83633333D01*
X168930000Y-83666666D01*
X168996666Y-83700000D01*
X169163333Y-83700000D01*
X169230000Y-83666666D01*
X169263333Y-83633333D01*
X169296666Y-83566666D01*
X169296666Y-83366666D01*
X169263333Y-83300000D01*
X169230000Y-83266666D01*
X168596666Y-83900000D02*
X169296666Y-84133333D01*
X168596666Y-84366666D01*
X157596666Y-82266666D02*
X157596666Y-82700000D01*
X157863333Y-82466666D01*
X157863333Y-82566666D01*
X157896666Y-82633333D01*
X157930000Y-82666666D01*
X157996666Y-82700000D01*
X158163333Y-82700000D01*
X158230000Y-82666666D01*
X158263333Y-82633333D01*
X158296666Y-82566666D01*
X158296666Y-82366666D01*
X158263333Y-82300000D01*
X158230000Y-82266666D01*
X158230000Y-83000000D02*
X158263333Y-83033333D01*
X158296666Y-83000000D01*
X158263333Y-82966666D01*
X158230000Y-83000000D01*
X158296666Y-83000000D01*
X157596666Y-83266666D02*
X157596666Y-83700000D01*
X157863333Y-83466666D01*
X157863333Y-83566666D01*
X157896666Y-83633333D01*
X157930000Y-83666666D01*
X157996666Y-83700000D01*
X158163333Y-83700000D01*
X158230000Y-83666666D01*
X158263333Y-83633333D01*
X158296666Y-83566666D01*
X158296666Y-83366666D01*
X158263333Y-83300000D01*
X158230000Y-83266666D01*
X157596666Y-83900000D02*
X158296666Y-84133333D01*
X157596666Y-84366666D01*
X146596666Y-82266666D02*
X146596666Y-82700000D01*
X146863333Y-82466666D01*
X146863333Y-82566666D01*
X146896666Y-82633333D01*
X146930000Y-82666666D01*
X146996666Y-82700000D01*
X147163333Y-82700000D01*
X147230000Y-82666666D01*
X147263333Y-82633333D01*
X147296666Y-82566666D01*
X147296666Y-82366666D01*
X147263333Y-82300000D01*
X147230000Y-82266666D01*
X147230000Y-83000000D02*
X147263333Y-83033333D01*
X147296666Y-83000000D01*
X147263333Y-82966666D01*
X147230000Y-83000000D01*
X147296666Y-83000000D01*
X146596666Y-83266666D02*
X146596666Y-83700000D01*
X146863333Y-83466666D01*
X146863333Y-83566666D01*
X146896666Y-83633333D01*
X146930000Y-83666666D01*
X146996666Y-83700000D01*
X147163333Y-83700000D01*
X147230000Y-83666666D01*
X147263333Y-83633333D01*
X147296666Y-83566666D01*
X147296666Y-83366666D01*
X147263333Y-83300000D01*
X147230000Y-83266666D01*
X146596666Y-83900000D02*
X147296666Y-84133333D01*
X146596666Y-84366666D01*
X135596666Y-82266666D02*
X135596666Y-82700000D01*
X135863333Y-82466666D01*
X135863333Y-82566666D01*
X135896666Y-82633333D01*
X135930000Y-82666666D01*
X135996666Y-82700000D01*
X136163333Y-82700000D01*
X136230000Y-82666666D01*
X136263333Y-82633333D01*
X136296666Y-82566666D01*
X136296666Y-82366666D01*
X136263333Y-82300000D01*
X136230000Y-82266666D01*
X136230000Y-83000000D02*
X136263333Y-83033333D01*
X136296666Y-83000000D01*
X136263333Y-82966666D01*
X136230000Y-83000000D01*
X136296666Y-83000000D01*
X135596666Y-83266666D02*
X135596666Y-83700000D01*
X135863333Y-83466666D01*
X135863333Y-83566666D01*
X135896666Y-83633333D01*
X135930000Y-83666666D01*
X135996666Y-83700000D01*
X136163333Y-83700000D01*
X136230000Y-83666666D01*
X136263333Y-83633333D01*
X136296666Y-83566666D01*
X136296666Y-83366666D01*
X136263333Y-83300000D01*
X136230000Y-83266666D01*
X135596666Y-83900000D02*
X136296666Y-84133333D01*
X135596666Y-84366666D01*
X168596666Y-72266666D02*
X168596666Y-72700000D01*
X168863333Y-72466666D01*
X168863333Y-72566666D01*
X168896666Y-72633333D01*
X168930000Y-72666666D01*
X168996666Y-72700000D01*
X169163333Y-72700000D01*
X169230000Y-72666666D01*
X169263333Y-72633333D01*
X169296666Y-72566666D01*
X169296666Y-72366666D01*
X169263333Y-72300000D01*
X169230000Y-72266666D01*
X169230000Y-73000000D02*
X169263333Y-73033333D01*
X169296666Y-73000000D01*
X169263333Y-72966666D01*
X169230000Y-73000000D01*
X169296666Y-73000000D01*
X168596666Y-73266666D02*
X168596666Y-73700000D01*
X168863333Y-73466666D01*
X168863333Y-73566666D01*
X168896666Y-73633333D01*
X168930000Y-73666666D01*
X168996666Y-73700000D01*
X169163333Y-73700000D01*
X169230000Y-73666666D01*
X169263333Y-73633333D01*
X169296666Y-73566666D01*
X169296666Y-73366666D01*
X169263333Y-73300000D01*
X169230000Y-73266666D01*
X168596666Y-73900000D02*
X169296666Y-74133333D01*
X168596666Y-74366666D01*
X157596666Y-72266666D02*
X157596666Y-72700000D01*
X157863333Y-72466666D01*
X157863333Y-72566666D01*
X157896666Y-72633333D01*
X157930000Y-72666666D01*
X157996666Y-72700000D01*
X158163333Y-72700000D01*
X158230000Y-72666666D01*
X158263333Y-72633333D01*
X158296666Y-72566666D01*
X158296666Y-72366666D01*
X158263333Y-72300000D01*
X158230000Y-72266666D01*
X158230000Y-73000000D02*
X158263333Y-73033333D01*
X158296666Y-73000000D01*
X158263333Y-72966666D01*
X158230000Y-73000000D01*
X158296666Y-73000000D01*
X157596666Y-73266666D02*
X157596666Y-73700000D01*
X157863333Y-73466666D01*
X157863333Y-73566666D01*
X157896666Y-73633333D01*
X157930000Y-73666666D01*
X157996666Y-73700000D01*
X158163333Y-73700000D01*
X158230000Y-73666666D01*
X158263333Y-73633333D01*
X158296666Y-73566666D01*
X158296666Y-73366666D01*
X158263333Y-73300000D01*
X158230000Y-73266666D01*
X157596666Y-73900000D02*
X158296666Y-74133333D01*
X157596666Y-74366666D01*
X146596666Y-72266666D02*
X146596666Y-72700000D01*
X146863333Y-72466666D01*
X146863333Y-72566666D01*
X146896666Y-72633333D01*
X146930000Y-72666666D01*
X146996666Y-72700000D01*
X147163333Y-72700000D01*
X147230000Y-72666666D01*
X147263333Y-72633333D01*
X147296666Y-72566666D01*
X147296666Y-72366666D01*
X147263333Y-72300000D01*
X147230000Y-72266666D01*
X147230000Y-73000000D02*
X147263333Y-73033333D01*
X147296666Y-73000000D01*
X147263333Y-72966666D01*
X147230000Y-73000000D01*
X147296666Y-73000000D01*
X146596666Y-73266666D02*
X146596666Y-73700000D01*
X146863333Y-73466666D01*
X146863333Y-73566666D01*
X146896666Y-73633333D01*
X146930000Y-73666666D01*
X146996666Y-73700000D01*
X147163333Y-73700000D01*
X147230000Y-73666666D01*
X147263333Y-73633333D01*
X147296666Y-73566666D01*
X147296666Y-73366666D01*
X147263333Y-73300000D01*
X147230000Y-73266666D01*
X146596666Y-73900000D02*
X147296666Y-74133333D01*
X146596666Y-74366666D01*
X167993333Y-102583333D02*
X168026666Y-102683333D01*
X168026666Y-102850000D01*
X167993333Y-102916666D01*
X167960000Y-102950000D01*
X167893333Y-102983333D01*
X167826666Y-102983333D01*
X167760000Y-102950000D01*
X167726666Y-102916666D01*
X167693333Y-102850000D01*
X167660000Y-102716666D01*
X167626666Y-102650000D01*
X167593333Y-102616666D01*
X167526666Y-102583333D01*
X167460000Y-102583333D01*
X167393333Y-102616666D01*
X167360000Y-102650000D01*
X167326666Y-102716666D01*
X167326666Y-102883333D01*
X167360000Y-102983333D01*
X168026666Y-103283333D02*
X167326666Y-103283333D01*
X167326666Y-103450000D01*
X167360000Y-103550000D01*
X167426666Y-103616666D01*
X167493333Y-103650000D01*
X167626666Y-103683333D01*
X167726666Y-103683333D01*
X167860000Y-103650000D01*
X167926666Y-103616666D01*
X167993333Y-103550000D01*
X168026666Y-103450000D01*
X168026666Y-103283333D01*
X168026666Y-103983333D02*
X167326666Y-103983333D01*
X156993333Y-102583333D02*
X157026666Y-102683333D01*
X157026666Y-102850000D01*
X156993333Y-102916666D01*
X156960000Y-102950000D01*
X156893333Y-102983333D01*
X156826666Y-102983333D01*
X156760000Y-102950000D01*
X156726666Y-102916666D01*
X156693333Y-102850000D01*
X156660000Y-102716666D01*
X156626666Y-102650000D01*
X156593333Y-102616666D01*
X156526666Y-102583333D01*
X156460000Y-102583333D01*
X156393333Y-102616666D01*
X156360000Y-102650000D01*
X156326666Y-102716666D01*
X156326666Y-102883333D01*
X156360000Y-102983333D01*
X157026666Y-103283333D02*
X156326666Y-103283333D01*
X156326666Y-103450000D01*
X156360000Y-103550000D01*
X156426666Y-103616666D01*
X156493333Y-103650000D01*
X156626666Y-103683333D01*
X156726666Y-103683333D01*
X156860000Y-103650000D01*
X156926666Y-103616666D01*
X156993333Y-103550000D01*
X157026666Y-103450000D01*
X157026666Y-103283333D01*
X157026666Y-103983333D02*
X156326666Y-103983333D01*
X145993333Y-102583333D02*
X146026666Y-102683333D01*
X146026666Y-102850000D01*
X145993333Y-102916666D01*
X145960000Y-102950000D01*
X145893333Y-102983333D01*
X145826666Y-102983333D01*
X145760000Y-102950000D01*
X145726666Y-102916666D01*
X145693333Y-102850000D01*
X145660000Y-102716666D01*
X145626666Y-102650000D01*
X145593333Y-102616666D01*
X145526666Y-102583333D01*
X145460000Y-102583333D01*
X145393333Y-102616666D01*
X145360000Y-102650000D01*
X145326666Y-102716666D01*
X145326666Y-102883333D01*
X145360000Y-102983333D01*
X146026666Y-103283333D02*
X145326666Y-103283333D01*
X145326666Y-103450000D01*
X145360000Y-103550000D01*
X145426666Y-103616666D01*
X145493333Y-103650000D01*
X145626666Y-103683333D01*
X145726666Y-103683333D01*
X145860000Y-103650000D01*
X145926666Y-103616666D01*
X145993333Y-103550000D01*
X146026666Y-103450000D01*
X146026666Y-103283333D01*
X146026666Y-103983333D02*
X145326666Y-103983333D01*
X134993333Y-102583333D02*
X135026666Y-102683333D01*
X135026666Y-102850000D01*
X134993333Y-102916666D01*
X134960000Y-102950000D01*
X134893333Y-102983333D01*
X134826666Y-102983333D01*
X134760000Y-102950000D01*
X134726666Y-102916666D01*
X134693333Y-102850000D01*
X134660000Y-102716666D01*
X134626666Y-102650000D01*
X134593333Y-102616666D01*
X134526666Y-102583333D01*
X134460000Y-102583333D01*
X134393333Y-102616666D01*
X134360000Y-102650000D01*
X134326666Y-102716666D01*
X134326666Y-102883333D01*
X134360000Y-102983333D01*
X135026666Y-103283333D02*
X134326666Y-103283333D01*
X134326666Y-103450000D01*
X134360000Y-103550000D01*
X134426666Y-103616666D01*
X134493333Y-103650000D01*
X134626666Y-103683333D01*
X134726666Y-103683333D01*
X134860000Y-103650000D01*
X134926666Y-103616666D01*
X134993333Y-103550000D01*
X135026666Y-103450000D01*
X135026666Y-103283333D01*
X135026666Y-103983333D02*
X134326666Y-103983333D01*
X167993333Y-92583333D02*
X168026666Y-92683333D01*
X168026666Y-92850000D01*
X167993333Y-92916666D01*
X167960000Y-92950000D01*
X167893333Y-92983333D01*
X167826666Y-92983333D01*
X167760000Y-92950000D01*
X167726666Y-92916666D01*
X167693333Y-92850000D01*
X167660000Y-92716666D01*
X167626666Y-92650000D01*
X167593333Y-92616666D01*
X167526666Y-92583333D01*
X167460000Y-92583333D01*
X167393333Y-92616666D01*
X167360000Y-92650000D01*
X167326666Y-92716666D01*
X167326666Y-92883333D01*
X167360000Y-92983333D01*
X168026666Y-93283333D02*
X167326666Y-93283333D01*
X167326666Y-93450000D01*
X167360000Y-93550000D01*
X167426666Y-93616666D01*
X167493333Y-93650000D01*
X167626666Y-93683333D01*
X167726666Y-93683333D01*
X167860000Y-93650000D01*
X167926666Y-93616666D01*
X167993333Y-93550000D01*
X168026666Y-93450000D01*
X168026666Y-93283333D01*
X168026666Y-93983333D02*
X167326666Y-93983333D01*
X156993333Y-92583333D02*
X157026666Y-92683333D01*
X157026666Y-92850000D01*
X156993333Y-92916666D01*
X156960000Y-92950000D01*
X156893333Y-92983333D01*
X156826666Y-92983333D01*
X156760000Y-92950000D01*
X156726666Y-92916666D01*
X156693333Y-92850000D01*
X156660000Y-92716666D01*
X156626666Y-92650000D01*
X156593333Y-92616666D01*
X156526666Y-92583333D01*
X156460000Y-92583333D01*
X156393333Y-92616666D01*
X156360000Y-92650000D01*
X156326666Y-92716666D01*
X156326666Y-92883333D01*
X156360000Y-92983333D01*
X157026666Y-93283333D02*
X156326666Y-93283333D01*
X156326666Y-93450000D01*
X156360000Y-93550000D01*
X156426666Y-93616666D01*
X156493333Y-93650000D01*
X156626666Y-93683333D01*
X156726666Y-93683333D01*
X156860000Y-93650000D01*
X156926666Y-93616666D01*
X156993333Y-93550000D01*
X157026666Y-93450000D01*
X157026666Y-93283333D01*
X157026666Y-93983333D02*
X156326666Y-93983333D01*
X145993333Y-92583333D02*
X146026666Y-92683333D01*
X146026666Y-92850000D01*
X145993333Y-92916666D01*
X145960000Y-92950000D01*
X145893333Y-92983333D01*
X145826666Y-92983333D01*
X145760000Y-92950000D01*
X145726666Y-92916666D01*
X145693333Y-92850000D01*
X145660000Y-92716666D01*
X145626666Y-92650000D01*
X145593333Y-92616666D01*
X145526666Y-92583333D01*
X145460000Y-92583333D01*
X145393333Y-92616666D01*
X145360000Y-92650000D01*
X145326666Y-92716666D01*
X145326666Y-92883333D01*
X145360000Y-92983333D01*
X146026666Y-93283333D02*
X145326666Y-93283333D01*
X145326666Y-93450000D01*
X145360000Y-93550000D01*
X145426666Y-93616666D01*
X145493333Y-93650000D01*
X145626666Y-93683333D01*
X145726666Y-93683333D01*
X145860000Y-93650000D01*
X145926666Y-93616666D01*
X145993333Y-93550000D01*
X146026666Y-93450000D01*
X146026666Y-93283333D01*
X146026666Y-93983333D02*
X145326666Y-93983333D01*
X134993333Y-92583333D02*
X135026666Y-92683333D01*
X135026666Y-92850000D01*
X134993333Y-92916666D01*
X134960000Y-92950000D01*
X134893333Y-92983333D01*
X134826666Y-92983333D01*
X134760000Y-92950000D01*
X134726666Y-92916666D01*
X134693333Y-92850000D01*
X134660000Y-92716666D01*
X134626666Y-92650000D01*
X134593333Y-92616666D01*
X134526666Y-92583333D01*
X134460000Y-92583333D01*
X134393333Y-92616666D01*
X134360000Y-92650000D01*
X134326666Y-92716666D01*
X134326666Y-92883333D01*
X134360000Y-92983333D01*
X135026666Y-93283333D02*
X134326666Y-93283333D01*
X134326666Y-93450000D01*
X134360000Y-93550000D01*
X134426666Y-93616666D01*
X134493333Y-93650000D01*
X134626666Y-93683333D01*
X134726666Y-93683333D01*
X134860000Y-93650000D01*
X134926666Y-93616666D01*
X134993333Y-93550000D01*
X135026666Y-93450000D01*
X135026666Y-93283333D01*
X135026666Y-93983333D02*
X134326666Y-93983333D01*
X167993333Y-82583333D02*
X168026666Y-82683333D01*
X168026666Y-82850000D01*
X167993333Y-82916666D01*
X167960000Y-82950000D01*
X167893333Y-82983333D01*
X167826666Y-82983333D01*
X167760000Y-82950000D01*
X167726666Y-82916666D01*
X167693333Y-82850000D01*
X167660000Y-82716666D01*
X167626666Y-82650000D01*
X167593333Y-82616666D01*
X167526666Y-82583333D01*
X167460000Y-82583333D01*
X167393333Y-82616666D01*
X167360000Y-82650000D01*
X167326666Y-82716666D01*
X167326666Y-82883333D01*
X167360000Y-82983333D01*
X168026666Y-83283333D02*
X167326666Y-83283333D01*
X167326666Y-83450000D01*
X167360000Y-83550000D01*
X167426666Y-83616666D01*
X167493333Y-83650000D01*
X167626666Y-83683333D01*
X167726666Y-83683333D01*
X167860000Y-83650000D01*
X167926666Y-83616666D01*
X167993333Y-83550000D01*
X168026666Y-83450000D01*
X168026666Y-83283333D01*
X168026666Y-83983333D02*
X167326666Y-83983333D01*
X156993333Y-82583333D02*
X157026666Y-82683333D01*
X157026666Y-82850000D01*
X156993333Y-82916666D01*
X156960000Y-82950000D01*
X156893333Y-82983333D01*
X156826666Y-82983333D01*
X156760000Y-82950000D01*
X156726666Y-82916666D01*
X156693333Y-82850000D01*
X156660000Y-82716666D01*
X156626666Y-82650000D01*
X156593333Y-82616666D01*
X156526666Y-82583333D01*
X156460000Y-82583333D01*
X156393333Y-82616666D01*
X156360000Y-82650000D01*
X156326666Y-82716666D01*
X156326666Y-82883333D01*
X156360000Y-82983333D01*
X157026666Y-83283333D02*
X156326666Y-83283333D01*
X156326666Y-83450000D01*
X156360000Y-83550000D01*
X156426666Y-83616666D01*
X156493333Y-83650000D01*
X156626666Y-83683333D01*
X156726666Y-83683333D01*
X156860000Y-83650000D01*
X156926666Y-83616666D01*
X156993333Y-83550000D01*
X157026666Y-83450000D01*
X157026666Y-83283333D01*
X157026666Y-83983333D02*
X156326666Y-83983333D01*
X145993333Y-82583333D02*
X146026666Y-82683333D01*
X146026666Y-82850000D01*
X145993333Y-82916666D01*
X145960000Y-82950000D01*
X145893333Y-82983333D01*
X145826666Y-82983333D01*
X145760000Y-82950000D01*
X145726666Y-82916666D01*
X145693333Y-82850000D01*
X145660000Y-82716666D01*
X145626666Y-82650000D01*
X145593333Y-82616666D01*
X145526666Y-82583333D01*
X145460000Y-82583333D01*
X145393333Y-82616666D01*
X145360000Y-82650000D01*
X145326666Y-82716666D01*
X145326666Y-82883333D01*
X145360000Y-82983333D01*
X146026666Y-83283333D02*
X145326666Y-83283333D01*
X145326666Y-83450000D01*
X145360000Y-83550000D01*
X145426666Y-83616666D01*
X145493333Y-83650000D01*
X145626666Y-83683333D01*
X145726666Y-83683333D01*
X145860000Y-83650000D01*
X145926666Y-83616666D01*
X145993333Y-83550000D01*
X146026666Y-83450000D01*
X146026666Y-83283333D01*
X146026666Y-83983333D02*
X145326666Y-83983333D01*
X134993333Y-82583333D02*
X135026666Y-82683333D01*
X135026666Y-82850000D01*
X134993333Y-82916666D01*
X134960000Y-82950000D01*
X134893333Y-82983333D01*
X134826666Y-82983333D01*
X134760000Y-82950000D01*
X134726666Y-82916666D01*
X134693333Y-82850000D01*
X134660000Y-82716666D01*
X134626666Y-82650000D01*
X134593333Y-82616666D01*
X134526666Y-82583333D01*
X134460000Y-82583333D01*
X134393333Y-82616666D01*
X134360000Y-82650000D01*
X134326666Y-82716666D01*
X134326666Y-82883333D01*
X134360000Y-82983333D01*
X135026666Y-83283333D02*
X134326666Y-83283333D01*
X134326666Y-83450000D01*
X134360000Y-83550000D01*
X134426666Y-83616666D01*
X134493333Y-83650000D01*
X134626666Y-83683333D01*
X134726666Y-83683333D01*
X134860000Y-83650000D01*
X134926666Y-83616666D01*
X134993333Y-83550000D01*
X135026666Y-83450000D01*
X135026666Y-83283333D01*
X135026666Y-83983333D02*
X134326666Y-83983333D01*
X167993333Y-72583333D02*
X168026666Y-72683333D01*
X168026666Y-72850000D01*
X167993333Y-72916666D01*
X167960000Y-72950000D01*
X167893333Y-72983333D01*
X167826666Y-72983333D01*
X167760000Y-72950000D01*
X167726666Y-72916666D01*
X167693333Y-72850000D01*
X167660000Y-72716666D01*
X167626666Y-72650000D01*
X167593333Y-72616666D01*
X167526666Y-72583333D01*
X167460000Y-72583333D01*
X167393333Y-72616666D01*
X167360000Y-72650000D01*
X167326666Y-72716666D01*
X167326666Y-72883333D01*
X167360000Y-72983333D01*
X168026666Y-73283333D02*
X167326666Y-73283333D01*
X167326666Y-73450000D01*
X167360000Y-73550000D01*
X167426666Y-73616666D01*
X167493333Y-73650000D01*
X167626666Y-73683333D01*
X167726666Y-73683333D01*
X167860000Y-73650000D01*
X167926666Y-73616666D01*
X167993333Y-73550000D01*
X168026666Y-73450000D01*
X168026666Y-73283333D01*
X168026666Y-73983333D02*
X167326666Y-73983333D01*
X156993333Y-72583333D02*
X157026666Y-72683333D01*
X157026666Y-72850000D01*
X156993333Y-72916666D01*
X156960000Y-72950000D01*
X156893333Y-72983333D01*
X156826666Y-72983333D01*
X156760000Y-72950000D01*
X156726666Y-72916666D01*
X156693333Y-72850000D01*
X156660000Y-72716666D01*
X156626666Y-72650000D01*
X156593333Y-72616666D01*
X156526666Y-72583333D01*
X156460000Y-72583333D01*
X156393333Y-72616666D01*
X156360000Y-72650000D01*
X156326666Y-72716666D01*
X156326666Y-72883333D01*
X156360000Y-72983333D01*
X157026666Y-73283333D02*
X156326666Y-73283333D01*
X156326666Y-73450000D01*
X156360000Y-73550000D01*
X156426666Y-73616666D01*
X156493333Y-73650000D01*
X156626666Y-73683333D01*
X156726666Y-73683333D01*
X156860000Y-73650000D01*
X156926666Y-73616666D01*
X156993333Y-73550000D01*
X157026666Y-73450000D01*
X157026666Y-73283333D01*
X157026666Y-73983333D02*
X156326666Y-73983333D01*
X145993333Y-72583333D02*
X146026666Y-72683333D01*
X146026666Y-72850000D01*
X145993333Y-72916666D01*
X145960000Y-72950000D01*
X145893333Y-72983333D01*
X145826666Y-72983333D01*
X145760000Y-72950000D01*
X145726666Y-72916666D01*
X145693333Y-72850000D01*
X145660000Y-72716666D01*
X145626666Y-72650000D01*
X145593333Y-72616666D01*
X145526666Y-72583333D01*
X145460000Y-72583333D01*
X145393333Y-72616666D01*
X145360000Y-72650000D01*
X145326666Y-72716666D01*
X145326666Y-72883333D01*
X145360000Y-72983333D01*
X146026666Y-73283333D02*
X145326666Y-73283333D01*
X145326666Y-73450000D01*
X145360000Y-73550000D01*
X145426666Y-73616666D01*
X145493333Y-73650000D01*
X145626666Y-73683333D01*
X145726666Y-73683333D01*
X145860000Y-73650000D01*
X145926666Y-73616666D01*
X145993333Y-73550000D01*
X146026666Y-73450000D01*
X146026666Y-73283333D01*
X146026666Y-73983333D02*
X145326666Y-73983333D01*
X166723333Y-102400000D02*
X166756666Y-102500000D01*
X166756666Y-102666666D01*
X166723333Y-102733333D01*
X166690000Y-102766666D01*
X166623333Y-102800000D01*
X166556666Y-102800000D01*
X166490000Y-102766666D01*
X166456666Y-102733333D01*
X166423333Y-102666666D01*
X166390000Y-102533333D01*
X166356666Y-102466666D01*
X166323333Y-102433333D01*
X166256666Y-102400000D01*
X166190000Y-102400000D01*
X166123333Y-102433333D01*
X166090000Y-102466666D01*
X166056666Y-102533333D01*
X166056666Y-102700000D01*
X166090000Y-102800000D01*
X166690000Y-103500000D02*
X166723333Y-103466666D01*
X166756666Y-103366666D01*
X166756666Y-103300000D01*
X166723333Y-103200000D01*
X166656666Y-103133333D01*
X166590000Y-103100000D01*
X166456666Y-103066666D01*
X166356666Y-103066666D01*
X166223333Y-103100000D01*
X166156666Y-103133333D01*
X166090000Y-103200000D01*
X166056666Y-103300000D01*
X166056666Y-103366666D01*
X166090000Y-103466666D01*
X166123333Y-103500000D01*
X166756666Y-103800000D02*
X166056666Y-103800000D01*
X166756666Y-104200000D02*
X166356666Y-103900000D01*
X166056666Y-104200000D02*
X166456666Y-103800000D01*
X155723333Y-102400000D02*
X155756666Y-102500000D01*
X155756666Y-102666666D01*
X155723333Y-102733333D01*
X155690000Y-102766666D01*
X155623333Y-102800000D01*
X155556666Y-102800000D01*
X155490000Y-102766666D01*
X155456666Y-102733333D01*
X155423333Y-102666666D01*
X155390000Y-102533333D01*
X155356666Y-102466666D01*
X155323333Y-102433333D01*
X155256666Y-102400000D01*
X155190000Y-102400000D01*
X155123333Y-102433333D01*
X155090000Y-102466666D01*
X155056666Y-102533333D01*
X155056666Y-102700000D01*
X155090000Y-102800000D01*
X155690000Y-103500000D02*
X155723333Y-103466666D01*
X155756666Y-103366666D01*
X155756666Y-103300000D01*
X155723333Y-103200000D01*
X155656666Y-103133333D01*
X155590000Y-103100000D01*
X155456666Y-103066666D01*
X155356666Y-103066666D01*
X155223333Y-103100000D01*
X155156666Y-103133333D01*
X155090000Y-103200000D01*
X155056666Y-103300000D01*
X155056666Y-103366666D01*
X155090000Y-103466666D01*
X155123333Y-103500000D01*
X155756666Y-103800000D02*
X155056666Y-103800000D01*
X155756666Y-104200000D02*
X155356666Y-103900000D01*
X155056666Y-104200000D02*
X155456666Y-103800000D01*
X144723333Y-102400000D02*
X144756666Y-102500000D01*
X144756666Y-102666666D01*
X144723333Y-102733333D01*
X144690000Y-102766666D01*
X144623333Y-102800000D01*
X144556666Y-102800000D01*
X144490000Y-102766666D01*
X144456666Y-102733333D01*
X144423333Y-102666666D01*
X144390000Y-102533333D01*
X144356666Y-102466666D01*
X144323333Y-102433333D01*
X144256666Y-102400000D01*
X144190000Y-102400000D01*
X144123333Y-102433333D01*
X144090000Y-102466666D01*
X144056666Y-102533333D01*
X144056666Y-102700000D01*
X144090000Y-102800000D01*
X144690000Y-103500000D02*
X144723333Y-103466666D01*
X144756666Y-103366666D01*
X144756666Y-103300000D01*
X144723333Y-103200000D01*
X144656666Y-103133333D01*
X144590000Y-103100000D01*
X144456666Y-103066666D01*
X144356666Y-103066666D01*
X144223333Y-103100000D01*
X144156666Y-103133333D01*
X144090000Y-103200000D01*
X144056666Y-103300000D01*
X144056666Y-103366666D01*
X144090000Y-103466666D01*
X144123333Y-103500000D01*
X144756666Y-103800000D02*
X144056666Y-103800000D01*
X144756666Y-104200000D02*
X144356666Y-103900000D01*
X144056666Y-104200000D02*
X144456666Y-103800000D01*
X133723333Y-102400000D02*
X133756666Y-102500000D01*
X133756666Y-102666666D01*
X133723333Y-102733333D01*
X133690000Y-102766666D01*
X133623333Y-102800000D01*
X133556666Y-102800000D01*
X133490000Y-102766666D01*
X133456666Y-102733333D01*
X133423333Y-102666666D01*
X133390000Y-102533333D01*
X133356666Y-102466666D01*
X133323333Y-102433333D01*
X133256666Y-102400000D01*
X133190000Y-102400000D01*
X133123333Y-102433333D01*
X133090000Y-102466666D01*
X133056666Y-102533333D01*
X133056666Y-102700000D01*
X133090000Y-102800000D01*
X133690000Y-103500000D02*
X133723333Y-103466666D01*
X133756666Y-103366666D01*
X133756666Y-103300000D01*
X133723333Y-103200000D01*
X133656666Y-103133333D01*
X133590000Y-103100000D01*
X133456666Y-103066666D01*
X133356666Y-103066666D01*
X133223333Y-103100000D01*
X133156666Y-103133333D01*
X133090000Y-103200000D01*
X133056666Y-103300000D01*
X133056666Y-103366666D01*
X133090000Y-103466666D01*
X133123333Y-103500000D01*
X133756666Y-103800000D02*
X133056666Y-103800000D01*
X133756666Y-104200000D02*
X133356666Y-103900000D01*
X133056666Y-104200000D02*
X133456666Y-103800000D01*
X166723333Y-92400000D02*
X166756666Y-92500000D01*
X166756666Y-92666666D01*
X166723333Y-92733333D01*
X166690000Y-92766666D01*
X166623333Y-92800000D01*
X166556666Y-92800000D01*
X166490000Y-92766666D01*
X166456666Y-92733333D01*
X166423333Y-92666666D01*
X166390000Y-92533333D01*
X166356666Y-92466666D01*
X166323333Y-92433333D01*
X166256666Y-92400000D01*
X166190000Y-92400000D01*
X166123333Y-92433333D01*
X166090000Y-92466666D01*
X166056666Y-92533333D01*
X166056666Y-92700000D01*
X166090000Y-92800000D01*
X166690000Y-93500000D02*
X166723333Y-93466666D01*
X166756666Y-93366666D01*
X166756666Y-93300000D01*
X166723333Y-93200000D01*
X166656666Y-93133333D01*
X166590000Y-93100000D01*
X166456666Y-93066666D01*
X166356666Y-93066666D01*
X166223333Y-93100000D01*
X166156666Y-93133333D01*
X166090000Y-93200000D01*
X166056666Y-93300000D01*
X166056666Y-93366666D01*
X166090000Y-93466666D01*
X166123333Y-93500000D01*
X166756666Y-93800000D02*
X166056666Y-93800000D01*
X166756666Y-94200000D02*
X166356666Y-93900000D01*
X166056666Y-94200000D02*
X166456666Y-93800000D01*
X155723333Y-92400000D02*
X155756666Y-92500000D01*
X155756666Y-92666666D01*
X155723333Y-92733333D01*
X155690000Y-92766666D01*
X155623333Y-92800000D01*
X155556666Y-92800000D01*
X155490000Y-92766666D01*
X155456666Y-92733333D01*
X155423333Y-92666666D01*
X155390000Y-92533333D01*
X155356666Y-92466666D01*
X155323333Y-92433333D01*
X155256666Y-92400000D01*
X155190000Y-92400000D01*
X155123333Y-92433333D01*
X155090000Y-92466666D01*
X155056666Y-92533333D01*
X155056666Y-92700000D01*
X155090000Y-92800000D01*
X155690000Y-93500000D02*
X155723333Y-93466666D01*
X155756666Y-93366666D01*
X155756666Y-93300000D01*
X155723333Y-93200000D01*
X155656666Y-93133333D01*
X155590000Y-93100000D01*
X155456666Y-93066666D01*
X155356666Y-93066666D01*
X155223333Y-93100000D01*
X155156666Y-93133333D01*
X155090000Y-93200000D01*
X155056666Y-93300000D01*
X155056666Y-93366666D01*
X155090000Y-93466666D01*
X155123333Y-93500000D01*
X155756666Y-93800000D02*
X155056666Y-93800000D01*
X155756666Y-94200000D02*
X155356666Y-93900000D01*
X155056666Y-94200000D02*
X155456666Y-93800000D01*
X144723333Y-92400000D02*
X144756666Y-92500000D01*
X144756666Y-92666666D01*
X144723333Y-92733333D01*
X144690000Y-92766666D01*
X144623333Y-92800000D01*
X144556666Y-92800000D01*
X144490000Y-92766666D01*
X144456666Y-92733333D01*
X144423333Y-92666666D01*
X144390000Y-92533333D01*
X144356666Y-92466666D01*
X144323333Y-92433333D01*
X144256666Y-92400000D01*
X144190000Y-92400000D01*
X144123333Y-92433333D01*
X144090000Y-92466666D01*
X144056666Y-92533333D01*
X144056666Y-92700000D01*
X144090000Y-92800000D01*
X144690000Y-93500000D02*
X144723333Y-93466666D01*
X144756666Y-93366666D01*
X144756666Y-93300000D01*
X144723333Y-93200000D01*
X144656666Y-93133333D01*
X144590000Y-93100000D01*
X144456666Y-93066666D01*
X144356666Y-93066666D01*
X144223333Y-93100000D01*
X144156666Y-93133333D01*
X144090000Y-93200000D01*
X144056666Y-93300000D01*
X144056666Y-93366666D01*
X144090000Y-93466666D01*
X144123333Y-93500000D01*
X144756666Y-93800000D02*
X144056666Y-93800000D01*
X144756666Y-94200000D02*
X144356666Y-93900000D01*
X144056666Y-94200000D02*
X144456666Y-93800000D01*
X133723333Y-92400000D02*
X133756666Y-92500000D01*
X133756666Y-92666666D01*
X133723333Y-92733333D01*
X133690000Y-92766666D01*
X133623333Y-92800000D01*
X133556666Y-92800000D01*
X133490000Y-92766666D01*
X133456666Y-92733333D01*
X133423333Y-92666666D01*
X133390000Y-92533333D01*
X133356666Y-92466666D01*
X133323333Y-92433333D01*
X133256666Y-92400000D01*
X133190000Y-92400000D01*
X133123333Y-92433333D01*
X133090000Y-92466666D01*
X133056666Y-92533333D01*
X133056666Y-92700000D01*
X133090000Y-92800000D01*
X133690000Y-93500000D02*
X133723333Y-93466666D01*
X133756666Y-93366666D01*
X133756666Y-93300000D01*
X133723333Y-93200000D01*
X133656666Y-93133333D01*
X133590000Y-93100000D01*
X133456666Y-93066666D01*
X133356666Y-93066666D01*
X133223333Y-93100000D01*
X133156666Y-93133333D01*
X133090000Y-93200000D01*
X133056666Y-93300000D01*
X133056666Y-93366666D01*
X133090000Y-93466666D01*
X133123333Y-93500000D01*
X133756666Y-93800000D02*
X133056666Y-93800000D01*
X133756666Y-94200000D02*
X133356666Y-93900000D01*
X133056666Y-94200000D02*
X133456666Y-93800000D01*
X166723333Y-82400000D02*
X166756666Y-82500000D01*
X166756666Y-82666666D01*
X166723333Y-82733333D01*
X166690000Y-82766666D01*
X166623333Y-82800000D01*
X166556666Y-82800000D01*
X166490000Y-82766666D01*
X166456666Y-82733333D01*
X166423333Y-82666666D01*
X166390000Y-82533333D01*
X166356666Y-82466666D01*
X166323333Y-82433333D01*
X166256666Y-82400000D01*
X166190000Y-82400000D01*
X166123333Y-82433333D01*
X166090000Y-82466666D01*
X166056666Y-82533333D01*
X166056666Y-82700000D01*
X166090000Y-82800000D01*
X166690000Y-83500000D02*
X166723333Y-83466666D01*
X166756666Y-83366666D01*
X166756666Y-83300000D01*
X166723333Y-83200000D01*
X166656666Y-83133333D01*
X166590000Y-83100000D01*
X166456666Y-83066666D01*
X166356666Y-83066666D01*
X166223333Y-83100000D01*
X166156666Y-83133333D01*
X166090000Y-83200000D01*
X166056666Y-83300000D01*
X166056666Y-83366666D01*
X166090000Y-83466666D01*
X166123333Y-83500000D01*
X166756666Y-83800000D02*
X166056666Y-83800000D01*
X166756666Y-84200000D02*
X166356666Y-83900000D01*
X166056666Y-84200000D02*
X166456666Y-83800000D01*
X155723333Y-82400000D02*
X155756666Y-82500000D01*
X155756666Y-82666666D01*
X155723333Y-82733333D01*
X155690000Y-82766666D01*
X155623333Y-82800000D01*
X155556666Y-82800000D01*
X155490000Y-82766666D01*
X155456666Y-82733333D01*
X155423333Y-82666666D01*
X155390000Y-82533333D01*
X155356666Y-82466666D01*
X155323333Y-82433333D01*
X155256666Y-82400000D01*
X155190000Y-82400000D01*
X155123333Y-82433333D01*
X155090000Y-82466666D01*
X155056666Y-82533333D01*
X155056666Y-82700000D01*
X155090000Y-82800000D01*
X155690000Y-83500000D02*
X155723333Y-83466666D01*
X155756666Y-83366666D01*
X155756666Y-83300000D01*
X155723333Y-83200000D01*
X155656666Y-83133333D01*
X155590000Y-83100000D01*
X155456666Y-83066666D01*
X155356666Y-83066666D01*
X155223333Y-83100000D01*
X155156666Y-83133333D01*
X155090000Y-83200000D01*
X155056666Y-83300000D01*
X155056666Y-83366666D01*
X155090000Y-83466666D01*
X155123333Y-83500000D01*
X155756666Y-83800000D02*
X155056666Y-83800000D01*
X155756666Y-84200000D02*
X155356666Y-83900000D01*
X155056666Y-84200000D02*
X155456666Y-83800000D01*
X144723333Y-82400000D02*
X144756666Y-82500000D01*
X144756666Y-82666666D01*
X144723333Y-82733333D01*
X144690000Y-82766666D01*
X144623333Y-82800000D01*
X144556666Y-82800000D01*
X144490000Y-82766666D01*
X144456666Y-82733333D01*
X144423333Y-82666666D01*
X144390000Y-82533333D01*
X144356666Y-82466666D01*
X144323333Y-82433333D01*
X144256666Y-82400000D01*
X144190000Y-82400000D01*
X144123333Y-82433333D01*
X144090000Y-82466666D01*
X144056666Y-82533333D01*
X144056666Y-82700000D01*
X144090000Y-82800000D01*
X144690000Y-83500000D02*
X144723333Y-83466666D01*
X144756666Y-83366666D01*
X144756666Y-83300000D01*
X144723333Y-83200000D01*
X144656666Y-83133333D01*
X144590000Y-83100000D01*
X144456666Y-83066666D01*
X144356666Y-83066666D01*
X144223333Y-83100000D01*
X144156666Y-83133333D01*
X144090000Y-83200000D01*
X144056666Y-83300000D01*
X144056666Y-83366666D01*
X144090000Y-83466666D01*
X144123333Y-83500000D01*
X144756666Y-83800000D02*
X144056666Y-83800000D01*
X144756666Y-84200000D02*
X144356666Y-83900000D01*
X144056666Y-84200000D02*
X144456666Y-83800000D01*
X133723333Y-82400000D02*
X133756666Y-82500000D01*
X133756666Y-82666666D01*
X133723333Y-82733333D01*
X133690000Y-82766666D01*
X133623333Y-82800000D01*
X133556666Y-82800000D01*
X133490000Y-82766666D01*
X133456666Y-82733333D01*
X133423333Y-82666666D01*
X133390000Y-82533333D01*
X133356666Y-82466666D01*
X133323333Y-82433333D01*
X133256666Y-82400000D01*
X133190000Y-82400000D01*
X133123333Y-82433333D01*
X133090000Y-82466666D01*
X133056666Y-82533333D01*
X133056666Y-82700000D01*
X133090000Y-82800000D01*
X133690000Y-83500000D02*
X133723333Y-83466666D01*
X133756666Y-83366666D01*
X133756666Y-83300000D01*
X133723333Y-83200000D01*
X133656666Y-83133333D01*
X133590000Y-83100000D01*
X133456666Y-83066666D01*
X133356666Y-83066666D01*
X133223333Y-83100000D01*
X133156666Y-83133333D01*
X133090000Y-83200000D01*
X133056666Y-83300000D01*
X133056666Y-83366666D01*
X133090000Y-83466666D01*
X133123333Y-83500000D01*
X133756666Y-83800000D02*
X133056666Y-83800000D01*
X133756666Y-84200000D02*
X133356666Y-83900000D01*
X133056666Y-84200000D02*
X133456666Y-83800000D01*
X166723333Y-72400000D02*
X166756666Y-72500000D01*
X166756666Y-72666666D01*
X166723333Y-72733333D01*
X166690000Y-72766666D01*
X166623333Y-72800000D01*
X166556666Y-72800000D01*
X166490000Y-72766666D01*
X166456666Y-72733333D01*
X166423333Y-72666666D01*
X166390000Y-72533333D01*
X166356666Y-72466666D01*
X166323333Y-72433333D01*
X166256666Y-72400000D01*
X166190000Y-72400000D01*
X166123333Y-72433333D01*
X166090000Y-72466666D01*
X166056666Y-72533333D01*
X166056666Y-72700000D01*
X166090000Y-72800000D01*
X166690000Y-73500000D02*
X166723333Y-73466666D01*
X166756666Y-73366666D01*
X166756666Y-73300000D01*
X166723333Y-73200000D01*
X166656666Y-73133333D01*
X166590000Y-73100000D01*
X166456666Y-73066666D01*
X166356666Y-73066666D01*
X166223333Y-73100000D01*
X166156666Y-73133333D01*
X166090000Y-73200000D01*
X166056666Y-73300000D01*
X166056666Y-73366666D01*
X166090000Y-73466666D01*
X166123333Y-73500000D01*
X166756666Y-73800000D02*
X166056666Y-73800000D01*
X166756666Y-74200000D02*
X166356666Y-73900000D01*
X166056666Y-74200000D02*
X166456666Y-73800000D01*
X155723333Y-72400000D02*
X155756666Y-72500000D01*
X155756666Y-72666666D01*
X155723333Y-72733333D01*
X155690000Y-72766666D01*
X155623333Y-72800000D01*
X155556666Y-72800000D01*
X155490000Y-72766666D01*
X155456666Y-72733333D01*
X155423333Y-72666666D01*
X155390000Y-72533333D01*
X155356666Y-72466666D01*
X155323333Y-72433333D01*
X155256666Y-72400000D01*
X155190000Y-72400000D01*
X155123333Y-72433333D01*
X155090000Y-72466666D01*
X155056666Y-72533333D01*
X155056666Y-72700000D01*
X155090000Y-72800000D01*
X155690000Y-73500000D02*
X155723333Y-73466666D01*
X155756666Y-73366666D01*
X155756666Y-73300000D01*
X155723333Y-73200000D01*
X155656666Y-73133333D01*
X155590000Y-73100000D01*
X155456666Y-73066666D01*
X155356666Y-73066666D01*
X155223333Y-73100000D01*
X155156666Y-73133333D01*
X155090000Y-73200000D01*
X155056666Y-73300000D01*
X155056666Y-73366666D01*
X155090000Y-73466666D01*
X155123333Y-73500000D01*
X155756666Y-73800000D02*
X155056666Y-73800000D01*
X155756666Y-74200000D02*
X155356666Y-73900000D01*
X155056666Y-74200000D02*
X155456666Y-73800000D01*
X144723333Y-72400000D02*
X144756666Y-72500000D01*
X144756666Y-72666666D01*
X144723333Y-72733333D01*
X144690000Y-72766666D01*
X144623333Y-72800000D01*
X144556666Y-72800000D01*
X144490000Y-72766666D01*
X144456666Y-72733333D01*
X144423333Y-72666666D01*
X144390000Y-72533333D01*
X144356666Y-72466666D01*
X144323333Y-72433333D01*
X144256666Y-72400000D01*
X144190000Y-72400000D01*
X144123333Y-72433333D01*
X144090000Y-72466666D01*
X144056666Y-72533333D01*
X144056666Y-72700000D01*
X144090000Y-72800000D01*
X144690000Y-73500000D02*
X144723333Y-73466666D01*
X144756666Y-73366666D01*
X144756666Y-73300000D01*
X144723333Y-73200000D01*
X144656666Y-73133333D01*
X144590000Y-73100000D01*
X144456666Y-73066666D01*
X144356666Y-73066666D01*
X144223333Y-73100000D01*
X144156666Y-73133333D01*
X144090000Y-73200000D01*
X144056666Y-73300000D01*
X144056666Y-73366666D01*
X144090000Y-73466666D01*
X144123333Y-73500000D01*
X144756666Y-73800000D02*
X144056666Y-73800000D01*
X144756666Y-74200000D02*
X144356666Y-73900000D01*
X144056666Y-74200000D02*
X144456666Y-73800000D01*
X165453333Y-102383333D02*
X165486666Y-102483333D01*
X165486666Y-102650000D01*
X165453333Y-102716666D01*
X165420000Y-102750000D01*
X165353333Y-102783333D01*
X165286666Y-102783333D01*
X165220000Y-102750000D01*
X165186666Y-102716666D01*
X165153333Y-102650000D01*
X165120000Y-102516666D01*
X165086666Y-102450000D01*
X165053333Y-102416666D01*
X164986666Y-102383333D01*
X164920000Y-102383333D01*
X164853333Y-102416666D01*
X164820000Y-102450000D01*
X164786666Y-102516666D01*
X164786666Y-102683333D01*
X164820000Y-102783333D01*
X165486666Y-103083333D02*
X164786666Y-103083333D01*
X164786666Y-103250000D01*
X164820000Y-103350000D01*
X164886666Y-103416666D01*
X164953333Y-103450000D01*
X165086666Y-103483333D01*
X165186666Y-103483333D01*
X165320000Y-103450000D01*
X165386666Y-103416666D01*
X165453333Y-103350000D01*
X165486666Y-103250000D01*
X165486666Y-103083333D01*
X164786666Y-103916666D02*
X164786666Y-104050000D01*
X164820000Y-104116666D01*
X164886666Y-104183333D01*
X165020000Y-104216666D01*
X165253333Y-104216666D01*
X165386666Y-104183333D01*
X165453333Y-104116666D01*
X165486666Y-104050000D01*
X165486666Y-103916666D01*
X165453333Y-103850000D01*
X165386666Y-103783333D01*
X165253333Y-103750000D01*
X165020000Y-103750000D01*
X164886666Y-103783333D01*
X164820000Y-103850000D01*
X164786666Y-103916666D01*
X154453333Y-102383333D02*
X154486666Y-102483333D01*
X154486666Y-102650000D01*
X154453333Y-102716666D01*
X154420000Y-102750000D01*
X154353333Y-102783333D01*
X154286666Y-102783333D01*
X154220000Y-102750000D01*
X154186666Y-102716666D01*
X154153333Y-102650000D01*
X154120000Y-102516666D01*
X154086666Y-102450000D01*
X154053333Y-102416666D01*
X153986666Y-102383333D01*
X153920000Y-102383333D01*
X153853333Y-102416666D01*
X153820000Y-102450000D01*
X153786666Y-102516666D01*
X153786666Y-102683333D01*
X153820000Y-102783333D01*
X154486666Y-103083333D02*
X153786666Y-103083333D01*
X153786666Y-103250000D01*
X153820000Y-103350000D01*
X153886666Y-103416666D01*
X153953333Y-103450000D01*
X154086666Y-103483333D01*
X154186666Y-103483333D01*
X154320000Y-103450000D01*
X154386666Y-103416666D01*
X154453333Y-103350000D01*
X154486666Y-103250000D01*
X154486666Y-103083333D01*
X153786666Y-103916666D02*
X153786666Y-104050000D01*
X153820000Y-104116666D01*
X153886666Y-104183333D01*
X154020000Y-104216666D01*
X154253333Y-104216666D01*
X154386666Y-104183333D01*
X154453333Y-104116666D01*
X154486666Y-104050000D01*
X154486666Y-103916666D01*
X154453333Y-103850000D01*
X154386666Y-103783333D01*
X154253333Y-103750000D01*
X154020000Y-103750000D01*
X153886666Y-103783333D01*
X153820000Y-103850000D01*
X153786666Y-103916666D01*
X143453333Y-102383333D02*
X143486666Y-102483333D01*
X143486666Y-102650000D01*
X143453333Y-102716666D01*
X143420000Y-102750000D01*
X143353333Y-102783333D01*
X143286666Y-102783333D01*
X143220000Y-102750000D01*
X143186666Y-102716666D01*
X143153333Y-102650000D01*
X143120000Y-102516666D01*
X143086666Y-102450000D01*
X143053333Y-102416666D01*
X142986666Y-102383333D01*
X142920000Y-102383333D01*
X142853333Y-102416666D01*
X142820000Y-102450000D01*
X142786666Y-102516666D01*
X142786666Y-102683333D01*
X142820000Y-102783333D01*
X143486666Y-103083333D02*
X142786666Y-103083333D01*
X142786666Y-103250000D01*
X142820000Y-103350000D01*
X142886666Y-103416666D01*
X142953333Y-103450000D01*
X143086666Y-103483333D01*
X143186666Y-103483333D01*
X143320000Y-103450000D01*
X143386666Y-103416666D01*
X143453333Y-103350000D01*
X143486666Y-103250000D01*
X143486666Y-103083333D01*
X142786666Y-103916666D02*
X142786666Y-104050000D01*
X142820000Y-104116666D01*
X142886666Y-104183333D01*
X143020000Y-104216666D01*
X143253333Y-104216666D01*
X143386666Y-104183333D01*
X143453333Y-104116666D01*
X143486666Y-104050000D01*
X143486666Y-103916666D01*
X143453333Y-103850000D01*
X143386666Y-103783333D01*
X143253333Y-103750000D01*
X143020000Y-103750000D01*
X142886666Y-103783333D01*
X142820000Y-103850000D01*
X142786666Y-103916666D01*
X132453333Y-102383333D02*
X132486666Y-102483333D01*
X132486666Y-102650000D01*
X132453333Y-102716666D01*
X132420000Y-102750000D01*
X132353333Y-102783333D01*
X132286666Y-102783333D01*
X132220000Y-102750000D01*
X132186666Y-102716666D01*
X132153333Y-102650000D01*
X132120000Y-102516666D01*
X132086666Y-102450000D01*
X132053333Y-102416666D01*
X131986666Y-102383333D01*
X131920000Y-102383333D01*
X131853333Y-102416666D01*
X131820000Y-102450000D01*
X131786666Y-102516666D01*
X131786666Y-102683333D01*
X131820000Y-102783333D01*
X132486666Y-103083333D02*
X131786666Y-103083333D01*
X131786666Y-103250000D01*
X131820000Y-103350000D01*
X131886666Y-103416666D01*
X131953333Y-103450000D01*
X132086666Y-103483333D01*
X132186666Y-103483333D01*
X132320000Y-103450000D01*
X132386666Y-103416666D01*
X132453333Y-103350000D01*
X132486666Y-103250000D01*
X132486666Y-103083333D01*
X131786666Y-103916666D02*
X131786666Y-104050000D01*
X131820000Y-104116666D01*
X131886666Y-104183333D01*
X132020000Y-104216666D01*
X132253333Y-104216666D01*
X132386666Y-104183333D01*
X132453333Y-104116666D01*
X132486666Y-104050000D01*
X132486666Y-103916666D01*
X132453333Y-103850000D01*
X132386666Y-103783333D01*
X132253333Y-103750000D01*
X132020000Y-103750000D01*
X131886666Y-103783333D01*
X131820000Y-103850000D01*
X131786666Y-103916666D01*
X165453333Y-92383333D02*
X165486666Y-92483333D01*
X165486666Y-92650000D01*
X165453333Y-92716666D01*
X165420000Y-92750000D01*
X165353333Y-92783333D01*
X165286666Y-92783333D01*
X165220000Y-92750000D01*
X165186666Y-92716666D01*
X165153333Y-92650000D01*
X165120000Y-92516666D01*
X165086666Y-92450000D01*
X165053333Y-92416666D01*
X164986666Y-92383333D01*
X164920000Y-92383333D01*
X164853333Y-92416666D01*
X164820000Y-92450000D01*
X164786666Y-92516666D01*
X164786666Y-92683333D01*
X164820000Y-92783333D01*
X165486666Y-93083333D02*
X164786666Y-93083333D01*
X164786666Y-93250000D01*
X164820000Y-93350000D01*
X164886666Y-93416666D01*
X164953333Y-93450000D01*
X165086666Y-93483333D01*
X165186666Y-93483333D01*
X165320000Y-93450000D01*
X165386666Y-93416666D01*
X165453333Y-93350000D01*
X165486666Y-93250000D01*
X165486666Y-93083333D01*
X164786666Y-93916666D02*
X164786666Y-94050000D01*
X164820000Y-94116666D01*
X164886666Y-94183333D01*
X165020000Y-94216666D01*
X165253333Y-94216666D01*
X165386666Y-94183333D01*
X165453333Y-94116666D01*
X165486666Y-94050000D01*
X165486666Y-93916666D01*
X165453333Y-93850000D01*
X165386666Y-93783333D01*
X165253333Y-93750000D01*
X165020000Y-93750000D01*
X164886666Y-93783333D01*
X164820000Y-93850000D01*
X164786666Y-93916666D01*
X154453333Y-92383333D02*
X154486666Y-92483333D01*
X154486666Y-92650000D01*
X154453333Y-92716666D01*
X154420000Y-92750000D01*
X154353333Y-92783333D01*
X154286666Y-92783333D01*
X154220000Y-92750000D01*
X154186666Y-92716666D01*
X154153333Y-92650000D01*
X154120000Y-92516666D01*
X154086666Y-92450000D01*
X154053333Y-92416666D01*
X153986666Y-92383333D01*
X153920000Y-92383333D01*
X153853333Y-92416666D01*
X153820000Y-92450000D01*
X153786666Y-92516666D01*
X153786666Y-92683333D01*
X153820000Y-92783333D01*
X154486666Y-93083333D02*
X153786666Y-93083333D01*
X153786666Y-93250000D01*
X153820000Y-93350000D01*
X153886666Y-93416666D01*
X153953333Y-93450000D01*
X154086666Y-93483333D01*
X154186666Y-93483333D01*
X154320000Y-93450000D01*
X154386666Y-93416666D01*
X154453333Y-93350000D01*
X154486666Y-93250000D01*
X154486666Y-93083333D01*
X153786666Y-93916666D02*
X153786666Y-94050000D01*
X153820000Y-94116666D01*
X153886666Y-94183333D01*
X154020000Y-94216666D01*
X154253333Y-94216666D01*
X154386666Y-94183333D01*
X154453333Y-94116666D01*
X154486666Y-94050000D01*
X154486666Y-93916666D01*
X154453333Y-93850000D01*
X154386666Y-93783333D01*
X154253333Y-93750000D01*
X154020000Y-93750000D01*
X153886666Y-93783333D01*
X153820000Y-93850000D01*
X153786666Y-93916666D01*
X143453333Y-92383333D02*
X143486666Y-92483333D01*
X143486666Y-92650000D01*
X143453333Y-92716666D01*
X143420000Y-92750000D01*
X143353333Y-92783333D01*
X143286666Y-92783333D01*
X143220000Y-92750000D01*
X143186666Y-92716666D01*
X143153333Y-92650000D01*
X143120000Y-92516666D01*
X143086666Y-92450000D01*
X143053333Y-92416666D01*
X142986666Y-92383333D01*
X142920000Y-92383333D01*
X142853333Y-92416666D01*
X142820000Y-92450000D01*
X142786666Y-92516666D01*
X142786666Y-92683333D01*
X142820000Y-92783333D01*
X143486666Y-93083333D02*
X142786666Y-93083333D01*
X142786666Y-93250000D01*
X142820000Y-93350000D01*
X142886666Y-93416666D01*
X142953333Y-93450000D01*
X143086666Y-93483333D01*
X143186666Y-93483333D01*
X143320000Y-93450000D01*
X143386666Y-93416666D01*
X143453333Y-93350000D01*
X143486666Y-93250000D01*
X143486666Y-93083333D01*
X142786666Y-93916666D02*
X142786666Y-94050000D01*
X142820000Y-94116666D01*
X142886666Y-94183333D01*
X143020000Y-94216666D01*
X143253333Y-94216666D01*
X143386666Y-94183333D01*
X143453333Y-94116666D01*
X143486666Y-94050000D01*
X143486666Y-93916666D01*
X143453333Y-93850000D01*
X143386666Y-93783333D01*
X143253333Y-93750000D01*
X143020000Y-93750000D01*
X142886666Y-93783333D01*
X142820000Y-93850000D01*
X142786666Y-93916666D01*
X132453333Y-92383333D02*
X132486666Y-92483333D01*
X132486666Y-92650000D01*
X132453333Y-92716666D01*
X132420000Y-92750000D01*
X132353333Y-92783333D01*
X132286666Y-92783333D01*
X132220000Y-92750000D01*
X132186666Y-92716666D01*
X132153333Y-92650000D01*
X132120000Y-92516666D01*
X132086666Y-92450000D01*
X132053333Y-92416666D01*
X131986666Y-92383333D01*
X131920000Y-92383333D01*
X131853333Y-92416666D01*
X131820000Y-92450000D01*
X131786666Y-92516666D01*
X131786666Y-92683333D01*
X131820000Y-92783333D01*
X132486666Y-93083333D02*
X131786666Y-93083333D01*
X131786666Y-93250000D01*
X131820000Y-93350000D01*
X131886666Y-93416666D01*
X131953333Y-93450000D01*
X132086666Y-93483333D01*
X132186666Y-93483333D01*
X132320000Y-93450000D01*
X132386666Y-93416666D01*
X132453333Y-93350000D01*
X132486666Y-93250000D01*
X132486666Y-93083333D01*
X131786666Y-93916666D02*
X131786666Y-94050000D01*
X131820000Y-94116666D01*
X131886666Y-94183333D01*
X132020000Y-94216666D01*
X132253333Y-94216666D01*
X132386666Y-94183333D01*
X132453333Y-94116666D01*
X132486666Y-94050000D01*
X132486666Y-93916666D01*
X132453333Y-93850000D01*
X132386666Y-93783333D01*
X132253333Y-93750000D01*
X132020000Y-93750000D01*
X131886666Y-93783333D01*
X131820000Y-93850000D01*
X131786666Y-93916666D01*
X165453333Y-82383333D02*
X165486666Y-82483333D01*
X165486666Y-82650000D01*
X165453333Y-82716666D01*
X165420000Y-82750000D01*
X165353333Y-82783333D01*
X165286666Y-82783333D01*
X165220000Y-82750000D01*
X165186666Y-82716666D01*
X165153333Y-82650000D01*
X165120000Y-82516666D01*
X165086666Y-82450000D01*
X165053333Y-82416666D01*
X164986666Y-82383333D01*
X164920000Y-82383333D01*
X164853333Y-82416666D01*
X164820000Y-82450000D01*
X164786666Y-82516666D01*
X164786666Y-82683333D01*
X164820000Y-82783333D01*
X165486666Y-83083333D02*
X164786666Y-83083333D01*
X164786666Y-83250000D01*
X164820000Y-83350000D01*
X164886666Y-83416666D01*
X164953333Y-83450000D01*
X165086666Y-83483333D01*
X165186666Y-83483333D01*
X165320000Y-83450000D01*
X165386666Y-83416666D01*
X165453333Y-83350000D01*
X165486666Y-83250000D01*
X165486666Y-83083333D01*
X164786666Y-83916666D02*
X164786666Y-84050000D01*
X164820000Y-84116666D01*
X164886666Y-84183333D01*
X165020000Y-84216666D01*
X165253333Y-84216666D01*
X165386666Y-84183333D01*
X165453333Y-84116666D01*
X165486666Y-84050000D01*
X165486666Y-83916666D01*
X165453333Y-83850000D01*
X165386666Y-83783333D01*
X165253333Y-83750000D01*
X165020000Y-83750000D01*
X164886666Y-83783333D01*
X164820000Y-83850000D01*
X164786666Y-83916666D01*
X154453333Y-82383333D02*
X154486666Y-82483333D01*
X154486666Y-82650000D01*
X154453333Y-82716666D01*
X154420000Y-82750000D01*
X154353333Y-82783333D01*
X154286666Y-82783333D01*
X154220000Y-82750000D01*
X154186666Y-82716666D01*
X154153333Y-82650000D01*
X154120000Y-82516666D01*
X154086666Y-82450000D01*
X154053333Y-82416666D01*
X153986666Y-82383333D01*
X153920000Y-82383333D01*
X153853333Y-82416666D01*
X153820000Y-82450000D01*
X153786666Y-82516666D01*
X153786666Y-82683333D01*
X153820000Y-82783333D01*
X154486666Y-83083333D02*
X153786666Y-83083333D01*
X153786666Y-83250000D01*
X153820000Y-83350000D01*
X153886666Y-83416666D01*
X153953333Y-83450000D01*
X154086666Y-83483333D01*
X154186666Y-83483333D01*
X154320000Y-83450000D01*
X154386666Y-83416666D01*
X154453333Y-83350000D01*
X154486666Y-83250000D01*
X154486666Y-83083333D01*
X153786666Y-83916666D02*
X153786666Y-84050000D01*
X153820000Y-84116666D01*
X153886666Y-84183333D01*
X154020000Y-84216666D01*
X154253333Y-84216666D01*
X154386666Y-84183333D01*
X154453333Y-84116666D01*
X154486666Y-84050000D01*
X154486666Y-83916666D01*
X154453333Y-83850000D01*
X154386666Y-83783333D01*
X154253333Y-83750000D01*
X154020000Y-83750000D01*
X153886666Y-83783333D01*
X153820000Y-83850000D01*
X153786666Y-83916666D01*
X143453333Y-82383333D02*
X143486666Y-82483333D01*
X143486666Y-82650000D01*
X143453333Y-82716666D01*
X143420000Y-82750000D01*
X143353333Y-82783333D01*
X143286666Y-82783333D01*
X143220000Y-82750000D01*
X143186666Y-82716666D01*
X143153333Y-82650000D01*
X143120000Y-82516666D01*
X143086666Y-82450000D01*
X143053333Y-82416666D01*
X142986666Y-82383333D01*
X142920000Y-82383333D01*
X142853333Y-82416666D01*
X142820000Y-82450000D01*
X142786666Y-82516666D01*
X142786666Y-82683333D01*
X142820000Y-82783333D01*
X143486666Y-83083333D02*
X142786666Y-83083333D01*
X142786666Y-83250000D01*
X142820000Y-83350000D01*
X142886666Y-83416666D01*
X142953333Y-83450000D01*
X143086666Y-83483333D01*
X143186666Y-83483333D01*
X143320000Y-83450000D01*
X143386666Y-83416666D01*
X143453333Y-83350000D01*
X143486666Y-83250000D01*
X143486666Y-83083333D01*
X142786666Y-83916666D02*
X142786666Y-84050000D01*
X142820000Y-84116666D01*
X142886666Y-84183333D01*
X143020000Y-84216666D01*
X143253333Y-84216666D01*
X143386666Y-84183333D01*
X143453333Y-84116666D01*
X143486666Y-84050000D01*
X143486666Y-83916666D01*
X143453333Y-83850000D01*
X143386666Y-83783333D01*
X143253333Y-83750000D01*
X143020000Y-83750000D01*
X142886666Y-83783333D01*
X142820000Y-83850000D01*
X142786666Y-83916666D01*
X132453333Y-82383333D02*
X132486666Y-82483333D01*
X132486666Y-82650000D01*
X132453333Y-82716666D01*
X132420000Y-82750000D01*
X132353333Y-82783333D01*
X132286666Y-82783333D01*
X132220000Y-82750000D01*
X132186666Y-82716666D01*
X132153333Y-82650000D01*
X132120000Y-82516666D01*
X132086666Y-82450000D01*
X132053333Y-82416666D01*
X131986666Y-82383333D01*
X131920000Y-82383333D01*
X131853333Y-82416666D01*
X131820000Y-82450000D01*
X131786666Y-82516666D01*
X131786666Y-82683333D01*
X131820000Y-82783333D01*
X132486666Y-83083333D02*
X131786666Y-83083333D01*
X131786666Y-83250000D01*
X131820000Y-83350000D01*
X131886666Y-83416666D01*
X131953333Y-83450000D01*
X132086666Y-83483333D01*
X132186666Y-83483333D01*
X132320000Y-83450000D01*
X132386666Y-83416666D01*
X132453333Y-83350000D01*
X132486666Y-83250000D01*
X132486666Y-83083333D01*
X131786666Y-83916666D02*
X131786666Y-84050000D01*
X131820000Y-84116666D01*
X131886666Y-84183333D01*
X132020000Y-84216666D01*
X132253333Y-84216666D01*
X132386666Y-84183333D01*
X132453333Y-84116666D01*
X132486666Y-84050000D01*
X132486666Y-83916666D01*
X132453333Y-83850000D01*
X132386666Y-83783333D01*
X132253333Y-83750000D01*
X132020000Y-83750000D01*
X131886666Y-83783333D01*
X131820000Y-83850000D01*
X131786666Y-83916666D01*
X165453333Y-72383333D02*
X165486666Y-72483333D01*
X165486666Y-72650000D01*
X165453333Y-72716666D01*
X165420000Y-72750000D01*
X165353333Y-72783333D01*
X165286666Y-72783333D01*
X165220000Y-72750000D01*
X165186666Y-72716666D01*
X165153333Y-72650000D01*
X165120000Y-72516666D01*
X165086666Y-72450000D01*
X165053333Y-72416666D01*
X164986666Y-72383333D01*
X164920000Y-72383333D01*
X164853333Y-72416666D01*
X164820000Y-72450000D01*
X164786666Y-72516666D01*
X164786666Y-72683333D01*
X164820000Y-72783333D01*
X165486666Y-73083333D02*
X164786666Y-73083333D01*
X164786666Y-73250000D01*
X164820000Y-73350000D01*
X164886666Y-73416666D01*
X164953333Y-73450000D01*
X165086666Y-73483333D01*
X165186666Y-73483333D01*
X165320000Y-73450000D01*
X165386666Y-73416666D01*
X165453333Y-73350000D01*
X165486666Y-73250000D01*
X165486666Y-73083333D01*
X164786666Y-73916666D02*
X164786666Y-74050000D01*
X164820000Y-74116666D01*
X164886666Y-74183333D01*
X165020000Y-74216666D01*
X165253333Y-74216666D01*
X165386666Y-74183333D01*
X165453333Y-74116666D01*
X165486666Y-74050000D01*
X165486666Y-73916666D01*
X165453333Y-73850000D01*
X165386666Y-73783333D01*
X165253333Y-73750000D01*
X165020000Y-73750000D01*
X164886666Y-73783333D01*
X164820000Y-73850000D01*
X164786666Y-73916666D01*
X154453333Y-72383333D02*
X154486666Y-72483333D01*
X154486666Y-72650000D01*
X154453333Y-72716666D01*
X154420000Y-72750000D01*
X154353333Y-72783333D01*
X154286666Y-72783333D01*
X154220000Y-72750000D01*
X154186666Y-72716666D01*
X154153333Y-72650000D01*
X154120000Y-72516666D01*
X154086666Y-72450000D01*
X154053333Y-72416666D01*
X153986666Y-72383333D01*
X153920000Y-72383333D01*
X153853333Y-72416666D01*
X153820000Y-72450000D01*
X153786666Y-72516666D01*
X153786666Y-72683333D01*
X153820000Y-72783333D01*
X154486666Y-73083333D02*
X153786666Y-73083333D01*
X153786666Y-73250000D01*
X153820000Y-73350000D01*
X153886666Y-73416666D01*
X153953333Y-73450000D01*
X154086666Y-73483333D01*
X154186666Y-73483333D01*
X154320000Y-73450000D01*
X154386666Y-73416666D01*
X154453333Y-73350000D01*
X154486666Y-73250000D01*
X154486666Y-73083333D01*
X153786666Y-73916666D02*
X153786666Y-74050000D01*
X153820000Y-74116666D01*
X153886666Y-74183333D01*
X154020000Y-74216666D01*
X154253333Y-74216666D01*
X154386666Y-74183333D01*
X154453333Y-74116666D01*
X154486666Y-74050000D01*
X154486666Y-73916666D01*
X154453333Y-73850000D01*
X154386666Y-73783333D01*
X154253333Y-73750000D01*
X154020000Y-73750000D01*
X153886666Y-73783333D01*
X153820000Y-73850000D01*
X153786666Y-73916666D01*
X143453333Y-72383333D02*
X143486666Y-72483333D01*
X143486666Y-72650000D01*
X143453333Y-72716666D01*
X143420000Y-72750000D01*
X143353333Y-72783333D01*
X143286666Y-72783333D01*
X143220000Y-72750000D01*
X143186666Y-72716666D01*
X143153333Y-72650000D01*
X143120000Y-72516666D01*
X143086666Y-72450000D01*
X143053333Y-72416666D01*
X142986666Y-72383333D01*
X142920000Y-72383333D01*
X142853333Y-72416666D01*
X142820000Y-72450000D01*
X142786666Y-72516666D01*
X142786666Y-72683333D01*
X142820000Y-72783333D01*
X143486666Y-73083333D02*
X142786666Y-73083333D01*
X142786666Y-73250000D01*
X142820000Y-73350000D01*
X142886666Y-73416666D01*
X142953333Y-73450000D01*
X143086666Y-73483333D01*
X143186666Y-73483333D01*
X143320000Y-73450000D01*
X143386666Y-73416666D01*
X143453333Y-73350000D01*
X143486666Y-73250000D01*
X143486666Y-73083333D01*
X142786666Y-73916666D02*
X142786666Y-74050000D01*
X142820000Y-74116666D01*
X142886666Y-74183333D01*
X143020000Y-74216666D01*
X143253333Y-74216666D01*
X143386666Y-74183333D01*
X143453333Y-74116666D01*
X143486666Y-74050000D01*
X143486666Y-73916666D01*
X143453333Y-73850000D01*
X143386666Y-73783333D01*
X143253333Y-73750000D01*
X143020000Y-73750000D01*
X142886666Y-73783333D01*
X142820000Y-73850000D01*
X142786666Y-73916666D01*
X135596666Y-72266666D02*
X135596666Y-72700000D01*
X135863333Y-72466666D01*
X135863333Y-72566666D01*
X135896666Y-72633333D01*
X135930000Y-72666666D01*
X135996666Y-72700000D01*
X136163333Y-72700000D01*
X136230000Y-72666666D01*
X136263333Y-72633333D01*
X136296666Y-72566666D01*
X136296666Y-72366666D01*
X136263333Y-72300000D01*
X136230000Y-72266666D01*
X136230000Y-73000000D02*
X136263333Y-73033333D01*
X136296666Y-73000000D01*
X136263333Y-72966666D01*
X136230000Y-73000000D01*
X136296666Y-73000000D01*
X135596666Y-73266666D02*
X135596666Y-73700000D01*
X135863333Y-73466666D01*
X135863333Y-73566666D01*
X135896666Y-73633333D01*
X135930000Y-73666666D01*
X135996666Y-73700000D01*
X136163333Y-73700000D01*
X136230000Y-73666666D01*
X136263333Y-73633333D01*
X136296666Y-73566666D01*
X136296666Y-73366666D01*
X136263333Y-73300000D01*
X136230000Y-73266666D01*
X135596666Y-73900000D02*
X136296666Y-74133333D01*
X135596666Y-74366666D01*
X134993333Y-72583333D02*
X135026666Y-72683333D01*
X135026666Y-72850000D01*
X134993333Y-72916666D01*
X134960000Y-72950000D01*
X134893333Y-72983333D01*
X134826666Y-72983333D01*
X134760000Y-72950000D01*
X134726666Y-72916666D01*
X134693333Y-72850000D01*
X134660000Y-72716666D01*
X134626666Y-72650000D01*
X134593333Y-72616666D01*
X134526666Y-72583333D01*
X134460000Y-72583333D01*
X134393333Y-72616666D01*
X134360000Y-72650000D01*
X134326666Y-72716666D01*
X134326666Y-72883333D01*
X134360000Y-72983333D01*
X135026666Y-73283333D02*
X134326666Y-73283333D01*
X134326666Y-73450000D01*
X134360000Y-73550000D01*
X134426666Y-73616666D01*
X134493333Y-73650000D01*
X134626666Y-73683333D01*
X134726666Y-73683333D01*
X134860000Y-73650000D01*
X134926666Y-73616666D01*
X134993333Y-73550000D01*
X135026666Y-73450000D01*
X135026666Y-73283333D01*
X135026666Y-73983333D02*
X134326666Y-73983333D01*
X133723333Y-72400000D02*
X133756666Y-72500000D01*
X133756666Y-72666666D01*
X133723333Y-72733333D01*
X133690000Y-72766666D01*
X133623333Y-72800000D01*
X133556666Y-72800000D01*
X133490000Y-72766666D01*
X133456666Y-72733333D01*
X133423333Y-72666666D01*
X133390000Y-72533333D01*
X133356666Y-72466666D01*
X133323333Y-72433333D01*
X133256666Y-72400000D01*
X133190000Y-72400000D01*
X133123333Y-72433333D01*
X133090000Y-72466666D01*
X133056666Y-72533333D01*
X133056666Y-72700000D01*
X133090000Y-72800000D01*
X133690000Y-73500000D02*
X133723333Y-73466666D01*
X133756666Y-73366666D01*
X133756666Y-73300000D01*
X133723333Y-73200000D01*
X133656666Y-73133333D01*
X133590000Y-73100000D01*
X133456666Y-73066666D01*
X133356666Y-73066666D01*
X133223333Y-73100000D01*
X133156666Y-73133333D01*
X133090000Y-73200000D01*
X133056666Y-73300000D01*
X133056666Y-73366666D01*
X133090000Y-73466666D01*
X133123333Y-73500000D01*
X133756666Y-73800000D02*
X133056666Y-73800000D01*
X133756666Y-74200000D02*
X133356666Y-73900000D01*
X133056666Y-74200000D02*
X133456666Y-73800000D01*
X132453333Y-72383333D02*
X132486666Y-72483333D01*
X132486666Y-72650000D01*
X132453333Y-72716666D01*
X132420000Y-72750000D01*
X132353333Y-72783333D01*
X132286666Y-72783333D01*
X132220000Y-72750000D01*
X132186666Y-72716666D01*
X132153333Y-72650000D01*
X132120000Y-72516666D01*
X132086666Y-72450000D01*
X132053333Y-72416666D01*
X131986666Y-72383333D01*
X131920000Y-72383333D01*
X131853333Y-72416666D01*
X131820000Y-72450000D01*
X131786666Y-72516666D01*
X131786666Y-72683333D01*
X131820000Y-72783333D01*
X132486666Y-73083333D02*
X131786666Y-73083333D01*
X131786666Y-73250000D01*
X131820000Y-73350000D01*
X131886666Y-73416666D01*
X131953333Y-73450000D01*
X132086666Y-73483333D01*
X132186666Y-73483333D01*
X132320000Y-73450000D01*
X132386666Y-73416666D01*
X132453333Y-73350000D01*
X132486666Y-73250000D01*
X132486666Y-73083333D01*
X131786666Y-73916666D02*
X131786666Y-74050000D01*
X131820000Y-74116666D01*
X131886666Y-74183333D01*
X132020000Y-74216666D01*
X132253333Y-74216666D01*
X132386666Y-74183333D01*
X132453333Y-74116666D01*
X132486666Y-74050000D01*
X132486666Y-73916666D01*
X132453333Y-73850000D01*
X132386666Y-73783333D01*
X132253333Y-73750000D01*
X132020000Y-73750000D01*
X131886666Y-73783333D01*
X131820000Y-73850000D01*
X131786666Y-73916666D01*
X130550000Y-72766666D02*
X130516666Y-72700000D01*
X130516666Y-72600000D01*
X130550000Y-72500000D01*
X130616666Y-72433333D01*
X130683333Y-72400000D01*
X130816666Y-72366666D01*
X130916666Y-72366666D01*
X131050000Y-72400000D01*
X131116666Y-72433333D01*
X131183333Y-72500000D01*
X131216666Y-72600000D01*
X131216666Y-72666666D01*
X131183333Y-72766666D01*
X131150000Y-72800000D01*
X130916666Y-72800000D01*
X130916666Y-72666666D01*
X131216666Y-73100000D02*
X130516666Y-73100000D01*
X131216666Y-73500000D01*
X130516666Y-73500000D01*
X131216666Y-73833333D02*
X130516666Y-73833333D01*
X130516666Y-74000000D01*
X130550000Y-74100000D01*
X130616666Y-74166666D01*
X130683333Y-74200000D01*
X130816666Y-74233333D01*
X130916666Y-74233333D01*
X131050000Y-74200000D01*
X131116666Y-74166666D01*
X131183333Y-74100000D01*
X131216666Y-74000000D01*
X131216666Y-73833333D01*
M02*
