G04 #@! TF.GenerationSoftware,KiCad,Pcbnew,5.1.5-52549c5~84~ubuntu18.04.1*
G04 #@! TF.CreationDate,2020-04-13T21:33:07+02:00*
G04 #@! TF.ProjectId,output.load_cell_panel,6f757470-7574-42e6-9c6f-61645f63656c,rev?*
G04 #@! TF.SameCoordinates,Original*
G04 #@! TF.FileFunction,Legend,Bot*
G04 #@! TF.FilePolarity,Positive*
%FSLAX46Y46*%
G04 Gerber Fmt 4.6, Leading zero omitted, Abs format (unit mm)*
G04 Created by KiCad (PCBNEW 5.1.5-52549c5~84~ubuntu18.04.1) date 2020-04-13 21:33:07*
%MOMM*%
%LPD*%
G04 APERTURE LIST*
%ADD10C,0.125000*%
G04 APERTURE END LIST*
D10*
X168336666Y-101746666D02*
X168336666Y-102180000D01*
X168603333Y-101946666D01*
X168603333Y-102046666D01*
X168636666Y-102113333D01*
X168670000Y-102146666D01*
X168736666Y-102180000D01*
X168903333Y-102180000D01*
X168970000Y-102146666D01*
X169003333Y-102113333D01*
X169036666Y-102046666D01*
X169036666Y-101846666D01*
X169003333Y-101780000D01*
X168970000Y-101746666D01*
X168970000Y-102480000D02*
X169003333Y-102513333D01*
X169036666Y-102480000D01*
X169003333Y-102446666D01*
X168970000Y-102480000D01*
X169036666Y-102480000D01*
X168336666Y-102746666D02*
X168336666Y-103180000D01*
X168603333Y-102946666D01*
X168603333Y-103046666D01*
X168636666Y-103113333D01*
X168670000Y-103146666D01*
X168736666Y-103180000D01*
X168903333Y-103180000D01*
X168970000Y-103146666D01*
X169003333Y-103113333D01*
X169036666Y-103046666D01*
X169036666Y-102846666D01*
X169003333Y-102780000D01*
X168970000Y-102746666D01*
X168336666Y-103380000D02*
X169036666Y-103613333D01*
X168336666Y-103846666D01*
X157336666Y-101746666D02*
X157336666Y-102180000D01*
X157603333Y-101946666D01*
X157603333Y-102046666D01*
X157636666Y-102113333D01*
X157670000Y-102146666D01*
X157736666Y-102180000D01*
X157903333Y-102180000D01*
X157970000Y-102146666D01*
X158003333Y-102113333D01*
X158036666Y-102046666D01*
X158036666Y-101846666D01*
X158003333Y-101780000D01*
X157970000Y-101746666D01*
X157970000Y-102480000D02*
X158003333Y-102513333D01*
X158036666Y-102480000D01*
X158003333Y-102446666D01*
X157970000Y-102480000D01*
X158036666Y-102480000D01*
X157336666Y-102746666D02*
X157336666Y-103180000D01*
X157603333Y-102946666D01*
X157603333Y-103046666D01*
X157636666Y-103113333D01*
X157670000Y-103146666D01*
X157736666Y-103180000D01*
X157903333Y-103180000D01*
X157970000Y-103146666D01*
X158003333Y-103113333D01*
X158036666Y-103046666D01*
X158036666Y-102846666D01*
X158003333Y-102780000D01*
X157970000Y-102746666D01*
X157336666Y-103380000D02*
X158036666Y-103613333D01*
X157336666Y-103846666D01*
X146336666Y-101746666D02*
X146336666Y-102180000D01*
X146603333Y-101946666D01*
X146603333Y-102046666D01*
X146636666Y-102113333D01*
X146670000Y-102146666D01*
X146736666Y-102180000D01*
X146903333Y-102180000D01*
X146970000Y-102146666D01*
X147003333Y-102113333D01*
X147036666Y-102046666D01*
X147036666Y-101846666D01*
X147003333Y-101780000D01*
X146970000Y-101746666D01*
X146970000Y-102480000D02*
X147003333Y-102513333D01*
X147036666Y-102480000D01*
X147003333Y-102446666D01*
X146970000Y-102480000D01*
X147036666Y-102480000D01*
X146336666Y-102746666D02*
X146336666Y-103180000D01*
X146603333Y-102946666D01*
X146603333Y-103046666D01*
X146636666Y-103113333D01*
X146670000Y-103146666D01*
X146736666Y-103180000D01*
X146903333Y-103180000D01*
X146970000Y-103146666D01*
X147003333Y-103113333D01*
X147036666Y-103046666D01*
X147036666Y-102846666D01*
X147003333Y-102780000D01*
X146970000Y-102746666D01*
X146336666Y-103380000D02*
X147036666Y-103613333D01*
X146336666Y-103846666D01*
X135336666Y-101746666D02*
X135336666Y-102180000D01*
X135603333Y-101946666D01*
X135603333Y-102046666D01*
X135636666Y-102113333D01*
X135670000Y-102146666D01*
X135736666Y-102180000D01*
X135903333Y-102180000D01*
X135970000Y-102146666D01*
X136003333Y-102113333D01*
X136036666Y-102046666D01*
X136036666Y-101846666D01*
X136003333Y-101780000D01*
X135970000Y-101746666D01*
X135970000Y-102480000D02*
X136003333Y-102513333D01*
X136036666Y-102480000D01*
X136003333Y-102446666D01*
X135970000Y-102480000D01*
X136036666Y-102480000D01*
X135336666Y-102746666D02*
X135336666Y-103180000D01*
X135603333Y-102946666D01*
X135603333Y-103046666D01*
X135636666Y-103113333D01*
X135670000Y-103146666D01*
X135736666Y-103180000D01*
X135903333Y-103180000D01*
X135970000Y-103146666D01*
X136003333Y-103113333D01*
X136036666Y-103046666D01*
X136036666Y-102846666D01*
X136003333Y-102780000D01*
X135970000Y-102746666D01*
X135336666Y-103380000D02*
X136036666Y-103613333D01*
X135336666Y-103846666D01*
X168336666Y-91746666D02*
X168336666Y-92180000D01*
X168603333Y-91946666D01*
X168603333Y-92046666D01*
X168636666Y-92113333D01*
X168670000Y-92146666D01*
X168736666Y-92180000D01*
X168903333Y-92180000D01*
X168970000Y-92146666D01*
X169003333Y-92113333D01*
X169036666Y-92046666D01*
X169036666Y-91846666D01*
X169003333Y-91780000D01*
X168970000Y-91746666D01*
X168970000Y-92480000D02*
X169003333Y-92513333D01*
X169036666Y-92480000D01*
X169003333Y-92446666D01*
X168970000Y-92480000D01*
X169036666Y-92480000D01*
X168336666Y-92746666D02*
X168336666Y-93180000D01*
X168603333Y-92946666D01*
X168603333Y-93046666D01*
X168636666Y-93113333D01*
X168670000Y-93146666D01*
X168736666Y-93180000D01*
X168903333Y-93180000D01*
X168970000Y-93146666D01*
X169003333Y-93113333D01*
X169036666Y-93046666D01*
X169036666Y-92846666D01*
X169003333Y-92780000D01*
X168970000Y-92746666D01*
X168336666Y-93380000D02*
X169036666Y-93613333D01*
X168336666Y-93846666D01*
X157336666Y-91746666D02*
X157336666Y-92180000D01*
X157603333Y-91946666D01*
X157603333Y-92046666D01*
X157636666Y-92113333D01*
X157670000Y-92146666D01*
X157736666Y-92180000D01*
X157903333Y-92180000D01*
X157970000Y-92146666D01*
X158003333Y-92113333D01*
X158036666Y-92046666D01*
X158036666Y-91846666D01*
X158003333Y-91780000D01*
X157970000Y-91746666D01*
X157970000Y-92480000D02*
X158003333Y-92513333D01*
X158036666Y-92480000D01*
X158003333Y-92446666D01*
X157970000Y-92480000D01*
X158036666Y-92480000D01*
X157336666Y-92746666D02*
X157336666Y-93180000D01*
X157603333Y-92946666D01*
X157603333Y-93046666D01*
X157636666Y-93113333D01*
X157670000Y-93146666D01*
X157736666Y-93180000D01*
X157903333Y-93180000D01*
X157970000Y-93146666D01*
X158003333Y-93113333D01*
X158036666Y-93046666D01*
X158036666Y-92846666D01*
X158003333Y-92780000D01*
X157970000Y-92746666D01*
X157336666Y-93380000D02*
X158036666Y-93613333D01*
X157336666Y-93846666D01*
X146336666Y-91746666D02*
X146336666Y-92180000D01*
X146603333Y-91946666D01*
X146603333Y-92046666D01*
X146636666Y-92113333D01*
X146670000Y-92146666D01*
X146736666Y-92180000D01*
X146903333Y-92180000D01*
X146970000Y-92146666D01*
X147003333Y-92113333D01*
X147036666Y-92046666D01*
X147036666Y-91846666D01*
X147003333Y-91780000D01*
X146970000Y-91746666D01*
X146970000Y-92480000D02*
X147003333Y-92513333D01*
X147036666Y-92480000D01*
X147003333Y-92446666D01*
X146970000Y-92480000D01*
X147036666Y-92480000D01*
X146336666Y-92746666D02*
X146336666Y-93180000D01*
X146603333Y-92946666D01*
X146603333Y-93046666D01*
X146636666Y-93113333D01*
X146670000Y-93146666D01*
X146736666Y-93180000D01*
X146903333Y-93180000D01*
X146970000Y-93146666D01*
X147003333Y-93113333D01*
X147036666Y-93046666D01*
X147036666Y-92846666D01*
X147003333Y-92780000D01*
X146970000Y-92746666D01*
X146336666Y-93380000D02*
X147036666Y-93613333D01*
X146336666Y-93846666D01*
X135336666Y-91746666D02*
X135336666Y-92180000D01*
X135603333Y-91946666D01*
X135603333Y-92046666D01*
X135636666Y-92113333D01*
X135670000Y-92146666D01*
X135736666Y-92180000D01*
X135903333Y-92180000D01*
X135970000Y-92146666D01*
X136003333Y-92113333D01*
X136036666Y-92046666D01*
X136036666Y-91846666D01*
X136003333Y-91780000D01*
X135970000Y-91746666D01*
X135970000Y-92480000D02*
X136003333Y-92513333D01*
X136036666Y-92480000D01*
X136003333Y-92446666D01*
X135970000Y-92480000D01*
X136036666Y-92480000D01*
X135336666Y-92746666D02*
X135336666Y-93180000D01*
X135603333Y-92946666D01*
X135603333Y-93046666D01*
X135636666Y-93113333D01*
X135670000Y-93146666D01*
X135736666Y-93180000D01*
X135903333Y-93180000D01*
X135970000Y-93146666D01*
X136003333Y-93113333D01*
X136036666Y-93046666D01*
X136036666Y-92846666D01*
X136003333Y-92780000D01*
X135970000Y-92746666D01*
X135336666Y-93380000D02*
X136036666Y-93613333D01*
X135336666Y-93846666D01*
X168336666Y-81746666D02*
X168336666Y-82180000D01*
X168603333Y-81946666D01*
X168603333Y-82046666D01*
X168636666Y-82113333D01*
X168670000Y-82146666D01*
X168736666Y-82180000D01*
X168903333Y-82180000D01*
X168970000Y-82146666D01*
X169003333Y-82113333D01*
X169036666Y-82046666D01*
X169036666Y-81846666D01*
X169003333Y-81780000D01*
X168970000Y-81746666D01*
X168970000Y-82480000D02*
X169003333Y-82513333D01*
X169036666Y-82480000D01*
X169003333Y-82446666D01*
X168970000Y-82480000D01*
X169036666Y-82480000D01*
X168336666Y-82746666D02*
X168336666Y-83180000D01*
X168603333Y-82946666D01*
X168603333Y-83046666D01*
X168636666Y-83113333D01*
X168670000Y-83146666D01*
X168736666Y-83180000D01*
X168903333Y-83180000D01*
X168970000Y-83146666D01*
X169003333Y-83113333D01*
X169036666Y-83046666D01*
X169036666Y-82846666D01*
X169003333Y-82780000D01*
X168970000Y-82746666D01*
X168336666Y-83380000D02*
X169036666Y-83613333D01*
X168336666Y-83846666D01*
X157336666Y-81746666D02*
X157336666Y-82180000D01*
X157603333Y-81946666D01*
X157603333Y-82046666D01*
X157636666Y-82113333D01*
X157670000Y-82146666D01*
X157736666Y-82180000D01*
X157903333Y-82180000D01*
X157970000Y-82146666D01*
X158003333Y-82113333D01*
X158036666Y-82046666D01*
X158036666Y-81846666D01*
X158003333Y-81780000D01*
X157970000Y-81746666D01*
X157970000Y-82480000D02*
X158003333Y-82513333D01*
X158036666Y-82480000D01*
X158003333Y-82446666D01*
X157970000Y-82480000D01*
X158036666Y-82480000D01*
X157336666Y-82746666D02*
X157336666Y-83180000D01*
X157603333Y-82946666D01*
X157603333Y-83046666D01*
X157636666Y-83113333D01*
X157670000Y-83146666D01*
X157736666Y-83180000D01*
X157903333Y-83180000D01*
X157970000Y-83146666D01*
X158003333Y-83113333D01*
X158036666Y-83046666D01*
X158036666Y-82846666D01*
X158003333Y-82780000D01*
X157970000Y-82746666D01*
X157336666Y-83380000D02*
X158036666Y-83613333D01*
X157336666Y-83846666D01*
X146336666Y-81746666D02*
X146336666Y-82180000D01*
X146603333Y-81946666D01*
X146603333Y-82046666D01*
X146636666Y-82113333D01*
X146670000Y-82146666D01*
X146736666Y-82180000D01*
X146903333Y-82180000D01*
X146970000Y-82146666D01*
X147003333Y-82113333D01*
X147036666Y-82046666D01*
X147036666Y-81846666D01*
X147003333Y-81780000D01*
X146970000Y-81746666D01*
X146970000Y-82480000D02*
X147003333Y-82513333D01*
X147036666Y-82480000D01*
X147003333Y-82446666D01*
X146970000Y-82480000D01*
X147036666Y-82480000D01*
X146336666Y-82746666D02*
X146336666Y-83180000D01*
X146603333Y-82946666D01*
X146603333Y-83046666D01*
X146636666Y-83113333D01*
X146670000Y-83146666D01*
X146736666Y-83180000D01*
X146903333Y-83180000D01*
X146970000Y-83146666D01*
X147003333Y-83113333D01*
X147036666Y-83046666D01*
X147036666Y-82846666D01*
X147003333Y-82780000D01*
X146970000Y-82746666D01*
X146336666Y-83380000D02*
X147036666Y-83613333D01*
X146336666Y-83846666D01*
X135336666Y-81746666D02*
X135336666Y-82180000D01*
X135603333Y-81946666D01*
X135603333Y-82046666D01*
X135636666Y-82113333D01*
X135670000Y-82146666D01*
X135736666Y-82180000D01*
X135903333Y-82180000D01*
X135970000Y-82146666D01*
X136003333Y-82113333D01*
X136036666Y-82046666D01*
X136036666Y-81846666D01*
X136003333Y-81780000D01*
X135970000Y-81746666D01*
X135970000Y-82480000D02*
X136003333Y-82513333D01*
X136036666Y-82480000D01*
X136003333Y-82446666D01*
X135970000Y-82480000D01*
X136036666Y-82480000D01*
X135336666Y-82746666D02*
X135336666Y-83180000D01*
X135603333Y-82946666D01*
X135603333Y-83046666D01*
X135636666Y-83113333D01*
X135670000Y-83146666D01*
X135736666Y-83180000D01*
X135903333Y-83180000D01*
X135970000Y-83146666D01*
X136003333Y-83113333D01*
X136036666Y-83046666D01*
X136036666Y-82846666D01*
X136003333Y-82780000D01*
X135970000Y-82746666D01*
X135336666Y-83380000D02*
X136036666Y-83613333D01*
X135336666Y-83846666D01*
X168336666Y-71746666D02*
X168336666Y-72180000D01*
X168603333Y-71946666D01*
X168603333Y-72046666D01*
X168636666Y-72113333D01*
X168670000Y-72146666D01*
X168736666Y-72180000D01*
X168903333Y-72180000D01*
X168970000Y-72146666D01*
X169003333Y-72113333D01*
X169036666Y-72046666D01*
X169036666Y-71846666D01*
X169003333Y-71780000D01*
X168970000Y-71746666D01*
X168970000Y-72480000D02*
X169003333Y-72513333D01*
X169036666Y-72480000D01*
X169003333Y-72446666D01*
X168970000Y-72480000D01*
X169036666Y-72480000D01*
X168336666Y-72746666D02*
X168336666Y-73180000D01*
X168603333Y-72946666D01*
X168603333Y-73046666D01*
X168636666Y-73113333D01*
X168670000Y-73146666D01*
X168736666Y-73180000D01*
X168903333Y-73180000D01*
X168970000Y-73146666D01*
X169003333Y-73113333D01*
X169036666Y-73046666D01*
X169036666Y-72846666D01*
X169003333Y-72780000D01*
X168970000Y-72746666D01*
X168336666Y-73380000D02*
X169036666Y-73613333D01*
X168336666Y-73846666D01*
X157336666Y-71746666D02*
X157336666Y-72180000D01*
X157603333Y-71946666D01*
X157603333Y-72046666D01*
X157636666Y-72113333D01*
X157670000Y-72146666D01*
X157736666Y-72180000D01*
X157903333Y-72180000D01*
X157970000Y-72146666D01*
X158003333Y-72113333D01*
X158036666Y-72046666D01*
X158036666Y-71846666D01*
X158003333Y-71780000D01*
X157970000Y-71746666D01*
X157970000Y-72480000D02*
X158003333Y-72513333D01*
X158036666Y-72480000D01*
X158003333Y-72446666D01*
X157970000Y-72480000D01*
X158036666Y-72480000D01*
X157336666Y-72746666D02*
X157336666Y-73180000D01*
X157603333Y-72946666D01*
X157603333Y-73046666D01*
X157636666Y-73113333D01*
X157670000Y-73146666D01*
X157736666Y-73180000D01*
X157903333Y-73180000D01*
X157970000Y-73146666D01*
X158003333Y-73113333D01*
X158036666Y-73046666D01*
X158036666Y-72846666D01*
X158003333Y-72780000D01*
X157970000Y-72746666D01*
X157336666Y-73380000D02*
X158036666Y-73613333D01*
X157336666Y-73846666D01*
X146336666Y-71746666D02*
X146336666Y-72180000D01*
X146603333Y-71946666D01*
X146603333Y-72046666D01*
X146636666Y-72113333D01*
X146670000Y-72146666D01*
X146736666Y-72180000D01*
X146903333Y-72180000D01*
X146970000Y-72146666D01*
X147003333Y-72113333D01*
X147036666Y-72046666D01*
X147036666Y-71846666D01*
X147003333Y-71780000D01*
X146970000Y-71746666D01*
X146970000Y-72480000D02*
X147003333Y-72513333D01*
X147036666Y-72480000D01*
X147003333Y-72446666D01*
X146970000Y-72480000D01*
X147036666Y-72480000D01*
X146336666Y-72746666D02*
X146336666Y-73180000D01*
X146603333Y-72946666D01*
X146603333Y-73046666D01*
X146636666Y-73113333D01*
X146670000Y-73146666D01*
X146736666Y-73180000D01*
X146903333Y-73180000D01*
X146970000Y-73146666D01*
X147003333Y-73113333D01*
X147036666Y-73046666D01*
X147036666Y-72846666D01*
X147003333Y-72780000D01*
X146970000Y-72746666D01*
X146336666Y-73380000D02*
X147036666Y-73613333D01*
X146336666Y-73846666D01*
X165193333Y-101863333D02*
X165226666Y-101963333D01*
X165226666Y-102130000D01*
X165193333Y-102196666D01*
X165160000Y-102230000D01*
X165093333Y-102263333D01*
X165026666Y-102263333D01*
X164960000Y-102230000D01*
X164926666Y-102196666D01*
X164893333Y-102130000D01*
X164860000Y-101996666D01*
X164826666Y-101930000D01*
X164793333Y-101896666D01*
X164726666Y-101863333D01*
X164660000Y-101863333D01*
X164593333Y-101896666D01*
X164560000Y-101930000D01*
X164526666Y-101996666D01*
X164526666Y-102163333D01*
X164560000Y-102263333D01*
X165226666Y-102563333D02*
X164526666Y-102563333D01*
X164526666Y-102730000D01*
X164560000Y-102830000D01*
X164626666Y-102896666D01*
X164693333Y-102930000D01*
X164826666Y-102963333D01*
X164926666Y-102963333D01*
X165060000Y-102930000D01*
X165126666Y-102896666D01*
X165193333Y-102830000D01*
X165226666Y-102730000D01*
X165226666Y-102563333D01*
X164526666Y-103396666D02*
X164526666Y-103530000D01*
X164560000Y-103596666D01*
X164626666Y-103663333D01*
X164760000Y-103696666D01*
X164993333Y-103696666D01*
X165126666Y-103663333D01*
X165193333Y-103596666D01*
X165226666Y-103530000D01*
X165226666Y-103396666D01*
X165193333Y-103330000D01*
X165126666Y-103263333D01*
X164993333Y-103230000D01*
X164760000Y-103230000D01*
X164626666Y-103263333D01*
X164560000Y-103330000D01*
X164526666Y-103396666D01*
X154193333Y-101863333D02*
X154226666Y-101963333D01*
X154226666Y-102130000D01*
X154193333Y-102196666D01*
X154160000Y-102230000D01*
X154093333Y-102263333D01*
X154026666Y-102263333D01*
X153960000Y-102230000D01*
X153926666Y-102196666D01*
X153893333Y-102130000D01*
X153860000Y-101996666D01*
X153826666Y-101930000D01*
X153793333Y-101896666D01*
X153726666Y-101863333D01*
X153660000Y-101863333D01*
X153593333Y-101896666D01*
X153560000Y-101930000D01*
X153526666Y-101996666D01*
X153526666Y-102163333D01*
X153560000Y-102263333D01*
X154226666Y-102563333D02*
X153526666Y-102563333D01*
X153526666Y-102730000D01*
X153560000Y-102830000D01*
X153626666Y-102896666D01*
X153693333Y-102930000D01*
X153826666Y-102963333D01*
X153926666Y-102963333D01*
X154060000Y-102930000D01*
X154126666Y-102896666D01*
X154193333Y-102830000D01*
X154226666Y-102730000D01*
X154226666Y-102563333D01*
X153526666Y-103396666D02*
X153526666Y-103530000D01*
X153560000Y-103596666D01*
X153626666Y-103663333D01*
X153760000Y-103696666D01*
X153993333Y-103696666D01*
X154126666Y-103663333D01*
X154193333Y-103596666D01*
X154226666Y-103530000D01*
X154226666Y-103396666D01*
X154193333Y-103330000D01*
X154126666Y-103263333D01*
X153993333Y-103230000D01*
X153760000Y-103230000D01*
X153626666Y-103263333D01*
X153560000Y-103330000D01*
X153526666Y-103396666D01*
X143193333Y-101863333D02*
X143226666Y-101963333D01*
X143226666Y-102130000D01*
X143193333Y-102196666D01*
X143160000Y-102230000D01*
X143093333Y-102263333D01*
X143026666Y-102263333D01*
X142960000Y-102230000D01*
X142926666Y-102196666D01*
X142893333Y-102130000D01*
X142860000Y-101996666D01*
X142826666Y-101930000D01*
X142793333Y-101896666D01*
X142726666Y-101863333D01*
X142660000Y-101863333D01*
X142593333Y-101896666D01*
X142560000Y-101930000D01*
X142526666Y-101996666D01*
X142526666Y-102163333D01*
X142560000Y-102263333D01*
X143226666Y-102563333D02*
X142526666Y-102563333D01*
X142526666Y-102730000D01*
X142560000Y-102830000D01*
X142626666Y-102896666D01*
X142693333Y-102930000D01*
X142826666Y-102963333D01*
X142926666Y-102963333D01*
X143060000Y-102930000D01*
X143126666Y-102896666D01*
X143193333Y-102830000D01*
X143226666Y-102730000D01*
X143226666Y-102563333D01*
X142526666Y-103396666D02*
X142526666Y-103530000D01*
X142560000Y-103596666D01*
X142626666Y-103663333D01*
X142760000Y-103696666D01*
X142993333Y-103696666D01*
X143126666Y-103663333D01*
X143193333Y-103596666D01*
X143226666Y-103530000D01*
X143226666Y-103396666D01*
X143193333Y-103330000D01*
X143126666Y-103263333D01*
X142993333Y-103230000D01*
X142760000Y-103230000D01*
X142626666Y-103263333D01*
X142560000Y-103330000D01*
X142526666Y-103396666D01*
X132193333Y-101863333D02*
X132226666Y-101963333D01*
X132226666Y-102130000D01*
X132193333Y-102196666D01*
X132160000Y-102230000D01*
X132093333Y-102263333D01*
X132026666Y-102263333D01*
X131960000Y-102230000D01*
X131926666Y-102196666D01*
X131893333Y-102130000D01*
X131860000Y-101996666D01*
X131826666Y-101930000D01*
X131793333Y-101896666D01*
X131726666Y-101863333D01*
X131660000Y-101863333D01*
X131593333Y-101896666D01*
X131560000Y-101930000D01*
X131526666Y-101996666D01*
X131526666Y-102163333D01*
X131560000Y-102263333D01*
X132226666Y-102563333D02*
X131526666Y-102563333D01*
X131526666Y-102730000D01*
X131560000Y-102830000D01*
X131626666Y-102896666D01*
X131693333Y-102930000D01*
X131826666Y-102963333D01*
X131926666Y-102963333D01*
X132060000Y-102930000D01*
X132126666Y-102896666D01*
X132193333Y-102830000D01*
X132226666Y-102730000D01*
X132226666Y-102563333D01*
X131526666Y-103396666D02*
X131526666Y-103530000D01*
X131560000Y-103596666D01*
X131626666Y-103663333D01*
X131760000Y-103696666D01*
X131993333Y-103696666D01*
X132126666Y-103663333D01*
X132193333Y-103596666D01*
X132226666Y-103530000D01*
X132226666Y-103396666D01*
X132193333Y-103330000D01*
X132126666Y-103263333D01*
X131993333Y-103230000D01*
X131760000Y-103230000D01*
X131626666Y-103263333D01*
X131560000Y-103330000D01*
X131526666Y-103396666D01*
X165193333Y-91863333D02*
X165226666Y-91963333D01*
X165226666Y-92130000D01*
X165193333Y-92196666D01*
X165160000Y-92230000D01*
X165093333Y-92263333D01*
X165026666Y-92263333D01*
X164960000Y-92230000D01*
X164926666Y-92196666D01*
X164893333Y-92130000D01*
X164860000Y-91996666D01*
X164826666Y-91930000D01*
X164793333Y-91896666D01*
X164726666Y-91863333D01*
X164660000Y-91863333D01*
X164593333Y-91896666D01*
X164560000Y-91930000D01*
X164526666Y-91996666D01*
X164526666Y-92163333D01*
X164560000Y-92263333D01*
X165226666Y-92563333D02*
X164526666Y-92563333D01*
X164526666Y-92730000D01*
X164560000Y-92830000D01*
X164626666Y-92896666D01*
X164693333Y-92930000D01*
X164826666Y-92963333D01*
X164926666Y-92963333D01*
X165060000Y-92930000D01*
X165126666Y-92896666D01*
X165193333Y-92830000D01*
X165226666Y-92730000D01*
X165226666Y-92563333D01*
X164526666Y-93396666D02*
X164526666Y-93530000D01*
X164560000Y-93596666D01*
X164626666Y-93663333D01*
X164760000Y-93696666D01*
X164993333Y-93696666D01*
X165126666Y-93663333D01*
X165193333Y-93596666D01*
X165226666Y-93530000D01*
X165226666Y-93396666D01*
X165193333Y-93330000D01*
X165126666Y-93263333D01*
X164993333Y-93230000D01*
X164760000Y-93230000D01*
X164626666Y-93263333D01*
X164560000Y-93330000D01*
X164526666Y-93396666D01*
X154193333Y-91863333D02*
X154226666Y-91963333D01*
X154226666Y-92130000D01*
X154193333Y-92196666D01*
X154160000Y-92230000D01*
X154093333Y-92263333D01*
X154026666Y-92263333D01*
X153960000Y-92230000D01*
X153926666Y-92196666D01*
X153893333Y-92130000D01*
X153860000Y-91996666D01*
X153826666Y-91930000D01*
X153793333Y-91896666D01*
X153726666Y-91863333D01*
X153660000Y-91863333D01*
X153593333Y-91896666D01*
X153560000Y-91930000D01*
X153526666Y-91996666D01*
X153526666Y-92163333D01*
X153560000Y-92263333D01*
X154226666Y-92563333D02*
X153526666Y-92563333D01*
X153526666Y-92730000D01*
X153560000Y-92830000D01*
X153626666Y-92896666D01*
X153693333Y-92930000D01*
X153826666Y-92963333D01*
X153926666Y-92963333D01*
X154060000Y-92930000D01*
X154126666Y-92896666D01*
X154193333Y-92830000D01*
X154226666Y-92730000D01*
X154226666Y-92563333D01*
X153526666Y-93396666D02*
X153526666Y-93530000D01*
X153560000Y-93596666D01*
X153626666Y-93663333D01*
X153760000Y-93696666D01*
X153993333Y-93696666D01*
X154126666Y-93663333D01*
X154193333Y-93596666D01*
X154226666Y-93530000D01*
X154226666Y-93396666D01*
X154193333Y-93330000D01*
X154126666Y-93263333D01*
X153993333Y-93230000D01*
X153760000Y-93230000D01*
X153626666Y-93263333D01*
X153560000Y-93330000D01*
X153526666Y-93396666D01*
X143193333Y-91863333D02*
X143226666Y-91963333D01*
X143226666Y-92130000D01*
X143193333Y-92196666D01*
X143160000Y-92230000D01*
X143093333Y-92263333D01*
X143026666Y-92263333D01*
X142960000Y-92230000D01*
X142926666Y-92196666D01*
X142893333Y-92130000D01*
X142860000Y-91996666D01*
X142826666Y-91930000D01*
X142793333Y-91896666D01*
X142726666Y-91863333D01*
X142660000Y-91863333D01*
X142593333Y-91896666D01*
X142560000Y-91930000D01*
X142526666Y-91996666D01*
X142526666Y-92163333D01*
X142560000Y-92263333D01*
X143226666Y-92563333D02*
X142526666Y-92563333D01*
X142526666Y-92730000D01*
X142560000Y-92830000D01*
X142626666Y-92896666D01*
X142693333Y-92930000D01*
X142826666Y-92963333D01*
X142926666Y-92963333D01*
X143060000Y-92930000D01*
X143126666Y-92896666D01*
X143193333Y-92830000D01*
X143226666Y-92730000D01*
X143226666Y-92563333D01*
X142526666Y-93396666D02*
X142526666Y-93530000D01*
X142560000Y-93596666D01*
X142626666Y-93663333D01*
X142760000Y-93696666D01*
X142993333Y-93696666D01*
X143126666Y-93663333D01*
X143193333Y-93596666D01*
X143226666Y-93530000D01*
X143226666Y-93396666D01*
X143193333Y-93330000D01*
X143126666Y-93263333D01*
X142993333Y-93230000D01*
X142760000Y-93230000D01*
X142626666Y-93263333D01*
X142560000Y-93330000D01*
X142526666Y-93396666D01*
X132193333Y-91863333D02*
X132226666Y-91963333D01*
X132226666Y-92130000D01*
X132193333Y-92196666D01*
X132160000Y-92230000D01*
X132093333Y-92263333D01*
X132026666Y-92263333D01*
X131960000Y-92230000D01*
X131926666Y-92196666D01*
X131893333Y-92130000D01*
X131860000Y-91996666D01*
X131826666Y-91930000D01*
X131793333Y-91896666D01*
X131726666Y-91863333D01*
X131660000Y-91863333D01*
X131593333Y-91896666D01*
X131560000Y-91930000D01*
X131526666Y-91996666D01*
X131526666Y-92163333D01*
X131560000Y-92263333D01*
X132226666Y-92563333D02*
X131526666Y-92563333D01*
X131526666Y-92730000D01*
X131560000Y-92830000D01*
X131626666Y-92896666D01*
X131693333Y-92930000D01*
X131826666Y-92963333D01*
X131926666Y-92963333D01*
X132060000Y-92930000D01*
X132126666Y-92896666D01*
X132193333Y-92830000D01*
X132226666Y-92730000D01*
X132226666Y-92563333D01*
X131526666Y-93396666D02*
X131526666Y-93530000D01*
X131560000Y-93596666D01*
X131626666Y-93663333D01*
X131760000Y-93696666D01*
X131993333Y-93696666D01*
X132126666Y-93663333D01*
X132193333Y-93596666D01*
X132226666Y-93530000D01*
X132226666Y-93396666D01*
X132193333Y-93330000D01*
X132126666Y-93263333D01*
X131993333Y-93230000D01*
X131760000Y-93230000D01*
X131626666Y-93263333D01*
X131560000Y-93330000D01*
X131526666Y-93396666D01*
X165193333Y-81863333D02*
X165226666Y-81963333D01*
X165226666Y-82130000D01*
X165193333Y-82196666D01*
X165160000Y-82230000D01*
X165093333Y-82263333D01*
X165026666Y-82263333D01*
X164960000Y-82230000D01*
X164926666Y-82196666D01*
X164893333Y-82130000D01*
X164860000Y-81996666D01*
X164826666Y-81930000D01*
X164793333Y-81896666D01*
X164726666Y-81863333D01*
X164660000Y-81863333D01*
X164593333Y-81896666D01*
X164560000Y-81930000D01*
X164526666Y-81996666D01*
X164526666Y-82163333D01*
X164560000Y-82263333D01*
X165226666Y-82563333D02*
X164526666Y-82563333D01*
X164526666Y-82730000D01*
X164560000Y-82830000D01*
X164626666Y-82896666D01*
X164693333Y-82930000D01*
X164826666Y-82963333D01*
X164926666Y-82963333D01*
X165060000Y-82930000D01*
X165126666Y-82896666D01*
X165193333Y-82830000D01*
X165226666Y-82730000D01*
X165226666Y-82563333D01*
X164526666Y-83396666D02*
X164526666Y-83530000D01*
X164560000Y-83596666D01*
X164626666Y-83663333D01*
X164760000Y-83696666D01*
X164993333Y-83696666D01*
X165126666Y-83663333D01*
X165193333Y-83596666D01*
X165226666Y-83530000D01*
X165226666Y-83396666D01*
X165193333Y-83330000D01*
X165126666Y-83263333D01*
X164993333Y-83230000D01*
X164760000Y-83230000D01*
X164626666Y-83263333D01*
X164560000Y-83330000D01*
X164526666Y-83396666D01*
X154193333Y-81863333D02*
X154226666Y-81963333D01*
X154226666Y-82130000D01*
X154193333Y-82196666D01*
X154160000Y-82230000D01*
X154093333Y-82263333D01*
X154026666Y-82263333D01*
X153960000Y-82230000D01*
X153926666Y-82196666D01*
X153893333Y-82130000D01*
X153860000Y-81996666D01*
X153826666Y-81930000D01*
X153793333Y-81896666D01*
X153726666Y-81863333D01*
X153660000Y-81863333D01*
X153593333Y-81896666D01*
X153560000Y-81930000D01*
X153526666Y-81996666D01*
X153526666Y-82163333D01*
X153560000Y-82263333D01*
X154226666Y-82563333D02*
X153526666Y-82563333D01*
X153526666Y-82730000D01*
X153560000Y-82830000D01*
X153626666Y-82896666D01*
X153693333Y-82930000D01*
X153826666Y-82963333D01*
X153926666Y-82963333D01*
X154060000Y-82930000D01*
X154126666Y-82896666D01*
X154193333Y-82830000D01*
X154226666Y-82730000D01*
X154226666Y-82563333D01*
X153526666Y-83396666D02*
X153526666Y-83530000D01*
X153560000Y-83596666D01*
X153626666Y-83663333D01*
X153760000Y-83696666D01*
X153993333Y-83696666D01*
X154126666Y-83663333D01*
X154193333Y-83596666D01*
X154226666Y-83530000D01*
X154226666Y-83396666D01*
X154193333Y-83330000D01*
X154126666Y-83263333D01*
X153993333Y-83230000D01*
X153760000Y-83230000D01*
X153626666Y-83263333D01*
X153560000Y-83330000D01*
X153526666Y-83396666D01*
X143193333Y-81863333D02*
X143226666Y-81963333D01*
X143226666Y-82130000D01*
X143193333Y-82196666D01*
X143160000Y-82230000D01*
X143093333Y-82263333D01*
X143026666Y-82263333D01*
X142960000Y-82230000D01*
X142926666Y-82196666D01*
X142893333Y-82130000D01*
X142860000Y-81996666D01*
X142826666Y-81930000D01*
X142793333Y-81896666D01*
X142726666Y-81863333D01*
X142660000Y-81863333D01*
X142593333Y-81896666D01*
X142560000Y-81930000D01*
X142526666Y-81996666D01*
X142526666Y-82163333D01*
X142560000Y-82263333D01*
X143226666Y-82563333D02*
X142526666Y-82563333D01*
X142526666Y-82730000D01*
X142560000Y-82830000D01*
X142626666Y-82896666D01*
X142693333Y-82930000D01*
X142826666Y-82963333D01*
X142926666Y-82963333D01*
X143060000Y-82930000D01*
X143126666Y-82896666D01*
X143193333Y-82830000D01*
X143226666Y-82730000D01*
X143226666Y-82563333D01*
X142526666Y-83396666D02*
X142526666Y-83530000D01*
X142560000Y-83596666D01*
X142626666Y-83663333D01*
X142760000Y-83696666D01*
X142993333Y-83696666D01*
X143126666Y-83663333D01*
X143193333Y-83596666D01*
X143226666Y-83530000D01*
X143226666Y-83396666D01*
X143193333Y-83330000D01*
X143126666Y-83263333D01*
X142993333Y-83230000D01*
X142760000Y-83230000D01*
X142626666Y-83263333D01*
X142560000Y-83330000D01*
X142526666Y-83396666D01*
X132193333Y-81863333D02*
X132226666Y-81963333D01*
X132226666Y-82130000D01*
X132193333Y-82196666D01*
X132160000Y-82230000D01*
X132093333Y-82263333D01*
X132026666Y-82263333D01*
X131960000Y-82230000D01*
X131926666Y-82196666D01*
X131893333Y-82130000D01*
X131860000Y-81996666D01*
X131826666Y-81930000D01*
X131793333Y-81896666D01*
X131726666Y-81863333D01*
X131660000Y-81863333D01*
X131593333Y-81896666D01*
X131560000Y-81930000D01*
X131526666Y-81996666D01*
X131526666Y-82163333D01*
X131560000Y-82263333D01*
X132226666Y-82563333D02*
X131526666Y-82563333D01*
X131526666Y-82730000D01*
X131560000Y-82830000D01*
X131626666Y-82896666D01*
X131693333Y-82930000D01*
X131826666Y-82963333D01*
X131926666Y-82963333D01*
X132060000Y-82930000D01*
X132126666Y-82896666D01*
X132193333Y-82830000D01*
X132226666Y-82730000D01*
X132226666Y-82563333D01*
X131526666Y-83396666D02*
X131526666Y-83530000D01*
X131560000Y-83596666D01*
X131626666Y-83663333D01*
X131760000Y-83696666D01*
X131993333Y-83696666D01*
X132126666Y-83663333D01*
X132193333Y-83596666D01*
X132226666Y-83530000D01*
X132226666Y-83396666D01*
X132193333Y-83330000D01*
X132126666Y-83263333D01*
X131993333Y-83230000D01*
X131760000Y-83230000D01*
X131626666Y-83263333D01*
X131560000Y-83330000D01*
X131526666Y-83396666D01*
X165193333Y-71863333D02*
X165226666Y-71963333D01*
X165226666Y-72130000D01*
X165193333Y-72196666D01*
X165160000Y-72230000D01*
X165093333Y-72263333D01*
X165026666Y-72263333D01*
X164960000Y-72230000D01*
X164926666Y-72196666D01*
X164893333Y-72130000D01*
X164860000Y-71996666D01*
X164826666Y-71930000D01*
X164793333Y-71896666D01*
X164726666Y-71863333D01*
X164660000Y-71863333D01*
X164593333Y-71896666D01*
X164560000Y-71930000D01*
X164526666Y-71996666D01*
X164526666Y-72163333D01*
X164560000Y-72263333D01*
X165226666Y-72563333D02*
X164526666Y-72563333D01*
X164526666Y-72730000D01*
X164560000Y-72830000D01*
X164626666Y-72896666D01*
X164693333Y-72930000D01*
X164826666Y-72963333D01*
X164926666Y-72963333D01*
X165060000Y-72930000D01*
X165126666Y-72896666D01*
X165193333Y-72830000D01*
X165226666Y-72730000D01*
X165226666Y-72563333D01*
X164526666Y-73396666D02*
X164526666Y-73530000D01*
X164560000Y-73596666D01*
X164626666Y-73663333D01*
X164760000Y-73696666D01*
X164993333Y-73696666D01*
X165126666Y-73663333D01*
X165193333Y-73596666D01*
X165226666Y-73530000D01*
X165226666Y-73396666D01*
X165193333Y-73330000D01*
X165126666Y-73263333D01*
X164993333Y-73230000D01*
X164760000Y-73230000D01*
X164626666Y-73263333D01*
X164560000Y-73330000D01*
X164526666Y-73396666D01*
X154193333Y-71863333D02*
X154226666Y-71963333D01*
X154226666Y-72130000D01*
X154193333Y-72196666D01*
X154160000Y-72230000D01*
X154093333Y-72263333D01*
X154026666Y-72263333D01*
X153960000Y-72230000D01*
X153926666Y-72196666D01*
X153893333Y-72130000D01*
X153860000Y-71996666D01*
X153826666Y-71930000D01*
X153793333Y-71896666D01*
X153726666Y-71863333D01*
X153660000Y-71863333D01*
X153593333Y-71896666D01*
X153560000Y-71930000D01*
X153526666Y-71996666D01*
X153526666Y-72163333D01*
X153560000Y-72263333D01*
X154226666Y-72563333D02*
X153526666Y-72563333D01*
X153526666Y-72730000D01*
X153560000Y-72830000D01*
X153626666Y-72896666D01*
X153693333Y-72930000D01*
X153826666Y-72963333D01*
X153926666Y-72963333D01*
X154060000Y-72930000D01*
X154126666Y-72896666D01*
X154193333Y-72830000D01*
X154226666Y-72730000D01*
X154226666Y-72563333D01*
X153526666Y-73396666D02*
X153526666Y-73530000D01*
X153560000Y-73596666D01*
X153626666Y-73663333D01*
X153760000Y-73696666D01*
X153993333Y-73696666D01*
X154126666Y-73663333D01*
X154193333Y-73596666D01*
X154226666Y-73530000D01*
X154226666Y-73396666D01*
X154193333Y-73330000D01*
X154126666Y-73263333D01*
X153993333Y-73230000D01*
X153760000Y-73230000D01*
X153626666Y-73263333D01*
X153560000Y-73330000D01*
X153526666Y-73396666D01*
X143193333Y-71863333D02*
X143226666Y-71963333D01*
X143226666Y-72130000D01*
X143193333Y-72196666D01*
X143160000Y-72230000D01*
X143093333Y-72263333D01*
X143026666Y-72263333D01*
X142960000Y-72230000D01*
X142926666Y-72196666D01*
X142893333Y-72130000D01*
X142860000Y-71996666D01*
X142826666Y-71930000D01*
X142793333Y-71896666D01*
X142726666Y-71863333D01*
X142660000Y-71863333D01*
X142593333Y-71896666D01*
X142560000Y-71930000D01*
X142526666Y-71996666D01*
X142526666Y-72163333D01*
X142560000Y-72263333D01*
X143226666Y-72563333D02*
X142526666Y-72563333D01*
X142526666Y-72730000D01*
X142560000Y-72830000D01*
X142626666Y-72896666D01*
X142693333Y-72930000D01*
X142826666Y-72963333D01*
X142926666Y-72963333D01*
X143060000Y-72930000D01*
X143126666Y-72896666D01*
X143193333Y-72830000D01*
X143226666Y-72730000D01*
X143226666Y-72563333D01*
X142526666Y-73396666D02*
X142526666Y-73530000D01*
X142560000Y-73596666D01*
X142626666Y-73663333D01*
X142760000Y-73696666D01*
X142993333Y-73696666D01*
X143126666Y-73663333D01*
X143193333Y-73596666D01*
X143226666Y-73530000D01*
X143226666Y-73396666D01*
X143193333Y-73330000D01*
X143126666Y-73263333D01*
X142993333Y-73230000D01*
X142760000Y-73230000D01*
X142626666Y-73263333D01*
X142560000Y-73330000D01*
X142526666Y-73396666D01*
X167733333Y-102063333D02*
X167766666Y-102163333D01*
X167766666Y-102330000D01*
X167733333Y-102396666D01*
X167700000Y-102430000D01*
X167633333Y-102463333D01*
X167566666Y-102463333D01*
X167500000Y-102430000D01*
X167466666Y-102396666D01*
X167433333Y-102330000D01*
X167400000Y-102196666D01*
X167366666Y-102130000D01*
X167333333Y-102096666D01*
X167266666Y-102063333D01*
X167200000Y-102063333D01*
X167133333Y-102096666D01*
X167100000Y-102130000D01*
X167066666Y-102196666D01*
X167066666Y-102363333D01*
X167100000Y-102463333D01*
X167766666Y-102763333D02*
X167066666Y-102763333D01*
X167066666Y-102930000D01*
X167100000Y-103030000D01*
X167166666Y-103096666D01*
X167233333Y-103130000D01*
X167366666Y-103163333D01*
X167466666Y-103163333D01*
X167600000Y-103130000D01*
X167666666Y-103096666D01*
X167733333Y-103030000D01*
X167766666Y-102930000D01*
X167766666Y-102763333D01*
X167766666Y-103463333D02*
X167066666Y-103463333D01*
X156733333Y-102063333D02*
X156766666Y-102163333D01*
X156766666Y-102330000D01*
X156733333Y-102396666D01*
X156700000Y-102430000D01*
X156633333Y-102463333D01*
X156566666Y-102463333D01*
X156500000Y-102430000D01*
X156466666Y-102396666D01*
X156433333Y-102330000D01*
X156400000Y-102196666D01*
X156366666Y-102130000D01*
X156333333Y-102096666D01*
X156266666Y-102063333D01*
X156200000Y-102063333D01*
X156133333Y-102096666D01*
X156100000Y-102130000D01*
X156066666Y-102196666D01*
X156066666Y-102363333D01*
X156100000Y-102463333D01*
X156766666Y-102763333D02*
X156066666Y-102763333D01*
X156066666Y-102930000D01*
X156100000Y-103030000D01*
X156166666Y-103096666D01*
X156233333Y-103130000D01*
X156366666Y-103163333D01*
X156466666Y-103163333D01*
X156600000Y-103130000D01*
X156666666Y-103096666D01*
X156733333Y-103030000D01*
X156766666Y-102930000D01*
X156766666Y-102763333D01*
X156766666Y-103463333D02*
X156066666Y-103463333D01*
X145733333Y-102063333D02*
X145766666Y-102163333D01*
X145766666Y-102330000D01*
X145733333Y-102396666D01*
X145700000Y-102430000D01*
X145633333Y-102463333D01*
X145566666Y-102463333D01*
X145500000Y-102430000D01*
X145466666Y-102396666D01*
X145433333Y-102330000D01*
X145400000Y-102196666D01*
X145366666Y-102130000D01*
X145333333Y-102096666D01*
X145266666Y-102063333D01*
X145200000Y-102063333D01*
X145133333Y-102096666D01*
X145100000Y-102130000D01*
X145066666Y-102196666D01*
X145066666Y-102363333D01*
X145100000Y-102463333D01*
X145766666Y-102763333D02*
X145066666Y-102763333D01*
X145066666Y-102930000D01*
X145100000Y-103030000D01*
X145166666Y-103096666D01*
X145233333Y-103130000D01*
X145366666Y-103163333D01*
X145466666Y-103163333D01*
X145600000Y-103130000D01*
X145666666Y-103096666D01*
X145733333Y-103030000D01*
X145766666Y-102930000D01*
X145766666Y-102763333D01*
X145766666Y-103463333D02*
X145066666Y-103463333D01*
X134733333Y-102063333D02*
X134766666Y-102163333D01*
X134766666Y-102330000D01*
X134733333Y-102396666D01*
X134700000Y-102430000D01*
X134633333Y-102463333D01*
X134566666Y-102463333D01*
X134500000Y-102430000D01*
X134466666Y-102396666D01*
X134433333Y-102330000D01*
X134400000Y-102196666D01*
X134366666Y-102130000D01*
X134333333Y-102096666D01*
X134266666Y-102063333D01*
X134200000Y-102063333D01*
X134133333Y-102096666D01*
X134100000Y-102130000D01*
X134066666Y-102196666D01*
X134066666Y-102363333D01*
X134100000Y-102463333D01*
X134766666Y-102763333D02*
X134066666Y-102763333D01*
X134066666Y-102930000D01*
X134100000Y-103030000D01*
X134166666Y-103096666D01*
X134233333Y-103130000D01*
X134366666Y-103163333D01*
X134466666Y-103163333D01*
X134600000Y-103130000D01*
X134666666Y-103096666D01*
X134733333Y-103030000D01*
X134766666Y-102930000D01*
X134766666Y-102763333D01*
X134766666Y-103463333D02*
X134066666Y-103463333D01*
X167733333Y-92063333D02*
X167766666Y-92163333D01*
X167766666Y-92330000D01*
X167733333Y-92396666D01*
X167700000Y-92430000D01*
X167633333Y-92463333D01*
X167566666Y-92463333D01*
X167500000Y-92430000D01*
X167466666Y-92396666D01*
X167433333Y-92330000D01*
X167400000Y-92196666D01*
X167366666Y-92130000D01*
X167333333Y-92096666D01*
X167266666Y-92063333D01*
X167200000Y-92063333D01*
X167133333Y-92096666D01*
X167100000Y-92130000D01*
X167066666Y-92196666D01*
X167066666Y-92363333D01*
X167100000Y-92463333D01*
X167766666Y-92763333D02*
X167066666Y-92763333D01*
X167066666Y-92930000D01*
X167100000Y-93030000D01*
X167166666Y-93096666D01*
X167233333Y-93130000D01*
X167366666Y-93163333D01*
X167466666Y-93163333D01*
X167600000Y-93130000D01*
X167666666Y-93096666D01*
X167733333Y-93030000D01*
X167766666Y-92930000D01*
X167766666Y-92763333D01*
X167766666Y-93463333D02*
X167066666Y-93463333D01*
X156733333Y-92063333D02*
X156766666Y-92163333D01*
X156766666Y-92330000D01*
X156733333Y-92396666D01*
X156700000Y-92430000D01*
X156633333Y-92463333D01*
X156566666Y-92463333D01*
X156500000Y-92430000D01*
X156466666Y-92396666D01*
X156433333Y-92330000D01*
X156400000Y-92196666D01*
X156366666Y-92130000D01*
X156333333Y-92096666D01*
X156266666Y-92063333D01*
X156200000Y-92063333D01*
X156133333Y-92096666D01*
X156100000Y-92130000D01*
X156066666Y-92196666D01*
X156066666Y-92363333D01*
X156100000Y-92463333D01*
X156766666Y-92763333D02*
X156066666Y-92763333D01*
X156066666Y-92930000D01*
X156100000Y-93030000D01*
X156166666Y-93096666D01*
X156233333Y-93130000D01*
X156366666Y-93163333D01*
X156466666Y-93163333D01*
X156600000Y-93130000D01*
X156666666Y-93096666D01*
X156733333Y-93030000D01*
X156766666Y-92930000D01*
X156766666Y-92763333D01*
X156766666Y-93463333D02*
X156066666Y-93463333D01*
X145733333Y-92063333D02*
X145766666Y-92163333D01*
X145766666Y-92330000D01*
X145733333Y-92396666D01*
X145700000Y-92430000D01*
X145633333Y-92463333D01*
X145566666Y-92463333D01*
X145500000Y-92430000D01*
X145466666Y-92396666D01*
X145433333Y-92330000D01*
X145400000Y-92196666D01*
X145366666Y-92130000D01*
X145333333Y-92096666D01*
X145266666Y-92063333D01*
X145200000Y-92063333D01*
X145133333Y-92096666D01*
X145100000Y-92130000D01*
X145066666Y-92196666D01*
X145066666Y-92363333D01*
X145100000Y-92463333D01*
X145766666Y-92763333D02*
X145066666Y-92763333D01*
X145066666Y-92930000D01*
X145100000Y-93030000D01*
X145166666Y-93096666D01*
X145233333Y-93130000D01*
X145366666Y-93163333D01*
X145466666Y-93163333D01*
X145600000Y-93130000D01*
X145666666Y-93096666D01*
X145733333Y-93030000D01*
X145766666Y-92930000D01*
X145766666Y-92763333D01*
X145766666Y-93463333D02*
X145066666Y-93463333D01*
X134733333Y-92063333D02*
X134766666Y-92163333D01*
X134766666Y-92330000D01*
X134733333Y-92396666D01*
X134700000Y-92430000D01*
X134633333Y-92463333D01*
X134566666Y-92463333D01*
X134500000Y-92430000D01*
X134466666Y-92396666D01*
X134433333Y-92330000D01*
X134400000Y-92196666D01*
X134366666Y-92130000D01*
X134333333Y-92096666D01*
X134266666Y-92063333D01*
X134200000Y-92063333D01*
X134133333Y-92096666D01*
X134100000Y-92130000D01*
X134066666Y-92196666D01*
X134066666Y-92363333D01*
X134100000Y-92463333D01*
X134766666Y-92763333D02*
X134066666Y-92763333D01*
X134066666Y-92930000D01*
X134100000Y-93030000D01*
X134166666Y-93096666D01*
X134233333Y-93130000D01*
X134366666Y-93163333D01*
X134466666Y-93163333D01*
X134600000Y-93130000D01*
X134666666Y-93096666D01*
X134733333Y-93030000D01*
X134766666Y-92930000D01*
X134766666Y-92763333D01*
X134766666Y-93463333D02*
X134066666Y-93463333D01*
X167733333Y-82063333D02*
X167766666Y-82163333D01*
X167766666Y-82330000D01*
X167733333Y-82396666D01*
X167700000Y-82430000D01*
X167633333Y-82463333D01*
X167566666Y-82463333D01*
X167500000Y-82430000D01*
X167466666Y-82396666D01*
X167433333Y-82330000D01*
X167400000Y-82196666D01*
X167366666Y-82130000D01*
X167333333Y-82096666D01*
X167266666Y-82063333D01*
X167200000Y-82063333D01*
X167133333Y-82096666D01*
X167100000Y-82130000D01*
X167066666Y-82196666D01*
X167066666Y-82363333D01*
X167100000Y-82463333D01*
X167766666Y-82763333D02*
X167066666Y-82763333D01*
X167066666Y-82930000D01*
X167100000Y-83030000D01*
X167166666Y-83096666D01*
X167233333Y-83130000D01*
X167366666Y-83163333D01*
X167466666Y-83163333D01*
X167600000Y-83130000D01*
X167666666Y-83096666D01*
X167733333Y-83030000D01*
X167766666Y-82930000D01*
X167766666Y-82763333D01*
X167766666Y-83463333D02*
X167066666Y-83463333D01*
X156733333Y-82063333D02*
X156766666Y-82163333D01*
X156766666Y-82330000D01*
X156733333Y-82396666D01*
X156700000Y-82430000D01*
X156633333Y-82463333D01*
X156566666Y-82463333D01*
X156500000Y-82430000D01*
X156466666Y-82396666D01*
X156433333Y-82330000D01*
X156400000Y-82196666D01*
X156366666Y-82130000D01*
X156333333Y-82096666D01*
X156266666Y-82063333D01*
X156200000Y-82063333D01*
X156133333Y-82096666D01*
X156100000Y-82130000D01*
X156066666Y-82196666D01*
X156066666Y-82363333D01*
X156100000Y-82463333D01*
X156766666Y-82763333D02*
X156066666Y-82763333D01*
X156066666Y-82930000D01*
X156100000Y-83030000D01*
X156166666Y-83096666D01*
X156233333Y-83130000D01*
X156366666Y-83163333D01*
X156466666Y-83163333D01*
X156600000Y-83130000D01*
X156666666Y-83096666D01*
X156733333Y-83030000D01*
X156766666Y-82930000D01*
X156766666Y-82763333D01*
X156766666Y-83463333D02*
X156066666Y-83463333D01*
X145733333Y-82063333D02*
X145766666Y-82163333D01*
X145766666Y-82330000D01*
X145733333Y-82396666D01*
X145700000Y-82430000D01*
X145633333Y-82463333D01*
X145566666Y-82463333D01*
X145500000Y-82430000D01*
X145466666Y-82396666D01*
X145433333Y-82330000D01*
X145400000Y-82196666D01*
X145366666Y-82130000D01*
X145333333Y-82096666D01*
X145266666Y-82063333D01*
X145200000Y-82063333D01*
X145133333Y-82096666D01*
X145100000Y-82130000D01*
X145066666Y-82196666D01*
X145066666Y-82363333D01*
X145100000Y-82463333D01*
X145766666Y-82763333D02*
X145066666Y-82763333D01*
X145066666Y-82930000D01*
X145100000Y-83030000D01*
X145166666Y-83096666D01*
X145233333Y-83130000D01*
X145366666Y-83163333D01*
X145466666Y-83163333D01*
X145600000Y-83130000D01*
X145666666Y-83096666D01*
X145733333Y-83030000D01*
X145766666Y-82930000D01*
X145766666Y-82763333D01*
X145766666Y-83463333D02*
X145066666Y-83463333D01*
X134733333Y-82063333D02*
X134766666Y-82163333D01*
X134766666Y-82330000D01*
X134733333Y-82396666D01*
X134700000Y-82430000D01*
X134633333Y-82463333D01*
X134566666Y-82463333D01*
X134500000Y-82430000D01*
X134466666Y-82396666D01*
X134433333Y-82330000D01*
X134400000Y-82196666D01*
X134366666Y-82130000D01*
X134333333Y-82096666D01*
X134266666Y-82063333D01*
X134200000Y-82063333D01*
X134133333Y-82096666D01*
X134100000Y-82130000D01*
X134066666Y-82196666D01*
X134066666Y-82363333D01*
X134100000Y-82463333D01*
X134766666Y-82763333D02*
X134066666Y-82763333D01*
X134066666Y-82930000D01*
X134100000Y-83030000D01*
X134166666Y-83096666D01*
X134233333Y-83130000D01*
X134366666Y-83163333D01*
X134466666Y-83163333D01*
X134600000Y-83130000D01*
X134666666Y-83096666D01*
X134733333Y-83030000D01*
X134766666Y-82930000D01*
X134766666Y-82763333D01*
X134766666Y-83463333D02*
X134066666Y-83463333D01*
X167733333Y-72063333D02*
X167766666Y-72163333D01*
X167766666Y-72330000D01*
X167733333Y-72396666D01*
X167700000Y-72430000D01*
X167633333Y-72463333D01*
X167566666Y-72463333D01*
X167500000Y-72430000D01*
X167466666Y-72396666D01*
X167433333Y-72330000D01*
X167400000Y-72196666D01*
X167366666Y-72130000D01*
X167333333Y-72096666D01*
X167266666Y-72063333D01*
X167200000Y-72063333D01*
X167133333Y-72096666D01*
X167100000Y-72130000D01*
X167066666Y-72196666D01*
X167066666Y-72363333D01*
X167100000Y-72463333D01*
X167766666Y-72763333D02*
X167066666Y-72763333D01*
X167066666Y-72930000D01*
X167100000Y-73030000D01*
X167166666Y-73096666D01*
X167233333Y-73130000D01*
X167366666Y-73163333D01*
X167466666Y-73163333D01*
X167600000Y-73130000D01*
X167666666Y-73096666D01*
X167733333Y-73030000D01*
X167766666Y-72930000D01*
X167766666Y-72763333D01*
X167766666Y-73463333D02*
X167066666Y-73463333D01*
X156733333Y-72063333D02*
X156766666Y-72163333D01*
X156766666Y-72330000D01*
X156733333Y-72396666D01*
X156700000Y-72430000D01*
X156633333Y-72463333D01*
X156566666Y-72463333D01*
X156500000Y-72430000D01*
X156466666Y-72396666D01*
X156433333Y-72330000D01*
X156400000Y-72196666D01*
X156366666Y-72130000D01*
X156333333Y-72096666D01*
X156266666Y-72063333D01*
X156200000Y-72063333D01*
X156133333Y-72096666D01*
X156100000Y-72130000D01*
X156066666Y-72196666D01*
X156066666Y-72363333D01*
X156100000Y-72463333D01*
X156766666Y-72763333D02*
X156066666Y-72763333D01*
X156066666Y-72930000D01*
X156100000Y-73030000D01*
X156166666Y-73096666D01*
X156233333Y-73130000D01*
X156366666Y-73163333D01*
X156466666Y-73163333D01*
X156600000Y-73130000D01*
X156666666Y-73096666D01*
X156733333Y-73030000D01*
X156766666Y-72930000D01*
X156766666Y-72763333D01*
X156766666Y-73463333D02*
X156066666Y-73463333D01*
X145733333Y-72063333D02*
X145766666Y-72163333D01*
X145766666Y-72330000D01*
X145733333Y-72396666D01*
X145700000Y-72430000D01*
X145633333Y-72463333D01*
X145566666Y-72463333D01*
X145500000Y-72430000D01*
X145466666Y-72396666D01*
X145433333Y-72330000D01*
X145400000Y-72196666D01*
X145366666Y-72130000D01*
X145333333Y-72096666D01*
X145266666Y-72063333D01*
X145200000Y-72063333D01*
X145133333Y-72096666D01*
X145100000Y-72130000D01*
X145066666Y-72196666D01*
X145066666Y-72363333D01*
X145100000Y-72463333D01*
X145766666Y-72763333D02*
X145066666Y-72763333D01*
X145066666Y-72930000D01*
X145100000Y-73030000D01*
X145166666Y-73096666D01*
X145233333Y-73130000D01*
X145366666Y-73163333D01*
X145466666Y-73163333D01*
X145600000Y-73130000D01*
X145666666Y-73096666D01*
X145733333Y-73030000D01*
X145766666Y-72930000D01*
X145766666Y-72763333D01*
X145766666Y-73463333D02*
X145066666Y-73463333D01*
X166463333Y-101880000D02*
X166496666Y-101980000D01*
X166496666Y-102146666D01*
X166463333Y-102213333D01*
X166430000Y-102246666D01*
X166363333Y-102280000D01*
X166296666Y-102280000D01*
X166230000Y-102246666D01*
X166196666Y-102213333D01*
X166163333Y-102146666D01*
X166130000Y-102013333D01*
X166096666Y-101946666D01*
X166063333Y-101913333D01*
X165996666Y-101880000D01*
X165930000Y-101880000D01*
X165863333Y-101913333D01*
X165830000Y-101946666D01*
X165796666Y-102013333D01*
X165796666Y-102180000D01*
X165830000Y-102280000D01*
X166430000Y-102980000D02*
X166463333Y-102946666D01*
X166496666Y-102846666D01*
X166496666Y-102780000D01*
X166463333Y-102680000D01*
X166396666Y-102613333D01*
X166330000Y-102580000D01*
X166196666Y-102546666D01*
X166096666Y-102546666D01*
X165963333Y-102580000D01*
X165896666Y-102613333D01*
X165830000Y-102680000D01*
X165796666Y-102780000D01*
X165796666Y-102846666D01*
X165830000Y-102946666D01*
X165863333Y-102980000D01*
X166496666Y-103280000D02*
X165796666Y-103280000D01*
X166496666Y-103680000D02*
X166096666Y-103380000D01*
X165796666Y-103680000D02*
X166196666Y-103280000D01*
X155463333Y-101880000D02*
X155496666Y-101980000D01*
X155496666Y-102146666D01*
X155463333Y-102213333D01*
X155430000Y-102246666D01*
X155363333Y-102280000D01*
X155296666Y-102280000D01*
X155230000Y-102246666D01*
X155196666Y-102213333D01*
X155163333Y-102146666D01*
X155130000Y-102013333D01*
X155096666Y-101946666D01*
X155063333Y-101913333D01*
X154996666Y-101880000D01*
X154930000Y-101880000D01*
X154863333Y-101913333D01*
X154830000Y-101946666D01*
X154796666Y-102013333D01*
X154796666Y-102180000D01*
X154830000Y-102280000D01*
X155430000Y-102980000D02*
X155463333Y-102946666D01*
X155496666Y-102846666D01*
X155496666Y-102780000D01*
X155463333Y-102680000D01*
X155396666Y-102613333D01*
X155330000Y-102580000D01*
X155196666Y-102546666D01*
X155096666Y-102546666D01*
X154963333Y-102580000D01*
X154896666Y-102613333D01*
X154830000Y-102680000D01*
X154796666Y-102780000D01*
X154796666Y-102846666D01*
X154830000Y-102946666D01*
X154863333Y-102980000D01*
X155496666Y-103280000D02*
X154796666Y-103280000D01*
X155496666Y-103680000D02*
X155096666Y-103380000D01*
X154796666Y-103680000D02*
X155196666Y-103280000D01*
X144463333Y-101880000D02*
X144496666Y-101980000D01*
X144496666Y-102146666D01*
X144463333Y-102213333D01*
X144430000Y-102246666D01*
X144363333Y-102280000D01*
X144296666Y-102280000D01*
X144230000Y-102246666D01*
X144196666Y-102213333D01*
X144163333Y-102146666D01*
X144130000Y-102013333D01*
X144096666Y-101946666D01*
X144063333Y-101913333D01*
X143996666Y-101880000D01*
X143930000Y-101880000D01*
X143863333Y-101913333D01*
X143830000Y-101946666D01*
X143796666Y-102013333D01*
X143796666Y-102180000D01*
X143830000Y-102280000D01*
X144430000Y-102980000D02*
X144463333Y-102946666D01*
X144496666Y-102846666D01*
X144496666Y-102780000D01*
X144463333Y-102680000D01*
X144396666Y-102613333D01*
X144330000Y-102580000D01*
X144196666Y-102546666D01*
X144096666Y-102546666D01*
X143963333Y-102580000D01*
X143896666Y-102613333D01*
X143830000Y-102680000D01*
X143796666Y-102780000D01*
X143796666Y-102846666D01*
X143830000Y-102946666D01*
X143863333Y-102980000D01*
X144496666Y-103280000D02*
X143796666Y-103280000D01*
X144496666Y-103680000D02*
X144096666Y-103380000D01*
X143796666Y-103680000D02*
X144196666Y-103280000D01*
X133463333Y-101880000D02*
X133496666Y-101980000D01*
X133496666Y-102146666D01*
X133463333Y-102213333D01*
X133430000Y-102246666D01*
X133363333Y-102280000D01*
X133296666Y-102280000D01*
X133230000Y-102246666D01*
X133196666Y-102213333D01*
X133163333Y-102146666D01*
X133130000Y-102013333D01*
X133096666Y-101946666D01*
X133063333Y-101913333D01*
X132996666Y-101880000D01*
X132930000Y-101880000D01*
X132863333Y-101913333D01*
X132830000Y-101946666D01*
X132796666Y-102013333D01*
X132796666Y-102180000D01*
X132830000Y-102280000D01*
X133430000Y-102980000D02*
X133463333Y-102946666D01*
X133496666Y-102846666D01*
X133496666Y-102780000D01*
X133463333Y-102680000D01*
X133396666Y-102613333D01*
X133330000Y-102580000D01*
X133196666Y-102546666D01*
X133096666Y-102546666D01*
X132963333Y-102580000D01*
X132896666Y-102613333D01*
X132830000Y-102680000D01*
X132796666Y-102780000D01*
X132796666Y-102846666D01*
X132830000Y-102946666D01*
X132863333Y-102980000D01*
X133496666Y-103280000D02*
X132796666Y-103280000D01*
X133496666Y-103680000D02*
X133096666Y-103380000D01*
X132796666Y-103680000D02*
X133196666Y-103280000D01*
X166463333Y-91880000D02*
X166496666Y-91980000D01*
X166496666Y-92146666D01*
X166463333Y-92213333D01*
X166430000Y-92246666D01*
X166363333Y-92280000D01*
X166296666Y-92280000D01*
X166230000Y-92246666D01*
X166196666Y-92213333D01*
X166163333Y-92146666D01*
X166130000Y-92013333D01*
X166096666Y-91946666D01*
X166063333Y-91913333D01*
X165996666Y-91880000D01*
X165930000Y-91880000D01*
X165863333Y-91913333D01*
X165830000Y-91946666D01*
X165796666Y-92013333D01*
X165796666Y-92180000D01*
X165830000Y-92280000D01*
X166430000Y-92980000D02*
X166463333Y-92946666D01*
X166496666Y-92846666D01*
X166496666Y-92780000D01*
X166463333Y-92680000D01*
X166396666Y-92613333D01*
X166330000Y-92580000D01*
X166196666Y-92546666D01*
X166096666Y-92546666D01*
X165963333Y-92580000D01*
X165896666Y-92613333D01*
X165830000Y-92680000D01*
X165796666Y-92780000D01*
X165796666Y-92846666D01*
X165830000Y-92946666D01*
X165863333Y-92980000D01*
X166496666Y-93280000D02*
X165796666Y-93280000D01*
X166496666Y-93680000D02*
X166096666Y-93380000D01*
X165796666Y-93680000D02*
X166196666Y-93280000D01*
X155463333Y-91880000D02*
X155496666Y-91980000D01*
X155496666Y-92146666D01*
X155463333Y-92213333D01*
X155430000Y-92246666D01*
X155363333Y-92280000D01*
X155296666Y-92280000D01*
X155230000Y-92246666D01*
X155196666Y-92213333D01*
X155163333Y-92146666D01*
X155130000Y-92013333D01*
X155096666Y-91946666D01*
X155063333Y-91913333D01*
X154996666Y-91880000D01*
X154930000Y-91880000D01*
X154863333Y-91913333D01*
X154830000Y-91946666D01*
X154796666Y-92013333D01*
X154796666Y-92180000D01*
X154830000Y-92280000D01*
X155430000Y-92980000D02*
X155463333Y-92946666D01*
X155496666Y-92846666D01*
X155496666Y-92780000D01*
X155463333Y-92680000D01*
X155396666Y-92613333D01*
X155330000Y-92580000D01*
X155196666Y-92546666D01*
X155096666Y-92546666D01*
X154963333Y-92580000D01*
X154896666Y-92613333D01*
X154830000Y-92680000D01*
X154796666Y-92780000D01*
X154796666Y-92846666D01*
X154830000Y-92946666D01*
X154863333Y-92980000D01*
X155496666Y-93280000D02*
X154796666Y-93280000D01*
X155496666Y-93680000D02*
X155096666Y-93380000D01*
X154796666Y-93680000D02*
X155196666Y-93280000D01*
X144463333Y-91880000D02*
X144496666Y-91980000D01*
X144496666Y-92146666D01*
X144463333Y-92213333D01*
X144430000Y-92246666D01*
X144363333Y-92280000D01*
X144296666Y-92280000D01*
X144230000Y-92246666D01*
X144196666Y-92213333D01*
X144163333Y-92146666D01*
X144130000Y-92013333D01*
X144096666Y-91946666D01*
X144063333Y-91913333D01*
X143996666Y-91880000D01*
X143930000Y-91880000D01*
X143863333Y-91913333D01*
X143830000Y-91946666D01*
X143796666Y-92013333D01*
X143796666Y-92180000D01*
X143830000Y-92280000D01*
X144430000Y-92980000D02*
X144463333Y-92946666D01*
X144496666Y-92846666D01*
X144496666Y-92780000D01*
X144463333Y-92680000D01*
X144396666Y-92613333D01*
X144330000Y-92580000D01*
X144196666Y-92546666D01*
X144096666Y-92546666D01*
X143963333Y-92580000D01*
X143896666Y-92613333D01*
X143830000Y-92680000D01*
X143796666Y-92780000D01*
X143796666Y-92846666D01*
X143830000Y-92946666D01*
X143863333Y-92980000D01*
X144496666Y-93280000D02*
X143796666Y-93280000D01*
X144496666Y-93680000D02*
X144096666Y-93380000D01*
X143796666Y-93680000D02*
X144196666Y-93280000D01*
X133463333Y-91880000D02*
X133496666Y-91980000D01*
X133496666Y-92146666D01*
X133463333Y-92213333D01*
X133430000Y-92246666D01*
X133363333Y-92280000D01*
X133296666Y-92280000D01*
X133230000Y-92246666D01*
X133196666Y-92213333D01*
X133163333Y-92146666D01*
X133130000Y-92013333D01*
X133096666Y-91946666D01*
X133063333Y-91913333D01*
X132996666Y-91880000D01*
X132930000Y-91880000D01*
X132863333Y-91913333D01*
X132830000Y-91946666D01*
X132796666Y-92013333D01*
X132796666Y-92180000D01*
X132830000Y-92280000D01*
X133430000Y-92980000D02*
X133463333Y-92946666D01*
X133496666Y-92846666D01*
X133496666Y-92780000D01*
X133463333Y-92680000D01*
X133396666Y-92613333D01*
X133330000Y-92580000D01*
X133196666Y-92546666D01*
X133096666Y-92546666D01*
X132963333Y-92580000D01*
X132896666Y-92613333D01*
X132830000Y-92680000D01*
X132796666Y-92780000D01*
X132796666Y-92846666D01*
X132830000Y-92946666D01*
X132863333Y-92980000D01*
X133496666Y-93280000D02*
X132796666Y-93280000D01*
X133496666Y-93680000D02*
X133096666Y-93380000D01*
X132796666Y-93680000D02*
X133196666Y-93280000D01*
X166463333Y-81880000D02*
X166496666Y-81980000D01*
X166496666Y-82146666D01*
X166463333Y-82213333D01*
X166430000Y-82246666D01*
X166363333Y-82280000D01*
X166296666Y-82280000D01*
X166230000Y-82246666D01*
X166196666Y-82213333D01*
X166163333Y-82146666D01*
X166130000Y-82013333D01*
X166096666Y-81946666D01*
X166063333Y-81913333D01*
X165996666Y-81880000D01*
X165930000Y-81880000D01*
X165863333Y-81913333D01*
X165830000Y-81946666D01*
X165796666Y-82013333D01*
X165796666Y-82180000D01*
X165830000Y-82280000D01*
X166430000Y-82980000D02*
X166463333Y-82946666D01*
X166496666Y-82846666D01*
X166496666Y-82780000D01*
X166463333Y-82680000D01*
X166396666Y-82613333D01*
X166330000Y-82580000D01*
X166196666Y-82546666D01*
X166096666Y-82546666D01*
X165963333Y-82580000D01*
X165896666Y-82613333D01*
X165830000Y-82680000D01*
X165796666Y-82780000D01*
X165796666Y-82846666D01*
X165830000Y-82946666D01*
X165863333Y-82980000D01*
X166496666Y-83280000D02*
X165796666Y-83280000D01*
X166496666Y-83680000D02*
X166096666Y-83380000D01*
X165796666Y-83680000D02*
X166196666Y-83280000D01*
X155463333Y-81880000D02*
X155496666Y-81980000D01*
X155496666Y-82146666D01*
X155463333Y-82213333D01*
X155430000Y-82246666D01*
X155363333Y-82280000D01*
X155296666Y-82280000D01*
X155230000Y-82246666D01*
X155196666Y-82213333D01*
X155163333Y-82146666D01*
X155130000Y-82013333D01*
X155096666Y-81946666D01*
X155063333Y-81913333D01*
X154996666Y-81880000D01*
X154930000Y-81880000D01*
X154863333Y-81913333D01*
X154830000Y-81946666D01*
X154796666Y-82013333D01*
X154796666Y-82180000D01*
X154830000Y-82280000D01*
X155430000Y-82980000D02*
X155463333Y-82946666D01*
X155496666Y-82846666D01*
X155496666Y-82780000D01*
X155463333Y-82680000D01*
X155396666Y-82613333D01*
X155330000Y-82580000D01*
X155196666Y-82546666D01*
X155096666Y-82546666D01*
X154963333Y-82580000D01*
X154896666Y-82613333D01*
X154830000Y-82680000D01*
X154796666Y-82780000D01*
X154796666Y-82846666D01*
X154830000Y-82946666D01*
X154863333Y-82980000D01*
X155496666Y-83280000D02*
X154796666Y-83280000D01*
X155496666Y-83680000D02*
X155096666Y-83380000D01*
X154796666Y-83680000D02*
X155196666Y-83280000D01*
X144463333Y-81880000D02*
X144496666Y-81980000D01*
X144496666Y-82146666D01*
X144463333Y-82213333D01*
X144430000Y-82246666D01*
X144363333Y-82280000D01*
X144296666Y-82280000D01*
X144230000Y-82246666D01*
X144196666Y-82213333D01*
X144163333Y-82146666D01*
X144130000Y-82013333D01*
X144096666Y-81946666D01*
X144063333Y-81913333D01*
X143996666Y-81880000D01*
X143930000Y-81880000D01*
X143863333Y-81913333D01*
X143830000Y-81946666D01*
X143796666Y-82013333D01*
X143796666Y-82180000D01*
X143830000Y-82280000D01*
X144430000Y-82980000D02*
X144463333Y-82946666D01*
X144496666Y-82846666D01*
X144496666Y-82780000D01*
X144463333Y-82680000D01*
X144396666Y-82613333D01*
X144330000Y-82580000D01*
X144196666Y-82546666D01*
X144096666Y-82546666D01*
X143963333Y-82580000D01*
X143896666Y-82613333D01*
X143830000Y-82680000D01*
X143796666Y-82780000D01*
X143796666Y-82846666D01*
X143830000Y-82946666D01*
X143863333Y-82980000D01*
X144496666Y-83280000D02*
X143796666Y-83280000D01*
X144496666Y-83680000D02*
X144096666Y-83380000D01*
X143796666Y-83680000D02*
X144196666Y-83280000D01*
X133463333Y-81880000D02*
X133496666Y-81980000D01*
X133496666Y-82146666D01*
X133463333Y-82213333D01*
X133430000Y-82246666D01*
X133363333Y-82280000D01*
X133296666Y-82280000D01*
X133230000Y-82246666D01*
X133196666Y-82213333D01*
X133163333Y-82146666D01*
X133130000Y-82013333D01*
X133096666Y-81946666D01*
X133063333Y-81913333D01*
X132996666Y-81880000D01*
X132930000Y-81880000D01*
X132863333Y-81913333D01*
X132830000Y-81946666D01*
X132796666Y-82013333D01*
X132796666Y-82180000D01*
X132830000Y-82280000D01*
X133430000Y-82980000D02*
X133463333Y-82946666D01*
X133496666Y-82846666D01*
X133496666Y-82780000D01*
X133463333Y-82680000D01*
X133396666Y-82613333D01*
X133330000Y-82580000D01*
X133196666Y-82546666D01*
X133096666Y-82546666D01*
X132963333Y-82580000D01*
X132896666Y-82613333D01*
X132830000Y-82680000D01*
X132796666Y-82780000D01*
X132796666Y-82846666D01*
X132830000Y-82946666D01*
X132863333Y-82980000D01*
X133496666Y-83280000D02*
X132796666Y-83280000D01*
X133496666Y-83680000D02*
X133096666Y-83380000D01*
X132796666Y-83680000D02*
X133196666Y-83280000D01*
X166463333Y-71880000D02*
X166496666Y-71980000D01*
X166496666Y-72146666D01*
X166463333Y-72213333D01*
X166430000Y-72246666D01*
X166363333Y-72280000D01*
X166296666Y-72280000D01*
X166230000Y-72246666D01*
X166196666Y-72213333D01*
X166163333Y-72146666D01*
X166130000Y-72013333D01*
X166096666Y-71946666D01*
X166063333Y-71913333D01*
X165996666Y-71880000D01*
X165930000Y-71880000D01*
X165863333Y-71913333D01*
X165830000Y-71946666D01*
X165796666Y-72013333D01*
X165796666Y-72180000D01*
X165830000Y-72280000D01*
X166430000Y-72980000D02*
X166463333Y-72946666D01*
X166496666Y-72846666D01*
X166496666Y-72780000D01*
X166463333Y-72680000D01*
X166396666Y-72613333D01*
X166330000Y-72580000D01*
X166196666Y-72546666D01*
X166096666Y-72546666D01*
X165963333Y-72580000D01*
X165896666Y-72613333D01*
X165830000Y-72680000D01*
X165796666Y-72780000D01*
X165796666Y-72846666D01*
X165830000Y-72946666D01*
X165863333Y-72980000D01*
X166496666Y-73280000D02*
X165796666Y-73280000D01*
X166496666Y-73680000D02*
X166096666Y-73380000D01*
X165796666Y-73680000D02*
X166196666Y-73280000D01*
X155463333Y-71880000D02*
X155496666Y-71980000D01*
X155496666Y-72146666D01*
X155463333Y-72213333D01*
X155430000Y-72246666D01*
X155363333Y-72280000D01*
X155296666Y-72280000D01*
X155230000Y-72246666D01*
X155196666Y-72213333D01*
X155163333Y-72146666D01*
X155130000Y-72013333D01*
X155096666Y-71946666D01*
X155063333Y-71913333D01*
X154996666Y-71880000D01*
X154930000Y-71880000D01*
X154863333Y-71913333D01*
X154830000Y-71946666D01*
X154796666Y-72013333D01*
X154796666Y-72180000D01*
X154830000Y-72280000D01*
X155430000Y-72980000D02*
X155463333Y-72946666D01*
X155496666Y-72846666D01*
X155496666Y-72780000D01*
X155463333Y-72680000D01*
X155396666Y-72613333D01*
X155330000Y-72580000D01*
X155196666Y-72546666D01*
X155096666Y-72546666D01*
X154963333Y-72580000D01*
X154896666Y-72613333D01*
X154830000Y-72680000D01*
X154796666Y-72780000D01*
X154796666Y-72846666D01*
X154830000Y-72946666D01*
X154863333Y-72980000D01*
X155496666Y-73280000D02*
X154796666Y-73280000D01*
X155496666Y-73680000D02*
X155096666Y-73380000D01*
X154796666Y-73680000D02*
X155196666Y-73280000D01*
X144463333Y-71880000D02*
X144496666Y-71980000D01*
X144496666Y-72146666D01*
X144463333Y-72213333D01*
X144430000Y-72246666D01*
X144363333Y-72280000D01*
X144296666Y-72280000D01*
X144230000Y-72246666D01*
X144196666Y-72213333D01*
X144163333Y-72146666D01*
X144130000Y-72013333D01*
X144096666Y-71946666D01*
X144063333Y-71913333D01*
X143996666Y-71880000D01*
X143930000Y-71880000D01*
X143863333Y-71913333D01*
X143830000Y-71946666D01*
X143796666Y-72013333D01*
X143796666Y-72180000D01*
X143830000Y-72280000D01*
X144430000Y-72980000D02*
X144463333Y-72946666D01*
X144496666Y-72846666D01*
X144496666Y-72780000D01*
X144463333Y-72680000D01*
X144396666Y-72613333D01*
X144330000Y-72580000D01*
X144196666Y-72546666D01*
X144096666Y-72546666D01*
X143963333Y-72580000D01*
X143896666Y-72613333D01*
X143830000Y-72680000D01*
X143796666Y-72780000D01*
X143796666Y-72846666D01*
X143830000Y-72946666D01*
X143863333Y-72980000D01*
X144496666Y-73280000D02*
X143796666Y-73280000D01*
X144496666Y-73680000D02*
X144096666Y-73380000D01*
X143796666Y-73680000D02*
X144196666Y-73280000D01*
X163290000Y-102246666D02*
X163256666Y-102180000D01*
X163256666Y-102080000D01*
X163290000Y-101980000D01*
X163356666Y-101913333D01*
X163423333Y-101880000D01*
X163556666Y-101846666D01*
X163656666Y-101846666D01*
X163790000Y-101880000D01*
X163856666Y-101913333D01*
X163923333Y-101980000D01*
X163956666Y-102080000D01*
X163956666Y-102146666D01*
X163923333Y-102246666D01*
X163890000Y-102280000D01*
X163656666Y-102280000D01*
X163656666Y-102146666D01*
X163956666Y-102580000D02*
X163256666Y-102580000D01*
X163956666Y-102980000D01*
X163256666Y-102980000D01*
X163956666Y-103313333D02*
X163256666Y-103313333D01*
X163256666Y-103480000D01*
X163290000Y-103580000D01*
X163356666Y-103646666D01*
X163423333Y-103680000D01*
X163556666Y-103713333D01*
X163656666Y-103713333D01*
X163790000Y-103680000D01*
X163856666Y-103646666D01*
X163923333Y-103580000D01*
X163956666Y-103480000D01*
X163956666Y-103313333D01*
X152290000Y-102246666D02*
X152256666Y-102180000D01*
X152256666Y-102080000D01*
X152290000Y-101980000D01*
X152356666Y-101913333D01*
X152423333Y-101880000D01*
X152556666Y-101846666D01*
X152656666Y-101846666D01*
X152790000Y-101880000D01*
X152856666Y-101913333D01*
X152923333Y-101980000D01*
X152956666Y-102080000D01*
X152956666Y-102146666D01*
X152923333Y-102246666D01*
X152890000Y-102280000D01*
X152656666Y-102280000D01*
X152656666Y-102146666D01*
X152956666Y-102580000D02*
X152256666Y-102580000D01*
X152956666Y-102980000D01*
X152256666Y-102980000D01*
X152956666Y-103313333D02*
X152256666Y-103313333D01*
X152256666Y-103480000D01*
X152290000Y-103580000D01*
X152356666Y-103646666D01*
X152423333Y-103680000D01*
X152556666Y-103713333D01*
X152656666Y-103713333D01*
X152790000Y-103680000D01*
X152856666Y-103646666D01*
X152923333Y-103580000D01*
X152956666Y-103480000D01*
X152956666Y-103313333D01*
X141290000Y-102246666D02*
X141256666Y-102180000D01*
X141256666Y-102080000D01*
X141290000Y-101980000D01*
X141356666Y-101913333D01*
X141423333Y-101880000D01*
X141556666Y-101846666D01*
X141656666Y-101846666D01*
X141790000Y-101880000D01*
X141856666Y-101913333D01*
X141923333Y-101980000D01*
X141956666Y-102080000D01*
X141956666Y-102146666D01*
X141923333Y-102246666D01*
X141890000Y-102280000D01*
X141656666Y-102280000D01*
X141656666Y-102146666D01*
X141956666Y-102580000D02*
X141256666Y-102580000D01*
X141956666Y-102980000D01*
X141256666Y-102980000D01*
X141956666Y-103313333D02*
X141256666Y-103313333D01*
X141256666Y-103480000D01*
X141290000Y-103580000D01*
X141356666Y-103646666D01*
X141423333Y-103680000D01*
X141556666Y-103713333D01*
X141656666Y-103713333D01*
X141790000Y-103680000D01*
X141856666Y-103646666D01*
X141923333Y-103580000D01*
X141956666Y-103480000D01*
X141956666Y-103313333D01*
X130290000Y-102246666D02*
X130256666Y-102180000D01*
X130256666Y-102080000D01*
X130290000Y-101980000D01*
X130356666Y-101913333D01*
X130423333Y-101880000D01*
X130556666Y-101846666D01*
X130656666Y-101846666D01*
X130790000Y-101880000D01*
X130856666Y-101913333D01*
X130923333Y-101980000D01*
X130956666Y-102080000D01*
X130956666Y-102146666D01*
X130923333Y-102246666D01*
X130890000Y-102280000D01*
X130656666Y-102280000D01*
X130656666Y-102146666D01*
X130956666Y-102580000D02*
X130256666Y-102580000D01*
X130956666Y-102980000D01*
X130256666Y-102980000D01*
X130956666Y-103313333D02*
X130256666Y-103313333D01*
X130256666Y-103480000D01*
X130290000Y-103580000D01*
X130356666Y-103646666D01*
X130423333Y-103680000D01*
X130556666Y-103713333D01*
X130656666Y-103713333D01*
X130790000Y-103680000D01*
X130856666Y-103646666D01*
X130923333Y-103580000D01*
X130956666Y-103480000D01*
X130956666Y-103313333D01*
X163290000Y-92246666D02*
X163256666Y-92180000D01*
X163256666Y-92080000D01*
X163290000Y-91980000D01*
X163356666Y-91913333D01*
X163423333Y-91880000D01*
X163556666Y-91846666D01*
X163656666Y-91846666D01*
X163790000Y-91880000D01*
X163856666Y-91913333D01*
X163923333Y-91980000D01*
X163956666Y-92080000D01*
X163956666Y-92146666D01*
X163923333Y-92246666D01*
X163890000Y-92280000D01*
X163656666Y-92280000D01*
X163656666Y-92146666D01*
X163956666Y-92580000D02*
X163256666Y-92580000D01*
X163956666Y-92980000D01*
X163256666Y-92980000D01*
X163956666Y-93313333D02*
X163256666Y-93313333D01*
X163256666Y-93480000D01*
X163290000Y-93580000D01*
X163356666Y-93646666D01*
X163423333Y-93680000D01*
X163556666Y-93713333D01*
X163656666Y-93713333D01*
X163790000Y-93680000D01*
X163856666Y-93646666D01*
X163923333Y-93580000D01*
X163956666Y-93480000D01*
X163956666Y-93313333D01*
X152290000Y-92246666D02*
X152256666Y-92180000D01*
X152256666Y-92080000D01*
X152290000Y-91980000D01*
X152356666Y-91913333D01*
X152423333Y-91880000D01*
X152556666Y-91846666D01*
X152656666Y-91846666D01*
X152790000Y-91880000D01*
X152856666Y-91913333D01*
X152923333Y-91980000D01*
X152956666Y-92080000D01*
X152956666Y-92146666D01*
X152923333Y-92246666D01*
X152890000Y-92280000D01*
X152656666Y-92280000D01*
X152656666Y-92146666D01*
X152956666Y-92580000D02*
X152256666Y-92580000D01*
X152956666Y-92980000D01*
X152256666Y-92980000D01*
X152956666Y-93313333D02*
X152256666Y-93313333D01*
X152256666Y-93480000D01*
X152290000Y-93580000D01*
X152356666Y-93646666D01*
X152423333Y-93680000D01*
X152556666Y-93713333D01*
X152656666Y-93713333D01*
X152790000Y-93680000D01*
X152856666Y-93646666D01*
X152923333Y-93580000D01*
X152956666Y-93480000D01*
X152956666Y-93313333D01*
X141290000Y-92246666D02*
X141256666Y-92180000D01*
X141256666Y-92080000D01*
X141290000Y-91980000D01*
X141356666Y-91913333D01*
X141423333Y-91880000D01*
X141556666Y-91846666D01*
X141656666Y-91846666D01*
X141790000Y-91880000D01*
X141856666Y-91913333D01*
X141923333Y-91980000D01*
X141956666Y-92080000D01*
X141956666Y-92146666D01*
X141923333Y-92246666D01*
X141890000Y-92280000D01*
X141656666Y-92280000D01*
X141656666Y-92146666D01*
X141956666Y-92580000D02*
X141256666Y-92580000D01*
X141956666Y-92980000D01*
X141256666Y-92980000D01*
X141956666Y-93313333D02*
X141256666Y-93313333D01*
X141256666Y-93480000D01*
X141290000Y-93580000D01*
X141356666Y-93646666D01*
X141423333Y-93680000D01*
X141556666Y-93713333D01*
X141656666Y-93713333D01*
X141790000Y-93680000D01*
X141856666Y-93646666D01*
X141923333Y-93580000D01*
X141956666Y-93480000D01*
X141956666Y-93313333D01*
X130290000Y-92246666D02*
X130256666Y-92180000D01*
X130256666Y-92080000D01*
X130290000Y-91980000D01*
X130356666Y-91913333D01*
X130423333Y-91880000D01*
X130556666Y-91846666D01*
X130656666Y-91846666D01*
X130790000Y-91880000D01*
X130856666Y-91913333D01*
X130923333Y-91980000D01*
X130956666Y-92080000D01*
X130956666Y-92146666D01*
X130923333Y-92246666D01*
X130890000Y-92280000D01*
X130656666Y-92280000D01*
X130656666Y-92146666D01*
X130956666Y-92580000D02*
X130256666Y-92580000D01*
X130956666Y-92980000D01*
X130256666Y-92980000D01*
X130956666Y-93313333D02*
X130256666Y-93313333D01*
X130256666Y-93480000D01*
X130290000Y-93580000D01*
X130356666Y-93646666D01*
X130423333Y-93680000D01*
X130556666Y-93713333D01*
X130656666Y-93713333D01*
X130790000Y-93680000D01*
X130856666Y-93646666D01*
X130923333Y-93580000D01*
X130956666Y-93480000D01*
X130956666Y-93313333D01*
X163290000Y-82246666D02*
X163256666Y-82180000D01*
X163256666Y-82080000D01*
X163290000Y-81980000D01*
X163356666Y-81913333D01*
X163423333Y-81880000D01*
X163556666Y-81846666D01*
X163656666Y-81846666D01*
X163790000Y-81880000D01*
X163856666Y-81913333D01*
X163923333Y-81980000D01*
X163956666Y-82080000D01*
X163956666Y-82146666D01*
X163923333Y-82246666D01*
X163890000Y-82280000D01*
X163656666Y-82280000D01*
X163656666Y-82146666D01*
X163956666Y-82580000D02*
X163256666Y-82580000D01*
X163956666Y-82980000D01*
X163256666Y-82980000D01*
X163956666Y-83313333D02*
X163256666Y-83313333D01*
X163256666Y-83480000D01*
X163290000Y-83580000D01*
X163356666Y-83646666D01*
X163423333Y-83680000D01*
X163556666Y-83713333D01*
X163656666Y-83713333D01*
X163790000Y-83680000D01*
X163856666Y-83646666D01*
X163923333Y-83580000D01*
X163956666Y-83480000D01*
X163956666Y-83313333D01*
X152290000Y-82246666D02*
X152256666Y-82180000D01*
X152256666Y-82080000D01*
X152290000Y-81980000D01*
X152356666Y-81913333D01*
X152423333Y-81880000D01*
X152556666Y-81846666D01*
X152656666Y-81846666D01*
X152790000Y-81880000D01*
X152856666Y-81913333D01*
X152923333Y-81980000D01*
X152956666Y-82080000D01*
X152956666Y-82146666D01*
X152923333Y-82246666D01*
X152890000Y-82280000D01*
X152656666Y-82280000D01*
X152656666Y-82146666D01*
X152956666Y-82580000D02*
X152256666Y-82580000D01*
X152956666Y-82980000D01*
X152256666Y-82980000D01*
X152956666Y-83313333D02*
X152256666Y-83313333D01*
X152256666Y-83480000D01*
X152290000Y-83580000D01*
X152356666Y-83646666D01*
X152423333Y-83680000D01*
X152556666Y-83713333D01*
X152656666Y-83713333D01*
X152790000Y-83680000D01*
X152856666Y-83646666D01*
X152923333Y-83580000D01*
X152956666Y-83480000D01*
X152956666Y-83313333D01*
X141290000Y-82246666D02*
X141256666Y-82180000D01*
X141256666Y-82080000D01*
X141290000Y-81980000D01*
X141356666Y-81913333D01*
X141423333Y-81880000D01*
X141556666Y-81846666D01*
X141656666Y-81846666D01*
X141790000Y-81880000D01*
X141856666Y-81913333D01*
X141923333Y-81980000D01*
X141956666Y-82080000D01*
X141956666Y-82146666D01*
X141923333Y-82246666D01*
X141890000Y-82280000D01*
X141656666Y-82280000D01*
X141656666Y-82146666D01*
X141956666Y-82580000D02*
X141256666Y-82580000D01*
X141956666Y-82980000D01*
X141256666Y-82980000D01*
X141956666Y-83313333D02*
X141256666Y-83313333D01*
X141256666Y-83480000D01*
X141290000Y-83580000D01*
X141356666Y-83646666D01*
X141423333Y-83680000D01*
X141556666Y-83713333D01*
X141656666Y-83713333D01*
X141790000Y-83680000D01*
X141856666Y-83646666D01*
X141923333Y-83580000D01*
X141956666Y-83480000D01*
X141956666Y-83313333D01*
X130290000Y-82246666D02*
X130256666Y-82180000D01*
X130256666Y-82080000D01*
X130290000Y-81980000D01*
X130356666Y-81913333D01*
X130423333Y-81880000D01*
X130556666Y-81846666D01*
X130656666Y-81846666D01*
X130790000Y-81880000D01*
X130856666Y-81913333D01*
X130923333Y-81980000D01*
X130956666Y-82080000D01*
X130956666Y-82146666D01*
X130923333Y-82246666D01*
X130890000Y-82280000D01*
X130656666Y-82280000D01*
X130656666Y-82146666D01*
X130956666Y-82580000D02*
X130256666Y-82580000D01*
X130956666Y-82980000D01*
X130256666Y-82980000D01*
X130956666Y-83313333D02*
X130256666Y-83313333D01*
X130256666Y-83480000D01*
X130290000Y-83580000D01*
X130356666Y-83646666D01*
X130423333Y-83680000D01*
X130556666Y-83713333D01*
X130656666Y-83713333D01*
X130790000Y-83680000D01*
X130856666Y-83646666D01*
X130923333Y-83580000D01*
X130956666Y-83480000D01*
X130956666Y-83313333D01*
X163290000Y-72246666D02*
X163256666Y-72180000D01*
X163256666Y-72080000D01*
X163290000Y-71980000D01*
X163356666Y-71913333D01*
X163423333Y-71880000D01*
X163556666Y-71846666D01*
X163656666Y-71846666D01*
X163790000Y-71880000D01*
X163856666Y-71913333D01*
X163923333Y-71980000D01*
X163956666Y-72080000D01*
X163956666Y-72146666D01*
X163923333Y-72246666D01*
X163890000Y-72280000D01*
X163656666Y-72280000D01*
X163656666Y-72146666D01*
X163956666Y-72580000D02*
X163256666Y-72580000D01*
X163956666Y-72980000D01*
X163256666Y-72980000D01*
X163956666Y-73313333D02*
X163256666Y-73313333D01*
X163256666Y-73480000D01*
X163290000Y-73580000D01*
X163356666Y-73646666D01*
X163423333Y-73680000D01*
X163556666Y-73713333D01*
X163656666Y-73713333D01*
X163790000Y-73680000D01*
X163856666Y-73646666D01*
X163923333Y-73580000D01*
X163956666Y-73480000D01*
X163956666Y-73313333D01*
X152290000Y-72246666D02*
X152256666Y-72180000D01*
X152256666Y-72080000D01*
X152290000Y-71980000D01*
X152356666Y-71913333D01*
X152423333Y-71880000D01*
X152556666Y-71846666D01*
X152656666Y-71846666D01*
X152790000Y-71880000D01*
X152856666Y-71913333D01*
X152923333Y-71980000D01*
X152956666Y-72080000D01*
X152956666Y-72146666D01*
X152923333Y-72246666D01*
X152890000Y-72280000D01*
X152656666Y-72280000D01*
X152656666Y-72146666D01*
X152956666Y-72580000D02*
X152256666Y-72580000D01*
X152956666Y-72980000D01*
X152256666Y-72980000D01*
X152956666Y-73313333D02*
X152256666Y-73313333D01*
X152256666Y-73480000D01*
X152290000Y-73580000D01*
X152356666Y-73646666D01*
X152423333Y-73680000D01*
X152556666Y-73713333D01*
X152656666Y-73713333D01*
X152790000Y-73680000D01*
X152856666Y-73646666D01*
X152923333Y-73580000D01*
X152956666Y-73480000D01*
X152956666Y-73313333D01*
X141290000Y-72246666D02*
X141256666Y-72180000D01*
X141256666Y-72080000D01*
X141290000Y-71980000D01*
X141356666Y-71913333D01*
X141423333Y-71880000D01*
X141556666Y-71846666D01*
X141656666Y-71846666D01*
X141790000Y-71880000D01*
X141856666Y-71913333D01*
X141923333Y-71980000D01*
X141956666Y-72080000D01*
X141956666Y-72146666D01*
X141923333Y-72246666D01*
X141890000Y-72280000D01*
X141656666Y-72280000D01*
X141656666Y-72146666D01*
X141956666Y-72580000D02*
X141256666Y-72580000D01*
X141956666Y-72980000D01*
X141256666Y-72980000D01*
X141956666Y-73313333D02*
X141256666Y-73313333D01*
X141256666Y-73480000D01*
X141290000Y-73580000D01*
X141356666Y-73646666D01*
X141423333Y-73680000D01*
X141556666Y-73713333D01*
X141656666Y-73713333D01*
X141790000Y-73680000D01*
X141856666Y-73646666D01*
X141923333Y-73580000D01*
X141956666Y-73480000D01*
X141956666Y-73313333D01*
X135336666Y-71746666D02*
X135336666Y-72180000D01*
X135603333Y-71946666D01*
X135603333Y-72046666D01*
X135636666Y-72113333D01*
X135670000Y-72146666D01*
X135736666Y-72180000D01*
X135903333Y-72180000D01*
X135970000Y-72146666D01*
X136003333Y-72113333D01*
X136036666Y-72046666D01*
X136036666Y-71846666D01*
X136003333Y-71780000D01*
X135970000Y-71746666D01*
X135970000Y-72480000D02*
X136003333Y-72513333D01*
X136036666Y-72480000D01*
X136003333Y-72446666D01*
X135970000Y-72480000D01*
X136036666Y-72480000D01*
X135336666Y-72746666D02*
X135336666Y-73180000D01*
X135603333Y-72946666D01*
X135603333Y-73046666D01*
X135636666Y-73113333D01*
X135670000Y-73146666D01*
X135736666Y-73180000D01*
X135903333Y-73180000D01*
X135970000Y-73146666D01*
X136003333Y-73113333D01*
X136036666Y-73046666D01*
X136036666Y-72846666D01*
X136003333Y-72780000D01*
X135970000Y-72746666D01*
X135336666Y-73380000D02*
X136036666Y-73613333D01*
X135336666Y-73846666D01*
X134733333Y-72063333D02*
X134766666Y-72163333D01*
X134766666Y-72330000D01*
X134733333Y-72396666D01*
X134700000Y-72430000D01*
X134633333Y-72463333D01*
X134566666Y-72463333D01*
X134500000Y-72430000D01*
X134466666Y-72396666D01*
X134433333Y-72330000D01*
X134400000Y-72196666D01*
X134366666Y-72130000D01*
X134333333Y-72096666D01*
X134266666Y-72063333D01*
X134200000Y-72063333D01*
X134133333Y-72096666D01*
X134100000Y-72130000D01*
X134066666Y-72196666D01*
X134066666Y-72363333D01*
X134100000Y-72463333D01*
X134766666Y-72763333D02*
X134066666Y-72763333D01*
X134066666Y-72930000D01*
X134100000Y-73030000D01*
X134166666Y-73096666D01*
X134233333Y-73130000D01*
X134366666Y-73163333D01*
X134466666Y-73163333D01*
X134600000Y-73130000D01*
X134666666Y-73096666D01*
X134733333Y-73030000D01*
X134766666Y-72930000D01*
X134766666Y-72763333D01*
X134766666Y-73463333D02*
X134066666Y-73463333D01*
X133463333Y-71880000D02*
X133496666Y-71980000D01*
X133496666Y-72146666D01*
X133463333Y-72213333D01*
X133430000Y-72246666D01*
X133363333Y-72280000D01*
X133296666Y-72280000D01*
X133230000Y-72246666D01*
X133196666Y-72213333D01*
X133163333Y-72146666D01*
X133130000Y-72013333D01*
X133096666Y-71946666D01*
X133063333Y-71913333D01*
X132996666Y-71880000D01*
X132930000Y-71880000D01*
X132863333Y-71913333D01*
X132830000Y-71946666D01*
X132796666Y-72013333D01*
X132796666Y-72180000D01*
X132830000Y-72280000D01*
X133430000Y-72980000D02*
X133463333Y-72946666D01*
X133496666Y-72846666D01*
X133496666Y-72780000D01*
X133463333Y-72680000D01*
X133396666Y-72613333D01*
X133330000Y-72580000D01*
X133196666Y-72546666D01*
X133096666Y-72546666D01*
X132963333Y-72580000D01*
X132896666Y-72613333D01*
X132830000Y-72680000D01*
X132796666Y-72780000D01*
X132796666Y-72846666D01*
X132830000Y-72946666D01*
X132863333Y-72980000D01*
X133496666Y-73280000D02*
X132796666Y-73280000D01*
X133496666Y-73680000D02*
X133096666Y-73380000D01*
X132796666Y-73680000D02*
X133196666Y-73280000D01*
X132193333Y-71863333D02*
X132226666Y-71963333D01*
X132226666Y-72130000D01*
X132193333Y-72196666D01*
X132160000Y-72230000D01*
X132093333Y-72263333D01*
X132026666Y-72263333D01*
X131960000Y-72230000D01*
X131926666Y-72196666D01*
X131893333Y-72130000D01*
X131860000Y-71996666D01*
X131826666Y-71930000D01*
X131793333Y-71896666D01*
X131726666Y-71863333D01*
X131660000Y-71863333D01*
X131593333Y-71896666D01*
X131560000Y-71930000D01*
X131526666Y-71996666D01*
X131526666Y-72163333D01*
X131560000Y-72263333D01*
X132226666Y-72563333D02*
X131526666Y-72563333D01*
X131526666Y-72730000D01*
X131560000Y-72830000D01*
X131626666Y-72896666D01*
X131693333Y-72930000D01*
X131826666Y-72963333D01*
X131926666Y-72963333D01*
X132060000Y-72930000D01*
X132126666Y-72896666D01*
X132193333Y-72830000D01*
X132226666Y-72730000D01*
X132226666Y-72563333D01*
X131526666Y-73396666D02*
X131526666Y-73530000D01*
X131560000Y-73596666D01*
X131626666Y-73663333D01*
X131760000Y-73696666D01*
X131993333Y-73696666D01*
X132126666Y-73663333D01*
X132193333Y-73596666D01*
X132226666Y-73530000D01*
X132226666Y-73396666D01*
X132193333Y-73330000D01*
X132126666Y-73263333D01*
X131993333Y-73230000D01*
X131760000Y-73230000D01*
X131626666Y-73263333D01*
X131560000Y-73330000D01*
X131526666Y-73396666D01*
X130290000Y-72246666D02*
X130256666Y-72180000D01*
X130256666Y-72080000D01*
X130290000Y-71980000D01*
X130356666Y-71913333D01*
X130423333Y-71880000D01*
X130556666Y-71846666D01*
X130656666Y-71846666D01*
X130790000Y-71880000D01*
X130856666Y-71913333D01*
X130923333Y-71980000D01*
X130956666Y-72080000D01*
X130956666Y-72146666D01*
X130923333Y-72246666D01*
X130890000Y-72280000D01*
X130656666Y-72280000D01*
X130656666Y-72146666D01*
X130956666Y-72580000D02*
X130256666Y-72580000D01*
X130956666Y-72980000D01*
X130256666Y-72980000D01*
X130956666Y-73313333D02*
X130256666Y-73313333D01*
X130256666Y-73480000D01*
X130290000Y-73580000D01*
X130356666Y-73646666D01*
X130423333Y-73680000D01*
X130556666Y-73713333D01*
X130656666Y-73713333D01*
X130790000Y-73680000D01*
X130856666Y-73646666D01*
X130923333Y-73580000D01*
X130956666Y-73480000D01*
X130956666Y-73313333D01*
M02*
