M48
; DRILL file {KiCad 5.1.5-52549c5~84~ubuntu18.04.1} date Mon 13 Apr 2020 09:33:09 PM CEST
; FORMAT={-:-/ absolute / inch / decimal}
; #@! TF.CreationDate,2020-04-13T21:33:09+02:00
; #@! TF.GenerationSoftware,Kicad,Pcbnew,5.1.5-52549c5~84~ubuntu18.04.1
; #@! TF.FileFunction,NonPlated,1,2,NPTH
FMAT,2
INCH
T1C0.0118
%
G90
G05
T1
X5.974Y-3.2327
X5.974Y-3.2502
X5.974Y-3.2677
X5.974Y-3.2852
X5.974Y-3.3027
X4.9213Y-4.2126
X4.9409Y-4.2126
X4.9606Y-4.2126
X4.9803Y-4.2126
X5.0Y-4.2126
X6.0674Y-3.5228
X6.0849Y-3.5228
X6.1024Y-3.5228
X6.1198Y-3.5228
X6.1373Y-3.5228
X5.6343Y-4.1528
X5.6518Y-4.1528
X5.6693Y-4.1528
X5.6868Y-4.1528
X5.7043Y-4.1528
X6.4071Y-3.6264
X6.4071Y-3.6439
X6.4071Y-3.6614
X6.4071Y-3.6789
X6.4071Y-3.6964
X5.6343Y-3.1291
X5.6518Y-3.1291
X5.6693Y-3.1291
X5.6868Y-3.1291
X5.7043Y-3.1291
X6.6748Y-2.839
X6.6748Y-2.8565
X6.6748Y-2.874
X6.6748Y-2.8915
X6.6748Y-2.909
X6.5005Y-2.7354
X6.5179Y-2.7354
X6.5354Y-2.7354
X6.5529Y-2.7354
X6.5704Y-2.7354
X5.3756Y-3.6264
X5.3756Y-3.6439
X5.3756Y-3.6614
X5.3756Y-3.6789
X5.3756Y-3.6964
X6.2417Y-2.839
X6.2417Y-2.8565
X6.2417Y-2.874
X6.2417Y-2.8915
X6.2417Y-2.909
X6.0674Y-2.7354
X6.0849Y-2.7354
X6.1024Y-2.7354
X6.1198Y-2.7354
X6.1373Y-2.7354
X6.5005Y-2.9717
X6.5179Y-2.9717
X6.5354Y-2.9717
X6.5529Y-2.9717
X6.5704Y-2.9717
X6.6748Y-3.6264
X6.6748Y-3.6439
X6.6748Y-3.6614
X6.6748Y-3.6789
X6.6748Y-3.6964
X6.5005Y-3.7591
X6.5179Y-3.7591
X6.5354Y-3.7591
X6.5529Y-3.7591
X6.5704Y-3.7591
X5.2013Y-3.7591
X5.2187Y-3.7591
X5.2362Y-3.7591
X5.2537Y-3.7591
X5.2712Y-3.7591
X6.2417Y-4.0201
X6.2417Y-4.0376
X6.2417Y-4.0551
X6.2417Y-4.0726
X6.2417Y-4.0901
X6.0674Y-3.3654
X6.0849Y-3.3654
X6.1024Y-3.3654
X6.1198Y-3.3654
X6.1373Y-3.3654
X5.3756Y-4.0201
X5.3756Y-4.0376
X5.3756Y-4.0551
X5.3756Y-4.0726
X5.3756Y-4.0901
X6.2417Y-3.6264
X6.2417Y-3.6439
X6.2417Y-3.6614
X6.2417Y-3.6789
X6.2417Y-3.6964
X6.2417Y-3.2327
X6.2417Y-3.2502
X6.2417Y-3.2677
X6.2417Y-3.2852
X6.2417Y-3.3027
X5.3756Y-2.839
X5.3756Y-2.8565
X5.3756Y-2.874
X5.3756Y-2.8915
X5.3756Y-2.909
X4.9213Y-2.6772
X4.9409Y-2.6772
X4.9606Y-2.6772
X4.9803Y-2.6772
X5.0Y-2.6772
X5.2013Y-3.1291
X5.2187Y-3.1291
X5.2362Y-3.1291
X5.2537Y-3.1291
X5.2712Y-3.1291
X6.4071Y-2.839
X6.4071Y-2.8565
X6.4071Y-2.874
X6.4071Y-2.8915
X6.4071Y-2.909
X5.6343Y-3.9165
X5.6518Y-3.9165
X5.6693Y-3.9165
X5.6868Y-3.9165
X5.7043Y-3.9165
X5.3756Y-3.2327
X5.3756Y-3.2502
X5.3756Y-3.2677
X5.3756Y-3.2852
X5.3756Y-3.3027
X5.5409Y-2.839
X5.5409Y-2.8565
X5.5409Y-2.874
X5.5409Y-2.8915
X5.5409Y-2.909
X5.2013Y-4.1528
X5.2187Y-4.1528
X5.2362Y-4.1528
X5.2537Y-4.1528
X5.2712Y-4.1528
X6.0674Y-3.1291
X6.0849Y-3.1291
X6.1024Y-3.1291
X6.1198Y-3.1291
X6.1373Y-3.1291
X5.5409Y-4.0201
X5.5409Y-4.0376
X5.5409Y-4.0551
X5.5409Y-4.0726
X5.5409Y-4.0901
X6.5005Y-3.5228
X6.5179Y-3.5228
X6.5354Y-3.5228
X6.5529Y-3.5228
X6.5704Y-3.5228
X6.5005Y-4.1528
X6.5179Y-4.1528
X6.5354Y-4.1528
X6.5529Y-4.1528
X6.5704Y-4.1528
X6.4071Y-3.2327
X6.4071Y-3.2502
X6.4071Y-3.2677
X6.4071Y-3.2852
X6.4071Y-3.3027
X6.4071Y-4.0201
X6.4071Y-4.0376
X6.4071Y-4.0551
X6.4071Y-4.0726
X6.4071Y-4.0901
X5.974Y-3.6264
X5.974Y-3.6439
X5.974Y-3.6614
X5.974Y-3.6789
X5.974Y-3.6964
X5.2013Y-2.9717
X5.2187Y-2.9717
X5.2362Y-2.9717
X5.2537Y-2.9717
X5.2712Y-2.9717
X5.6343Y-3.7591
X5.6518Y-3.7591
X5.6693Y-3.7591
X5.6868Y-3.7591
X5.7043Y-3.7591
X5.2013Y-3.3654
X5.2187Y-3.3654
X5.2362Y-3.3654
X5.2537Y-3.3654
X5.2712Y-3.3654
X5.5409Y-3.2327
X5.5409Y-3.2502
X5.5409Y-3.2677
X5.5409Y-3.2852
X5.5409Y-3.3027
X6.811Y-2.6772
X6.8307Y-2.6772
X6.8504Y-2.6772
X6.8701Y-2.6772
X6.8898Y-2.6772
X5.2013Y-2.7354
X5.2187Y-2.7354
X5.2362Y-2.7354
X5.2537Y-2.7354
X5.2712Y-2.7354
X6.0674Y-3.9165
X6.0849Y-3.9165
X6.1024Y-3.9165
X6.1198Y-3.9165
X6.1373Y-3.9165
X5.1079Y-2.839
X5.1079Y-2.8565
X5.1079Y-2.874
X5.1079Y-2.8915
X5.1079Y-2.909
X6.0674Y-2.9717
X6.0849Y-2.9717
X6.1024Y-2.9717
X6.1198Y-2.9717
X6.1373Y-2.9717
X6.5005Y-3.3654
X6.5179Y-3.3654
X6.5354Y-3.3654
X6.5529Y-3.3654
X6.5704Y-3.3654
X5.2013Y-3.5228
X5.2187Y-3.5228
X5.2362Y-3.5228
X5.2537Y-3.5228
X5.2712Y-3.5228
X5.8087Y-4.0201
X5.8087Y-4.0376
X5.8087Y-4.0551
X5.8087Y-4.0726
X5.8087Y-4.0901
X5.8087Y-3.6264
X5.8087Y-3.6439
X5.8087Y-3.6614
X5.8087Y-3.6789
X5.8087Y-3.6964
X5.1079Y-4.0201
X5.1079Y-4.0376
X5.1079Y-4.0551
X5.1079Y-4.0726
X5.1079Y-4.0901
X5.8087Y-2.839
X5.8087Y-2.8565
X5.8087Y-2.874
X5.8087Y-2.8915
X5.8087Y-2.909
X6.811Y-4.2126
X6.8307Y-4.2126
X6.8504Y-4.2126
X6.8701Y-4.2126
X6.8898Y-4.2126
X6.0674Y-4.1528
X6.0849Y-4.1528
X6.1024Y-4.1528
X6.1198Y-4.1528
X6.1373Y-4.1528
X6.0674Y-3.7591
X6.0849Y-3.7591
X6.1024Y-3.7591
X6.1198Y-3.7591
X6.1373Y-3.7591
X5.6343Y-3.5228
X5.6518Y-3.5228
X5.6693Y-3.5228
X5.6868Y-3.5228
X5.7043Y-3.5228
X5.8087Y-3.2327
X5.8087Y-3.2502
X5.8087Y-3.2677
X5.8087Y-3.2852
X5.8087Y-3.3027
X6.6748Y-4.0201
X6.6748Y-4.0376
X6.6748Y-4.0551
X6.6748Y-4.0726
X6.6748Y-4.0901
X5.6343Y-2.9717
X5.6518Y-2.9717
X5.6693Y-2.9717
X5.6868Y-2.9717
X5.7043Y-2.9717
X5.974Y-4.0201
X5.974Y-4.0376
X5.974Y-4.0551
X5.974Y-4.0726
X5.974Y-4.0901
X5.6343Y-2.7354
X5.6518Y-2.7354
X5.6693Y-2.7354
X5.6868Y-2.7354
X5.7043Y-2.7354
X6.6748Y-3.2327
X6.6748Y-3.2502
X6.6748Y-3.2677
X6.6748Y-3.2852
X6.6748Y-3.3027
X5.974Y-2.839
X5.974Y-2.8565
X5.974Y-2.874
X5.974Y-2.8915
X5.974Y-2.909
X5.2013Y-3.9165
X5.2187Y-3.9165
X5.2362Y-3.9165
X5.2537Y-3.9165
X5.2712Y-3.9165
X5.5409Y-3.6264
X5.5409Y-3.6439
X5.5409Y-3.6614
X5.5409Y-3.6789
X5.5409Y-3.6964
X5.1079Y-3.2327
X5.1079Y-3.2502
X5.1079Y-3.2677
X5.1079Y-3.2852
X5.1079Y-3.3027
X6.5005Y-3.1291
X6.5179Y-3.1291
X6.5354Y-3.1291
X6.5529Y-3.1291
X6.5704Y-3.1291
X5.1079Y-3.6264
X5.1079Y-3.6439
X5.1079Y-3.6614
X5.1079Y-3.6789
X5.1079Y-3.6964
X5.6343Y-3.3654
X5.6518Y-3.3654
X5.6693Y-3.3654
X5.6868Y-3.3654
X5.7043Y-3.3654
X6.5005Y-3.9165
X6.5179Y-3.9165
X6.5354Y-3.9165
X6.5529Y-3.9165
X6.5704Y-3.9165
T0
M30
