G04 #@! TF.GenerationSoftware,KiCad,Pcbnew,5.1.5-52549c5~84~ubuntu18.04.1*
G04 #@! TF.CreationDate,2020-04-13T21:33:07+02:00*
G04 #@! TF.ProjectId,output.load_cell_panel,6f757470-7574-42e6-9c6f-61645f63656c,rev?*
G04 #@! TF.SameCoordinates,Original*
G04 #@! TF.FileFunction,Legend,Top*
G04 #@! TF.FilePolarity,Positive*
%FSLAX46Y46*%
G04 Gerber Fmt 4.6, Leading zero omitted, Abs format (unit mm)*
G04 Created by KiCad (PCBNEW 5.1.5-52549c5~84~ubuntu18.04.1) date 2020-04-13 21:33:07*
%MOMM*%
%LPD*%
G04 APERTURE LIST*
%ADD10C,0.120000*%
%ADD11C,0.200000*%
%ADD12C,0.150000*%
G04 APERTURE END LIST*
D10*
X162880000Y-105690000D02*
X162880000Y-104580000D01*
X163640000Y-105690000D02*
X162880000Y-105690000D01*
X164400000Y-104016529D02*
X164400000Y-103470000D01*
X164400000Y-105690000D02*
X164400000Y-105143471D01*
X164400000Y-103470000D02*
X169415000Y-103470000D01*
X164400000Y-105690000D02*
X169415000Y-105690000D01*
X169415000Y-104272470D02*
X169415000Y-103470000D01*
X169415000Y-105690000D02*
X169415000Y-104887530D01*
X151880000Y-105690000D02*
X151880000Y-104580000D01*
X152640000Y-105690000D02*
X151880000Y-105690000D01*
X153400000Y-104016529D02*
X153400000Y-103470000D01*
X153400000Y-105690000D02*
X153400000Y-105143471D01*
X153400000Y-103470000D02*
X158415000Y-103470000D01*
X153400000Y-105690000D02*
X158415000Y-105690000D01*
X158415000Y-104272470D02*
X158415000Y-103470000D01*
X158415000Y-105690000D02*
X158415000Y-104887530D01*
X140880000Y-105690000D02*
X140880000Y-104580000D01*
X141640000Y-105690000D02*
X140880000Y-105690000D01*
X142400000Y-104016529D02*
X142400000Y-103470000D01*
X142400000Y-105690000D02*
X142400000Y-105143471D01*
X142400000Y-103470000D02*
X147415000Y-103470000D01*
X142400000Y-105690000D02*
X147415000Y-105690000D01*
X147415000Y-104272470D02*
X147415000Y-103470000D01*
X147415000Y-105690000D02*
X147415000Y-104887530D01*
X129880000Y-105690000D02*
X129880000Y-104580000D01*
X130640000Y-105690000D02*
X129880000Y-105690000D01*
X131400000Y-104016529D02*
X131400000Y-103470000D01*
X131400000Y-105690000D02*
X131400000Y-105143471D01*
X131400000Y-103470000D02*
X136415000Y-103470000D01*
X131400000Y-105690000D02*
X136415000Y-105690000D01*
X136415000Y-104272470D02*
X136415000Y-103470000D01*
X136415000Y-105690000D02*
X136415000Y-104887530D01*
X162880000Y-95690000D02*
X162880000Y-94580000D01*
X163640000Y-95690000D02*
X162880000Y-95690000D01*
X164400000Y-94016529D02*
X164400000Y-93470000D01*
X164400000Y-95690000D02*
X164400000Y-95143471D01*
X164400000Y-93470000D02*
X169415000Y-93470000D01*
X164400000Y-95690000D02*
X169415000Y-95690000D01*
X169415000Y-94272470D02*
X169415000Y-93470000D01*
X169415000Y-95690000D02*
X169415000Y-94887530D01*
X151880000Y-95690000D02*
X151880000Y-94580000D01*
X152640000Y-95690000D02*
X151880000Y-95690000D01*
X153400000Y-94016529D02*
X153400000Y-93470000D01*
X153400000Y-95690000D02*
X153400000Y-95143471D01*
X153400000Y-93470000D02*
X158415000Y-93470000D01*
X153400000Y-95690000D02*
X158415000Y-95690000D01*
X158415000Y-94272470D02*
X158415000Y-93470000D01*
X158415000Y-95690000D02*
X158415000Y-94887530D01*
X140880000Y-95690000D02*
X140880000Y-94580000D01*
X141640000Y-95690000D02*
X140880000Y-95690000D01*
X142400000Y-94016529D02*
X142400000Y-93470000D01*
X142400000Y-95690000D02*
X142400000Y-95143471D01*
X142400000Y-93470000D02*
X147415000Y-93470000D01*
X142400000Y-95690000D02*
X147415000Y-95690000D01*
X147415000Y-94272470D02*
X147415000Y-93470000D01*
X147415000Y-95690000D02*
X147415000Y-94887530D01*
X129880000Y-95690000D02*
X129880000Y-94580000D01*
X130640000Y-95690000D02*
X129880000Y-95690000D01*
X131400000Y-94016529D02*
X131400000Y-93470000D01*
X131400000Y-95690000D02*
X131400000Y-95143471D01*
X131400000Y-93470000D02*
X136415000Y-93470000D01*
X131400000Y-95690000D02*
X136415000Y-95690000D01*
X136415000Y-94272470D02*
X136415000Y-93470000D01*
X136415000Y-95690000D02*
X136415000Y-94887530D01*
X162880000Y-85690000D02*
X162880000Y-84580000D01*
X163640000Y-85690000D02*
X162880000Y-85690000D01*
X164400000Y-84016529D02*
X164400000Y-83470000D01*
X164400000Y-85690000D02*
X164400000Y-85143471D01*
X164400000Y-83470000D02*
X169415000Y-83470000D01*
X164400000Y-85690000D02*
X169415000Y-85690000D01*
X169415000Y-84272470D02*
X169415000Y-83470000D01*
X169415000Y-85690000D02*
X169415000Y-84887530D01*
X151880000Y-85690000D02*
X151880000Y-84580000D01*
X152640000Y-85690000D02*
X151880000Y-85690000D01*
X153400000Y-84016529D02*
X153400000Y-83470000D01*
X153400000Y-85690000D02*
X153400000Y-85143471D01*
X153400000Y-83470000D02*
X158415000Y-83470000D01*
X153400000Y-85690000D02*
X158415000Y-85690000D01*
X158415000Y-84272470D02*
X158415000Y-83470000D01*
X158415000Y-85690000D02*
X158415000Y-84887530D01*
X140880000Y-85690000D02*
X140880000Y-84580000D01*
X141640000Y-85690000D02*
X140880000Y-85690000D01*
X142400000Y-84016529D02*
X142400000Y-83470000D01*
X142400000Y-85690000D02*
X142400000Y-85143471D01*
X142400000Y-83470000D02*
X147415000Y-83470000D01*
X142400000Y-85690000D02*
X147415000Y-85690000D01*
X147415000Y-84272470D02*
X147415000Y-83470000D01*
X147415000Y-85690000D02*
X147415000Y-84887530D01*
X129880000Y-85690000D02*
X129880000Y-84580000D01*
X130640000Y-85690000D02*
X129880000Y-85690000D01*
X131400000Y-84016529D02*
X131400000Y-83470000D01*
X131400000Y-85690000D02*
X131400000Y-85143471D01*
X131400000Y-83470000D02*
X136415000Y-83470000D01*
X131400000Y-85690000D02*
X136415000Y-85690000D01*
X136415000Y-84272470D02*
X136415000Y-83470000D01*
X136415000Y-85690000D02*
X136415000Y-84887530D01*
X162880000Y-75690000D02*
X162880000Y-74580000D01*
X163640000Y-75690000D02*
X162880000Y-75690000D01*
X164400000Y-74016529D02*
X164400000Y-73470000D01*
X164400000Y-75690000D02*
X164400000Y-75143471D01*
X164400000Y-73470000D02*
X169415000Y-73470000D01*
X164400000Y-75690000D02*
X169415000Y-75690000D01*
X169415000Y-74272470D02*
X169415000Y-73470000D01*
X169415000Y-75690000D02*
X169415000Y-74887530D01*
X151880000Y-75690000D02*
X151880000Y-74580000D01*
X152640000Y-75690000D02*
X151880000Y-75690000D01*
X153400000Y-74016529D02*
X153400000Y-73470000D01*
X153400000Y-75690000D02*
X153400000Y-75143471D01*
X153400000Y-73470000D02*
X158415000Y-73470000D01*
X153400000Y-75690000D02*
X158415000Y-75690000D01*
X158415000Y-74272470D02*
X158415000Y-73470000D01*
X158415000Y-75690000D02*
X158415000Y-74887530D01*
X140880000Y-75690000D02*
X140880000Y-74580000D01*
X141640000Y-75690000D02*
X140880000Y-75690000D01*
X142400000Y-74016529D02*
X142400000Y-73470000D01*
X142400000Y-75690000D02*
X142400000Y-75143471D01*
X142400000Y-73470000D02*
X147415000Y-73470000D01*
X142400000Y-75690000D02*
X147415000Y-75690000D01*
X147415000Y-74272470D02*
X147415000Y-73470000D01*
X147415000Y-75690000D02*
X147415000Y-74887530D01*
D11*
X167790000Y-100205001D02*
G75*
G03X167790000Y-100205001I-100000J0D01*
G01*
X156790000Y-100205001D02*
G75*
G03X156790000Y-100205001I-100000J0D01*
G01*
X145790000Y-100205001D02*
G75*
G03X145790000Y-100205001I-100000J0D01*
G01*
X134790000Y-100205001D02*
G75*
G03X134790000Y-100205001I-100000J0D01*
G01*
X167790000Y-90205001D02*
G75*
G03X167790000Y-90205001I-100000J0D01*
G01*
X156790000Y-90205001D02*
G75*
G03X156790000Y-90205001I-100000J0D01*
G01*
X145790000Y-90205001D02*
G75*
G03X145790000Y-90205001I-100000J0D01*
G01*
X134790000Y-90205001D02*
G75*
G03X134790000Y-90205001I-100000J0D01*
G01*
X167790000Y-80205001D02*
G75*
G03X167790000Y-80205001I-100000J0D01*
G01*
X156790000Y-80205001D02*
G75*
G03X156790000Y-80205001I-100000J0D01*
G01*
X145790000Y-80205001D02*
G75*
G03X145790000Y-80205001I-100000J0D01*
G01*
X134790000Y-80205001D02*
G75*
G03X134790000Y-80205001I-100000J0D01*
G01*
X167790000Y-70205001D02*
G75*
G03X167790000Y-70205001I-100000J0D01*
G01*
X156790000Y-70205001D02*
G75*
G03X156790000Y-70205001I-100000J0D01*
G01*
X145790000Y-70205001D02*
G75*
G03X145790000Y-70205001I-100000J0D01*
G01*
D10*
X136415000Y-75690000D02*
X136415000Y-74887530D01*
X136415000Y-74272470D02*
X136415000Y-73470000D01*
X131400000Y-75690000D02*
X136415000Y-75690000D01*
X131400000Y-73470000D02*
X136415000Y-73470000D01*
X131400000Y-75690000D02*
X131400000Y-75143471D01*
X131400000Y-74016529D02*
X131400000Y-73470000D01*
X130640000Y-75690000D02*
X129880000Y-75690000D01*
X129880000Y-75690000D02*
X129880000Y-74580000D01*
D11*
X134790000Y-70205001D02*
G75*
G03X134790000Y-70205001I-100000J0D01*
G01*
D12*
M02*
