G04 #@! TF.GenerationSoftware,KiCad,Pcbnew,5.0.2-bee76a0~70~ubuntu18.04.1*
G04 #@! TF.CreationDate,2020-02-27T14:19:30+01:00*
G04 #@! TF.ProjectId,output.load_cell_panel,6f757470-7574-42e6-9c6f-61645f63656c,rev?*
G04 #@! TF.SameCoordinates,Original*
G04 #@! TF.FileFunction,Copper,L2,Bot*
G04 #@! TF.FilePolarity,Positive*
%FSLAX46Y46*%
G04 Gerber Fmt 4.6, Leading zero omitted, Abs format (unit mm)*
G04 Created by KiCad (PCBNEW 5.0.2-bee76a0~70~ubuntu18.04.1) date Thu 27 Feb 2020 02:19:30 PM CET*
%MOMM*%
%LPD*%
G01*
G04 APERTURE LIST*
G04 #@! TA.AperFunction,ComponentPad*
%ADD10O,1.000000X1.000000*%
G04 #@! TD*
G04 #@! TA.AperFunction,ComponentPad*
%ADD11R,1.000000X1.000000*%
G04 #@! TD*
G04 #@! TA.AperFunction,ViaPad*
%ADD12C,0.400000*%
G04 #@! TD*
G04 #@! TA.AperFunction,Conductor*
%ADD13C,0.250000*%
G04 #@! TD*
G04 APERTURE END LIST*
D10*
G04 #@! TO.P,J1,5*
G04 #@! TO.N,+3V3*
X168980000Y-105100000D03*
G04 #@! TO.P,J1,4*
G04 #@! TO.N,/sdi*
X167710000Y-105100000D03*
G04 #@! TO.P,J1,3*
G04 #@! TO.N,/sck*
X166440000Y-105100000D03*
G04 #@! TO.P,J1,2*
G04 #@! TO.N,/sdo*
X165170000Y-105100000D03*
D11*
G04 #@! TO.P,J1,1*
G04 #@! TO.N,GND*
X163900000Y-105100000D03*
G04 #@! TD*
D10*
G04 #@! TO.P,J1,5*
G04 #@! TO.N,+3V3*
X157980000Y-105100000D03*
G04 #@! TO.P,J1,4*
G04 #@! TO.N,/sdi*
X156710000Y-105100000D03*
G04 #@! TO.P,J1,3*
G04 #@! TO.N,/sck*
X155440000Y-105100000D03*
G04 #@! TO.P,J1,2*
G04 #@! TO.N,/sdo*
X154170000Y-105100000D03*
D11*
G04 #@! TO.P,J1,1*
G04 #@! TO.N,GND*
X152900000Y-105100000D03*
G04 #@! TD*
D10*
G04 #@! TO.P,J1,5*
G04 #@! TO.N,+3V3*
X146980000Y-105100000D03*
G04 #@! TO.P,J1,4*
G04 #@! TO.N,/sdi*
X145710000Y-105100000D03*
G04 #@! TO.P,J1,3*
G04 #@! TO.N,/sck*
X144440000Y-105100000D03*
G04 #@! TO.P,J1,2*
G04 #@! TO.N,/sdo*
X143170000Y-105100000D03*
D11*
G04 #@! TO.P,J1,1*
G04 #@! TO.N,GND*
X141900000Y-105100000D03*
G04 #@! TD*
D10*
G04 #@! TO.P,J1,5*
G04 #@! TO.N,+3V3*
X135980000Y-105100000D03*
G04 #@! TO.P,J1,4*
G04 #@! TO.N,/sdi*
X134710000Y-105100000D03*
G04 #@! TO.P,J1,3*
G04 #@! TO.N,/sck*
X133440000Y-105100000D03*
G04 #@! TO.P,J1,2*
G04 #@! TO.N,/sdo*
X132170000Y-105100000D03*
D11*
G04 #@! TO.P,J1,1*
G04 #@! TO.N,GND*
X130900000Y-105100000D03*
G04 #@! TD*
D10*
G04 #@! TO.P,J1,5*
G04 #@! TO.N,+3V3*
X168980000Y-95100000D03*
G04 #@! TO.P,J1,4*
G04 #@! TO.N,/sdi*
X167710000Y-95100000D03*
G04 #@! TO.P,J1,3*
G04 #@! TO.N,/sck*
X166440000Y-95100000D03*
G04 #@! TO.P,J1,2*
G04 #@! TO.N,/sdo*
X165170000Y-95100000D03*
D11*
G04 #@! TO.P,J1,1*
G04 #@! TO.N,GND*
X163900000Y-95100000D03*
G04 #@! TD*
D10*
G04 #@! TO.P,J1,5*
G04 #@! TO.N,+3V3*
X157980000Y-95100000D03*
G04 #@! TO.P,J1,4*
G04 #@! TO.N,/sdi*
X156710000Y-95100000D03*
G04 #@! TO.P,J1,3*
G04 #@! TO.N,/sck*
X155440000Y-95100000D03*
G04 #@! TO.P,J1,2*
G04 #@! TO.N,/sdo*
X154170000Y-95100000D03*
D11*
G04 #@! TO.P,J1,1*
G04 #@! TO.N,GND*
X152900000Y-95100000D03*
G04 #@! TD*
D10*
G04 #@! TO.P,J1,5*
G04 #@! TO.N,+3V3*
X146980000Y-95100000D03*
G04 #@! TO.P,J1,4*
G04 #@! TO.N,/sdi*
X145710000Y-95100000D03*
G04 #@! TO.P,J1,3*
G04 #@! TO.N,/sck*
X144440000Y-95100000D03*
G04 #@! TO.P,J1,2*
G04 #@! TO.N,/sdo*
X143170000Y-95100000D03*
D11*
G04 #@! TO.P,J1,1*
G04 #@! TO.N,GND*
X141900000Y-95100000D03*
G04 #@! TD*
D10*
G04 #@! TO.P,J1,5*
G04 #@! TO.N,+3V3*
X135980000Y-95100000D03*
G04 #@! TO.P,J1,4*
G04 #@! TO.N,/sdi*
X134710000Y-95100000D03*
G04 #@! TO.P,J1,3*
G04 #@! TO.N,/sck*
X133440000Y-95100000D03*
G04 #@! TO.P,J1,2*
G04 #@! TO.N,/sdo*
X132170000Y-95100000D03*
D11*
G04 #@! TO.P,J1,1*
G04 #@! TO.N,GND*
X130900000Y-95100000D03*
G04 #@! TD*
D10*
G04 #@! TO.P,J1,5*
G04 #@! TO.N,+3V3*
X168980000Y-85100000D03*
G04 #@! TO.P,J1,4*
G04 #@! TO.N,/sdi*
X167710000Y-85100000D03*
G04 #@! TO.P,J1,3*
G04 #@! TO.N,/sck*
X166440000Y-85100000D03*
G04 #@! TO.P,J1,2*
G04 #@! TO.N,/sdo*
X165170000Y-85100000D03*
D11*
G04 #@! TO.P,J1,1*
G04 #@! TO.N,GND*
X163900000Y-85100000D03*
G04 #@! TD*
D10*
G04 #@! TO.P,J1,5*
G04 #@! TO.N,+3V3*
X157980000Y-85100000D03*
G04 #@! TO.P,J1,4*
G04 #@! TO.N,/sdi*
X156710000Y-85100000D03*
G04 #@! TO.P,J1,3*
G04 #@! TO.N,/sck*
X155440000Y-85100000D03*
G04 #@! TO.P,J1,2*
G04 #@! TO.N,/sdo*
X154170000Y-85100000D03*
D11*
G04 #@! TO.P,J1,1*
G04 #@! TO.N,GND*
X152900000Y-85100000D03*
G04 #@! TD*
D10*
G04 #@! TO.P,J1,5*
G04 #@! TO.N,+3V3*
X146980000Y-85100000D03*
G04 #@! TO.P,J1,4*
G04 #@! TO.N,/sdi*
X145710000Y-85100000D03*
G04 #@! TO.P,J1,3*
G04 #@! TO.N,/sck*
X144440000Y-85100000D03*
G04 #@! TO.P,J1,2*
G04 #@! TO.N,/sdo*
X143170000Y-85100000D03*
D11*
G04 #@! TO.P,J1,1*
G04 #@! TO.N,GND*
X141900000Y-85100000D03*
G04 #@! TD*
D10*
G04 #@! TO.P,J1,5*
G04 #@! TO.N,+3V3*
X135980000Y-85100000D03*
G04 #@! TO.P,J1,4*
G04 #@! TO.N,/sdi*
X134710000Y-85100000D03*
G04 #@! TO.P,J1,3*
G04 #@! TO.N,/sck*
X133440000Y-85100000D03*
G04 #@! TO.P,J1,2*
G04 #@! TO.N,/sdo*
X132170000Y-85100000D03*
D11*
G04 #@! TO.P,J1,1*
G04 #@! TO.N,GND*
X130900000Y-85100000D03*
G04 #@! TD*
D10*
G04 #@! TO.P,J1,5*
G04 #@! TO.N,+3V3*
X168980000Y-75100000D03*
G04 #@! TO.P,J1,4*
G04 #@! TO.N,/sdi*
X167710000Y-75100000D03*
G04 #@! TO.P,J1,3*
G04 #@! TO.N,/sck*
X166440000Y-75100000D03*
G04 #@! TO.P,J1,2*
G04 #@! TO.N,/sdo*
X165170000Y-75100000D03*
D11*
G04 #@! TO.P,J1,1*
G04 #@! TO.N,GND*
X163900000Y-75100000D03*
G04 #@! TD*
D10*
G04 #@! TO.P,J1,5*
G04 #@! TO.N,+3V3*
X157980000Y-75100000D03*
G04 #@! TO.P,J1,4*
G04 #@! TO.N,/sdi*
X156710000Y-75100000D03*
G04 #@! TO.P,J1,3*
G04 #@! TO.N,/sck*
X155440000Y-75100000D03*
G04 #@! TO.P,J1,2*
G04 #@! TO.N,/sdo*
X154170000Y-75100000D03*
D11*
G04 #@! TO.P,J1,1*
G04 #@! TO.N,GND*
X152900000Y-75100000D03*
G04 #@! TD*
D10*
G04 #@! TO.P,J1,5*
G04 #@! TO.N,+3V3*
X146980000Y-75100000D03*
G04 #@! TO.P,J1,4*
G04 #@! TO.N,/sdi*
X145710000Y-75100000D03*
G04 #@! TO.P,J1,3*
G04 #@! TO.N,/sck*
X144440000Y-75100000D03*
G04 #@! TO.P,J1,2*
G04 #@! TO.N,/sdo*
X143170000Y-75100000D03*
D11*
G04 #@! TO.P,J1,1*
G04 #@! TO.N,GND*
X141900000Y-75100000D03*
G04 #@! TD*
G04 #@! TO.P,J1,1*
G04 #@! TO.N,GND*
X130900000Y-75100000D03*
D10*
G04 #@! TO.P,J1,2*
G04 #@! TO.N,/sdo*
X132170000Y-75100000D03*
G04 #@! TO.P,J1,3*
G04 #@! TO.N,/sck*
X133440000Y-75100000D03*
G04 #@! TO.P,J1,4*
G04 #@! TO.N,/sdi*
X134710000Y-75100000D03*
G04 #@! TO.P,J1,5*
G04 #@! TO.N,+3V3*
X135980000Y-75100000D03*
G04 #@! TD*
D12*
G04 #@! TO.N,+3V3*
X131300000Y-72300000D03*
X135300000Y-70815000D03*
X146300000Y-70815000D03*
X157300000Y-70815000D03*
X168300000Y-70815000D03*
X135300000Y-80815000D03*
X146300000Y-80815000D03*
X157300000Y-80815000D03*
X168300000Y-80815000D03*
X135300000Y-90815000D03*
X146300000Y-90815000D03*
X157300000Y-90815000D03*
X168300000Y-90815000D03*
X135300000Y-100815000D03*
X146300000Y-100815000D03*
X157300000Y-100815000D03*
X168300000Y-100815000D03*
X142300000Y-72300000D03*
X153300000Y-72300000D03*
X164300000Y-72300000D03*
X131300000Y-82300000D03*
X142300000Y-82300000D03*
X153300000Y-82300000D03*
X164300000Y-82300000D03*
X131300000Y-92300000D03*
X142300000Y-92300000D03*
X153300000Y-92300000D03*
X164300000Y-92300000D03*
X131300000Y-102300000D03*
X142300000Y-102300000D03*
X153300000Y-102300000D03*
X164300000Y-102300000D03*
G04 #@! TO.N,GND*
X133300000Y-71340000D03*
X144300000Y-71340000D03*
X155300000Y-71340000D03*
X166300000Y-71340000D03*
X133300000Y-81340000D03*
X144300000Y-81340000D03*
X155300000Y-81340000D03*
X166300000Y-81340000D03*
X133300000Y-91340000D03*
X144300000Y-91340000D03*
X155300000Y-91340000D03*
X166300000Y-91340000D03*
X133300000Y-101340000D03*
X144300000Y-101340000D03*
X155300000Y-101340000D03*
X166300000Y-101340000D03*
G04 #@! TO.N,/sdi*
X133300000Y-72300000D03*
X144300000Y-72300000D03*
X155300000Y-72300000D03*
X166300000Y-72300000D03*
X133300000Y-82300000D03*
X144300000Y-82300000D03*
X155300000Y-82300000D03*
X166300000Y-82300000D03*
X133300000Y-92300000D03*
X144300000Y-92300000D03*
X155300000Y-92300000D03*
X166300000Y-92300000D03*
X133300000Y-102300000D03*
X144300000Y-102300000D03*
X155300000Y-102300000D03*
X166300000Y-102300000D03*
G04 #@! TD*
D13*
G04 #@! TO.N,+3V3*
X131300000Y-72300000D02*
X132785000Y-70815000D01*
X132785000Y-70815000D02*
X135300000Y-70815000D01*
X142300000Y-72300000D02*
X143785000Y-70815000D01*
X153300000Y-72300000D02*
X154785000Y-70815000D01*
X164300000Y-72300000D02*
X165785000Y-70815000D01*
X131300000Y-82300000D02*
X132785000Y-80815000D01*
X142300000Y-82300000D02*
X143785000Y-80815000D01*
X153300000Y-82300000D02*
X154785000Y-80815000D01*
X164300000Y-82300000D02*
X165785000Y-80815000D01*
X131300000Y-92300000D02*
X132785000Y-90815000D01*
X142300000Y-92300000D02*
X143785000Y-90815000D01*
X153300000Y-92300000D02*
X154785000Y-90815000D01*
X164300000Y-92300000D02*
X165785000Y-90815000D01*
X131300000Y-102300000D02*
X132785000Y-100815000D01*
X142300000Y-102300000D02*
X143785000Y-100815000D01*
X153300000Y-102300000D02*
X154785000Y-100815000D01*
X164300000Y-102300000D02*
X165785000Y-100815000D01*
X143785000Y-70815000D02*
X146300000Y-70815000D01*
X154785000Y-70815000D02*
X157300000Y-70815000D01*
X165785000Y-70815000D02*
X168300000Y-70815000D01*
X132785000Y-80815000D02*
X135300000Y-80815000D01*
X143785000Y-80815000D02*
X146300000Y-80815000D01*
X154785000Y-80815000D02*
X157300000Y-80815000D01*
X165785000Y-80815000D02*
X168300000Y-80815000D01*
X132785000Y-90815000D02*
X135300000Y-90815000D01*
X143785000Y-90815000D02*
X146300000Y-90815000D01*
X154785000Y-90815000D02*
X157300000Y-90815000D01*
X165785000Y-90815000D02*
X168300000Y-90815000D01*
X132785000Y-100815000D02*
X135300000Y-100815000D01*
X143785000Y-100815000D02*
X146300000Y-100815000D01*
X154785000Y-100815000D02*
X157300000Y-100815000D01*
X165785000Y-100815000D02*
X168300000Y-100815000D01*
G04 #@! TO.N,GND*
X130900000Y-73740000D02*
X130900000Y-75100000D01*
X133300000Y-71340000D02*
X130900000Y-73740000D01*
X144300000Y-71340000D02*
X141900000Y-73740000D01*
X155300000Y-71340000D02*
X152900000Y-73740000D01*
X166300000Y-71340000D02*
X163900000Y-73740000D01*
X133300000Y-81340000D02*
X130900000Y-83740000D01*
X144300000Y-81340000D02*
X141900000Y-83740000D01*
X155300000Y-81340000D02*
X152900000Y-83740000D01*
X166300000Y-81340000D02*
X163900000Y-83740000D01*
X133300000Y-91340000D02*
X130900000Y-93740000D01*
X144300000Y-91340000D02*
X141900000Y-93740000D01*
X155300000Y-91340000D02*
X152900000Y-93740000D01*
X166300000Y-91340000D02*
X163900000Y-93740000D01*
X133300000Y-101340000D02*
X130900000Y-103740000D01*
X144300000Y-101340000D02*
X141900000Y-103740000D01*
X155300000Y-101340000D02*
X152900000Y-103740000D01*
X166300000Y-101340000D02*
X163900000Y-103740000D01*
X141900000Y-73740000D02*
X141900000Y-75100000D01*
X152900000Y-73740000D02*
X152900000Y-75100000D01*
X163900000Y-73740000D02*
X163900000Y-75100000D01*
X130900000Y-83740000D02*
X130900000Y-85100000D01*
X141900000Y-83740000D02*
X141900000Y-85100000D01*
X152900000Y-83740000D02*
X152900000Y-85100000D01*
X163900000Y-83740000D02*
X163900000Y-85100000D01*
X130900000Y-93740000D02*
X130900000Y-95100000D01*
X141900000Y-93740000D02*
X141900000Y-95100000D01*
X152900000Y-93740000D02*
X152900000Y-95100000D01*
X163900000Y-93740000D02*
X163900000Y-95100000D01*
X130900000Y-103740000D02*
X130900000Y-105100000D01*
X141900000Y-103740000D02*
X141900000Y-105100000D01*
X152900000Y-103740000D02*
X152900000Y-105100000D01*
X163900000Y-103740000D02*
X163900000Y-105100000D01*
G04 #@! TO.N,/sdi*
X134710000Y-73710000D02*
X134710000Y-75100000D01*
X133300000Y-72300000D02*
X134710000Y-73710000D01*
X144300000Y-72300000D02*
X145710000Y-73710000D01*
X155300000Y-72300000D02*
X156710000Y-73710000D01*
X166300000Y-72300000D02*
X167710000Y-73710000D01*
X133300000Y-82300000D02*
X134710000Y-83710000D01*
X144300000Y-82300000D02*
X145710000Y-83710000D01*
X155300000Y-82300000D02*
X156710000Y-83710000D01*
X166300000Y-82300000D02*
X167710000Y-83710000D01*
X133300000Y-92300000D02*
X134710000Y-93710000D01*
X144300000Y-92300000D02*
X145710000Y-93710000D01*
X155300000Y-92300000D02*
X156710000Y-93710000D01*
X166300000Y-92300000D02*
X167710000Y-93710000D01*
X133300000Y-102300000D02*
X134710000Y-103710000D01*
X144300000Y-102300000D02*
X145710000Y-103710000D01*
X155300000Y-102300000D02*
X156710000Y-103710000D01*
X166300000Y-102300000D02*
X167710000Y-103710000D01*
X145710000Y-73710000D02*
X145710000Y-75100000D01*
X156710000Y-73710000D02*
X156710000Y-75100000D01*
X167710000Y-73710000D02*
X167710000Y-75100000D01*
X134710000Y-83710000D02*
X134710000Y-85100000D01*
X145710000Y-83710000D02*
X145710000Y-85100000D01*
X156710000Y-83710000D02*
X156710000Y-85100000D01*
X167710000Y-83710000D02*
X167710000Y-85100000D01*
X134710000Y-93710000D02*
X134710000Y-95100000D01*
X145710000Y-93710000D02*
X145710000Y-95100000D01*
X156710000Y-93710000D02*
X156710000Y-95100000D01*
X167710000Y-93710000D02*
X167710000Y-95100000D01*
X134710000Y-103710000D02*
X134710000Y-105100000D01*
X145710000Y-103710000D02*
X145710000Y-105100000D01*
X156710000Y-103710000D02*
X156710000Y-105100000D01*
X167710000Y-103710000D02*
X167710000Y-105100000D01*
G04 #@! TD*
M02*
