M48
;DRILL file {KiCad 5.0.2-bee76a0~70~ubuntu18.04.1} date Thu 27 Feb 2020 02:19:32 PM CET
;FORMAT={-:-/ absolute / inch / decimal}
FMAT,2
INCH,TZ
T1C0.0118
T2C0.0256
%
G90
G05
T1
X5.1693Y-2.8465
X5.1693Y-3.2402
X5.1693Y-3.6339
X5.1693Y-4.0276
X5.248Y-2.8087
X5.248Y-2.8465
X5.248Y-3.2024
X5.248Y-3.2402
X5.248Y-3.5961
X5.248Y-3.6339
X5.248Y-3.9898
X5.248Y-4.0276
X5.3268Y-2.788
X5.3268Y-3.1817
X5.3268Y-3.5754
X5.3268Y-3.9691
X5.6024Y-2.8465
X5.6024Y-3.2402
X5.6024Y-3.6339
X5.6024Y-4.0276
X5.6811Y-2.8087
X5.6811Y-2.8465
X5.6811Y-3.2024
X5.6811Y-3.2402
X5.6811Y-3.5961
X5.6811Y-3.6339
X5.6811Y-3.9898
X5.6811Y-4.0276
X5.7598Y-2.788
X5.7598Y-3.1817
X5.7598Y-3.5754
X5.7598Y-3.9691
X6.0354Y-2.8465
X6.0354Y-3.2402
X6.0354Y-3.6339
X6.0354Y-4.0276
X6.1142Y-2.8087
X6.1142Y-2.8465
X6.1142Y-3.2024
X6.1142Y-3.2402
X6.1142Y-3.5961
X6.1142Y-3.6339
X6.1142Y-3.9898
X6.1142Y-4.0276
X6.1929Y-2.788
X6.1929Y-3.1817
X6.1929Y-3.5754
X6.1929Y-3.9691
X6.4685Y-2.8465
X6.4685Y-3.2402
X6.4685Y-3.6339
X6.4685Y-4.0276
X6.5472Y-2.8087
X6.5472Y-2.8465
X6.5472Y-3.2024
X6.5472Y-3.2402
X6.5472Y-3.5961
X6.5472Y-3.6339
X6.5472Y-3.9898
X6.5472Y-4.0276
X6.626Y-2.788
X6.626Y-3.1817
X6.626Y-3.5754
X6.626Y-3.9691
T2
X6.4528Y-2.9567
X6.5028Y-2.9567
X6.5528Y-2.9567
X6.6028Y-2.9567
X6.6528Y-2.9567
X6.0197Y-2.9567
X6.0697Y-2.9567
X6.1197Y-2.9567
X6.1697Y-2.9567
X6.2197Y-2.9567
X5.5866Y-4.1378
X5.6366Y-4.1378
X5.6866Y-4.1378
X5.7366Y-4.1378
X5.7866Y-4.1378
X5.5866Y-2.9567
X5.6366Y-2.9567
X5.6866Y-2.9567
X5.7366Y-2.9567
X5.7866Y-2.9567
X5.5866Y-3.3504
X5.6366Y-3.3504
X5.6866Y-3.3504
X5.7366Y-3.3504
X5.7866Y-3.3504
X5.1535Y-2.9567
X5.2035Y-2.9567
X5.2535Y-2.9567
X5.3035Y-2.9567
X5.3535Y-2.9567
X5.1535Y-3.3504
X5.2035Y-3.3504
X5.2535Y-3.3504
X5.3035Y-3.3504
X5.3535Y-3.3504
X6.4528Y-3.3504
X6.5028Y-3.3504
X6.5528Y-3.3504
X6.6028Y-3.3504
X6.6528Y-3.3504
X6.0197Y-3.7441
X6.0697Y-3.7441
X6.1197Y-3.7441
X6.1697Y-3.7441
X6.2197Y-3.7441
X6.0197Y-4.1378
X6.0697Y-4.1378
X6.1197Y-4.1378
X6.1697Y-4.1378
X6.2197Y-4.1378
X6.4528Y-3.7441
X6.5028Y-3.7441
X6.5528Y-3.7441
X6.6028Y-3.7441
X6.6528Y-3.7441
X5.5866Y-3.7441
X5.6366Y-3.7441
X5.6866Y-3.7441
X5.7366Y-3.7441
X5.7866Y-3.7441
X6.0197Y-3.3504
X6.0697Y-3.3504
X6.1197Y-3.3504
X6.1697Y-3.3504
X6.2197Y-3.3504
X5.1535Y-3.7441
X5.2035Y-3.7441
X5.2535Y-3.7441
X5.3035Y-3.7441
X5.3535Y-3.7441
X5.1535Y-4.1378
X5.2035Y-4.1378
X5.2535Y-4.1378
X5.3035Y-4.1378
X5.3535Y-4.1378
X6.4528Y-4.1378
X6.5028Y-4.1378
X6.5528Y-4.1378
X6.6028Y-4.1378
X6.6528Y-4.1378
T0
M30
