M48
; DRILL file {KiCad 5.1.5-52549c5~84~ubuntu18.04.1} date Mon 13 Apr 2020 09:33:09 PM CEST
; FORMAT={-:-/ absolute / inch / decimal}
; #@! TF.CreationDate,2020-04-13T21:33:09+02:00
; #@! TF.GenerationSoftware,Kicad,Pcbnew,5.1.5-52549c5~84~ubuntu18.04.1
; #@! TF.FileFunction,Plated,1,2,PTH
FMAT,2
INCH
T1C0.0118
T2C0.0256
%
G90
G05
T1
X5.1591Y-2.7693
X5.1591Y-3.163
X5.1591Y-3.5567
X5.1591Y-3.9504
X5.2378Y-2.7882
X5.2378Y-2.826
X5.2378Y-3.1819
X5.2378Y-3.2197
X5.2378Y-3.5756
X5.2378Y-3.6134
X5.2378Y-3.9693
X5.2378Y-4.0071
X5.3165Y-2.7675
X5.3165Y-3.1612
X5.3165Y-3.5549
X5.3165Y-3.9486
X5.5921Y-2.7693
X5.5921Y-3.163
X5.5921Y-3.5567
X5.5921Y-3.9504
X5.6709Y-2.7882
X5.6709Y-2.826
X5.6709Y-3.1819
X5.6709Y-3.2197
X5.6709Y-3.5756
X5.6709Y-3.6134
X5.6709Y-3.9693
X5.6709Y-4.0071
X5.7496Y-2.7675
X5.7496Y-3.1612
X5.7496Y-3.5549
X5.7496Y-3.9486
X6.0252Y-2.7693
X6.0252Y-3.163
X6.0252Y-3.5567
X6.0252Y-3.9504
X6.1039Y-2.7882
X6.1039Y-2.826
X6.1039Y-3.1819
X6.1039Y-3.2197
X6.1039Y-3.5756
X6.1039Y-3.6134
X6.1039Y-3.9693
X6.1039Y-4.0071
X6.1827Y-2.7675
X6.1827Y-3.1612
X6.1827Y-3.5549
X6.1827Y-3.9486
X6.4583Y-2.7693
X6.4583Y-3.163
X6.4583Y-3.5567
X6.4583Y-3.9504
X6.537Y-2.7882
X6.537Y-2.826
X6.537Y-3.1819
X6.537Y-3.2197
X6.537Y-3.5756
X6.537Y-3.6134
X6.537Y-3.9693
X6.537Y-4.0071
X6.6157Y-2.7675
X6.6157Y-3.1612
X6.6157Y-3.5549
X6.6157Y-3.9486
T2
X5.1433Y-3.3299
X5.1933Y-3.3299
X5.2433Y-3.3299
X5.2933Y-3.3299
X5.3433Y-3.3299
X6.0094Y-2.9362
X6.0594Y-2.9362
X6.1094Y-2.9362
X6.1594Y-2.9362
X6.2094Y-2.9362
X5.1433Y-3.7236
X5.1933Y-3.7236
X5.2433Y-3.7236
X5.2933Y-3.7236
X5.3433Y-3.7236
X6.4425Y-3.7236
X6.4925Y-3.7236
X6.5425Y-3.7236
X6.5925Y-3.7236
X6.6425Y-3.7236
X6.0094Y-3.7236
X6.0594Y-3.7236
X6.1094Y-3.7236
X6.1594Y-3.7236
X6.2094Y-3.7236
X5.5764Y-3.7236
X5.6264Y-3.7236
X5.6764Y-3.7236
X5.7264Y-3.7236
X5.7764Y-3.7236
X5.5764Y-3.3299
X5.6264Y-3.3299
X5.6764Y-3.3299
X5.7264Y-3.3299
X5.7764Y-3.3299
X5.1433Y-2.9362
X5.1933Y-2.9362
X5.2433Y-2.9362
X5.2933Y-2.9362
X5.3433Y-2.9362
X5.1433Y-4.1173
X5.1933Y-4.1173
X5.2433Y-4.1173
X5.2933Y-4.1173
X5.3433Y-4.1173
X5.5764Y-2.9362
X5.6264Y-2.9362
X5.6764Y-2.9362
X5.7264Y-2.9362
X5.7764Y-2.9362
X6.4425Y-2.9362
X6.4925Y-2.9362
X6.5425Y-2.9362
X6.5925Y-2.9362
X6.6425Y-2.9362
X5.5764Y-4.1173
X5.6264Y-4.1173
X5.6764Y-4.1173
X5.7264Y-4.1173
X5.7764Y-4.1173
X6.4425Y-4.1173
X6.4925Y-4.1173
X6.5425Y-4.1173
X6.5925Y-4.1173
X6.6425Y-4.1173
X6.0094Y-4.1173
X6.0594Y-4.1173
X6.1094Y-4.1173
X6.1594Y-4.1173
X6.2094Y-4.1173
X6.4425Y-3.3299
X6.4925Y-3.3299
X6.5425Y-3.3299
X6.5925Y-3.3299
X6.6425Y-3.3299
X6.0094Y-3.3299
X6.0594Y-3.3299
X6.1094Y-3.3299
X6.1594Y-3.3299
X6.2094Y-3.3299
T0
M30
