M48
;DRILL file {KiCad 5.0.2-bee76a0~70~ubuntu18.04.1} date Thu 27 Feb 2020 02:19:32 PM CET
;FORMAT={-:-/ absolute / inch / decimal}
FMAT,2
INCH,TZ
T1C0.0118
%
G90
G05
T1
X5.815Y-2.8091
X5.815Y-2.8253
X5.815Y-2.8415
X5.815Y-2.8578
X5.815Y-2.874
X5.815Y-2.8903
X5.815Y-2.9065
X5.815Y-2.9227
X5.815Y-2.939
X6.811Y-4.2126
X6.8268Y-4.2126
X6.8425Y-4.2126
X6.8583Y-4.2126
X6.874Y-4.2126
X6.8898Y-4.2126
X6.248Y-3.2028
X6.248Y-3.219
X6.248Y-3.2352
X6.248Y-3.2515
X6.248Y-3.2677
X6.248Y-3.284
X6.248Y-3.3002
X6.248Y-3.3164
X6.248Y-3.3327
X6.0374Y-4.1693
X6.0536Y-4.1693
X6.0699Y-4.1693
X6.0861Y-4.1693
X6.1024Y-4.1693
X6.1186Y-4.1693
X6.1348Y-4.1693
X6.1511Y-4.1693
X6.1673Y-4.1693
X5.122Y-3.2028
X5.122Y-3.219
X5.122Y-3.2352
X5.122Y-3.2515
X5.122Y-3.2677
X5.122Y-3.284
X5.122Y-3.3002
X5.122Y-3.3164
X5.122Y-3.3327
X5.3819Y-3.9902
X5.3819Y-4.0064
X5.3819Y-4.0226
X5.3819Y-4.0389
X5.3819Y-4.0551
X5.3819Y-4.0714
X5.3819Y-4.0876
X5.3819Y-4.1038
X5.3819Y-4.1201
X5.1713Y-2.7598
X5.1875Y-2.7598
X5.2037Y-2.7598
X5.22Y-2.7598
X5.2362Y-2.7598
X5.2525Y-2.7598
X5.2687Y-2.7598
X5.2849Y-2.7598
X5.3012Y-2.7598
X5.9882Y-3.9902
X5.9882Y-4.0064
X5.9882Y-4.0226
X5.9882Y-4.0389
X5.9882Y-4.0551
X5.9882Y-4.0714
X5.9882Y-4.0876
X5.9882Y-4.1038
X5.9882Y-4.1201
X5.1713Y-3.1535
X5.1875Y-3.1535
X5.2037Y-3.1535
X5.22Y-3.1535
X5.2362Y-3.1535
X5.2525Y-3.1535
X5.2687Y-3.1535
X5.2849Y-3.1535
X5.3012Y-3.1535
X6.4213Y-3.5965
X6.4213Y-3.6127
X6.4213Y-3.6289
X6.4213Y-3.6452
X6.4213Y-3.6614
X6.4213Y-3.6777
X6.4213Y-3.6939
X6.4213Y-3.7101
X6.4213Y-3.7264
X6.0374Y-2.9882
X6.0536Y-2.9882
X6.0699Y-2.9882
X6.0861Y-2.9882
X6.1024Y-2.9882
X6.1186Y-2.9882
X6.1348Y-2.9882
X6.1511Y-2.9882
X6.1673Y-2.9882
X6.4705Y-4.1693
X6.4867Y-4.1693
X6.503Y-4.1693
X6.5192Y-4.1693
X6.5354Y-4.1693
X6.5517Y-4.1693
X6.5679Y-4.1693
X6.5842Y-4.1693
X6.6004Y-4.1693
X6.0374Y-3.9409
X6.0536Y-3.9409
X6.0699Y-3.9409
X6.0861Y-3.9409
X6.1024Y-3.9409
X6.1186Y-3.9409
X6.1348Y-3.9409
X6.1511Y-3.9409
X6.1673Y-3.9409
X5.6043Y-3.1535
X5.6206Y-3.1535
X5.6368Y-3.1535
X5.6531Y-3.1535
X5.6693Y-3.1535
X5.6855Y-3.1535
X5.7018Y-3.1535
X5.718Y-3.1535
X5.7343Y-3.1535
X6.4705Y-3.7756
X6.4867Y-3.7756
X6.503Y-3.7756
X6.5192Y-3.7756
X6.5354Y-3.7756
X6.5517Y-3.7756
X6.5679Y-3.7756
X6.5842Y-3.7756
X6.6004Y-3.7756
X5.122Y-2.8091
X5.122Y-2.8253
X5.122Y-2.8415
X5.122Y-2.8578
X5.122Y-2.874
X5.122Y-2.8903
X5.122Y-2.9065
X5.122Y-2.9227
X5.122Y-2.939
X6.0374Y-3.3819
X6.0536Y-3.3819
X6.0699Y-3.3819
X6.0861Y-3.3819
X6.1024Y-3.3819
X6.1186Y-3.3819
X6.1348Y-3.3819
X6.1511Y-3.3819
X6.1673Y-3.3819
X5.1713Y-3.7756
X5.1875Y-3.7756
X5.2037Y-3.7756
X5.22Y-3.7756
X5.2362Y-3.7756
X5.2525Y-3.7756
X5.2687Y-3.7756
X5.2849Y-3.7756
X5.3012Y-3.7756
X6.248Y-3.5965
X6.248Y-3.6127
X6.248Y-3.6289
X6.248Y-3.6452
X6.248Y-3.6614
X6.248Y-3.6777
X6.248Y-3.6939
X6.248Y-3.7101
X6.248Y-3.7264
X6.4705Y-2.7598
X6.4867Y-2.7598
X6.503Y-2.7598
X6.5192Y-2.7598
X6.5354Y-2.7598
X6.5517Y-2.7598
X6.5679Y-2.7598
X6.5842Y-2.7598
X6.6004Y-2.7598
X4.9213Y-2.6772
X4.937Y-2.6772
X4.9528Y-2.6772
X4.9685Y-2.6772
X4.9843Y-2.6772
X5.Y-2.6772
X5.3819Y-3.2028
X5.3819Y-3.219
X5.3819Y-3.2352
X5.3819Y-3.2515
X5.3819Y-3.2677
X5.3819Y-3.284
X5.3819Y-3.3002
X5.3819Y-3.3164
X5.3819Y-3.3327
X5.9882Y-3.5965
X5.9882Y-3.6127
X5.9882Y-3.6289
X5.9882Y-3.6452
X5.9882Y-3.6614
X5.9882Y-3.6777
X5.9882Y-3.6939
X5.9882Y-3.7101
X5.9882Y-3.7264
X5.9882Y-3.2028
X5.9882Y-3.219
X5.9882Y-3.2352
X5.9882Y-3.2515
X5.9882Y-3.2677
X5.9882Y-3.284
X5.9882Y-3.3002
X5.9882Y-3.3164
X5.9882Y-3.3327
X5.3819Y-3.5965
X5.3819Y-3.6127
X5.3819Y-3.6289
X5.3819Y-3.6452
X5.3819Y-3.6614
X5.3819Y-3.6777
X5.3819Y-3.6939
X5.3819Y-3.7101
X5.3819Y-3.7264
X6.6811Y-3.5965
X6.6811Y-3.6127
X6.6811Y-3.6289
X6.6811Y-3.6452
X6.6811Y-3.6614
X6.6811Y-3.6777
X6.6811Y-3.6939
X6.6811Y-3.7101
X6.6811Y-3.7264
X6.0374Y-3.1535
X6.0536Y-3.1535
X6.0699Y-3.1535
X6.0861Y-3.1535
X6.1024Y-3.1535
X6.1186Y-3.1535
X6.1348Y-3.1535
X6.1511Y-3.1535
X6.1673Y-3.1535
X5.1713Y-3.3819
X5.1875Y-3.3819
X5.2037Y-3.3819
X5.22Y-3.3819
X5.2362Y-3.3819
X5.2525Y-3.3819
X5.2687Y-3.3819
X5.2849Y-3.3819
X5.3012Y-3.3819
X6.4213Y-3.9902
X6.4213Y-4.0064
X6.4213Y-4.0226
X6.4213Y-4.0389
X6.4213Y-4.0551
X6.4213Y-4.0714
X6.4213Y-4.0876
X6.4213Y-4.1038
X6.4213Y-4.1201
X5.6043Y-2.9882
X5.6206Y-2.9882
X5.6368Y-2.9882
X5.6531Y-2.9882
X5.6693Y-2.9882
X5.6855Y-2.9882
X5.7018Y-2.9882
X5.718Y-2.9882
X5.7343Y-2.9882
X6.4705Y-2.9882
X6.4867Y-2.9882
X6.503Y-2.9882
X6.5192Y-2.9882
X6.5354Y-2.9882
X6.5517Y-2.9882
X6.5679Y-2.9882
X6.5842Y-2.9882
X6.6004Y-2.9882
X6.6811Y-3.2028
X6.6811Y-3.219
X6.6811Y-3.2352
X6.6811Y-3.2515
X6.6811Y-3.2677
X6.6811Y-3.284
X6.6811Y-3.3002
X6.6811Y-3.3164
X6.6811Y-3.3327
X5.5551Y-2.8091
X5.5551Y-2.8253
X5.5551Y-2.8415
X5.5551Y-2.8578
X5.5551Y-2.874
X5.5551Y-2.8903
X5.5551Y-2.9065
X5.5551Y-2.9227
X5.5551Y-2.939
X5.5551Y-3.5965
X5.5551Y-3.6127
X5.5551Y-3.6289
X5.5551Y-3.6452
X5.5551Y-3.6614
X5.5551Y-3.6777
X5.5551Y-3.6939
X5.5551Y-3.7101
X5.5551Y-3.7264
X5.6043Y-3.5472
X5.6206Y-3.5472
X5.6368Y-3.5472
X5.6531Y-3.5472
X5.6693Y-3.5472
X5.6855Y-3.5472
X5.7018Y-3.5472
X5.718Y-3.5472
X5.7343Y-3.5472
X5.122Y-3.5965
X5.122Y-3.6127
X5.122Y-3.6289
X5.122Y-3.6452
X5.122Y-3.6614
X5.122Y-3.6777
X5.122Y-3.6939
X5.122Y-3.7101
X5.122Y-3.7264
X5.1713Y-4.1693
X5.1875Y-4.1693
X5.2037Y-4.1693
X5.22Y-4.1693
X5.2362Y-4.1693
X5.2525Y-4.1693
X5.2687Y-4.1693
X5.2849Y-4.1693
X5.3012Y-4.1693
X6.4213Y-3.2028
X6.4213Y-3.219
X6.4213Y-3.2352
X6.4213Y-3.2515
X6.4213Y-3.2677
X6.4213Y-3.284
X6.4213Y-3.3002
X6.4213Y-3.3164
X6.4213Y-3.3327
X6.248Y-3.9902
X6.248Y-4.0064
X6.248Y-4.0226
X6.248Y-4.0389
X6.248Y-4.0551
X6.248Y-4.0714
X6.248Y-4.0876
X6.248Y-4.1038
X6.248Y-4.1201
X6.4705Y-3.5472
X6.4867Y-3.5472
X6.503Y-3.5472
X6.5192Y-3.5472
X6.5354Y-3.5472
X6.5517Y-3.5472
X6.5679Y-3.5472
X6.5842Y-3.5472
X6.6004Y-3.5472
X5.5551Y-3.2028
X5.5551Y-3.219
X5.5551Y-3.2352
X5.5551Y-3.2515
X5.5551Y-3.2677
X5.5551Y-3.284
X5.5551Y-3.3002
X5.5551Y-3.3164
X5.5551Y-3.3327
X5.5551Y-3.9902
X5.5551Y-4.0064
X5.5551Y-4.0226
X5.5551Y-4.0389
X5.5551Y-4.0551
X5.5551Y-4.0714
X5.5551Y-4.0876
X5.5551Y-4.1038
X5.5551Y-4.1201
X6.0374Y-2.7598
X6.0536Y-2.7598
X6.0699Y-2.7598
X6.0861Y-2.7598
X6.1024Y-2.7598
X6.1186Y-2.7598
X6.1348Y-2.7598
X6.1511Y-2.7598
X6.1673Y-2.7598
X6.6811Y-3.9902
X6.6811Y-4.0064
X6.6811Y-4.0226
X6.6811Y-4.0389
X6.6811Y-4.0551
X6.6811Y-4.0714
X6.6811Y-4.0876
X6.6811Y-4.1038
X6.6811Y-4.1201
X6.4705Y-3.9409
X6.4867Y-3.9409
X6.503Y-3.9409
X6.5192Y-3.9409
X6.5354Y-3.9409
X6.5517Y-3.9409
X6.5679Y-3.9409
X6.5842Y-3.9409
X6.6004Y-3.9409
X5.6043Y-4.1693
X5.6206Y-4.1693
X5.6368Y-4.1693
X5.6531Y-4.1693
X5.6693Y-4.1693
X5.6855Y-4.1693
X5.7018Y-4.1693
X5.718Y-4.1693
X5.7343Y-4.1693
X5.1713Y-2.9882
X5.1875Y-2.9882
X5.2037Y-2.9882
X5.22Y-2.9882
X5.2362Y-2.9882
X5.2525Y-2.9882
X5.2687Y-2.9882
X5.2849Y-2.9882
X5.3012Y-2.9882
X6.248Y-2.8091
X6.248Y-2.8253
X6.248Y-2.8415
X6.248Y-2.8578
X6.248Y-2.874
X6.248Y-2.8903
X6.248Y-2.9065
X6.248Y-2.9227
X6.248Y-2.939
X5.122Y-3.9902
X5.122Y-4.0064
X5.122Y-4.0226
X5.122Y-4.0389
X5.122Y-4.0551
X5.122Y-4.0714
X5.122Y-4.0876
X5.122Y-4.1038
X5.122Y-4.1201
X6.0374Y-3.7756
X6.0536Y-3.7756
X6.0699Y-3.7756
X6.0861Y-3.7756
X6.1024Y-3.7756
X6.1186Y-3.7756
X6.1348Y-3.7756
X6.1511Y-3.7756
X6.1673Y-3.7756
X4.9213Y-4.2126
X4.937Y-4.2126
X4.9528Y-4.2126
X4.9685Y-4.2126
X4.9843Y-4.2126
X5.Y-4.2126
X5.815Y-3.2028
X5.815Y-3.219
X5.815Y-3.2352
X5.815Y-3.2515
X5.815Y-3.2677
X5.815Y-3.284
X5.815Y-3.3002
X5.815Y-3.3164
X5.815Y-3.3327
X5.815Y-3.9902
X5.815Y-4.0064
X5.815Y-4.0226
X5.815Y-4.0389
X5.815Y-4.0551
X5.815Y-4.0714
X5.815Y-4.0876
X5.815Y-4.1038
X5.815Y-4.1201
X5.9882Y-2.8091
X5.9882Y-2.8253
X5.9882Y-2.8415
X5.9882Y-2.8578
X5.9882Y-2.874
X5.9882Y-2.8903
X5.9882Y-2.9065
X5.9882Y-2.9227
X5.9882Y-2.939
X6.811Y-2.6772
X6.8268Y-2.6772
X6.8425Y-2.6772
X6.8583Y-2.6772
X6.874Y-2.6772
X6.8898Y-2.6772
X5.6043Y-3.9409
X5.6206Y-3.9409
X5.6368Y-3.9409
X5.6531Y-3.9409
X5.6693Y-3.9409
X5.6855Y-3.9409
X5.7018Y-3.9409
X5.718Y-3.9409
X5.7343Y-3.9409
X5.815Y-3.5965
X5.815Y-3.6127
X5.815Y-3.6289
X5.815Y-3.6452
X5.815Y-3.6614
X5.815Y-3.6777
X5.815Y-3.6939
X5.815Y-3.7101
X5.815Y-3.7264
X6.4705Y-3.1535
X6.4867Y-3.1535
X6.503Y-3.1535
X6.5192Y-3.1535
X6.5354Y-3.1535
X6.5517Y-3.1535
X6.5679Y-3.1535
X6.5842Y-3.1535
X6.6004Y-3.1535
X6.4213Y-2.8091
X6.4213Y-2.8253
X6.4213Y-2.8415
X6.4213Y-2.8578
X6.4213Y-2.874
X6.4213Y-2.8903
X6.4213Y-2.9065
X6.4213Y-2.9227
X6.4213Y-2.939
X6.0374Y-3.5472
X6.0536Y-3.5472
X6.0699Y-3.5472
X6.0861Y-3.5472
X6.1024Y-3.5472
X6.1186Y-3.5472
X6.1348Y-3.5472
X6.1511Y-3.5472
X6.1673Y-3.5472
X5.1713Y-3.9409
X5.1875Y-3.9409
X5.2037Y-3.9409
X5.22Y-3.9409
X5.2362Y-3.9409
X5.2525Y-3.9409
X5.2687Y-3.9409
X5.2849Y-3.9409
X5.3012Y-3.9409
X5.6043Y-3.3819
X5.6206Y-3.3819
X5.6368Y-3.3819
X5.6531Y-3.3819
X5.6693Y-3.3819
X5.6855Y-3.3819
X5.7018Y-3.3819
X5.718Y-3.3819
X5.7343Y-3.3819
X6.4705Y-3.3819
X6.4867Y-3.3819
X6.503Y-3.3819
X6.5192Y-3.3819
X6.5354Y-3.3819
X6.5517Y-3.3819
X6.5679Y-3.3819
X6.5842Y-3.3819
X6.6004Y-3.3819
X5.1713Y-3.5472
X5.1875Y-3.5472
X5.2037Y-3.5472
X5.22Y-3.5472
X5.2362Y-3.5472
X5.2525Y-3.5472
X5.2687Y-3.5472
X5.2849Y-3.5472
X5.3012Y-3.5472
X5.6043Y-3.7756
X5.6206Y-3.7756
X5.6368Y-3.7756
X5.6531Y-3.7756
X5.6693Y-3.7756
X5.6855Y-3.7756
X5.7018Y-3.7756
X5.718Y-3.7756
X5.7343Y-3.7756
X5.3819Y-2.8091
X5.3819Y-2.8253
X5.3819Y-2.8415
X5.3819Y-2.8578
X5.3819Y-2.874
X5.3819Y-2.8903
X5.3819Y-2.9065
X5.3819Y-2.9227
X5.3819Y-2.939
X5.6043Y-2.7598
X5.6206Y-2.7598
X5.6368Y-2.7598
X5.6531Y-2.7598
X5.6693Y-2.7598
X5.6855Y-2.7598
X5.7018Y-2.7598
X5.718Y-2.7598
X5.7343Y-2.7598
X6.6811Y-2.8091
X6.6811Y-2.8253
X6.6811Y-2.8415
X6.6811Y-2.8578
X6.6811Y-2.874
X6.6811Y-2.8903
X6.6811Y-2.9065
X6.6811Y-2.9227
X6.6811Y-2.939
T0
M30
